<svg id="Letter" xmlns="http://www.w3.org/2000/svg" width="14.667" height="12" viewBox="0 0 14.667 12">
  <path id="Path_284542" data-name="Path 284542" d="M9.8,3H6.867C4.1,3,2.718,3,1.859,3.879S1,6.172,1,9s0,4.243.859,5.121S4.1,15,6.867,15H9.8c2.766,0,4.148,0,5.008-.879s.859-2.293.859-5.121,0-4.243-.859-5.121S12.566,3,9.8,3Z" transform="translate(-1 -3)" fill="#171819" opacity="0.5"/>
  <path id="Path_284543" data-name="Path 284543" d="M13.861,7.634a.657.657,0,0,0,.067-.844.484.484,0,0,0-.741-.077L11.672,8.151a17.729,17.729,0,0,1-1.493,1.332,1.457,1.457,0,0,1-.866.363,1.456,1.456,0,0,1-.866-.363A17.714,17.714,0,0,1,6.954,8.151L5.439,6.714a.484.484,0,0,0-.741.077.657.657,0,0,0,.067.844L6.306,9.1A18.138,18.138,0,0,0,7.877,10.49a2.4,2.4,0,0,0,1.435.554,2.4,2.4,0,0,0,1.435-.554A18.127,18.127,0,0,0,12.319,9.1Z" transform="translate(-1.979 -4.302)" fill="#171819"/>
</svg>
