<svg width="15" height="15" viewBox="0 0 15 15" fill="none" xmlns="http://www.w3.org/2000/svg">
<path opacity="0.5" d="M1.05 13.285C2.1 14.335 3.789 14.335 7.168 14.335C10.547 14.335 12.236 14.335 13.286 13.285C14.336 12.235 14.336 10.546 14.336 7.167C14.336 3.788 14.336 2.099 13.286 1.049C12.236 -0.000999928 10.546 3.61355e-09 7.167 3.61355e-09C3.788 3.61355e-09 2.1 0 1.05 1.05C0 2.1 0 3.789 0 7.167C0 10.545 0 12.236 1.05 13.285Z" fill="#4C4E51"/>
<path d="M5.37647 4.83712C4.91584 4.83712 4.46555 4.97372 4.08255 5.22963C3.69955 5.48555 3.40103 5.84929 3.22475 6.27486C3.04848 6.70042 3.00236 7.16871 3.09222 7.62049C3.18209 8.07227 3.4039 8.48726 3.72962 8.81298C4.05534 9.13869 4.47032 9.36051 4.9221 9.45037C5.37389 9.54024 5.84217 9.49412 6.26774 9.31784C6.69331 9.14156 7.05705 8.84305 7.31296 8.46005C7.56888 8.07705 7.70547 7.62676 7.70547 7.16613C7.71145 7.02758 7.77069 6.8967 7.87084 6.80078C7.97098 6.70486 8.1043 6.65131 8.24297 6.65131C8.38164 6.65131 8.51496 6.70486 8.61511 6.80078C8.71525 6.8967 8.77449 7.02758 8.78047 7.16613C8.78047 7.83858 8.58106 8.49594 8.20747 9.05506C7.83387 9.61419 7.30286 10.05 6.68159 10.3073C6.06033 10.5647 5.3767 10.632 4.71716 10.5008C4.05763 10.3696 3.45181 10.0458 2.97631 9.57029C2.50081 9.09479 2.17699 8.48897 2.0458 7.82943C1.91461 7.1699 1.98194 6.48627 2.23928 5.865C2.49662 5.24373 2.9324 4.71273 3.49153 4.33913C4.05066 3.96553 4.70801 3.76613 5.38047 3.76613C5.45301 3.763 5.52542 3.77458 5.59337 3.80018C5.66131 3.82578 5.72336 3.86487 5.77579 3.91509C5.82823 3.96531 5.86995 4.02562 5.89846 4.0924C5.92696 4.15917 5.94166 4.23102 5.94166 4.30362C5.94166 4.37623 5.92696 4.44808 5.89846 4.51485C5.86995 4.58163 5.82823 4.64194 5.77579 4.69216C5.72336 4.74238 5.66131 4.78147 5.59337 4.80707C5.52542 4.83267 5.45301 4.84425 5.38047 4.84113L5.37647 4.83712Z" fill="#4C4E51"/>
<path d="M11.2895 7.16944C11.2895 7.78713 11.0442 8.37952 10.6074 8.81629C10.1706 9.25306 9.57824 9.49844 8.96055 9.49844C8.822 9.50442 8.69112 9.56366 8.5952 9.6638C8.49928 9.76395 8.44574 9.89727 8.44574 10.0359C8.44574 10.1746 8.49928 10.3079 8.5952 10.4081C8.69112 10.5082 8.822 10.5675 8.96055 10.5734C9.633 10.5734 10.2904 10.374 10.8495 10.0004C11.4086 9.62684 11.8444 9.09583 12.1017 8.47456C12.3591 7.85329 12.4264 7.16967 12.2952 6.51013C12.164 5.8506 11.8402 5.24477 11.3647 4.76928C10.8892 4.29378 10.2834 3.96996 9.62385 3.83877C8.96432 3.70758 8.28069 3.77491 7.65942 4.03225C7.03815 4.28959 6.50715 4.72537 6.13355 5.2845C5.75995 5.84363 5.56055 6.50098 5.56055 7.17344C5.56652 7.31198 5.62577 7.44287 5.72591 7.53879C5.82606 7.6347 5.95937 7.68825 6.09805 7.68825C6.23672 7.68825 6.37003 7.6347 6.47018 7.53879C6.57033 7.44287 6.62957 7.31198 6.63555 7.17344C6.63555 6.55562 6.88098 5.9631 7.31784 5.52623C7.75471 5.08937 8.34723 4.84394 8.96505 4.84394C9.58287 4.84394 10.1754 5.08937 10.6123 5.52623C11.0491 5.9631 11.2945 6.55562 11.2945 7.17344L11.2895 7.16944Z" fill="#4C4E51"/>
</svg>
