<svg xmlns="http://www.w3.org/2000/svg" width="12.53" height="13" viewBox="0 0 12.53 13">
  <g id="Lock_Password" data-name="Lock Password" transform="translate(-2 -1.25)">
    <path id="Path_284733" data-name="Path 284733" d="M2,13.759c0-1.772,0-2.658.55-3.209S3.987,10,5.759,10h5.012c1.772,0,2.658,0,3.209.551s.551,1.437.551,3.209,0,2.658-.551,3.209-1.437.551-3.209.551H5.759c-1.772,0-2.658,0-3.209-.551S2,15.531,2,13.759Z" transform="translate(0 -3.268)" fill="#171819" opacity="0.5"/>
    <path id="Path_284734" data-name="Path 284734" d="M7.627,16.253A.627.627,0,1,0,7,15.627.627.627,0,0,0,7.627,16.253Z" transform="translate(-1.867 -5.136)" fill="#171819"/>
    <path id="Path_284735" data-name="Path 284735" d="M11.627,16.253A.627.627,0,1,0,11,15.627.626.626,0,0,0,11.627,16.253Z" transform="translate(-3.361 -5.136)" fill="#171819"/>
    <path id="Path_284736" data-name="Path 284736" d="M16.253,15.627A.627.627,0,1,1,15.627,15,.626.626,0,0,1,16.253,15.627Z" transform="translate(-4.855 -5.136)" fill="#171819"/>
    <path id="Path_284737" data-name="Path 284737" d="M6.19,5.479a3.289,3.289,0,1,1,6.578,0V6.734c.355,0,.666.012.94.032V5.479a4.229,4.229,0,1,0-8.458,0V6.766c.273-.02.584-.029.94-.032Z" transform="translate(-1.214)" fill="#171819"/>
  </g>
</svg>
