<svg width="22" height="22" viewBox="0 0 22 22" fill="none" xmlns="http://www.w3.org/2000/svg">
<path d="M2.03736 2.03309C1.92093 2.1495 1.85013 2.30382 1.83785 2.46801C1.82557 2.63219 1.87262 2.79533 1.97044 2.92776L2.03736 3.00476L5.73519 6.70351C3.93214 7.96725 2.645 9.83856 2.10978 11.9743C2.06851 12.1502 2.09808 12.3352 2.1921 12.4894C2.28612 12.6436 2.43703 12.7546 2.61223 12.7984C2.78743 12.8422 2.97284 12.8154 3.12839 12.7236C3.28395 12.6318 3.39714 12.4826 3.44353 12.308C3.91919 10.4123 5.09069 8.76505 6.72519 7.69351L8.38436 9.35268C7.7216 10.0452 7.3564 10.9697 7.36697 11.9283C7.37754 12.8868 7.76305 13.803 8.44092 14.4808C9.11879 15.1585 10.0351 15.5439 10.9936 15.5543C11.9521 15.5647 12.8766 15.1993 13.569 14.5364L18.9948 19.9631C19.1174 20.0861 19.2821 20.1581 19.4557 20.1646C19.6293 20.1712 19.799 20.1117 19.9305 19.9983C20.0621 19.8848 20.1458 19.7258 20.1649 19.5531C20.184 19.3804 20.137 19.2069 20.0334 19.0675L19.9664 18.9905L14.3629 13.386L14.3638 13.3842L7.99294 7.01701L7.99478 7.01518L6.95619 5.97934L3.00903 2.03309C2.88012 1.90435 2.70538 1.83203 2.52319 1.83203C2.341 1.83203 2.16627 1.90435 2.03736 2.03309ZM11.0024 5.03976C10.0857 5.03976 9.19653 5.17543 8.35411 5.42934L9.48802 6.56234C11.4493 6.174 13.4848 6.55417 15.1736 7.62424C16.8625 8.6943 18.0756 10.3724 18.5621 12.3117C18.6096 12.4849 18.723 12.6326 18.878 12.7233C19.033 12.814 19.2173 12.8404 19.3916 12.7969C19.5658 12.7534 19.7161 12.6435 19.8103 12.4907C19.9046 12.3378 19.9353 12.1541 19.8959 11.9789C19.3988 9.9966 18.2537 8.23715 16.6424 6.97995C15.0312 5.72276 13.0461 5.03988 11.0024 5.03976ZM11.1811 8.25726L14.6654 11.7406C14.6203 10.8312 14.2387 9.97098 13.5948 9.32722C12.9508 8.68345 12.0905 8.30209 11.1811 8.25726Z" fill="#F38294"/>
</svg>
