<svg xmlns="http://www.w3.org/2000/svg" width="18.75" height="15" viewBox="0 0 18.75 15">
  <g id="Eye" transform="translate(-2 -4)">
    <path id="Path_284740" data-name="Path 284740" d="M2,11.5a4.126,4.126,0,0,0,1.2,3.09A10.325,10.325,0,0,0,11.375,19a10.325,10.325,0,0,0,8.18-4.41,4.126,4.126,0,0,0,1.2-3.09,4.126,4.126,0,0,0-1.2-3.09A10.325,10.325,0,0,0,11.375,4,10.325,10.325,0,0,0,3.2,8.41,4.126,4.126,0,0,0,2,11.5Z" fill="#595a5b" opacity="0.5"/>
    <path id="Path_284741" data-name="Path 284741" d="M8.25,11.766a3.516,3.516,0,1,1,3.516,3.516A3.516,3.516,0,0,1,8.25,11.766Zm1.406,0a2.109,2.109,0,1,1,2.109,2.109A2.109,2.109,0,0,1,9.656,11.766Z" transform="translate(-0.391 -0.266)" fill="#595a5b" fill-rule="evenodd"/>
  </g>
</svg>
