<svg xmlns="http://www.w3.org/2000/svg" width="20" height="17" viewBox="0 0 20 17">
  <g id="Iconly_Bulk_Hide" data-name="Iconly/Bulk/Hide" transform="translate(-2 -3.5)">
    <g id="Hide" transform="translate(2 3.5)">
      <path id="Fill-1" d="M10,.382H9.99C5.863.382,2.146,3.306.059,8.209a.75.75,0,0,0,0,.581,15.841,15.841,0,0,0,2.5,4.105l3.61-3.643A4.636,4.636,0,0,1,6.1,8.5,3.919,3.919,0,0,1,10,4.566a4.514,4.514,0,0,1,.741.069L14,1.346a8.858,8.858,0,0,0-4-.964m9.941,7.827A14.861,14.861,0,0,0,16.429,3.05l-3.21,3.239A4,4,0,0,1,13.893,8.5,3.891,3.891,0,0,1,7.8,11.753L4.712,14.874A9.055,9.055,0,0,0,9.99,16.626H10c4.137,0,7.854-2.934,9.941-7.837a.75.75,0,0,0,0-.581" opacity="0.4"/>
      <path id="Combined-Shape" d="M18.205.214a.73.73,0,0,1,0,1.044L16.43,3.05,13.22,6.289,11.806,7.715l.351-.353A2.466,2.466,0,0,1,10,10.955,2.407,2.407,0,0,1,8.87,10.68l-6.05,6.1A.723.723,0,0,1,2.3,17a.707.707,0,0,1-.517-.216.737.737,0,0,1-.088-.926l.029-.039L12.2,5.256l3.093-3.121.868-.877a.262.262,0,0,0,.049-.059.262.262,0,0,0,.049-.059l.917-.925A.731.731,0,0,1,18.205.214Z"/>
    </g>
  </g>
</svg>
