<svg width="13" height="17" viewBox="0 0 13 17" fill="none" xmlns="http://www.w3.org/2000/svg">
<path d="M5.66599 8.68006C5.56683 8.68006 5.47048 8.66711 5.37918 8.6438C5.39131 8.66474 5.40295 8.68575 5.41334 8.70715C5.50813 8.9036 5.50318 9.11822 5.39956 9.31143C5.34202 9.41894 5.25722 9.51215 5.1536 9.58687C5.02708 9.67819 4.87184 9.73996 4.7038 9.76792C4.64044 9.77843 4.57602 9.78585 4.50965 9.78585C4.37586 9.78585 4.24536 9.76365 4.12224 9.71989C3.40717 9.46602 2.7997 9.17051 2.30469 8.83694V9.49611V15.5234C2.30469 16.0628 2.84191 16.5 3.50419 16.5C4.16667 16.5 4.7038 16.0628 4.7038 15.5234V10.1065H5.1536V15.5234C5.1536 16.0628 5.69082 16.5 6.35311 16.5C7.01559 16.5 7.55281 16.0628 7.55281 15.5234V9.49611V8.11133C7.1033 8.32531 6.56627 8.50454 5.92805 8.65052C5.84305 8.67011 5.75467 8.68006 5.66599 8.68006Z" fill="#7EA3FF"/>
<path d="M1.9164 8.31921C2.03322 8.42371 2.16061 8.52569 2.29907 8.62506C2.78768 8.97562 3.41271 9.29292 4.19443 9.57042C4.29524 9.60628 4.40061 9.62318 4.50403 9.62318C4.57011 9.62318 4.63511 9.61513 4.69818 9.60194C4.87855 9.56386 5.03999 9.47397 5.14798 9.34285C5.1735 9.3118 5.19698 9.27926 5.216 9.24379C5.32592 9.03842 5.2908 8.81171 5.14798 8.63857C5.06833 8.54196 4.95568 8.46186 4.8149 8.41194C4.77492 8.39772 4.73679 8.38343 4.69818 8.36905C3.76064 8.02212 3.20867 7.64597 2.89266 7.30031C2.76129 7.15504 2.66727 7.01412 2.60004 6.87502C3.01404 7.20291 3.63227 7.89953 4.69818 8.21439C4.72991 8.22371 4.7627 8.23208 4.7952 8.24069C4.76716 8.19559 4.74368 8.14819 4.72651 8.09819C4.71283 8.05846 4.70419 8.01825 4.69818 7.97805C4.68857 7.91343 4.68809 7.84866 4.69818 7.78476C4.7139 7.68523 4.7528 7.58807 4.81509 7.49802C4.89659 7.38001 5.01137 7.28317 5.14886 7.21381C5.2257 7.17511 5.30953 7.14469 5.39918 7.12463C6.10153 6.96736 6.74121 6.71127 7.16647 6.51719C7.20062 6.50163 7.23283 6.48662 7.26407 6.47193C7.2437 6.49397 7.22109 6.51664 7.19664 6.53963C7.18063 6.55471 7.16589 6.56949 7.14794 6.58505C6.88617 6.80654 6.36777 7.06886 5.45138 7.27677C5.33495 7.30331 5.23288 7.35062 5.14798 7.4116C4.93181 7.56698 4.83042 7.81438 4.91338 8.05569C4.95519 8.17742 5.03961 8.27916 5.14798 8.35704C5.28799 8.45768 5.46903 8.51724 5.66037 8.51731C5.72964 8.51731 5.79998 8.50965 5.87013 8.49378C6.5428 8.33974 7.09661 8.15143 7.54719 7.92489C7.73988 7.82796 7.91346 7.72393 8.06966 7.61271C8.13632 7.56524 8.20016 7.51666 8.26041 7.4665C8.79502 7.02747 9.03127 6.46956 9.02419 5.97192C9.01633 5.25792 8.63658 4.67371 8.29816 4.24898C7.95382 3.82519 7.62335 3.55868 7.5991 3.53846C7.40389 3.38079 7.13173 3.3255 6.8819 3.37123C6.87394 3.38063 6.86598 3.38995 6.85793 3.3992C6.70211 3.57795 6.51127 3.73261 6.29335 3.85766C5.90428 4.08096 5.43158 4.21027 4.92483 4.21027C4.74407 4.21027 4.56215 4.19329 4.38421 4.15948C4.08043 4.1019 3.79945 3.99818 3.55203 3.856C3.33645 3.73214 3.14822 3.57764 2.99182 3.39904C2.98386 3.38995 2.9762 3.38079 2.96853 3.37163C2.69803 3.32092 2.40298 3.39003 2.20816 3.57242V3.57226C2.18341 3.59604 1.8741 3.88657 1.55703 4.35751C1.24316 4.82814 0.90949 5.48463 0.906288 6.25644C0.902989 6.83363 1.11314 7.4759 1.64794 8.05561C1.73012 8.14527 1.82006 8.23295 1.9164 8.31921Z" fill="#7EA3FF"/>
<path d="M4.43031 4.00792C5.26966 4.16701 6.10834 3.90839 6.61839 3.3989C6.82176 3.19574 6.97302 2.95276 7.05102 2.68025C7.32424 1.72446 6.59414 0.769225 5.42034 0.546708C4.24635 0.324113 3.07304 0.918517 2.79953 1.8743C2.64022 2.43095 2.82185 2.9872 3.23294 3.3989C3.52769 3.69401 3.94005 3.91503 4.43031 4.00792Z" fill="#7EA3FF"/>
<path d="M11.1036 8.79689L9.04688 9.03726L9.06395 9.11309L11.5596 9.04626L11.0745 8.37247L12.9051 8.13376L12.8107 7.80469L10.6159 8.21599L11.1036 8.79689Z" fill="#7EA3FF"/>
<path d="M12.3559 10.0351L10.5321 9.58594L10.5903 10.1793L8.95618 9.65197L8.92969 9.71351L10.7964 10.5185L10.7881 9.85774L12.2553 10.3089L12.3559 10.0351Z" fill="#7EA3FF"/>
<path d="M8.49219 8.45791L8.53847 8.50981L10.3851 7.73056L9.72352 7.3657L10.9943 6.65147L10.7783 6.43164L9.30961 7.38206L9.93231 7.6763L8.49219 8.45791Z" fill="#7EA3FF"/>
</svg>
