<svg width="9" height="16" viewBox="0 0 9 16" fill="none" xmlns="http://www.w3.org/2000/svg">
<path d="M5.98491 5.09961C6.95644 5.09961 7.35031 5.69531 7.49763 6.02381L8.69084 8.94347C8.92909 9.57167 7.85556 9.83146 7.59962 9.21972L6.52582 6.53887H6.21294L8.07447 11.3075H6.35943V15.0253C6.35943 15.6593 5.07805 15.656 5.07805 15.0253V11.2831H4.55566L4.55621 15.02C4.55621 15.6591 3.26958 15.6591 3.26958 15.02L3.2693 11.3073H1.54901L3.39589 6.53867H3.10761L2.03353 9.22918C1.77786 9.81562 0.69494 9.57496 0.942869 8.94635L2.13525 6.02381C2.26294 5.69078 2.6546 5.09961 3.63498 5.09961H5.98491Z" fill="#7EA3FF"/>
<path d="M4.81799 4.88079C5.58689 4.88079 6.21021 4.41691 6.21021 3.84469C6.21021 3.27247 5.58689 2.80859 4.81799 2.80859C4.0491 2.80859 3.42578 3.27247 3.42578 3.84469C3.42578 4.41691 4.0491 4.88079 4.81799 4.88079Z" fill="#7EA3FF"/>
<path d="M5.36815 3.63203C5.4744 3.63203 5.56053 3.56794 5.56053 3.48887C5.56053 3.4098 5.4744 3.3457 5.36815 3.3457C5.26191 3.3457 5.17578 3.4098 5.17578 3.48887C5.17578 3.56794 5.26191 3.63203 5.36815 3.63203Z" fill="#7EA3FF"/>
<path d="M5.50556 3.38753L5.37109 3.28516L5.23274 3.3858L5.36721 3.48818L5.50556 3.38753Z" fill="#7EA3FF"/>
<path d="M5.8516 0.948831L6.0039 0.5L5.57299 0.593387L5.35547 1.34274L5.53789 1.36701L5.39112 1.807L5.67139 1.84444L5.52186 2.3957L6.0589 1.58752L5.86514 1.56181L6.1678 0.991205L5.8516 0.948831Z" fill="#7EA3FF"/>
<path d="M4.82387 4.69417C5.03941 4.69417 5.21414 4.56413 5.21414 4.40373C5.21414 4.24332 5.03941 4.11328 4.82387 4.11328C4.60832 4.11328 4.43359 4.24332 4.43359 4.40373C4.43359 4.56413 4.60832 4.69417 4.82387 4.69417Z" fill="#7EA3FF"/>
<path d="M7.72283 1.69511L8.1963 1.39459L7.77258 1.28516L7.01249 1.80248L7.14239 1.90081L6.6797 2.19639L6.87898 2.34758L6.32812 2.73265L7.39502 2.30521L7.25682 2.20071L7.94781 1.86563L7.72283 1.69511Z" fill="#7EA3FF"/>
</svg>
