<svg width="25" height="25" viewBox="0 0 25 25" fill="none" xmlns="http://www.w3.org/2000/svg">
<g clip-path="url(#clip0_920_21147)">
<path d="M17.3076 6.30857C17.1765 6.30857 17.0703 6.17743 17.0703 6.01585V4.84497C17.0703 4.68339 17.1765 4.55225 17.3076 4.55225C17.4388 4.55225 17.545 4.68339 17.545 4.84497V6.01585C17.545 6.17743 17.4388 6.30857 17.3076 6.30857Z" fill="#7D9B02"/>
<path d="M19.6789 8.06493H18.7295C18.5984 8.06493 18.4922 7.9338 18.4922 7.77221C18.4922 7.61063 18.5984 7.47949 18.7295 7.47949H19.6789C19.81 7.47949 19.9162 7.61063 19.9162 7.77221C19.9162 7.9338 19.81 8.06493 19.6789 8.06493Z" fill="#7D9B02"/>
<path d="M18.0186 7.18686C17.9578 7.18686 17.897 7.15832 17.8508 7.10109C17.7581 6.98679 17.7581 6.80149 17.8508 6.68704L18.5628 5.80888C18.6554 5.69457 18.8057 5.69457 18.8984 5.80888C18.991 5.92318 18.991 6.10848 18.8984 6.22293L18.1863 7.10109C18.1401 7.15832 18.0793 7.18686 18.0186 7.18686Z" fill="#7D9B02"/>
<path d="M19.4445 18.4565H18.4951C18.364 18.4565 18.2578 18.3254 18.2578 18.1638C18.2578 18.0022 18.364 17.8711 18.4951 17.8711H19.4445C19.5756 17.8711 19.6818 18.0022 19.6818 18.1638C19.6818 18.3254 19.5756 18.4565 19.4445 18.4565Z" fill="#7D9B02"/>
<path d="M17.0694 21.3838C16.9382 21.3838 16.832 21.2526 16.832 21.091V19.9202C16.832 19.7586 16.9382 19.6274 17.0694 19.6274C17.2005 19.6274 17.3067 19.7586 17.3067 19.9202V21.091C17.3067 21.2526 17.2005 21.3838 17.0694 21.3838Z" fill="#7D9B02"/>
<path d="M18.4923 20.213C18.4315 20.213 18.3708 20.1844 18.3245 20.1272L17.6125 19.2491C17.5198 19.1347 17.5198 18.9495 17.6125 18.835C17.7052 18.7207 17.8554 18.7207 17.9481 18.835L18.6601 19.7132C18.7527 19.8275 18.7527 20.0128 18.6601 20.1272C18.6138 20.1844 18.553 20.213 18.4923 20.213Z" fill="#7D9B02"/>
<path d="M14.5778 17.1394C15.4298 17.1394 16.1205 16.2875 16.1205 15.2367C16.1205 14.1858 15.4298 13.334 14.5778 13.334C13.7258 13.334 13.0352 14.1858 13.0352 15.2367C13.0352 16.2875 13.7258 17.1394 14.5778 17.1394Z" fill="#7D9B02"/>
<path d="M14.5779 8.21143C13.2038 8.21143 12.0859 9.59029 12.0859 11.285C12.0859 12.2182 12.4285 13.0909 13.0109 13.6729C13.3812 13.1098 13.9457 12.7486 14.5779 12.7486C15.2102 12.7486 15.7747 13.1098 16.1449 13.6729C16.7273 13.0909 17.0699 12.2182 17.0699 11.285C17.0699 9.59029 15.9521 8.21143 14.5779 8.21143ZM14.5779 9.38231C13.7273 9.38231 13.0353 10.2359 13.0353 11.285C13.0353 11.4466 12.9289 11.5777 12.7979 11.5777C12.6669 11.5777 12.5606 11.4466 12.5606 11.285C12.5606 9.91302 13.4656 8.79687 14.5779 8.79687C14.7089 8.79687 14.8153 8.92801 14.8153 9.08959C14.8153 9.25117 14.7089 9.38231 14.5779 9.38231Z" fill="#7D9B02"/>
<path d="M14.3404 6.45505C12.7357 6.45505 11.5199 6.97975 10.7826 7.41986C10.5253 7.57339 10.2268 7.55319 9.98409 7.36541C9.73952 7.17646 9.59368 6.85125 9.59368 6.49574V4.11328H8.16968V7.12436C8.16968 8.21899 8.51535 9.2482 9.14286 10.0222L11.2296 12.5958C11.9522 13.4869 11.9522 14.9371 11.2296 15.8283C10.5144 16.7104 9.37889 16.7293 8.6447 15.8713C8.11474 15.2521 7.2951 15.2657 6.77879 15.9023C6.37484 16.4008 6.15234 17.0633 6.15234 17.7678V21.6766H7.91704C7.64102 20.8651 7.18724 19.1081 8.00188 18.1033C8.89948 16.9961 9.80633 17.5553 10.8564 18.2028C11.7167 18.7334 12.6918 19.3348 13.9844 19.3348C17.2928 19.3348 18.4937 15.221 18.4937 12.4558C18.4937 9.95014 16.9136 6.45505 14.3404 6.45505ZM16.3984 14.1725C16.5231 14.4957 16.595 14.8556 16.595 15.2367C16.595 16.6087 15.6901 17.7248 14.5777 17.7248C13.4653 17.7248 12.5603 16.6087 12.5603 15.2367C12.5603 14.8556 12.6321 14.4957 12.757 14.1725C12.0361 13.4805 11.611 12.42 11.611 11.285C11.611 9.26737 12.9419 7.62594 14.5777 7.62594C16.2135 7.62594 17.5444 9.26737 17.5444 11.285C17.5444 12.42 17.1193 13.4805 16.3984 14.1725Z" fill="#7D9B02"/>
</g>
<defs>
<clipPath id="clip0_920_21147">
<rect width="14.4" height="18" fill="white" transform="translate(5.70312 3.9668)"/>
</clipPath>
</defs>
</svg>
