<svg width="20" height="21" viewBox="0 0 20 21" fill="none" xmlns="http://www.w3.org/2000/svg">
<path d="M10.0002 8.59556C10.9581 8.59556 11.7347 7.81897 11.7347 6.86101C11.7347 5.90305 10.9581 5.12646 10.0002 5.12646C9.04221 5.12646 8.26562 5.90305 8.26562 6.86101C8.26562 7.81897 9.04221 8.59556 10.0002 8.59556Z" fill="#8787FF"/>
<path d="M4.69709 7.84676C4.56957 7.97428 4.37242 8.02157 4.21131 8.01791C4.15571 8.01667 4.10273 7.99403 4.0634 7.9547C4.02407 7.91537 4.00143 7.86239 4.00019 7.80679C3.99657 7.64568 4.04372 7.44853 4.17134 7.32101C4.29897 7.19349 4.49602 7.14619 4.65713 7.14985C4.71273 7.15109 4.76571 7.17373 4.80504 7.21306C4.84437 7.25239 4.86701 7.30537 4.86825 7.36097C4.87191 7.52222 4.82447 7.71938 4.69709 7.84676Z" fill="#8787FF"/>
<path d="M6.69281 4.92229C6.63819 5.0942 6.48488 5.22695 6.34014 5.29763C6.2902 5.3221 6.23274 5.32637 6.17974 5.30953C6.12674 5.29269 6.08227 5.25606 6.05561 5.20725C5.97825 5.0658 5.92961 4.86905 5.98423 4.69717C6.03885 4.52529 6.19216 4.39251 6.33691 4.32183C6.38685 4.29736 6.44431 4.2931 6.49731 4.30995C6.55032 4.32679 6.59478 4.36343 6.62144 4.41224C6.69876 4.55366 6.74743 4.75041 6.69281 4.92229Z" fill="#8787FF"/>
<path d="M10.2854 2.72029C10.3994 2.86011 10.4264 3.06103 10.4064 3.2208C10.3995 3.27599 10.3716 3.32641 10.3285 3.36154C10.2853 3.39668 10.2303 3.41382 10.1749 3.40939C10.0143 3.3967 9.82308 3.3296 9.70901 3.18979C9.59495 3.04997 9.56808 2.84886 9.5881 2.68928C9.59496 2.63409 9.62286 2.58367 9.66598 2.54854C9.7091 2.5134 9.76412 2.49626 9.81956 2.50068C9.98023 2.51341 10.1715 2.58058 10.2854 2.72029Z" fill="#8787FF"/>
<path d="M5.33189 11.3971C5.35046 11.5765 5.26298 11.7594 5.15839 11.8821C5.12237 11.9244 5.07139 11.9513 5.01607 11.957C4.96074 11.9627 4.90535 11.9469 4.86142 11.9128C4.73408 11.814 4.61091 11.653 4.59234 11.4736C4.57377 11.2942 4.66143 11.1114 4.76585 10.9887C4.80187 10.9463 4.85285 10.9195 4.90817 10.9137C4.96349 10.908 5.01889 10.9239 5.06282 10.958C5.19019 11.0567 5.31336 11.2177 5.33189 11.3971Z" fill="#8787FF"/>
<path d="M15.3042 7.84676C15.4317 7.97428 15.6288 8.02157 15.7899 8.01791C15.8455 8.01667 15.8985 7.99403 15.9379 7.9547C15.9772 7.91537 15.9998 7.86239 16.0011 7.80679C16.0047 7.64568 15.9575 7.44853 15.8299 7.32101C15.7023 7.19349 15.5052 7.14619 15.3441 7.14985C15.2885 7.15109 15.2355 7.17373 15.1962 7.21306C15.1569 7.25239 15.1342 7.30537 15.133 7.36097C15.1293 7.52222 15.1768 7.71938 15.3042 7.84676Z" fill="#8787FF"/>
<path d="M13.3084 4.92229C13.3631 5.0942 13.5164 5.22695 13.6611 5.29763C13.7111 5.3221 13.7685 5.32637 13.8215 5.30953C13.8745 5.29269 13.919 5.25606 13.9456 5.20725C14.023 5.0658 14.0716 4.86905 14.017 4.69717C13.9624 4.52529 13.8091 4.39251 13.6643 4.32183C13.6144 4.29736 13.5569 4.2931 13.5039 4.30995C13.4509 4.32679 13.4065 4.36343 13.3798 4.41224C13.3025 4.55366 13.2538 4.75041 13.3084 4.92229Z" fill="#8787FF"/>
<path d="M14.6705 11.3971C14.6519 11.5765 14.7394 11.7594 14.844 11.8821C14.88 11.9244 14.931 11.9513 14.9863 11.957C15.0416 11.9627 15.097 11.9469 15.1409 11.9128C15.2683 11.814 15.3915 11.653 15.41 11.4736C15.4286 11.2942 15.3409 11.1114 15.2365 10.9887C15.2005 10.9463 15.1495 10.9195 15.0942 10.9137C15.0389 10.908 14.9835 10.9239 14.9395 10.958C14.8122 11.0567 14.689 11.2177 14.6705 11.3971Z" fill="#8787FF"/>
<path d="M4.96755 16.1259C4.94749 16.3321 4.97319 16.5403 5.04281 16.7355C5.11243 16.9307 5.22426 17.1082 5.37032 17.2552C5.51639 17.4023 5.6931 17.5153 5.88785 17.5862C6.08259 17.6571 6.29059 17.6842 6.497 17.6655C7.01129 17.6181 7.57396 17.5494 8.10965 17.4798C8.13723 17.4759 8.16367 17.4662 8.18718 17.4512C8.21068 17.4363 8.23071 17.4164 8.24591 17.3931C8.26112 17.3698 8.27114 17.3434 8.27531 17.3159C8.27949 17.2883 8.27771 17.2602 8.2701 17.2334C8.24989 17.1562 8.24629 17.0755 8.25951 16.9967C8.30945 16.6993 8.47179 15.6677 8.54603 15.2213C8.55049 15.1946 8.5493 15.1673 8.54254 15.1412C8.53578 15.115 8.52361 15.0905 8.50681 15.0693C8.49001 15.0481 8.46895 15.0307 8.445 15.0181C8.42104 15.0056 8.39472 14.9982 8.36774 14.9965C8.21295 14.9853 8.05761 14.9841 7.90266 14.9928C7.55449 15.0164 7.26071 15.1829 7.0481 15.3214C6.61208 15.6053 5.9336 15.9556 5.47513 15.8693C5.40254 15.8566 5.33431 15.8258 5.27671 15.7798C5.25677 15.7628 5.23293 15.7509 5.20732 15.7454C5.1817 15.7398 5.15511 15.7406 5.12989 15.7478C5.10468 15.755 5.08163 15.7683 5.0628 15.7865C5.04397 15.8047 5.02994 15.8274 5.02196 15.8523L5.02087 15.8559C4.9941 15.9439 4.97624 16.0343 4.96755 16.1259Z" fill="#8787FF"/>
<path d="M14.98 15.856L14.9789 15.8525C14.9725 15.8296 14.9606 15.8087 14.9442 15.7914C14.9278 15.7742 14.9075 15.7612 14.885 15.7536C14.8625 15.7459 14.8384 15.7439 14.815 15.7476C14.7915 15.7514 14.7693 15.7608 14.7502 15.775C14.6856 15.8226 14.6109 15.8549 14.532 15.8693C14.0735 15.9556 13.395 15.6052 12.959 15.3214C12.7463 15.1829 12.4528 15.0164 12.1044 14.9928C11.4907 14.9513 10.6415 15.1386 10.0009 15.1488C9.74621 15.1447 9.45951 15.1125 9.16806 15.0781C9.13596 15.0813 9.11003 15.0844 9.09218 15.0872C9.06419 15.0918 9.03835 15.1051 9.01836 15.1252C8.99837 15.1453 8.98524 15.1713 8.98084 15.1993C8.93006 15.5337 8.7596 16.6497 8.68924 17.0686C8.68611 17.0878 8.68721 17.1075 8.69247 17.1263C8.69773 17.1451 8.70702 17.1625 8.71969 17.1774C8.73236 17.1922 8.7481 17.2041 8.76584 17.2123C8.78357 17.2204 8.80287 17.2246 8.82238 17.2245C8.82819 17.2245 8.83399 17.2242 8.83975 17.2234C8.94037 17.213 9.03757 17.181 9.12482 17.1299C9.16696 17.1038 9.21556 17.0902 9.26507 17.0905C9.28618 17.0905 12.4059 17.5644 13.5039 17.6652C13.7335 17.6861 13.9647 17.6503 14.1773 17.5609C14.3898 17.4716 14.5772 17.3314 14.7229 17.1528C14.8686 16.9742 14.9683 16.7625 15.0131 16.5363C15.058 16.3102 15.0466 16.0765 14.98 15.8557L14.98 15.856Z" fill="#8787FF"/>
<path d="M14.9297 14.9533C14.942 14.9498 14.954 14.9453 14.9656 14.9399C15.0836 14.8825 15.0586 14.7632 14.96 14.7379C14.8845 14.7243 14.8111 14.7015 14.7413 14.6699C14.4783 14.5396 13.5973 13.6793 13.252 12.0226C12.7717 10.2741 11.6782 9.05005 10.0008 9.05005C8.44161 9.05005 7.17232 10.1003 6.74946 12.0226C6.40411 13.6793 5.52315 14.5396 5.26016 14.6699C5.19034 14.7015 5.1169 14.7243 5.0415 14.7379C4.94285 14.7633 4.91786 14.8825 5.03584 14.9399C5.04742 14.9453 5.05943 14.9498 5.07175 14.9533C5.03523 15.0307 5.0124 15.1139 5.00429 15.1991C5.00183 15.2421 5.00888 15.285 5.02495 15.3249C5.04102 15.3648 5.0657 15.4007 5.09723 15.4299C5.12877 15.4592 5.16637 15.4811 5.20736 15.4941C5.24834 15.5071 5.2917 15.5109 5.33433 15.5052C6.45761 15.3668 7.55673 14.5343 7.5292 13.5784C7.51074 12.9379 7.54646 11.9482 7.80618 11.1512C7.81544 11.1228 7.83045 11.0966 7.85029 11.0742C7.87013 11.0518 7.89437 11.0338 7.9215 11.0212C7.94863 11.0086 7.97806 11.0017 8.00796 11.001C8.03786 11.0003 8.06759 11.0057 8.09528 11.017C8.14482 11.039 8.18476 11.0782 8.20777 11.1272C8.23077 11.1763 8.2353 11.232 8.22052 11.2842C8.09307 11.7711 7.82533 12.928 8.03809 14.1938C8.05214 14.2819 8.09954 14.3613 8.17047 14.4154C8.55237 14.7002 9.6219 14.7397 10.0039 14.7397C10.3847 14.7397 11.4837 14.7005 11.8695 14.4185C11.9418 14.3655 11.9905 14.2863 12.0053 14.1979C12.2193 12.9305 11.9149 11.7712 11.7873 11.2841C11.7725 11.232 11.7771 11.1762 11.8002 11.1271C11.8232 11.0781 11.8633 11.039 11.9129 11.0171C11.9406 11.0059 11.9703 11.0005 12.0001 11.0012C12.03 11.0019 12.0594 11.0088 12.0865 11.0214C12.1135 11.034 12.1378 11.052 12.1576 11.0744C12.1774 11.0967 12.1924 11.1229 12.2017 11.1513C12.4614 11.9483 12.4786 12.9071 12.4786 13.5785C12.4786 14.5085 13.5662 15.5503 14.7014 15.5411C14.7662 15.5418 14.8294 15.5207 14.8809 15.4813C14.9323 15.4418 14.969 15.3863 14.9852 15.3235C15.0077 15.2255 14.9958 15.1018 14.9297 14.9533Z" fill="#8787FF"/>
</svg>
