<svg width="16" height="9" viewBox="0 0 16 9" fill="none" xmlns="http://www.w3.org/2000/svg">
<path d="M8.19737 7.02581C8.13095 7.09224 8.06151 7.15564 7.99207 7.21905C7.86526 7.32774 7.85016 7.51795 7.96187 7.64476C8.02226 7.71118 8.10378 7.74742 8.18832 7.74742C8.26078 7.74742 8.33022 7.72326 8.38759 7.67495C8.39665 7.66892 8.40268 7.65986 8.41174 7.65382C8.41778 7.66288 8.42684 7.66892 8.43288 7.67495C8.49024 7.72326 8.55969 7.74742 8.62913 7.74742C8.71367 7.74742 8.79821 7.71118 8.85859 7.64476C8.96729 7.51795 8.95521 7.32774 8.8284 7.21905C8.75896 7.15564 8.68951 7.09224 8.62309 7.02581C8.50534 6.90806 8.31513 6.90806 8.19737 7.02581Z" fill="#7EA3FF"/>
<path d="M15.2667 6.03801C15.1218 5.95649 14.9376 6.01084 14.8561 6.15576C14.8108 6.23728 14.7595 6.31578 14.7112 6.39428C14.6176 6.53619 14.6568 6.72338 14.7957 6.81396C14.847 6.84717 14.9044 6.86227 14.9618 6.86227C15.0614 6.86227 15.158 6.81396 15.2154 6.7264C15.2728 6.63582 15.3301 6.54524 15.3814 6.44863C15.463 6.3037 15.4116 6.11953 15.2667 6.03801Z" fill="#7EA3FF"/>
<path d="M15.6489 4.58602C15.4828 4.55885 15.3319 4.67358 15.3047 4.83662C15.2926 4.93022 15.2745 5.02079 15.2534 5.11137C15.2171 5.27441 15.3198 5.43745 15.4798 5.47368C15.504 5.47972 15.5251 5.48274 15.5493 5.48274C15.6851 5.48274 15.8119 5.38612 15.8421 5.24724C15.8663 5.14156 15.8874 5.03589 15.9025 4.9272C15.9267 4.76416 15.815 4.61017 15.6489 4.58602Z" fill="#7EA3FF"/>
<path d="M7.05279 7.82491C6.96825 7.86416 6.88069 7.89737 6.79313 7.93058C6.63613 7.99096 6.55763 8.16608 6.61802 8.32006C6.6633 8.44083 6.77804 8.51632 6.89881 8.51632C6.93504 8.51632 6.97127 8.51028 7.0075 8.4982C7.10714 8.45895 7.20677 8.41668 7.30339 8.37139C7.45435 8.30195 7.52077 8.12381 7.45133 7.97285C7.38189 7.81887 7.20375 7.75546 7.05279 7.82491Z" fill="#7EA3FF"/>
<path d="M1.5586 5.11439C1.54049 5.02381 1.52237 4.93022 1.50728 4.83662C1.48312 4.67358 1.32914 4.55885 1.16308 4.58602C1.00004 4.61017 0.885309 4.76416 0.909463 4.93022C0.927578 5.03589 0.948713 5.14156 0.969848 5.24724C1.00306 5.38612 1.12685 5.48274 1.26574 5.48274C1.28687 5.48274 1.31102 5.47972 1.33216 5.47368C1.4952 5.43745 1.59785 5.27441 1.5586 5.11439Z" fill="#7EA3FF"/>
<path d="M4.04706 7.94379C3.89005 7.88341 3.71796 7.96493 3.66059 8.12193C3.6002 8.27893 3.68172 8.45103 3.83873 8.50839C3.93836 8.54764 4.04102 8.58086 4.14669 8.61105C4.17386 8.61709 4.20104 8.62313 4.23123 8.62313C4.36106 8.62313 4.48183 8.53557 4.52108 8.40272C4.56637 8.2427 4.47277 8.07664 4.31275 8.03135C4.22217 8.00418 4.13461 7.97399 4.04706 7.94379Z" fill="#7EA3FF"/>
<path d="M5.42302 8.18477C5.25696 8.18477 5.12109 8.32063 5.12109 8.48669C5.12109 8.65275 5.25696 8.78862 5.42302 8.78862C5.53171 8.78862 5.64041 8.78258 5.74608 8.77352C5.91516 8.76144 6.03895 8.61652 6.02687 8.45046C6.01479 8.2844 5.86383 8.16061 5.70381 8.17269C5.61021 8.17873 5.51662 8.18477 5.42302 8.18477Z" fill="#7EA3FF"/>
<path d="M1.96091 6.15637C1.87939 6.01145 1.69522 5.96012 1.55029 6.03862C1.40537 6.12014 1.35102 6.30432 1.43254 6.45226C1.48689 6.54586 1.54123 6.63644 1.60162 6.72701C1.65898 6.81457 1.7556 6.86288 1.85222 6.86288C1.90958 6.86288 1.96695 6.84778 2.01828 6.81457C2.15716 6.72399 2.19641 6.5368 2.10583 6.3949C2.05451 6.31941 2.0062 6.23789 1.96091 6.15637Z" fill="#7EA3FF"/>
<path d="M2.84601 7.2367C2.7192 7.128 2.52898 7.1431 2.42029 7.26991C2.3116 7.39672 2.32669 7.58693 2.4535 7.69562C2.53502 7.76507 2.61956 7.83149 2.7041 7.8949C2.75845 7.93415 2.82185 7.95528 2.88526 7.95528C2.97583 7.95528 3.06943 7.91301 3.1268 7.83149C3.22643 7.69864 3.19926 7.50843 3.06339 7.41181C2.98791 7.35445 2.91545 7.29708 2.84601 7.2367Z" fill="#7EA3FF"/>
<path d="M11.1168 8.17269C10.9538 8.16061 10.8059 8.2844 10.7938 8.45046C10.7817 8.61652 10.9055 8.76144 11.0716 8.77352C11.1772 8.78258 11.2859 8.78862 11.3946 8.78862C11.5607 8.78862 11.6965 8.65275 11.6965 8.48669C11.6965 8.32063 11.5637 8.18477 11.3976 8.18477C11.301 8.18477 11.2104 8.17873 11.1168 8.17269Z" fill="#7EA3FF"/>
<path d="M13.9743 7.23799C13.9018 7.29838 13.8294 7.35574 13.7539 7.41311C13.6211 7.50972 13.5939 7.69994 13.6905 7.83278C13.7509 7.9143 13.8415 7.95657 13.9351 7.95657C13.9985 7.95657 14.0588 7.93544 14.1132 7.89619C14.2007 7.83278 14.2853 7.76636 14.3668 7.6939C14.4936 7.5852 14.5087 7.39499 14.4 7.26818C14.2913 7.14137 14.1011 7.1293 13.9743 7.23799Z" fill="#7EA3FF"/>
<path d="M12.7678 7.94379C12.6833 7.97399 12.5927 8.00418 12.5021 8.03135C12.3421 8.07664 12.2515 8.2427 12.2968 8.40272C12.3361 8.53557 12.4568 8.62313 12.5867 8.62313C12.6138 8.62313 12.644 8.61709 12.6712 8.61105C12.7738 8.58086 12.8765 8.54764 12.9792 8.50839C13.1362 8.45103 13.2147 8.27893 13.1573 8.12193C13.0999 7.96493 12.9248 7.88341 12.7678 7.94379Z" fill="#7EA3FF"/>
<path d="M9.76504 7.82491C9.61408 7.75546 9.43293 7.81887 9.36348 7.97285C9.29404 8.12381 9.36046 8.30195 9.51143 8.37139C9.61106 8.41668 9.7107 8.45895 9.81033 8.4982C9.84657 8.51028 9.8828 8.51632 9.91601 8.51632C10.0398 8.51632 10.1545 8.44083 10.1998 8.32006C10.2572 8.16608 10.1787 7.99096 10.0247 7.93058C9.93714 7.90039 9.84958 7.86416 9.76504 7.82491Z" fill="#7EA3FF"/>
<path d="M5.40854 7.545C6.73701 7.545 7.88735 6.75395 8.40968 5.62173C8.93503 6.75395 10.0823 7.545 11.4108 7.545C13.2345 7.545 14.7169 6.06254 14.7169 4.24193C14.7169 3.25765 14.3999 2.59945 14.1221 2.01975C13.9168 1.59102 13.7387 1.21965 13.7387 0.799973C13.7387 0.633914 13.6028 0.498047 13.4367 0.498047H3.38563C3.21656 0.498047 3.08371 0.633914 3.08371 0.799973C3.08371 1.21965 2.90557 1.59102 2.70026 2.01975C2.41947 2.59945 2.10547 3.25765 2.10547 4.24193C2.10547 6.06254 3.58792 7.545 5.40854 7.545ZM10.8643 4.04869C10.976 3.93698 11.1783 3.93698 11.2901 4.04869C11.3474 4.10606 11.3806 4.18154 11.3806 4.26306C11.3806 4.34156 11.3474 4.42006 11.2901 4.47743C11.2357 4.53178 11.1572 4.56499 11.0787 4.56499C10.9972 4.56499 10.9187 4.53178 10.8643 4.47743C10.807 4.42006 10.7768 4.34156 10.7768 4.26306C10.7768 4.18154 10.807 4.10606 10.8643 4.04869ZM5.47496 4.04869C5.58667 3.93698 5.78896 3.93698 5.90068 4.04869C5.95804 4.10606 5.99125 4.18456 5.99125 4.26306C5.99125 4.34156 5.95804 4.42006 5.90068 4.47743C5.84633 4.53178 5.76783 4.56499 5.68933 4.56499C5.60781 4.56499 5.53233 4.53178 5.47496 4.47743C5.4176 4.42006 5.3874 4.34156 5.3874 4.26306C5.3874 4.18154 5.4176 4.10606 5.47496 4.04869Z" fill="#7EA3FF"/>
</svg>
