<svg width="20" height="21" viewBox="0 0 20 21" fill="none" xmlns="http://www.w3.org/2000/svg">
<path d="M15.9743 16.1922L10.2158 5.45183L11.1014 3.71283L10.7736 3.51416L9.98545 5.06183L9.031 3.5L8.719 3.72692L9.77898 5.46149L4.02565 16.1922C4.00899 16.2233 4.00014 16.2586 4 16.2946C3.99986 16.3306 4.00843 16.366 4.02485 16.3972C4.04127 16.4285 4.06496 16.4544 4.09351 16.4724C4.12207 16.4905 4.15449 16.5 4.18749 16.5H15.8125C15.8455 16.5 15.8779 16.4905 15.9065 16.4724C15.935 16.4544 15.9587 16.4285 15.9751 16.3972C15.9916 16.366 16.0001 16.3306 16 16.2946C15.9999 16.2586 15.991 16.2233 15.9743 16.1922ZM9.8125 16.0909H7.83594C7.76135 16.0909 7.68981 16.0586 7.63707 16.001C7.58432 15.9435 7.55469 15.8655 7.55469 15.7841C7.55469 15.7027 7.58432 15.6247 7.63707 15.5671C7.68981 15.5096 7.76135 15.4773 7.83594 15.4773H9.24219C9.29192 15.4773 9.33961 15.4557 9.37478 15.4173C9.40994 15.379 9.42969 15.327 9.42969 15.2727V15.1704C9.42978 15.0891 9.45943 15.0111 9.51216 14.9536C9.56489 14.8961 9.63638 14.8637 9.71095 14.8636H9.8125V16.0909ZM9.64748 14.4545C9.44268 14.4542 9.24635 14.3654 9.10153 14.2074C8.95672 14.0494 8.87525 13.8352 8.875 13.6118V12.7799C8.98245 12.751 9.0875 12.7123 9.18906 12.6643C9.12925 12.7072 9.0865 12.7731 9.06938 12.8489C9.05225 12.9247 9.06203 13.0047 9.09674 13.073C9.13144 13.1413 9.18852 13.1927 9.25653 13.217C9.32453 13.2413 9.39844 13.2366 9.46342 13.2039C9.52841 13.1712 9.57967 13.113 9.60694 13.0408C9.6342 12.9686 9.63544 12.8879 9.61042 12.8148C9.58541 12.7416 9.53597 12.6815 9.47203 12.6465C9.40809 12.6114 9.33437 12.6041 9.26566 12.6258C9.45194 12.5265 9.62376 12.3976 9.77554 12.2435C10.0018 12.3901 10.4811 12.6543 10.9975 12.6543C11.0399 12.6543 11.0824 12.6524 11.1251 12.6487V13.6118C11.1251 13.8652 11.0681 14.4545 10.5401 14.4545L9.64748 14.4545ZM12.1563 16.0909H10.1875V14.8636H10.2813C10.3558 14.8637 10.4273 14.8961 10.48 14.9536C10.5328 15.0111 10.5624 15.0891 10.5625 15.1704V15.2727C10.5625 15.327 10.5823 15.379 10.6174 15.4173C10.6526 15.4557 10.7003 15.4773 10.75 15.4773H12.1563C12.2308 15.4773 12.3024 15.5096 12.3551 15.5671C12.4079 15.6247 12.4375 15.7027 12.4375 15.7841C12.4375 15.8655 12.4079 15.9435 12.3551 16.001C12.3024 16.0586 12.2308 16.0909 12.1563 16.0909ZM12.7491 16.0909C12.7966 15.9818 12.818 15.8614 12.8113 15.7408C12.8047 15.6202 12.7701 15.5034 12.711 15.4014C12.6518 15.2993 12.5699 15.2152 12.4729 15.1569C12.3759 15.0987 12.267 15.0681 12.1563 15.0682H12.0287L11.4967 12.1667C11.4961 12.1632 11.4954 12.1597 11.4946 12.1562C11.3488 11.4995 10.907 11.0815 10.2508 10.9792C9.48843 10.8605 9.05251 11.1879 8.82109 11.4836C8.66796 11.6803 8.55924 11.9135 8.50365 12.1644L7.97127 15.0682H7.83592C7.7252 15.0681 7.61627 15.0987 7.51928 15.1569C7.42229 15.2152 7.34039 15.2993 7.28122 15.4014C7.22204 15.5034 7.18752 15.6202 7.18086 15.7408C7.17419 15.8614 7.19561 15.9818 7.24311 16.0909H6.38033L10.0038 8.938L13.7998 16.0909H12.7491Z" fill="#6C3F9A"/>
</svg>
