<svg width="25" height="25" viewBox="0 0 25 25" fill="none" xmlns="http://www.w3.org/2000/svg">
<g clip-path="url(#clip0_920_21152)">
<path d="M18.2233 6.40306C19.0678 5.59455 19.0844 4.26721 18.2606 3.43836C17.4367 2.60951 16.0843 2.59303 15.2399 3.40154C14.3955 4.21005 14.3788 5.53739 15.2027 6.36624C16.0265 7.19509 17.3789 7.21157 18.2233 6.40306Z" fill="#7D9B02"/>
<path d="M5.70312 20.6705H12.8571L13.4902 17.688C13.4902 17.688 15.4844 17.3463 15.4844 15.8705C15.4844 15.5131 15.4844 15.1249 15.4844 15.1249H9.07435C9.07435 15.1249 8.47294 14.9851 8.47294 14.5307C8.47294 14.1799 8.47294 11.8593 8.47294 11.8593C8.47294 11.5505 8.21787 11.3 7.90316 11.3H6.27291C5.95839 11.3 5.70312 11.5506 5.70312 11.8593V20.6705Z" fill="#7D9B02"/>
<path d="M15.6784 11.853C15.4336 11.4737 15.349 11.0864 15.3477 10.6937C15.3466 10.2579 15.4638 9.82642 15.5861 9.51223C15.6469 9.35527 15.7077 9.22768 15.7513 9.14323C15.7731 9.10101 15.7906 9.06942 15.8013 9.05031C15.8069 9.0409 15.8108 9.03437 15.8127 9.03102C16.0304 8.67926 15.9169 8.22107 15.5587 8.00699C15.2004 7.79262 14.733 7.90409 14.5148 8.25584L14.5146 8.25565C14.4853 8.31596 13.8388 9.32153 13.8281 10.6936C13.827 11.1501 13.9083 11.6533 14.1249 12.1495H15.9089C15.8186 12.0504 15.7424 11.9511 15.6784 11.853Z" fill="#7D9B02"/>
<path d="M16.2833 19.3885C16.3468 19.9878 16.8622 20.4336 17.4626 20.4336C17.5036 20.4336 17.545 20.4314 17.5867 20.4273C18.2387 20.3608 18.7126 19.7882 18.6449 19.1481L18.0344 13.3807C17.9714 12.7863 17.4626 12.3362 16.8536 12.3362H14.0031H13.7837C13.83 12.2759 13.8765 12.2156 13.9239 12.1561C13.7355 11.6996 13.6359 11.2042 13.6371 10.6933C13.6436 9.8451 13.8899 8.95817 14.3307 8.19492L14.3437 8.17218L14.3464 8.16715L14.3515 8.15904C14.5251 7.87896 14.8286 7.71166 15.163 7.71166C15.3367 7.71166 15.5074 7.75873 15.6567 7.84783C16.1031 8.11468 16.2455 8.68881 15.9741 9.12762L15.9644 9.14421C15.9562 9.15865 15.9398 9.1882 15.9196 9.22762C15.8807 9.30303 15.8217 9.42522 15.7625 9.57816C15.6976 9.74491 15.6001 10.0374 15.5576 10.3716C15.6963 10.231 15.8299 10.0959 15.9545 9.96785C16.6932 9.33052 17.0023 8.20667 16.4282 7.611C15.8541 7.01515 14.6269 6.75791 13.4749 7.6549C11.8983 8.89731 11.1096 9.85498 10.18 11.729C9.60659 13.1506 10.4049 13.8343 11.144 14.2852C11.2662 14.3599 11.3784 14.4253 11.4837 14.478C11.6697 14.5966 11.8911 14.6663 12.1295 14.6663H13.9164H15.7835L16.2833 19.3885Z" fill="#7D9B02"/>
<path d="M9.86056 10.8117C9.46826 10.9378 9.36162 11.2293 9.36741 11.4281C9.36769 11.5707 9.4091 11.6738 9.41147 11.6803C9.42619 11.717 9.46199 11.7395 9.49988 11.7395C9.51137 11.7395 9.52315 11.7375 9.53455 11.7331C9.58336 11.7143 9.60748 11.6604 9.58848 11.6123H9.5882C9.5882 11.6121 9.58165 11.596 9.57358 11.5625C9.56531 11.5289 9.55734 11.4811 9.55734 11.4282C9.56332 11.2779 9.60387 11.1 9.922 10.988C9.97166 10.9712 9.99806 10.9182 9.98126 10.8697C9.96426 10.8208 9.91032 10.795 9.86056 10.8117Z" fill="#7D9B02"/>
<path d="M9.73902 10.6131C9.78926 10.5983 9.81784 10.5463 9.80274 10.497C9.78764 10.4477 9.73475 10.4198 9.6847 10.4347C9.04901 10.6158 8.90381 11.0708 8.91037 11.3645C8.91056 11.5411 8.953 11.6667 8.955 11.6728C8.9682 11.7118 9.00533 11.7366 9.04521 11.7366C9.055 11.7366 9.06506 11.7351 9.07503 11.7319C9.1246 11.7158 9.15167 11.6631 9.13524 11.6143V11.6141C9.13524 11.6141 9.12736 11.5914 9.11843 11.5465C9.10931 11.5015 9.10029 11.4376 9.10029 11.3644C9.10666 11.1163 9.18415 10.7817 9.73902 10.6131Z" fill="#7D9B02"/>
<path d="M17.723 12.0286C17.7275 12.0798 17.7736 12.1178 17.826 12.1135V12.1133C17.826 12.1133 17.826 12.1133 17.83 12.1133C17.8633 12.1128 17.9939 12.1197 18.1044 12.1846C18.2138 12.2514 18.3153 12.3603 18.32 12.6224C18.3203 12.6737 18.3626 12.7149 18.415 12.7149C18.4153 12.7149 18.4155 12.7149 18.4158 12.7149C18.468 12.7146 18.5103 12.6725 18.5099 12.6212C18.5105 12.3061 18.3617 12.1142 18.201 12.0242C18.0413 11.9328 17.8817 11.9274 17.8301 11.927C17.8192 11.927 17.8122 11.9274 17.8096 11.9276C17.7572 11.9318 17.7185 11.9771 17.723 12.0286Z" fill="#7D9B02"/>
<path d="M18.4469 11.6323C18.2054 11.5044 17.9746 11.5048 17.9662 11.5044C17.9138 11.5041 17.8711 11.5459 17.8711 11.5973C17.8709 11.6489 17.9134 11.6905 17.9659 11.6907H17.9657C17.9659 11.6907 18.0107 11.6905 18.085 11.704C18.3133 11.7527 18.7377 11.8843 18.7423 12.5243C18.7423 12.5391 18.7418 12.5546 18.7414 12.5707C18.7401 12.6223 18.7814 12.6652 18.8339 12.6665C18.8349 12.6665 18.8359 12.6665 18.8368 12.6665C18.888 12.6665 18.93 12.6263 18.9314 12.5759C18.9317 12.5583 18.9321 12.5411 18.9321 12.5242C18.9353 12.0321 18.6892 11.7577 18.4469 11.6323Z" fill="#7D9B02"/>
<path d="M17.7493 2.02861C17.5166 2.03028 17.3522 2.14986 17.3441 2.15443C17.3016 2.18463 17.2919 2.24288 17.3227 2.28464C17.3534 2.32639 17.4127 2.3359 17.4553 2.3057C17.4553 2.3057 17.4605 2.30188 17.4751 2.2934C17.5189 2.26739 17.6287 2.21445 17.7492 2.21501C17.8732 2.21725 18.0122 2.26003 18.1542 2.46797C18.1723 2.49528 18.2028 2.5101 18.2338 2.5101C18.2516 2.5101 18.2696 2.50516 18.2857 2.49491C18.3295 2.46666 18.3419 2.40878 18.3132 2.36591C18.1473 2.11351 17.9295 2.02637 17.7493 2.02861Z" fill="#7D9B02"/>
<path d="M18.5611 2.24559C18.5778 2.24559 18.5948 2.2413 18.6102 2.23217C18.6551 2.2056 18.6696 2.14847 18.6426 2.1042C18.3923 1.6914 18.0585 1.56399 17.7866 1.56669C17.4752 1.56781 17.247 1.71405 17.2389 1.71815C17.1948 1.74583 17.182 1.80362 17.2104 1.84686C17.2387 1.89011 17.2975 1.90269 17.3416 1.87492C17.3416 1.87492 17.351 1.86905 17.3729 1.85758C17.4387 1.823 17.6004 1.75282 17.7865 1.7531C18.0025 1.7558 18.2527 1.83596 18.4797 2.20048C18.4977 2.22947 18.5291 2.24559 18.5611 2.24559Z" fill="#7D9B02"/>
</g>
<defs>
<clipPath id="clip0_920_21152">
<rect width="13.2" height="19.2" fill="white" transform="translate(5.70312 1.56665)"/>
</clipPath>
</defs>
</svg>
