<svg width="16" height="15" viewBox="0 0 16 15" fill="none" xmlns="http://www.w3.org/2000/svg">
<path d="M11.9194 6.10491C11.6031 5.46931 11.2112 4.01786 11.4473 2.5H4.36523C4.6013 4.01786 4.20943 5.46931 3.89309 6.10491C2.94882 8.00223 2.47669 8.3817 3.42096 13.125H7.67018V9.77054C7.33497 9.41004 6.31043 8.7365 5.44878 8.5942C5.32131 8.57333 5.23868 8.47277 5.26465 8.37031C5.29062 8.26786 5.41573 8.20145 5.54321 8.22232C6.46151 8.37221 7.43884 8.98694 7.90625 9.40625C8.37366 8.98694 9.35099 8.37221 10.2693 8.22232C10.3968 8.20145 10.5219 8.26786 10.5479 8.37031C10.5738 8.47277 10.4912 8.57333 10.3637 8.5942C9.50207 8.7365 8.47753 9.41004 8.14232 9.77054V13.125H12.3915C13.3358 8.3817 12.8637 8.00223 11.9194 6.10491ZM8.60265 6.35536L8.13051 7.49375C8.09747 7.57344 8.0054 7.62277 7.90625 7.62277C7.88264 7.62277 7.85668 7.61897 7.83071 7.61328C7.70795 7.58103 7.63949 7.47288 7.68199 7.37232L8.05025 6.48438H7.43411C7.35857 6.48438 7.28775 6.45592 7.2429 6.40469C7.19805 6.35536 7.18624 6.29085 7.20985 6.23393L7.68199 5.09554C7.72212 4.99688 7.85668 4.94185 7.98179 4.976C8.10455 5.00826 8.17301 5.11641 8.13051 5.21696L7.76225 6.10491H8.37839C8.45393 6.10491 8.52475 6.13337 8.5696 6.1846C8.61445 6.23393 8.62626 6.29844 8.60265 6.35536Z" fill="#7EA3FF"/>
<path d="M14.2344 5.0625H13.2969C13.168 5.0625 13.0625 4.97813 13.0625 4.875C13.0625 4.77187 13.168 4.6875 13.2969 4.6875H14.2344C14.3633 4.6875 14.4688 4.77187 14.4688 4.875C14.4688 4.97813 14.3633 5.0625 14.2344 5.0625Z" fill="#7EA3FF"/>
<path d="M13.0643 4.31206C12.9776 4.31206 12.8955 4.27456 12.8534 4.20893C12.7948 4.11706 12.8416 4.00456 12.9588 3.95768L13.8963 3.58268C14.0135 3.53581 14.1518 3.57331 14.2104 3.66706C14.269 3.75893 14.2221 3.87143 14.1049 3.91831L13.1674 4.29331C13.1346 4.30643 13.0971 4.31393 13.0619 4.31393L13.0643 4.31206Z" fill="#7EA3FF"/>
<path d="M14.0479 6.19273C14.0151 6.19273 13.9823 6.18711 13.9495 6.17586L12.9956 5.82711C12.8784 5.78398 12.8269 5.67336 12.8808 5.57773C12.9347 5.48398 13.0729 5.44273 13.1925 5.48586L14.1464 5.83461C14.2636 5.87773 14.3151 5.98836 14.2612 6.08398C14.2214 6.15336 14.137 6.19273 14.0479 6.19273Z" fill="#7EA3FF"/>
<path d="M2.51562 5.0625H1.57812C1.44922 5.0625 1.34375 4.97813 1.34375 4.875C1.34375 4.77187 1.44922 4.6875 1.57812 4.6875H2.51562C2.64453 4.6875 2.75 4.77187 2.75 4.875C2.75 4.97813 2.64453 5.0625 2.51562 5.0625Z" fill="#7EA3FF"/>
<path d="M2.75034 4.31164C2.71519 4.31164 2.68003 4.30602 2.64487 4.29102L1.70737 3.91602C1.59253 3.86914 1.54565 3.75664 1.6019 3.66477C1.6605 3.57289 1.80112 3.53352 1.91597 3.58039L2.85347 3.95539C2.96831 4.00227 3.01519 4.11477 2.95894 4.20664C2.91675 4.27227 2.83472 4.30977 2.748 4.30977L2.75034 4.31164Z" fill="#7EA3FF"/>
<path d="M1.76555 6.19244C1.67648 6.19244 1.59211 6.15119 1.55226 6.08369C1.49836 5.98994 1.55226 5.87744 1.66711 5.83431L2.62101 5.48556C2.7382 5.44244 2.87648 5.48556 2.93273 5.57744C2.98664 5.67119 2.93273 5.78369 2.81789 5.82681L1.86398 6.17556C1.83351 6.18681 1.79836 6.19244 1.76555 6.19244Z" fill="#7EA3FF"/>
</svg>
