<svg width="25" height="25" viewBox="0 0 25 25" fill="none" xmlns="http://www.w3.org/2000/svg">
<path d="M16.8726 1.04674e-06C17.5174 -6.69795e-05 18.1543 0.1424 18.7376 0.417206C19.3209 0.692013 19.8363 1.09236 20.2468 1.58961C20.6574 2.08685 20.9529 2.6687 21.1123 3.2935C21.2717 3.9183 21.291 4.57061 21.1689 5.20375L21.1501 5.28625C22.2376 5.64901 23.1884 6.33524 23.8752 7.25312C24.562 8.171 24.9521 9.27674 24.9933 10.4224C25.0345 11.568 24.7248 12.6989 24.1056 13.6638C23.4865 14.6286 22.5875 15.3813 21.5289 15.8213L20.1714 23.955C20.1229 24.2469 19.9724 24.5121 19.7467 24.7034C19.521 24.8948 19.2348 24.9999 18.9389 25H6.05638C5.7605 24.9999 5.47425 24.8948 5.24857 24.7034C5.02289 24.5121 4.8724 24.2469 4.82388 23.955L3.53763 16.2425C2.67254 16.1934 1.85113 15.8463 1.21304 15.2601C0.574941 14.6739 0.159535 13.8848 0.0374292 13.027C-0.0846769 12.1691 0.094052 11.2955 0.543236 10.5545C0.99242 9.81356 1.68434 9.25101 2.50138 8.9625L2.49763 8.75C2.49749 7.48426 2.8177 6.23907 3.42842 5.13042C4.03915 4.02176 4.92052 3.0857 5.99046 2.40943C7.06039 1.73316 8.28407 1.33867 9.54753 1.26271C10.811 1.18675 12.0731 1.43179 13.2164 1.975C13.6137 1.36794 14.1561 0.869465 14.7945 0.524638C15.4328 0.17981 16.1471 -0.000501291 16.8726 1.04674e-06ZM11.2476 16.25H8.74763V22.5H11.2476V16.25ZM16.2476 16.25H13.7476V22.5H16.2476V16.25ZM19.3726 13.75C19.8347 13.75 20.2909 13.6475 20.7086 13.45C21.1263 13.2525 21.495 12.9648 21.7881 12.6077C22.0813 12.2505 22.2915 11.8328 22.4039 11.3847C22.5162 10.9365 22.5277 10.469 22.4377 10.0158C22.3476 9.56265 22.1581 9.13509 21.883 8.76393C21.6078 8.39277 21.2538 8.08724 20.8464 7.86934C20.4389 7.65145 19.9883 7.52661 19.5268 7.50381C19.0653 7.48101 18.6045 7.56082 18.1776 7.7375L17.9589 7.83875C17.3821 8.13597 16.7123 8.19728 16.0912 8.00974C15.47 7.8222 14.9461 7.4005 14.6301 6.83375L14.5426 6.6625C14.1431 5.79304 13.5026 5.05646 12.6969 4.5402C11.8913 4.02394 10.9545 3.74969 9.99763 3.75C7.32013 3.75 5.13388 5.855 5.00388 8.45875L4.99763 8.705L5.00138 8.9175C5.01021 9.40835 4.87434 9.89093 4.6107 10.3051C4.34707 10.7192 3.96734 11.0465 3.51888 11.2463L3.33138 11.32C3.05382 11.4188 2.82004 11.6124 2.67122 11.8667C2.52239 12.121 2.46807 12.4196 2.51781 12.71C2.56755 13.0004 2.71818 13.2639 2.94315 13.4542C3.16812 13.6444 3.453 13.7492 3.74763 13.75H19.3726Z" fill="#B3899D"/>
</svg>
