<svg width="25" height="25" viewBox="0 0 25 25" fill="none" xmlns="http://www.w3.org/2000/svg">
<path d="M12.4775 21.7915C12.5333 21.8474 12.5995 21.8917 12.6724 21.922C12.7453 21.9522 12.8234 21.9678 12.9023 21.9678C12.9813 21.9678 13.0594 21.9522 13.1323 21.922C13.2052 21.8917 13.2714 21.8474 13.3271 21.7915C13.6403 21.4771 15.0167 20.0515 16.3187 18.1879C17.6027 16.3507 18.9023 13.9687 18.9023 11.7667C18.9023 9.6307 18.2099 7.9687 17.0831 6.8407C15.9611 5.7163 14.4515 5.1667 12.9023 5.1667C11.3531 5.1667 9.84354 5.7163 8.72154 6.8407C7.59474 7.9687 6.90234 9.6295 6.90234 11.7667C6.90234 13.9687 8.20194 16.3507 9.48594 18.1867C10.385 19.4665 11.3854 20.672 12.4775 21.7915Z" fill="#FF7E61"/>
</svg>
