<svg width="21" height="21" viewBox="0 0 21 21" fill="none" xmlns="http://www.w3.org/2000/svg">
<path d="M6.9981 15.6298C8.36397 15.6298 9.47235 14.5215 9.47235 13.1539C9.47235 11.7897 8.36415 10.6814 6.9981 10.6814C5.6356 10.6814 4.52734 11.7898 4.52734 13.1539C4.52734 14.5216 5.6357 15.6298 6.9981 15.6298ZM3.96484 13.1539C3.96484 11.4781 5.3256 10.1223 6.9981 10.1223C8.67572 10.1223 10.0348 11.4782 10.0348 13.1539C10.0348 14.8316 8.67572 16.1889 6.9981 16.1889C5.3256 16.1891 3.96484 14.8316 3.96484 13.1539Z" fill="#7EA3FF"/>
<path d="M15.9312 15.6586C17.2938 15.6586 18.4022 14.5521 18.4022 13.1845C18.4022 11.8186 17.2938 10.712 15.9312 10.712C14.5654 10.712 13.457 11.8185 13.457 13.1845C13.457 14.5521 14.5654 15.6586 15.9312 15.6586ZM12.8945 13.1844C12.8945 11.5068 14.2553 10.1509 15.9312 10.1509C17.6037 10.1509 18.9647 11.5068 18.9647 13.1844C18.9647 14.862 17.6039 16.2194 15.9312 16.2194C14.2554 16.2195 12.8945 14.862 12.8945 13.1844Z" fill="#7EA3FF"/>
<path d="M12.9035 5.78041C13.5335 5.78041 14.0453 5.27178 14.0453 4.64194C14.0453 4.01196 13.5335 3.5 12.9035 3.5C12.2737 3.5 11.7617 4.01211 11.7617 4.64194C11.7617 5.27176 12.2737 5.78041 12.9035 5.78041Z" fill="#7EA3FF"/>
<path d="M12.9521 8.54956C12.7869 8.55288 12.6086 8.47037 12.477 8.26324L11.7361 7.1045L10.2069 8.6185L11.625 9.36474C12.2078 9.64433 12.1202 10.1563 12.1202 10.1563V13.3664C12.1202 13.7302 11.8271 14.0266 11.4633 14.0266C11.0996 14.0266 10.8065 13.73 10.8065 13.3664L10.8064 10.7963L8.34732 9.43042C8.05421 9.26709 7.85547 8.9537 7.85547 8.59673C7.85547 8.35073 7.94639 8.125 8.10132 7.95669L10.5132 5.53969C10.813 5.20111 11.2306 5.25511 11.2306 5.25511C11.736 5.25511 12.0021 5.69642 12.0021 5.69642L13.2552 7.6603L15.1586 7.65698C15.8424 7.65698 15.8424 8.54961 15.1586 8.54961L12.9521 8.54966L12.9521 8.54956Z" fill="#7EA3FF"/>
</svg>
