<svg width="24" height="24" viewBox="0 0 24 24" fill="none" xmlns="http://www.w3.org/2000/svg">
<path d="M15.0071 7.66514L15.0072 7.66521C16.2844 9.49266 17.5006 11.7639 17.5006 13.8C17.5006 15.8245 16.8469 17.3523 15.8277 18.3726L15.8275 18.3728C14.8096 19.3929 13.4323 19.9 12.0006 19.9C10.5689 19.9 9.19165 19.3929 8.17374 18.3728L8.17355 18.3726C7.15427 17.3522 6.50061 15.8257 6.50061 13.8C6.50061 11.7642 7.71663 9.49309 8.99359 7.66704C9.87641 6.41037 10.8587 5.2266 11.931 4.12715C11.94 4.11837 11.9506 4.11138 11.9623 4.10654C11.9744 4.1015 11.9875 4.09891 12.0006 4.09891C12.0138 4.09891 12.0268 4.1015 12.0389 4.10654C12.051 4.11154 12.0619 4.11885 12.0712 4.12806C12.3736 4.43164 13.7281 5.83435 15.0071 7.66514Z" stroke="#FF7E61"/>
</svg>
