<svg width="21" height="21" viewBox="0 0 21 21" fill="none" xmlns="http://www.w3.org/2000/svg">
<path d="M14.7534 10.3161C14.6367 10.2011 14.4865 10.0461 14.341 9.89586C14.1251 9.67288 13.9196 9.46072 13.8601 9.41609L13.9068 9.35384L13.8599 9.41632C13.8587 9.41542 13.8576 9.4145 13.8565 9.41356C13.8267 9.39104 13.7904 9.3629 13.7564 9.3365C13.608 9.22144 13.5102 9.14566 13.319 9.08053C13.334 9.25578 13.3559 9.4342 13.3777 9.61253C13.3997 9.79175 13.4216 9.97092 13.437 10.1504C13.4481 10.2806 13.4353 10.3479 13.4145 10.4566C13.4142 10.4584 13.4139 10.4602 13.4134 10.4619L13.411 10.4749C13.4033 10.5153 13.4304 10.5773 13.454 10.631C13.4627 10.6508 13.471 10.6697 13.4785 10.69C13.4953 10.7352 13.5246 10.8119 13.5541 10.8889C13.588 10.9776 13.622 11.0664 13.6589 11.1681C13.6732 11.2077 13.6874 11.2458 13.7023 11.2849C13.7156 11.32 13.7304 11.3581 13.7471 11.4007C13.7598 11.4331 13.7681 11.4601 13.7746 11.4814C13.7832 11.5094 13.7842 11.5128 13.8532 11.5372L13.8556 11.5379L14.8148 11.8938C14.817 11.8946 14.8191 11.8955 14.8212 11.8964C14.8505 11.9073 14.8816 11.9182 14.9113 11.9286C15.062 11.9814 15.1801 12.0228 15.2811 12.1398C15.38 12.2545 15.4158 12.3903 15.403 12.5196C15.3963 12.5872 15.3765 12.6526 15.3456 12.7118C15.3147 12.771 15.2725 12.8249 15.2209 12.8693C15.1202 12.9562 14.985 13.0065 14.8305 12.9912C14.6648 12.9748 14.0516 12.7341 13.6484 12.5758C13.528 12.5285 13.4271 12.4889 13.3569 12.4628C13.3547 12.462 13.3525 12.4611 13.3504 12.4601C12.9629 12.3156 12.9384 12.2446 12.8216 11.9055C12.7983 11.8379 12.7711 11.7588 12.7387 11.6729C12.7309 11.6522 12.7242 11.6339 12.7156 11.6104C12.6857 11.5289 12.6369 11.3957 12.6035 11.3102L12.0742 11.8435C12.0453 11.8727 12.0223 11.8941 12.0028 11.9122C11.9548 11.9569 11.9332 11.9769 11.919 12.0365C11.8818 12.1919 11.8504 12.3179 11.8187 12.4454C11.7986 12.5262 11.7783 12.6076 11.7578 12.6912C11.7523 12.7137 11.7444 12.7543 11.7346 12.8048C11.6854 13.0586 11.5895 13.5523 11.401 13.6888C11.3361 13.7357 11.2771 13.7642 11.2086 13.7796C11.1428 13.7944 11.0719 13.796 10.9806 13.7898C10.9711 13.7891 10.962 13.7869 10.9537 13.7832C10.7345 13.7084 10.6278 13.5951 10.587 13.4497C10.548 13.3109 10.5744 13.1513 10.6194 12.9704L10.9542 11.6062C10.9546 11.6045 10.9549 11.6028 10.9554 11.6011C10.9981 11.4366 11.0864 11.3518 11.1719 11.2697C11.1852 11.2568 11.1986 11.2441 11.2107 11.2319C11.2414 11.2011 11.2722 11.1693 11.3028 11.1377C11.3655 11.0731 11.4277 11.0089 11.4939 10.9478C11.5312 10.9134 11.5711 10.8723 11.6106 10.8317C11.658 10.7829 11.7048 10.7347 11.7473 10.6973C11.7429 10.6881 11.7377 10.6785 11.732 10.6681C11.6963 10.6018 11.6485 10.5131 11.6271 10.32C11.6214 10.2689 11.617 10.2172 11.6124 10.1634C11.6072 10.1027 11.6018 10.0395 11.5952 9.9807C11.4585 10.1383 11.2378 10.3593 10.8748 10.1085C10.7622 10.0308 10.3191 9.40003 10.1186 9.1145C10.0811 9.06113 10.0518 9.01949 10.0398 9.00261C9.9443 8.86897 9.89178 8.72901 9.87844 8.59969C9.86682 8.48705 9.8848 8.38186 9.92994 8.29448C9.97664 8.20408 10.0517 8.1334 10.1525 8.0933C10.2361 8.06006 10.3364 8.04847 10.4515 8.06518C10.6895 8.09976 10.8174 8.28751 10.9597 8.49616C10.9962 8.54978 11.0338 8.60494 11.075 8.65934C11.0914 8.68103 11.1104 8.70856 11.1298 8.73654C11.1436 8.75662 11.1577 8.77696 11.1716 8.79605L11.4472 8.41396C11.4557 8.40134 11.4639 8.3729 11.4742 8.33775C11.5079 8.22349 11.5579 8.05332 11.7582 7.88163C11.8426 7.8093 11.9442 7.74686 12.0642 7.70698C12.168 7.6725 12.2847 7.6552 12.4147 7.66338C12.5918 7.67456 13.0734 7.86436 13.4012 7.99352C13.4956 8.03072 13.577 8.06278 13.6345 8.08402C13.6616 8.09404 13.687 8.10338 13.7109 8.11214C13.9984 8.21767 14.0748 8.2457 14.3164 8.44239L14.2673 8.50281L14.3166 8.44222C14.3214 8.44617 14.3257 8.45057 14.3293 8.45531L15.4124 9.59962L15.4151 9.60213L15.4164 9.6033C15.6736 9.83879 15.7546 10.071 15.7242 10.2483C15.7106 10.3284 15.6746 10.3975 15.6218 10.4517C15.5698 10.5051 15.5018 10.5434 15.423 10.5626C15.2361 10.6083 14.9858 10.5451 14.7534 10.3161ZM14.4527 9.78722C14.598 9.9372 14.748 10.092 14.8626 10.205C15.052 10.3917 15.2463 10.4455 15.3864 10.4112C15.4361 10.3991 15.4785 10.3756 15.5101 10.343C15.541 10.3113 15.5622 10.2702 15.5704 10.2221C15.5927 10.0917 15.5238 9.91245 15.3114 9.71812C15.308 9.71554 15.3047 9.71265 15.3017 9.70943L15.3584 9.65573L15.302 9.70913L14.2152 8.56086C13.9966 8.38323 13.9247 8.35681 13.6572 8.25863C13.6333 8.24986 13.6079 8.24052 13.5808 8.2305C13.5241 8.20958 13.4409 8.1768 13.3444 8.13877C13.0257 8.01319 12.5574 7.82864 12.4049 7.81902C12.2955 7.81213 12.1985 7.82631 12.113 7.85469C12.0145 7.88742 11.9302 7.93946 11.8595 8.00004C11.6944 8.14156 11.6521 8.28524 11.6238 8.3817C11.6101 8.42811 11.599 8.46591 11.579 8.49716C11.5778 8.49922 11.5765 8.50124 11.5751 8.50321L11.5748 8.50304L11.2432 8.96283C11.2402 8.96784 11.2366 8.97258 11.2324 8.97697C11.2025 9.00807 11.1531 9.00906 11.1219 8.97917C11.0798 8.93871 11.0401 8.88085 11.0016 8.82505C10.9849 8.80084 10.9684 8.777 10.9505 8.75334C10.9083 8.69761 10.869 8.64003 10.8309 8.58405C10.709 8.4052 10.5993 8.24426 10.4295 8.21959C10.342 8.20689 10.2686 8.2146 10.2099 8.23795C10.1459 8.2634 10.0982 8.30835 10.0685 8.36589C10.0372 8.42644 10.025 8.50156 10.0335 8.58383C10.0442 8.68747 10.0875 8.8014 10.1667 8.91229C10.1885 8.94273 10.214 8.97913 10.2461 9.02479C10.4418 9.30338 10.8741 9.91875 10.9633 9.98036C11.2316 10.1657 11.3993 9.96998 11.4996 9.85287C11.5422 9.80308 11.5764 9.76322 11.6171 9.74681C11.622 9.74459 11.6273 9.74284 11.6328 9.74165C11.6749 9.73252 11.7165 9.75931 11.7257 9.80147C11.7464 9.89729 11.7576 10.0288 11.768 10.1506C11.7729 10.207 11.7775 10.2613 11.7821 10.3029C11.8002 10.4659 11.8398 10.5393 11.8694 10.5942C11.8895 10.6316 11.9062 10.6625 11.9144 10.7052C11.9217 10.7351 11.9108 10.7678 11.8843 10.787C11.841 10.8184 11.7821 10.8788 11.7223 10.9403C11.6807 10.9832 11.6386 11.0265 11.5995 11.0626C11.5352 11.1219 11.4751 11.1839 11.4145 11.2464C11.384 11.2779 11.3533 11.3095 11.3212 11.3417C11.3071 11.3559 11.2935 11.3689 11.2799 11.382C11.2102 11.449 11.1382 11.5181 11.1064 11.6403C11.1062 11.6413 11.106 11.6423 11.1057 11.6434L11.1055 11.6437L10.7708 13.0077C10.7314 13.1657 10.7075 13.3023 10.7371 13.4076C10.7639 13.5028 10.8402 13.5794 11.0004 13.6348C11.0729 13.6393 11.1278 13.6381 11.1744 13.6276C11.2205 13.6173 11.262 13.5968 11.3094 13.5625C11.4482 13.462 11.5362 13.0086 11.5814 12.7755C11.5915 12.7237 11.5995 12.6821 11.6064 12.6539C11.6269 12.5704 11.6472 12.489 11.6673 12.4082C11.7028 12.2655 11.738 12.1244 11.7676 12.0005C11.793 11.8945 11.825 11.8647 11.8966 11.7981C11.9158 11.7802 11.9384 11.7592 11.9637 11.7337L12.5666 11.1262C12.5687 11.1237 12.571 11.1214 12.5734 11.1192C12.6053 11.0901 12.6547 11.0923 12.6838 11.1241L12.6835 11.1244C12.7169 11.161 12.8131 11.4233 12.8621 11.5567C12.8735 11.588 12.8828 11.6132 12.8846 11.618C12.9211 11.7148 12.9471 11.7903 12.9693 11.8548C13.0663 12.1364 13.0867 12.1955 13.4049 12.3143C13.407 12.3149 13.4091 12.3156 13.4112 12.3164C13.4691 12.3378 13.5767 12.3801 13.7051 12.4305C14.1007 12.5858 14.7023 12.822 14.8457 12.8362C14.9543 12.8469 15.0489 12.812 15.119 12.7516C15.1551 12.7204 15.185 12.6822 15.2071 12.6398C15.2292 12.5973 15.2433 12.5512 15.248 12.5044C15.2568 12.4152 15.2319 12.3213 15.1633 12.2417C15.0893 12.156 14.9886 12.1207 14.8601 12.0757C14.8315 12.0657 14.8015 12.0552 14.7669 12.0423C14.7647 12.0417 14.7626 12.041 14.7605 12.0403L13.8013 11.6844L13.8001 11.6839C13.6584 11.6338 13.6549 11.6221 13.6257 11.5266C13.6206 11.5099 13.614 11.4886 13.6019 11.4575C13.5866 11.4187 13.572 11.381 13.5564 11.3399C13.5423 11.3029 13.528 11.2644 13.5124 11.2212C13.4814 11.1357 13.4448 11.04 13.4082 10.9444C13.3869 10.8887 13.3655 10.8326 13.3326 10.7443C13.3275 10.7304 13.3195 10.7123 13.3111 10.6932C13.2787 10.6192 13.2411 10.5336 13.2578 10.4462L13.2603 10.4328C13.2605 10.431 13.2608 10.4291 13.2612 10.4273C13.2794 10.3321 13.2908 10.2731 13.2814 10.1632C13.2663 9.98764 13.2445 9.80957 13.2227 9.63146C13.1963 9.4161 13.1699 9.20061 13.1549 8.98297C13.1536 8.97297 13.1542 8.96254 13.157 8.9522C13.1684 8.91059 13.2114 8.8861 13.253 8.8975L13.253 8.8978C13.5497 8.97911 13.6629 9.06694 13.8516 9.21322C13.8788 9.2343 13.9079 9.2569 13.9504 9.28902C13.9515 9.28977 13.9526 9.29055 13.9537 9.29136L13.9538 9.29158C14.0243 9.34457 14.2331 9.56048 14.4527 9.78722ZM13.8544 11.5375L13.8556 11.5379L13.8544 11.5375Z" fill="#7EA3FF"/>
<path d="M11.5852 5.87988C11.8126 5.87988 12.0184 5.97206 12.1675 6.12108C12.3165 6.27009 12.4087 6.47597 12.4087 6.70335C12.4087 6.93074 12.3165 7.13662 12.1675 7.28564C12.0184 7.43466 11.8126 7.52684 11.5852 7.52684C11.3578 7.52684 11.1519 7.43466 11.0029 7.28564C10.8539 7.13662 10.7617 6.93074 10.7617 6.70335C10.7617 6.47597 10.8539 6.27009 11.0029 6.12108C11.1519 5.97206 11.3578 5.87988 11.5852 5.87988ZM12.057 6.23155C11.9363 6.11082 11.7694 6.03614 11.5852 6.03614C11.4009 6.03614 11.2341 6.11082 11.1134 6.23155C10.9927 6.35228 10.918 6.5191 10.918 6.70335C10.918 6.88761 10.9927 7.05443 11.1134 7.17517C11.2341 7.2959 11.4009 7.37058 11.5852 7.37058C11.7694 7.37058 11.9363 7.2959 12.057 7.17517C12.1777 7.05443 12.2524 6.88761 12.2524 6.70335C12.2524 6.5191 12.1777 6.35228 12.057 6.23155Z" fill="#7EA3FF"/>
<path d="M15.4647 13.7154V15.0421C15.4647 15.0853 15.4297 15.1202 15.3866 15.1202H8.22239C8.18542 15.1202 8.15444 15.0946 8.14633 15.0601L6.202 7.8984C6.1907 7.85676 6.21525 7.81385 6.25689 7.80255C6.26416 7.80057 6.27146 7.7997 6.27862 7.79981H7.60405C7.64102 7.79981 7.672 7.8255 7.6801 7.86L9.24861 13.6373H15.3866C15.4297 13.6373 15.4647 13.6723 15.4647 13.7154ZM15.3084 14.964V13.7936H9.1902C9.15528 13.7942 9.12307 13.7711 9.1135 13.7359L7.54434 7.95606H6.3795L8.2821 14.964L15.3084 14.964Z" fill="#7EA3FF"/>
<path d="M9.38108 8.70142C9.42422 8.70142 9.45921 8.66644 9.45921 8.62329C9.45921 8.58015 9.42422 8.54517 9.38108 8.54517H7.80469C7.76154 8.54517 7.72656 8.58015 7.72656 8.62329C7.72656 8.66644 7.76154 8.70142 7.80469 8.70142H9.38108Z" fill="#7EA3FF"/>
<path d="M10.0154 9.76367C10.0585 9.76367 10.0935 9.72869 10.0935 9.68555C10.0935 9.6424 10.0585 9.60742 10.0154 9.60742H8.09375C8.05061 9.60742 8.01562 9.6424 8.01562 9.68555C8.01562 9.72869 8.05061 9.76367 8.09375 9.76367H10.0154Z" fill="#7EA3FF"/>
<path d="M10.9648 2.5C13.174 2.5 15.174 3.39544 16.6217 4.84316C18.0694 6.29088 18.9648 8.29087 18.9648 10.5C18.9648 12.7091 18.0694 14.7091 16.6217 16.1568C15.174 17.6046 13.174 18.5 10.9648 18.5C8.75573 18.5 6.75573 17.6046 5.308 16.1568C3.86028 14.7091 2.96484 12.7091 2.96484 10.5C2.96484 8.29088 3.86028 6.29088 5.308 4.84316C6.75573 3.39544 8.75572 2.5 10.9648 2.5ZM16.3458 5.11907C14.9687 3.74198 13.0662 2.89024 10.9648 2.89024C8.86345 2.89024 6.961 3.74198 5.58393 5.11907C4.20684 6.49615 3.3551 8.39859 3.3551 10.5C3.3551 12.6014 4.20684 14.5038 5.58393 15.8809C6.96101 17.258 8.86345 18.1097 10.9648 18.1097C13.0662 18.1097 14.9687 17.258 16.3458 15.8809C17.7228 14.5038 18.5746 12.6014 18.5746 10.5C18.5746 8.39859 17.7228 6.49614 16.3458 5.11907Z" fill="#7EA3FF"/>
<line x1="4.3184" y1="4.14645" x2="17.3184" y2="17.1464" stroke="#7EA3FF"/>
</svg>
