<svg width="16" height="16" viewBox="0 0 16 16" fill="none" xmlns="http://www.w3.org/2000/svg">
<path fill-rule="evenodd" clip-rule="evenodd" d="M15.719 3.71296C15.2093 4.65691 13.8444 5.0899 12.6648 4.6836C11.4899 4.27752 10.9483 3.18135 11.4566 2.24134C11.9651 1.29739 13.33 0.863236 14.5052 1.26954C15.6857 1.67655 16.2258 2.77063 15.719 3.71296Z" fill="#7EA3FF"/>
<path d="M9.2482 4.01017L4.78826 7.05969C4.23772 7.43421 4.29941 7.95166 4.61189 8.35519L6.99333 11.4395L7.36315 14.6134C7.4761 15.898 9.89576 15.7202 9.71302 14.4391L9.31944 11.042C9.3012 10.897 9.2427 10.7568 9.14597 10.6336L7.24384 8.16677L9.49755 6.67682V9.91568C9.49755 10.9937 11.5155 10.9937 11.5155 9.91568V4.89867C11.5155 4.57497 11.2427 4.26449 10.9821 4.10856C10.3733 3.74448 9.76862 3.65515 9.2482 4.01017Z" fill="#7EA3FF"/>
<path d="M4.40309 9.13867L3.79115 11.447L1.68513 14.0058C0.7804 15.0658 2.80156 16.1315 3.65851 15.0451L5.88442 12.3379C5.9658 12.2399 6.02344 12.1299 6.05356 12.0151L6.20154 11.4665L4.40309 9.13867Z" fill="#7EA3FF"/>
<path fill-rule="evenodd" clip-rule="evenodd" d="M2.10522 0.975457H6.65465C6.99522 0.975457 7.25935 1.18801 7.25935 1.45996V3.09749C7.25935 3.37061 6.99522 3.58223 6.65465 3.58223H2.10522C1.76464 3.58223 1.49907 3.37061 1.49907 3.09749V1.45996C1.49907 1.18801 1.76464 0.975457 2.10522 0.975457ZM2.10522 0.500232C1.44608 0.500232 0.90625 0.932761 0.90625 1.45973V3.09726C0.90625 3.62539 1.44608 4.05815 2.10522 4.05815H6.65465C7.29555 4.05815 7.82031 3.64604 7.84754 3.13833H8.12527C8.37838 3.13833 8.58256 2.97405 8.58256 2.77078V1.78598C8.58256 1.58387 8.37838 1.41959 8.12527 1.41959H7.84754C7.8206 0.910949 7.29584 0.5 6.65465 0.5H2.10522V0.500232Z" fill="#7EA3FF"/>
<path fill-rule="evenodd" clip-rule="evenodd" d="M2.31006 1.30078C2.10763 1.30078 1.95703 1.42144 1.95703 1.58364V2.97474C1.95703 3.13532 2.10907 3.2576 2.31006 3.2576H3.10011C3.30081 3.2576 3.45343 3.13555 3.45343 2.97474V1.58364C3.45343 1.42144 3.30254 1.30078 3.10011 1.30078H2.31006Z" fill="#7EA3FF"/>
</svg>
