<svg width="13" height="14" viewBox="0 0 13 14" fill="none" xmlns="http://www.w3.org/2000/svg">
<path d="M6.54825 0.5C3.41525 0.5 0.90625 3.009 0.90625 6.142C0.90625 8.144 1.94625 9.899 3.53225 10.913L2.41425 12.278C2.15425 12.603 2.20625 13.071 2.51825 13.331C2.66125 13.448 2.83025 13.5 2.98625 13.5C3.20725 13.5 3.41525 13.409 3.57125 13.227L4.93625 11.55C5.44325 11.706 5.98925 11.784 6.54825 11.784C9.65525 11.784 12.1902 9.249 12.1902 6.142C12.1902 3.009 9.65525 0.5 6.54825 0.5ZM7.38025 4.439C7.51025 3.932 7.70525 4.543 8.08225 4.647C8.48525 4.751 8.94025 4.296 8.81025 4.803C8.68025 5.31 8.25125 5.609 7.84825 5.505C7.45825 5.401 7.25025 4.946 7.38025 4.439ZM5.10525 4.66C5.48225 4.556 5.69025 3.932 5.83325 4.452C5.96325 4.959 5.72925 5.44 5.35225 5.518C4.92325 5.609 4.52025 5.323 4.37725 4.816C4.24725 4.309 4.70225 4.764 5.10525 4.66ZM8.42025 8.82H6.79525L3.35025 13.058C3.25925 13.162 3.12925 13.227 2.98625 13.227C2.88225 13.227 2.77825 13.188 2.68725 13.123C2.49225 12.954 2.45325 12.655 2.62225 12.46L5.58625 8.807H4.72825C4.46825 8.807 4.26025 8.599 4.26025 8.339C4.26025 8.079 4.46825 7.871 4.72825 7.871H8.42025C8.68025 7.871 8.88825 8.092 8.88825 8.352C8.88825 8.612 8.68025 8.82 8.42025 8.82ZM6.87325 8.339H6.27525L4.15625 10.939L4.50725 11.238L6.87325 8.339ZM3.72725 11.459L3.89625 11.251L4.26025 11.55L4.09125 11.758L3.72725 11.459ZM3.31125 11.979L3.48025 11.771L3.84425 12.07L3.67525 12.278L3.31125 11.979ZM2.88225 12.499L3.05125 12.291L3.41525 12.59L3.24625 12.798L2.88225 12.499Z" fill="#7EA3FF"/>
</svg>
