<svg width="20" height="21" viewBox="0 0 20 21" fill="none" xmlns="http://www.w3.org/2000/svg">
<path d="M13.4172 5.77577C13.6167 4.91786 13.083 4.06065 12.2251 3.86115C11.3672 3.66164 10.51 4.19539 10.3105 5.0533C10.1109 5.91121 10.6447 6.76842 11.5026 6.96792C12.3605 7.16743 13.2177 6.63368 13.4172 5.77577Z" fill="#6C3F9A"/>
<path d="M15.9775 12.677V12.4413C15.9775 12.3997 15.9498 12.3581 15.8943 12.3581L14.5907 12.261C14.5352 12.261 14.5075 12.2055 14.5213 12.1639L14.5768 11.9004C14.6045 11.7756 14.5352 11.6508 14.4242 11.5953L13.2593 11.0683C13.0929 10.999 12.9542 10.888 12.8155 10.7632C12.6768 10.6384 12.5104 10.5275 12.3163 10.4859C12.2469 10.472 12.1915 10.472 12.136 10.472C12.0944 10.4304 12.0528 10.3749 11.9973 10.3472L10.8878 9.54281C10.9156 8.19759 10.8462 7.94796 10.8324 7.86475C10.7908 7.7122 10.6243 7.1852 10.2915 6.75528L9.93092 6.26989C9.73676 6.0064 9.44553 5.83998 9.12656 5.81224C8.80759 5.7845 8.48862 5.88158 8.23899 6.10347L5.56241 8.37787C5.36825 8.54429 5.24344 8.79392 5.24344 9.04355L5.20183 12.4552L4.06463 15.2704C3.88434 15.7281 4.09237 16.2412 4.55002 16.4354C5.00768 16.6156 5.5208 16.4076 5.71496 15.95L6.9215 12.9821C6.96311 12.8851 6.99084 12.7741 6.99084 12.6632V12.1639L7.55944 12.9267L8.33607 15.7974C8.44701 16.2273 8.84919 16.5463 9.29298 16.4908C9.84771 16.4354 10.2083 15.8945 10.0696 15.3675L9.23751 12.2749C9.20977 12.1639 9.1543 12.0668 9.09882 11.9836L7.73973 10.153L9.43166 8.86326C9.43166 9.16837 9.43166 9.54281 9.41779 9.87565C9.40392 10.1253 9.52874 10.361 9.7229 10.4997L11.1375 11.5398C11.1929 11.5815 11.2345 11.6092 11.29 11.6231C11.3316 11.6369 11.3732 11.6369 11.4148 11.6508C11.4703 11.942 11.5951 12.2333 11.7338 12.4552L11.4703 12.8712C11.3455 13.0654 11.4287 13.315 11.6367 13.3982L13.5644 14.258C13.7724 14.3551 14.0082 14.2303 14.0775 14.0223L14.2994 13.204C14.341 13.0515 14.4659 12.9405 14.6184 12.9128L15.922 12.7464C15.9359 12.7464 15.9775 12.7186 15.9775 12.677ZM12.0389 12.0391C11.9834 11.9143 11.9141 11.7617 11.8863 11.6092C11.9973 11.5537 12.1082 11.4844 12.1776 11.3734C12.2747 11.2486 12.3163 11.1099 12.3163 10.9574C12.4272 11.0129 12.5382 11.1238 12.6214 11.2209L12.0389 12.0391Z" fill="#6C3F9A"/>
<path d="M15.185 14.799C15.1156 14.8683 14.9492 15.0902 14.9492 15.2428C14.9492 15.4508 15.0879 15.534 15.2127 15.534C15.3375 15.534 15.4762 15.4369 15.4762 15.2428C15.4762 15.0763 15.2959 14.8683 15.2405 14.799C15.2127 14.7851 15.1988 14.7851 15.185 14.799Z" fill="#6C3F9A"/>
<path d="M16.0326 14.799C15.9633 14.8683 15.7969 15.0902 15.7969 15.2428C15.7969 15.4508 15.9356 15.534 16.0604 15.534C16.1852 15.534 16.3239 15.4369 16.3239 15.2428C16.3239 15.0763 16.1436 14.8683 16.0881 14.799C16.0742 14.7851 16.0465 14.7851 16.0326 14.799Z" fill="#6C3F9A"/>
<path d="M16.9336 14.799C16.9197 14.7851 16.9059 14.7851 16.892 14.799C16.8227 14.8683 16.6562 15.0902 16.6562 15.2428C16.6562 15.4508 16.7949 15.534 16.9197 15.534C17.0446 15.534 17.1832 15.4369 17.1832 15.2428C17.1694 15.0902 16.9891 14.8683 16.9336 14.799Z" fill="#6C3F9A"/>
<path d="M15.8959 14.3829C15.8959 14.2165 15.7157 14.0085 15.6602 13.9391C15.6463 13.9252 15.6324 13.9252 15.6186 13.9391C15.5492 14.0085 15.3828 14.2303 15.3828 14.3829C15.3828 14.5909 15.5215 14.6741 15.6463 14.6741C15.7711 14.6741 15.8959 14.5909 15.8959 14.3829Z" fill="#6C3F9A"/>
<path d="M16.7397 14.3829C16.7397 14.2165 16.5594 14.0085 16.5039 13.9391C16.4901 13.9252 16.4762 13.9252 16.4623 13.9391C16.393 14.0085 16.2266 14.2303 16.2266 14.3829C16.2266 14.5909 16.3652 14.6741 16.4901 14.6741C16.6149 14.6741 16.7397 14.5909 16.7397 14.3829Z" fill="#6C3F9A"/>
<path d="M16.0592 13.8143C16.184 13.8143 16.3227 13.7172 16.3227 13.523C16.3227 13.3566 16.1424 13.1486 16.0869 13.0792C16.0731 13.0654 16.0592 13.0654 16.0453 13.0792C15.976 13.1486 15.8096 13.3705 15.8096 13.523C15.7957 13.7311 15.9344 13.8143 16.0592 13.8143Z" fill="#6C3F9A"/>
</svg>
