<svg width="21" height="21" viewBox="0 0 21 21" fill="none" xmlns="http://www.w3.org/2000/svg">
<path d="M4.88585 4.021H4.59437C4.44862 4.021 4.33203 4.14731 4.33203 4.30521V6.64205C4.33203 6.79994 4.44862 6.92626 4.59437 6.92626H4.88585C5.03159 6.92626 5.14819 6.79994 5.14819 6.64205V4.30521C5.16276 4.14731 5.03159 4.021 4.88585 4.021Z" fill="#7EA3FF"/>
<path d="M14.9613 3.5H14.3643C14.2186 3.5 14.1021 3.62632 14.1021 3.78421V5.22105H13.2284C13.1265 5.07895 12.9663 4.98421 12.7915 5C12.6459 5.01579 12.5294 5.09474 12.442 5.22105H8.21892C8.13155 5.11053 8.01505 5.01579 7.86942 5C7.69467 4.98421 7.53449 5.06316 7.43255 5.22105H6.55881V3.78421C6.55881 3.62632 6.44231 3.5 6.29668 3.5H5.69962C5.554 3.5 5.4375 3.62632 5.4375 3.78421V7.14737C5.4375 7.30526 5.554 7.43158 5.69962 7.43158H6.29668C6.44231 7.43158 6.55881 7.30526 6.55881 7.14737V5.71053H7.31605C7.1413 7.8421 7.33061 8.14211 7.41799 8.26842C7.59274 8.55263 8.37911 9.46842 9.18004 9.76842L9.23829 12.9737L8.67036 17.7895C8.62667 18.1368 8.85967 18.4526 9.16548 18.4842C9.48585 18.5316 9.7771 18.2789 9.80622 17.9474L10.3305 13.5579L10.8402 17.9474C10.8838 18.2632 11.1314 18.5 11.4081 18.5C11.4372 18.5 11.4518 18.5 11.4809 18.5C11.8013 18.4526 12.0197 18.1368 11.976 17.8053L11.4227 12.9737L11.4809 9.76842C12.2673 9.46842 13.0536 8.55263 13.243 8.26842C13.3303 8.14211 13.5196 7.82632 13.3449 5.71053H14.1021V7.14737C14.1021 7.30526 14.2186 7.43158 14.3643 7.43158H14.9613C15.1069 7.43158 15.2234 7.30526 15.2234 7.14737V3.78421C15.238 3.62632 15.1069 3.5 14.9613 3.5ZM12.3983 7.7C12.1216 8.11053 11.3353 8.78947 11.0003 8.78947H9.6606C9.32566 8.78947 8.55386 8.09474 8.26261 7.7C8.21892 7.43158 8.24805 6.5 8.3063 5.71053H12.3401C12.4129 6.5 12.442 7.43158 12.3983 7.7Z" fill="#7EA3FF"/>
<path d="M16.0694 4.021H15.778C15.6322 4.021 15.5156 4.14731 15.5156 4.30521V6.64205C15.5156 6.79994 15.6322 6.92626 15.778 6.92626H16.0694C16.2152 6.92626 16.3318 6.79994 16.3318 6.64205V4.30521C16.3318 4.14731 16.2152 4.021 16.0694 4.021Z" fill="#7EA3FF"/>
<path d="M10.333 8.48945C10.9764 8.48945 11.498 7.92392 11.498 7.22629C11.498 6.52867 10.9764 5.96313 10.333 5.96313C9.68955 5.96313 9.16797 6.52867 9.16797 7.22629C9.16797 7.92392 9.68955 8.48945 10.333 8.48945Z" fill="#7EA3FF"/>
</svg>
