<svg width="11" height="14" viewBox="0 0 11 14" fill="none" xmlns="http://www.w3.org/2000/svg">
<path fill-rule="evenodd" clip-rule="evenodd" d="M2.83604 7.69228C2.04224 8.43702 1.96139 8.75604 1.60182 9.41902L2.58079 9.82673C2.55237 10.137 2.52395 10.4475 2.49571 10.758L2.80409 10.8261C2.78697 12.7975 2.74637 12.4102 5.02769 12.1067V13.1152L9.36916 12.4479C9.36916 9.44735 9.06625 10.458 10.6032 7.79899C12.5182 2.73754 4.10927 0.816685 2.7303 5.5097V7.29455L2.83604 7.69228ZM3.15165 4.14978L3.08193 1.84665L2.41999 2.22779L2.14126 0.496541L0.921875 1.35428L1.74057 3.18082L2.41999 2.78374L3.15165 4.14978ZM4.05755 3.41919L3.88315 2.08486L3.48263 2.29137L3.2039 0.718822L4.37104 0.115234L4.21429 1.68778L4.87624 1.54485L4.05755 3.41919Z" fill="#7EA3FF"/>
</svg>
