<svg width="25" height="24" viewBox="0 0 25 24" fill="none" xmlns="http://www.w3.org/2000/svg">
<g clip-path="url(#clip0_920_21135)">
<path d="M12.4775 3.9846C12.5333 3.93105 12.5995 3.88857 12.6724 3.85958C12.7453 3.83059 12.8234 3.81567 12.9023 3.81567C12.9813 3.81567 13.0594 3.83059 13.1323 3.85958C13.2052 3.88857 13.2714 3.93105 13.3271 3.9846C13.6403 4.2859 15.0167 5.6521 16.3187 7.43805C17.6027 9.1987 18.9023 11.4815 18.9023 13.5917C18.9023 15.6387 18.2099 17.2315 17.0831 18.3125C15.9611 19.39 14.4515 19.9167 12.9023 19.9167C11.3531 19.9167 9.84354 19.39 8.72154 18.3125C7.59474 17.2315 6.90234 15.6399 6.90234 13.5917C6.90234 11.4815 8.20194 9.1987 9.48594 7.4392C10.385 6.21273 11.3854 5.05748 12.4775 3.9846Z" fill="#FF578D"/>
<path d="M17.4907 12.5256C17.5186 12.4989 17.5517 12.4776 17.5881 12.4631C17.6246 12.4486 17.6637 12.4412 17.7031 12.4412C17.7426 12.4412 17.7817 12.4486 17.8181 12.4631C17.8546 12.4776 17.8877 12.4989 17.9155 12.5256C18.0721 12.6763 18.7603 13.3594 19.4113 14.2524C20.0533 15.1327 20.7031 16.2741 20.7031 17.3292C20.7031 18.3527 20.3569 19.1491 19.7935 19.6896C19.2325 20.2283 18.4777 20.4917 17.7031 20.4917C16.9285 20.4917 16.1737 20.2283 15.6127 19.6896C15.0493 19.1491 14.7031 18.3533 14.7031 17.3292C14.7031 16.2741 15.3529 15.1327 15.9949 14.2529C16.4444 13.6397 16.9447 13.0621 17.4907 12.5256Z" fill="#FF578D" stroke="#FAC2D7" stroke-width="0.5"/>
</g>
<path d="M6.68994 4.47558C6.71781 4.4488 6.75092 4.42756 6.78736 4.41307C6.82381 4.39857 6.86288 4.39111 6.90234 4.39111C6.9418 4.39111 6.98088 4.39857 7.01732 4.41307C7.05377 4.42756 7.08688 4.4488 7.11474 4.47558C7.27134 4.62623 7.95954 5.30933 8.61054 6.2023C9.25254 7.08263 9.90234 8.224 9.90234 9.27913C9.90234 10.3026 9.55614 11.099 8.99274 11.6395C8.43174 12.1783 7.67694 12.4416 6.90234 12.4416C6.12774 12.4416 5.37294 12.1783 4.81194 11.6395C4.24854 11.099 3.90234 10.3032 3.90234 9.27913C3.90234 8.224 4.55214 7.08263 5.19414 6.20288C5.64366 5.58964 6.14387 5.01202 6.68994 4.47558Z" fill="#FF578D" stroke="#FAC2D7" stroke-width="0.5"/>
<defs>
<clipPath id="clip0_920_21135">
<rect width="19.2" height="18.4" fill="white" transform="translate(3.30078 2.66675)"/>
</clipPath>
</defs>
</svg>
