<svg width="20" height="21" viewBox="0 0 20 21" fill="none" xmlns="http://www.w3.org/2000/svg">
<path fill-rule="evenodd" clip-rule="evenodd" d="M7.4304 5.53116C7.90853 5.42291 8.38366 5.72249 8.49211 6.20062C8.60056 6.67875 8.30078 7.15388 7.82285 7.26233C7.34472 7.37078 6.86918 7.071 6.76093 6.59307C6.65269 6.11494 6.95207 5.6396 7.4304 5.53116ZM11.7132 3.05003C12.1432 3.05003 12.4919 3.39854 12.4919 3.82874C12.4919 4.25874 12.1432 4.60725 11.7132 4.60725C11.2832 4.60725 10.9347 4.25874 10.9347 3.82874C10.9347 3.39854 11.2832 3.05003 11.7132 3.05003ZM12.5307 2.76723L12.7747 3.01108L12.5073 3.27871L12.2634 3.03465L12.5307 2.76723ZM13.0419 3.65618V4.0013H12.6639V3.65618H13.0419ZM12.7747 4.6462L12.5307 4.89025L12.2632 4.62283L12.5073 4.37897L12.7747 4.6462ZM11.8858 5.15728H11.5406V4.77921H11.8858V5.15728ZM10.8957 4.89005L10.6517 4.6462L10.9191 4.37877L11.163 4.62283L10.8957 4.89005ZM10.3847 4.0011V3.65598H10.7627V4.0011H10.3847ZM10.6519 3.01108L10.8957 2.76703L11.1632 3.03465L10.9191 3.27851L10.6519 3.01108ZM11.5408 2.5H11.8858V2.87807H11.5408V2.5ZM15.144 16.3019L13.426 17.3756L12.3427 16.9951L11.4392 17.5L11.2263 17.1167L12.3016 16.5158L13.3715 16.8917L14.9121 15.9288L15.144 16.3019ZM4 16.8847H5.59357L6.52467 15.8954H6.88416L5.6401 10.4077L5.3545 10.5553C4.84182 10.82 4.43998 10.0406 4.95227 9.77601L6.6411 8.90423L7.32894 7.72509C7.45456 7.50839 8.53405 7.26772 8.72359 7.33663L10.4146 7.95277C10.5604 8.00549 10.6611 8.12772 10.6932 8.26852L11.2568 10.7512C11.3847 11.3155 10.5267 11.51 10.3988 10.9458L9.88876 8.69593L9.03076 8.38316L9.4989 10.4485C9.5708 10.7654 9.40923 11.1689 9.26343 11.4541C9.61953 12.4217 10.1019 13.3268 10.6731 14.1786H12.288L13.2245 13.2098L14.0126 14.0281L15.8971 12.7898L16.138 13.1557L13.9489 14.5943L13.2239 13.8415L12.4727 14.6184H10.3545C9.44398 14.9891 8.80567 15.4742 8.31756 16.3352H6.713L5.7821 17.3246H4V16.8847ZM7.33513 15.8954H8.06012L7.46415 13.2665C7.44298 13.1693 7.45356 13.0644 7.5025 12.9689L8.20511 11.5849L7.61414 8.97813L7.33593 9.45526C7.289 9.53615 7.21989 9.59667 7.141 9.63301L6.04394 10.1992L7.33513 15.8954ZM8.77332 15.061C9.0719 14.7988 9.40863 14.5837 9.77112 14.4027C9.37867 13.7916 9.02896 13.1539 8.73497 12.4876L8.3573 13.2264L8.77332 15.061ZM9.23247 16.8911L10.3982 15.2398L11.4038 15.8495L12.3924 15.0806H14.0971V15.5204H12.5428L11.4364 16.381L10.5217 15.8267L9.59197 17.1437L9.23247 16.8911Z" fill="#6C3F9A"/>
</svg>
