<svg width="20" height="21" viewBox="0 0 20 21" fill="none" xmlns="http://www.w3.org/2000/svg">
<path fill-rule="evenodd" clip-rule="evenodd" d="M14.8898 8.21765H12.593C12.3611 7.92925 12.2206 7.55335 12.2206 7.1433C12.2206 6.23808 12.9055 5.5 13.7454 5.5C14.5854 5.5 15.2375 6.23884 15.2704 7.1433C15.2887 7.6459 15.0408 8.21765 14.8899 8.21765H14.8898ZM11.7777 16.5L12.0442 11.4953C11.4592 11.5591 10.874 11.623 10.2886 11.6869L6.95557 8.3823C6.54818 8.36634 6.14051 8.35038 5.73334 8.33442C5.43679 8.03907 5.14073 7.74371 4.84445 7.44843C3.89631 7.41651 2.94792 7.38453 2 7.35261C2.00743 7.20096 2.01481 7.0493 2.02197 6.89766C5.0442 6.99342 8.06671 7.08925 11.0887 7.185C11.1407 7.61605 11.1926 8.04709 11.2442 8.47806C12.4815 8.51799 13.7185 8.55792 14.9556 8.59779C15.7852 8.56587 16.2591 9.07671 16.3775 10.1303C16.3926 10.6571 16.4371 11.1839 16.5109 11.7108C16.6738 13.3072 16.8368 14.9037 17 16.5L11.7777 16.5Z" fill="#6C3F9A"/>
</svg>
