<svg width="14" height="16" viewBox="0 0 14 16" fill="none" xmlns="http://www.w3.org/2000/svg">
<path d="M9.53642 6.66386C10.4058 7.48578 10.959 8.63963 10.959 9.91993C10.959 12.3857 8.95159 14.3931 6.48583 14.3931C4.02007 14.3931 2.01268 12.3857 2.01268 9.91993C2.01268 7.92835 3.3246 6.23709 5.1265 5.66807C5.01586 5.25711 5.07908 4.83034 5.28456 4.4668C2.78719 5.02001 0.90625 7.24868 0.90625 9.91993C0.90625 13.0021 3.40363 15.4995 6.48583 15.4995C9.56804 15.4995 12.0654 12.9863 12.0654 9.91993C12.0654 8.3077 11.3699 6.83772 10.2635 5.82613C10.1213 6.18967 9.86835 6.48999 9.53642 6.66386Z" fill="#7EA3FF"/>
<path d="M8.62125 8.29117C8.62125 8.29117 8.44738 8.55988 8.21029 8.55988C7.95739 8.55988 7.79933 8.29117 7.79933 8.29117C7.65707 8.03828 7.34095 7.95924 7.08805 8.1015C6.83515 8.24376 6.75612 8.55988 6.89837 8.81278C7.07224 9.11309 7.53062 9.60309 8.21029 9.60309C8.88995 9.60309 9.36414 9.09729 9.5222 8.81278C9.66446 8.55988 9.56962 8.24376 9.33253 8.1015C9.07963 7.95924 8.7635 8.03828 8.62125 8.29117Z" fill="#7EA3FF"/>
<path d="M4.74935 8.55988C4.49645 8.55988 4.33839 8.29117 4.33839 8.29117C4.19613 8.03828 3.88001 7.95924 3.62711 8.1015C3.37421 8.24376 3.29518 8.55988 3.43744 8.81278C3.61131 9.11309 4.06968 9.60309 4.74935 9.60309C5.42902 9.60309 5.9032 9.09729 6.06126 8.81278C6.20352 8.55988 6.10868 8.24376 5.87159 8.1015C5.61869 7.95924 5.30257 8.05408 5.16031 8.29117C5.16031 8.29117 5.00225 8.55988 4.74935 8.55988Z" fill="#7EA3FF"/>
<path d="M6.48516 12.8763C7.08749 12.8763 7.57578 12.3172 7.57578 11.6276C7.57578 10.938 7.08749 10.3789 6.48516 10.3789C5.88282 10.3789 5.39453 10.938 5.39453 11.6276C5.39453 12.3172 5.88282 12.8763 6.48516 12.8763Z" fill="#7EA3FF"/>
<path d="M6.67449 2.98179H7.63867L6.21611 4.94176C6.08966 5.11563 6.07386 5.33691 6.16869 5.52659C6.26353 5.71626 6.4532 5.84271 6.67449 5.84271H8.76091C9.07703 5.84271 9.32993 5.58981 9.32993 5.27369C9.32993 4.95757 9.07703 4.70467 8.76091 4.70467H7.79673L9.21929 2.7447C9.34574 2.57083 9.36154 2.34955 9.2667 2.15987C9.17187 1.9702 8.98219 1.84375 8.76091 1.84375H6.67449C6.35837 1.84375 6.10547 2.09665 6.10547 2.41277C6.10547 2.7289 6.35837 2.98179 6.67449 2.98179Z" fill="#7EA3FF"/>
<path d="M12.7334 3.36092H11.7692L13.1918 1.40095C13.3182 1.22708 13.334 1.0058 13.2392 0.816124C13.1443 0.626449 12.9547 0.5 12.7334 0.5H10.6628C10.3466 0.5 10.0938 0.752899 10.0938 1.06902C10.0938 1.38515 10.3466 1.63804 10.6628 1.63804H11.6269L10.2044 3.59801C10.0779 3.77188 10.0621 3.99316 10.157 4.18284C10.2518 4.37251 10.4415 4.49896 10.6628 4.49896H12.7492C13.0653 4.49896 13.3182 4.24606 13.3182 3.92994C13.3024 3.61382 13.0495 3.36092 12.7334 3.36092Z" fill="#7EA3FF"/>
</svg>
