<svg width="13" height="19" viewBox="0 0 13 19" fill="none" xmlns="http://www.w3.org/2000/svg">
<path d="M9.44742 11.7572C9.44808 10.4297 9.54842 11.1574 9.55355 9.89844C8.61461 9.93571 7.90396 10.1664 7.38584 10.4359C7.31982 10.4867 7.24105 10.5306 7.15281 10.5669C6.91755 10.7095 6.7316 10.8557 6.58984 10.9844C6.7078 11.2589 6.85851 11.6428 6.98396 12.0695L7.74129 17.5991C7.79337 17.9807 8.34082 18.2698 8.98598 18.2698C9.01911 18.2698 9.05265 18.2691 9.08631 18.2675C9.77408 18.2355 10.2871 17.8843 10.2322 17.4831L9.44742 11.7572Z" fill="#7EA3FF"/>
<path d="M8.08153 6.65494C7.44439 6.69812 6.87761 6.56091 6.69351 6.32031H5.95722C5.81059 6.59811 5.17556 6.78326 4.44808 6.74353C4.23649 6.73195 4.0391 6.70211 3.86328 6.65909C3.98177 6.99119 4.18441 7.34461 4.46478 7.69665C4.90466 8.2521 5.51839 8.7833 6.20313 9.20775C6.61105 8.79834 7.02082 8.36208 7.35563 7.92951C7.72279 7.45935 7.96568 7.02838 8.08153 6.65494Z" fill="#7EA3FF"/>
<path d="M3.87794 9.50733C3.61993 9.30822 3.37981 9.09822 3.15665 8.88086C3.08419 8.99529 3.02435 9.11824 2.98438 9.25514C3.18571 9.32195 3.49382 9.41606 3.87794 9.50733Z" fill="#7EA3FF"/>
<path d="M8.26562 9.57409C8.79243 9.4641 9.21324 9.33747 9.46533 9.2538C9.39537 9.01358 9.26282 8.81685 9.11409 8.63086C8.85055 8.95353 8.56243 9.26822 8.26562 9.57409Z" fill="#7EA3FF"/>
<path d="M2.89797 9.89844C2.90309 11.156 3.00291 10.4314 3.00383 11.7531L2.21888 17.4831C2.16391 17.8842 2.67691 18.2354 3.36467 18.2675C3.39847 18.2691 3.432 18.2698 3.46527 18.2698C4.11017 18.2698 4.65736 17.9805 4.70956 17.599L5.46663 12.0724C5.59222 11.6446 5.74331 11.2596 5.86154 10.9844C5.39983 10.565 4.46878 9.96079 2.89797 9.89844Z" fill="#7EA3FF"/>
<path d="M2.78784 8.14965C3.34208 8.84757 4.11426 9.51206 5.0323 10.0538C5.18671 10.1446 5.39017 10.1901 5.59338 10.1901C5.79395 10.1901 5.99466 10.1459 6.14828 10.0571C6.45802 9.87843 6.46065 9.58706 6.1542 9.40645C5.38018 8.95103 4.6977 8.36639 4.22014 7.76318C3.7406 7.16105 3.47058 6.53982 3.47295 6.02919C3.47255 5.65353 3.61329 5.3466 3.86844 5.12265L4.08743 5.20763C3.92026 5.35389 3.8111 5.54455 3.76349 5.76666C3.99589 5.75048 4.27406 5.75653 4.57565 5.77295C5.25036 5.80991 5.8242 5.88715 5.95481 6.10519H6.63952C6.72567 5.87955 7.2807 5.76413 7.9441 5.68199C7.96844 5.679 7.99237 5.67631 8.01657 5.67347C7.96909 5.59386 7.91017 5.5187 7.83783 5.44822C7.78075 5.39338 7.71604 5.34092 7.64318 5.29061L7.89649 5.23041C7.95791 5.27604 8.01447 5.32221 8.06353 5.3693C8.30672 5.60568 8.41759 5.87426 8.41877 6.19209C8.42285 6.71399 8.0897 7.35447 7.59004 7.99472C7.23795 8.44945 6.80905 8.90333 6.38489 9.32715C6.55416 9.43989 6.64688 9.58254 6.64557 9.73355C6.64544 9.75227 6.64333 9.77075 6.64044 9.78923C7.08499 9.76807 7.50758 9.71568 7.88926 9.64934C8.28291 9.2506 8.68287 8.81943 9.02852 8.3739C9.57171 7.66931 9.99312 6.92912 9.99706 6.19216C9.99838 5.74656 9.83187 5.29667 9.41559 4.89464C9.40862 4.88789 9.40034 4.88144 9.3931 4.87462C9.15833 4.65197 8.84859 4.44927 8.46994 4.26996C7.91306 4.6305 7.10906 4.84969 6.2264 4.84969C5.99624 4.84969 5.76449 4.83397 5.53827 4.80322C4.75123 4.69638 4.08283 4.41736 3.65577 4.0174C3.65248 4.01425 3.64985 4.01096 3.64669 4.00781C3.19793 4.16642 2.82611 4.37135 2.55478 4.61271L2.55439 4.61301C2.08143 5.0297 1.89453 5.52361 1.89453 6.02926C1.8969 6.72044 2.2357 7.45126 2.78784 8.14965Z" fill="#7EA3FF"/>
<path d="M8.89838 3.44737C9.24419 2.58126 8.32068 1.71561 6.83566 1.5139C5.35065 1.31219 3.86648 1.8508 3.52067 2.71691C3.17486 3.58303 4.09837 4.44868 5.58339 4.65039C7.0684 4.8521 8.55257 4.31349 8.89838 3.44737Z" fill="#7EA3FF"/>
<path d="M9.55989 1.74399C9.45061 1.78157 9.73452 1.84032 9.80856 1.81486C10.2696 1.65656 10.7103 1.43344 10.6623 1.09405C10.6423 0.951474 10.5209 0.802834 10.3559 0.696761C10.2981 0.65964 9.99832 0.650206 10.0792 0.701977C10.209 0.785577 10.2918 0.891957 10.34 1.0001C10.4892 1.33596 10.005 1.59121 9.55989 1.74399Z" fill="#7EA3FF"/>
<path d="M12.4462 1.03879C12.0046 1.14202 11.5153 1.19425 11.2717 0.905488C11.1872 0.805245 11.14 0.681992 11.1402 0.569783C11.1405 0.500602 10.8362 0.473297 10.8359 0.532355C10.8357 0.699402 10.9169 0.871818 11.0843 1.0078C11.4449 1.30125 12.1401 1.24672 12.6378 1.13052C12.8039 1.09156 12.5423 1.01632 12.4462 1.03879Z" fill="#7EA3FF"/>
<path d="M12.7067 1.35369C12.4668 1.40339 12.2576 1.49796 12.0955 1.61071C11.7464 1.85338 11.8737 2.17949 12.0962 2.43658C12.1606 2.5109 12.3556 2.54028 12.2606 2.43045C11.9254 2.04305 12.1771 1.65013 12.8796 1.50456C12.9634 1.48722 12.8128 1.33168 12.7067 1.35369Z" fill="#7EA3FF"/>
<path d="M9.75717 2.11156C9.57885 2.15558 9.80451 2.26587 9.94483 2.23128C10.3266 2.13694 10.8584 2.04598 11.1148 2.29885C11.2019 2.38483 11.2434 2.4939 11.2436 2.59353C11.2441 2.68173 11.5505 2.68641 11.5502 2.58678C11.5496 2.43622 11.4544 2.28267 11.2931 2.16617C10.9144 1.89228 10.2252 1.99582 9.75717 2.11156Z" fill="#7EA3FF"/>
<path d="M2.49862 8.91262C2.46929 8.87404 2.39158 8.85655 2.32543 8.87389C1.85517 8.99223 1.71288 9.20415 1.71893 9.36322C1.71972 9.50726 1.81125 9.61249 1.81585 9.61839C1.83887 9.64531 1.88515 9.66081 1.93342 9.66081C1.95301 9.66081 1.97326 9.6582 1.99207 9.65268C2.05703 9.63373 2.08333 9.58756 2.05085 9.54982V9.54959C2.05085 9.54959 2.04835 9.54683 2.04191 9.53778C2.02231 9.51078 1.98128 9.4413 1.98168 9.36322C1.9876 9.24748 2.04782 9.1174 2.43221 9.01386C2.49836 8.99668 2.52834 8.95135 2.49862 8.91262Z" fill="#7EA3FF"/>
<path d="M2.05399 8.5798C1.29035 8.75405 1.09099 9.08148 1.09782 9.31932C1.09835 9.50538 1.20066 9.64183 1.20447 9.64758C1.22604 9.67642 1.2743 9.69368 1.32519 9.69368C1.34268 9.69368 1.36044 9.69168 1.37753 9.68739C1.44421 9.67044 1.47471 9.62526 1.44565 9.58638C1.44565 9.58638 1.42619 9.56068 1.40436 9.51221C1.38266 9.46374 1.36083 9.39555 1.36083 9.31939C1.36767 9.12328 1.48182 8.88245 2.15156 8.72223C2.21889 8.70643 2.2519 8.66171 2.22481 8.62252C2.19772 8.5831 2.12119 8.56392 2.05399 8.5798Z" fill="#7EA3FF"/>
<path d="M10.1146 8.71864C9.93626 8.64509 9.76675 8.62438 9.75676 8.62285C9.68561 8.61387 9.61565 8.64026 9.60053 8.68175C9.58554 8.72324 9.63064 8.76397 9.70192 8.77279H9.70166C9.70192 8.77279 9.72927 8.77609 9.77937 8.78721C9.9356 8.82402 10.2166 8.91023 10.2164 9.13335C10.2164 9.17607 10.2058 9.22515 10.181 9.2813C10.1627 9.32233 10.2052 9.36413 10.2755 9.37479C10.2866 9.37648 10.2976 9.37724 10.3085 9.37724C10.3669 9.37724 10.4205 9.35423 10.4358 9.31964C10.4654 9.25253 10.4794 9.19064 10.4794 9.13335C10.4812 8.9268 10.2926 8.79066 10.1146 8.71864Z" fill="#7EA3FF"/>
<path d="M10.6133 8.46844C10.3692 8.35799 10.1328 8.32072 10.1229 8.31911C10.0528 8.30799 9.9805 8.33222 9.96156 8.3731C9.94276 8.41398 9.98418 8.45609 10.0544 8.46713H10.0541C10.0544 8.46713 10.0986 8.47396 10.1743 8.49336C10.4066 8.5548 10.8455 8.70865 10.8451 9.05847C10.8451 9.1367 10.8234 9.22606 10.7706 9.32845C10.7495 9.36894 10.7889 9.41182 10.8586 9.42409C10.8713 9.42631 10.8839 9.42739 10.8966 9.42739C10.9531 9.42739 11.0053 9.40591 11.0224 9.37278C11.0816 9.25796 11.1083 9.15335 11.1083 9.05847C11.1097 8.76917 10.8571 8.57735 10.6133 8.46844Z" fill="#7EA3FF"/>
<path d="M2.31735 11.8274C2.38087 11.8274 2.43702 11.8005 2.44688 11.7626C2.45819 11.7207 2.40914 11.6816 2.33734 11.6751V11.675C2.33734 11.675 2.30749 11.6725 2.25383 11.6623C2.0863 11.6279 1.78726 11.5483 1.78634 11.3048C1.7866 11.2685 1.79291 11.2284 1.80869 11.184C1.82303 11.1424 1.77739 11.1019 1.70612 11.0934C1.63524 11.0849 1.56567 11.1117 1.55094 11.1532C1.53201 11.2071 1.52346 11.2577 1.52346 11.3048C1.52096 11.525 1.72282 11.6658 1.9139 11.7368C2.1055 11.8095 2.28671 11.8253 2.2971 11.8265C2.30407 11.8271 2.31077 11.8274 2.31735 11.8274Z" fill="#7EA3FF"/>
<path d="M2.01957 11.993H2.01918C2.01918 11.993 1.97118 11.9873 1.88991 11.9693C1.63979 11.9113 1.16966 11.7651 1.1694 11.386C1.1694 11.3181 1.184 11.2422 1.21977 11.1573C1.23673 11.1161 1.19347 11.0746 1.12285 11.0647C1.05223 11.0546 0.981351 11.08 0.963992 11.121C0.924015 11.2168 0.906262 11.3051 0.906262 11.386C0.904158 11.6952 1.17585 11.8931 1.43833 12.0012C1.70107 12.1108 1.95487 12.1416 1.96526 12.1431C1.97434 12.1442 1.98354 12.1448 1.99248 12.1448C2.05324 12.1448 2.10794 12.12 2.12083 12.0839C2.13595 12.0424 2.09045 12.0018 2.01957 11.993Z" fill="#7EA3FF"/>
</svg>
