<svg width="20" height="21" viewBox="0 0 20 21" fill="none" xmlns="http://www.w3.org/2000/svg">
<path d="M4.17356 16.0015H5.03147V16.7151H4.60955C4.20169 16.7151 3.9626 16.3583 4.0048 15.9587C4.06105 15.9873 4.11731 16.0015 4.17356 16.0015ZM5.34088 17.5L5.88938 17.0576L6.40975 17.5V16.0015H5.32682V17.5H5.34088ZM12.7948 4.19929H12.6261V15.502C12.6261 15.7732 12.4151 15.9873 12.1479 15.9873H6.71916V16.7008H12.6261C12.9636 16.7008 13.2308 16.4297 13.2308 16.0872V4.64169C13.2308 4.39908 13.0339 4.19929 12.7948 4.19929ZM5.42527 15.6876C5.32682 15.6876 5.24243 15.6019 5.24243 15.502V3.68552C5.24243 3.5999 5.32682 3.51427 5.42527 3.51427H12.1479C12.2463 3.51427 12.3167 3.5999 12.3167 3.68552V15.502C12.3167 15.6019 12.2323 15.6876 12.1338 15.6876H5.42527ZM5.9597 6.76809C5.9597 7.0107 6.1566 7.2105 6.39569 7.2105H11.0931C11.3322 7.2105 11.5291 7.0107 11.5291 6.76809V5.28389C11.5291 5.04128 11.3322 4.84149 11.0931 4.84149H6.39569C6.1566 4.84149 5.9597 5.04128 5.9597 5.28389V6.76809ZM4.17356 15.6876H4.96115C4.94709 15.6305 4.93302 15.5734 4.93302 15.502V3.68552C4.93302 3.62844 4.94709 3.57136 4.96115 3.5H4.17356C4.07512 3.51427 4.0048 3.5999 4.0048 3.68552V15.502C4.0048 15.6019 4.07512 15.6876 4.17356 15.6876ZM6.39569 6.91081H11.0931C11.1634 6.91081 11.2197 6.85372 11.2197 6.78236V5.28389C11.2197 5.21254 11.1634 5.15545 11.0931 5.15545H6.39569C6.32537 5.15545 6.26911 5.21254 6.26911 5.28389V6.76809C6.26911 6.85372 6.32537 6.91081 6.39569 6.91081ZM15.3686 4.58461C15.3686 4.57034 15.3545 4.55607 15.3404 4.55607H15.0873C15.0592 4.55607 15.0592 4.59888 15.0592 4.62742H15.3686V4.58461ZM16.6625 5.98318H16.2265V6.39704C16.3812 6.4684 16.4656 6.63965 16.4656 6.81091C16.7328 6.81091 16.9437 7.02497 16.9437 7.29613V10.4072C16.9437 10.4643 16.9578 10.5071 17 10.5499V6.31142C16.9859 6.12589 16.8453 5.98318 16.6625 5.98318ZM15.6639 5.05556C15.6639 5.01274 15.6358 4.9842 15.6077 4.96993L15.5233 4.94139H14.9045L14.7919 4.96993C14.7638 4.9842 14.7497 5.02701 14.7497 5.05556V5.39806H15.678V5.05556H15.6639ZM15.903 5.8262C15.903 5.75484 15.8467 5.71203 15.7764 5.71203H14.595C14.5247 5.71203 14.4825 5.76911 14.4825 5.8262V6.35423H15.8889V5.8262H15.903ZM15.1998 15.9016L15.5655 15.0168H14.8482L15.1998 15.9016ZM14.4966 14.603C14.4966 14.66 14.5529 14.7171 14.6091 14.7171H15.7905C15.8467 14.7171 15.903 14.6743 15.903 14.603V9.89348H14.4966V14.603ZM16.0577 6.6682C16.0436 6.6682 16.0296 6.6682 16.0155 6.65392H14.3841L14.3419 6.6682C14.2997 6.68247 14.2575 6.72528 14.2575 6.78236V9.46534C14.2575 9.5367 14.3138 9.57951 14.37 9.57951H16.0155H16.0296C16.0858 9.56524 16.128 9.52243 16.128 9.46534V6.76809C16.1421 6.72528 16.0999 6.68247 16.0577 6.6682Z" fill="#8787FF"/>
</svg>
