<svg width="20" height="21" viewBox="0 0 20 21" fill="none" xmlns="http://www.w3.org/2000/svg">
<path d="M17.7592 7.06142H16.1056H15.6483V6.46711C15.5579 6.41931 15.4444 6.43055 15.3685 6.50689L14.2933 7.58188C14.1991 7.67587 14.1991 7.82784 14.2933 7.92148L15.3685 8.99683C15.4446 9.07352 15.5581 9.08458 15.6483 9.0366V8.44194H16.1056H17.7592C17.8921 8.44194 17.9995 8.33457 17.9995 8.20187V7.30131C17.9995 7.16879 17.8921 7.06142 17.7592 7.06142Z" fill="#8787FF"/>
<path d="M4.63102 6.50706C4.55486 6.43072 4.44142 6.41966 4.35117 6.46728V7.06158H3.89385H2.24008C2.10737 7.06158 2 7.16896 2 7.30166V8.20221C2 8.33491 2.10737 8.44229 2.24008 8.44229H3.89367H4.35099V9.03695C4.44142 9.0851 4.55486 9.07387 4.63084 8.99717L5.70619 7.92183C5.80019 7.82819 5.80019 7.67622 5.70619 7.58222L4.63102 6.50706Z" fill="#8787FF"/>
<path d="M14.0772 8.96352C12.8576 6.80961 14.2329 4.5 14.2329 4.5H5.94139C5.94139 4.5 7.31675 6.80961 6.09693 8.96352C4.87728 11.1174 4.1897 14.2705 6.21358 18.1244H9.60032L10.0871 15.1657C10.0871 15.1657 7.40093 12.4994 5.33799 11.8765C5.33799 11.8765 5.67546 10.4817 6.12279 9.64451C6.12279 9.64451 6.75865 11.5651 10.0871 11.5651C13.4155 11.5651 14.0512 9.64451 14.0512 9.64451C14.4989 10.4816 14.836 11.8765 14.836 11.8765C12.773 12.4994 10.0871 15.1657 10.0871 15.1657L10.5736 18.1244H13.9602C15.9846 14.2705 15.2969 11.1174 14.0772 8.96352ZM10.0872 8.85971C9.98933 8.85971 9.90996 8.70293 9.90996 8.50923C9.90996 8.31588 9.98933 8.1591 10.0872 8.1591C10.1852 8.1591 10.2645 8.31588 10.2645 8.50923C10.2645 8.70293 10.185 8.85971 10.0872 8.85971Z" fill="#8787FF"/>
</svg>
