<svg width="25" height="25" viewBox="0 0 25 25" fill="none" xmlns="http://www.w3.org/2000/svg">
<path d="M12.4775 4.14185C12.5333 4.08597 12.5995 4.04164 12.6724 4.01139C12.7453 3.98115 12.8234 3.96558 12.9023 3.96558C12.9813 3.96558 13.0594 3.98115 13.1323 4.01139C13.2052 4.04164 13.2714 4.08597 13.3271 4.14185C13.6403 4.45625 15.0167 5.88185 16.3187 7.74545C17.6027 9.58265 18.9023 11.9646 18.9023 14.1666C18.9023 16.3026 18.2099 17.9646 17.0831 19.0926C15.9611 20.217 14.4515 20.7666 12.9023 20.7666C11.3531 20.7666 9.84354 20.217 8.72154 19.0926C7.59474 17.9646 6.90234 16.3038 6.90234 14.1666C6.90234 11.9646 8.20194 9.58265 9.48594 7.74665C10.385 6.46686 11.3854 5.26138 12.4775 4.14185Z" fill="#FF578D"/>
</svg>
