<svg width="20" height="21" viewBox="0 0 20 21" fill="none" xmlns="http://www.w3.org/2000/svg">
<path d="M10 7.5C11.1046 7.5 12 6.60457 12 5.5C12 4.39543 11.1046 3.5 10 3.5C8.89543 3.5 8 4.39543 8 5.5C8 6.60457 8.89543 7.5 10 7.5Z" fill="#8787FF"/>
<path d="M16.9951 12.7614C16.9695 12.5141 16.8463 12.2869 16.6525 12.1299C16.4588 11.9729 16.2102 11.899 15.9617 11.9243C15.2398 11.998 14.5009 11.6547 13.766 10.9038C13.2743 10.3817 12.8484 9.80196 12.4976 9.1773C12.4109 8.90636 11.7889 8.03138 11.5686 7.95153C11.1027 7.64872 10.5564 7.49159 10 7.50035C9.44363 7.49159 8.89734 7.64872 8.43144 7.95151C8.21112 8.03135 7.58914 8.90636 7.5024 9.17725C7.15167 9.80193 6.72574 10.3817 6.23402 10.9038C5.49908 11.6547 4.76021 11.998 4.03835 11.9243C3.78976 11.8989 3.54123 11.9729 3.34743 12.1299C3.15363 12.2868 3.03042 12.514 3.00492 12.7614C2.97942 13.0088 3.05371 13.2561 3.21146 13.449C3.3692 13.6419 3.59747 13.7645 3.84605 13.7899C3.97637 13.8032 4.10729 13.8099 4.2383 13.8099C4.83647 13.8071 5.42626 13.6697 5.96354 13.408C6.56992 13.1072 7.11838 12.7024 7.58384 12.2124C7.61122 12.1844 7.63838 12.1554 7.6656 12.1267C7.76571 12.8787 7.86273 13.6307 7.95666 14.3827C7.97268 14.4914 7.99187 14.5987 8.01425 14.7045C7.17314 14.6582 6.33409 14.5825 5.49711 14.4774C5.13477 14.4318 4.76909 14.5314 4.48051 14.7542C4.19194 14.9769 4.0041 15.3047 3.95833 15.6653C3.91256 16.0259 4.0126 16.3898 4.23644 16.677C4.46029 16.9642 4.7896 17.1511 5.15194 17.1967C6.75998 17.3987 8.37919 17.5 10 17.5C11.6208 17.5 13.24 17.3987 14.8481 17.1967C15.2104 17.1511 15.5397 16.9642 15.7636 16.677C15.9874 16.3898 16.0874 16.0259 16.0417 15.6653C15.9959 15.3047 15.8081 14.9769 15.5195 14.7542C15.2309 14.5314 14.8652 14.4318 14.5029 14.4774C13.6665 14.5825 12.8275 14.6582 11.9858 14.7045C12.008 14.5988 12.0272 14.4915 12.0433 14.3827C12.137 13.6307 12.2341 12.8787 12.3344 12.1267C12.3616 12.1554 12.3888 12.1844 12.4162 12.2124C12.8817 12.7024 13.4301 13.1071 14.0365 13.408C14.5738 13.6697 15.1636 13.8071 15.7617 13.8099C15.8927 13.8099 16.0237 13.8032 16.154 13.7899C16.4025 13.7645 16.6308 13.6419 16.7885 13.449C16.9463 13.2561 17.0206 13.0088 16.9951 12.7614Z" fill="#8787FF"/>
</svg>
