<svg width="25" height="25" viewBox="0 0 25 25" fill="none" xmlns="http://www.w3.org/2000/svg">
<path d="M12.4775 4.14185C12.5333 4.08597 12.5995 4.04164 12.6724 4.01139C12.7453 3.98115 12.8234 3.96558 12.9023 3.96558C12.9813 3.96558 13.0594 3.98115 13.1323 4.01139C13.2052 4.04164 13.2714 4.08597 13.3271 4.14185C13.6403 4.45625 15.0167 5.88185 16.3187 7.74545C17.6027 9.58265 18.9023 11.9646 18.9023 14.1666C18.9023 16.3026 18.2099 17.9646 17.0831 19.0926C15.9611 20.217 14.4515 20.7666 12.9023 20.7666C11.3531 20.7666 9.84354 20.217 8.72154 19.0926C7.59474 17.9646 6.90234 16.3038 6.90234 14.1666C6.90234 11.9646 8.20194 9.58265 9.48594 7.74665C10.385 6.46686 11.3854 5.26138 12.4775 4.14185Z" fill="#FF578D"/>
<g clip-path="url(#clip0_920_21130)">
<path d="M6.68994 4.6543C6.71781 4.62636 6.75092 4.60419 6.78736 4.58907C6.82381 4.57395 6.86288 4.56616 6.90234 4.56616C6.9418 4.56616 6.98088 4.57395 7.01732 4.58907C7.05377 4.60419 7.08688 4.62636 7.11474 4.6543C7.27134 4.8115 7.95954 5.5243 8.61054 6.4561C9.25254 7.3747 9.90234 8.5657 9.90234 9.6667C9.90234 10.7347 9.55614 11.5657 8.99274 12.1297C8.43174 12.6919 7.67694 12.9667 6.90234 12.9667C6.12774 12.9667 5.37294 12.6919 4.81194 12.1297C4.24854 11.5657 3.90234 10.7353 3.90234 9.6667C3.90234 8.5657 4.55214 7.3747 5.19414 6.4567C5.64366 5.8168 6.14387 5.21406 6.68994 4.6543Z" fill="#FF578D" stroke="#FAC2D7" stroke-width="0.5"/>
</g>
<defs>
<clipPath id="clip0_920_21130">
<rect width="9.6" height="9.6" fill="white" transform="translate(2.10156 3.9668)"/>
</clipPath>
</defs>
</svg>
