<svg width="25" height="24" viewBox="0 0 25 24" fill="none" xmlns="http://www.w3.org/2000/svg">
<path d="M15.4832 7.66514L15.4833 7.66521C16.7604 9.49266 17.9767 11.7639 17.9767 13.8C17.9767 15.8245 17.323 17.3523 16.3037 18.3726L16.3036 18.3728C15.2856 19.3929 13.9084 19.9 12.4767 19.9C11.045 19.9 9.66772 19.3929 8.64982 18.3728L8.64963 18.3726C7.63034 17.3522 6.97668 15.8257 6.97668 13.8C6.97668 11.7642 8.1927 9.49309 9.46967 7.66704C10.3525 6.41037 11.3348 5.2266 12.407 4.12715C12.4161 4.11837 12.4267 4.11138 12.4384 4.10654C12.4505 4.1015 12.4635 4.09891 12.4767 4.09891C12.4898 4.09891 12.5029 4.1015 12.515 4.10654C12.5271 4.11154 12.538 4.11885 12.5473 4.12806C12.8497 4.43164 14.2041 5.83435 15.4832 7.66514Z" stroke="#FF7E61"/>
<line x1="5.63029" y1="6.84643" x2="18.8303" y2="20.0464" stroke="#FF7E61"/>
</svg>
