<svg width="22" height="22" viewBox="0 0 22 22" fill="none" xmlns="http://www.w3.org/2000/svg">
<path d="M19.849 1.85064C19.3725 1.3492 18.73 1.06805 18.0607 1.06805C17.3913 1.06805 16.7489 1.3492 16.2724 1.85064L7.83959 10.8666C7.64161 11.0788 7.51695 11.3563 7.48596 11.6538C7.45497 11.9514 7.51948 12.2513 7.66897 12.5046L2.48459 18.0346C2.39808 18.1264 2.32942 18.2354 2.28257 18.3556C2.23573 18.4757 2.21161 18.6045 2.21161 18.7346C2.21161 18.8648 2.23573 18.9936 2.28257 19.1137C2.32942 19.2338 2.39808 19.3429 2.48459 19.4346L3.39678 20.3726C3.48164 20.4667 3.58362 20.5413 3.69646 20.5919C3.80931 20.6424 3.93064 20.6679 4.05303 20.6666C4.17519 20.6663 4.29608 20.6401 4.40871 20.5896C4.52135 20.5392 4.6235 20.4654 4.70928 20.3726L9.88709 14.8566C10.0848 14.985 10.3119 15.0528 10.5433 15.0526C10.7039 15.0519 10.8628 15.0169 11.0104 14.9495C11.1581 14.8822 11.2916 14.784 11.403 14.6606L19.849 5.67264C20.0843 5.42172 20.271 5.1238 20.3984 4.79591C20.5257 4.46801 20.5913 4.11656 20.5913 3.76164C20.5913 3.40671 20.5257 3.05526 20.3984 2.72737C20.271 2.39947 20.0843 2.10156 19.849 1.85064ZM5.18178 19.0146L3.75771 17.5026L4.49928 16.7046L5.9299 18.2236L5.18178 19.0146ZM4.30896 19.9666C4.23898 20.0402 4.14469 20.0814 4.04646 20.0814C3.94823 20.0814 3.85394 20.0402 3.78396 19.9666L2.87178 18.9866C2.80325 18.9132 2.76478 18.8138 2.76478 18.7101C2.76478 18.6065 2.80325 18.5071 2.87178 18.4336L3.3574 17.9156L4.78146 19.4416L4.30896 19.9666ZM6.32365 17.8176L4.89303 16.2846L8.03647 12.9666L8.77803 13.6666L9.49334 14.4296L6.32365 17.8176ZM19.4552 5.26664L11.029 14.2476C10.9675 14.3198 10.8925 14.3775 10.8089 14.417C10.7252 14.4564 10.6348 14.4768 10.5433 14.4768C10.4519 14.4768 10.3615 14.4564 10.2778 14.417C10.1942 14.3775 10.1192 14.3198 10.0577 14.2476L8.23334 12.3016C8.16567 12.236 8.1116 12.1561 8.0746 12.0669C8.0376 11.9777 8.01849 11.8812 8.01849 11.7836C8.01849 11.6861 8.0376 11.5896 8.0746 11.5004C8.1116 11.4112 8.16567 11.3312 8.23334 11.2656L16.653 2.27764C17.0246 1.88127 17.5286 1.6586 18.0541 1.6586C18.5796 1.6586 19.0836 1.88127 19.4552 2.27764C19.8268 2.674 20.0356 3.21159 20.0356 3.77214C20.0356 4.33268 19.8268 4.87027 19.4552 5.26664Z" fill="#4C4E51"/>
<path d="M15.4652 6.16265C15.2899 5.97966 15.0543 5.8772 14.809 5.8772C14.5636 5.8772 14.3281 5.97966 14.1527 6.16265L13.2405 7.13565L12.9321 7.47165L10.9633 9.57165C10.8769 9.66326 10.8086 9.77239 10.7624 9.89262C10.7162 10.0128 10.693 10.1417 10.6943 10.2717C10.6923 10.4017 10.7151 10.5308 10.7614 10.6512C10.8076 10.7715 10.8763 10.8805 10.9633 10.9717L11.3046 11.3427C11.4799 11.5256 11.7155 11.6281 11.9608 11.6281C12.2062 11.6281 12.4417 11.5256 12.6171 11.3427L15.8065 7.94065C15.8929 7.84905 15.9612 7.73992 16.0074 7.61969C16.0536 7.49947 16.0768 7.37059 16.0755 7.24065C16.0775 7.11061 16.0547 6.9815 16.0084 6.86116C15.9622 6.74082 15.8935 6.63177 15.8065 6.54065L15.4652 6.16265ZM13.3324 9.72565L12.4727 8.80865L12.9583 8.29065L13.4505 7.76565L14.3036 8.68265L13.3324 9.72565ZM12.2233 10.9087C12.1548 10.9796 12.063 11.0193 11.9674 11.0193C11.8718 11.0193 11.78 10.9796 11.7115 10.9087L11.3636 10.5377C11.2971 10.4645 11.2599 10.3666 11.2599 10.2647C11.2599 10.1627 11.2971 10.0648 11.3636 9.99165L12.0593 9.22865L12.9386 10.1667L12.2233 10.9087ZM15.4127 7.50665L14.6843 8.26965L13.8377 7.36665L14.553 6.58965C14.5867 6.5515 14.6274 6.52123 14.6726 6.50074C14.7177 6.48026 14.7664 6.47001 14.8155 6.47065C14.8635 6.47097 14.9109 6.48168 14.9549 6.50214C14.9989 6.52259 15.0386 6.55237 15.0715 6.58965L15.4127 6.95365C15.4474 6.98855 15.4748 7.03096 15.4929 7.07804C15.511 7.12513 15.5195 7.1758 15.5177 7.22665C15.5192 7.27851 15.5106 7.33014 15.4925 7.37831C15.4745 7.42648 15.4473 7.47017 15.4127 7.50665Z" fill="#4C4E51"/>
</svg>
