<svg width="25" height="24" viewBox="0 0 25 24" fill="none" xmlns="http://www.w3.org/2000/svg">
<g clip-path="url(#clip0_3409_35725)">
<path d="M19.7262 10.1633C19.7304 10.0935 19.7335 10.0239 19.7335 9.95355C19.7333 7.19902 16.6753 4.96699 12.9028 4.96667C9.13007 4.96699 6.07224 7.19902 6.0718 9.95355C6.0718 10.0204 6.07512 10.0868 6.07865 10.153C5.11663 10.7338 4.50343 11.6117 4.50343 12.5943C4.50343 12.5943 4.29056 17.367 12.8904 19.3648C12.8904 19.3648 21.4266 17.378 21.3017 12.5943C21.276 11.6172 20.6719 10.744 19.7262 10.1633ZM13.7832 15.9859H12.0219L12.3442 14.0306C11.687 13.7097 11.7069 13.2576 11.7069 13.2576C11.7069 13.0085 11.9832 12.8068 12.3245 12.8068C12.5893 12.8068 12.815 12.9287 12.9028 13.0994C12.9905 12.9287 13.216 12.8068 13.4813 12.8068C13.8223 12.8068 14.0923 13.0087 14.0989 13.2576C14.1082 13.6163 13.7761 13.8634 13.4592 14.0181L13.7832 15.9859ZM16.9642 9.42785C15.1047 9.42785 13.5188 10.2823 12.9025 11.4825C12.2856 10.2823 10.7004 9.42785 8.84071 9.42785C8.36633 9.42785 7.91118 9.48529 7.48389 9.58799C7.74075 7.56506 10.0656 5.98318 12.9028 5.97934C15.7404 5.98318 18.0655 7.56586 18.3214 9.58943C17.8952 9.48609 17.4401 9.42785 16.9642 9.42785Z" fill="#FF3131"/>
</g>
<defs>
<clipPath id="clip0_3409_35725">
<rect width="16.8" height="14.7181" fill="white" transform="translate(4.50296 4.96667)"/>
</clipPath>
</defs>
</svg>
