<svg width="21" height="21" viewBox="0 0 21 21" fill="none" xmlns="http://www.w3.org/2000/svg">
<path d="M11.0541 5.73962L11.864 6.22211C12.3982 6.53229 12.8117 6.99755 13.0702 7.54897L13.6044 8.72074L15.2587 7.34219C15.5688 7.08371 16.0169 7.11817 16.2926 7.41112C16.5683 7.72129 16.5338 8.20379 16.2236 8.4795L14.173 10.2027C13.7422 10.5646 13.0874 10.4956 12.7428 10.0476L11.6744 8.63458L10.2097 10.8403L11.8812 12.0982C12.4326 12.5118 12.6222 13.2355 12.3637 13.8559L11.0885 16.8197C10.8817 17.285 10.3303 17.4746 9.88229 17.2505C9.48596 17.0438 9.31364 16.544 9.48596 16.1305L10.6233 13.6146L8.05571 11.788C7.28027 11.2366 7.07349 10.1855 7.55598 9.37556L9.03793 6.94585L6.9184 7.35942L5.31583 8.78967C4.93673 9.01369 4.45424 8.89306 4.21299 8.51396C3.95451 8.11763 4.09237 7.58344 4.50593 7.35942L6.29805 5.87748C6.40144 5.82578 6.50484 5.77408 6.60823 5.75685L8.79668 5.41221C9.57212 5.22266 10.382 5.32605 11.0541 5.73962Z" fill="#7EA3FF"/>
<path d="M7.48593 11.9087L9.14019 12.9771L8.69216 14.8381C8.57154 15.2861 8.26136 15.6653 7.8478 15.872L4.64266 17.4229C4.24632 17.6125 3.76383 17.4401 3.55705 17.0438C3.3675 16.6475 3.52258 16.165 3.91892 15.9754L6.93451 14.4246L7.48593 11.9087Z" fill="#7EA3FF"/>
<path d="M12.4502 5.70514C13.3353 5.70514 14.0528 4.98764 14.0528 4.10257C14.0528 3.21749 13.3353 2.5 12.4502 2.5C11.5652 2.5 10.8477 3.21749 10.8477 4.10257C10.8477 4.98764 11.5652 5.70514 12.4502 5.70514Z" fill="#7EA3FF"/>
</svg>
