<svg width="12" height="17" viewBox="0 0 12 17" fill="none" xmlns="http://www.w3.org/2000/svg">
<g clip-path="url(#clip0_7374_23093)">
<path d="M0.963662 10.4457C0.987882 10.6873 1.32792 10.8737 1.73376 10.8737C1.74891 10.8737 1.76415 10.8735 1.77959 10.8729C2.20512 10.8582 2.52991 10.6431 2.50492 10.3924C2.46728 10.0145 2.45021 9.67011 2.45021 9.35678C2.44885 8.77604 2.50887 8.30312 2.60372 7.91961C2.7336 7.39412 2.9288 7.03697 3.12227 6.80372V15.329C3.12227 15.7172 3.65654 16.0317 4.31519 16.0317C4.97403 16.0317 5.5083 15.7172 5.5083 15.329V10.1986H5.95554V15.329C5.95554 15.7172 6.48981 16.0317 7.14846 16.0317C7.8073 16.0317 8.34157 15.7172 8.34157 15.329V6.25993C8.90836 6.16036 9.61477 5.98417 10.2718 5.74819C10.6492 5.61071 11.0065 5.45515 11.3025 5.26323C11.4498 5.16689 11.583 5.06033 11.6861 4.93586C11.7885 4.81207 11.8598 4.6668 11.8598 4.50954C11.8618 4.33751 11.7679 4.1591 11.6044 4.01236C11.4431 3.86567 11.2255 3.74603 10.9675 3.64151C10.9649 3.64038 10.9624 3.63913 10.9598 3.63805H10.9596C10.7698 3.56308 10.5554 3.49397 10.3134 3.42941C9.66456 3.25623 8.81225 3.1167 7.66198 2.99173C7.24254 2.947 6.84075 3.11102 6.76481 3.35819C6.68868 3.60525 6.96725 3.8418 7.38669 3.88664C8.52886 4.00633 9.30793 4.15285 9.76916 4.28266C9.90106 4.31977 10.0084 4.35564 10.0888 4.389C10.0892 4.38911 10.0895 4.38928 10.0899 4.38945C10.2268 4.44424 10.2882 4.48766 10.3072 4.50551C10.3107 4.50875 10.313 4.51108 10.3143 4.51273C10.3106 4.52131 10.2973 4.54313 10.2607 4.57576C10.1832 4.64805 9.99427 4.75933 9.74214 4.86459C9.36486 5.02486 8.85558 5.17786 8.41104 5.28249C8.18911 5.33512 7.98204 5.37633 7.82168 5.40236C7.74168 5.41543 7.67346 5.42463 7.6257 5.42969C7.61152 5.43123 7.59994 5.43231 7.59 5.43316H3.86785C3.85608 5.43316 3.8447 5.4339 3.83302 5.43418C3.65885 5.43543 3.36938 5.4576 3.03996 5.55541C2.52084 5.7071 1.96148 6.03867 1.56982 6.62623C1.34451 6.96166 1.16157 7.38258 1.0451 7.91972C0.956811 8.32711 0.906829 8.80134 0.90625 9.35683C0.906443 9.6896 0.924583 10.0515 0.963662 10.4457Z" fill="#7EA3FF"/>
<path d="M9.11842 4.25568C9.12623 4.30854 9.13086 4.36134 9.13067 4.41289C9.13067 4.54912 9.1052 4.67671 9.06602 4.77151C9.04643 4.8188 9.02337 4.85796 9.00079 4.88456C8.9897 4.89786 8.9786 4.90786 8.97011 4.91394C8.96162 4.92013 8.95747 4.92082 8.95766 4.92127C8.95072 4.92332 8.93354 4.92593 8.9072 4.92593C8.81881 4.92684 8.65429 4.89541 8.492 4.86108C8.3268 4.82744 8.16518 4.79084 8.02401 4.7897C7.95367 4.78879 7.865 4.80266 7.81849 4.84972C7.785 4.88632 7.77372 4.92292 7.77391 4.95588C7.77671 5.03778 7.82891 5.10428 7.82572 5.14423C7.81965 5.17685 7.82379 5.19453 7.67066 5.2342C7.65445 5.23801 7.63959 5.2396 7.62319 5.23971C7.56192 5.24119 7.46186 5.20828 7.35803 5.13736C7.04202 4.92764 6.73537 4.43221 6.73923 4.12639C6.73904 4.09285 6.74271 4.06176 6.74965 4.03414L6.65432 4.02573L6.74965 4.03397C6.75496 4.01277 6.75737 3.99174 6.75737 3.97094C6.75564 3.80317 6.60887 3.64534 6.47359 3.49729C6.33561 3.35003 6.21027 3.21061 6.21316 3.10763C6.21664 3.02238 6.27608 2.95122 6.53998 2.87455C6.68944 2.83289 6.83129 2.8151 6.96927 2.81499C7.12308 2.81351 7.27437 2.83676 7.42162 2.87705C7.45443 2.87506 7.48752 2.87376 7.52129 2.87376C7.5788 2.87376 7.63699 2.87677 7.69411 2.88291C7.7494 2.88893 7.80344 2.89495 7.85747 2.90109C7.59183 2.78424 7.29551 2.70388 6.96927 2.70126C6.9051 2.70126 6.83997 2.70564 6.77455 2.7124C6.46452 2.61192 6.10857 2.55469 5.72965 2.55469C4.53065 2.55469 3.55859 3.12718 3.55859 3.83346C3.55859 4.53974 4.53065 5.11223 5.72965 5.11223C6.15807 5.11223 6.55715 5.03886 6.89362 4.91269C6.98876 5.02931 7.09644 5.1336 7.21272 5.21221C7.33372 5.29268 7.46543 5.3519 7.62319 5.35338C7.62367 5.35338 7.62415 5.35338 7.62473 5.35338C7.66391 5.35338 7.70347 5.34901 7.74129 5.34008C7.93138 5.30127 8.02479 5.22045 8.01871 5.14429C8.01523 5.06682 7.96419 5.00374 7.96708 4.95594C7.96728 4.93741 7.9722 4.92229 7.986 4.90632C7.986 4.90632 7.98638 4.90638 7.98754 4.90644C7.99169 4.9053 8.00433 4.90337 8.02411 4.90348C8.10323 4.90234 8.26553 4.93389 8.42783 4.96833C8.59341 5.00215 8.76005 5.03869 8.90729 5.0396C8.95197 5.0396 8.99722 5.03602 9.04074 5.02397C9.16338 4.98265 9.20391 4.90439 9.2537 4.79845C9.29721 4.6924 9.32365 4.55759 9.32365 4.41306C9.32346 4.37515 9.32105 4.3365 9.31729 4.29763C9.25563 4.28387 9.18982 4.26995 9.11842 4.25568Z" fill="#7EA3FF"/>
<path d="M9.84366 2.51157C9.54454 2.10691 8.44531 2.7052 8.44531 2.7052C8.44531 2.7052 10.0489 2.78903 9.84366 2.51157Z" fill="#7EA3FF"/>
<path d="M7.93003 0.892256C6.86959 0.813995 7.31587 2.04349 7.31587 2.04349C7.31587 2.04349 8.65738 0.94585 7.93003 0.892256Z" fill="#7EA3FF"/>
<path d="M10.4608 1.32178C9.70864 0.797423 8.52344 1.97793 8.52344 1.97793C8.52344 1.97793 10.977 1.68142 10.4608 1.32178Z" fill="#7EA3FF"/>
</g>
<defs>
<clipPath id="clip0_7374_23093">
<rect width="11" height="15.2308" fill="white" transform="translate(0.90625 0.882812)"/>
</clipPath>
</defs>
</svg>
