<svg width="21" height="21" viewBox="0 0 21 21" fill="none" xmlns="http://www.w3.org/2000/svg">
<path d="M5.16806 11.2835C6.38486 11.2835 7.37127 10.088 7.37127 8.61321C7.37127 7.13842 6.38486 5.94287 5.16806 5.94287C3.95126 5.94287 2.96484 7.13842 2.96484 8.61321C2.96484 10.088 3.95126 11.2835 5.16806 11.2835Z" fill="#7EA3FF"/>
<path d="M14.872 5.92858L11.4711 6.45895C11.3525 6.82415 10.7543 8.62191 10.6417 8.94373C10.6417 8.94373 10.6417 8.94373 10.6437 8.94373C11.3429 9.36296 13.6941 10.0422 15.3526 10.6128C12.7882 10.7441 11.2381 13.6938 8.18275 13.8121C7.31441 13.8457 6.54638 13.6408 5.9375 13.3832C7.31949 10.3592 9.51098 5.73497 9.81131 4.90292C9.99862 4.38226 10.2565 4.18936 10.6218 4.13272L14.6158 3.50993C15.1672 3.42485 15.6717 3.89597 15.7432 4.56427C15.8123 5.23233 15.4232 5.84374 14.872 5.92858Z" fill="#7EA3FF"/>
<path d="M4.46875 12.8395C4.46875 12.8395 5.81046 15.7112 8.34001 15.6131C11.7144 15.4828 12.9625 12.511 15.4922 12.4134C18.2032 12.3086 18.9656 13.741 18.9656 13.741C18.9656 13.741 17.8638 10.8597 15.3937 10.9552C12.8035 11.0557 11.254 14.0391 8.18144 14.1578C6.01284 14.2415 4.46875 12.8395 4.46875 12.8395Z" fill="#7EA3FF"/>
<path d="M4.95312 14.8435C4.95312 14.8435 6.23696 17.5913 8.6576 17.4977C11.8866 17.3728 13.0814 14.529 15.5019 14.4354C18.0957 14.3352 18.8251 15.7059 18.8251 15.7059C18.8251 15.7059 17.771 12.9486 15.4074 13.0401C12.9287 13.136 11.446 15.991 8.50587 16.1047C6.43093 16.1851 4.95312 14.8435 4.95312 14.8435Z" fill="#7EA3FF"/>
</svg>
