<svg width="20" height="21" viewBox="0 0 20 21" fill="none" xmlns="http://www.w3.org/2000/svg">
<path d="M13.9917 11.0656C13.9917 11.0656 13.8508 10.3451 13.6471 9.27993C13.5375 8.74736 13.4278 8.12081 13.3025 7.44727C13.2555 7.21231 13.1616 6.99302 13.0206 6.78939C12.8796 6.58576 12.6916 6.42913 12.4724 6.30382C12.3784 6.24116 12.2687 6.20983 12.1434 6.16284C11.8771 6.35081 11.5325 6.46046 11.1723 6.46046C10.812 6.46046 10.4831 6.35081 10.2011 6.16284C10.0915 6.19417 9.98182 6.24116 9.87217 6.30382C9.65288 6.42913 9.46492 6.58576 9.32394 6.78939C9.18297 6.99302 9.08898 7.21231 9.04199 7.44727C8.91668 8.12081 8.79137 8.74736 8.69739 9.27993C8.49376 10.3607 8.35279 11.0656 8.35279 11.0656C8.3058 11.2849 8.44677 11.4885 8.66606 11.5355C8.86969 11.5825 9.07331 11.4415 9.12031 11.2379C9.12031 11.2379 9.27695 10.533 9.52757 9.46789C9.59022 9.15461 9.66854 8.82568 9.74686 8.46541L9.46491 11.4102C9.46491 11.5042 9.54323 11.5825 9.63722 11.5825H9.68421C9.68421 13.6658 9.68421 15.7491 9.68421 17.848C9.68421 18.1299 9.9035 18.3649 10.2011 18.3806C10.4987 18.3962 10.7493 18.1613 10.765 17.8637C10.859 15.937 10.9373 14.0104 11.0156 12.0837C11.1253 12.0837 11.2349 12.0837 11.3289 12.0837L11.5639 17.8637C11.5795 18.1456 11.8145 18.3806 12.0964 18.3806C12.394 18.3806 12.629 18.1456 12.629 17.848V11.5825H12.6916C12.7856 11.5825 12.8639 11.5042 12.8639 11.4102L12.582 8.49674C12.6603 8.84135 12.7386 9.17028 12.8013 9.46789C13.0519 10.533 13.2085 11.2379 13.2085 11.2379C13.2555 11.4415 13.4592 11.5825 13.6628 11.5355C13.8977 11.4885 14.0387 11.2849 13.9917 11.0656Z" fill="#6C3F9A"/>
<path d="M11.1711 6.06886C11.8805 6.06886 12.4556 5.4938 12.4556 4.78443C12.4556 4.07506 11.8805 3.5 11.1711 3.5C10.4618 3.5 9.88672 4.07506 9.88672 4.78443C9.88672 5.4938 10.4618 6.06886 11.1711 6.06886Z" fill="#6C3F9A"/>
<path d="M8.22674 13.3837H7.70983V11.6137C7.70983 11.3475 7.49054 11.1282 7.22425 11.1282H6.33142C6.06513 11.1282 5.84585 11.3475 5.84585 11.6137V13.3837H5.32894C5.14098 13.3837 5 13.5404 5 13.7127V17.7383C5 17.9262 5.14098 18.0672 5.32894 18.0672H5.5639C5.5639 18.0829 5.5639 18.0829 5.5639 18.0985C5.5639 18.2552 5.68921 18.3805 5.84585 18.3805H6.01814C6.17478 18.3805 6.30009 18.2552 6.30009 18.0985C6.30009 18.0829 6.30009 18.0829 6.30009 18.0672H7.27124C7.27124 18.0829 7.27124 18.0829 7.27124 18.0985C7.27124 18.2552 7.39655 18.3805 7.55319 18.3805H7.7255C7.88213 18.3805 8.00744 18.2552 8.00744 18.0985C8.00744 18.0829 8.00744 18.0829 8.00744 18.0672H8.2424C8.43036 18.0672 8.57133 17.9106 8.57133 17.7383V13.7127C8.55567 13.5404 8.4147 13.3837 8.22674 13.3837ZM6.15912 11.6294C6.15912 11.5354 6.23744 11.4571 6.33142 11.4571H7.22425C7.31824 11.4571 7.39655 11.5354 7.39655 11.6294V13.3994H6.15912V11.6294ZM6.80133 17.0804L6.31576 17.1744C6.2531 17.19 6.19044 17.143 6.17478 17.0804L6.0808 16.5948C6.06514 16.5322 6.11213 16.4695 6.17478 16.4538L6.66036 16.3599C6.72302 16.3442 6.78567 16.3912 6.80133 16.4538L6.89532 16.9394C6.89532 17.0021 6.86399 17.0647 6.80133 17.0804ZM5.83018 15.0598L5.70487 14.5429L6.817 14.2766L6.94231 14.7935L5.83018 15.0598ZM7.83514 15.7803C7.80382 15.9213 7.61585 15.9839 7.41222 15.9213C7.22426 15.8743 7.08328 15.7176 7.13028 15.5767C7.1616 15.4357 7.34956 15.373 7.55319 15.4357C7.74115 15.4983 7.88213 15.655 7.83514 15.7803Z" fill="#6C3F9A"/>
</svg>
