<svg width="25" height="25" viewBox="0 0 25 25" fill="none" xmlns="http://www.w3.org/2000/svg">
<g clip-path="url(#clip0_3409_35715)">
<path d="M19.7264 9.89817C19.012 9.37792 18.3214 9.24334 18.3214 9.24334C17.8952 9.12519 17.4405 9.0589 16.9642 9.0589C15.1047 9.0589 13.5191 10.0342 12.9025 11.4041C12.2856 10.0342 10.7004 9.0589 8.84049 9.0589C8.36633 9.0589 7.91118 9.12446 7.48389 9.24169C7.74053 6.93261 10.0653 5.12715 12.9025 5.12259C14.8257 5.12569 16.5108 5.95766 17.4786 7.21163L18.4992 6.39701C17.2641 4.92811 15.2187 3.96686 12.9025 3.96667C9.12984 3.96704 6.07202 6.5148 6.07158 9.65895C6.07158 9.73528 6.07512 9.81107 6.07865 9.88667C5.11663 10.5495 4.50343 11.5517 4.50343 12.6731C4.50343 12.6731 4.29078 18.1209 12.8904 20.4015C12.8904 20.4015 21.4266 18.1336 21.3017 12.6731C21.2758 11.5579 20.6719 10.5612 19.7264 9.89817ZM13.7832 16.5446H12.0217L12.3439 14.3127C11.6868 13.9464 11.7064 13.4306 11.7064 13.4306C11.7064 13.146 11.9827 12.916 12.3241 12.916C12.5889 12.916 12.8148 13.0547 12.9023 13.2498C12.9899 13.0547 13.216 12.916 13.4808 12.916C13.8219 12.916 14.092 13.1462 14.0984 13.4306C14.1079 13.8398 13.7757 14.1217 13.4589 14.2985L13.7832 16.5446Z" fill="#FF3131"/>
</g>
<defs>
<clipPath id="clip0_3409_35715">
<rect width="16.8" height="16.8" fill="white" transform="translate(4.50296 3.96667)"/>
</clipPath>
</defs>
</svg>
