<svg width="14" height="16" viewBox="0 0 14 16" fill="none" xmlns="http://www.w3.org/2000/svg">
<path d="M13.1834 8.46746C12.7142 5.84523 11.5488 4.96246 11.0467 3.18711C10.8145 2.36386 10.7017 1.34197 10.6473 0.5H7.08598H3.52469C3.47024 1.34197 3.35734 2.36371 3.12526 3.18711C2.62336 4.96246 1.45774 5.84523 0.988515 8.46746C0.734499 9.88832 1.06414 13.1168 2.04155 15.5H6.38544V12.1174L4.62343 9.86424C4.53753 9.75441 4.55686 9.59581 4.66669 9.50991C4.77698 9.4237 4.93512 9.44395 5.02102 9.55316L6.52365 11.4749C6.52365 11.4749 6.61921 11.625 6.75343 11.596C6.85421 11.5743 6.83396 11.4253 6.83396 11.4253V10.6438C6.83396 10.5043 6.94701 10.3913 7.08644 10.3913C7.22587 10.3913 7.33892 10.5043 7.33892 10.6438V11.4255C7.33892 11.4255 7.34122 11.5511 7.45443 11.5905C7.55919 11.627 7.67976 11.4756 7.67976 11.4756L9.15155 9.55332C9.2373 9.4441 9.39559 9.4237 9.50588 9.51006C9.61571 9.59581 9.63519 9.75457 9.54914 9.8644L7.78713 12.1174V15.5H12.1304C13.1078 13.1166 13.4376 9.88817 13.1834 8.46746ZM7.08613 4.32973C6.86019 4.32973 6.67719 4.14658 6.67719 3.92063C6.67719 3.69468 6.86019 3.51154 7.08613 3.51154C7.31208 3.51154 7.49523 3.69468 7.49523 3.92063C7.49523 4.14658 7.31208 4.32973 7.08613 4.32973Z" fill="#7EA3FF"/>
</svg>
