<svg width="21" height="21" viewBox="0 0 21 21" fill="none" xmlns="http://www.w3.org/2000/svg">
<path d="M14.486 10.1199L13.7132 8.57427C13.5277 8.20332 13.2031 7.90964 12.8167 7.75508C11.1165 7.09045 10.9001 7.1059 10.7301 7.12136L9.57085 7.19864C9.21535 7.2141 8.96805 7.30684 7.77789 9.05343C7.73152 9.11525 7.6697 9.16162 7.57696 9.17708L6.15496 9.39347C5.76854 9.4553 5.50578 9.8108 5.56761 10.1972C5.62943 10.5836 5.98493 10.8464 6.37135 10.7846L7.79335 10.5682C8.25705 10.4909 8.67437 10.2436 8.93713 9.85717C8.99896 9.76443 9.06079 9.68714 9.10715 9.60986L10.0191 12.5002L8.75165 13.7677C8.56618 13.9531 8.41161 14.2005 8.31887 14.4478L7.34511 17.2918C7.206 17.7091 7.42239 18.1728 7.83972 18.3119C7.93246 18.3428 8.00974 18.3583 8.10248 18.3583C8.44252 18.3583 8.75165 18.1419 8.85985 17.8173L9.83361 14.9733C9.84907 14.9424 9.86452 14.9269 9.87998 14.896L10.6064 14.1695L11.9512 17.8173C12.0748 18.1419 12.3839 18.3428 12.7085 18.3428C12.8013 18.3428 12.894 18.3273 12.9867 18.2964C13.4041 18.1419 13.6205 17.6782 13.4659 17.2608L11.8893 12.9021L12.1675 12.6239C12.4921 12.2993 12.6158 11.8511 12.523 11.4183L11.9512 8.92977C12.0594 8.97614 12.1675 9.02251 12.3067 9.06888C12.3685 9.0998 12.4303 9.14617 12.4612 9.20799L13.234 10.7536C13.3577 11.001 13.605 11.1401 13.8678 11.1401C13.976 11.1401 14.0842 11.1091 14.1769 11.0628C14.5169 10.8928 14.6561 10.46 14.486 10.1199Z" fill="#7EA3FF"/>
<path d="M10.0968 6.77278C10.9538 6.67949 11.573 5.90906 11.4797 5.05197C11.3865 4.19488 10.616 3.57569 9.75893 3.66898C8.90184 3.76227 8.28266 4.5327 8.37594 5.38979C8.46923 6.24688 9.23966 6.86607 10.0968 6.77278Z" fill="#7EA3FF"/>
</svg>
