<svg width="24" height="24" viewBox="0 0 24 24" fill="none" xmlns="http://www.w3.org/2000/svg">
<g clip-path="url(#clip0_4793_29614)">
<path d="M12.4254 2.5752L12.0712 2.92808C12.3736 3.23166 13.7281 4.63437 15.0071 6.46516L15.0072 6.46522C16.2844 8.29268 17.5006 10.564 17.5006 12.6C17.5006 14.6245 16.8469 16.1523 15.8277 17.1726L15.8275 17.1728C14.8096 18.1929 13.4323 18.7 12.0006 18.7C10.5689 18.7 9.19165 18.1929 8.17374 17.1728L8.17355 17.1726C7.15427 16.1523 6.50061 14.6257 6.50061 12.6C6.50061 10.5642 7.71663 8.2931 8.99359 6.46706C9.87641 5.21039 10.8587 4.02662 11.931 2.92717C11.94 2.91839 11.9506 2.9114 11.9623 2.90656C11.9744 2.90152 11.9875 2.89893 12.0006 2.89893C12.0138 2.89893 12.0268 2.90152 12.0389 2.90656C12.0511 2.9116 12.0621 2.91899 12.0714 2.9283L12.4254 2.5752ZM12.4254 2.5752C12.3697 2.51932 12.3035 2.47499 12.2306 2.44474C12.1577 2.4145 12.0795 2.39893 12.0006 2.39893C11.9217 2.39893 11.8435 2.4145 11.7706 2.44474L8.58421 6.18C7.30021 8.016 6.00061 10.398 6.00061 12.6C6.00061 14.7372 6.69301 16.398 7.81981 17.526C8.94181 18.6504 10.4514 19.2 12.0006 19.2C13.5498 19.2 15.0594 18.6504 16.1814 17.526C17.3082 16.398 18.0006 14.736 18.0006 12.6C18.0006 10.398 16.701 8.016 15.417 6.1788C14.115 4.3152 12.7386 2.8896 12.4254 2.5752Z" stroke="#FF7E61"/>
<g clip-path="url(#clip1_4793_29614)">
<path d="M17.1617 10.3736C17.193 10.3421 17.2302 10.3172 17.2713 10.3002C17.3123 10.2832 17.3562 10.2744 17.4006 10.2744C17.445 10.2744 17.489 10.2832 17.53 10.3002C17.571 10.3172 17.6082 10.3421 17.6396 10.3736C17.8157 10.5504 18.59 11.3523 19.3223 12.4006C20.0446 13.434 20.7756 14.7739 20.7756 16.0125C20.7756 17.214 20.3861 18.1489 19.7523 18.7834C19.1212 19.4159 18.272 19.725 17.4006 19.725C16.5292 19.725 15.68 19.4159 15.0489 18.7834C14.4151 18.1489 14.0256 17.2147 14.0256 16.0125C14.0256 14.7739 14.7566 13.434 15.4789 12.4013C15.9846 11.6814 16.5473 11.0033 17.1617 10.3736Z" fill="#FF7E61" stroke="#FDC7BA"/>
</g>
</g>
<defs>
<clipPath id="clip0_4793_29614">
<rect width="19.2" height="19.2" fill="white" transform="translate(2.4006 1.20001)"/>
</clipPath>
<clipPath id="clip1_4793_29614">
<rect width="10.8" height="10.8" fill="white" transform="translate(12.0006 9.60001)"/>
</clipPath>
</defs>
</svg>
