<svg width="21" height="21" viewBox="0 0 21 21" fill="none" xmlns="http://www.w3.org/2000/svg">
<path fill-rule="evenodd" clip-rule="evenodd" d="M4.57963 15.0564C5.75225 14.5795 7.16495 14.2559 8.48425 14.0904C8.79437 13.5135 9.22854 12.9621 8.99358 12.3428L8.52657 11.4343C8.28285 11.1159 8.20988 10.7966 8.36896 10.4772C8.43974 10.3239 8.45214 10.1183 8.39304 9.91072C7.63488 8.88951 6.97012 8.15415 6.2448 6.82823C6.09448 6.56219 6.22218 6.34474 6.53011 6.15843L10.0217 4.11082C10.3121 4.00233 10.4201 3.03678 10.6201 2.5H10.6296C10.8288 3.03678 10.9375 4.00233 11.2279 4.11082L14.7195 6.15843C15.0282 6.34474 15.1559 6.56219 15.0056 6.82823C14.2803 8.15415 13.6155 8.88951 12.8573 9.91072C12.7982 10.1183 12.8106 10.3239 12.8814 10.4772C13.0412 10.797 12.9683 11.1159 12.7245 11.4343L12.2575 12.3428C12.0226 12.9621 12.4567 13.5135 12.7669 14.0904C14.0862 14.2559 15.4988 14.5795 16.6707 15.0564C18.5125 15.8059 17.4851 16.7413 15.3179 16.4432C14.3043 16.3035 11.3709 16.0257 10.6252 15.7634C9.87943 16.0257 6.94531 16.304 5.93249 16.4432C3.76455 16.7413 2.73786 15.8059 4.5789 15.0564H4.57963ZM11.1068 5.45419C11.1068 5.5391 11.0542 5.61598 10.9689 5.67211V5.70891C11.2301 5.74098 11.4607 5.81126 11.5891 5.91928C12.3823 6.40842 12.17 7.50982 11.3717 7.99C11.3439 8.01217 11.3148 8.03292 11.2848 8.05273V8.798L11.387 8.86121L11.5614 8.96923L11.7672 8.94659L12.8522 8.33009L14.0117 6.61314L10.6252 4.29903L7.23865 6.61314L8.39814 8.33009L9.48321 8.94659L9.68898 8.96923L9.86338 8.86121L9.96554 8.798V8.05273C9.93562 8.03339 9.90643 8.01217 9.8787 7.99C9.08114 7.50982 8.86807 6.40889 9.66198 5.91928C9.79041 5.81079 10.021 5.74098 10.2822 5.70891V5.67211C10.1969 5.61598 10.1443 5.5391 10.1443 5.45419C10.1443 5.04524 11.1061 5.04524 11.1061 5.45419H11.1068Z" fill="#7EA3FF"/>
</svg>
