<svg width="361" height="82" viewBox="0 0 361 82" fill="none" xmlns="http://www.w3.org/2000/svg">
<g filter="url(#filter0_d_19_39593)">
<rect width="360" height="60" transform="translate(1.09717 21.6333)" fill="white"/>
<rect x="25.0972" y="37.6333" width="73" height="28" rx="14" fill="#FFDFDB"/>
<g clip-path="url(#clip0_19_39593)">
<path d="M48.4806 48.6083L42.7056 43.9917C41.8139 43.275 40.3722 43.275 39.4889 43.9833L33.7139 48.6083C33.0639 49.125 32.6472 50.2167 32.7889 51.0333L33.8972 57.6667C34.0972 58.85 35.2306 59.8083 36.4306 59.8083H45.7639C46.9556 59.8083 48.0972 58.8417 48.2972 57.6667L49.4056 51.0333C49.5389 50.2167 49.1222 49.125 48.4806 48.6083ZM41.0972 54.55C39.9472 54.55 39.0139 53.6167 39.0139 52.4667C39.0139 51.3167 39.9472 50.3833 41.0972 50.3833C42.2472 50.3833 43.1806 51.3167 43.1806 52.4667C43.1806 53.6167 42.2472 54.55 41.0972 54.55Z" fill="#F66B5A"/>
</g>
<path d="M63.5163 48.0173V56.6333H62.2383V52.7513H57.7443V56.6333H56.4603V48.0173H57.7443V51.8213H62.2383V48.0173H63.5163ZM67.9183 50.4413C68.3663 50.4413 68.7703 50.5153 69.1303 50.6633C69.4943 50.8073 69.8023 51.0173 70.0543 51.2933C70.3103 51.5653 70.5063 51.8953 70.6423 52.2833C70.7783 52.6673 70.8463 53.0993 70.8463 53.5793C70.8463 54.0593 70.7783 54.4933 70.6423 54.8813C70.5063 55.2693 70.3103 55.5993 70.0543 55.8713C69.8023 56.1433 69.4943 56.3533 69.1303 56.5013C68.7703 56.6453 68.3663 56.7173 67.9183 56.7173C67.4663 56.7173 67.0583 56.6453 66.6943 56.5013C66.3343 56.3533 66.0263 56.1433 65.7703 55.8713C65.5143 55.5993 65.3163 55.2693 65.1763 54.8813C65.0403 54.4933 64.9723 54.0593 64.9723 53.5793C64.9723 53.0993 65.0403 52.6673 65.1763 52.2833C65.3163 51.8953 65.5143 51.5653 65.7703 51.2933C66.0263 51.0173 66.3343 50.8073 66.6943 50.6633C67.0583 50.5153 67.4663 50.4413 67.9183 50.4413ZM67.9183 55.8053C68.4943 55.8053 68.9243 55.6113 69.2083 55.2233C69.4923 54.8353 69.6343 54.2893 69.6343 53.5853C69.6343 52.8813 69.4923 52.3353 69.2083 51.9473C68.9243 51.5553 68.4943 51.3593 67.9183 51.3593C67.3343 51.3593 66.8983 51.5553 66.6103 51.9473C66.3263 52.3353 66.1843 52.8813 66.1843 53.5853C66.1843 54.2893 66.3263 54.8353 66.6103 55.2233C66.8983 55.6113 67.3343 55.8053 67.9183 55.8053ZM72.2524 56.6333V50.5373H72.9544C73.1184 50.5373 73.2204 50.6153 73.2604 50.7713L73.3444 51.3533C73.5684 51.0853 73.8164 50.8673 74.0884 50.6993C74.3644 50.5273 74.6864 50.4413 75.0544 50.4413C75.4584 50.4413 75.7864 50.5533 76.0384 50.7773C76.2904 50.9973 76.4744 51.2973 76.5904 51.6773C76.6784 51.4613 76.7924 51.2753 76.9324 51.1193C77.0724 50.9633 77.2284 50.8353 77.4004 50.7353C77.5724 50.6353 77.7544 50.5613 77.9464 50.5133C78.1424 50.4653 78.3404 50.4413 78.5404 50.4413C78.8644 50.4413 79.1524 50.4933 79.4044 50.5973C79.6604 50.6973 79.8764 50.8453 80.0524 51.0413C80.2284 51.2373 80.3624 51.4793 80.4544 51.7673C80.5464 52.0553 80.5924 52.3833 80.5924 52.7513V56.6333H79.4164V52.7513C79.4164 52.2953 79.3164 51.9513 79.1164 51.7193C78.9204 51.4873 78.6324 51.3713 78.2524 51.3713C78.0844 51.3713 77.9244 51.4013 77.7724 51.4613C77.6204 51.5173 77.4864 51.6033 77.3704 51.7193C77.2584 51.8353 77.1684 51.9793 77.1004 52.1513C77.0364 52.3233 77.0044 52.5233 77.0044 52.7513V56.6333H75.8284V52.7513C75.8284 52.2793 75.7344 51.9313 75.5464 51.7073C75.3584 51.4833 75.0824 51.3713 74.7184 51.3713C74.4664 51.3713 74.2324 51.4373 74.0164 51.5693C73.8004 51.7013 73.6024 51.8813 73.4224 52.1093V56.6333H72.2524ZM86.3044 52.9073C86.3044 52.6753 86.2704 52.4613 86.2024 52.2653C86.1384 52.0693 86.0424 51.8993 85.9144 51.7553C85.7864 51.6113 85.6304 51.4993 85.4464 51.4193C85.2624 51.3393 85.0504 51.2993 84.8104 51.2993C84.3184 51.2993 83.9304 51.4413 83.6464 51.7253C83.3664 52.0093 83.1884 52.4033 83.1124 52.9073H86.3044ZM87.2704 55.7633C87.1264 55.9313 86.9604 56.0773 86.7724 56.2013C86.5844 56.3213 86.3844 56.4193 86.1724 56.4953C85.9604 56.5713 85.7404 56.6273 85.5124 56.6633C85.2884 56.6993 85.0664 56.7173 84.8464 56.7173C84.4264 56.7173 84.0364 56.6473 83.6764 56.5073C83.3204 56.3633 83.0104 56.1553 82.7464 55.8833C82.4864 55.6073 82.2824 55.2673 82.1344 54.8633C81.9904 54.4553 81.9184 53.9873 81.9184 53.4593C81.9184 53.0353 81.9844 52.6413 82.1164 52.2773C82.2484 51.9093 82.4364 51.5893 82.6804 51.3173C82.9284 51.0453 83.2304 50.8313 83.5864 50.6753C83.9424 50.5193 84.3424 50.4413 84.7864 50.4413C85.1584 50.4413 85.5004 50.5033 85.8124 50.6273C86.1284 50.7473 86.4004 50.9233 86.6284 51.1553C86.8564 51.3873 87.0344 51.6733 87.1624 52.0133C87.2944 52.3533 87.3604 52.7413 87.3604 53.1773C87.3604 53.3573 87.3404 53.4793 87.3004 53.5433C87.2604 53.6033 87.1864 53.6333 87.0784 53.6333H83.0824C83.0944 53.9973 83.1464 54.3153 83.2384 54.5873C83.3304 54.8553 83.4564 55.0793 83.6164 55.2593C83.7804 55.4393 83.9744 55.5733 84.1984 55.6613C84.4224 55.7493 84.6724 55.7933 84.9484 55.7933C85.2084 55.7933 85.4324 55.7633 85.6204 55.7033C85.8124 55.6433 85.9764 55.5793 86.1124 55.5113C86.2524 55.4393 86.3684 55.3733 86.4604 55.3133C86.5564 55.2533 86.6404 55.2233 86.7124 55.2233C86.8084 55.2233 86.8824 55.2593 86.9344 55.3313L87.2704 55.7633Z" fill="#F66B5A"/>
<path d="M141.375 41.2168V44.3418" stroke="#7B7B7B" stroke-width="1.5" stroke-miterlimit="10" stroke-linecap="round" stroke-linejoin="round"/>
<path d="M148.653 41.2168V44.3418" stroke="#7B7B7B" stroke-width="1.5" stroke-miterlimit="10" stroke-linecap="round" stroke-linejoin="round"/>
<path d="M137.281 48.6021H152.747" stroke="#7B7B7B" stroke-width="1.5" stroke-miterlimit="10" stroke-linecap="round" stroke-linejoin="round"/>
<path d="M153.201 47.9876V56.8418C153.201 59.9668 151.837 62.0501 148.653 62.0501H141.375C138.191 62.0501 136.826 59.9668 136.826 56.8418V47.9876C136.826 44.8626 138.191 42.7793 141.375 42.7793H148.653C151.837 42.7793 153.201 44.8626 153.201 47.9876Z" stroke="#7B7B7B" stroke-width="1.5" stroke-miterlimit="10" stroke-linecap="round" stroke-linejoin="round"/>
<path d="M148.375 53.4041H148.383" stroke="#7B7B7B" stroke-width="2" stroke-linecap="round" stroke-linejoin="round"/>
<path d="M148.375 56.5291H148.383" stroke="#7B7B7B" stroke-width="2" stroke-linecap="round" stroke-linejoin="round"/>
<path d="M145.01 53.4041H145.018" stroke="#7B7B7B" stroke-width="2" stroke-linecap="round" stroke-linejoin="round"/>
<path d="M145.01 56.5291H145.018" stroke="#7B7B7B" stroke-width="2" stroke-linecap="round" stroke-linejoin="round"/>
<path d="M141.643 53.4041H141.651" stroke="#7B7B7B" stroke-width="2" stroke-linecap="round" stroke-linejoin="round"/>
<path d="M141.643 56.5291H141.651" stroke="#7B7B7B" stroke-width="2" stroke-linecap="round" stroke-linejoin="round"/>
<path d="M193.75 41.2168V58.9251C193.75 60.6543 194.969 62.0501 196.479 62.0501H211.944" stroke="#7B7B7B" stroke-width="1.5" stroke-miterlimit="10" stroke-linecap="round" stroke-linejoin="round"/>
<path d="M196.479 56.8415L200.655 51.2582C201.346 50.3415 202.574 50.279 203.32 51.1436L204.184 52.1331C204.93 52.9873 206.158 52.9352 206.85 52.0186L211.035 46.4248" stroke="#7B7B7B" stroke-width="1.5" stroke-miterlimit="10" stroke-linecap="round" stroke-linejoin="round"/>
<path d="M255.131 56.8418H266.221C267.949 56.8418 268.859 55.8001 268.859 53.821V41.2168H252.484V53.821C252.493 55.8001 253.403 56.8418 255.131 56.8418Z" stroke="#7B7B7B" stroke-width="1.5" stroke-miterlimit="10" stroke-linecap="round" stroke-linejoin="round"/>
<path d="M251.583 41.2168H269.778" stroke="#7B7B7B" stroke-width="1.5" stroke-miterlimit="10" stroke-linecap="round" stroke-linejoin="round"/>
<path d="M257.042 62.0501L260.681 59.9668V56.8418" stroke="#7B7B7B" stroke-width="1.5" stroke-miterlimit="10" stroke-linecap="round" stroke-linejoin="round"/>
<path d="M264.32 62.0501L260.681 59.9668" stroke="#7B7B7B" stroke-width="1.5" stroke-miterlimit="10" stroke-linecap="round" stroke-linejoin="round"/>
<path d="M256.587 50.5918L259.453 47.8522C259.68 47.6335 259.98 47.696 260.135 47.9876L261.227 50.071C261.381 50.3626 261.681 50.4147 261.909 50.2064L264.774 47.4668" stroke="#7B7B7B" stroke-width="1.5" stroke-miterlimit="10" stroke-linecap="round" stroke-linejoin="round"/>
<path d="M323.972 46.5918C323.918 46.5814 323.854 46.5814 323.799 46.5918C322.544 46.5397 321.543 45.3626 321.543 43.9043C321.543 42.4147 322.589 41.2168 323.89 41.2168C325.191 41.2168 326.237 42.4251 326.237 43.9043C326.228 45.3626 325.228 46.5397 323.972 46.5918Z" stroke="#7B7B7B" stroke-width="1.5" stroke-linecap="round" stroke-linejoin="round"/>
<path d="M323.035 54.1753C324.281 54.4149 325.655 54.1649 326.619 53.4253C327.902 52.4461 327.902 50.842 326.619 49.8628C325.646 49.1232 324.254 48.8732 323.008 49.1232" stroke="#7B7B7B" stroke-width="1.5" stroke-linecap="round" stroke-linejoin="round"/>
<path d="M313.028 46.5918C313.083 46.5814 313.146 46.5814 313.201 46.5918C314.456 46.5397 315.457 45.3626 315.457 43.9043C315.457 42.4147 314.411 41.2168 313.11 41.2168C311.809 41.2168 310.763 42.4251 310.763 43.9043C310.772 45.3626 311.773 46.5397 313.028 46.5918Z" stroke="#7B7B7B" stroke-width="1.5" stroke-linecap="round" stroke-linejoin="round"/>
<path d="M313.965 54.1753C312.719 54.4149 311.345 54.1649 310.381 53.4253C309.098 52.4461 309.098 50.842 310.381 49.8628C311.354 49.1232 312.746 48.8732 313.993 49.1232" stroke="#7B7B7B" stroke-width="1.5" stroke-linecap="round" stroke-linejoin="round"/>
<path d="M318.514 54.3731C318.459 54.3626 318.396 54.3626 318.341 54.3731C317.086 54.321 316.085 53.1439 316.085 51.6855C316.085 50.196 317.131 48.998 318.432 48.998C319.733 48.998 320.779 50.2064 320.779 51.6855C320.77 53.1439 319.769 54.3314 318.514 54.3731Z" stroke="#7B7B7B" stroke-width="1.5" stroke-linecap="round" stroke-linejoin="round"/>
<path d="M315.867 57.6543C314.584 58.6335 314.584 60.2376 315.867 61.2168C317.322 62.3314 319.706 62.3314 321.161 61.2168C322.444 60.2376 322.444 58.6335 321.161 57.6543C319.715 56.5501 317.322 56.5501 315.867 57.6543Z" stroke="#7B7B7B" stroke-width="1.5" stroke-linecap="round" stroke-linejoin="round"/>
</g>
<defs>
<filter id="filter0_d_19_39593" x="-13.9028" y="0.633301" width="390" height="90" filterUnits="userSpaceOnUse" color-interpolation-filters="sRGB">
<feFlood flood-opacity="0" result="BackgroundImageFix"/>
<feColorMatrix in="SourceAlpha" type="matrix" values="0 0 0 0 0 0 0 0 0 0 0 0 0 0 0 0 0 0 127 0" result="hardAlpha"/>
<feOffset dy="-6"/>
<feGaussianBlur stdDeviation="7.5"/>
<feComposite in2="hardAlpha" operator="out"/>
<feColorMatrix type="matrix" values="0 0 0 0 0 0 0 0 0 0 0 0 0 0 0 0 0 0 0.06 0"/>
<feBlend mode="normal" in2="BackgroundImageFix" result="effect1_dropShadow_19_39593"/>
<feBlend mode="normal" in="SourceGraphic" in2="effect1_dropShadow_19_39593" result="shape"/>
</filter>
<clipPath id="clip0_19_39593">
<rect width="20" height="20" fill="white" transform="translate(31.0972 41.6333)"/>
</clipPath>
</defs>
</svg>
