<svg width="20" height="20" viewBox="0 0 20 20" fill="none" xmlns="http://www.w3.org/2000/svg">
<path d="M6.66602 1.66675V4.16675" stroke="white" stroke-width="1.5" stroke-miterlimit="10" stroke-linecap="round" stroke-linejoin="round"/>
<path d="M13.334 1.66675V4.16675" stroke="white" stroke-width="1.5" stroke-miterlimit="10" stroke-linecap="round" stroke-linejoin="round"/>
<path d="M2.91602 7.57495H17.0827" stroke="white" stroke-width="1.5" stroke-miterlimit="10" stroke-linecap="round" stroke-linejoin="round"/>
<path d="M17.5 7.08342V14.1667C17.5 16.6667 16.25 18.3334 13.3333 18.3334H6.66667C3.75 18.3334 2.5 16.6667 2.5 14.1667V7.08342C2.5 4.58341 3.75 2.91675 6.66667 2.91675H13.3333C16.25 2.91675 17.5 4.58341 17.5 7.08342Z" fill="#5D5DD6" stroke="white" stroke-width="1.5" stroke-miterlimit="10" stroke-linecap="round" stroke-linejoin="round"/>
<path fill-rule="evenodd" clip-rule="evenodd" d="M13.0781 11.4167H13.0856H13.0781Z" fill="#5D5DD6"/>
<path d="M13.0781 11.4167H13.0856" stroke="white" stroke-width="2" stroke-linecap="round" stroke-linejoin="round"/>
<path fill-rule="evenodd" clip-rule="evenodd" d="M13.0781 13.9167H13.0856H13.0781Z" fill="#5D5DD6"/>
<path d="M13.0781 13.9167H13.0856" stroke="white" stroke-width="2" stroke-linecap="round" stroke-linejoin="round"/>
<path fill-rule="evenodd" clip-rule="evenodd" d="M9.99607 11.4167H10.0036H9.99607Z" fill="#5D5DD6"/>
<path d="M9.99607 11.4167H10.0036" stroke="white" stroke-width="2" stroke-linecap="round" stroke-linejoin="round"/>
<path fill-rule="evenodd" clip-rule="evenodd" d="M9.99607 13.9167H10.0036H9.99607Z" fill="#5D5DD6"/>
<path d="M9.99607 13.9167H10.0036" stroke="white" stroke-width="2" stroke-linecap="round" stroke-linejoin="round"/>
<path fill-rule="evenodd" clip-rule="evenodd" d="M6.91209 11.4167H6.91957H6.91209Z" fill="#5D5DD6"/>
<path d="M6.91209 11.4167H6.91957" stroke="white" stroke-width="2" stroke-linecap="round" stroke-linejoin="round"/>
<path fill-rule="evenodd" clip-rule="evenodd" d="M6.91209 13.9167H6.91957H6.91209Z" fill="#5D5DD6"/>
<path d="M6.91209 13.9167H6.91957" stroke="white" stroke-width="2" stroke-linecap="round" stroke-linejoin="round"/>
<line x1="2.5918" y1="7.20801" x2="16.8068" y2="7.20801" stroke="white"/>
</svg>
