<svg width="225" height="101" viewBox="0 0 225 101" fill="none" xmlns="http://www.w3.org/2000/svg">
<path d="M224.275 83.1376C224.275 90.9474 217.945 97.2752 210.138 97.2752C202.33 97.2752 196 90.9447 196 83.1376C196 75.3305 202.33 69 210.138 69C217.945 69 224.275 75.3305 224.275 83.1376Z" fill="#FFF9FA"/>
<path d="M219.92 83.7684C219.482 89.2612 214.676 93.357 209.183 92.9196C203.69 92.4822 199.595 87.6759 200.032 82.1831C200.469 76.6903 205.278 72.5946 210.768 73.032C216.261 73.4694 220.357 78.2756 219.92 83.7684Z" fill="#262962"/>
<path d="M218.982 83.5796C218.584 88.5448 214.24 92.2509 209.272 91.8532C204.306 91.4582 200.6 87.1107 200.998 82.1427C201.393 77.1775 205.741 73.4714 210.706 73.8691C215.671 74.2641 219.377 78.6117 218.982 83.5796Z" fill="#E0F0F8"/>
<path d="M210.791 73.8468C208.696 73.6798 206.713 74.2577 205.102 75.3578C206.541 74.5943 208.206 74.2153 209.95 74.3558C214.823 74.7481 218.454 79.0215 218.062 83.9045C217.839 86.688 216.355 89.0686 214.218 90.5293C216.8 89.1561 218.648 86.5316 218.9 83.3982C219.292 78.5151 215.66 74.2391 210.791 73.8468Z" fill="white"/>
<path d="M206.411 75.6329C206.451 75.7151 206.527 75.7628 206.583 75.7363C206.639 75.7098 206.652 75.6196 206.612 75.5374L206.358 75.002C206.291 75.0338 206.223 75.0656 206.156 75.0974L206.411 75.6329Z" fill="#7178AA"/>
<path d="M207.124 74.9414C207.134 74.9706 207.164 74.9865 207.195 74.9759C207.224 74.9653 207.238 74.9335 207.23 74.9043L207.153 74.6816C207.118 74.6949 207.084 74.7081 207.047 74.7187L207.124 74.9388V74.9414Z" fill="#7178AA"/>
<path d="M205.536 75.7103C205.552 75.7368 205.586 75.7447 205.613 75.7288C205.637 75.7129 205.645 75.6785 205.631 75.6519L205.509 75.4531C205.478 75.4717 205.446 75.4902 205.414 75.5088L205.536 75.7076V75.7103Z" fill="#7178AA"/>
<path d="M207.97 74.6835C207.978 74.7126 208.007 74.7312 208.036 74.7259C208.068 74.7179 208.086 74.6888 208.078 74.6596L208.023 74.4316C207.986 74.4396 207.951 74.4502 207.914 74.4581L207.97 74.6861V74.6835Z" fill="#7178AA"/>
<path d="M204.814 76.2167C204.832 76.2405 204.867 76.2458 204.893 76.2273C204.917 76.2087 204.922 76.1743 204.904 76.1478L204.763 75.9648C204.734 75.9861 204.702 76.0073 204.676 76.0311L204.816 76.2167H204.814Z" fill="#7178AA"/>
<path d="M209.712 74.443C209.712 74.4721 209.739 74.4986 209.771 74.496C209.8 74.496 209.824 74.4695 209.824 74.4403L209.818 74.207C209.781 74.207 209.744 74.207 209.707 74.2097L209.712 74.443Z" fill="#7178AA"/>
<path d="M208.837 74.5168C208.839 74.5486 208.868 74.5698 208.897 74.5645C208.929 74.5592 208.95 74.5327 208.945 74.5009L208.913 74.2676C208.876 74.2729 208.842 74.2782 208.805 74.2835L208.834 74.5168H208.837Z" fill="#7178AA"/>
<path d="M203.541 77.4391C203.565 77.4576 203.599 77.4576 203.618 77.4338C203.636 77.4126 203.634 77.3754 203.612 77.3542L203.435 77.2031C203.411 77.2323 203.387 77.2588 203.363 77.288L203.541 77.4391Z" fill="#7178AA"/>
<path d="M202.548 78.9028C202.574 78.916 202.606 78.9081 202.622 78.8789C202.635 78.8524 202.627 78.818 202.601 78.8047L202.397 78.6934C202.378 78.7252 202.36 78.7596 202.344 78.7915L202.551 78.9028H202.548Z" fill="#7178AA"/>
<path d="M202.577 82.3022C202.585 82.2094 202.516 82.1299 202.423 82.1219L201.36 82.0371C201.355 82.0928 201.349 82.1484 201.344 82.2041C201.341 82.2598 201.339 82.3155 201.336 82.3711L202.399 82.456C202.492 82.4639 202.569 82.395 202.577 82.3022Z" fill="#7178AA"/>
<path d="M202.172 79.7026C202.201 79.7132 202.233 79.7026 202.246 79.6734C202.257 79.6469 202.246 79.6125 202.217 79.6019L201.999 79.5117C201.986 79.5462 201.97 79.5806 201.957 79.6151L202.172 79.7052V79.7026Z" fill="#7178AA"/>
<path d="M204.146 76.7941C204.167 76.8153 204.202 76.818 204.226 76.7941C204.247 76.7729 204.249 76.7384 204.226 76.7146L204.064 76.5449C204.037 76.5714 204.011 76.5953 203.984 76.6218L204.143 76.7915L204.146 76.7941Z" fill="#7178AA"/>
<path d="M210.572 75.4686C210.662 75.4766 210.745 75.4076 210.75 75.3149L210.835 74.2492C210.779 74.2439 210.726 74.2359 210.668 74.2306C210.612 74.2253 210.556 74.2253 210.503 74.2227L210.419 75.2883C210.411 75.3811 210.48 75.4607 210.57 75.4686H210.572Z" fill="#7178AA"/>
<path d="M201.882 80.5376C201.911 80.5455 201.94 80.5296 201.951 80.5004C201.958 80.4713 201.943 80.4395 201.913 80.4315L201.691 80.3652C201.68 80.3997 201.667 80.4368 201.656 80.4713L201.882 80.5376Z" fill="#7178AA"/>
<path d="M203.262 78.3985C203.337 78.4515 203.427 78.4515 203.461 78.4011C203.496 78.3481 203.461 78.2686 203.387 78.2129L202.905 77.8789C202.862 77.9399 202.82 78.0009 202.777 78.0618L203.262 78.3958V78.3985Z" fill="#7178AA"/>
<path d="M217.232 79.3183C217.15 79.358 217.102 79.4349 217.128 79.4906C217.155 79.5462 217.242 79.5595 217.327 79.5197L217.857 79.2679C217.826 79.199 217.796 79.1327 217.762 79.0664L217.232 79.3183Z" fill="#7178AA"/>
<path d="M217.917 80.0261C217.888 80.0367 217.872 80.0685 217.882 80.0977C217.893 80.1268 217.925 80.1427 217.951 80.1321L218.171 80.0526C218.161 80.0181 218.147 79.9837 218.134 79.9492L217.914 80.0261H217.917Z" fill="#7178AA"/>
<path d="M217.152 78.4344C217.125 78.4503 217.117 78.4848 217.133 78.5113C217.149 78.5352 217.184 78.5458 217.21 78.5299L217.409 78.4079C217.39 78.3761 217.372 78.3443 217.353 78.3125L217.157 78.4344H217.152Z" fill="#7178AA"/>
<path d="M216.632 77.7857C216.651 77.8096 216.685 77.8149 216.709 77.7963L216.895 77.6558C216.871 77.6267 216.85 77.5949 216.828 77.5684L216.643 77.7115C216.619 77.7301 216.614 77.7645 216.632 77.7884V77.7857Z" fill="#7178AA"/>
<path d="M218.168 80.8721C218.139 80.88 218.121 80.9092 218.126 80.9383C218.134 80.9675 218.163 80.9861 218.192 80.9808L218.42 80.9251C218.412 80.888 218.402 80.8535 218.394 80.8164L218.168 80.8721Z" fill="#7178AA"/>
<path d="M211.516 74.6361C211.545 74.6414 211.577 74.6228 211.582 74.591L211.625 74.363C211.587 74.3551 211.553 74.3497 211.516 74.3418L211.473 74.5698C211.468 74.6016 211.489 74.6308 211.519 74.6361H211.516Z" fill="#7178AA"/>
<path d="M218.34 81.742C218.308 81.7473 218.287 81.7739 218.289 81.8057C218.295 81.8348 218.321 81.8587 218.353 81.8534L218.586 81.8216C218.581 81.7845 218.576 81.75 218.57 81.7129L218.34 81.742Z" fill="#7178AA"/>
<path d="M217.387 83.4834C217.379 83.5762 217.448 83.6557 217.538 83.6637L218.601 83.7485C218.607 83.6929 218.615 83.6372 218.617 83.5842C218.623 83.5285 218.623 83.4728 218.628 83.4172L217.565 83.3323C217.475 83.327 217.393 83.3933 217.387 83.4861V83.4834Z" fill="#7178AA"/>
<path d="M213.197 75.1379C213.226 75.1485 213.258 75.1379 213.269 75.1087L213.359 74.894C213.324 74.8781 213.293 74.8648 213.258 74.8516L213.168 75.0689C213.157 75.0981 213.168 75.1299 213.197 75.1405V75.1379Z" fill="#7178AA"/>
<path d="M213.988 75.5173C214.015 75.5306 214.049 75.5226 214.063 75.4961L214.174 75.2893C214.142 75.2708 214.11 75.2549 214.076 75.2363L213.965 75.4431C213.949 75.4696 213.959 75.5041 213.986 75.52L213.988 75.5173Z" fill="#7178AA"/>
<path d="M212.371 74.8431C212.4 74.851 212.432 74.8351 212.44 74.806L212.506 74.5833C212.472 74.5727 212.437 74.5594 212.4 74.5488L212.334 74.7742C212.326 74.8033 212.342 74.8351 212.371 74.8457V74.8431Z" fill="#7178AA"/>
<path d="M215.427 76.5104C215.451 76.5289 215.486 76.5289 215.507 76.5051L215.658 76.3274C215.631 76.3036 215.602 76.2797 215.573 76.2559L215.425 76.4308C215.403 76.4547 215.406 76.4892 215.43 76.5104H215.427Z" fill="#7178AA"/>
<path d="M214.471 76.3643C214.521 76.3988 214.604 76.3643 214.657 76.2901L214.993 75.8023C214.932 75.7599 214.871 75.7175 214.81 75.6777L214.474 76.1655C214.421 76.2397 214.421 76.3299 214.471 76.367V76.3643Z" fill="#7178AA"/>
<path d="M216.065 77.1162C216.086 77.1401 216.121 77.1401 216.145 77.1162L216.314 76.9545C216.29 76.928 216.261 76.9015 216.237 76.875L216.068 77.0341C216.046 77.0553 216.044 77.0897 216.068 77.1136L216.065 77.1162Z" fill="#7178AA"/>
<path d="M218.407 82.6239C218.375 82.6239 218.352 82.6504 218.352 82.6796C218.352 82.7114 218.378 82.7352 218.41 82.7326L218.643 82.7246C218.643 82.6875 218.643 82.6504 218.641 82.6133L218.407 82.6212V82.6239Z" fill="#7178AA"/>
<path d="M212.84 90.8464C212.829 90.8172 212.797 90.8013 212.768 90.8119C212.739 90.8225 212.723 90.8543 212.734 90.8835L212.811 91.1035C212.845 91.0929 212.882 91.0796 212.914 91.0664L212.837 90.8464H212.84Z" fill="#7178AA"/>
<path d="M213.55 90.1713C213.51 90.0891 213.433 90.0414 213.38 90.0679C213.325 90.0971 213.311 90.1845 213.351 90.2667L213.598 90.7863C213.664 90.7545 213.733 90.7227 213.799 90.6909L213.55 90.1686V90.1713Z" fill="#7178AA"/>
<path d="M215.149 89.5725C215.131 89.5487 215.096 89.5434 215.073 89.5619C215.049 89.5805 215.043 89.615 215.062 89.6388L215.202 89.8217C215.232 89.8005 215.261 89.7793 215.29 89.7555L215.149 89.5699V89.5725Z" fill="#7178AA"/>
<path d="M214.428 90.0755C214.409 90.049 214.375 90.0411 214.351 90.057C214.324 90.0729 214.316 90.1074 214.332 90.1339L214.454 90.3327C214.483 90.3141 214.518 90.2956 214.547 90.277L214.428 90.0782V90.0755Z" fill="#7178AA"/>
<path d="M211.993 91.1019C211.985 91.0727 211.955 91.0542 211.926 91.0595C211.894 91.0674 211.879 91.0966 211.884 91.1258L211.939 91.3564C211.974 91.3485 212.011 91.3378 212.046 91.3299L211.993 91.1019Z" fill="#7178AA"/>
<path d="M210.248 91.3428C210.248 91.311 210.222 91.2871 210.19 91.2871C210.161 91.2871 210.134 91.3136 210.137 91.3454L210.142 91.5787C210.179 91.5787 210.216 91.5761 210.254 91.5734L210.248 91.3401V91.3428Z" fill="#7178AA"/>
<path d="M211.127 91.2692C211.122 91.24 211.095 91.2161 211.064 91.2214C211.034 91.2241 211.013 91.2533 211.016 91.2824L211.048 91.5157C211.085 91.5104 211.122 91.5051 211.159 91.4998L211.13 91.2665L211.127 91.2692Z" fill="#7178AA"/>
<path d="M209.456 91.563L209.541 90.4973C209.547 90.4045 209.48 90.325 209.387 90.317C209.295 90.3091 209.215 90.378 209.21 90.4681L209.125 91.5338C209.181 91.5391 209.234 91.5471 209.289 91.5497C209.345 91.555 209.401 91.555 209.456 91.5603V91.563Z" fill="#7178AA"/>
<path d="M218.079 85.2481C218.05 85.2402 218.018 85.2561 218.01 85.2853C218.002 85.3144 218.018 85.3462 218.047 85.3542L218.27 85.4204C218.28 85.386 218.293 85.3489 218.301 85.3144L218.076 85.2481H218.079Z" fill="#7178AA"/>
<path d="M218.282 84.3876C218.253 84.3823 218.224 84.4009 218.216 84.4327C218.21 84.4618 218.232 84.491 218.261 84.4963L218.489 84.5387C218.494 84.5016 218.502 84.4671 218.51 84.43L218.279 84.3876H218.282Z" fill="#7178AA"/>
<path d="M215.818 88.9919C215.797 88.9707 215.762 88.968 215.741 88.9893C215.717 89.0105 215.717 89.0449 215.738 89.0688L215.9 89.2384C215.926 89.2146 215.953 89.1854 215.979 89.1616L215.818 88.9946V88.9919Z" fill="#7178AA"/>
<path d="M201.68 81.3992C201.709 81.4071 201.738 81.3859 201.743 81.3541C201.749 81.3249 201.728 81.2958 201.698 81.2905L201.47 81.248C201.465 81.2852 201.457 81.3196 201.449 81.3567L201.68 81.3992Z" fill="#7178AA"/>
<path d="M216.422 88.3475C216.399 88.3263 216.364 88.3316 216.346 88.3528C216.324 88.374 216.33 88.4111 216.351 88.4297L216.528 88.5834C216.552 88.5543 216.576 88.5278 216.6 88.4986L216.422 88.3475Z" fill="#7178AA"/>
<path d="M217.414 86.8844C217.387 86.8685 217.353 86.8791 217.34 86.9056C217.324 86.9321 217.334 86.9666 217.361 86.9799L217.565 87.0912C217.583 87.0594 217.602 87.0276 217.618 86.9931L217.411 86.8818L217.414 86.8844Z" fill="#7178AA"/>
<path d="M216.701 87.4053C216.624 87.3523 216.536 87.3523 216.502 87.4027C216.467 87.4531 216.502 87.5352 216.576 87.5882L217.053 87.917C217.096 87.856 217.138 87.795 217.178 87.7341L216.701 87.4053Z" fill="#7178AA"/>
<path d="M217.793 86.0833C217.764 86.07 217.732 86.0833 217.719 86.1124C217.708 86.1416 217.719 86.1734 217.748 86.184L217.963 86.2741C217.976 86.2397 217.992 86.2079 218.008 86.1708L217.79 86.0806L217.793 86.0833Z" fill="#7178AA"/>
<path d="M202.047 85.7597C202.077 85.7491 202.093 85.7173 202.082 85.6882C202.074 85.659 202.039 85.6431 202.013 85.6537L201.793 85.7332C201.804 85.7677 201.817 85.8021 201.83 85.8393L202.05 85.7597H202.047Z" fill="#7178AA"/>
<path d="M203.317 88.0772C203.341 88.0586 203.346 88.0241 203.328 88.0003C203.306 87.9764 203.275 87.9711 203.248 87.9897L203.062 88.1302C203.084 88.1593 203.105 88.1911 203.129 88.2203L203.314 88.0772H203.317Z" fill="#7178AA"/>
<path d="M202.812 87.3536C202.838 87.3377 202.846 87.3032 202.83 87.2767C202.814 87.2502 202.78 87.2423 202.754 87.2582L202.555 87.3801C202.573 87.4119 202.592 87.4437 202.61 87.4755L202.809 87.3536H202.812Z" fill="#7178AA"/>
<path d="M202.727 86.4842C202.812 86.4444 202.857 86.3676 202.83 86.3119C202.804 86.2562 202.716 86.243 202.632 86.2827L202.109 86.5319C202.141 86.6008 202.17 86.6671 202.205 86.7334L202.727 86.4842Z" fill="#7178AA"/>
<path d="M201.551 83.1616C201.58 83.1616 201.604 83.1351 201.604 83.1059C201.604 83.0768 201.578 83.0503 201.546 83.0529L201.313 83.0582C201.313 83.0953 201.312 83.1324 201.315 83.1696L201.548 83.1643L201.551 83.1616Z" fill="#7178AA"/>
<path d="M201.625 84.045C201.655 84.0423 201.676 84.0132 201.673 83.984C201.671 83.9549 201.641 83.931 201.612 83.9363L201.379 83.9655C201.382 84.0026 201.39 84.0397 201.395 84.0768L201.628 84.045H201.625Z" fill="#7178AA"/>
<path d="M201.79 84.9145C201.819 84.9066 201.837 84.8774 201.829 84.8483C201.821 84.8191 201.792 84.8005 201.763 84.8085L201.535 84.8642C201.543 84.8986 201.554 84.9357 201.562 84.9702L201.79 84.9172V84.9145Z" fill="#7178AA"/>
<path d="M205.486 89.6387C205.539 89.5618 205.541 89.4744 205.488 89.4372C205.438 89.4028 205.353 89.4372 205.303 89.5115L204.977 89.9887C205.038 90.0311 205.096 90.0735 205.159 90.1132L205.486 89.6387Z" fill="#7178AA"/>
<path d="M205.996 90.3454C206.012 90.3189 206.001 90.2844 205.975 90.2711C205.948 90.2552 205.914 90.2658 205.9 90.2924L205.789 90.4965C205.824 90.515 205.855 90.5336 205.887 90.5495L205.998 90.3427L205.996 90.3454Z" fill="#7178AA"/>
<path d="M206.796 90.7221C206.807 90.6929 206.796 90.6611 206.767 90.6505C206.738 90.6399 206.706 90.6505 206.696 90.6797L206.605 90.8944C206.64 90.9076 206.674 90.9236 206.709 90.9395L206.799 90.7221H206.796Z" fill="#7178AA"/>
<path d="M207.629 91.0124C207.637 90.9832 207.621 90.9514 207.592 90.9434C207.563 90.9355 207.531 90.9514 207.523 90.9806L207.457 91.2059C207.494 91.2165 207.526 91.2297 207.563 91.2404L207.629 91.0124Z" fill="#7178AA"/>
<path d="M208.487 91.2155C208.492 91.1864 208.474 91.1572 208.442 91.1493C208.413 91.144 208.384 91.1652 208.378 91.1943L208.336 91.4223C208.373 91.4303 208.408 91.4382 208.445 91.4435L208.487 91.2129V91.2155Z" fill="#7178AA"/>
<path d="M203.898 88.7468C203.919 88.7256 203.921 88.6912 203.898 88.6673C203.876 88.6461 203.842 88.6434 203.818 88.6673L203.648 88.829C203.672 88.8555 203.701 88.882 203.725 88.9085L203.895 88.7468H203.898Z" fill="#7178AA"/>
<path d="M204.537 89.3515C204.555 89.3276 204.553 89.2958 204.531 89.2719C204.508 89.2534 204.473 89.256 204.452 89.2799L204.301 89.4575C204.327 89.4814 204.356 89.5052 204.386 89.5291L204.537 89.3515Z" fill="#7178AA"/>
<path d="M217.042 82.896L217.037 82.949C217.021 83.1664 216.92 83.3096 216.748 83.3599C216.92 83.4395 216.987 83.6065 216.968 83.8159L216.955 83.9776C216.928 84.2984 216.764 84.4972 216.438 84.4707C216.117 84.4442 215.985 84.2241 216.011 83.9034L216.022 83.7602L216.242 83.7788L216.228 83.9378C216.213 84.1261 216.281 84.2454 216.449 84.2586C216.621 84.2719 216.703 84.1685 216.719 83.9564L216.732 83.7947C216.748 83.5879 216.671 83.4819 216.494 83.4607L216.369 83.4501L216.385 83.2406L216.523 83.2512C216.679 83.2592 216.783 83.1664 216.798 82.9861L216.806 82.8907C216.825 82.6733 216.756 82.5567 216.586 82.5434C216.417 82.5302 216.332 82.6415 216.316 82.8297L216.308 82.9384L216.088 82.9199L216.096 82.8244C216.122 82.5037 216.287 82.3102 216.608 82.334C216.931 82.3605 217.064 82.5779 217.04 82.8987L217.042 82.896Z" fill="#7178AA"/>
<path d="M210.167 88.3867V88.4264L209.947 88.4079V88.3549C209.966 88.1667 209.897 88.0474 209.727 88.0341C209.55 88.0209 209.462 88.1269 209.444 88.3522L209.406 88.8241C209.475 88.6836 209.597 88.612 209.764 88.6253C210.035 88.6465 210.138 88.8506 210.114 89.1528L210.088 89.4709C210.064 89.7917 209.886 89.9879 209.568 89.964C209.245 89.9402 209.102 89.7148 209.128 89.3941L209.213 88.3257C209.239 87.9917 209.406 87.7982 209.738 87.8247C210.061 87.8485 210.194 88.0659 210.17 88.3867H210.167ZM209.383 89.1157L209.359 89.4312C209.345 89.6194 209.412 89.7387 209.584 89.7519C209.751 89.7652 209.841 89.6592 209.857 89.4683L209.881 89.1528C209.897 88.9646 209.825 88.8427 209.658 88.8294C209.489 88.8161 209.401 88.9248 209.385 89.113L209.383 89.1157Z" fill="#7178AA"/>
<path d="M204.606 81.9448L204.521 83.0158C204.495 83.3498 204.328 83.546 203.991 83.5195C203.673 83.4957 203.535 83.2756 203.562 82.9549V82.9177L203.784 82.9336L203.779 82.9867C203.763 83.1749 203.837 83.2942 204.004 83.3074C204.185 83.3233 204.272 83.2147 204.288 82.992L204.325 82.5228C204.256 82.6633 204.137 82.7322 203.97 82.7189C203.7 82.6977 203.596 82.4962 203.62 82.194L203.647 81.8733C203.673 81.5525 203.845 81.359 204.169 81.3828C204.492 81.4093 204.635 81.6294 204.609 81.9475L204.606 81.9448ZM203.877 81.8733L203.853 82.1887C203.84 82.3769 203.909 82.4989 204.076 82.5095C204.248 82.5228 204.333 82.4167 204.349 82.2285L204.373 81.913C204.389 81.7222 204.32 81.6029 204.148 81.5896C203.981 81.5764 203.891 81.6797 203.875 81.8733H203.877Z" fill="#7178AA"/>
<path d="M209.895 76.3725C209.812 76.4149 209.709 76.4415 209.598 76.4388L209.614 76.2453C209.842 76.2559 209.929 76.1392 209.995 75.9961L210.157 76.0093L209.99 78.1063L209.759 78.0877L209.897 76.3699L209.895 76.3725Z" fill="#7178AA"/>
<path d="M211.412 76.6236C211.362 77.2572 210.633 77.4269 210.593 77.9094C210.593 77.9412 211.28 77.9968 211.28 77.9968L211.264 78.2089L210.344 78.1373L210.36 77.9571C210.413 77.2784 211.134 77.2042 211.181 76.6157C211.197 76.401 211.136 76.2817 210.961 76.2657C210.789 76.2525 210.707 76.3691 210.691 76.5547L210.675 76.7403L210.455 76.7244L210.468 76.5547C210.495 76.2339 210.659 76.0325 210.983 76.059C211.309 76.0855 211.439 76.3055 211.415 76.6263L211.412 76.6236Z" fill="#7178AA"/>
<path d="M216.157 78.4009C216.643 77.9343 216.582 77.8574 216.022 78.2312L214.448 79.2783C213.886 79.6521 212.971 80.2618 212.412 80.633L210.837 81.6801C210.278 82.0539 209.88 82.4356 209.954 82.5284L210.164 82.7909C210.238 82.8836 210.36 83.0374 210.434 83.1302L210.643 83.3926C210.718 83.4854 211.176 83.1806 211.661 82.714L213.027 81.4044C213.512 80.9378 214.307 80.177 214.792 79.7104L216.157 78.4009Z" fill="#7571AA"/>
<path d="M216.48 78.0105C216.488 78.0529 216.382 78.1828 216.154 78.4002L214.789 79.7097C214.304 80.1763 213.508 80.9371 213.023 81.4037L211.658 82.7133C211.173 83.1798 210.714 83.4847 210.64 83.3919L210.301 82.9651L216.478 78.0078L216.48 78.0105Z" fill="#262962"/>
<path d="M206.238 79.9957C205.843 79.7491 205.79 79.8181 206.116 80.1468L207.044 81.072C207.372 81.4007 207.91 81.9415 208.242 82.2728L209.167 83.198C209.496 83.5268 209.819 83.7282 209.885 83.6461L210.071 83.4128C210.137 83.3306 210.246 83.1927 210.31 83.1106L210.495 82.8773C210.561 82.7924 210.291 82.5247 209.896 82.2782L208.785 81.5836C208.39 81.3371 207.743 80.9341 207.348 80.6876L206.238 79.9957Z" fill="#7571AA"/>
<path d="M205.91 79.8488C205.942 79.8329 206.051 79.878 206.236 79.992L207.347 80.6839C207.742 80.9304 208.389 81.3333 208.784 81.5799L209.895 82.2744C210.29 82.521 210.56 82.7887 210.494 82.8736L210.194 83.2526L205.91 79.8461V79.8488Z" fill="#262962"/>
<path d="M210.994 83.147C210.959 83.5791 210.583 83.8999 210.151 83.8654C209.721 83.831 209.398 83.4519 209.432 83.0224C209.467 82.5903 209.846 82.2669 210.275 82.3013C210.705 82.3358 211.025 82.7122 210.994 83.1444V83.147Z" fill="#7571AA"/>
<path d="M210.044 83.0961C210.052 82.9901 210.145 82.9106 210.251 82.9185C210.357 82.9265 210.436 83.0193 210.428 83.1279C210.42 83.234 210.328 83.3135 210.222 83.3056C210.113 83.2976 210.033 83.2048 210.044 83.0961Z" fill="#BABABA"/>
<path d="M185.969 35.4847C185.969 43.484 179.484 49.9693 171.485 49.9693C163.485 49.9693 157 43.484 157 35.4847C157 27.4853 163.485 21 171.485 21C179.484 21 185.969 27.4853 185.969 35.4847Z" fill="#FFF9FA"/>
<path d="M171.076 44.0414C171.076 44.0414 158.174 32.0072 163.999 28.2461C169.824 24.4849 171.142 31.8817 171.142 31.8817C171.142 31.8817 174.918 24.0732 179.051 27.7941C183.183 31.5151 171.074 44.0439 171.074 44.0439L171.076 44.0414Z" fill="#FF5B96"/>
<path d="M177.421 39.0748C177.326 39.0748 177.24 39.007 177.22 38.9141L175.737 32.0873L174.524 35.05C174.499 35.1153 174.441 35.1605 174.371 35.173C174.303 35.1856 174.233 35.163 174.182 35.1128L173.756 34.6709L173.088 35.1404C173.015 35.1906 172.914 35.1906 172.844 35.1329L172.249 34.6709L171.564 35.2885C171.488 35.3563 171.375 35.3588 171.297 35.2961L170.79 34.8893L170.494 38.889C170.486 38.9919 170.404 39.0723 170.303 39.0773C170.203 39.0873 170.11 39.017 170.087 38.9166L168.603 32.0898L167.391 35.0525C167.366 35.1178 167.308 35.163 167.24 35.1756C167.172 35.1881 167.102 35.1655 167.054 35.1153L166.627 34.6734L165.96 35.1429C165.884 35.1931 165.786 35.1931 165.716 35.1354L165.121 34.6734L164.436 35.2911C164.36 35.3588 164.247 35.3614 164.169 35.2986L163.66 34.8918L163.363 38.8915C163.356 38.9944 163.276 39.0748 163.173 39.0798C163.072 39.0899 162.977 39.0196 162.957 38.9191L161.473 32.0923L160.26 35.055C160.217 35.1605 160.097 35.2107 159.991 35.168C159.886 35.1253 159.836 35.0048 159.878 34.8994L161.34 31.324C161.375 31.2412 161.46 31.1884 161.548 31.1985C161.636 31.206 161.711 31.2713 161.731 31.3592L163.055 37.4478L163.276 34.475C163.281 34.3997 163.328 34.3319 163.399 34.3018C163.469 34.2717 163.549 34.2817 163.609 34.3294L164.285 34.8718L164.968 34.2566C165.043 34.1888 165.154 34.1863 165.231 34.2466L165.844 34.7236L166.532 34.2415C166.615 34.1838 166.728 34.1938 166.798 34.2667L167.127 34.6081L168.47 31.324C168.505 31.2412 168.591 31.1884 168.679 31.1985C168.769 31.206 168.842 31.2713 168.862 31.3592L170.185 37.4478L170.406 34.475C170.411 34.3997 170.459 34.3319 170.529 34.3018C170.599 34.2717 170.68 34.2817 170.74 34.3294L171.415 34.8718L172.098 34.2566C172.174 34.1888 172.284 34.1863 172.362 34.2466L172.972 34.7236L173.66 34.2415C173.743 34.1838 173.856 34.1938 173.926 34.2667L174.255 34.6081L175.598 31.324C175.634 31.2412 175.716 31.1884 175.807 31.1985C175.897 31.206 175.97 31.2713 175.99 31.3592L177.313 37.4478L177.534 34.475C177.539 34.3997 177.587 34.3319 177.657 34.3018C177.728 34.2717 177.808 34.2817 177.868 34.3294L178.546 34.8718L179.229 34.2566C179.304 34.1888 179.415 34.1863 179.493 34.2466L180.103 34.7236L180.791 34.2415C180.884 34.1788 181.012 34.1989 181.077 34.2918C181.145 34.3847 181.12 34.5127 181.027 34.578L180.213 35.1479C180.138 35.1982 180.04 35.1982 179.97 35.1404L179.375 34.6784L178.689 35.2961C178.614 35.3639 178.501 35.3664 178.423 35.3036L177.916 34.8969L177.62 38.8965C177.612 38.9995 177.532 39.0798 177.429 39.0848C177.424 39.0848 177.419 39.0848 177.414 39.0848L177.421 39.0748Z" fill="#6168C0"/>
<path d="M70.9725 33.485C70.9725 41.4868 64.4868 47.97 56.485 47.97C48.4832 47.97 42 41.4843 42 33.485C42 25.4857 48.4857 19 56.485 19C64.4843 19 70.9725 25.4857 70.9725 33.485Z" fill="#FFF9FA"/>
<path d="M58.4508 28.9531H52.9023V32.5343H58.4508V28.9531Z" fill="white"/>
<path d="M58.2474 40.564H52.9095C51.5262 40.564 50.2556 39.7771 49.5915 38.509L46.2509 32.1186C45.7923 31.2415 45.9752 30.1689 46.6945 29.5073C48.8697 27.5125 52.1076 26.3672 55.5784 26.3672C59.0493 26.3672 62.2847 27.5125 64.4599 29.5073C65.1791 30.1664 65.3621 31.2415 64.9035 32.1186L61.5629 38.5115C60.9013 39.7796 59.6307 40.5665 58.2449 40.5665L58.2474 40.564Z" fill="#5B74BB"/>
<path d="M58.0514 40.0332H53.1145C51.8339 40.0332 50.6585 39.3065 50.0445 38.1336L46.9546 32.2193C46.531 31.4074 46.6989 30.415 47.3656 29.8035C49.3779 27.9565 52.3727 26.8965 55.5854 26.8965C58.7982 26.8965 61.7904 27.9565 63.8028 29.801C64.4694 30.41 64.6373 31.4049 64.2138 32.2168L61.1238 38.1311C60.5123 39.304 59.3345 40.0307 58.0539 40.0307L58.0514 40.0332Z" fill="#7AB6F6"/>
<path d="M57.637 31.2596C57.5543 31.5553 57.2836 31.7583 56.9779 31.7583H54.3415C54.0233 31.7583 53.7451 31.5378 53.6724 31.2296L53.1587 29.0217C53.1111 28.8187 53.1587 28.6032 53.289 28.4403C53.4193 28.2774 53.6173 28.1797 53.8253 28.1797H57.6019C57.8174 28.1797 58.0204 28.2799 58.1482 28.4528C58.2786 28.6233 58.3186 28.8463 58.261 29.0543L57.6345 31.2621L57.637 31.2596Z" fill="#E0F0F8"/>
<path d="M53.8555 28.8926L54.264 31.757H55.6222L53.8555 28.8926Z" fill="#FA7071"/>
<path d="M61.0851 34.7897C60.817 35.1656 60.4912 35.4989 60.1854 35.8447C59.5689 36.5489 59.2457 37.411 58.6217 38.1052C58.2808 38.4861 57.8423 38.8394 57.311 38.8269C56.8148 38.8144 56.2785 38.6089 56.2735 38.0425C56.2685 37.4711 56.7446 37.0326 57.0905 36.6291C57.7044 35.9124 58.5941 35.3209 58.8171 34.3386C59.0001 33.5416 58.6793 31.2611 60.0727 31.5343C61.3733 31.7899 61.9271 33.2234 61.3608 34.3386C61.2806 34.4964 61.1879 34.6468 61.0851 34.7897Z" fill="#5B74BB"/>
<path d="M60.3853 30.1957C60.3051 30.0178 60.0119 29.9301 59.8515 30.0479C59.6084 30.2283 59.5308 30.4413 59.5809 30.7295C59.5809 30.8273 59.5959 30.92 59.6636 31.0202C59.7939 31.2157 60.1147 31.3185 60.2876 31.1054C60.5181 30.8248 60.5282 30.5215 60.3828 30.1957H60.3853Z" fill="#5B74BB"/>
<path d="M60.9014 30.8765C60.7711 30.9392 60.7636 31.0194 60.6934 31.1271C60.5581 31.3351 60.7836 31.5432 60.9891 31.5106C61.1344 31.4855 61.2397 31.4078 61.3024 31.275C61.4327 31.0094 61.167 30.7437 60.9014 30.874V30.8765Z" fill="#5B74BB"/>
<path d="M61.3541 31.4856C61.3541 31.4856 61.3291 31.4881 61.3165 31.4931C60.7051 31.5858 61.4794 32.5557 61.6899 31.8665C61.7676 31.6134 61.5521 31.458 61.3541 31.4881V31.4856Z" fill="#5B74BB"/>
<path d="M62.0093 32.1675C61.6359 31.9545 61.3827 32.6061 61.7912 32.6988C62.1045 32.769 62.3025 32.3329 62.0093 32.1675Z" fill="#5B74BB"/>
<path d="M62.2276 33.1159C62.1951 33.0081 62.1274 32.9404 62.0196 32.9079C61.9419 32.8853 61.8643 32.9054 61.7991 32.9455C61.769 32.9605 61.754 32.9805 61.7314 33.0031C61.7089 33.0282 61.6913 33.0557 61.6788 33.0883C61.6638 33.1585 61.6562 33.1735 61.6562 33.1885C61.6738 33.3489 61.7665 33.4742 61.9319 33.4792C62.1299 33.4843 62.2828 33.2913 62.2301 33.1159H62.2276Z" fill="#5B74BB"/>
<path d="M49.9599 34.7096C50.2331 35.093 50.5664 35.4338 50.8771 35.7872C51.5037 36.5039 51.837 37.3835 52.4735 38.0927C52.8218 38.4812 53.2679 38.8421 53.8117 38.8295C54.318 38.817 54.8643 38.6065 54.8693 38.0301C54.8743 37.4462 54.3881 37.0001 54.0348 36.5891C53.4108 35.8573 52.5036 35.2559 52.273 34.2535C52.0876 33.4415 52.4134 31.1159 50.9924 31.3941C49.6667 31.6547 49.1004 33.1157 49.6793 34.2535C49.762 34.4139 49.8572 34.5667 49.9599 34.7146V34.7096Z" fill="#5B74BB"/>
<path d="M50.672 30.026C50.7522 29.843 51.0529 29.7553 51.2158 29.8756C51.4639 30.0585 51.5441 30.2766 51.4915 30.5723C51.494 30.6725 51.4764 30.7652 51.4063 30.868C51.2735 31.0685 50.9452 31.1712 50.7697 30.9557C50.5342 30.67 50.5241 30.3618 50.672 30.0285V30.026Z" fill="#5B74BB"/>
<path d="M50.1456 30.7204C50.2784 30.7856 50.2859 30.8658 50.3586 30.976C50.4939 31.189 50.2684 31.4021 50.0578 31.367C49.91 31.3444 49.8022 31.2617 49.7371 31.1289C49.6068 30.8582 49.8749 30.5876 50.1456 30.7204Z" fill="#5B74BB"/>
<path d="M49.6843 31.3421C49.6843 31.3421 49.7094 31.3446 49.7219 31.3471C50.3459 31.4424 49.554 32.4323 49.341 31.7281C49.2608 31.4674 49.4838 31.3095 49.6843 31.3421Z" fill="#5B74BB"/>
<path d="M49.0184 32.035C49.3994 31.8194 49.6575 32.4835 49.239 32.5788C48.9207 32.6515 48.7177 32.2079 49.0184 32.035Z" fill="#5B74BB"/>
<path d="M48.7989 33.0022C48.8315 32.892 48.9016 32.8243 49.0119 32.7917C49.0921 32.7667 49.1698 32.7892 49.2375 32.8318C49.2675 32.8468 49.2851 32.8669 49.3051 32.892C49.3277 32.9195 49.3452 32.9446 49.3577 32.9772C49.3728 33.0498 49.3828 33.0649 49.3803 33.0774C49.3628 33.2428 49.2675 33.3681 49.0996 33.3731C48.8966 33.3781 48.7412 33.1827 48.7964 33.0022H48.7989Z" fill="#5B74BB"/>
<path d="M28.9194 94.4433C23.701 101.576 13.6922 103.13 6.55919 97.9142C-0.576487 92.6985 -2.13018 82.6897 3.0856 75.5567C8.30407 68.4237 18.3129 66.87 25.4458 72.0858C32.5788 77.3015 34.1298 87.3103 28.9167 94.446L28.9194 94.4433Z" fill="#FFF9FA"/>
<path d="M13.9778 83.4077C12.968 81.6117 11.4843 80.1926 10.7734 78.1004C11.2285 77.7961 11.934 77.3383 12.3998 77.166C12.1736 79.8345 13.6412 81.9617 14.9875 84.1267L13.9751 83.405L13.9778 83.4077Z" fill="#262962"/>
<path d="M23.6964 88.3972C22.2827 91.9543 18.1871 93.9819 14.4793 93.6642C9.53814 93.2414 4.91745 85.8095 10.2948 82.5514C11.66 81.7247 12.6024 82.7506 13.9623 81.7866C15.104 80.9761 15.7637 79.4844 17.3766 79.2959C21.3187 78.83 24.9862 85.1525 23.6964 88.3972Z" fill="#D2D4FF"/>
<path d="M10.6566 79.5079C8.06085 80.6388 4.61419 82.1925 2.80469 79.0178C3.84946 77.9622 6.11672 77.0036 7.62733 77.3429C9.65494 77.798 10.0912 80.0518 12.3369 80.1703L10.6566 79.5079Z" fill="#979FFF"/>
<path opacity="0.4" d="M18.5096 85.7252C19.3578 87.1362 19.864 89.627 21.0758 86.7808C21.6305 85.4721 21.1296 82.9921 20.3568 81.8504C19.4655 80.5364 17.2279 79.7609 16.2854 81.6996C15.4022 83.5172 17.753 84.4704 18.5096 85.7252Z" fill="white"/>
<path d="M130 16.8535C130 25.6887 122.835 32.8535 114 32.8535C105.165 32.8535 98 25.6913 98 16.8535C98 8.01576 105.165 0.853516 114 0.853516C122.835 0.853516 130 8.01576 130 16.8535Z" fill="#FFF9FA"/>
<path d="M117.139 23.8674H111.161C109.611 23.8674 108.188 22.9861 107.444 21.5658L103.703 14.4084C103.189 13.4261 103.394 12.2247 104.2 11.4837C106.636 9.24951 110.262 7.9668 114.15 7.9668C118.037 7.9668 121.661 9.24951 124.097 11.4837C124.903 12.2219 125.108 13.4261 124.594 14.4084L120.853 21.5686C120.112 22.9889 118.688 23.8702 117.136 23.8702L117.139 23.8674Z" fill="#8888FE"/>
<path d="M116.919 23.2719H111.389C109.955 23.2719 108.639 22.4579 107.951 21.1444L104.49 14.5203C104.016 13.6109 104.204 12.4994 104.951 11.8145C107.204 9.74588 110.559 8.55859 114.157 8.55859C117.755 8.55859 121.107 9.74588 123.36 11.8117C124.107 12.4937 124.295 13.6081 123.821 14.5175L120.36 21.1416C119.675 22.4551 118.356 23.2691 116.922 23.2691L116.919 23.2719Z" fill="#D6D8FF"/>
<path d="M111.324 15.3803C111.286 15.3396 111.235 15.3091 111.187 15.2658C110.465 14.5997 109.972 15.4998 109.738 15.6421C109.532 15.7693 108.711 17.2922 108.479 16.832C108.001 15.8888 107.93 15.9294 107.717 16.0769C107.503 16.2244 107.289 18.9321 108.998 17.8592C110.707 16.7863 110.775 18.3041 110.775 18.3041C111.136 19.3186 111.566 19.9364 112.491 20.3331C114.531 21.2077 117.111 19.822 118.476 17.2109C118.571 17.0329 118.657 16.8473 118.738 16.6566C118.738 16.6566 119.01 16.6185 119.15 16.621C120.134 16.6312 121.065 16.0744 121.469 15.1336C121.838 14.2743 121.65 13.3081 121.095 12.5784C120.897 12.3165 120.645 12.2072 120.376 12.0318C119.346 11.3606 118.212 11.8208 117.894 12.0801C117.744 12.2021 117.615 12.3369 117.515 12.4996C117.363 12.7462 117.297 13.0666 117.073 13.2674C116.88 13.4429 116.506 13.4225 116.592 13.781C116.633 13.9539 116.674 14.02 116.654 14.2056C116.626 14.4675 116.681 14.6556 116.837 14.8768C116.89 14.9531 117.04 15.0446 117.032 15.1489C117.027 15.2608 116.821 15.3498 116.74 15.3853C116.201 15.632 114.805 15.3981 115.113 14.5336C115.207 14.2717 115.474 14.0556 115.675 13.8726C115.792 13.7658 115.952 13.5853 116.089 13.5191C116.221 13.4581 116.315 13.4963 116.448 13.3768C116.58 13.2573 116.17 13.3666 116.193 13.1861C116.216 13.0056 116.773 12.8683 116.651 12.6801C116.529 12.4945 116.224 13.0462 116.127 12.97C116.028 12.8937 116.397 12.553 116.361 12.4157C116.326 12.2809 116.028 12.9471 115.893 12.8378C115.756 12.7284 116.148 12.3521 116.033 12.3165C115.919 12.2784 115.69 12.8378 115.631 12.8301C115.573 12.8225 115.774 12.4208 115.637 12.4182C115.499 12.4132 115.499 13.2979 115.298 13.5446C115.212 13.6488 115.039 13.7225 114.935 13.8242C114.82 13.9387 114.703 14.0582 114.602 14.1853C114.393 14.4421 114.258 14.7497 114.248 15.0828C114.243 15.2481 114.228 15.4108 114.258 15.5684C114.292 15.726 114.401 15.8684 114.411 16.0311C114.266 15.8938 114.172 15.7413 113.992 15.6447C113.717 15.4972 113.394 15.454 113.086 15.4667C112.832 15.4743 112.517 15.5277 112.28 15.6193C112.074 15.7006 111.924 15.8888 111.729 15.9777C111.571 15.7591 111.5 15.5506 111.332 15.3777L111.324 15.3803Z" fill="#8888FE"/>
<path d="M113.121 16.9913C113.009 16.9913 112.902 16.9405 112.828 16.8464C112.8 16.8083 110.133 13.1318 114.229 9.54687C114.379 9.41466 114.608 9.42991 114.743 9.58246C114.875 9.73247 114.86 9.96384 114.707 10.0961C111.11 13.2411 113.314 16.2845 113.411 16.4142C113.53 16.5744 113.497 16.8032 113.337 16.9227C113.271 16.971 113.194 16.9939 113.121 16.9939V16.9913Z" fill="#F062A8"/>
<path opacity="0.3" d="M117.238 19.4491C117.261 19.4516 117.286 19.4567 117.309 19.4593C118.313 19.6144 119.732 19.7567 120.215 20.8144C120.708 21.8924 119.582 22.5993 118.745 22.9933C117.578 23.5451 116.32 23.5425 115.056 23.5425C112.974 23.5425 110.767 23.512 108.751 22.945C108.148 22.7772 107.228 22.5865 107.208 21.8696C107.192 21.267 107.551 20.8831 108.034 20.5551C109.458 19.5889 111.329 19.533 112.982 19.3626C114.405 19.2177 115.822 19.233 117.238 19.4465V19.4491Z" fill="#E6E6FF"/>
<path opacity="0.3" d="M120.979 20.1724C121.841 19.0283 123.544 20.1597 122.693 21.2072C122.37 21.6039 121.515 21.7106 121.096 21.4081C120.437 20.9326 120.928 19.9766 121.615 19.8139L120.976 20.1724H120.979Z" fill="white"/>
</svg>
