<svg width="20" height="21" viewBox="0 0 20 21" fill="none" xmlns="http://www.w3.org/2000/svg">
<path d="M18.0237 6.58537L11.6712 0.81454C10.6904 -0.0812931 9.10452 -0.0812931 8.13285 0.804124L1.78035 6.58537C1.06535 7.23121 0.607017 8.59579 0.76285 9.61662L1.98202 17.9083C2.20202 19.3875 3.44868 20.5854 4.76868 20.5854H15.0354C16.3462 20.5854 17.602 19.377 17.822 17.9083L19.0412 9.61662C19.1879 8.59579 18.7295 7.23121 18.0237 6.58537ZM9.90202 14.0125C8.63702 14.0125 7.61035 12.8458 7.61035 11.4083C7.61035 9.97079 8.63702 8.80412 9.90202 8.80412C11.167 8.80412 12.1937 9.97079 12.1937 11.4083C12.1937 12.8458 11.167 14.0125 9.90202 14.0125Z" fill="#7B7B7B"/>
</svg>
