<svg width="23" height="26" viewBox="0 0 23 26" fill="none" xmlns="http://www.w3.org/2000/svg">
<path d="M16.9722 7.5918C16.9176 7.58138 16.8539 7.58138 16.7993 7.5918C15.5439 7.53972 14.5432 6.36263 14.5432 4.9043C14.5432 3.41472 15.5894 2.2168 16.8903 2.2168C18.1912 2.2168 19.2374 3.42513 19.2374 4.9043C19.2283 6.36263 18.2276 7.53972 16.9722 7.5918Z" stroke="#7B7B7B" stroke-width="1.5" stroke-linecap="round" stroke-linejoin="round"/>
<path d="M16.0351 15.1753C17.2814 15.4149 18.6551 15.1649 19.6194 14.4253C20.9021 13.4461 20.9021 11.842 19.6194 10.8628C18.646 10.1232 17.2541 9.87321 16.0078 10.1232" stroke="#7B7B7B" stroke-width="1.5" stroke-linecap="round" stroke-linejoin="round"/>
<path d="M6.02815 7.5918C6.08273 7.58138 6.14641 7.58138 6.201 7.5918C7.45641 7.53972 8.45711 6.36263 8.45711 4.9043C8.45711 3.41472 7.41093 2.2168 6.11002 2.2168C4.80912 2.2168 3.76294 3.42513 3.76294 4.9043C3.77204 6.36263 4.77273 7.53972 6.02815 7.5918Z" stroke="#7B7B7B" stroke-width="1.5" stroke-linecap="round" stroke-linejoin="round"/>
<path d="M6.96528 15.1753C5.71896 15.4149 4.34528 15.1649 3.38098 14.4253C2.09827 13.4461 2.09827 11.842 3.38098 10.8628C4.35438 10.1232 5.74625 9.87321 6.99257 10.1232" stroke="#7B7B7B" stroke-width="1.5" stroke-linecap="round" stroke-linejoin="round"/>
<path d="M11.5139 15.3731C11.4593 15.3626 11.3957 15.3626 11.3411 15.3731C10.0857 15.321 9.08496 14.1439 9.08496 12.6855C9.08496 11.196 10.1311 9.99805 11.432 9.99805C12.7329 9.99805 13.7791 11.2064 13.7791 12.6855C13.77 14.1439 12.7693 15.3314 11.5139 15.3731Z" stroke="#7B7B7B" stroke-width="1.5" stroke-linecap="round" stroke-linejoin="round"/>
<path d="M8.86657 18.6543C7.58386 19.6335 7.58386 21.2376 8.86657 22.2168C10.3221 23.3314 12.7056 23.3314 14.1612 22.2168C15.4439 21.2376 15.4439 19.6335 14.1612 18.6543C12.7147 17.5501 10.3221 17.5501 8.86657 18.6543Z" stroke="#7B7B7B" stroke-width="1.5" stroke-linecap="round" stroke-linejoin="round"/>
</svg>
