<svg width="171" height="103" viewBox="0 0 171 103" fill="none" xmlns="http://www.w3.org/2000/svg">
<path d="M163 98C163 77.5783 154.888 57.9931 140.447 43.5528C126.007 29.1125 106.422 21 86 21C65.5783 21 45.9931 29.1125 31.5528 43.5528C17.1125 57.9931 9 77.5783 9 98L163 98Z" fill="url(#paint0_linear_51_49759)"/>
<path d="M42.0629 69.5566C39.8031 68.7799 37.7111 67.5491 35.9576 65.9385C35.1359 65.1846 34.3344 64.3479 33.7441 63.3941L33.8396 63.4341C34.1376 63.4427 36.1978 63.4684 37.1411 62.1177C37.9079 61.0182 37.6185 59.4676 37.3841 58.2311C37.3031 57.7942 37.2019 57.4344 37.1208 57.1831C36.8662 57.6885 36.4351 58.3939 35.7204 59.0621C35.1533 59.5904 34.8263 59.7046 34.4588 60.0587C33.9843 60.5185 33.4953 61.3266 33.4403 62.8573C32.9426 61.8549 32.7806 60.7555 32.6851 59.6504C32.5896 58.5538 32.5607 57.4372 32.2713 56.3664C32.0514 55.5497 31.6608 54.83 31.0908 54.2275C31.6376 54.2275 33.4085 54.1333 34.2649 52.9082C35.0317 51.8088 34.7424 50.2581 34.508 49.0216C34.427 48.5847 34.3257 48.2249 34.2447 47.9736C33.9901 48.4791 33.5589 49.1844 32.8442 49.8526C32.2771 50.3809 31.9501 50.4952 31.5827 50.8493C31.0966 51.3176 30.5989 52.1514 30.5613 53.7477C29.6122 52.9881 28.4866 52.4027 27.3958 51.8716C26.8576 51.6117 26.3078 51.3833 25.7552 51.1577C26.4496 51.132 27.96 50.9463 28.7297 49.8441C29.4965 48.7446 29.2071 47.194 28.9727 45.9575C28.8917 45.5206 28.7904 45.1608 28.7094 44.9095C28.4548 45.4149 28.0237 46.1203 27.309 46.7885C26.7418 47.3168 26.4149 47.431 26.0474 47.7851C25.5439 48.2706 25.026 49.1473 25.0231 50.8607C24.7395 50.7436 24.456 50.6237 24.1782 50.4952C22.9629 49.9412 21.875 49.1644 21.3802 47.8937L21.5827 47.9793C21.8808 47.9879 23.9409 48.0136 24.8842 46.6629C25.651 45.5634 25.3616 44.0128 25.1273 42.7763C25.0463 42.3394 24.945 41.9796 24.864 41.7283C24.6093 42.2338 24.1782 42.9391 23.4635 43.6073C22.8964 44.1356 22.5694 44.2498 22.2019 44.6039C21.739 45.0523 21.2644 45.829 21.1892 47.2883C20.9635 46.3602 20.9953 45.3807 21.0879 44.4269L21.4004 44.2641C21.603 44.0328 22.9832 42.4165 22.5029 40.7774C22.1122 39.4438 20.6597 38.6528 19.4965 38.0217C19.0856 37.7989 18.7268 37.6419 18.4693 37.5391C18.7124 38.0731 19.0017 38.8812 19.0741 39.8893C19.1319 40.686 19.0075 41.0201 19.0567 41.5484C19.1204 42.2709 19.4965 43.2618 20.897 44.3955C20.8073 45.335 20.7783 46.2888 20.9751 47.214C21.1776 48.1564 21.6464 48.9731 22.3553 49.607C21.7187 49.33 20.5237 48.9531 19.4994 49.4785C18.3883 50.0497 17.9427 51.4404 17.5897 52.5541C17.4653 52.9453 17.39 53.2823 17.3438 53.525C17.7749 53.2223 18.4375 52.8282 19.3171 52.5912C20.0116 52.4027 20.3298 52.4484 20.787 52.3171C21.4294 52.1314 22.2627 51.6146 23.0353 50.1296L23.0092 50.0982C23.8628 50.6436 24.835 50.9892 25.7725 51.369C26.4699 51.6517 27.1556 51.9687 27.824 52.3142L27.769 52.2971C27.4913 52.3171 25.5931 52.477 24.8495 53.8077C24.2448 54.89 24.6556 56.2921 24.9855 57.4115C25.1012 57.8056 25.2285 58.1283 25.324 58.3539C25.5121 57.8656 25.8449 57.1774 26.4409 56.4977C26.9126 55.9609 27.2048 55.8267 27.5115 55.464C27.934 54.9643 28.3333 54.099 28.1654 52.4884C28.5821 52.7111 28.993 52.9453 29.3981 53.1937C29.8118 53.4479 30.2054 53.7163 30.5613 54.0219C30.5613 54.039 30.5613 54.0533 30.5613 54.0704L30.6625 54.1133C31.192 54.5873 31.629 55.147 31.901 55.8524C32.1729 56.5548 32.2887 57.3002 32.3639 58.0484L32.0688 57.9313C31.791 57.9313 29.8842 57.9455 29.0393 59.2135C28.3506 60.2443 28.6516 61.675 28.8917 62.8173C28.9756 63.2199 29.0769 63.5512 29.155 63.7825C29.3807 63.3113 29.7656 62.6488 30.4166 62.0177C30.9316 61.518 31.2297 61.4066 31.5653 61.0696C31.9559 60.6784 32.3466 60.0216 32.4363 58.8508C32.4449 58.965 32.4536 59.0821 32.4623 59.1963C32.5462 60.2929 32.6388 61.4095 33.0439 62.4432C33.1567 62.7288 33.2898 63.0029 33.4403 63.2685C33.4403 63.2742 33.4403 63.2771 33.4403 63.2828H33.449C33.9351 64.1309 34.5948 64.8819 35.2835 65.5701C37.1642 67.4492 39.4761 68.8827 42.0022 69.7508C42.1179 69.7908 42.1816 69.6109 42.0629 69.5709V69.5566Z" fill="#B15463"/>
<path d="M56.2376 54.7983C55.9572 54.1348 56.4589 53.3507 57.1407 53.0836C57.8224 52.8165 58.6045 52.9515 59.301 53.187C60.4284 53.569 61.3698 54.1492 62.326 54.7954C61.7594 53.8706 61.2282 52.9257 60.7294 51.9664C60.3989 51.3316 60.0831 50.6911 59.782 50.0449C58.2444 50.6481 56.5209 50.7917 54.9036 50.4499C54.2897 50.3206 53.6198 50.0621 53.3837 49.4963C53.1063 48.8357 53.608 48.0488 54.2868 47.7817C54.9685 47.5146 55.7447 47.6467 56.4382 47.8793C57.601 48.2699 58.5691 48.8788 59.5577 49.5538C58.6517 47.5462 57.8873 45.4782 57.3148 43.3586C55.7211 43.6975 54.0241 43.5711 52.5012 42.9909C51.9169 42.7698 51.2971 42.4108 51.1555 41.8162C50.9902 41.1212 51.6129 40.4233 52.3271 40.2653C53.0413 40.1073 53.788 40.3572 54.4343 40.6932C55.482 41.2389 56.3143 41.957 57.1495 42.7411C56.5829 40.4979 56.2051 38.1227 56.5238 35.8278C56.5297 35.779 56.5386 35.7331 56.5474 35.6842C54.9036 35.8106 53.2184 35.4487 51.7841 34.656C51.2381 34.3544 50.6774 33.915 50.6242 33.3061C50.5623 32.5938 51.2824 31.9907 52.0113 31.9332C52.7433 31.8758 53.4427 32.2262 54.0359 32.6513C55.0777 33.398 55.8362 34.3056 56.6094 35.2908C57.0521 32.6484 57.9995 30.0778 58.3507 27.424C56.6773 27.5676 54.9626 27.2086 53.5017 26.4044C52.9557 26.1028 52.395 25.6634 52.3419 25.0545C52.2799 24.3422 53 23.739 53.729 23.6816C54.4579 23.6242 55.1603 23.9746 55.7536 24.3996C56.8219 25.1665 57.5922 26.1057 58.389 27.1195C58.4658 26.4561 58.5012 25.7869 58.4776 25.109C58.4333 23.739 58.0851 22.3891 57.5184 21.1225C55.9129 21.7171 54.1156 21.8147 52.454 21.3925C51.8461 21.2374 51.1879 20.9531 50.9754 20.3786C50.7275 19.7066 51.2617 18.9426 51.9523 18.7042C52.6429 18.4658 53.4132 18.6295 54.0979 18.8909C55.3492 19.3705 56.3527 20.0972 57.4063 20.8899C56.4442 18.8622 54.9183 17.0556 53.1476 15.7172C51.6336 16.0791 50.0163 16.0245 48.5347 15.5477C47.9386 15.3553 47.3011 15.0307 47.127 14.4448C46.9233 13.7584 47.5077 13.0289 48.213 12.8335C48.9184 12.6382 49.6769 12.8479 50.3409 13.1524C51.4004 13.6349 52.2592 14.2955 53.124 15.0221C53.1653 15.0279 53.2096 15.0451 53.2509 15.0767C54.7826 16.1825 56.0752 17.5927 57.0816 19.1695C57.303 19.517 57.5125 19.8731 57.7102 20.2379C57.5686 18.7702 57.8401 17.2624 58.5012 15.9326C58.7757 15.3811 59.1888 14.8096 59.8116 14.7177C60.5376 14.6114 61.2046 15.2691 61.3108 15.9757C61.417 16.6822 61.1042 17.3859 60.7087 17.9862C59.9709 19.1063 59.0236 19.9335 58.0024 20.8008C58.3772 21.5821 58.6783 22.3978 58.8553 23.245C59.1239 24.526 59.1269 25.8012 58.9882 27.0707C59.543 25.649 60.514 24.3795 61.7623 23.4633C62.2641 23.0957 62.9015 22.7711 63.4977 22.9636C64.1942 23.1905 64.4775 24.0722 64.2414 24.75C64.0053 25.425 63.3974 25.9132 62.7628 26.2723C61.5469 26.9616 60.2838 27.2746 58.9262 27.6021C58.634 29.6901 57.9906 31.758 57.5214 33.7915C57.3738 34.432 57.2469 35.0725 57.1554 35.713C57.6748 34.139 58.7019 32.7288 60.0565 31.7322C60.5582 31.3646 61.1957 31.0371 61.7889 31.2324C62.4854 31.4593 62.7687 32.3411 62.5356 33.016C62.2995 33.691 61.6915 34.1792 61.057 34.5411C59.8145 35.2477 58.5218 35.5607 57.1288 35.8968C57.0403 36.5832 56.9931 37.2754 57.0167 37.9762C57.061 39.26 57.2557 40.5353 57.5273 41.7904C57.601 42.1236 57.6778 42.4567 57.7634 42.787C58.0939 41.3222 58.8465 39.9494 59.9178 38.8723C60.3546 38.4329 60.933 38.0164 61.5528 38.1198C62.2759 38.2404 62.6979 39.0705 62.571 39.7713C62.4441 40.475 61.9188 41.0465 61.3492 41.4974C60.2956 42.3275 59.1446 42.8244 57.905 43.3299C58.4658 45.4007 59.2243 47.4226 60.1155 49.3786C60.0654 47.8161 60.4844 46.2393 61.3197 44.9009C61.6472 44.3782 62.1165 43.8468 62.7422 43.8152C63.4741 43.7779 64.0732 44.4931 64.1116 45.2082C64.1499 45.9205 63.7663 46.5926 63.3147 47.1555C62.4559 48.2211 61.4111 48.9621 60.2867 49.7462C60.4077 50.0047 60.5287 50.2632 60.6527 50.5188C61.3344 51.9262 62.084 53.3077 62.9104 54.6432C62.8838 53.121 63.3059 51.5901 64.1175 50.289C64.4451 49.7663 64.9143 49.235 65.54 49.2034C66.2719 49.166 66.871 49.8812 66.9094 50.5964C66.9477 51.3086 66.5641 51.9807 66.1125 52.5437C65.2773 53.5805 64.268 54.31 63.176 55.0711C64.1352 56.5848 65.1976 58.0352 66.3722 59.3908C66.6172 59.6723 66.1509 60.0227 65.9059 59.7412C64.7195 58.3712 63.6512 56.9036 62.6831 55.3756C61.1396 55.9787 59.4043 56.1223 57.7722 55.7748C57.1554 55.6427 56.4825 55.3842 56.2435 54.8155L56.2376 54.7983Z" fill="#B15463"/>
<path d="M65.2385 54.5153C63.3247 51.0423 60.9056 48.0543 58.325 45.4965C58.2759 45.4503 58.2413 45.4098 58.1922 45.3637C57.3464 44.5264 56.4775 43.7383 55.6 43.0021C55.1237 44.7863 53.9777 45.84 52.4362 46.4607C53.8016 44.7545 53.8968 42.8924 52.8288 40.886C52.7826 40.8023 52.7133 40.7214 52.6354 40.6666C50.3058 38.9575 48.0311 37.566 46.0249 36.4661C45.9614 36.4401 45.9095 36.4083 45.8546 36.3795C42.3646 34.4885 39.7233 33.5069 39.146 33.2933C39.0681 33.2644 39.0248 33.25 39.0248 33.25C39.0248 33.25 39.0132 33.2933 38.9959 33.3741C38.8025 34.2518 37.6421 39.8525 37.9278 47.0958C37.9336 47.1536 37.9336 47.2142 37.9394 47.2719C38.0289 49.2755 38.2223 51.4003 38.5802 53.5799C39.2037 55.6758 40.8347 56.3803 41.9865 56.5188C40.9964 56.9317 40.038 57.0125 39.1229 56.3832C39.9196 59.8417 41.1407 63.3956 43.0026 66.7733C43.0545 66.8657 43.1094 66.9667 43.17 67.0562L43.2768 67.2496C44.2785 69.002 45.4101 70.636 46.6282 72.1488C46.6686 72.1979 46.7033 72.2412 46.7379 72.2816C55.2478 82.7988 67.7557 87.516 69.0951 87.9982C69.173 88.027 69.2163 88.0415 69.2163 88.0415C69.2163 88.0415 69.2279 87.9982 69.2452 87.9173C69.4126 87.1494 70.2844 82.9518 70.3479 77.2183C70.3479 77.1577 70.3479 77.1086 70.3479 77.048C70.3652 75.2407 70.3017 73.2834 70.0997 71.2336C70.091 71.1297 70.0823 71.0258 70.0737 70.9218C69.8023 68.1994 69.3116 65.3327 68.4774 62.4371C67.519 62.9308 66.7136 63.3118 66.7136 63.3118L67.6027 59.7551C66.959 57.997 66.1796 56.2301 65.2356 54.5182L65.2385 54.5153ZM39.5097 38.8103C39.5617 38.5533 39.8186 38.3859 40.0669 38.4436C40.3238 38.4956 40.4854 38.7439 40.4335 39.0008C40.3815 39.2577 40.1332 39.4194 39.8763 39.3675C39.6281 39.3097 39.4578 39.0672 39.5097 38.8103ZM39.7147 40.4096C40.0755 40.2104 40.5201 40.3404 40.7192 40.7012C40.9184 41.0621 40.7943 41.5153 40.4335 41.7145C40.0726 41.9137 39.6137 41.7809 39.4145 41.4201C39.2153 41.0592 39.3539 40.6088 39.7147 40.4096ZM43.8426 57.1193C44.0937 56.9808 44.3997 57.0789 44.5383 57.3272C44.6711 57.5668 44.5874 57.8786 44.3391 58.0172C44.088 58.1557 43.782 58.0576 43.6492 57.818C43.5106 57.5668 43.5944 57.2579 43.8426 57.1193ZM43.2335 59.5184C43.6694 59.2788 44.215 59.4375 44.4488 59.8619C44.6884 60.2979 44.5296 60.8435 44.0966 61.0831C43.6694 61.317 43.1238 61.1611 42.8842 60.7251C42.6504 60.2979 42.8063 59.7522 43.2335 59.5184ZM55.8944 44.4543C56.0156 44.3879 56.1571 44.4283 56.2235 44.5495C56.2899 44.6708 56.2524 44.8238 56.134 44.8902C56.0128 44.9566 55.8655 44.9046 55.7991 44.7863C55.7328 44.665 55.7732 44.5236 55.8944 44.4572V44.4543ZM50.9698 41.9542C51.2469 41.8012 51.5933 41.9022 51.7463 42.1793C51.8993 42.4565 51.7982 42.8029 51.5211 42.9559C51.244 43.1089 50.8976 43.0079 50.7446 42.7308C50.5916 42.4536 50.6898 42.1072 50.9698 41.9542ZM51.3393 44.1165C51.449 44.0559 51.6019 44.0905 51.6683 44.2118C51.7347 44.333 51.6885 44.4889 51.5789 44.5524C51.4576 44.6188 51.3017 44.5726 51.2353 44.4514C51.1689 44.3301 51.2209 44.1829 51.3393 44.1165Z" fill="#9B5863"/>
<path d="M56.0542 51.9719L59.8675 50.8344L59.9079 50.9932L55.982 52.1682L53.4822 59.3047L57.7458 67.0447L60.6642 59.0045L60.8143 59.0565L57.8554 67.241L65.2482 80.6566L70.0805 70.919C70.0891 71.0229 70.0978 71.1268 70.1064 71.2308L67.0437 77.4088L70.3547 77.0451C70.3547 77.1057 70.3547 77.1548 70.3547 77.2154L66.9542 77.5936L65.3492 80.8327L69.2982 87.9982L69.1509 88.079L63.4123 77.6629L58.401 76.4301L58.4414 76.2627L63.3055 77.4695L59.3363 70.2665L52.7114 69.0165C51.3258 69.7671 48.4421 71.3462 46.7476 72.2787C46.7129 72.2383 46.6783 72.195 46.6379 72.1459C48.4334 71.1557 51.5135 69.4726 52.443 68.9703L43.2865 67.2467L43.1797 67.0533L59.2295 70.0731L51.3114 55.7047L46.2395 55.5921L46.2482 55.4305L51.219 55.5402L47.8618 49.4487L37.949 47.2719C37.9433 47.2142 37.9433 47.1536 37.9375 47.0958L42.8679 48.1813C41.8345 46.5906 40.3565 44.3272 40.2439 44.2089L40.2988 44.154L40.293 44.1454L40.2382 44.0905L40.3074 44.0645C40.3594 44.0732 40.4114 44.079 43.0988 48.2333L47.7521 49.2524L39.0027 33.3741C39.0171 33.2933 39.0315 33.25 39.0315 33.25C39.0315 33.25 39.0748 33.2615 39.1528 33.2933L46.0201 45.7534L45.8614 36.3766C45.9133 36.4083 45.9682 36.4372 46.0317 36.4632L46.1933 46.0652L53.3811 59.1084L58.199 45.3608C58.248 45.407 58.2827 45.4474 58.3318 45.4936L56.0599 51.9719H56.0542Z" fill="white"/>
<path d="M43.1705 67.4209C39.5824 65.7349 35.873 64.736 32.2791 64.1788C32.2127 64.1702 32.1608 64.1586 32.0944 64.1499C30.9166 63.971 29.7504 63.841 28.6102 63.7602C29.2712 65.4837 28.9624 67.0109 28.079 68.4169C28.183 66.2343 27.1669 64.6696 25.1231 63.6736C25.0365 63.6332 24.9326 63.6072 24.8373 63.6101C21.9478 63.5956 19.292 63.8035 17.0202 64.0922C16.9539 64.1066 16.8932 64.1153 16.8326 64.1211C12.8981 64.6407 10.1818 65.3971 9.58999 65.5617C9.50916 65.5819 9.46875 65.5992 9.46875 65.5992C9.46875 65.5992 9.48318 65.6425 9.51782 65.7176C9.87865 66.5403 12.2255 71.7571 16.7085 77.453C16.746 77.4934 16.7807 77.5454 16.8211 77.5887C18.0681 79.1563 19.4739 80.7644 21.0443 82.3204C22.7791 83.6513 24.514 83.2645 25.5272 82.6986C24.9672 83.6167 24.2398 84.2431 23.1284 84.2691C25.8043 86.6018 28.8758 88.7612 32.3686 90.4039C32.4639 90.4501 32.5707 90.4992 32.6688 90.5338L32.8709 90.6291C34.7097 91.4605 36.586 92.1187 38.4595 92.6268C38.5201 92.6442 38.5749 92.6557 38.6269 92.6701C51.689 96.1864 64.5837 92.6615 65.952 92.2631C66.0328 92.2429 66.0732 92.2256 66.0732 92.2256C66.0732 92.2256 66.0588 92.1822 66.0242 92.1072C65.7095 91.3883 63.9515 87.4765 60.6377 82.7996C60.603 82.7477 60.5742 82.7102 60.5395 82.6611C59.4917 81.1887 58.2908 79.6413 56.9254 78.0997C56.8561 78.0217 56.7897 77.9409 56.7205 77.863C54.9019 75.8161 52.8206 73.7866 50.4449 71.9332C49.957 72.8945 49.5327 73.6769 49.5327 73.6769L48.1644 70.2761C46.6114 69.231 44.9429 68.2581 43.1734 67.4266L43.1705 67.4209ZM13.1233 69.817C13.0136 69.5774 13.1233 69.2916 13.36 69.1906C13.5996 69.0809 13.8767 69.1877 13.9864 69.4273C14.0961 69.6669 13.9864 69.9441 13.7497 70.0538C13.5158 70.1548 13.233 70.0538 13.1233 69.817ZM14.2288 70.992C14.4049 70.6196 14.8408 70.4608 15.2132 70.6369C15.5856 70.813 15.753 71.2518 15.5769 71.6272C15.4008 71.9996 14.9505 72.1612 14.5781 71.988C14.2058 71.8119 14.0528 71.3673 14.2288 70.9949V70.992ZM27.3805 82.0952C27.5017 81.8383 27.8077 81.7344 28.0646 81.8556C28.3129 81.974 28.4283 82.2713 28.3071 82.5312C28.1858 82.7881 27.8799 82.892 27.6316 82.7737C27.3747 82.6524 27.2563 82.3522 27.3776 82.0952H27.3805ZM28.2955 84.3961C28.5063 83.9458 29.0403 83.7552 29.482 83.9602C29.9323 84.171 30.1228 84.705 29.9121 85.1554C29.7042 85.5942 29.1702 85.7877 28.7199 85.5769C28.2811 85.369 28.0877 84.8349 28.2955 84.3961ZM29.7013 64.7677C29.7591 64.6436 29.9005 64.5916 30.0246 64.6523C30.1488 64.71 30.2094 64.8544 30.1517 64.9814C30.0939 65.1055 29.9438 65.1517 29.8197 65.094C29.6956 65.0362 29.6436 64.8948 29.7042 64.7706L29.7013 64.7677ZM24.2456 65.6367C24.3812 65.3509 24.719 65.2268 25.0047 65.3625C25.2905 65.4981 25.4147 65.8359 25.279 66.1217C25.1433 66.4075 24.8056 66.5288 24.5198 66.396C24.234 66.2603 24.1099 65.9225 24.2456 65.6367ZM25.813 67.1697C25.8679 67.0542 26.0122 66.9936 26.1363 67.0542C26.2604 67.112 26.3153 67.2678 26.2633 67.3833C26.2056 67.5075 26.0497 67.5623 25.9256 67.5046C25.8015 67.4468 25.7553 67.2967 25.813 67.1726V67.1697Z" fill="#B57882"/>
<path d="M34.2507 70.7528L36.6726 67.5915L36.7968 67.6984L34.3085 70.9548L36.4734 78.1982L44.4695 81.9599L42.1111 73.7379L42.2612 73.6917L44.6716 82.0552L58.5304 88.5739L56.7262 77.8547C56.7955 77.9326 56.8619 78.0134 56.9312 78.0914L58.0772 84.893L60.5424 82.6528C60.577 82.7047 60.6059 82.7423 60.6406 82.7913L58.109 85.0923L58.7094 88.6576L66.1137 92.1393L66.0415 92.2923L55.28 87.2315L50.4997 89.1773L50.4333 89.0185L55.078 87.1391L47.6362 83.6401L41.5395 86.5184C40.8583 87.9388 39.4496 90.9095 38.6269 92.659C38.5749 92.6445 38.523 92.633 38.4595 92.6156C39.3312 90.7593 40.8352 87.5895 41.2942 86.6368L32.8709 90.6179L32.6688 90.5226L47.4341 83.542L32.5909 76.5584L28.4197 79.4425L28.3302 79.3068L32.4177 76.4747L26.1248 73.5156L16.8211 77.5746C16.7835 77.5342 16.7489 77.4822 16.7085 77.4389L21.3358 75.421C19.5663 74.7396 17.0405 73.7754 16.8788 73.7465L16.8904 73.6715L16.8817 73.6657L16.8066 73.6541L16.8471 73.5906C16.8932 73.5646 16.9394 73.5416 21.5552 75.3257L25.9198 73.4203L9.51782 65.7035C9.48318 65.6284 9.46875 65.5851 9.46875 65.5851C9.46875 65.5851 9.51205 65.5707 9.58999 65.5476L22.4645 71.6044L16.8326 64.107C16.8932 64.1012 16.9539 64.0954 17.0202 64.0781L22.7878 71.7574L36.2656 78.0972L32.0944 64.1387C32.1608 64.1474 32.2127 64.159 32.2791 64.1676L34.2421 70.7441L34.2507 70.7528Z" fill="white"/>
<path d="M115.286 70.8013C117.545 70.0287 119.637 68.8011 121.39 67.1929C122.213 66.4404 123.017 65.6048 123.609 64.6519L123.513 64.692C123.216 64.6977 121.159 64.7206 120.223 63.3614C119.46 62.2569 119.755 60.706 119.992 59.4641C120.076 59.0263 120.177 58.6686 120.258 58.4139C120.512 58.9204 120.939 59.63 121.65 60.2996C122.213 60.829 122.54 60.9463 122.907 61.304C123.38 61.7647 123.863 62.5774 123.915 64.1111C124.415 63.1096 124.579 62.0051 124.678 60.9005C124.776 59.8017 124.808 58.6829 125.099 57.6127C125.322 56.7943 125.712 56.0732 126.287 55.4723C125.741 55.4723 123.973 55.3721 123.123 54.1417C122.361 53.0372 122.655 51.4862 122.892 50.2444C122.976 49.8066 123.077 49.4489 123.158 49.1942C123.412 49.7007 123.84 50.4103 124.55 51.0799C125.114 51.6093 125.44 51.7266 125.807 52.0843C126.29 52.5564 126.786 53.392 126.818 54.9916C127.769 54.2333 128.895 53.6495 129.984 53.123C130.522 52.8626 131.07 52.6366 131.622 52.4134C130.932 52.3848 129.421 52.1959 128.655 51.0885C127.893 49.984 128.187 48.433 128.424 47.1912C128.508 46.7533 128.609 46.3957 128.69 46.141C128.944 46.6475 129.372 47.3571 130.082 48.0267C130.646 48.5561 130.972 48.6734 131.339 49.0311C131.842 49.5204 132.353 50.3989 132.35 52.1158C132.633 51.9985 132.916 51.8783 133.197 51.7524C134.413 51.2001 135.499 50.4246 135.999 49.1541L135.796 49.2371C135.499 49.2428 133.442 49.2657 132.506 47.9065C131.744 46.802 132.038 45.2511 132.275 44.0092C132.359 43.5714 132.46 43.2137 132.541 42.959C132.795 43.4655 133.223 44.1752 133.933 44.8447C134.497 45.3741 134.823 45.4914 135.19 45.8491C135.652 46.2984 136.123 47.0796 136.192 48.5418C136.42 47.6118 136.392 46.6332 136.302 45.6746L135.99 45.5115C135.788 45.2768 134.416 43.6544 134.898 42.0147C135.291 40.6813 136.744 39.8915 137.908 39.262C138.318 39.0388 138.677 38.8843 138.937 38.7812C138.694 39.3163 138.399 40.1261 138.324 41.1334C138.266 41.9317 138.388 42.2665 138.339 42.7959C138.272 43.5199 137.894 44.5099 136.493 45.6431C136.579 46.5874 136.605 47.5403 136.406 48.4674C136.201 49.4117 135.733 50.2301 135.022 50.8596C135.658 50.582 136.854 50.21 137.876 50.7394C138.983 51.3146 139.425 52.711 139.774 53.8269C139.899 54.2218 139.974 54.5595 140.017 54.7998C139.587 54.4937 138.928 54.0988 138.05 53.8584C137.356 53.6667 137.039 53.7125 136.582 53.578C135.941 53.3891 135.112 52.8683 134.343 51.3804L134.369 51.3489C133.514 51.8926 132.544 52.236 131.608 52.6137C130.909 52.897 130.224 53.2117 129.557 53.5551L129.612 53.5379C129.889 53.558 131.784 53.7268 132.523 55.0602C133.124 56.1447 132.708 57.5497 132.379 58.6714C132.263 59.0663 132.136 59.3897 132.038 59.6157C131.85 59.1264 131.521 58.4339 130.929 57.7529C130.458 57.2121 130.169 57.0776 129.863 56.7142C129.441 56.2134 129.045 55.3435 129.219 53.7325C128.803 53.9557 128.39 54.1875 127.985 54.4364C127.572 54.6882 127.176 54.9601 126.821 55.2634C126.821 55.2806 126.821 55.2949 126.821 55.3121L126.72 55.355C126.188 55.83 125.752 56.388 125.478 57.0919C125.206 57.7958 125.085 58.5398 125.01 59.2895L125.304 59.1722C125.582 59.1722 127.485 59.1922 128.326 60.4685C129.011 61.5043 128.707 62.935 128.465 64.0796C128.378 64.4831 128.277 64.815 128.199 65.0468C127.974 64.5718 127.592 63.908 126.945 63.2727C126.434 62.7691 126.134 62.6575 125.801 62.3198C125.414 61.9249 125.024 61.2668 124.94 60.0936C124.932 60.2081 124.923 60.3254 124.914 60.4398C124.828 61.5386 124.73 62.6575 124.322 63.6933C124.21 63.9795 124.074 64.2542 123.924 64.5203C123.924 64.526 123.924 64.5289 123.924 64.5346H123.915C123.43 65.3845 122.765 66.1342 122.078 66.8209C120.194 68.6981 117.883 70.1288 115.358 70.993C115.243 71.0331 115.179 70.8528 115.298 70.8127L115.286 70.8013Z" fill="#B15463"/>
<path d="M102.87 56.3349C103.134 55.7078 102.668 54.9605 102.03 54.7056C101.393 54.4508 100.666 54.5768 100.015 54.7972C98.9608 55.1552 98.0805 55.7021 97.1856 56.3148C97.7156 55.4386 98.2166 54.5453 98.6857 53.6376C98.9956 53.0391 99.2938 52.4292 99.5776 51.8165C101.011 52.392 102.618 52.5352 104.13 52.2145C104.703 52.0942 105.329 51.8508 105.552 51.3154C105.813 50.6883 105.346 49.9438 104.712 49.689C104.078 49.4341 103.351 49.5572 102.705 49.7749C101.616 50.1442 100.716 50.7169 99.789 51.3526C100.64 49.4513 101.359 47.4927 101.9 45.4855C103.389 45.8119 104.973 45.6945 106.392 45.1505C106.939 44.9415 107.515 44.6036 107.651 44.0395C107.808 43.3809 107.229 42.7166 106.563 42.5648C105.896 42.4131 105.199 42.6479 104.593 42.9657C103.615 43.4811 102.836 44.1569 102.054 44.9014C102.589 42.7767 102.948 40.5233 102.656 38.3471C102.65 38.3013 102.641 38.2554 102.636 38.2125C104.171 38.3356 105.743 37.9977 107.084 37.2504C107.593 36.9669 108.118 36.5489 108.17 35.9733C108.231 35.2976 107.562 34.7249 106.878 34.6676C106.195 34.6104 105.54 34.9425 104.987 35.3405C104.014 36.0449 103.305 36.9068 102.578 37.8374C102.169 35.3319 101.295 32.8895 100.976 30.3725C102.537 30.5128 104.139 30.1778 105.506 29.419C106.015 29.1356 106.539 28.7175 106.592 28.142C106.652 27.4662 105.983 26.8935 105.3 26.8363C104.616 26.779 103.962 27.1111 103.409 27.5092C102.41 28.2336 101.686 29.1212 100.942 30.0805C100.872 29.4505 100.84 28.8149 100.863 28.1735C100.91 26.8735 101.237 25.5964 101.77 24.3938C103.267 24.9607 104.944 25.0581 106.496 24.6629C107.064 24.5169 107.677 24.2506 107.877 23.7037C108.112 23.068 107.614 22.3407 106.968 22.1117C106.322 21.8826 105.604 22.0344 104.967 22.2806C103.797 22.733 102.859 23.4174 101.874 24.1676C102.778 22.2491 104.205 20.5397 105.862 19.2741C107.272 19.6205 108.784 19.5718 110.168 19.1252C110.724 18.9448 111.32 18.6384 111.486 18.0829C111.677 17.4329 111.135 16.74 110.478 16.551C109.82 16.362 109.111 16.5596 108.491 16.8459C107.501 17.3012 106.696 17.9225 105.888 18.6097C105.85 18.6155 105.81 18.6327 105.769 18.6613C104.336 19.7064 103.125 21.0379 102.184 22.5297C101.975 22.859 101.779 23.1969 101.596 23.5434C101.735 22.1518 101.483 20.7201 100.872 19.4602C100.617 18.939 100.232 18.395 99.6529 18.3062C98.9753 18.2031 98.3527 18.8245 98.2513 19.4945C98.15 20.1646 98.4395 20.8317 98.8073 21.4044C99.4937 22.4696 100.374 23.257 101.327 24.0817C100.973 24.8233 100.69 25.5935 100.522 26.3953C100.267 27.6094 100.261 28.8177 100.388 30.0232C99.8759 28.6717 98.9724 27.4662 97.8111 26.5929C97.3449 26.2435 96.7512 25.9314 96.1952 26.1147C95.5466 26.3294 95.2772 27.1627 95.4973 27.8069C95.7145 28.4483 96.2821 28.9122 96.8729 29.2558C98.0052 29.9115 99.1838 30.2122 100.452 30.5272C100.722 32.5086 101.315 34.4701 101.747 36.4C101.883 37.007 101.999 37.614 102.083 38.2239C101.602 36.7321 100.649 35.3892 99.3865 34.4414C98.9203 34.0892 98.3266 33.78 97.7706 33.9632C97.1219 34.1751 96.8526 35.0112 97.0698 35.6526C97.287 36.294 97.8546 36.7579 98.4453 37.1015C99.6037 37.7744 100.808 38.0751 102.109 38.3986C102.19 39.0486 102.23 39.7043 102.207 40.3715C102.161 41.5884 101.978 42.7968 101.718 43.9851C101.648 44.3001 101.576 44.615 101.495 44.93C101.191 43.5413 100.493 42.2356 99.4937 41.2133C99.0882 40.7953 98.5496 40.4001 97.9704 40.4946C97.2957 40.6063 96.8989 41.3909 97.0148 42.058C97.1306 42.7252 97.62 43.2692 98.15 43.6987C99.1288 44.489 100.203 44.9615 101.359 45.4454C100.832 47.4068 100.113 49.3224 99.2794 51.1751C99.3315 49.6918 98.9434 48.1971 98.1673 46.9258C97.8633 46.4304 97.4289 45.9236 96.8439 45.8921C96.1605 45.852 95.5987 46.5335 95.5639 47.2093C95.5263 47.885 95.8825 48.5236 96.3024 49.0561C97.1016 50.0698 98.0747 50.7742 99.123 51.5215C99.01 51.7678 98.8971 52.0112 98.7784 52.2546C98.1384 53.586 97.4347 54.8946 96.6615 56.1602C96.6904 54.7171 96.3024 53.2653 95.5465 52.0283C95.2425 51.533 94.8081 51.0262 94.2231 50.9947C93.5397 50.9574 92.9779 51.6361 92.9402 52.3118C92.9026 52.9876 93.2588 53.6261 93.6787 54.1587C94.4548 55.1437 95.396 55.8395 96.4124 56.564C95.5118 57.9956 94.5185 59.3672 93.4181 60.6529C93.1893 60.9192 93.6237 61.2542 93.8524 60.9879C94.9645 59.6908 95.9665 58.302 96.8729 56.856C98.3121 57.4316 99.9309 57.5719 101.454 57.2483C102.03 57.1252 102.659 56.8818 102.885 56.3435L102.87 56.3349Z" fill="#B15463"/>
<path d="M90.4943 58.8979L91.3718 62.4576C91.3718 62.4576 90.5693 62.0736 89.6109 61.577C88.768 64.4698 88.2658 67.3336 87.9886 70.0589C87.98 70.1628 87.9713 70.2668 87.9598 70.3707C87.7548 72.4204 87.6827 74.3749 87.6971 76.185C87.6971 76.2456 87.6971 76.2947 87.6971 76.3554C87.7433 82.0888 88.6035 86.2894 88.7709 87.0573C88.7854 87.1381 88.7998 87.1814 88.7998 87.1814C88.7998 87.1814 88.8431 87.1699 88.921 87.1381C90.2604 86.6618 102.783 81.9791 111.324 71.4879C111.359 71.4475 111.394 71.4042 111.434 71.3552C112.658 69.8453 113.792 68.2141 114.8 66.4647L114.907 66.2712C114.967 66.1846 115.022 66.0836 115.074 65.9912C116.945 62.6163 118.177 59.0683 118.983 55.6126C118.068 56.2391 117.109 56.1553 116.119 55.7396C117.271 55.6039 118.905 54.9024 119.534 52.8094C119.898 50.6297 120.097 48.5049 120.192 46.5014C120.198 46.4436 120.198 46.383 120.204 46.3253C120.51 39.0848 119.364 33.4812 119.176 32.6007C119.162 32.5199 119.147 32.4766 119.147 32.4766C119.147 32.4766 119.104 32.4881 119.026 32.5199C118.449 32.7306 115.804 33.7064 112.309 35.5858C112.257 35.6176 112.202 35.6464 112.138 35.6724C110.129 36.7695 107.849 38.1523 105.514 39.8556C105.436 39.9076 105.366 39.9913 105.32 40.075C104.246 42.0786 104.336 43.9406 105.695 45.6497C104.157 45.0261 103.014 43.9695 102.543 42.1825C101.666 42.9158 100.794 43.701 99.9452 44.5354C99.8961 44.5816 99.8615 44.622 99.8124 44.6682C97.2231 47.2202 94.7954 50.2024 92.8729 53.6668C91.9232 55.3759 91.138 57.1398 90.4914 58.8979H90.4943ZM118.284 38.5969C118.027 38.646 117.779 38.4843 117.727 38.2274C117.678 37.9704 117.84 37.7222 118.096 37.6702C118.345 37.6153 118.602 37.7828 118.654 38.0397C118.703 38.2967 118.532 38.542 118.284 38.5969ZM118.74 40.6524C118.541 41.0133 118.079 41.1432 117.721 40.944C117.36 40.7448 117.239 40.2887 117.438 39.9278C117.638 39.5669 118.085 39.4399 118.446 39.6391C118.807 39.8383 118.942 40.2887 118.743 40.6495L118.74 40.6524ZM114.459 57.0387C114.327 57.2784 114.018 57.3736 113.769 57.2351C113.521 57.0965 113.437 56.7847 113.573 56.5451C113.712 56.2968 114.018 56.1986 114.269 56.3372C114.517 56.4758 114.601 56.7876 114.462 57.0359L114.459 57.0387ZM115.216 59.9488C114.973 60.3818 114.428 60.5406 114.003 60.3039C113.57 60.0643 113.411 59.5158 113.654 59.0827C113.891 58.6583 114.436 58.5024 114.869 58.7421C115.294 58.9788 115.449 59.5244 115.216 59.9488ZM102.347 43.9695C102.28 44.0908 102.13 44.1398 102.012 44.0735C101.891 44.0071 101.856 43.854 101.923 43.7328C101.989 43.6115 102.133 43.5711 102.252 43.6375C102.373 43.7039 102.413 43.8483 102.347 43.9666V43.9695ZM107.407 41.9313C107.254 42.2085 106.908 42.3066 106.631 42.1536C106.354 42.0006 106.255 41.6542 106.408 41.377C106.561 41.0999 106.908 41.0017 107.185 41.1547C107.462 41.3077 107.56 41.6542 107.407 41.9313ZM106.914 43.652C106.847 43.7732 106.688 43.8165 106.57 43.7501C106.46 43.6895 106.414 43.5307 106.481 43.4095C106.547 43.2882 106.7 43.2536 106.81 43.3142C106.931 43.3806 106.98 43.5307 106.914 43.6491V43.652Z" fill="#9B5863"/>
<path d="M102.076 51.1531L98.2654 50.0041L98.225 50.1629L102.148 51.3494L104.628 58.4917L100.341 66.2201L97.4456 58.1713L97.2955 58.2204L100.231 66.4135L92.801 79.8061L87.9976 70.0569C87.9889 70.1608 87.9802 70.2647 87.9687 70.3687L91.0141 76.5554L87.7031 76.1801C87.7031 76.2407 87.7031 76.2898 87.7031 76.3504L91.1036 76.7373L92.6999 79.9793L88.7308 87.1332L88.878 87.214L94.6484 76.8152L99.6625 75.5969L99.6221 75.4295L94.7552 76.6218L98.7446 69.4304L105.372 68.2006C106.755 68.9569 109.633 70.5419 111.325 71.4801C111.359 71.4397 111.394 71.3964 111.434 71.3473C109.642 70.3513 106.567 68.6596 105.638 68.1544L114.8 66.4568L114.907 66.2634L98.8485 69.2341L106.807 54.8888L111.879 54.7907L111.873 54.629L106.902 54.7214L110.277 48.6386L120.195 46.4907C120.201 46.4329 120.201 46.3723 120.207 46.3146L115.274 47.3856C116.313 45.7978 117.794 43.5373 117.909 43.419L117.854 43.3641L117.86 43.3554L117.915 43.3006L117.846 43.2746C117.794 43.2804 117.742 43.289 115.04 47.4376L110.384 48.4451L119.179 32.5929C119.165 32.5121 119.15 32.4688 119.15 32.4688C119.15 32.4688 119.107 32.4803 119.029 32.5121L112.127 44.9519L112.312 35.578C112.26 35.6098 112.205 35.6386 112.142 35.6646L111.951 45.2666L104.726 58.2896L99.9483 44.5276C99.8993 44.5737 99.8646 44.6142 99.8156 44.6604L102.067 51.1444L102.076 51.1531Z" fill="white"/>
<path d="M108.246 71.0735L106.869 74.4714C106.869 74.4714 106.445 73.6891 105.96 72.7248C103.578 74.5725 101.491 76.5962 99.6666 78.6373C99.5973 78.7153 99.531 78.7932 99.4617 78.874C98.0905 80.4128 96.8868 81.9544 95.836 83.4239C95.8014 83.4758 95.7725 83.5134 95.7379 83.5625C92.4096 88.2307 90.64 92.1367 90.3225 92.8555C90.2879 92.9306 90.2734 92.9739 90.2734 92.9739C90.2734 92.9739 90.3167 92.9883 90.3947 93.0114C91.7601 93.4127 104.643 96.9752 117.717 93.4965C117.769 93.482 117.821 93.4705 117.884 93.4531C119.761 92.9508 121.637 92.2955 123.479 91.4698L123.681 91.3745C123.782 91.3399 123.886 91.2908 123.981 91.2446C127.477 89.6135 130.557 87.4627 133.238 85.1387C132.127 85.1099 131.403 84.4805 130.845 83.5596C131.856 84.1254 133.591 84.518 135.328 83.1929C136.902 81.6426 138.313 80.0375 139.566 78.4728C139.604 78.4323 139.638 78.3804 139.679 78.3371C144.176 72.6555 146.54 67.4475 146.904 66.6247C146.939 66.5496 146.953 66.5092 146.953 66.5092C146.953 66.5092 146.91 66.4948 146.832 66.4717C146.24 66.3043 143.527 65.5421 139.595 65.008C139.534 65.0022 139.474 64.9965 139.407 64.9791C137.135 64.6876 134.48 64.4681 131.59 64.4768C131.495 64.4768 131.391 64.4999 131.304 64.5403C129.258 65.5305 128.239 67.0924 128.334 69.2749C127.454 67.8661 127.151 66.3389 127.817 64.6183C126.674 64.6962 125.508 64.8204 124.33 64.9965C124.264 65.0051 124.212 65.0167 124.145 65.0253C120.552 65.571 116.836 66.5583 113.245 68.2356C111.473 69.0613 109.802 70.0284 108.246 71.0706V71.0735ZM142.661 70.9551C142.424 70.8454 142.317 70.5683 142.427 70.3287C142.536 70.0919 142.814 69.9851 143.053 70.0948C143.287 70.1959 143.397 70.4817 143.287 70.7213C143.177 70.958 142.894 71.0562 142.661 70.9551ZM141.823 72.8865C141.451 73.0597 141.001 72.898 140.825 72.5227C140.651 72.1503 140.819 71.7086 141.191 71.5354C141.564 71.3622 141.999 71.5181 142.176 71.8934C142.349 72.2658 142.196 72.7133 141.823 72.8865ZM128.738 83.6375C128.49 83.753 128.184 83.6519 128.063 83.3921C127.941 83.1323 128.06 82.8349 128.308 82.7166C128.568 82.5953 128.871 82.6993 128.992 82.9562C129.113 83.216 128.995 83.5134 128.738 83.6346V83.6375ZM127.641 86.435C127.191 86.6457 126.657 86.4523 126.452 86.0106C126.241 85.5602 126.435 85.0261 126.885 84.8154C127.327 84.6104 127.861 84.8038 128.068 85.2542C128.273 85.6959 128.08 86.23 127.638 86.435H127.641ZM126.605 65.9434C126.481 66.0011 126.331 65.9549 126.273 65.8308C126.215 65.7067 126.273 65.5623 126.4 65.5046C126.524 65.4468 126.666 65.4988 126.723 65.6229C126.781 65.7471 126.729 65.8885 126.605 65.9463V65.9434ZM131.899 67.2627C131.613 67.3955 131.276 67.2743 131.14 66.9856C131.007 66.6969 131.128 66.362 131.417 66.2263C131.706 66.0935 132.041 66.2148 132.176 66.5035C132.309 66.7921 132.188 67.127 131.899 67.2627ZM130.487 68.3655C130.363 68.4233 130.207 68.3655 130.15 68.2443C130.095 68.1288 130.15 67.9758 130.277 67.9181C130.401 67.8603 130.545 67.9181 130.6 68.0364C130.658 68.1606 130.612 68.3107 130.487 68.3684V68.3655Z" fill="#B57882"/>
<path d="M122.161 71.5963L119.75 68.4294L119.623 68.5362L122.103 71.7984L119.918 79.036L111.91 82.7746L114.292 74.5584L114.142 74.5122L111.708 82.8699L97.8292 89.3482L99.6651 78.6347C99.5958 78.7127 99.5294 78.7906 99.4601 78.8715L98.2939 85.6702L95.8345 83.4242C95.7999 83.4762 95.771 83.5137 95.7363 83.5628L98.2593 85.8723L97.6473 89.4348L90.2344 92.8963L90.3065 93.0493L101.082 88.0202L105.857 89.9776L105.923 89.8188L101.285 87.9249L108.735 84.4462L114.823 87.3447C115.498 88.7679 116.898 91.7415 117.715 93.4939C117.767 93.4794 117.819 93.4679 117.883 93.4506C117.017 91.5914 115.522 88.4157 115.065 87.463L123.477 91.4672L123.679 91.372L108.934 84.348L123.798 77.4107L127.96 80.3092L128.05 80.1735L123.971 77.3298L130.272 74.388L139.562 78.4731C139.599 78.4326 139.634 78.3807 139.674 78.3374L135.053 76.3078C136.825 75.6323 139.354 74.6738 139.513 74.645L139.501 74.5699L139.51 74.5641L139.585 74.5526L139.544 74.4891C139.498 74.4631 139.452 74.44 134.83 76.2097L130.472 74.2899L146.897 66.6221C146.931 66.5471 146.946 66.5066 146.946 66.5066C146.946 66.5066 146.902 66.4922 146.824 66.4691L133.933 72.4855L139.588 65.0054C139.527 64.9997 139.466 64.9939 139.4 64.9766L133.609 72.6385L120.114 78.9379L124.326 64.991C124.259 64.9997 124.207 65.0112 124.141 65.0199L122.158 71.5906L122.161 71.5963Z" fill="white"/>
<path d="M109.798 62.3974C105.427 55.0213 99.9139 57.6051 99.198 47.7519C98.9123 43.7997 95.532 41.2159 94.0829 37.7313C92.4894 34.0764 92.0911 30.0203 90.3042 26.4347C86.82 19.4454 75.2821 18.6197 73.7723 23.7556C73.7723 23.7556 69.9879 23.3601 68.1867 27.5086C66.319 31.0538 66.5066 34.0389 64.9016 37.6909C63.441 41.1668 60.4158 43.7881 59.7576 47.6971C57.9246 58.5838 51.5451 57.888 49.2271 62.588C47.5759 65.9368 47.9945 71.2228 51.6865 73.6508C54.3827 75.4205 56.3745 75.868 57.8466 78.6394C60.5024 83.885 65.1788 79.0292 69.3356 80.7411C76.4656 83.6772 82.8307 83.1142 89.5104 80.7671C93.7538 79.2746 98.3407 83.9543 101.017 78.7029C102.492 75.9343 104.608 73.645 107.714 72.7876C111.458 71.8522 111.706 65.625 109.795 62.4032L109.798 62.3974Z" fill="#734E56"/>
<path d="M73.8931 23.7852C66.2897 22.9624 67.4039 29.946 66.2377 35.0847C65.9375 36.4041 65.4439 37.7494 64.5461 38.7829C61.9279 41.7132 57.8115 44.1988 59.7802 48.7343C57.4911 44.2422 61.5844 41.4736 64.1997 38.5058C65.0571 37.4925 65.4929 36.2568 65.7816 34.9808C66.9449 29.7468 66.1136 22.5554 73.8902 23.7881L73.8931 23.7852Z" fill="#734E56"/>
<path d="M90.8154 28.0312C91.7738 33.9639 95.6794 38.5715 99.383 43.0521C101.181 45.4887 99.8535 48.5257 100.113 51.2539C100.353 53.5952 101.369 56.104 103.748 56.9556C106.496 58.1884 109.896 59.0891 111.38 61.9962C114.099 66.7135 112.679 74.5083 106.807 75.8825C112.5 74.3639 113.793 66.7626 111.065 62.1666C109.547 59.3662 106.273 58.5868 103.554 57.3656C101.04 56.4677 99.8824 53.8002 99.6514 51.2972C99.3599 48.621 100.745 45.6763 99.0424 43.2801C95.3994 38.7592 91.5371 34.0101 90.8125 28.037L90.8154 28.0312Z" fill="#734E56"/>
<path d="M90.9187 49.9087C90.9187 49.9087 84.952 48.0033 84.1841 45.6909C83.4163 43.3784 86.3924 40.6329 87.7924 39.4781C89.1925 38.3234 90.0007 34.5703 90.0007 34.5703L69.8605 36.4872C69.8605 36.4872 69.5083 37.2234 70.689 38.9874C71.8696 40.7484 75.7031 43.67 75.3712 45.0038C74.4157 48.8463 67.5801 47.5587 67.0547 51.918L80.0042 51.9382L90.9216 49.9116L90.9187 49.9087Z" fill="#633F47"/>
<path d="M68.7572 65.4991C68.89 65.8773 69.0401 66.2612 69.2162 66.651L54.2749 92.6624C52.8893 94.7237 52.4591 94.4927 50.6752 96.2942C49.2925 97.6915 48.7094 100.521 47.7106 100.408C46.8706 100.313 47.8174 98.0004 48.2244 97.0939C47.7452 98.0928 46.3654 100.757 45.5369 100.117C44.8961 99.6171 46.8763 96.2422 46.986 96.0575C46.8706 96.2278 44.9452 99.0051 44.313 98.5229C43.5307 97.9282 45.0462 95.6302 45.8141 95.125C43.6779 93.898 43.7876 91.1612 44.4025 90.5665C45.3233 89.6744 44.6392 92.6162 46.4029 92.9049C46.9196 92.9915 48.3601 92.8443 47.9877 91.6347C47.7366 90.8205 44.6045 90.9995 45.3464 89.8476C45.9555 88.9065 50.0805 89.4954 51.1255 88.1674C56.6159 75.3292 64.0289 49.9904 69.043 49.3783C69.0401 49.3668 69.0459 49.3899 69.043 49.3783C71.1127 56.0183 66.3469 58.6079 68.763 65.502L68.7572 65.4991Z" fill="#FFD1D7"/>
<path d="M68.4978 63.1863C68.5295 59.0031 70.1778 55.2963 69.4157 50.9688C69.3724 55.0769 67.7386 58.7866 68.4978 63.1863Z" fill="#FFC7CE"/>
<path d="M68.5374 64.8281L54.0724 90.1149C53.062 92.1964 53.5066 93.3801 50.6719 96.293C50.6719 96.293 52.8859 94.7225 54.2715 92.6612L69.2129 66.6498C69.0368 66.2601 68.8867 65.8761 68.7539 65.4979C68.676 65.2727 68.6038 65.0504 68.5374 64.8281Z" fill="#FFC7CE"/>
<path d="M62.5765 47.3623C62.6285 47.9656 62.6602 48.5719 62.6602 49.181C62.666 49.7902 62.6342 50.3993 62.5649 51.0114C62.4322 52.2326 62.106 53.4537 61.5546 54.5796C61.009 55.7084 60.2527 56.7247 59.4098 57.634C58.9855 58.0873 58.5381 58.5146 58.0791 58.9274C57.6143 59.3316 57.1409 59.7271 56.656 60.0995C56.4135 60.29 56.1652 60.4661 55.9199 60.6509C55.6716 60.827 55.4234 61.0089 55.1722 61.1821C54.924 61.3524 54.6555 61.5314 54.4361 61.6873C54.2081 61.849 53.9916 62.028 53.7895 62.2185C52.9726 62.972 52.401 63.9594 52.1181 65.0535C51.8295 66.1477 51.815 67.3313 51.9651 68.4976C52.046 69.0808 52.1528 69.6669 52.3173 70.2414C52.4703 70.8187 52.6666 71.3875 52.9033 71.9475C52.1932 70.9573 51.7082 69.8054 51.3965 68.6073C51.0963 67.4064 50.9923 66.1217 51.2406 64.8543C51.3647 64.2221 51.5783 63.6014 51.8901 63.024C52.1961 62.4466 52.6031 61.9212 53.0707 61.465C53.3045 61.237 53.5557 61.0291 53.8184 60.8386C53.9512 60.7433 54.0839 60.6509 54.2052 60.5701L54.5747 60.316C54.8229 60.1486 55.0625 59.9754 55.3079 59.8021C55.5475 59.626 55.79 59.4528 56.0267 59.2709C56.9793 58.5579 57.8914 57.8015 58.7257 56.9729C59.557 56.1444 60.2989 55.2321 60.8763 54.2217C61.4565 53.2112 61.8548 52.0969 62.106 50.9334C62.36 49.77 62.4755 48.5661 62.5736 47.3594L62.5765 47.3623Z" fill="#633F47"/>
<path d="M97.3906 52.4219C97.7688 53.3168 98.2624 54.1512 98.8138 54.9364C99.3651 55.7217 99.9944 56.4521 100.681 57.1132C101.371 57.7743 102.119 58.369 102.921 58.88C103.126 59.0012 103.323 59.134 103.533 59.2466L103.845 59.4256L104.171 59.6162C104.599 59.8846 104.997 60.1964 105.364 60.54C106.094 61.2329 106.677 62.0643 107.133 62.9477C107.358 63.3923 107.543 63.8542 107.702 64.3248C107.861 64.7953 107.988 65.2775 108.071 65.7654C108.247 66.7383 108.294 67.7372 108.181 68.7158C108.063 69.6916 107.797 70.6588 107.312 71.5046C107.679 70.6039 107.861 69.6483 107.898 68.6927C107.944 67.7372 107.837 66.7816 107.63 65.8549C107.413 64.931 107.093 64.0303 106.645 63.1989C106.201 62.3703 105.649 61.5937 104.965 60.9557C104.627 60.6324 104.261 60.3408 103.871 60.0896L103.571 59.9106L103.253 59.7259C103.037 59.6046 102.832 59.466 102.624 59.3332C101.807 58.7789 101.039 58.1467 100.364 57.4278C99.6826 56.7177 99.0851 55.9266 98.5799 55.0894C98.0834 54.2464 97.6504 53.3601 97.3906 52.4219Z" fill="#633F47"/>
<path d="M89.6701 55.3163C89.6586 58.7864 91.3126 60.66 90.5737 67.5858C90.5506 67.6349 90.5275 67.6811 90.5073 67.7273C90.2099 68.322 89.8924 68.9196 89.5749 69.5201C89.5749 69.5201 89.5749 69.523 89.5749 69.5259C88.9745 70.6546 88.3827 71.795 87.9583 72.9325C87.9179 73.0364 87.8804 73.1432 87.8458 73.2471C87.8313 73.2876 87.8169 73.328 87.8054 73.3655C87.6899 73.686 87.5975 74.0266 87.5282 74.3759C87.4792 74.6127 87.4416 74.8552 87.4128 75.1063C87.3868 75.3257 87.3666 75.548 87.3521 75.7761C87.2944 76.7606 87.3608 77.797 87.508 78.8045C87.5398 79.0182 87.5744 79.2318 87.612 79.4425C87.6206 79.4945 87.6293 79.5465 87.6408 79.5984C87.6668 79.737 87.6928 79.8727 87.7216 80.0084C87.7563 80.1729 87.7938 80.3346 87.8313 80.4934C87.8544 80.5858 87.8746 80.6753 87.8977 80.7676C87.9208 80.8571 87.9439 80.9466 87.967 81.0361C87.9901 81.1256 88.0161 81.2122 88.0392 81.2988C88.0623 81.3854 88.0883 81.4721 88.1142 81.5558C88.2095 81.8762 88.3105 82.1823 88.4144 82.471C88.4202 82.4883 88.426 82.5056 88.4318 82.5229C88.4982 82.7019 88.5645 82.878 88.6338 83.0426C88.6569 83.1032 88.6829 83.1609 88.706 83.2216C88.781 83.3977 88.8561 83.5622 88.9312 83.7152C89.2891 84.4514 89.647 84.9306 89.9357 85.0144L67.1484 85.2338C67.5843 85.1702 68.2454 84.2868 68.8631 82.9877C68.9382 82.8318 69.0132 82.6673 69.0883 82.4969C69.1229 82.419 69.1547 82.341 69.1893 82.2631C69.2557 82.1043 69.3192 81.9426 69.3856 81.7752C69.4808 81.5269 69.5732 81.27 69.6627 81.0044C69.6743 80.9726 69.6858 80.9409 69.6945 80.9062C69.7406 80.7676 69.7839 80.6291 69.8272 80.4876C69.8272 80.4818 69.8301 80.4761 69.833 80.4674C69.8619 80.3779 69.8879 80.2855 69.9138 80.1903C69.9369 80.1152 69.9571 80.0373 69.9774 79.9622C70.0004 79.8756 70.0235 79.7919 70.0437 79.7052C70.0639 79.6273 70.0842 79.5494 70.1015 79.4714C70.1072 79.4512 70.1101 79.431 70.1159 79.4079C70.1534 79.2462 70.1881 79.0874 70.2227 78.9258C70.24 78.8392 70.2574 78.7497 70.2747 78.6631C70.292 78.5765 70.3064 78.487 70.3209 78.4003C70.3353 78.3137 70.3497 78.2242 70.3613 78.1376C70.3988 77.8951 70.4277 77.6526 70.4508 77.413C70.4565 77.3495 70.4623 77.286 70.4681 77.2254C70.471 77.1676 70.4767 77.1099 70.4825 77.0521C70.4854 76.9771 70.4912 76.9049 70.4941 76.8327C70.4941 76.7808 70.4998 76.7346 70.4998 76.6855V76.5383C70.5114 76.2611 70.5056 75.984 70.4883 75.7184C70.4767 75.5018 70.4536 75.2882 70.4219 75.0775C70.3873 74.8176 70.3353 74.5636 70.2689 74.3211C70.2689 74.3211 70.2689 74.3153 70.2689 74.3124C70.266 74.2951 70.2602 74.2778 70.2545 74.2605C70.2169 74.1161 70.1765 73.9746 70.1361 73.8303C70.0178 73.4146 69.8936 73.0046 69.7637 72.5976C69.1373 70.6171 68.4012 68.6858 67.7402 66.7169C67.6825 66.5436 67.6247 66.3704 67.5699 66.2001C65.1278 58.746 64.1723 52.6545 69.0594 49.8195C70.0611 49.2392 71.3052 48.7946 72.8351 48.5031C72.8351 48.5031 72.8409 48.5031 72.8438 48.5031C73.0401 48.4655 73.2364 48.4309 73.4298 48.3991H73.45C73.6578 48.3616 73.8628 48.327 74.0677 48.2952C74.0677 48.2952 74.0735 48.2952 74.0764 48.2952H74.1024C74.1774 48.2808 74.3073 48.2606 74.3016 48.2634C78.2765 47.6976 81.8444 47.9748 85.4931 48.5406C85.5942 48.555 85.6952 48.5724 85.7991 48.5897C86.5583 48.7109 87.2511 49.0083 88.0219 49.1497C88.9456 49.3172 89.7596 49.6261 90.718 49.8051C89.7972 52.3687 89.6875 53.8382 89.6846 55.3134L89.6701 55.3163Z" fill="#FFD1D7"/>
<path d="M72.2887 83.1917C72.231 83.1686 70.7703 83.7287 68.8594 82.9925C69.9794 80.6483 70.9695 76.9559 70.2594 74.323C70.2161 74.1613 70.1728 74.0025 70.1266 73.8438L77.4472 75.5355C77.4472 75.5355 72.1935 75.6135 71.365 77.8422C70.5452 80.0449 72.257 83.108 72.2916 83.1946L72.2887 83.1917Z" fill="#FFC7CE"/>
<path d="M88.927 83.7147C86.9034 84.0871 85.4803 83.6396 84.6374 83.8244C85.6968 83.1777 86.7447 81.8035 86.0981 77.9956C85.6882 75.5879 81.2109 75.5562 81.2109 75.5562L83.5289 71.5C83.5289 71.5 85.9075 72.4469 87.8416 73.2495C87.8272 73.2899 87.8127 73.3303 87.8012 73.3679C86.661 76.5522 87.7954 81.4022 88.927 83.7147Z" fill="#FFC7CE"/>
<path d="M88.4245 82.535L69.0781 82.5061C69.3466 81.8883 69.6006 81.2012 69.8171 80.4766C75.7723 81.0164 81.7736 81.0222 87.8212 80.5025C87.9944 81.2358 88.2022 81.9258 88.4216 82.535H88.4245Z" fill="white"/>
<path d="M86.2033 48.9576C86.1976 52.4623 83.3513 55.3002 79.844 55.2944C76.3396 55.2886 73.502 52.4421 73.5078 48.9373C73.5078 48.7728 73.5165 48.6111 73.528 48.4552C73.7185 48.4321 73.9091 48.4033 74.1025 48.3744C77.246 48.0857 80.661 48.1492 82.9183 48.1665C83.715 48.2878 84.8986 48.4783 86.1514 48.6833L86.1947 48.6919C86.1947 48.7786 86.2005 48.8681 86.2005 48.9576H86.2033Z" fill="#EE5E4C"/>
<path d="M120.574 91.5305C120.45 91.8712 120.078 92.2118 119.5 92.5496C114.071 95.7108 90.4982 98.4765 84.1648 99.1723C83.1632 99.282 82.5945 99.3397 82.5945 99.3397C82.5945 99.3397 81.9537 99.2502 80.8308 99.0885C77.0666 98.5487 67.9043 97.1947 59.6138 95.6762C51.0144 94.0999 43.3533 92.3475 43.6159 91.1379C44.2077 88.4184 68.1641 83.5798 68.1641 83.5798C68.4152 83.5423 68.626 83.3316 68.8136 83.0227C68.9926 82.7368 69.1484 82.3673 69.2957 81.9718C75.6579 82.4164 81.9652 82.4077 88.2091 81.9141C88.3823 82.4135 88.5843 82.8812 88.8903 83.2219C89.0404 83.3864 89.2107 83.5192 89.4186 83.6116C89.4186 83.6116 89.4792 83.6174 89.5918 83.6347C91.1332 83.8281 102.573 85.2918 111.118 87.2463C114.296 87.9738 117.076 88.7706 118.79 89.5933C120.115 90.2285 120.811 90.8809 120.571 91.5305H120.574Z" fill="#617BBE"/>
<path d="M119.506 92.5533C119.451 93.4598 119.162 94.2393 118.683 94.912C118.594 95.0361 118.498 95.1574 118.397 95.2728C118.383 95.2873 118.371 95.3046 118.357 95.319C117.038 96.8058 114.694 97.7152 111.859 98.3186C109.024 98.9219 105.699 99.2135 102.42 99.4705C102.411 99.3781 102.402 99.2799 102.394 99.1818C95.639 99.6033 88.4339 99.3319 84.1703 99.176C82.6057 99.1183 81.4395 99.0778 80.8362 99.0952C80.6514 99.1009 80.5215 99.1096 80.4465 99.1269C76.1858 100.051 61.4984 100.689 58.9062 97.7152C58.1239 96.8202 58.531 96.1822 59.6192 95.6828C61.4782 94.8254 65.3262 94.3721 68.6516 93.7283C73.9313 92.7063 72.5428 91.4707 76.0183 90.5123C79.4939 89.5509 80.865 92.1203 83.3302 92.3772C86.0466 92.6573 93.4595 90.3823 100.826 88.8292C100.849 88.8234 100.875 88.8205 100.898 88.8147C100.898 88.8089 100.898 88.8032 100.893 88.7945C100.872 88.7195 100.852 88.6444 100.832 88.5722C100.832 88.5664 100.832 88.5607 100.829 88.5578C100.87 88.5491 100.907 88.5405 100.948 88.5347C104.383 87.8158 108.005 87.276 111.129 87.25C114.307 87.9775 117.087 88.7743 118.802 89.5971C119.038 89.9291 119.217 90.2986 119.333 90.7115C119.336 90.7259 119.341 90.7403 119.344 90.7576C119.367 90.85 119.39 90.9482 119.408 91.0463C119.506 91.5833 119.538 92.0828 119.506 92.5504V92.5533Z" fill="#7A94D9"/>
<path d="M105.455 100.364C100.407 100.76 94.9623 100.725 90.5948 100.612C86.031 100.494 82.6392 100.292 82.1023 100.407C77.8415 101.331 63.1513 101.969 60.562 98.9957C58.4461 96.5735 65.0392 96.0279 70.3074 95.0088C75.5871 93.9868 74.1986 92.7512 77.6741 91.7927C81.1497 90.8342 82.5179 93.4007 84.986 93.6577C86.0339 93.7645 87.7861 93.4931 89.9626 93.0283C93.4208 92.2893 97.9616 91.0623 102.482 90.1096C110.752 88.3688 118.968 87.5373 120.446 92.2517C122.126 97.6099 114.407 99.6625 105.455 100.361V100.364Z" fill="#F0BEBE"/>
<path d="M106.999 100.507C106.679 100.536 106.361 100.565 106.038 100.594C105.388 100.651 104.733 100.701 104.081 100.752C103.812 97.6663 103.163 92.1378 102.484 89.8456C103.18 89.6984 103.887 89.5598 104.592 89.4299C104.906 89.3692 105.218 89.3144 105.53 89.2624C112.914 88.0095 120.269 87.9777 121.066 92.3312C122.169 98.3448 114.92 99.7738 106.993 100.507H106.999Z" fill="#617BBE"/>
<path d="M102.603 89.8125C102.562 89.8212 102.522 89.8298 102.484 89.8385C102.669 90.465 102.854 91.3368 103.027 92.3328C102.894 91.4292 102.753 90.5689 102.606 89.8154L102.603 89.8125Z" fill="#F57060"/>
<path d="M121.067 92.3221C121.029 92.1114 120.971 91.9093 120.902 91.7188C120.966 97.4465 112.317 98.3732 103.914 99.0285C103.978 99.6492 104.032 100.229 104.079 100.743C113.03 100.045 122.302 99.066 121.067 92.3221Z" fill="#617BBE"/>
<path d="M106.998 100.51C106.678 100.539 106.36 100.568 106.037 100.597C106.011 96.6851 105.35 92.0486 104.594 89.4331C104.908 89.3724 105.22 89.3176 105.532 89.2656C106.306 92.0111 106.964 96.584 106.998 100.51Z" fill="white"/>
<path d="M90.5948 100.611C86.031 100.493 82.6392 100.291 82.1023 100.406C77.8415 101.33 63.1513 101.968 60.562 98.9944C58.4461 96.5723 65.0392 96.0267 70.3074 95.0076C75.5871 93.9856 74.1986 92.75 77.6741 91.7915C81.1497 90.833 82.5179 93.3995 84.986 93.6565C86.0339 93.7633 88.1296 93.4168 90.3061 92.952L90.5977 100.608L90.5948 100.611Z" fill="#F0F2F5"/>
<path d="M102.695 100.232C100.095 103.197 85.4072 102.516 81.1494 101.581C80.6991 101.482 78.2368 101.604 74.7554 101.705C70.1252 101.84 63.6909 101.947 57.7963 101.468C48.8477 100.743 41.1345 98.6677 42.829 93.3152C44.3214 88.6066 52.5368 89.4612 60.8013 91.2251C65.8501 92.3048 70.9162 93.7223 74.4812 94.4209C76.1151 94.7414 77.4343 94.9088 78.2858 94.8222C80.7539 94.574 82.1309 92.0103 85.6035 92.9804C89.0762 93.9504 87.6848 95.1802 92.9616 96.2166C98.2269 97.2502 104.817 97.816 102.695 100.229V100.232Z" fill="#FFD1D7"/>
<path d="M99.3628 97.4095C101.707 98.088 103.087 98.905 101.889 100.169C99.1781 103.036 84.5283 101.806 80.308 100.715C79.2688 100.45 67.2632 100.958 56.978 99.7335C50.3387 98.9454 44.4124 97.4355 42.5996 94.5312C42.36 98.9974 49.5535 100.81 57.7978 101.477C68.1234 102.317 80.1002 101.362 81.148 101.59C85.4058 102.525 100.093 103.207 102.694 100.242C103.953 98.8097 102.143 98.0274 99.3628 97.4124V97.4095Z" fill="#FFC7CE"/>
<path d="M60.7982 90.959C60.1141 93.2512 59.4502 98.7768 59.1702 101.863C58.6621 101.823 58.154 101.779 57.6489 101.736C57.3285 101.707 57.0052 101.678 56.6876 101.649C48.5963 100.902 41.0708 99.5101 42.2081 93.3927C43.028 88.9929 50.5448 89.0969 58.0097 90.4162C58.3215 90.4711 58.6361 90.5288 58.945 90.5865C59.5656 90.7049 60.1863 90.829 60.8011 90.9618L60.7982 90.959Z" fill="#617BBE"/>
<path d="M42.6098 92.2812C42.4221 92.6161 42.2865 92.9857 42.2085 93.3985C40.9528 100.14 50.2219 101.144 59.1734 101.869C59.2254 101.289 59.2918 100.622 59.3697 99.9057C50.8945 99.2128 42.2461 98.2139 42.6098 92.2812Z" fill="#617BBE"/>
<path d="M57.6496 101.737C57.3291 101.708 57.0058 101.679 56.6883 101.65C56.6623 97.8826 57.2656 93.3645 58.0104 90.4141C58.3222 90.4689 58.6368 90.5267 58.9457 90.5844C58.2182 93.4367 57.6149 98.0068 57.6496 101.734V101.737Z" fill="white"/>
<path d="M102.695 100.234C102.031 100.99 100.584 101.507 98.7255 101.847C93.287 102.838 84.321 102.28 81.1457 101.585C80.7907 101.507 78.8826 101.576 76.377 101.657C76.0854 101.665 75.7852 101.674 75.4763 101.686C75.0866 101.697 74.6883 101.709 74.2812 101.72C74.8211 99.2577 74.847 96.8298 74.4747 94.4221C74.8124 94.4885 75.1386 94.5462 75.4475 94.6011C75.7794 94.6559 76.0941 94.705 76.3914 94.7425C77.1535 94.8407 77.7943 94.8753 78.2822 94.8263C79.7601 94.679 80.8455 93.7004 82.2225 93.1461C83.1491 92.7736 84.2056 92.5947 85.5998 92.9844C87.6725 93.5618 88.0131 94.2316 89.0696 94.9013C89.7826 95.3546 90.8276 95.8049 92.9579 96.2235C94.6033 96.5469 96.3786 96.824 97.9778 97.1272C101.494 97.7941 104.152 98.5764 102.695 100.236V100.234Z" fill="white"/>
<path d="M76.3797 101.657C76.0882 101.666 75.788 101.675 75.4791 101.686C75.8342 99.3477 75.9467 96.9746 75.4531 94.6016C75.7851 94.6564 76.0997 94.7055 76.3971 94.743C76.9051 96.9053 76.7896 99.2293 76.3797 101.657Z" fill="#FFDBE9"/>
<path d="M89.0737 94.8984C87.8065 95.0168 85.9302 95.1121 84.712 94.7541C83.6295 94.4365 82.775 93.7206 82.2266 93.1461C83.1532 92.7736 84.2097 92.5947 85.604 92.9844C87.6766 93.5618 88.0172 94.2316 89.0737 94.9013V94.8984Z" fill="#FFDBE9"/>
<path d="M102.694 100.234C102.03 100.991 100.584 101.507 98.7251 101.848C97.8331 100.52 97.8504 98.4415 97.9774 97.125C101.493 97.7919 104.152 98.5743 102.694 100.234Z" fill="#FFDBE9"/>
<path d="M86.2033 48.9588C86.1976 52.4636 83.3513 55.3014 79.844 55.2957C76.3396 55.2899 73.502 52.4433 73.5078 48.9386C73.5078 48.774 73.5165 48.6124 73.528 48.4565C73.7185 48.4334 73.9091 48.4045 74.1025 48.3756C74.1429 48.3699 74.1833 48.3641 74.2208 48.3583C75.5314 48.1591 76.7986 47.8906 76.7986 47.8906L82.5921 47.8993L85.4759 48.5344L86.1514 48.6817L86.1947 48.6903C86.1947 48.7769 86.2005 48.8664 86.2005 48.9559L86.2033 48.9588Z" fill="#FFD1D7"/>
<path d="M87.3347 38.1734C87.2221 38.2312 87.1066 38.2687 86.9738 38.3236V38.058L86.9219 35.1999C87.1499 34.5936 87.3029 33.9527 87.4155 33.2714V33.2512C87.8889 33.0058 88.6452 32.7229 89.3265 33.0635C90.2329 33.5197 91.044 36.4904 87.3318 38.1706L87.3347 38.1734Z" fill="#FFD1D7"/>
<path d="M82.7816 48.1428C82.6314 48.3391 82.4698 48.5238 82.3197 48.7028C80.4145 50.842 78.4949 50.9633 76.5781 48.1341L77.3229 43.6535L77.6 41.9733L81.6788 41.9531L82.7816 48.1428Z" fill="#FFD1D7"/>
<path d="M82.7476 47.8982C82.4127 47.6153 82.0576 46.3681 81.1686 45.2307C80.4498 44.3126 78.1693 44.3357 77.2109 44.3704L77.5978 41.9453L81.743 41.9511L82.7504 47.8982H82.7476Z" fill="#FFC7CE"/>
<path d="M87.0235 31.7578C86.9225 32.3641 86.7868 32.9357 86.5847 33.4727L86.5703 32.2457V32.0436C86.5703 32.0436 86.5876 32.0263 86.6223 31.9945C86.6887 31.9599 86.8243 31.8589 87.0264 31.7607L87.0235 31.7578Z" fill="#FFD1D7"/>
<path d="M72.7227 32.0219L72.7054 32.5271L72.6881 33.4365C72.4543 32.914 72.2868 32.377 72.2031 31.8544C72.2031 31.8054 72.2204 31.7534 72.2378 31.7188H72.2551C72.3734 31.7851 72.4745 31.8371 72.5582 31.9035C72.6592 31.9699 72.7256 32.0219 72.7256 32.0219H72.7227Z" fill="#FFC7CE"/>
<path d="M87.8874 34.3048C87.8845 36.4643 87.1801 38.5256 86.0428 40.1711C85.4453 41.0516 84.7149 41.8167 83.9009 42.4172C83.9009 42.4172 83.898 42.4172 83.8951 42.4201C82.6452 43.3468 81.1903 43.8895 79.6777 43.8895C77.3684 43.8866 74.6463 42.1025 72.946 39.5071C71.927 37.9915 71.2862 36.1727 71.2891 34.2817C71.292 31.467 72.438 28.9466 74.2306 27.2607L74.2421 27.2491C75.6883 25.8923 77.556 25.0752 79.5911 25.0781C84.1693 25.0839 87.8931 29.2151 87.8845 34.3077L87.8874 34.3048Z" fill="#FFD1D7"/>
<path d="M87.8883 34.3077C87.8854 36.4672 87.181 38.5284 86.0437 40.174C85.4462 41.0545 84.7158 41.8196 83.9018 42.4201C88.4714 38.5804 85.068 33.2713 82.6143 32.4399C80.6485 31.7759 80.1722 29.4519 79.4852 27.9535C78.5095 25.8259 74.2344 27.2607 74.2344 27.2607L74.2459 27.2491C75.6921 25.8923 77.5598 25.0752 79.5949 25.0781C84.1731 25.0839 87.8969 29.2151 87.8883 34.3077Z" fill="#FFC7CE"/>
<path d="M72.667 34.8939L72.5862 38.3006C72.5487 38.2803 72.5284 38.263 72.4909 38.263V38.2428C72.3004 38.1678 72.1301 38.0898 71.9627 38.0147C68.0859 35.9852 69.4137 33.2224 70.3057 32.7692C70.9697 32.4487 71.6884 32.6941 72.159 32.9626C72.1387 33.0001 72.1214 33.0578 72.1214 33.1127C72.2167 33.6988 72.4043 34.305 72.667 34.8939Z" fill="#FFD1D7"/>
<path d="M90.7889 49.8136C93.3638 50.1052 98.4992 58.538 102.082 63.6594L113.065 47.25L117.973 48.8176C117.973 48.8176 107.786 73.0074 103.349 73.8937C99.1284 74.7367 90.5695 67.5886 90.5695 67.5886C89.4322 62.7269 87.8647 54.1498 90.7918 49.8107L90.7889 49.8136Z" fill="#FFD1D7"/>
<path d="M89.6594 55.319C89.6478 58.7891 91.3019 60.6627 90.5629 67.5885C90.5398 67.6376 90.5167 67.6838 90.4965 67.73C90.2079 68.3305 89.8874 68.9252 89.5641 69.5228C89.5641 69.5228 89.5641 69.5257 89.5641 69.5285C88.9637 70.64 88.3575 71.7602 87.9476 72.9352C87.7282 73.5587 87.5637 74.1967 87.4857 74.855C87.4742 74.9416 87.4684 75.0253 87.4598 75.109L70.3794 75.083C70.3707 75.0195 70.3621 74.956 70.3534 74.8925C70.3476 74.8521 70.3419 74.8146 70.3361 74.7741C70.3101 74.6067 70.2755 74.4364 70.2379 74.2689C70.2062 74.1275 70.1716 73.9831 70.134 73.8417C70.0243 73.4259 69.8887 73.0131 69.7472 72.6032C69.4903 71.8641 69.2045 71.1395 68.9765 70.4264C68.2375 68.8848 67.793 67.4932 67.5534 66.2057C66.9905 63.1686 67.5851 60.7118 68.2144 58.2232C68.2173 58.2088 68.2202 58.2001 68.2202 58.2001C68.2693 58.0125 68.3154 57.822 68.3645 57.6314C68.9563 55.2757 69.4961 52.842 69.0429 49.8251C69.0227 49.6808 68.9996 49.5335 68.9736 49.3863C70.1918 48.9273 71.5052 48.6761 72.8186 48.5086C72.8186 48.5086 72.8244 48.5086 72.8273 48.5086C73.2545 48.4538 73.6789 48.4076 74.1032 48.3672C73.9098 48.3961 73.7193 48.4249 73.5287 48.448C73.4421 50.0763 73.8232 51.41 74.5016 52.4522C77.4575 56.9847 86.0626 55.9166 86.1954 48.985C86.1954 48.8868 86.1983 48.7858 86.1954 48.6819C86.1954 48.6819 86.6197 48.7483 86.8593 48.7858C87.2635 48.8522 89.8557 49.4209 90.7881 49.802C90.3551 50.4775 89.6681 53.8322 89.6623 55.3103L89.6594 55.319Z" fill="#C66A78"/>
<path d="M71.4663 74.9148C71.4548 74.9755 71.4404 75.0361 71.4288 75.0938H70.3781C70.1875 73.4887 69.4514 71.9355 68.9751 70.4372C66.4868 65.2464 67.324 61.7619 68.2188 58.2109C68.2188 58.2109 67.2778 62.6828 68.2073 65.5727C69.1397 68.4625 72.1043 71.5746 71.4663 74.9177V74.9148Z" fill="#DD8694"/>
<path d="M86.8669 48.7969C86.8669 48.7969 86.8669 48.8113 86.8611 48.8402C86.8611 48.8517 86.8611 48.8633 86.8582 48.8719C86.8525 48.9268 86.8063 49.0134 86.8236 49.126C87.0921 50.7311 85.6343 55.2319 82.0346 56.5599C78.4581 57.8792 74.8036 54.3312 74.411 52.8588C74.3908 52.7895 74.333 52.7462 74.3042 52.7029C74.2868 52.6769 74.2695 52.651 74.2551 52.6307C74.2204 52.5788 74.2031 52.5499 74.2031 52.5499L75.6089 52.1342C76.6308 53.5632 78.1376 54.5939 79.8494 54.5968C82.6062 54.5996 84.8318 51.9379 85.3774 49.2415L86.864 48.7998L86.8669 48.7969Z" fill="#DD8694"/>
<path d="M86.8631 48.7989C86.8631 48.7989 86.8631 48.8133 86.8573 48.8422C86.8573 48.8537 86.8573 48.8653 86.8544 48.8739C86.8486 48.9288 86.8371 49.0154 86.8198 49.128C86.5917 50.6552 85.9105 52.1737 84.8799 53.418C83.4943 55.0866 81.7046 56.0018 79.8456 55.9989C77.9866 55.9989 76.2026 55.0722 74.8228 53.4007C74.6756 53.2246 74.5399 53.0427 74.4071 52.8579C74.3638 52.7973 74.3292 52.7453 74.3003 52.702C74.283 52.6789 74.2686 52.6529 74.2512 52.6298C74.2166 52.5779 74.1993 52.549 74.1993 52.549C73.4055 51.3163 72.9234 49.9075 72.8281 48.5159C73.2467 48.4611 73.6191 48.3485 74.0521 48.3081C74.0954 48.3023 74.2974 48.2734 74.2888 48.2734C74.3667 49.5726 74.8084 51.016 75.608 52.1333C76.6299 53.5623 78.1367 54.593 79.8485 54.5959C82.6052 54.5988 84.8309 51.937 85.3764 49.2406C85.4255 49.0067 85.4601 48.77 85.4803 48.5362L86.1558 48.6834C86.3896 48.7209 86.6264 48.7613 86.8631 48.7989Z" fill="white"/>
<path d="M87.5411 74.3883C87.5353 74.4114 87.5324 74.4345 87.5295 74.4576C87.5007 74.6799 87.4776 74.8993 87.4574 75.1159C87.4343 75.3439 87.417 75.5691 87.4025 75.7885C81.6321 75.4796 75.9714 75.4479 70.4376 75.7308C70.4232 75.5171 70.403 75.3035 70.377 75.0899C70.3453 74.8329 70.302 74.5789 70.25 74.3248C75.8876 73.9582 81.6581 73.9957 87.5411 74.3855V74.3883Z" fill="white"/>
<path d="M72.012 89.649C70.6841 85.3417 68.1641 83.5777 68.1641 83.5777C68.4152 83.5402 68.6259 83.3295 68.8136 83.0234H68.8164C71.172 85.512 71.859 87.452 72.012 89.6519V89.649Z" fill="#455B92"/>
<path d="M89.597 83.6316C88.8609 84.2783 87.1144 86.0826 86.0781 89.4113C86.2253 87.3413 86.8518 85.4994 88.8955 83.2188C89.0427 83.3833 89.2159 83.5161 89.4238 83.6085C89.4238 83.6085 89.4844 83.6143 89.597 83.6316Z" fill="#455B92"/>
<path d="M74.6435 24.6678C74.8283 24.3272 75.0765 24.0211 75.3479 23.7382C75.6221 23.4553 75.931 23.207 76.26 22.9818C76.592 22.7624 76.95 22.5805 77.3194 22.4247C77.6918 22.2716 78.0815 22.1648 78.4741 22.0869C78.8696 22.0089 79.2708 21.9685 79.675 21.9627C80.0762 21.9541 80.4717 21.9772 80.87 22.0205C81.6639 22.1129 82.449 22.3034 83.1967 22.6036C83.5691 22.7567 83.9328 22.9299 84.2821 23.1291C84.6285 23.334 84.9633 23.5592 85.2808 23.8075C85.5955 24.0587 85.8899 24.3329 86.1642 24.6245C86.4384 24.9161 86.6866 25.2308 86.9147 25.557C87.8269 26.8677 88.3407 28.4006 88.5081 29.9336C88.0087 28.4728 87.3448 27.0929 86.4038 25.941C86.1642 25.658 85.913 25.3867 85.6503 25.1326C85.3819 24.8814 85.1019 24.6418 84.8074 24.4253C84.2157 23.9952 83.5719 23.6343 82.8907 23.3658C82.553 23.2272 82.2037 23.1117 81.8486 23.0194C81.4936 22.9241 81.1327 22.849 80.769 22.7942C80.4053 22.7393 80.0358 22.7047 79.6663 22.6903C79.2997 22.6758 78.9331 22.6845 78.5694 22.7249C78.2056 22.7624 77.8448 22.8404 77.4926 22.9385C77.1376 23.0396 76.7912 23.1695 76.4592 23.3369C76.1215 23.4957 75.8011 23.6949 75.4951 23.9143C75.3421 24.024 75.192 24.1424 75.0505 24.2694C74.9062 24.3936 74.7676 24.5292 74.6406 24.6736L74.6435 24.6678Z" fill="#633F47"/>
<path d="M75.1313 36.7763C75.1313 37.2151 74.6088 37.5731 73.968 37.5702C73.3243 37.5702 72.8047 37.2122 72.8047 36.7705C72.8047 36.3317 73.3272 35.9737 73.968 35.9766C74.6117 35.9766 75.1313 36.3346 75.1313 36.7763Z" fill="#FFB8C1"/>
<path d="M77.6719 40.3672C78.3589 40.6414 79.0488 40.7281 79.7618 40.7338C80.4748 40.7512 81.1763 40.6761 81.8546 40.373C81.566 40.6068 80.8097 41.1149 79.7618 41.1149C78.994 41.1034 78.2608 40.8147 77.6719 40.3672Z" fill="#FFB8C1"/>
<path d="M86.0454 36.7841C86.0454 37.2229 85.5229 37.5809 84.8821 37.578C84.2383 37.578 83.7188 37.22 83.7188 36.7783C83.7188 36.3395 84.2412 35.9815 84.8821 35.9844C85.5258 35.9844 86.0454 36.3424 86.0454 36.7841Z" fill="#FFB8C1"/>
<path d="M75.9348 35.2888C75.193 35.2888 74.6676 34.6912 74.1336 34.6999C73.8709 34.7028 73.6861 34.85 73.6168 34.8962C73.7467 34.8558 74.0874 34.8298 74.0874 34.8298C73.8391 34.8616 73.5938 35.208 73.5938 35.208C73.637 35.156 73.8362 35.029 74.1769 35.0088C74.2317 35.0059 74.2894 35.0203 74.3501 35.0492C74.1566 35.1098 74.0325 35.2484 73.9517 35.3668C74.1076 35.2686 74.3212 35.1705 74.5579 35.1618C74.8754 35.361 75.3084 35.6843 75.9464 35.6872C76.6709 35.6872 77.5023 35.2773 77.8343 34.6797C77.4821 34.9511 76.8903 35.2917 75.9348 35.2917V35.2888Z" fill="#734E56"/>
<path d="M83.2223 35.3264C83.9641 35.3264 84.4607 34.7028 84.9947 34.7114C85.2574 34.7143 85.4421 34.8645 85.5114 34.9078C85.3815 34.8673 85.0409 34.8414 85.0409 34.8414C85.2891 34.8731 85.5345 35.2195 85.5345 35.2195C85.4912 35.1676 85.292 35.0406 84.9514 35.0204C84.8965 35.0175 84.8388 35.0319 84.7753 35.0608C84.9687 35.1214 85.0928 35.26 85.1737 35.3783C85.0178 35.2802 84.8071 35.182 84.5703 35.1734C84.2499 35.3726 83.8169 35.6959 83.1819 35.693C82.4573 35.693 81.626 35.2802 81.2969 34.6797C81.6462 34.9511 82.2697 35.3235 83.2223 35.3264Z" fill="#734E56"/>
<path d="M80.0796 24.2297C79.9901 24.377 75.0597 25.0669 75.0597 25.0669L74.771 26.4065C73.1689 27.5959 71.9969 29.4436 71.7862 31.45C71.5091 34.2879 74.1446 36.9265 72.8398 39.7673C75.1578 35.2752 69.0843 32.1284 74.7075 26.6923L74.6671 26.8771C82.4784 24.7349 79.075 29.3541 84.1296 31.6492C87.455 32.7838 86.7795 38.9272 85.5094 40.8817C86.7968 39.8568 88.5 35.8959 89.0225 30.0874C90.0068 28.0752 80.9427 22.818 80.0796 24.2297Z" fill="#734E56"/>
<path d="M113.067 47.2442C113.067 47.2442 110.969 44.6084 111.523 43.0755C112.077 41.5425 113.281 44.8481 114.21 45.1627C115.14 45.4774 116.104 47.2009 115.72 47.8216C115.336 48.4423 113.067 47.2413 113.067 47.2413V47.2442Z" fill="#FFD1D7"/>
<path d="M114.882 34.5701L109.562 37.7717C109.273 37.9449 109.178 38.3202 109.354 38.6118L118.404 53.6528C118.791 54.2966 119.625 54.5016 120.266 54.1147L124.304 51.6839C124.948 51.2971 125.153 50.4627 124.766 49.8218L115.714 34.7808C115.54 34.4921 115.165 34.3968 114.873 34.573L114.882 34.5701ZM112.991 37.7486C112.752 37.8294 112.478 37.7601 112.301 37.5783C111.955 37.2145 112.099 36.6256 112.579 36.4639C112.818 36.3831 113.095 36.4524 113.269 36.6342C113.615 37.0009 113.468 37.5898 112.991 37.7486Z" fill="#FFD5DC"/>
<path d="M112.407 41.4166C111.821 41.2723 111.466 40.6776 111.61 40.0944C111.755 39.5112 112.349 39.1533 112.932 39.2976C113.518 39.442 113.873 40.0367 113.729 40.6198C113.585 41.2059 112.99 41.561 112.407 41.4166Z" fill="#F7877A"/>
<path d="M112.457 41.2244C111.981 41.106 111.689 40.621 111.808 40.1447C111.926 39.6683 112.411 39.3767 112.887 39.4951C113.364 39.6135 113.655 40.0985 113.537 40.5748C113.418 41.0512 112.933 41.3427 112.457 41.2244Z" fill="white"/>
<path d="M112.88 39.4939C112.845 39.4852 112.813 39.4794 112.779 39.4766C113.197 39.6325 113.443 40.0828 113.33 40.5245C113.22 40.9691 112.793 41.252 112.352 41.1914C112.383 41.203 112.415 41.2145 112.45 41.2232C112.926 41.3415 113.411 41.05 113.529 40.5736C113.648 40.0973 113.356 39.6123 112.88 39.4939Z" fill="#D8DFF0"/>
<path d="M112.259 40.1827C112.167 40.4022 112.026 40.5523 111.942 40.5176C111.858 40.483 111.864 40.278 111.956 40.0586C112.049 39.8392 112.19 39.6891 112.274 39.7237C112.358 39.7584 112.352 39.9633 112.259 40.1827Z" fill="white"/>
<path d="M115.61 39.4871C115.024 39.3428 114.669 38.748 114.813 38.1649C114.958 37.5788 115.552 37.2237 116.135 37.3681C116.719 37.5124 117.077 38.1071 116.932 38.6903C116.788 39.2764 116.193 39.6315 115.61 39.4871Z" fill="#F7877A"/>
<path d="M115.66 39.2869C115.184 39.1685 114.892 38.6835 115.011 38.2072C115.129 37.7308 115.614 37.4392 116.09 37.5576C116.567 37.676 116.858 38.161 116.74 38.6373C116.621 39.1137 116.137 39.4052 115.66 39.2869Z" fill="white"/>
<path d="M116.091 37.5642C116.056 37.5555 116.024 37.5498 115.99 37.5469C116.408 37.7028 116.654 38.1531 116.541 38.5948C116.431 39.0394 116.004 39.3223 115.562 39.2617C115.594 39.2733 115.626 39.2848 115.661 39.2935C116.137 39.4118 116.622 39.1203 116.74 38.6439C116.859 38.1676 116.567 37.6826 116.091 37.5642Z" fill="#D8DFF0"/>
<path d="M115.47 38.2531C115.378 38.4725 115.236 38.6226 115.153 38.5879C115.069 38.5533 115.075 38.3483 115.167 38.1289C115.26 37.9095 115.401 37.7594 115.485 37.794C115.568 37.8287 115.563 38.0336 115.47 38.2531Z" fill="white"/>
<path d="M113.844 43.7994C113.258 43.6551 112.903 43.0604 113.048 42.4772C113.192 41.8941 113.787 41.5361 114.37 41.6804C114.953 41.8248 115.311 42.4195 115.167 43.0026C115.022 43.5887 114.428 43.9438 113.844 43.7994Z" fill="#F7877A"/>
<path d="M113.895 43.6072C113.418 43.4888 113.127 43.0038 113.245 42.5275C113.363 42.0511 113.848 41.7596 114.325 41.8779C114.801 41.9963 115.093 42.4813 114.974 42.9576C114.856 43.434 114.371 43.7256 113.895 43.6072Z" fill="white"/>
<path d="M114.325 41.8767C114.29 41.868 114.259 41.8623 114.224 41.8594C114.643 42.0153 114.888 42.4656 114.775 42.9073C114.666 43.3519 114.239 43.6349 113.797 43.5742C113.829 43.5858 113.86 43.5973 113.895 43.606C114.371 43.7243 114.856 43.4328 114.975 42.9564C115.093 42.4801 114.801 41.9951 114.325 41.8767Z" fill="#D8DFF0"/>
<path d="M113.697 42.5734C113.605 42.7928 113.463 42.9429 113.379 42.9083C113.296 42.8736 113.301 42.6686 113.394 42.4492C113.486 42.2298 113.628 42.0797 113.711 42.1143C113.795 42.149 113.789 42.354 113.697 42.5734Z" fill="white"/>
<path d="M117.048 41.8698C116.462 41.7254 116.107 41.1307 116.251 40.5475C116.395 39.9644 116.99 39.6064 117.573 39.7507C118.159 39.8951 118.514 40.4898 118.37 41.073C118.225 41.659 117.631 42.0141 117.048 41.8698Z" fill="#F7877A"/>
<path d="M117.098 41.6775C116.621 41.5591 116.33 41.0741 116.448 40.5978C116.567 40.1214 117.052 39.8299 117.528 39.9482C118.004 40.0666 118.296 40.5516 118.177 41.028C118.059 41.5043 117.574 41.7959 117.098 41.6775Z" fill="white"/>
<path d="M117.528 39.947C117.494 39.9383 117.462 39.9326 117.427 39.9297C117.846 40.0856 118.091 40.5359 117.979 40.9777C117.869 41.4222 117.442 41.7052 117 41.6445C117.032 41.6561 117.064 41.6676 117.098 41.6763C117.574 41.7947 118.059 41.5031 118.178 41.0267C118.296 40.5504 118.005 40.0654 117.528 39.947Z" fill="#D8DFF0"/>
<path d="M116.908 40.6359C116.815 40.8553 116.674 41.0054 116.59 40.9708C116.507 40.9361 116.512 40.7311 116.605 40.5117C116.697 40.2923 116.839 40.1422 116.922 40.1768C117.006 40.2115 117 40.4165 116.908 40.6359Z" fill="white"/>
<path d="M115.274 46.1824C114.688 46.0381 114.333 45.4434 114.477 44.8602C114.622 44.2741 115.216 43.9191 115.8 44.0634C116.383 44.2077 116.741 44.8025 116.596 45.3856C116.452 45.9717 115.857 46.3268 115.274 46.1824Z" fill="#F7877A"/>
<path d="M115.316 45.99C114.84 45.8716 114.549 45.3866 114.667 44.9103C114.785 44.4339 115.27 44.1424 115.747 44.2607C116.223 44.3791 116.514 44.8641 116.396 45.3405C116.278 45.8168 115.793 46.1084 115.316 45.99Z" fill="white"/>
<path d="M115.747 44.2595C115.712 44.2508 115.681 44.2451 115.646 44.2422C116.065 44.3981 116.31 44.8484 116.197 45.2901C116.085 45.7319 115.66 46.0177 115.219 45.957C115.251 45.9686 115.282 45.9801 115.317 45.9888C115.793 46.1072 116.278 45.8156 116.397 45.3392C116.515 44.8629 116.223 44.3779 115.747 44.2595Z" fill="#D8DFF0"/>
<path d="M115.127 44.9484C115.034 45.1678 114.893 45.3179 114.809 45.2833C114.725 45.2486 114.731 45.0436 114.823 44.8242C114.916 44.6048 115.057 44.4547 115.141 44.4893C115.225 44.524 115.219 44.729 115.127 44.9484Z" fill="white"/>
<path d="M118.477 44.2526C117.891 44.1082 117.536 43.5135 117.681 42.9303C117.825 42.3472 118.42 41.9892 119.003 42.1335C119.586 42.2779 119.944 42.8726 119.799 43.4558C119.655 44.0418 119.06 44.3969 118.477 44.2526Z" fill="#F7877A"/>
<path d="M118.527 44.0603C118.051 43.942 117.76 43.457 117.878 42.9806C117.996 42.5043 118.481 42.2127 118.958 42.331C119.434 42.4494 119.725 42.9344 119.607 43.4108C119.489 43.8871 119.004 44.1787 118.527 44.0603Z" fill="white"/>
<path d="M118.958 42.3298C118.923 42.3212 118.892 42.3154 118.857 42.3125C119.275 42.4684 119.521 42.9188 119.408 43.3605C119.299 43.8051 118.871 44.088 118.43 44.0274C118.461 44.0389 118.493 44.0504 118.528 44.0591C119.004 44.1775 119.489 43.8859 119.607 43.4095C119.726 42.9332 119.434 42.4482 118.958 42.3298Z" fill="#D8DFF0"/>
<path d="M118.33 43.0265C118.237 43.2459 118.096 43.396 118.012 43.3614C117.928 43.3267 117.934 43.1218 118.027 42.9024C118.119 42.6829 118.26 42.5328 118.344 42.5675C118.428 42.6021 118.422 42.8071 118.33 43.0265Z" fill="white"/>
<path d="M116.704 48.5729C116.118 48.4285 115.763 47.8338 115.907 47.2507C116.051 46.6675 116.646 46.3095 117.229 46.4539C117.815 46.5982 118.17 47.1929 118.026 47.7761C117.882 48.3621 117.287 48.7172 116.704 48.5729Z" fill="#F7877A"/>
<path d="M116.754 48.3806C116.278 48.2623 115.986 47.7773 116.104 47.3009C116.223 46.8246 116.708 46.533 117.184 46.6514C117.66 46.7697 117.952 47.2547 117.834 47.7311C117.715 48.2074 117.23 48.499 116.754 48.3806Z" fill="white"/>
<path d="M117.185 46.6501C117.15 46.6415 117.118 46.6357 117.083 46.6328C117.502 46.7887 117.747 47.2391 117.635 47.6808C117.525 48.1254 117.098 48.4083 116.656 48.3477C116.688 48.3592 116.72 48.3708 116.754 48.3794C117.231 48.4978 117.716 48.2062 117.834 47.7299C117.952 47.2535 117.661 46.7685 117.185 46.6501Z" fill="#D8DFF0"/>
<path d="M116.556 47.339C116.464 47.5584 116.322 47.7085 116.239 47.6739C116.155 47.6392 116.161 47.4343 116.253 47.2149C116.346 46.9955 116.487 46.8453 116.571 46.88C116.654 46.9146 116.649 47.1196 116.556 47.339Z" fill="white"/>
<path d="M119.915 46.6356C119.329 46.4912 118.974 45.8965 119.118 45.3133C119.262 44.7273 119.857 44.3722 120.44 44.5165C121.023 44.6609 121.381 45.2556 121.237 45.8388C121.093 46.4219 120.498 46.7799 119.915 46.6356Z" fill="#F7877A"/>
<path d="M119.965 46.4431C119.489 46.3248 119.197 45.8398 119.315 45.3634C119.434 44.8871 119.919 44.5955 120.395 44.7139C120.871 44.8322 121.163 45.3172 121.045 45.7936C120.926 46.2699 120.441 46.5615 119.965 46.4431Z" fill="white"/>
<path d="M120.395 44.7126C120.361 44.704 120.329 44.6982 120.294 44.6953C120.713 44.8512 120.958 45.3016 120.846 45.7433C120.736 46.1879 120.309 46.4708 119.867 46.4102C119.899 46.4217 119.931 46.4333 119.965 46.4419C120.442 46.5603 120.927 46.2687 121.045 45.7924C121.163 45.316 120.872 44.831 120.395 44.7126Z" fill="#D8DFF0"/>
<path d="M119.767 45.4015C119.675 45.6209 119.533 45.771 119.45 45.7364C119.366 45.7017 119.372 45.4968 119.464 45.2774C119.556 45.058 119.698 44.9078 119.782 44.9425C119.865 44.9771 119.86 45.1821 119.767 45.4015Z" fill="white"/>
<path d="M118.141 50.9557C117.555 50.8113 117.2 50.2166 117.345 49.6335C117.489 49.0503 118.084 48.6923 118.667 48.8367C119.253 48.981 119.608 49.5757 119.463 50.1589C119.319 50.7449 118.724 51.1 118.141 50.9557Z" fill="#F7877A"/>
<path d="M118.191 50.7634C117.715 50.6451 117.424 50.1601 117.542 49.6837C117.66 49.2074 118.145 48.9158 118.622 49.0342C119.098 49.1525 119.389 49.6375 119.271 50.1139C119.153 50.5902 118.668 50.8818 118.191 50.7634Z" fill="white"/>
<path d="M118.622 49.033C118.587 49.0243 118.556 49.0185 118.521 49.0156C118.94 49.1715 119.185 49.6219 119.072 50.0636C118.96 50.5053 118.535 50.7911 118.094 50.7305C118.126 50.742 118.157 50.7536 118.192 50.7622C118.668 50.8806 119.153 50.589 119.272 50.1127C119.39 49.6363 119.098 49.1513 118.622 49.033Z" fill="#D8DFF0"/>
<path d="M117.994 49.7296C117.901 49.949 117.76 50.0992 117.676 50.0645C117.593 50.0299 117.598 49.8249 117.691 49.6055C117.783 49.3861 117.924 49.236 118.008 49.2706C118.092 49.3052 118.086 49.5102 117.994 49.7296Z" fill="white"/>
<path d="M121.344 49.0262C120.759 48.8818 120.403 48.2871 120.548 47.7039C120.692 47.1179 121.287 46.7628 121.87 46.9072C122.456 47.0515 122.811 47.6462 122.667 48.2294C122.522 48.8154 121.928 49.1705 121.344 49.0262Z" fill="#F7877A"/>
<path d="M121.395 48.8338C120.918 48.7154 120.627 48.2304 120.745 47.754C120.863 47.2777 121.348 46.9861 121.825 47.1045C122.301 47.2228 122.593 47.7078 122.474 48.1842C122.356 48.6605 121.871 48.9521 121.395 48.8338Z" fill="white"/>
<path d="M121.825 47.0954C121.79 47.0868 121.759 47.081 121.724 47.0781C122.143 47.234 122.388 47.6844 122.275 48.1261C122.166 48.5707 121.739 48.8536 121.297 48.793C121.329 48.8045 121.36 48.8161 121.395 48.8247C121.871 48.9431 122.356 48.6515 122.475 48.1752C122.593 47.6988 122.301 47.2138 121.825 47.0954Z" fill="#D8DFF0"/>
<path d="M121.197 47.7921C121.104 48.0115 120.963 48.1617 120.879 48.127C120.796 48.0924 120.801 47.8874 120.894 47.668C120.986 47.4486 121.128 47.2985 121.211 47.3331C121.295 47.3677 121.289 47.5727 121.197 47.7921Z" fill="white"/>
<path d="M119.579 53.3385C118.993 53.1942 118.638 52.5995 118.782 52.0163C118.926 51.4331 119.521 51.0751 120.104 51.2195C120.69 51.3638 121.045 51.9585 120.901 52.5417C120.757 53.1278 120.162 53.4829 119.579 53.3385Z" fill="#F7877A"/>
<path d="M119.629 53.1463C119.153 53.0279 118.861 52.5429 118.979 52.0665C119.098 51.5902 119.583 51.2986 120.059 51.417C120.535 51.5353 120.827 52.0204 120.709 52.4967C120.59 52.973 120.105 53.2646 119.629 53.1463Z" fill="white"/>
<path d="M120.06 51.4158C120.025 51.4071 119.993 51.4013 119.958 51.3984C120.377 51.5543 120.622 52.0047 120.51 52.4464C120.4 52.891 119.973 53.1739 119.531 53.1133C119.563 53.1248 119.595 53.1364 119.629 53.145C120.106 53.2634 120.591 52.9718 120.709 52.4955C120.827 52.0191 120.536 51.5341 120.06 51.4158Z" fill="#D8DFF0"/>
<path d="M119.431 52.1046C119.339 52.324 119.197 52.4742 119.114 52.4395C119.03 52.4049 119.036 52.1999 119.128 51.9805C119.221 51.7611 119.362 51.611 119.446 51.6456C119.529 51.6802 119.524 51.8852 119.431 52.1046Z" fill="white"/>
<path d="M122.782 51.4088C122.196 51.2645 121.841 50.6698 121.985 50.0866C122.13 49.5034 122.724 49.1454 123.307 49.2898C123.89 49.4341 124.248 50.0289 124.104 50.612C123.96 51.1952 123.365 51.5532 122.782 51.4088Z" fill="#F7877A"/>
<path d="M122.832 51.2088C122.356 51.0904 122.064 50.6054 122.183 50.129C122.301 49.6527 122.786 49.3611 123.262 49.4795C123.739 49.5978 124.03 50.0829 123.912 50.5592C123.793 51.0355 123.308 51.3271 122.832 51.2088Z" fill="white"/>
<path d="M123.263 49.4861C123.228 49.4774 123.196 49.4716 123.162 49.4688C123.58 49.6246 123.826 50.075 123.713 50.5167C123.603 50.9613 123.176 51.2442 122.734 51.1836C122.766 51.1951 122.798 51.2067 122.833 51.2154C123.309 51.3337 123.794 51.0421 123.912 50.5658C124.03 50.0894 123.739 49.6044 123.263 49.4861Z" fill="#D8DFF0"/>
<path d="M122.634 50.1749C122.542 50.3943 122.401 50.5445 122.317 50.5098C122.233 50.4752 122.239 50.2702 122.331 50.0508C122.424 49.8314 122.565 49.6813 122.649 49.7159C122.733 49.7506 122.727 49.9555 122.634 50.1749Z" fill="white"/>
<path d="M118.947 40.3542C118.361 40.3946 117.397 40.7411 117.772 42.3895C118.15 44.0408 119.435 45.2995 120.223 45.4699C121.068 45.6518 122.48 45.1061 121.943 43.7204C121.406 42.3346 120.228 40.2676 118.947 40.3542Z" fill="#FFD1D7"/>
<path d="M26.0278 30.3697C26.1279 29.546 26.8378 28.7622 27.7905 28.7508C28.8099 28.7394 29.535 29.6718 29.6139 29.7805C29.6291 29.8263 29.6473 29.872 29.6625 29.9178C29.6473 29.872 29.6321 29.8263 29.6169 29.7805C29.6139 29.6489 29.5957 28.4934 30.421 27.9242C31.1885 27.3921 32.2565 27.6181 32.8633 28.2216C33.9707 29.3257 33.1879 31.3708 33.1 31.6025C32.569 32.9869 31.4222 33.5475 30.9974 33.7249C30.9883 33.7277 30.9792 33.7335 30.9701 33.7363C30.958 33.7363 30.9458 33.742 30.9337 33.7449C30.4786 33.8336 29.2498 33.9909 27.9907 33.2129C27.7693 33.0756 25.8457 31.8828 26.0278 30.3755V30.3697Z" fill="#A0434D"/>
<path d="M165.457 30.2451C166.322 29.9155 167.442 30.1843 167.911 31.0707C168.412 32.0211 167.835 33.1762 167.767 33.3106C167.729 33.349 167.691 33.3874 167.656 33.4258C167.694 33.3874 167.732 33.349 167.771 33.3138C167.902 33.2434 169.038 32.6354 169.999 33.1186C170.895 33.5666 171.186 34.6833 170.879 35.5601C170.315 37.1632 167.911 37.4736 167.637 37.5088C166.009 37.72 164.898 36.9296 164.521 36.6192C164.512 36.6128 164.505 36.6064 164.499 36.6C164.49 36.5904 164.483 36.5808 164.474 36.568C164.167 36.1873 163.42 35.1153 163.586 33.5346C163.615 33.2562 163.874 30.8435 165.457 30.2419V30.2451Z" fill="#A0434D"/>
<path d="M0.0678759 21.2809C-0.123043 20.6908 0.0897846 19.9492 0.693838 19.6652C1.34171 19.3591 2.0866 19.7851 2.17111 19.8356C2.19615 19.8608 2.21806 19.8892 2.2431 19.9145C2.21806 19.8861 2.19615 19.8608 2.17111 19.8324C2.12729 19.7441 1.76423 18.9615 2.11164 18.3335C2.43714 17.7465 3.1883 17.5888 3.75792 17.8223C4.80328 18.2515 4.9316 19.8735 4.94725 20.0565C5.03489 21.1546 4.47778 21.871 4.25869 22.114C4.25556 22.1203 4.2493 22.1234 4.24617 22.1297C4.23991 22.1361 4.23366 22.1392 4.22427 22.1455C3.96136 22.338 3.22899 22.8051 2.18676 22.641C2.0021 22.6126 0.412155 22.3633 0.064746 21.2809H0.0678759Z" fill="#A0434D"/>
<path d="M49.7769 0.898876C50.0946 0.467571 50.7596 0.21773 51.3215 0.464941C51.9246 0.730562 52.0541 1.44064 52.0688 1.52216C52.0629 1.55109 52.0599 1.58265 52.0541 1.61158L52.0717 1.52216C52.11 1.44853 52.466 0.79894 53.1279 0.701633C53.7458 0.609586 54.3018 1.01722 54.4666 1.51427C54.7696 2.42159 53.6663 3.35258 53.5427 3.45778C52.7955 4.08632 51.9452 4.09684 51.6422 4.08106C51.6363 4.08106 51.6304 4.08106 51.6245 4.08106C51.6157 4.08106 51.6098 4.07843 51.601 4.0758C51.3068 4.0048 50.536 3.76811 50.0417 3.00017C49.9534 2.86342 49.2003 1.69311 49.7798 0.901506L49.7769 0.898876Z" fill="#A0434D"/>
<path d="M146.792 30.4409C147.255 30.0323 147.995 29.9631 148.458 30.4508C148.955 30.9715 148.834 31.8645 148.818 31.9667C148.803 31.9997 148.788 32.0326 148.773 32.0689C148.788 32.0359 148.803 32.003 148.821 31.97C148.885 31.8942 149.461 31.2417 150.145 31.3505C150.784 31.4526 151.187 32.1282 151.175 32.7774C151.154 33.9637 149.745 34.6986 149.588 34.781C148.637 35.2786 147.798 34.9985 147.504 34.8766C147.498 34.8766 147.492 34.87 147.486 34.87C147.48 34.8667 147.47 34.8601 147.464 34.8535C147.201 34.6689 146.528 34.1219 146.313 33.0377C146.274 32.8466 145.947 31.189 146.795 30.4442L146.792 30.4409Z" fill="#A0434D"/>
<path d="M123.245 0.615854C123.709 0.309381 124.448 0.257478 124.911 0.623269C125.408 1.01377 125.287 1.68357 125.272 1.76019C125.256 1.7849 125.241 1.80962 125.226 1.8368C125.241 1.81209 125.256 1.78737 125.275 1.76266C125.338 1.70581 125.914 1.21644 126.598 1.298C127.237 1.37462 127.64 1.88129 127.628 2.36819C127.607 3.25795 126.198 3.80911 126.041 3.87089C125.09 4.2441 124.251 4.03402 123.957 3.94257C123.951 3.94257 123.945 3.93763 123.939 3.93763C123.933 3.93516 123.924 3.93021 123.918 3.92527C123.654 3.78686 122.982 3.37658 122.767 2.56344C122.727 2.42009 122.4 1.1769 123.248 0.618326L123.245 0.615854Z" fill="#A0434D"/>
<defs>
<linearGradient id="paint0_linear_51_49759" x1="86" y1="21" x2="86" y2="125.55" gradientUnits="userSpaceOnUse">
<stop stop-color="#C66A78"/>
<stop offset="1" stop-color="#D9D9D9" stop-opacity="0"/>
</linearGradient>
</defs>
</svg>
