<svg width="16" height="15" viewBox="0 0 16 15" fill="none" xmlns="http://www.w3.org/2000/svg">
<path d="M7.99993 1.21465C6.64378 1.21465 5.31809 1.6168 4.19049 2.37023C3.0629 3.12367 2.18404 4.19456 1.66506 5.44748C1.14609 6.7004 1.0103 8.07907 1.27487 9.40917C1.53944 10.7393 2.19249 11.961 3.15143 12.92C4.11038 13.8789 5.33214 14.532 6.66224 14.7965C7.99233 15.0611 9.37101 14.9253 10.6239 14.4063C11.8768 13.8874 12.9477 13.0085 13.7012 11.8809C14.4546 10.7533 14.8567 9.42762 14.8567 8.07147C14.8547 6.25357 14.1316 4.51072 12.8461 3.22526C11.5607 1.93981 9.81784 1.21673 7.99993 1.21465ZM7.99993 13.7855C6.86981 13.7855 5.76506 13.4504 4.8254 12.8225C3.88574 12.1946 3.15336 11.3022 2.72088 10.2581C2.2884 9.21403 2.17524 8.06513 2.39572 6.95672C2.61619 5.84831 3.1604 4.83017 3.95952 4.03105C4.75864 3.23193 5.77678 2.68773 6.88519 2.46725C7.9936 2.24677 9.14249 2.35993 10.1866 2.79241C11.2307 3.22489 12.1231 3.95727 12.751 4.89693C13.3788 5.8366 13.7139 6.94134 13.7139 8.07147C13.7122 9.5864 13.1097 11.0388 12.0385 12.11C10.9673 13.1812 9.51486 13.7838 7.99993 13.7855ZM3.26159 1.04752L0.975985 3.33312C0.868767 3.44034 0.723348 3.50058 0.571719 3.50058C0.42009 3.50058 0.274671 3.44034 0.167453 3.33312C0.0602345 3.2259 1.12973e-09 3.08049 0 2.92886C-1.12973e-09 2.77723 0.0602345 2.63181 0.167453 2.52459L2.45306 0.238986C2.50615 0.185897 2.56917 0.143784 2.63854 0.115053C2.7079 0.0863211 2.78224 0.0715332 2.85732 0.0715332C2.9324 0.0715332 3.00675 0.0863211 3.07611 0.115053C3.14548 0.143784 3.2085 0.185897 3.26159 0.238986C3.31468 0.292075 3.35679 0.355101 3.38552 0.424465C3.41425 0.493829 3.42904 0.568173 3.42904 0.643252C3.42904 0.718331 3.41425 0.792675 3.38552 0.862039C3.35679 0.931404 3.31468 0.994429 3.26159 1.04752ZM15.8324 3.33312C15.7793 3.38625 15.7163 3.4284 15.647 3.45715C15.5776 3.48591 15.5032 3.50071 15.4282 3.50071C15.3531 3.50071 15.2787 3.48591 15.2093 3.45715C15.14 3.4284 15.077 3.38625 15.0239 3.33312L12.7383 1.04752C12.6311 0.9403 12.5708 0.794881 12.5708 0.643252C12.5708 0.491623 12.6311 0.346204 12.7383 0.238986C12.8455 0.131768 12.9909 0.0715332 13.1425 0.0715332C13.2942 0.0715332 13.4396 0.131768 13.5468 0.238986L15.8324 2.52459C15.8855 2.57766 15.9277 2.64068 15.9564 2.71004C15.9852 2.77941 16 2.85377 16 2.92886C16 3.00395 15.9852 3.0783 15.9564 3.14767C15.9277 3.21704 15.8855 3.28006 15.8324 3.33312ZM11.9997 7.50007C12.1513 7.50007 12.2966 7.56027 12.4038 7.66743C12.5109 7.77458 12.5711 7.91992 12.5711 8.07147C12.5711 8.22301 12.5109 8.36835 12.4038 8.47551C12.2966 8.58267 12.1513 8.64287 11.9997 8.64287H7.99993C7.84839 8.64287 7.70305 8.58267 7.59589 8.47551C7.48873 8.36835 7.42853 8.22301 7.42853 8.07147V4.07166C7.42853 3.92011 7.48873 3.77478 7.59589 3.66762C7.70305 3.56046 7.84839 3.50026 7.99993 3.50026C8.15148 3.50026 8.29682 3.56046 8.40398 3.66762C8.51114 3.77478 8.57134 3.92011 8.57134 4.07166V7.50007H11.9997Z" fill="white"/>
</svg>
