<svg width="31" height="31" viewBox="0 0 31 31" fill="none" xmlns="http://www.w3.org/2000/svg">
<g clip-path="url(#clip0_51_35454)">
<path d="M23.0995 30.353C22.5087 30.2169 21.8918 30.147 21.3308 29.9315C18.8283 28.97 17.3196 27.1498 16.9549 24.4902C16.4645 20.9136 18.83 17.6772 22.3744 16.9635C25.0182 16.4312 27.9125 17.713 29.3156 20.0253C29.8453 20.8979 30.1838 21.8315 30.3007 22.8454C30.3103 22.9301 30.3374 23.0121 30.3557 23.095V24.0819C30.3348 24.2049 30.3121 24.327 30.2929 24.4501C29.8723 27.1227 28.4108 28.97 25.8821 29.9341C25.3297 30.1444 24.7251 30.216 24.1439 30.3521H23.0986L23.0995 30.353ZM20.3875 27.847C22.3351 29.4377 25.6543 29.4254 27.6752 27.0913C29.566 24.9073 29.1786 21.8804 27.8427 20.3883C25.362 22.8707 22.8805 25.3532 20.3875 27.847ZM19.3379 26.7938C21.829 24.3087 24.3237 21.8202 26.8166 19.3334C24.8821 17.7069 21.6379 17.9512 19.7855 19.8665C17.7664 21.9537 17.9025 25.0408 19.3387 26.7929L19.3379 26.7938Z" fill="#B3899D"/>
<path d="M7.4329 25.7501C4.21489 25.7675 1.36074 23.457 0.772629 20.2887C0.327621 17.8918 1.01433 15.8133 2.73328 14.0857C4.43914 12.3711 6.1546 10.6661 7.86482 8.95674C9.93716 6.88527 12.0104 4.8138 14.081 2.73972C15.0687 1.75023 16.2205 1.05218 17.6026 0.788666C20.0729 0.318354 22.2307 0.962306 23.9296 2.81127C25.8021 4.8487 26.2157 7.2404 25.2951 9.84675C24.9618 10.7917 24.379 11.5849 23.6739 12.2925C19.8896 16.0865 16.1079 19.8847 12.3219 23.6769C10.979 25.0215 9.27052 25.7388 7.43203 25.7484L7.4329 25.7501ZM8.83511 9.87903C8.80108 9.92528 8.75309 10.0134 8.68503 10.0815C7.55157 11.2193 6.41288 12.3528 5.27942 13.4906C4.61714 14.1555 3.93131 14.8003 3.31091 15.5027C1.0248 18.0899 1.90783 22.3244 5.02463 23.8043C7.20255 24.8383 9.61082 24.4264 11.3333 22.7118C13.0129 21.0391 14.6839 19.3568 16.3575 17.678C16.4116 17.6239 16.4604 17.5646 16.5067 17.5131C13.9623 14.9818 11.4266 12.4583 8.83424 9.87903H8.83511ZM9.9389 8.84243C12.4903 11.3938 15.0181 13.9216 17.5529 16.4573C17.5546 16.4555 17.586 16.4346 17.6131 16.4076C19.3347 14.6816 21.0597 12.9592 22.7752 11.2271C23.6094 10.3851 24.1032 9.3712 24.29 8.19499C24.646 5.95861 23.4034 3.57302 21.3503 2.60011C19.1811 1.57223 16.8147 1.97273 15.0966 3.67511C13.4135 5.34345 11.7434 7.02488 10.0672 8.70107C10.0131 8.75517 9.96421 8.81276 9.93716 8.84243H9.9389Z" fill="#B3899D"/>
<path d="M14.5978 9.29151C14.2025 9.28453 13.9931 9.1615 13.8736 8.91456C13.761 8.68159 13.7671 8.44425 13.9268 8.23134C14.0132 8.11616 14.1153 8.01146 14.2174 7.90937C14.9119 7.22266 15.6065 6.53682 16.3045 5.85448C16.644 5.52291 16.9834 5.47579 17.2879 5.70265C17.5706 5.91469 17.6448 6.30647 17.4528 6.60401C17.4005 6.68429 17.3385 6.76107 17.2705 6.82826C16.5279 7.56209 15.7888 8.2994 15.035 9.02189C14.891 9.16062 14.6877 9.23741 14.5969 9.29151H14.5978Z" fill="#B3899D"/>
</g>
<defs>
<clipPath id="clip0_51_35454">
<rect width="29.7186" height="29.7143" fill="white" transform="translate(0.640625 0.640625)"/>
</clipPath>
</defs>
</svg>
