<svg width="18" height="18" viewBox="0 0 18 18" fill="none" xmlns="http://www.w3.org/2000/svg">
<path d="M16.7027 1.2969C15.8663 0.46062 14.7542 0 13.5713 0C12.3883 0 11.2763 0.46062 10.44 1.29708L1.29726 10.44C0.4608 11.2763 0 12.3883 0 13.5713C0 14.7541 0.46062 15.8663 1.29708 16.7027C2.13354 17.5392 3.24558 18 4.42854 18C5.6115 18 6.72354 17.5394 7.56 16.7029L16.7027 7.56C17.5392 6.72372 18 5.6115 18 4.42854C18 3.24558 17.5392 2.13354 16.7027 1.2969ZM6.9237 16.0666C6.25716 16.733 5.37102 17.1 4.42854 17.1C3.48606 17.1 2.59992 16.733 1.93356 16.0666C1.2672 15.4001 0.9 14.5139 0.9 13.5713C0.9 12.6286 1.26702 11.7427 1.93338 11.0763L6.1866 6.82308L11.1767 11.8132L6.9237 16.0666ZM16.0664 6.92352L11.8132 11.1769L6.82308 6.18678L11.0763 1.93356C11.7428 1.26702 12.6288 0.9 13.5713 0.9C14.5138 0.9 15.3997 1.26702 16.0663 1.93338C16.733 2.59992 17.1 3.48606 17.1 4.42854C17.1 5.37102 16.733 6.25716 16.0664 6.92352Z" fill="#DCDBFF"/>
</svg>
