<svg width="20" height="21" viewBox="0 0 20 21" fill="none" xmlns="http://www.w3.org/2000/svg">
<path d="M8.7804 13.0329L7.41135 11.7695L8.7804 10.4973L10.1398 11.7695L11.4992 10.4973L10.1398 9.23395L11.4992 7.97063L12.8682 9.23395L14.2276 7.97063L11.4992 5.43504L4.68291 11.7695L7.41135 14.3051L8.7804 13.0329ZM1 16.4555L4.00803 13.669L1.96411 11.7695L11.4992 2.89945L13.5528 4.80786L14.9025 3.53559L13.5528 2.26332L14.9025 1L19 4.80786L17.6406 6.06222L16.2716 4.80786L14.9025 6.06222L16.9561 7.97063L7.41135 16.8318L5.36743 14.9323L1 19V16.4555Z" stroke="#DCDBFF"/>
</svg>
