<svg width="19" height="18" viewBox="0 0 19 18" fill="none" xmlns="http://www.w3.org/2000/svg">
<path d="M7.25 7.5C8.07843 7.5 8.75 6.82843 8.75 6C8.75 5.17157 8.07843 4.5 7.25 4.5C6.42157 4.5 5.75 5.17157 5.75 6C5.75 6.82843 6.42157 7.5 7.25 7.5Z" stroke="#8386FF" stroke-width="1.125" stroke-linecap="round" stroke-linejoin="round"/>
<path d="M10.25 1.5H7.25C3.5 1.5 2 3 2 6.75V11.25C2 15 3.5 16.5 7.25 16.5H11.75C15.5 16.5 17 15 17 11.25V7.5" stroke="#8386FF" stroke-width="1.125" stroke-linecap="round" stroke-linejoin="round"/>
<path d="M12.3125 3.75H16.4375" stroke="#8386FF" stroke-width="1.125" stroke-linecap="round"/>
<path d="M14.375 5.8125V1.6875" stroke="#8386FF" stroke-width="1.125" stroke-linecap="round"/>
<path d="M2.50391 14.2124L6.20141 11.7299C6.79391 11.3324 7.64891 11.3774 8.18141 11.8349L8.42891 12.0524C9.01391 12.5549 9.95891 12.5549 10.5439 12.0524L13.6639 9.37492C14.2489 8.87242 15.1939 8.87242 15.7789 9.37492L17.0014 10.4249" stroke="#8386FF" stroke-width="1.125" stroke-linecap="round" stroke-linejoin="round"/>
</svg>
