<svg width="24" height="24" viewBox="0 0 24 24" fill="none" xmlns="http://www.w3.org/2000/svg">
<path d="M8.18156 16.0204C7.42156 15.9504 6.67156 15.6004 6.09156 14.9904C4.77156 13.6004 4.77156 11.3204 6.09156 9.93038L8.28156 7.63039C9.60157 6.24039 11.7716 6.24039 13.1016 7.63039C14.4216 9.02039 14.4216 11.3004 13.1016 12.6904L12.0116 13.8404" stroke="#4C4E51" stroke-width="1.5" stroke-linecap="round" stroke-linejoin="round"/>
<path d="M15.8202 7.98047C16.5802 8.05047 17.3302 8.40047 17.9102 9.01047C19.2302 10.4005 19.2302 12.6805 17.9102 14.0705L15.7202 16.3705C14.4002 17.7605 12.2302 17.7605 10.9002 16.3705C9.58016 14.9805 9.58016 12.7005 10.9002 11.3105L11.9902 10.1605" stroke="#4C4E51" stroke-width="1.5" stroke-linecap="round" stroke-linejoin="round"/>
</svg>
