<svg width="19" height="19" viewBox="0 0 19 19" fill="none" xmlns="http://www.w3.org/2000/svg">
<g clip-path="url(#clip0_51_72990)">
<g clip-path="url(#clip1_51_72990)">
<path d="M9.09043 12.9778C11.1701 12.9778 13.2498 12.9791 15.3295 12.9766C15.622 12.9766 15.8824 13.0382 16.0804 13.2712C16.2024 13.4149 16.2595 13.5833 16.2212 13.7654C16.0504 14.5787 15.7716 15.3529 15.3562 16.0759C15.1307 16.468 14.8061 16.7447 14.4019 16.9343C13.3919 17.4076 12.3489 17.7522 11.2151 17.7343C10.8939 17.7293 10.6043 17.6397 10.3538 17.4276C10.1942 17.2922 10.0238 17.1693 9.85589 17.0447C9.41253 16.7155 8.84667 16.713 8.40206 17.0401C8.23331 17.1643 8.06413 17.2884 7.90412 17.4234C7.64494 17.6426 7.34493 17.728 7.012 17.7376C6.20321 17.7601 5.439 17.5501 4.6848 17.2926C4.44145 17.2097 4.20769 17.1001 3.9681 17.0059C3.29182 16.7397 2.83138 16.2584 2.5372 15.6C2.28677 15.04 2.08634 14.4662 1.93717 13.8704C1.81174 13.3712 2.22135 13.0249 2.57803 12.992C2.74346 12.9766 2.91055 12.9786 3.07681 12.9786C5.08107 12.9778 7.08575 12.9782 9.09001 12.9786L9.09043 12.9778ZM6.31238 14.5854C5.76777 14.515 5.21399 14.5333 4.67688 14.6491C4.63938 14.6571 4.60188 14.6658 4.56479 14.6746C4.37395 14.72 4.33478 14.82 4.34728 15.015C4.36937 15.3671 4.55604 15.6175 4.84272 15.7988C5.36525 16.1288 5.94569 16.1992 6.54447 16.1409C6.83699 16.1125 7.11617 16.0092 7.31159 15.7754C7.65411 15.3642 7.7637 14.8671 7.02741 14.7046C6.79282 14.6529 6.55489 14.6175 6.3128 14.5862L6.31238 14.5854ZM11.463 16.1259C11.696 16.1796 11.9377 16.1821 12.1735 16.1438C12.3377 16.1171 12.501 16.0896 12.6589 16.0421C13.0444 15.9267 13.4036 15.7413 13.6323 15.3967C13.9086 14.9804 13.8786 14.6987 13.3498 14.5987C12.8102 14.4962 12.2698 14.5175 11.7326 14.5921C11.433 14.6337 11.1339 14.7071 10.848 14.805C10.6113 14.8862 10.5113 15.1 10.5913 15.3238C10.6526 15.4954 10.7438 15.6713 10.8668 15.803C11.0347 15.983 11.2397 16.0742 11.4626 16.1259H11.463Z" fill="#333333"/>
<path d="M17.8726 9.32997C17.738 9.07121 17.5209 8.9362 17.2168 8.95037C16.993 8.96079 16.768 8.95245 16.5434 8.95245C16.5059 8.5841 16.4821 8.23117 16.4321 7.88198C16.2709 6.75943 15.8459 5.7423 15.1558 4.84392C14.0708 3.43093 12.6282 2.57964 10.9027 2.19087C10.7631 2.1592 10.6994 2.10045 10.6635 1.96253C10.4785 1.25583 9.79931 0.750802 9.06011 0.757886C8.32091 0.750802 7.64171 1.25583 7.45628 1.96253C7.42003 2.10003 7.35669 2.1592 7.2171 2.19087C5.4916 2.58006 4.04903 3.43135 2.96398 4.84392C2.27395 5.7423 1.84893 6.75943 1.68767 7.88198C1.63767 8.23117 1.61391 8.5841 1.57641 8.95245C1.35182 8.95245 1.12681 8.96079 0.903047 8.95037C0.598865 8.9362 0.381771 9.07121 0.247181 9.32997C-0.0728342 9.94583 -0.0765844 10.5775 0.203846 11.2067C0.336352 11.5034 0.56053 11.6688 0.909297 11.6684C3.6261 11.6663 6.34289 11.6655 9.05969 11.6655C11.7765 11.6655 14.4933 11.6663 17.2101 11.6684C17.5589 11.6684 17.7835 11.5034 17.9155 11.2067C18.196 10.5775 18.1922 9.94625 17.8722 9.32997H17.8726Z" fill="#333333"/>
</g>
</g>
<defs>
<clipPath id="clip0_51_72990">
<rect width="18.12" height="18.49" fill="white"/>
</clipPath>
<clipPath id="clip1_51_72990">
<rect width="18.12" height="16.98" fill="white" transform="translate(0 0.757812)"/>
</clipPath>
</defs>
</svg>
