<svg width="18" height="18" viewBox="0 0 18 18" fill="none" xmlns="http://www.w3.org/2000/svg">
<path fill-rule="evenodd" clip-rule="evenodd" d="M9.94305 0.454606C9.59 -0.151536 8.71433 -0.151535 8.36128 0.454608L7.31895 2.24418L5.04794 1.02608C4.42978 0.694518 3.68373 1.15302 3.70032 1.85428L3.77814 5.14371L1.11292 5.72085C0.427344 5.86931 0.156748 6.70212 0.624127 7.2252L1.86735 8.61658L0.282323 10.1362C-0.224031 10.6216 -0.0185142 11.4728 0.653557 11.6737L3.71249 12.5883L3.39275 15.7462C3.32209 16.4441 4.03053 16.9588 4.67243 16.6759L6.6602 15.8L7.47386 17.4837C7.77907 18.1153 8.65214 18.1828 9.05091 17.6058L10.6128 15.3455L13.6319 16.6759C14.2738 16.9588 14.9822 16.4441 14.9116 15.7462L14.653 13.1926L16.6841 12.9146C17.3791 12.8195 17.7131 12.0101 17.2875 11.4525L15.7283 9.40975L17.6802 7.2252C18.1476 6.70212 17.877 5.86931 17.1914 5.72085L14.744 5.19088L15.1848 2.74328C15.3091 2.05292 14.6425 1.48507 13.9807 1.71755L11.2395 2.68046L9.94305 0.454606Z" fill="#8386FF"/>
<path d="M11.7116 5.86414C11.5864 5.79446 11.4486 5.75015 11.3063 5.73374C11.1639 5.71732 11.0197 5.72914 10.8819 5.7685C10.7441 5.80786 10.6154 5.874 10.5032 5.96314C10.391 6.05227 10.2975 6.16265 10.2279 6.28796L8.20266 9.9327L7.04356 8.7736C6.94293 8.66941 6.82255 8.5863 6.68946 8.52913C6.55636 8.47195 6.41321 8.44186 6.26836 8.4406C6.12351 8.43934 5.97986 8.46695 5.84579 8.5218C5.71172 8.57665 5.58992 8.65765 5.48749 8.76008C5.38506 8.86251 5.30406 8.98431 5.24921 9.11838C5.19435 9.25245 5.16675 9.3961 5.16801 9.54095C5.16927 9.6858 5.19936 9.82895 5.25654 9.96205C5.31371 10.0951 5.39682 10.2155 5.50101 10.3162L7.68284 12.498C7.88902 12.7047 8.1672 12.8182 8.45411 12.8182L8.6052 12.8073C8.77241 12.7839 8.93191 12.722 9.07114 12.6265C9.21038 12.531 9.32554 12.4045 9.40757 12.2569L12.1349 7.34778C12.2045 7.22257 12.2488 7.08487 12.2652 6.94255C12.2816 6.80023 12.2698 6.65606 12.2305 6.51829C12.1912 6.38052 12.1251 6.25184 12.0361 6.1396C11.9471 6.02736 11.8368 5.93376 11.7116 5.86414Z" fill="white"/>
</svg>
