<svg width="19" height="18" viewBox="0 0 19 18" fill="none" xmlns="http://www.w3.org/2000/svg">
<path d="M17 11.25V6.75C17 3 15.5 1.5 11.75 1.5H7.25C3.5 1.5 2 3 2 6.75V11.25C2 15 3.5 16.5 7.25 16.5H11.75C15.5 16.5 17 15 17 11.25Z" stroke="#8386FF" stroke-width="1.125" stroke-linecap="round" stroke-linejoin="round"/>
<path d="M2.39062 5.33203H16.6106" stroke="#8386FF" stroke-width="1.125" stroke-linecap="round" stroke-linejoin="round"/>
<path d="M6.89062 1.58203V5.22703" stroke="#8386FF" stroke-width="1.125" stroke-linecap="round" stroke-linejoin="round"/>
<path d="M12.1094 1.58203V4.88953" stroke="#8386FF" stroke-width="1.125" stroke-linecap="round" stroke-linejoin="round"/>
<path d="M7.8125 10.8371V9.9371C7.8125 8.7821 8.63 8.3096 9.6275 8.8871L10.4075 9.3371L11.1875 9.7871C12.185 10.3646 12.185 11.3096 11.1875 11.8871L10.4075 12.3371L9.6275 12.7871C8.63 13.3646 7.8125 12.8921 7.8125 11.7371V10.8371V10.8371Z" stroke="#8386FF" stroke-width="1.125" stroke-miterlimit="10" stroke-linecap="round" stroke-linejoin="round"/>
</svg>
