<svg width="20" height="21" viewBox="0 0 20 21" fill="none" xmlns="http://www.w3.org/2000/svg">
<path d="M15.9997 12.7791V9.08118C15.9997 7.99273 15.9997 7.39336 15.6756 6.91304C15.4768 6.61842 15.2112 6.44853 14.9243 6.34992C14.9377 6.27557 15.112 4.89342 13.5792 4.8564C13.3114 4.31525 12.6032 3.78178 11.7029 4.02755C11.4694 3.51005 10.7868 2.93863 9.81767 3.26458C9.64026 2.76997 8.32509 1.91254 7.34354 3.10084C6.04142 2.51591 5.19244 3.56919 5.17447 4.36609C4.5049 4.50465 4 5.09895 4 5.80922C4 6.18848 4.14715 6.55206 4.4069 6.82487C4.28586 7.28307 4.57679 7.63944 4.85958 7.76801V15.964C4.56128 16.1475 4.37203 16.4758 4.37203 16.8364C4.37203 17.4013 4.83162 17.8607 5.39628 17.8607H12.8735C13.4382 17.8607 13.8978 17.4013 13.8978 16.8364C13.8978 16.4758 13.7085 16.1477 13.4101 15.964V15.513C15.9748 15.2591 16.0048 12.9783 15.9997 12.7791ZM13.4101 13.7073V8.01362C13.4101 8.01362 13.5503 8.01362 13.8841 8.01362C14.2179 8.01362 14.2033 8.36569 14.2033 8.36569V12.8193C14.2033 12.8233 14.2529 13.5519 13.4101 13.7073ZM7.58701 16.297H6.14987V8.18781C6.14987 7.79166 6.47214 7.46924 6.86844 7.46924C7.26474 7.46924 7.58701 7.79166 7.58701 8.18781V16.297ZM9.8272 16.297H8.39021V8.18781C8.39021 7.79166 8.71263 7.46924 9.10878 7.46924C9.50493 7.46924 9.82735 7.79166 9.82735 8.18781L9.8272 16.297ZM12.0677 16.297H10.6307V8.18781C10.6307 7.79166 10.953 7.46924 11.3491 7.46924C11.7453 7.46924 12.0679 7.79166 12.0679 8.18781V16.297H12.0677ZM4.69891 6.21459C4.63409 6.09063 4.49983 5.72136 4.7754 5.28281C5.08093 4.8137 5.8657 4.94365 5.8657 4.94365C5.8657 4.94365 5.54512 4.16257 6.15479 3.67779C6.89409 3.16536 7.55537 4.04613 7.55537 4.04613L7.71819 3.64799C7.85321 3.31758 8.17102 3.10391 8.52784 3.10391C8.92845 3.10391 9.27698 3.37472 9.37544 3.76242L9.48481 4.19344C9.48481 4.19344 10.17 3.49284 10.7986 3.87809C11.3359 4.22048 11.2941 4.88728 11.2941 4.88728C11.2941 4.88728 11.9238 4.40818 12.5139 4.6389C13.1859 4.9478 13.1918 5.5676 13.1918 5.5676C14.3855 5.16454 14.3435 6.18479 14.3395 6.21443L4.69891 6.21459ZM7.28748 8.18781V15.9974H6.44925V8.18781C6.44925 7.95663 6.63726 7.76877 6.86829 7.76877C7.09931 7.76877 7.28748 7.95663 7.28748 8.18781ZM9.52782 8.18781V15.9974H8.68975V8.18781C8.68975 7.95663 8.87776 7.76877 9.10878 7.76877C9.33981 7.76877 9.52782 7.95663 9.52782 8.18781ZM11.7682 8.18781V15.9974H10.9301V8.18781C10.9301 7.95663 11.1181 7.76877 11.3491 7.76877C11.5802 7.76893 11.7682 7.95663 11.7682 8.18781Z" fill="#9B99F7"/>
</svg>
