<svg width="20" height="21" viewBox="0 0 20 21" fill="none" xmlns="http://www.w3.org/2000/svg">
<path d="M10.1459 4.5C10.1051 4.76699 10.1036 5.00918 10.1663 5.21635C10.1955 5.31993 10.2437 5.42352 10.2889 5.55191C10.3356 5.67884 10.372 5.83203 10.372 5.98522C10.372 6.06254 10.3662 6.13549 10.3531 6.21135C10.3399 6.28576 10.3166 6.36746 10.286 6.43749L10.2116 6.59506C10.194 6.63883 10.1795 6.68843 10.1678 6.74387C10.1211 6.96563 10.1211 7.20782 10.1444 7.47773C9.95478 7.28369 9.83952 7.01232 9.82347 6.72199C9.82056 6.6505 9.82202 6.57318 9.83806 6.49293C9.85265 6.41123 9.88329 6.33974 9.89642 6.2916C9.92414 6.19968 9.9329 6.09464 9.9329 5.98959C9.93436 5.88601 9.91539 5.7868 9.88913 5.66862C9.86287 5.55191 9.82639 5.41185 9.82347 5.26157C9.8191 4.95957 9.94311 4.68091 10.1459 4.5Z" fill="#85A600"/>
<path d="M11.5523 5.36517C11.5114 5.63216 11.51 5.87435 11.5727 6.08152C11.6019 6.18511 11.65 6.28869 11.6953 6.41708C11.7419 6.54401 11.7784 6.6972 11.7784 6.85039C11.7784 6.92771 11.7726 7.00066 11.7594 7.07653C11.7463 7.15094 11.723 7.23264 11.6923 7.30267L11.6179 7.46023C11.6004 7.504 11.5858 7.55361 11.5742 7.60905C11.5275 7.83081 11.5275 8.07299 11.5508 8.3429C11.3612 8.14886 11.2459 7.87749 11.2298 7.58716C11.2269 7.51567 11.2284 7.43835 11.2444 7.35811C11.259 7.2764 11.2897 7.20492 11.3028 7.15677C11.3305 7.06486 11.3393 6.95981 11.3393 6.85477C11.3407 6.75118 11.3218 6.65197 11.2955 6.5338C11.2692 6.41708 11.2328 6.27702 11.2298 6.12675C11.2255 5.82474 11.3509 5.54608 11.5523 5.36517Z" fill="#85A600"/>
<path d="M8.64456 5.37097C8.60371 5.63796 8.60225 5.88015 8.66499 6.08732C8.69417 6.1909 8.74231 6.29449 8.78754 6.42288C8.83423 6.54981 8.8707 6.703 8.8707 6.85619C8.8707 6.93351 8.86486 7.00646 8.85173 7.08233C8.8386 7.15673 8.81526 7.23843 8.78462 7.30846L8.71021 7.46603C8.69271 7.5098 8.67812 7.5594 8.66645 7.61485C8.61976 7.83661 8.61976 8.07879 8.6431 8.3487C8.45344 8.15466 8.33818 7.88329 8.32213 7.59296C8.31921 7.52147 8.32067 7.44415 8.33672 7.3639C8.35131 7.2822 8.38195 7.21071 8.39508 7.16257C8.4228 7.07065 8.43155 6.96561 8.43155 6.86057C8.43301 6.75698 8.41405 6.65777 8.38779 6.5396C8.36152 6.42288 8.32505 6.28282 8.32213 6.13255C8.31776 5.832 8.44323 5.55334 8.64456 5.37097Z" fill="#85A600"/>
<path d="M16.2386 12.727H15.655V11.6853C15.655 10.6276 14.8147 9.75076 13.7423 9.68802L13.6446 9.68219H6.37897C6.18347 9.68073 5.50068 9.7172 4.94044 10.2701C4.55819 10.6495 4.34664 11.1514 4.34664 11.6853V12.727H3.76306V11.6853C3.76306 10.9938 4.03589 10.3446 4.53047 9.85434C5.25266 9.14237 6.13095 9.09714 6.38189 9.0986H14.0516V9.13508C15.2976 9.33933 16.2386 10.4102 16.2386 11.6839V12.727Z" fill="#85A600"/>
<path d="M7.31399 9.3905L6.21102 11.3236C6.19351 11.3557 6.23436 11.3878 6.26062 11.363L8.3513 9.3905H7.31399Z" fill="#85A600"/>
<path d="M7.32149 9.40357C7.15371 9.85438 6.97134 10.2381 6.76709 10.6057C6.66642 10.7896 6.54241 10.9559 6.41548 11.1251L6.32211 11.255C6.30606 11.2769 6.29147 11.2987 6.27688 11.3206C6.27105 11.3294 6.25792 11.3498 6.25792 11.3484C6.26083 11.3396 6.255 11.3265 6.24916 11.325C6.24478 11.3221 6.23165 11.3221 6.22728 11.3265C6.22728 11.3265 6.24478 11.3104 6.25208 11.3046L6.3119 11.2506C6.35275 11.2156 6.39068 11.1762 6.43007 11.1397C6.73937 10.8377 6.99906 10.4817 7.31128 10.1826C7.61037 9.86897 7.92404 9.57134 8.25814 9.2956L8.35006 9.52612C8.02909 9.50277 7.6979 9.46046 7.32149 9.40357ZM7.3069 9.3773C7.62204 9.3204 7.98386 9.27664 8.35152 9.25621L8.67395 9.23724L8.44343 9.48673C8.14872 9.80478 7.83213 10.0995 7.5024 10.3796C7.18435 10.6729 6.81378 10.9107 6.49427 11.2025C6.45487 11.2389 6.41402 11.2754 6.37609 11.3133L6.31773 11.3702C6.30606 11.3819 6.3046 11.3848 6.28272 11.4023C6.25646 11.4242 6.21123 11.4228 6.18643 11.4009C6.15871 11.3834 6.14412 11.3381 6.15871 11.3046L6.17913 11.2608C6.1908 11.236 6.20247 11.2112 6.21415 11.1864L6.28126 11.0347C6.3688 10.829 6.46071 10.6203 6.57305 10.4278C6.79919 10.047 7.04721 9.67785 7.3069 9.3773Z" fill="#85A600"/>
<path d="M9.91811 9.45898L8.81514 11.3921C8.79763 11.4242 8.83848 11.4563 8.86475 11.4315L10.9554 9.45898H9.91811Z" fill="#85A600"/>
<path d="M9.9255 9.47211C9.75772 9.92292 9.57535 10.3066 9.37109 10.6743C9.27043 10.8581 9.14642 11.0244 9.01949 11.1937L8.92611 11.3235C8.91006 11.3454 8.89548 11.3673 8.88089 11.3892C8.87505 11.3979 8.86192 11.4184 8.86192 11.4169C8.86484 11.4081 8.859 11.395 8.85317 11.3936C8.84879 11.3906 8.83566 11.3906 8.83128 11.395C8.83128 11.395 8.84879 11.379 8.85608 11.3731L8.9159 11.3191C8.95675 11.2841 8.99468 11.2447 9.03408 11.2083C9.34337 10.9063 9.60307 10.5503 9.91528 10.2512C10.2144 9.93751 10.528 9.63989 10.8621 9.36414L10.9541 9.59466C10.6331 9.57132 10.3019 9.52901 9.9255 9.47211ZM9.91091 9.44585C10.226 9.38895 10.5879 9.34518 10.9555 9.32475L11.2779 9.30579L11.0474 9.55527C10.7527 9.87332 10.4361 10.168 10.1064 10.4481C9.78836 10.7414 9.41778 10.9792 9.09827 11.271C9.05888 11.3075 9.01803 11.3439 8.98009 11.3819L8.92174 11.4388C8.91006 11.4505 8.90861 11.4534 8.88672 11.4709C8.86046 11.4928 8.81523 11.4913 8.79043 11.4694C8.76271 11.4519 8.74812 11.4067 8.76271 11.3731L8.78314 11.3294C8.79481 11.3046 8.80648 11.2798 8.81815 11.255L8.88526 11.1032C8.9728 10.8975 9.06471 10.6889 9.17705 10.4963C9.40465 10.1155 9.65121 9.74639 9.91091 9.44585Z" fill="#85A600"/>
<path d="M12.8247 9.45898L11.7218 11.3921C11.7043 11.4242 11.7451 11.4563 11.7714 11.4315L13.862 9.45898H12.8247Z" fill="#85A600"/>
<path d="M12.8317 9.47211C12.664 9.92292 12.4816 10.3066 12.2773 10.6743C12.1767 10.8581 12.0527 11.0244 11.9257 11.1937L11.8324 11.3235C11.8163 11.3454 11.8017 11.3673 11.7871 11.3892C11.7813 11.3979 11.7682 11.4184 11.7682 11.4169C11.7711 11.4081 11.7653 11.395 11.7594 11.3936C11.755 11.3906 11.7419 11.3906 11.7375 11.395C11.7375 11.395 11.755 11.379 11.7623 11.3731L11.8222 11.3191C11.863 11.2841 11.9009 11.2447 11.9403 11.2083C12.2496 10.9063 12.5093 10.5503 12.8215 10.2512C13.1206 9.93751 13.4343 9.63989 13.7684 9.36414L13.8603 9.59466C13.5379 9.57132 13.2067 9.52901 12.8317 9.47211ZM12.8172 9.44585C13.1323 9.38895 13.4941 9.34518 13.8618 9.32475L14.1842 9.30579L13.9537 9.55527C13.659 9.87332 13.3424 10.168 13.0127 10.4481C12.6946 10.7414 12.324 10.9792 12.0045 11.271C11.9651 11.3075 11.9243 11.3439 11.8863 11.3819L11.828 11.4388C11.8163 11.4505 11.8149 11.4534 11.793 11.4709C11.7667 11.4928 11.7215 11.4913 11.6967 11.4694C11.669 11.4519 11.6544 11.4067 11.669 11.3731L11.6894 11.3294C11.7011 11.3046 11.7127 11.2798 11.7244 11.255L11.7915 11.1032C11.879 10.8975 11.971 10.6889 12.0833 10.4963C12.3094 10.1155 12.556 9.74639 12.8172 9.44585Z" fill="#85A600"/>
<path d="M16.583 12.3054H16.0738H3.92797H3.42026C3.24372 12.3054 3.11242 12.4717 3.15618 12.6439L3.87691 15.5283C3.90755 15.6493 4.01551 15.734 4.14098 15.734H15.8608C15.9862 15.734 16.0942 15.6493 16.1248 15.5283L16.8456 12.6439C16.8893 12.4717 16.7595 12.3054 16.583 12.3054ZM16.4619 12.8934L15.782 15.3765C15.7528 15.4816 15.6507 15.5545 15.5325 15.5545H4.4707C4.35253 15.5545 4.2504 15.4816 4.22122 15.3765L3.53989 12.8934C3.49904 12.746 3.62159 12.6016 3.78937 12.6016H4.26937H15.7324H16.2124C16.3787 12.603 16.5027 12.746 16.4619 12.8934Z" fill="#85A600"/>
<path d="M15.8606 15.8798H4.14083C3.94825 15.8798 3.78193 15.75 3.73524 15.5632L3.01306 12.6789C2.98096 12.5534 3.00868 12.4221 3.08893 12.32C3.16917 12.2178 3.2888 12.1595 3.41865 12.1595H16.5813C16.7112 12.1595 16.8308 12.2178 16.9111 12.32C16.9913 12.4221 17.019 12.5534 16.9869 12.6789L16.2662 15.5632C16.221 15.75 16.0532 15.8798 15.8606 15.8798ZM15.8169 15.588H15.8606C15.919 15.588 15.9686 15.5486 15.9832 15.4917L16.7039 12.6074C16.7127 12.5695 16.7054 12.5301 16.6806 12.4994C16.6558 12.4688 16.6193 12.4513 16.5813 12.4513H3.42011C3.38072 12.4513 3.34424 12.4688 3.3209 12.4994C3.2961 12.5301 3.2888 12.5695 3.29756 12.6074L4.01828 15.4917C4.03287 15.5486 4.08248 15.588 4.14083 15.588H4.1846C4.135 15.5413 4.09852 15.483 4.08102 15.4144L3.39968 12.9327C3.36905 12.8233 3.39239 12.7066 3.46242 12.6147C3.53829 12.5155 3.66084 12.4571 3.78923 12.4571H16.2108C16.3406 12.4571 16.4617 12.5169 16.5376 12.6147C16.6076 12.7066 16.631 12.8219 16.6003 12.9327L15.919 15.4159C15.9029 15.483 15.8665 15.5413 15.8169 15.588ZM3.78923 12.7489C3.74983 12.7489 3.71482 12.765 3.69439 12.7927C3.68418 12.8058 3.67251 12.8291 3.68126 12.8569L4.3626 15.34C4.37427 15.3809 4.41949 15.41 4.47202 15.41H15.5324C15.5849 15.41 15.6301 15.3809 15.6403 15.34L16.3217 12.8569C16.3289 12.8291 16.3187 12.8073 16.3085 12.7927C16.2881 12.765 16.2531 12.7489 16.2137 12.7489H3.78923Z" fill="#85A600"/>
<path d="M15.3399 12.9634H4.69681H4.25182C4.09718 12.9634 3.98192 13.0743 4.01985 13.1881L4.65158 15.1037C4.67784 15.1839 4.77413 15.2408 4.88355 15.2408H15.1546C15.264 15.2408 15.3603 15.1839 15.3866 15.1037L16.0183 13.1881C16.0562 13.0743 15.9424 12.9634 15.7863 12.9634H15.3399Z" fill="#85A600"/>
</svg>
