<svg width="20" height="21" viewBox="0 0 20 21" fill="none" xmlns="http://www.w3.org/2000/svg">
<path d="M15.4147 14.5435C15.4548 14.4331 15.4816 14.3194 15.4816 14.2024V11.7676C15.4816 11.7642 15.4816 11.7609 15.4816 11.7609C15.4816 11.4398 15.3143 10.9783 14.5819 10.5402C14.5986 10.4699 14.6087 10.3963 14.6087 10.3194V8.29602C14.6087 8.29267 14.6087 8.28933 14.6087 8.28933C14.6087 7.94485 14.398 7.46325 13.4682 7.05188C13.4715 7.02846 13.4749 7.0084 13.4749 6.98499V5.49001C13.4749 5.47663 13.4682 5.4666 13.4682 5.45322C13.4414 4.89135 12.7324 4.43316 11.5819 4.20908C11.8428 3.72078 11.7692 3.31276 11.6655 3.07196C11.5618 2.82781 11.3578 2.64052 11.1037 2.55356C10.6622 2.40306 10.2876 2.60039 10.0736 2.76761C9.86286 2.60373 9.48828 2.40306 9.04346 2.55356C8.79263 2.64052 8.58861 2.82781 8.48159 3.07196C8.37791 3.30941 8.30433 3.71744 8.5652 4.20908C7.4147 4.42981 6.70568 4.89135 6.67892 5.45322C6.67558 5.4666 6.67223 5.47663 6.67223 5.49001V6.98499C6.67223 7.0084 6.67892 7.02846 6.67892 7.05188C5.7525 7.46325 5.53846 7.94819 5.53846 8.28933C5.53846 8.29267 5.53846 8.29602 5.53846 8.29602V10.3194C5.53846 10.3963 5.54849 10.4699 5.56521 10.5402C4.83277 10.9783 4.66555 11.4398 4.66555 11.7609C4.66555 11.7642 4.66555 11.7676 4.66555 11.7743V14.2057C4.66555 14.3228 4.69231 14.4398 4.73578 14.5502C4.25084 14.8378 4 15.1656 4 15.5301C4 16.8077 7.12708 17.5 10.0702 17.5C13.01 17.5 16.1371 16.811 16.1371 15.5301C16.1505 15.1622 15.8996 14.8311 15.4147 14.5435ZM10.1204 3.3462C10.1137 3.3462 10.1037 3.3462 10.0936 3.3462C10.1037 3.3462 10.1103 3.3462 10.1204 3.3462ZM7.21404 5.35957C7.21738 5.35289 7.22407 5.34285 7.22741 5.33616C7.23076 5.33282 7.2341 5.32947 7.2341 5.32278C7.24414 5.30941 7.25417 5.29937 7.2642 5.286C7.27089 5.27596 7.28093 5.26593 7.29096 5.2559C7.29765 5.24921 7.30099 5.24586 7.30768 5.24252C7.31103 5.23917 7.31437 5.23583 7.31437 5.23583C7.32106 5.22914 7.33109 5.22245 7.33778 5.21576C7.34781 5.20573 7.36119 5.1957 7.37457 5.18566C7.38795 5.17563 7.40133 5.16559 7.4147 5.15556C7.42808 5.14553 7.44146 5.13549 7.45818 5.12546C7.5351 5.07529 7.62541 5.02513 7.72908 4.9783C7.74246 4.97162 7.75584 4.96493 7.77256 4.95824C7.82607 4.93483 7.88627 4.91142 7.94982 4.888C7.97323 4.87797 7.99664 4.87128 8.0234 4.86125C8.15049 4.81777 8.28761 4.77764 8.43811 4.74085C8.46152 4.73416 8.48159 4.73081 8.505 4.72413C8.62875 4.69737 8.75918 4.67061 8.89965 4.65055C8.92975 4.68399 8.95985 4.71409 8.99329 4.74754C9.01671 4.7676 9.03677 4.79101 9.06018 4.81443C9.09363 4.84787 9.13042 4.88131 9.17055 4.91476L9.92306 5.54018C9.96988 5.57696 10.0267 5.59703 10.0802 5.59703C10.1338 5.59703 10.1839 5.58031 10.2307 5.54686C10.2307 5.54686 10.2408 5.54018 10.2575 5.5268C10.2608 5.52345 10.2675 5.52011 10.2742 5.51342C10.2809 5.51008 10.2876 5.50339 10.2943 5.4967C10.3077 5.48666 10.3244 5.47329 10.3411 5.45656C10.3545 5.44653 10.3679 5.43315 10.3812 5.42312C10.3913 5.41643 10.4013 5.4064 10.4113 5.39971C10.4314 5.38299 10.4548 5.36626 10.4749 5.3462C10.4816 5.34285 10.4849 5.33616 10.4916 5.33282C10.5552 5.27931 10.6221 5.2258 10.6856 5.17228C10.7023 5.15891 10.719 5.14218 10.7391 5.12881C10.7458 5.12546 10.7491 5.11877 10.7558 5.11543C10.7659 5.10539 10.7792 5.09871 10.7893 5.08867C10.7993 5.07864 10.8093 5.07195 10.8194 5.06192C10.8461 5.04185 10.8695 5.02178 10.8896 5.00172C10.8996 4.99503 10.9063 4.98834 10.913 4.98165C10.9632 4.94152 10.9966 4.91476 10.9966 4.91142C11.0602 4.8579 11.1204 4.80105 11.1739 4.74754C11.194 4.72412 11.2174 4.70406 11.2374 4.68399C11.2475 4.67396 11.2575 4.66392 11.2675 4.65055C11.4013 4.67061 11.5284 4.69737 11.6488 4.72413C11.6789 4.73081 11.709 4.7375 11.7391 4.74419C11.8863 4.77764 12.02 4.81777 12.1438 4.86125C12.1672 4.86794 12.194 4.87797 12.2174 4.888C12.2274 4.89135 12.2408 4.89804 12.2508 4.90138C12.2742 4.91142 12.2976 4.9181 12.3177 4.92814C12.3411 4.93817 12.3612 4.94486 12.3812 4.95489C12.4013 4.96493 12.4214 4.97162 12.4414 4.98165C12.5317 5.02178 12.612 5.06526 12.6789 5.10874C12.7324 5.14218 12.7792 5.17563 12.8194 5.21242C12.8261 5.21576 12.8294 5.22245 12.8361 5.2258C12.8428 5.22914 12.8461 5.23583 12.8528 5.23917C12.8595 5.24252 12.8628 5.24921 12.8662 5.25255C12.9431 5.32947 12.9832 5.4064 12.9832 5.47663C12.9832 5.85456 11.8528 6.40305 10.0769 6.40305C8.30433 6.40305 7.17725 5.85456 7.17725 5.47663C7.17725 5.44319 7.19062 5.40305 7.21404 5.35957ZM6.89297 7.49669C6.91638 7.52345 6.94313 7.5502 6.96989 7.57696C6.99665 7.60371 7.02675 7.62712 7.05685 7.65388C7.07691 7.6706 7.10032 7.68733 7.12039 7.70405C7.1438 7.72077 7.16387 7.73749 7.18728 7.75087C7.2341 7.78097 7.28427 7.81107 7.33778 7.84117C7.36454 7.85455 7.39129 7.86793 7.41805 7.88465C7.48828 7.91809 7.55852 7.95154 7.63544 7.98498C7.65216 7.99167 7.66554 7.99836 7.68226 8.00505C7.71236 8.01843 7.74581 8.02846 7.77591 8.04184C7.80935 8.05187 7.83945 8.06525 7.8729 8.07528C7.88962 8.08197 7.90634 8.08532 7.92306 8.09201C8.10701 8.15221 8.30433 8.20237 8.51169 8.24585C8.54848 8.25254 8.58861 8.26257 8.6254 8.26926C8.81269 8.30605 9.00667 8.33281 9.204 8.35287C9.21068 8.35287 9.22072 8.35622 9.23075 8.35622C9.50834 8.38632 9.79262 8.3997 10.0769 8.3997C10.3612 8.3997 10.6522 8.38297 10.9331 8.35622C11.1338 8.33615 11.3344 8.30605 11.5251 8.26926C11.5652 8.26257 11.602 8.25589 11.6388 8.24585C12.3545 8.0987 12.9598 7.84452 13.2642 7.49669C13.3143 7.5201 13.3612 7.54017 13.408 7.56358C13.4381 7.5803 13.4682 7.59368 13.495 7.6104C13.5685 7.65054 13.6354 7.69067 13.6956 7.7308C13.719 7.74753 13.7424 7.76425 13.7659 7.78097C13.7893 7.79769 13.8093 7.81441 13.8294 7.83114C13.8595 7.85789 13.8896 7.8813 13.913 7.90806C13.9297 7.92478 13.9465 7.9415 13.9598 7.95823C13.9766 7.97495 13.9899 7.99167 14.0033 8.00839C14.0535 8.07528 14.0869 8.14217 14.1036 8.20906C14.1103 8.23582 14.1103 8.25923 14.1137 8.28264V8.28599V8.29267C14.1137 8.33615 14.1036 8.37963 14.0869 8.42311C14.0735 8.45655 14.0568 8.49334 14.0334 8.53013C14.02 8.54685 14.01 8.56358 13.9966 8.58364C13.9899 8.59368 13.9832 8.60037 13.9732 8.6104C13.5853 9.06859 12.4013 9.52009 10.6889 9.61374C10.6655 9.61374 10.6421 9.6104 10.6221 9.6104C10.592 9.60705 10.5619 9.60705 10.5317 9.60705C10.4849 9.60705 10.4414 9.60371 10.3946 9.60371C10.3879 9.60371 10.3812 9.60371 10.3746 9.60371C10.0702 9.59702 9.75918 9.60036 9.46486 9.61708C8.96988 9.59033 8.52172 9.53347 8.12373 9.45655C7.82942 9.39969 7.5652 9.32946 7.32775 9.25588C6.8127 9.08866 6.43812 8.8813 6.23076 8.6706C6.22073 8.66057 6.21404 8.65388 6.20401 8.64384C6.18728 8.62712 6.17391 8.60705 6.16053 8.59033C6.14715 8.57361 6.13377 8.55689 6.12374 8.53682C6.11036 8.51675 6.09698 8.49669 6.09029 8.47662C6.0836 8.4599 6.07692 8.44652 6.07023 8.43314C6.06688 8.42311 6.06354 8.41642 6.06019 8.40639C6.05016 8.37294 6.04347 8.33615 6.04347 8.30271V8.29602V8.29267C6.04682 8.02177 6.3612 7.73415 6.89297 7.49669ZM5.19732 11.607C5.20066 11.6004 5.20401 11.5903 5.20735 11.5836C5.21739 11.5602 5.22742 11.5335 5.2408 11.5101C5.25418 11.4866 5.2709 11.4599 5.28762 11.4365C5.31103 11.403 5.33779 11.3696 5.36454 11.3361C5.38796 11.3127 5.41137 11.286 5.43478 11.2626C5.44147 11.2559 5.4515 11.2458 5.46153 11.2392C5.47157 11.2325 5.47826 11.2224 5.48829 11.2157C5.50167 11.2024 5.51839 11.189 5.53177 11.179C5.5418 11.1723 5.54849 11.1656 5.55852 11.1555C5.57525 11.1422 5.59197 11.1288 5.60869 11.1188C5.61872 11.1121 5.62876 11.102 5.64213 11.0953C5.66555 11.0786 5.68561 11.0652 5.70902 11.0485C5.74581 11.0251 5.7826 11.0017 5.81939 10.9783C5.83946 11.0017 5.86287 11.0251 5.88628 11.0485C5.97993 11.1422 6.09029 11.2291 6.21738 11.3127C6.24748 11.3328 6.28093 11.3529 6.31437 11.3729C6.3311 11.383 6.34782 11.393 6.36454 11.403C6.41471 11.4331 6.46822 11.4599 6.52507 11.4866C6.56186 11.5034 6.59865 11.5234 6.63879 11.5402C6.71571 11.5769 6.79598 11.6104 6.87959 11.6405C6.91972 11.6572 6.9632 11.6739 7.00668 11.6873C7.05016 11.704 7.09363 11.7174 7.13711 11.7341C7.97657 12.0117 9.04681 12.1589 10.0869 12.1589C11.3746 12.1589 12.7057 11.9381 13.5886 11.5134C13.6254 11.4967 13.6622 11.4766 13.699 11.4599C13.9331 11.3395 14.1304 11.2024 14.2809 11.0485C14.3043 11.0251 14.3277 11.0017 14.3478 10.9783C14.3745 10.995 14.398 11.0084 14.4214 11.0251C14.4448 11.0418 14.4682 11.0552 14.4916 11.0719C14.5953 11.1422 14.6822 11.2157 14.7558 11.2893C14.7725 11.306 14.7893 11.3228 14.8026 11.3395C14.9264 11.48 14.9933 11.6204 14.9933 11.7575V11.7642C14.9933 11.801 14.9866 11.8378 14.9799 11.8746C14.9732 11.9047 14.9632 11.9348 14.9464 11.9682C14.9398 11.9883 14.9297 12.005 14.9197 12.0251C14.913 12.0385 14.9063 12.0485 14.8963 12.0619C14.8862 12.0753 14.8796 12.0886 14.8729 12.0987C14.8695 12.1054 14.8628 12.1121 14.8595 12.1187C14.8495 12.1321 14.8428 12.1422 14.8327 12.1555C14.8194 12.1756 14.8026 12.1923 14.7859 12.2124C14.7759 12.2258 14.7625 12.2358 14.7525 12.2492C14.1337 12.8713 12.3879 13.4264 10.0903 13.4264C7.81604 13.4264 6.0836 12.8846 5.44816 12.2692C5.44147 12.2626 5.43478 12.2559 5.42809 12.2525C5.2709 12.092 5.18394 11.9315 5.1806 11.7709V11.7609V11.7575C5.17391 11.7074 5.1806 11.6572 5.19732 11.607ZM14.0702 14.3127C14.0568 14.3529 14.0401 14.3963 14.02 14.4432C14.02 14.4465 14.0133 14.4599 14.0033 14.4766C13.9966 14.4933 13.9832 14.5167 13.9732 14.5435C13.9632 14.5636 13.9531 14.587 13.9431 14.6104C13.9364 14.6204 13.9331 14.6338 13.9264 14.6438C13.9197 14.6539 13.9164 14.6672 13.9097 14.6773C13.9063 14.6873 13.8996 14.7007 13.8929 14.7107C13.8896 14.7207 13.8829 14.7308 13.8796 14.7408C13.8762 14.7442 13.8762 14.7508 13.8729 14.7542C13.8628 14.7743 13.8562 14.791 13.8495 14.801C13.8461 14.8044 13.8461 14.8077 13.8461 14.811L13.4515 14.7074C13.3846 14.6906 13.3277 14.6672 13.2776 14.6438C13.2174 14.6171 13.1672 14.587 13.1271 14.5535C12.9832 14.4432 12.9498 14.3161 12.9498 14.2258C12.9498 14.1856 12.9565 14.1455 12.9732 14.1087C12.9766 14.0987 12.9832 14.0886 12.9866 14.0786C12.9899 14.0753 12.9899 14.0719 12.9933 14.0686C13.0067 14.0485 13.02 14.0284 13.0368 14.0117C13.0735 13.9783 13.1103 13.9549 13.1505 13.9415C13.1605 13.9381 13.1705 13.9348 13.1806 13.9315C13.1873 13.9315 13.1906 13.9281 13.1939 13.9281C13.2642 13.9147 13.3311 13.9248 13.3812 13.9348C13.4147 13.9415 13.4348 13.9515 13.4448 13.9549C13.4448 13.9549 13.4481 13.9549 13.4515 13.9582C13.4515 13.9582 13.4515 13.9582 13.4515 13.9549V13.9515V13.9482C13.4515 13.9482 13.4515 13.9448 13.4515 13.9415C13.4515 13.9415 13.4515 13.9381 13.4548 13.9348C13.4582 13.9281 13.4615 13.9181 13.4648 13.908C13.4648 13.9047 13.4682 13.9014 13.4715 13.898C13.5016 13.8311 13.5652 13.7308 13.6789 13.6873C13.7023 13.6806 13.7257 13.6739 13.7525 13.6706C13.8327 13.6605 13.9164 13.6873 13.9766 13.7408C14.0669 13.8311 14.1739 13.9983 14.0702 14.3127ZM12.3679 14.6706C12.3645 14.6806 12.3612 14.694 12.3578 14.704C12.3311 14.7743 12.2909 14.8512 12.2307 14.9381C12.2307 14.9381 11.9966 15.2692 11.9933 15.2692L11.622 15.0987C11.602 15.0886 11.5786 15.0786 11.5618 15.0686C11.5418 15.0585 11.5251 15.0485 11.5083 15.0351C11.4548 15.0017 11.4113 14.9682 11.3746 14.9348C11.3578 14.9181 11.3411 14.9013 11.3244 14.8846C11.3144 14.8746 11.3043 14.8612 11.2976 14.8512C11.2475 14.7843 11.2241 14.7207 11.214 14.6639C11.2073 14.6338 11.2073 14.607 11.2073 14.5803C11.2073 14.5702 11.2073 14.5602 11.2107 14.5502C11.2107 14.5468 11.2107 14.5401 11.2107 14.5368C11.214 14.5167 11.2174 14.4967 11.2274 14.4766C11.2341 14.4565 11.2441 14.4398 11.2542 14.4231C11.2608 14.4164 11.2642 14.4064 11.2709 14.3997C11.2776 14.393 11.2809 14.3863 11.2876 14.383L11.2909 14.3796C11.2943 14.3763 11.2976 14.3729 11.301 14.3696C11.3077 14.3629 11.3144 14.3595 11.321 14.3529C11.3277 14.3495 11.3311 14.3462 11.3378 14.3428C11.515 14.2258 11.7157 14.3428 11.7491 14.3629C11.7491 14.3629 11.7525 14.3629 11.7525 14.3662C11.7525 14.3629 11.7558 14.3629 11.7558 14.3629C11.7592 14.3562 11.7659 14.3462 11.7759 14.3294C11.7792 14.3228 11.7826 14.3161 11.7893 14.3094C11.8026 14.2893 11.8194 14.2692 11.8394 14.2492C11.8428 14.2458 11.8461 14.2425 11.8495 14.2391C11.8562 14.2325 11.8628 14.2258 11.8695 14.2191C11.9264 14.1723 12.0033 14.1321 12.1003 14.1388C12.1271 14.1422 12.1505 14.1455 12.1739 14.1522C12.2073 14.1622 12.2374 14.1823 12.2642 14.2024C12.2709 14.209 12.2776 14.2157 12.2876 14.2224C12.2943 14.2291 12.301 14.2358 12.3077 14.2458C12.3712 14.3261 12.4348 14.4632 12.3679 14.6706ZM10.3946 15.1087L10.0802 15.3696L9.76587 15.1087C9.43142 14.8244 9.45818 14.587 9.51169 14.4599C9.51838 14.4432 9.52841 14.4231 9.54179 14.4064C9.55182 14.393 9.55851 14.383 9.57189 14.3729C9.60199 14.3395 9.64212 14.3161 9.6856 14.3027C9.88961 14.2358 10.0501 14.3997 10.0769 14.4298C10.0769 14.4298 10.0769 14.4298 10.0802 14.4264C10.0802 14.4264 10.0802 14.4231 10.0836 14.4231C10.0869 14.4164 10.097 14.4097 10.107 14.403C10.1103 14.3997 10.1137 14.3963 10.1204 14.393C10.1304 14.3863 10.1404 14.3763 10.1505 14.3696C10.1572 14.3662 10.1605 14.3629 10.1672 14.3562C10.1705 14.3529 10.1739 14.3529 10.1772 14.3495C10.1839 14.3462 10.1906 14.3428 10.1973 14.3361C10.2107 14.3294 10.2241 14.3194 10.2408 14.3127C10.3043 14.286 10.3846 14.2726 10.4715 14.3027C10.5485 14.3294 10.612 14.3863 10.6421 14.4599C10.7023 14.5903 10.7291 14.8244 10.3946 15.1087ZM8.78259 14.9248C8.71905 14.985 8.63544 15.0452 8.51503 15.102L8.1438 15.2726C8.1438 15.2726 8.09363 15.199 8.03678 15.1221C8.00667 15.0819 7.97657 15.0385 7.95316 15.005C7.92641 14.9682 7.90634 14.9415 7.90634 14.9415C7.65885 14.5803 7.74581 14.3595 7.82942 14.2492C7.83611 14.2425 7.8428 14.2325 7.84949 14.2258C7.85617 14.2191 7.86286 14.2124 7.8729 14.2057C7.89965 14.1823 7.92975 14.1656 7.9632 14.1555C7.98661 14.1488 8.01336 14.1422 8.03678 14.1422C8.13376 14.1355 8.21069 14.1756 8.26754 14.2224C8.27423 14.2291 8.28092 14.2358 8.28761 14.2425C8.29095 14.2458 8.2943 14.2492 8.29764 14.2525C8.31771 14.2726 8.33443 14.296 8.34781 14.3127C8.3545 14.3194 8.35784 14.3261 8.36119 14.3328C8.37122 14.3462 8.37791 14.3595 8.38126 14.3662C8.38126 14.3662 8.38126 14.3696 8.3846 14.3696H8.38794C8.42139 14.3495 8.62206 14.2291 8.79931 14.3495C8.806 14.3529 8.80935 14.3562 8.81604 14.3595C8.82273 14.3662 8.82941 14.3696 8.8361 14.3763C8.83945 14.3796 8.84279 14.383 8.84614 14.3863C8.84948 14.3863 8.84948 14.3896 8.84948 14.3896C8.85617 14.3963 8.85951 14.3997 8.8662 14.4064C8.87289 14.4131 8.87958 14.4231 8.88293 14.4298C8.89296 14.4465 8.90299 14.4632 8.90968 14.4833C8.91637 14.5034 8.92306 14.5234 8.92306 14.5435C8.92306 14.5535 8.9264 14.5602 8.9264 14.5702C8.93644 14.6639 8.91303 14.7943 8.78259 14.9248ZM6.69899 13.9616C6.70902 13.9582 6.73243 13.9482 6.76253 13.9415C6.80936 13.9281 6.87959 13.9181 6.94982 13.9348C6.95651 13.9348 6.95986 13.9348 6.9632 13.9381C6.97323 13.9415 6.98327 13.9448 6.98996 13.9448C7.03009 13.9582 7.06688 13.9816 7.10367 14.0151C7.1438 14.0519 7.17056 14.0987 7.18394 14.1522C7.19062 14.1789 7.19397 14.2057 7.19397 14.2325C7.19062 14.3696 7.1137 14.5937 6.68895 14.7107L6.29431 14.8144V14.811C6.29431 14.811 6.29431 14.8077 6.29096 14.8044C6.28427 14.791 6.27424 14.7709 6.26086 14.7408C6.25083 14.7241 6.24414 14.7007 6.23076 14.6806C6.22407 14.6639 6.21404 14.6472 6.20735 14.6304C6.17391 14.5602 6.14046 14.4933 6.12708 14.4632C6.12374 14.4565 6.12039 14.4498 6.12039 14.4498C6.11371 14.4298 6.10367 14.4131 6.09698 14.3963C6.09029 14.3796 6.08361 14.3595 6.07692 14.3428C5.95986 14.0151 6.07023 13.8378 6.16387 13.7542C6.22407 13.7007 6.30768 13.6739 6.38795 13.684C6.41471 13.6873 6.43812 13.694 6.46153 13.7007C6.57524 13.7408 6.63544 13.8411 6.66889 13.908C6.67223 13.9147 6.67558 13.9214 6.67558 13.9248C6.67892 13.9314 6.67892 13.9348 6.68226 13.9415C6.68226 13.9448 6.68561 13.9448 6.68561 13.9482C6.68561 13.9515 6.68561 13.9515 6.68895 13.9549C6.68895 13.9549 6.68895 13.9582 6.68895 13.9616V13.9649C6.68895 13.9649 6.68895 13.9682 6.68895 13.9716C6.69564 13.9616 6.69899 13.9616 6.69899 13.9616ZM10.0836 17.0017C6.62875 17.0017 4.50836 16.1421 4.50836 15.5268C4.50836 15.3528 4.68562 15.1555 5.00669 14.9682C5.74916 15.801 7.68226 16.3662 10.0802 16.3662C12.4816 16.3662 14.4147 15.801 15.1538 14.9682C15.1839 14.985 15.214 15.0017 15.2408 15.0217C15.2575 15.0351 15.2776 15.0452 15.2943 15.0585C15.3043 15.0652 15.311 15.0719 15.321 15.0753C15.3444 15.092 15.3712 15.112 15.3913 15.1288C15.408 15.1388 15.4214 15.1522 15.4347 15.1656C15.4548 15.1823 15.4749 15.2023 15.4916 15.2191C15.5986 15.3261 15.6521 15.4331 15.6521 15.5301C15.6521 16.1421 13.5351 17.0017 10.0836 17.0017Z" fill="#85A600"/>
</svg>
