<svg width="20" height="21" viewBox="0 0 20 21" fill="none" xmlns="http://www.w3.org/2000/svg">
<path d="M13.75 16.5H6.25C5.56071 16.5 5 15.9954 5 15.375V5.625C5 5.00464 5.56071 4.5 6.25 4.5H13.75C14.4393 4.5 15 5.00464 15 5.625V15.375C15 15.9954 14.4393 16.5 13.75 16.5ZM6.25 5.25C6.02029 5.25 5.83333 5.41826 5.83333 5.625V15.375C5.83333 15.5817 6.02029 15.75 6.25 15.75H13.75C13.9797 15.75 14.1667 15.5817 14.1667 15.375V5.625C14.1667 5.41826 13.9797 5.25 13.75 5.25H6.25Z" fill="#FF7E61"/>
<path d="M8.22371 10.7961C7.59483 10.7961 7.08337 10.3358 7.08337 9.76977C7.08337 9.20378 7.59483 8.74347 8.22371 8.74347C8.85258 8.74347 9.36404 9.20378 9.36404 9.76977C9.36404 10.3358 8.85258 10.7961 8.22371 10.7961ZM8.22371 9.49347C8.05446 9.49347 7.91671 9.61744 7.91671 9.76977C7.91671 9.92209 8.05446 10.0461 8.22371 10.0461C8.39296 10.0461 8.53071 9.92209 8.53071 9.76977C8.53071 9.61744 8.39296 9.49347 8.22371 9.49347Z" fill="#FF7E61"/>
<path d="M11.3596 10.3617C10.7307 10.3617 10.2192 9.90143 10.2192 9.33544C10.2192 8.76946 10.7307 8.30914 11.3596 8.30914C11.9884 8.30914 12.4999 8.76946 12.4999 9.33544C12.4999 9.90143 11.9884 10.3617 11.3596 10.3617ZM11.3596 9.05914C11.1903 9.05914 11.0526 9.18312 11.0526 9.33544C11.0526 9.48777 11.1903 9.61174 11.3596 9.61174C11.5288 9.61174 11.6666 9.48777 11.6666 9.33544C11.6666 9.18312 11.5288 9.05914 11.3596 9.05914Z" fill="#FF7E61"/>
<path d="M8.94743 10.1448C8.71735 10.1448 8.53076 9.97685 8.53076 9.76978V6.51328C8.53076 6.32814 8.68072 6.17086 8.88414 6.14266L12.0201 5.70834C12.1396 5.69221 12.2626 5.72319 12.3546 5.7944C12.447 5.86561 12.5001 5.96945 12.5001 6.07895V9.33545C12.5001 9.54253 12.3135 9.71045 12.0834 9.71045C11.8533 9.71045 11.6667 9.54253 11.6667 9.33545V6.51601L9.36405 6.83499V9.76981C9.36405 9.97689 9.17751 10.1448 8.94743 10.1448Z" fill="#FF7E61"/>
<path d="M8.94683 8.0899C8.74479 8.0899 8.56742 7.95734 8.53567 7.77187C8.50067 7.56715 8.65671 7.37579 8.88417 7.34433L12.0202 6.91019C12.2454 6.87944 12.4603 7.01894 12.4952 7.22384C12.5302 7.42855 12.3742 7.61992 12.1467 7.65138L9.01071 8.08552C8.98933 8.08844 8.968 8.0899 8.94683 8.0899Z" fill="#FF7E61"/>
<path d="M12.9166 12H7.08329C6.85321 12 6.66663 11.8321 6.66663 11.625C6.66663 11.4179 6.85321 11.25 7.08329 11.25H12.9166C13.1467 11.25 13.3333 11.4179 13.3333 11.625C13.3333 11.8321 13.1467 12 12.9166 12Z" fill="#FF7E61"/>
<path d="M12.9166 13.5H7.08329C6.85321 13.5 6.66663 13.3321 6.66663 13.125C6.66663 12.9179 6.85321 12.75 7.08329 12.75H12.9166C13.1467 12.75 13.3333 12.9179 13.3333 13.125C13.3333 13.3321 13.1467 13.5 12.9166 13.5Z" fill="#FF7E61"/>
<path d="M12.9166 15H7.08329C6.85321 15 6.66663 14.8321 6.66663 14.625C6.66663 14.4179 6.85321 14.25 7.08329 14.25H12.9166C13.1467 14.25 13.3333 14.4179 13.3333 14.625C13.3333 14.8321 13.1467 15 12.9166 15Z" fill="#FF7E61"/>
</svg>
