<svg width="20" height="21" viewBox="0 0 20 21" fill="none" xmlns="http://www.w3.org/2000/svg">
<path fill-rule="evenodd" clip-rule="evenodd" d="M7.24209 7.44127C7.51158 7.42365 7.78303 7.41517 8.0571 7.41517C11.5553 7.41517 14.7214 8.84812 17 11.1594C16.6744 14.7287 13.6688 17.5294 10.0147 17.5294C7.22904 17.5294 4.8199 15.902 3.68842 13.547C4.27047 11.1763 5.52659 9.06998 7.24209 7.44127ZM13.0157 13.8093C12.3305 12.8984 11.2408 12.3091 10.0147 12.3091C8.78858 12.3091 7.69886 12.8984 7.0137 13.8093C6.85188 14.0253 6.89494 14.3326 7.11093 14.4951C7.32692 14.6569 7.63426 14.6139 7.79608 14.3979C8.30245 13.7238 9.10832 13.2879 10.0147 13.2879C10.921 13.2879 11.7269 13.7238 12.2333 14.3979C12.3951 14.6139 12.7024 14.6569 12.9184 14.4951C13.1344 14.3326 13.1775 14.0253 13.0157 13.8093ZM5.69886 7.63638C4.5987 8.89315 3.72692 10.3542 3.14812 11.9555C3.0509 11.4902 3 11.008 3 10.5147C3 9.75188 3.12202 9.01713 3.3478 8.32936C4.09821 8.02529 4.8845 7.79168 5.69886 7.63638ZM8.31811 9.89413C8.18434 10.0729 7.97096 10.1884 7.73083 10.1884C7.4907 10.1884 7.27732 10.0729 7.14356 9.89413C6.98108 9.67814 6.67374 9.63507 6.45775 9.7969C6.24176 9.95938 6.19869 10.2667 6.36052 10.4827C6.67374 10.8984 7.17096 11.1672 7.73083 11.1672C8.2907 11.1672 8.78793 10.8984 9.10114 10.4827C9.26297 10.2667 9.2199 9.95938 9.00392 9.7969C8.78793 9.63507 8.48059 9.67814 8.31811 9.89413ZM12.8858 9.89413C12.752 10.0729 12.5387 10.1884 12.2985 10.1884C12.0584 10.1884 11.845 10.0729 11.7113 9.89413C11.5488 9.67814 11.2414 9.63507 11.0254 9.7969C10.8095 9.95938 10.7664 10.2667 10.9282 10.4827C11.2414 10.8984 11.7387 11.1672 12.2985 11.1672C12.8584 11.1672 13.3556 10.8984 13.6688 10.4827C13.8307 10.2667 13.7876 9.95938 13.5716 9.7969C13.3556 9.63507 13.0483 9.67814 12.8858 9.89413ZM9.3876 5.80212C12.2059 5.9522 14.7781 7.03279 16.8029 8.74176C16.893 9.0876 16.9576 9.44388 16.9941 9.80799C14.6966 7.78711 11.71 6.53099 8.43426 6.4416C8.7416 6.21452 9.06003 6.00049 9.3876 5.80212ZM7.61925 5.83083C7.34715 6.04095 7.08287 6.2615 6.82773 6.49184C5.81305 6.5832 4.83034 6.78679 3.89266 7.09021C3.98075 6.9323 4.07537 6.7783 4.1752 6.62822C5.2584 6.20865 6.41468 5.93458 7.61925 5.83083ZM13.2186 4.2739C14.4101 4.88728 15.4039 5.83214 16.0773 6.98581C14.5563 5.99657 12.8245 5.30489 10.9641 4.99233C11.6838 4.68499 12.4375 4.4429 13.2186 4.2739ZM5.43263 5.20506C6.48189 4.94405 7.57945 4.80506 8.70962 4.80506C8.85318 4.80506 8.99608 4.80701 9.13964 4.81158C9.9279 4.35742 10.7657 3.98026 11.6427 3.69054C11.1207 3.56591 10.5752 3.5 10.0147 3.5C8.26395 3.5 6.66199 4.14274 5.43263 5.20506Z" fill="#9B99F7"/>
</svg>
