<svg width="20" height="21" viewBox="0 0 20 21" fill="none" xmlns="http://www.w3.org/2000/svg">
<path d="M9.99984 17.5C6.13367 17.5 3 14.3656 3 10.5C3 6.63382 6.13367 3.5 9.99984 3.5C13.8659 3.5 17 6.63382 17 10.5C17 14.3656 13.8659 17.5 9.99984 17.5ZM6.67236 4.92893C5.45513 5.59487 5.01771 6.4316 5.01771 6.4316L7.94667 8.86604C8.25109 8.4854 8.57184 8.33342 8.57184 8.33342L6.67236 4.92893ZM9.90216 8.30636C8.69116 8.30636 7.70944 9.28853 7.70944 10.5008C7.70944 11.7112 8.69131 12.6926 9.90216 12.6926C11.1138 12.6926 12.0958 11.7112 12.0958 10.5008C12.0958 9.28869 11.1138 8.30636 9.90216 8.30636ZM12.0834 11.882C12.0834 11.882 11.6746 12.602 10.7182 12.9407L11.7676 16.5807C11.7676 16.5807 14.288 15.7407 15.5008 13.5005L12.0834 11.882ZM9.93918 11.8746C9.22238 11.8746 8.64247 11.2936 8.64247 10.5782C8.64247 9.86144 9.22238 9.28029 9.93918 9.28029C10.6569 9.28029 11.2374 9.86144 11.2374 10.5782C11.2374 11.2936 10.6569 11.8746 9.93918 11.8746ZM9.93964 9.96473C9.60131 9.96473 9.32738 10.2394 9.32738 10.5778C9.32738 10.9156 9.60131 11.19 9.93964 11.19C10.2786 11.19 10.5528 10.9156 10.5528 10.5778C10.5528 10.2393 10.2786 9.96473 9.93964 9.96473Z" fill="#FF7E61"/>
</svg>
