<svg width="20" height="21" viewBox="0 0 20 21" fill="none" xmlns="http://www.w3.org/2000/svg">
<path d="M6.89939 7.09829C7.22314 7.09829 7.48652 6.85064 7.48652 6.54621C7.48652 6.24285 7.22311 5.99609 6.89939 5.99609C6.57567 5.99609 6.31226 6.24288 6.31226 6.54621C6.31222 6.85064 6.57563 7.09829 6.89939 7.09829Z" fill="#85A600"/>
<path d="M7.60203 3.0623C7.73724 3.0623 7.84725 2.93667 7.84725 2.78223C7.84725 2.6266 7.73724 2.5 7.60203 2.5C7.46682 2.5 7.35681 2.6266 7.35681 2.78223C7.35681 2.9367 7.46682 3.0623 7.60203 3.0623Z" fill="#85A600"/>
<path d="M11.151 6.16065C11.3257 6.16065 11.5212 5.78613 11.5212 5.28491C11.5212 4.78456 11.3257 4.41071 11.151 4.41071C10.9757 4.41071 10.7797 4.78456 10.7797 5.28491C10.7797 5.78616 10.9757 6.16065 11.151 6.16065Z" fill="#85A600"/>
<path d="M6.10706 17.6804C6.04672 17.9068 6.18146 18.1402 6.40748 18.2004C6.44313 18.2099 6.47975 18.2148 6.51629 18.2148C6.70904 18.2148 6.87823 18.085 6.92773 17.8993L7.11994 17.185C6.85096 17.0743 6.59106 16.9476 6.3417 16.8058L6.10706 17.6804Z" fill="#85A600"/>
<path d="M9.07928 5.51289C9.2541 5.51289 9.39635 5.3702 9.39635 5.19481C9.39635 5.02048 9.2541 4.87866 9.07928 4.87866C8.90431 4.87866 8.76196 5.02048 8.76196 5.19481C8.76196 5.3702 8.90428 5.51289 9.07928 5.51289Z" fill="#85A600"/>
<path d="M12.934 3.02651C12.9815 3.02651 13.0343 2.96312 13.0343 2.87214C13.0343 2.78012 12.9815 2.716 12.934 2.716C12.8865 2.716 12.8335 2.78012 12.8335 2.87214C12.8335 2.96049 12.8866 3.02651 12.934 3.02651Z" fill="#85A600"/>
<path d="M16.053 7.90494H14.1981L16.4458 3.4095C16.4788 3.34351 16.4521 3.26334 16.3861 3.23036C16.3201 3.19742 16.2399 3.22409 16.2069 3.29007L13.8995 7.90494H3.94686C3.42475 7.90494 3 8.33013 3 8.85277C3 9.37538 3.42475 9.80057 3.94686 9.80057H4.39845H15.6014H16.053C16.5752 9.80057 17 9.37538 17 8.85277C17 8.33013 16.5752 7.90494 16.053 7.90494Z" fill="#85A600"/>
<path d="M4.47171 10.0676C4.02703 10.7804 3.79236 11.5793 3.79236 12.3827C3.79236 15.1902 6.57725 17.4742 10.0003 17.4742C10.9541 17.4742 11.8583 17.2966 12.6666 16.9799C12.6813 16.9742 12.6959 16.9683 12.7106 16.9625C14.7787 16.1356 16.2072 14.3935 16.2072 12.3827C16.2072 11.5778 15.9726 10.7789 15.528 10.0676H4.47171Z" fill="#85A600"/>
<path d="M13.633 16.82C13.3831 16.9608 13.1227 17.0862 12.8534 17.1958L13.0422 17.899C13.0923 18.0848 13.2616 18.2147 13.4537 18.2147C13.4902 18.2147 13.5268 18.2098 13.5624 18.2004C13.6717 18.1712 13.7633 18.1008 13.8203 18.002C13.8772 17.9035 13.8923 17.7893 13.8629 17.6805L13.633 16.82Z" fill="#85A600"/>
</svg>
