<svg width="20" height="21" viewBox="0 0 20 21" fill="none" xmlns="http://www.w3.org/2000/svg">
<path fill-rule="evenodd" clip-rule="evenodd" d="M7.36727 6.14936L11.4035 3.6449L11.9833 2.5L13.1429 3.69856L11.6042 3.91323L10.2662 4.73613C11.3366 5.36224 11.7603 7.25847 11.0467 8.09926C10.6453 8.58226 9.97635 8.99371 9.35195 9.38727C9.79795 10.2102 10.3108 11.0331 10.8906 11.8202C11.8495 12.0527 12.8084 12.2137 13.7896 12.339C14.4586 12.4105 15.1499 12.7504 14.9715 13.3765C14.6593 14.4141 14.2579 15.8989 13.9457 16.9364C13.6781 17.9203 11.8049 17.5089 12.0725 16.525C12.2955 15.7558 12.6523 14.5393 12.853 13.788C12.1617 13.6985 11.4927 13.5733 10.8237 13.4302C10.8014 13.4481 10.7568 13.4838 10.7345 13.5017C11.2028 14.271 11.4258 15.1117 10.7345 15.6663C9.97635 16.2745 8.95056 16.525 8.10317 17.0259C7.07737 17.6162 6.09618 16.2566 7.12197 15.6842C7.76867 15.3085 8.57146 15.1654 9.15126 14.7182C9.01746 14.3604 8.83906 14.0026 8.59376 13.6985C8.41536 13.5912 8.25926 13.4481 8.12546 13.2871C7.34497 12.2495 6.72058 11.1583 6.14078 10.0313C5.38259 8.58226 6.85438 7.47314 8.21466 8.08137C8.61606 7.83092 9.26275 7.43736 9.48575 7.15114C9.82025 6.75758 8.97286 6.00624 9.01746 5.52324L7.45647 6.48925C7.59027 7.31214 6.78748 8.0277 5.73939 8.0277C4.78049 8.0277 4 7.40159 4 6.63236C4 5.86313 4.78049 5.23702 5.73939 5.23702C6.49758 5.23702 7.12197 5.61269 7.36727 6.14936Z" fill="#FF7E61"/>
</svg>
