<svg width="20" height="21" viewBox="0 0 20 21" fill="none" xmlns="http://www.w3.org/2000/svg">
<path d="M8.02947 6.04409C7.12261 5.36394 5.89835 5.3186 4.99149 5.99875C4.08463 6.67889 3.76723 7.90316 4.17531 8.9007C4.81012 8.76467 5.62629 8.44727 6.39712 7.85781C7.16796 7.3137 7.71207 6.63355 8.02947 6.04409Z" fill="#FF7E61"/>
<path d="M14.7855 13.1629C14.6041 12.8002 14.6948 12.3921 14.9669 12.12L15.6017 11.4852C15.783 11.3039 15.783 11.0318 15.6017 10.8958C15.4203 10.7144 15.1482 10.7144 15.0122 10.8958L14.3774 11.5306C13.8333 12.0747 13.6973 12.8909 14.06 13.571L15.0576 15.6115C15.2389 16.0195 15.1482 16.473 14.7855 16.745C14.6041 16.8811 14.3321 16.9718 14.1053 16.9264C13.8786 16.8811 13.6519 16.745 13.5159 16.5637L13.0625 15.9742C13.1985 15.8382 13.2438 15.6568 13.1078 15.4754L12.8811 15.158C13.0171 15.022 13.0625 14.7953 12.9718 14.6139L8.8909 8.67397C9.07227 7.99382 8.98158 7.17765 8.52815 6.54285C8.12007 7.22299 7.57595 7.8578 6.80512 8.40191C6.03428 8.99137 5.26345 9.35412 4.53796 9.53549C5.03674 10.1703 5.76223 10.4877 6.48772 10.4877L11.022 15.9742C11.158 16.1556 11.3848 16.1556 11.5661 16.0649L11.7929 16.3823C11.9289 16.5183 12.1103 16.5637 12.2916 16.473L12.7451 17.0624C13.0171 17.4252 13.4252 17.6972 13.924 17.7426C14.0147 17.7426 14.1053 17.7426 14.196 17.7426C14.5588 17.7426 14.9669 17.6066 15.2843 17.3798C15.9644 16.8811 16.1911 15.9289 15.8284 15.158L14.7855 13.1629Z" fill="#FF7E61"/>
<path d="M15.9645 5.90809C15.9645 5.77206 15.9191 5.68137 15.8284 5.59069C15.7377 5.5 15.6017 5.5 15.4657 5.5L12.8811 6.18015C12.6998 6.22549 12.5637 6.36152 12.5637 6.54289V8.40196C12.473 8.40196 12.3824 8.35661 12.2917 8.35661C11.7022 8.35661 11.2488 8.81004 11.2488 9.3995C11.2488 9.98896 11.7022 10.4424 12.2917 10.4424C12.8811 10.4424 13.3346 9.98896 13.3346 9.3995C13.3346 9.35416 13.3346 9.35416 13.3346 9.30882V9.26347V6.86029L15.1029 6.40686V7.72181C15.0123 7.72181 14.9216 7.67647 14.8309 7.67647C14.2414 7.67647 13.788 8.1299 13.788 8.71936C13.788 9.30882 14.2414 9.76225 14.8309 9.76225C15.4203 9.76225 15.8738 9.30882 15.8738 8.71936C15.8738 8.71936 15.8738 8.71936 15.8738 8.67401V5.90809H15.9645Z" fill="#FF7E61"/>
</svg>
