<svg width="20" height="21" viewBox="0 0 20 21" fill="none" xmlns="http://www.w3.org/2000/svg">
<path d="M10.0625 7.77663H10.7617C10.7647 8.20688 10.8217 9.21946 11.2655 9.8916C11.5431 10.3142 11.9211 10.5266 12.3882 10.5266H13.8405C13.8507 10.5266 14.7986 10.5494 15.0516 12.5209C15.0627 12.6092 15.1172 12.675 15.1809 12.6766C15.1822 12.6766 15.1833 12.6766 15.1839 12.6766C15.2471 12.6766 15.3009 12.6152 15.3158 12.5283C15.332 12.4229 15.7205 9.9223 14.8976 8.46433C14.5499 7.84778 14.0405 7.51627 13.382 7.47146C13.4215 6.9379 13.4767 5.38304 12.8883 4.38748C12.475 3.69044 12.168 3.5 10.9904 3.50332L9.94239 3.5C9.47712 3.5 8.59825 3.92984 8.59478 5.55232C8.58627 5.66953 8.5411 6.54063 8.93407 7.1634C9.19095 7.57042 9.56992 7.77663 10.0625 7.77663Z" fill="#9B99F7"/>
<path d="M15.2279 13.2802C15.2208 13.2781 15.2168 13.2692 15.2092 13.2692H3.75635C3.33957 13.2692 3 14.0351 3 14.9775C3 15.919 3.33957 16.6842 3.75635 16.6842H15.2093C15.2169 16.6842 15.221 16.6762 15.2281 16.6732C15.6632 16.6345 16 15.9063 16 14.9775C15.9999 14.0471 15.663 13.3196 15.2279 13.2802ZM7.60133 16.2393C7.40592 16.0262 7.27012 15.5412 7.27012 14.9777C7.27012 14.4128 7.40592 13.9287 7.60032 13.716H14.6476C14.4857 14.0253 14.3837 14.4695 14.3837 14.9777C14.3837 15.485 14.4863 15.9297 14.6485 16.2393H7.60133Z" fill="#9B99F7"/>
</svg>
