<svg width="20" height="21" viewBox="0 0 20 21" fill="none" xmlns="http://www.w3.org/2000/svg">
<path d="M9.9999 13.1531C11.2397 13.1531 12.2448 12.0475 12.2448 10.6837C12.2448 9.31994 11.2397 8.21436 9.9999 8.21436C8.76008 8.21436 7.755 9.31994 7.755 10.6837C7.755 12.0475 8.76008 13.1531 9.9999 13.1531Z" fill="#9B99F7"/>
<path d="M8.37782 5.87243C8.40273 5.79965 8.39157 5.71776 8.34833 5.65616L6.89613 3.5873C6.82728 3.4892 6.69903 3.471 6.60984 3.54686C6.52065 3.6226 6.50421 3.76357 6.57307 3.86178L7.82337 5.6429L6.9359 5.83406C6.86136 5.85018 6.80116 5.91035 6.77954 5.99048C6.75792 6.07062 6.77855 6.15731 6.83305 6.21552C6.83305 6.21552 8.22465 7.70156 8.22515 7.702C8.29959 7.78148 8.43312 7.78849 8.51373 7.69718C8.59216 7.60828 8.59027 7.46611 8.50936 7.37974L7.39727 6.19218L8.22605 6.01372C8.29541 5.9987 8.35291 5.94533 8.37782 5.87243Z" fill="#9B99F7"/>
<path d="M5.15407 6.04418C5.07893 6.13659 5.08601 6.27842 5.17001 6.36118L6.2829 7.45733L5.79262 7.70758C5.72515 7.74211 5.68002 7.81412 5.67494 7.89578C5.66976 7.97734 5.70543 8.0556 5.76791 8.09989L6.82817 8.85195C6.92095 8.91794 7.0498 8.88834 7.11029 8.78497C7.17137 8.68073 7.14406 8.54185 7.0494 8.47465L6.30034 7.94335L6.7358 7.72106C6.79808 7.68927 6.84163 7.62515 6.8518 7.55049C6.86186 7.47574 6.83714 7.40055 6.78602 7.35013L5.44226 6.02665C5.35825 5.94389 5.2294 5.95189 5.15407 6.04418Z" fill="#9B99F7"/>
<path d="M11.4863 7.69718C11.5247 7.7407 11.5788 7.76262 11.6329 7.76273C11.6849 7.76273 11.7368 7.74267 11.7749 7.70199L13.167 6.21552C13.2215 6.15731 13.2421 6.07062 13.2205 5.99048C13.1989 5.91035 13.1387 5.85018 13.0641 5.83406L12.1767 5.6429L13.427 3.86178C13.4958 3.76357 13.4794 3.6226 13.3902 3.54686C13.3011 3.47123 13.1728 3.48908 13.1039 3.5873L11.6517 5.65616C11.6085 5.71776 11.5973 5.79965 11.6222 5.87243C11.6471 5.94533 11.7046 5.9987 11.774 6.01372L12.6028 6.19218L11.4907 7.37974C11.4098 7.46611 11.4079 7.60828 11.4863 7.69718Z" fill="#9B99F7"/>
<path d="M14.8461 6.04418C14.771 5.95189 14.6419 5.94389 14.5579 6.02665L13.2141 7.35013C13.163 7.40055 13.1383 7.47574 13.1484 7.55049C13.1585 7.62515 13.2021 7.68927 13.2644 7.72106L13.6998 7.94335L12.9508 8.47465C12.8561 8.54185 12.8288 8.68073 12.8899 8.78497C12.9289 8.85151 12.9945 8.88779 13.0616 8.88779C13.0994 8.88779 13.1378 8.87617 13.172 8.85195L14.2323 8.09989C14.2947 8.0556 14.3304 7.97734 14.3252 7.89578C14.3201 7.81412 14.275 7.74211 14.2075 7.70758L13.7173 7.45733L14.8302 6.36118C14.9142 6.27842 14.9212 6.13659 14.8461 6.04418Z" fill="#9B99F7"/>
<path d="M5 16.9419C5 17.453 5.36551 17.8674 5.81622 17.8674H9.9999H14.1836C14.6343 17.8674 15 17.453 15 16.9419V16.0266C15 14.1386 13.93 12.5015 12.4921 11.6852C12.1198 12.8026 11.1432 13.6021 9.9999 13.6021C8.85672 13.6021 7.88006 12.8026 7.50787 11.6852C6.07003 12.5014 5 14.1386 5 16.0266V16.9419ZM12.449 16.296C12.449 16.172 12.5404 16.0715 12.6531 16.0715C12.7658 16.0715 12.8571 16.172 12.8571 16.296V17.4044H12.449V16.296ZM7.14286 16.296C7.14286 16.172 7.23423 16.0715 7.34694 16.0715C7.45964 16.0715 7.55102 16.172 7.55102 16.296V17.4044H7.14286V16.296Z" fill="#9B99F7"/>
</svg>
