<svg width="20" height="21" viewBox="0 0 20 21" fill="none" xmlns="http://www.w3.org/2000/svg">
<path d="M15.7778 10.8842H12.0988C11.9883 10.8842 11.8936 11.0105 11.8936 11.1526V17.1842C11.8936 17.3421 11.9883 17.4526 12.0988 17.4526H15.7778C15.8883 17.4526 15.983 17.3263 15.983 17.1842V11.1526C15.983 11.0105 15.8883 10.8842 15.7778 10.8842Z" fill="#85A600"/>
<path d="M13.362 8.89476C13.4094 8.87897 13.441 8.81581 13.4252 8.76844C13.3936 8.6737 13.362 8.57897 13.3778 8.50002C13.3778 8.42107 13.4094 8.34212 13.4567 8.24739C13.4725 8.20002 13.5041 8.15265 13.5199 8.08949C13.5357 8.02634 13.5673 7.96318 13.5673 7.88423C13.5673 7.80528 13.5673 7.74212 13.5357 7.67897C13.5199 7.64739 13.5041 7.61581 13.4883 7.58423C13.4725 7.55265 13.4567 7.53686 13.4252 7.48949C13.3936 7.4737 13.362 7.45791 13.3304 7.4737C13.2831 7.48949 13.2515 7.53686 13.2515 7.58423L13.2673 7.61581C13.2673 7.6316 13.2831 7.64739 13.2831 7.67897C13.2831 7.69476 13.2988 7.72634 13.2988 7.74212C13.2988 7.78949 13.2988 7.82107 13.2988 7.86844C13.2831 7.90002 13.2831 7.94739 13.2515 7.97897L13.1883 8.13686C13.1725 8.18423 13.141 8.24739 13.1252 8.31055C13.1094 8.3737 13.1094 8.45265 13.1094 8.51581C13.1252 8.65791 13.1883 8.78423 13.2673 8.87897C13.2831 8.89476 13.3304 8.91055 13.362 8.89476Z" fill="#85A600"/>
<path d="M14.0568 8.89473C14.1042 8.87894 14.1358 8.81578 14.12 8.76841C14.0884 8.67368 14.0568 8.57894 14.0726 8.49999C14.0726 8.42104 14.1042 8.3421 14.1516 8.24736C14.1674 8.19999 14.1989 8.15262 14.2147 8.08946C14.2305 8.02631 14.2621 7.96315 14.2621 7.8842C14.2621 7.80525 14.2621 7.7421 14.2305 7.67894C14.2147 7.64736 14.1989 7.61578 14.1831 7.5842C14.1674 7.55262 14.1516 7.53683 14.12 7.48946C14.1042 7.45789 14.0568 7.45789 14.0253 7.45789C13.9779 7.47368 13.9463 7.52104 13.9463 7.56841L13.9621 7.59999C13.9621 7.61578 13.9779 7.63157 13.9779 7.66315C13.9779 7.67894 13.9937 7.71052 13.9937 7.72631C13.9937 7.77367 13.9937 7.80525 13.9937 7.85262C13.9779 7.8842 13.9779 7.93157 13.9463 7.96315L13.8831 8.12104C13.8674 8.16841 13.8358 8.23157 13.82 8.29473C13.8042 8.35789 13.8042 8.43683 13.8042 8.49999C13.82 8.6421 13.8831 8.76841 13.9621 8.86315C13.9621 8.89473 14.0095 8.91052 14.0568 8.89473Z" fill="#85A600"/>
<path d="M14.7357 8.89473C14.783 8.87894 14.8146 8.81578 14.7988 8.76841C14.7672 8.67368 14.7357 8.57894 14.7515 8.49999C14.7515 8.42104 14.783 8.3421 14.8304 8.24736C14.8462 8.19999 14.8778 8.15262 14.8936 8.08946C14.9093 8.02631 14.9409 7.96315 14.9409 7.8842C14.9409 7.80525 14.9409 7.7421 14.9093 7.67894C14.8936 7.64736 14.8778 7.61578 14.862 7.5842C14.8462 7.55262 14.8304 7.53683 14.7988 7.48946C14.783 7.45789 14.7357 7.45789 14.7041 7.45789C14.6567 7.47368 14.6251 7.52104 14.6251 7.56841L14.6409 7.59999C14.6409 7.61578 14.6567 7.63157 14.6567 7.66315C14.6567 7.67894 14.6725 7.71052 14.6725 7.72631C14.6725 7.77367 14.6725 7.80525 14.6725 7.85262C14.6567 7.8842 14.6567 7.93157 14.6251 7.96315L14.562 8.12104C14.5462 8.16841 14.5146 8.23157 14.4988 8.29473C14.483 8.35789 14.483 8.43683 14.483 8.49999C14.4988 8.6421 14.562 8.76841 14.6409 8.86315C14.6409 8.89473 14.6883 8.91052 14.7357 8.89473Z" fill="#85A600"/>
<path d="M12.6831 10.2842C12.7462 10.4105 12.8725 10.5053 12.9988 10.5053H14.8146C14.9567 10.5053 15.0831 10.4263 15.1304 10.2842L15.4146 9.65263C15.4462 9.57368 15.4462 9.46316 15.3988 9.4C15.3515 9.32105 15.2567 9.27368 15.1778 9.27368H11.6252C11.641 9.38421 11.641 9.49473 11.6252 9.60526C11.6252 9.63684 11.6094 9.66842 11.6094 9.68421H12.4462L12.6831 10.2842Z" fill="#85A600"/>
<path d="M10.741 8.73683L9.27255 8.31051L8.24623 6.2263C8.23044 6.17894 8.16728 6.06841 7.9936 5.89472C7.72518 5.64209 7.36202 5.49999 6.99886 5.51578C6.65149 5.53157 6.31991 5.70525 6.08307 5.97367C6.00412 6.06841 5.92518 6.24209 5.8936 6.35262L5.02518 9.76315C4.97781 9.96841 4.9936 10.1737 5.10412 10.3631L6.54097 13.1105C6.57255 13.1737 6.58834 13.2368 6.57255 13.3L6.06728 16.4895C6.00412 16.9158 6.24097 17.3579 6.65149 17.4684C6.73044 17.5 6.80939 17.5 6.88834 17.5C7.28307 17.5 7.63044 17.2158 7.70939 16.821L8.40412 13.221C8.4357 13.0789 8.41991 12.921 8.37255 12.7789L7.58307 10.521C7.56728 10.4579 7.55149 10.3947 7.56728 10.3316L7.91465 8.7842L8.1357 9.2263C8.23044 9.39999 8.37255 9.5263 8.56202 9.58946L10.362 10.1105C10.4252 10.1263 10.4883 10.1421 10.5515 10.1421C10.8831 10.1421 11.1831 9.90525 11.2462 9.55788C11.341 9.17894 11.0883 8.83157 10.741 8.73683Z" fill="#85A600"/>
<path d="M7.94624 5.27895C8.71362 5.27895 9.33571 4.65686 9.33571 3.88947C9.33571 3.12209 8.71362 2.5 7.94624 2.5C7.17885 2.5 6.55676 3.12209 6.55676 3.88947C6.55676 4.65686 7.17885 5.27895 7.94624 5.27895Z" fill="#85A600"/>
</svg>
