<svg width="252" height="176" viewBox="0 0 252 176" fill="none" xmlns="http://www.w3.org/2000/svg">
<g style="mix-blend-mode:multiply" opacity="0.2">
<path d="M244.087 68.9227C239.842 51.3358 229.581 35.3332 215.684 24.3218C200.662 12.4164 181.105 6.40945 162.255 11.7176C152.377 14.4998 143.379 20.0206 134.894 25.88C120.354 35.9191 105.315 47.6119 87.6807 50.4157C68.8743 53.4062 50.502 43.4452 32.1036 52.8593C20.5802 58.7534 12.7026 71.1015 10.3936 84.1441C3.13229 125.138 33.9352 154.422 66.0141 165.138C104.313 177.934 159.352 180.121 197.832 161.545C200.419 160.295 202.95 158.919 205.406 157.417C228.436 143.337 245.436 116.605 246.213 88.875C246.404 82.1259 245.653 75.4201 244.087 68.9314V68.9227Z" fill="#FFC0BC"/>
</g>
<path d="M235.178 94.9923C236.684 76.9627 231.988 58.5468 222.265 43.716C211.753 27.6873 195.087 15.8253 175.521 14.9269C165.269 14.4538 154.991 16.8626 145.091 19.7489C128.129 24.6969 110.174 31.0597 92.5565 28.1691C73.7675 25.0875 59.462 9.84438 39.0367 12.9868C26.2416 14.9529 14.8787 24.1934 8.58101 35.8427C-11.2193 72.4661 8.79369 109.958 35.8683 130.231C68.1859 154.437 119.74 173.847 162.109 168.33C164.957 167.961 167.791 167.449 170.599 166.798C196.892 160.687 221.445 140.665 230.911 114.593C233.216 108.248 234.618 101.646 235.173 94.9923H235.178Z" stroke="#FFD8D8" stroke-width="0.516493" stroke-miterlimit="10"/>
<g style="mix-blend-mode:multiply" opacity="0.59">
<path d="M109.14 146.586C109.14 147.836 94.2924 148.852 75.9765 148.852C57.6606 148.852 42.8125 147.836 42.8125 146.586C42.8125 145.336 57.6606 144.32 75.9765 144.32C94.2924 144.32 109.14 145.336 109.14 146.586Z" fill="#DDD7D8"/>
</g>
<g style="mix-blend-mode:multiply" opacity="0.59">
<path d="M151.232 144.837C202.18 144.837 243.48 142.894 243.48 140.497C243.48 138.099 202.18 136.156 151.232 136.156C100.285 136.156 58.9844 138.099 58.9844 140.497C58.9844 142.894 100.285 144.837 151.232 144.837Z" fill="#8CB4EB"/>
</g>
<path d="M52.1633 52.2458C52.1633 52.2458 47.1763 25.1017 104.789 0.726562C104.789 0.726562 97.033 5.158 90.9393 14.5764C84.8455 23.9949 74.3204 47.2589 52.1633 52.2458Z" fill="#FEE0C5"/>
<g style="mix-blend-mode:multiply" opacity="0.21">
<path d="M104.789 0.726562C47.1763 25.1017 52.1633 52.2458 52.1633 52.2458C67.6711 21.777 104.789 0.726562 104.789 0.726562Z" fill="#FEE0C5"/>
</g>
<path d="M64.3494 37.2891C64.3494 37.2891 26.6802 72.1894 45.5169 110.966" stroke="#FEE0C5" stroke-width="1.66233" stroke-miterlimit="10"/>
<path d="M81.5728 54.8403L72.8445 53.9375C72.8445 53.9375 46.2387 65.5695 40.3359 84.9402" stroke="#FEE0C5" stroke-width="1.66233" stroke-miterlimit="10"/>
<path d="M52.5938 66.7623C52.5938 66.7623 58.4184 39.7873 120.97 39.4141C120.97 39.4141 112.108 40.5252 102.863 46.8794C93.618 53.2336 74.9635 70.6729 52.5938 66.7623Z" fill="#FEE0C5"/>
<g style="mix-blend-mode:multiply" opacity="0.21">
<path d="M120.97 39.4141C58.4184 39.7873 52.5938 66.7623 52.5938 66.7623C78.618 44.592 120.97 39.4141 120.97 39.4141Z" fill="#FEE0C5"/>
</g>
<path d="M27.2318 62.5078L23.1562 69.9905C23.1562 69.9905 25.8602 87.9202 43.0911 103.858" stroke="#FEE0C5" stroke-width="1.66233" stroke-miterlimit="10"/>
<path d="M29.3361 86.9177C29.3361 86.9177 10.0393 77.5167 20.5297 30.9844C20.5297 30.9844 19.8396 37.7769 23.0297 45.8369C26.2198 53.8968 36.1287 71.0323 29.3361 86.9177Z" fill="#FEE0C5"/>
<g style="mix-blend-mode:multiply" opacity="0.21">
<path d="M20.5297 30.9844C10.0393 77.5167 29.3361 86.9177 29.3361 86.9177C17.1356 63.4194 20.5297 30.9844 20.5297 30.9844Z" fill="#FEE0C5"/>
</g>
<path d="M43.2841 45.5938L36.4092 50.6285C36.4092 50.6285 31.2225 68.0027 40.0203 89.7606" stroke="#FEE0C5" stroke-width="1.66233" stroke-miterlimit="10"/>
<path d="M34.7936 68.5844C34.7936 68.5844 21.3387 51.8613 50.6486 14.2266C50.6486 14.2266 47.1329 20.0773 46.5861 28.7318C46.0392 37.382 47.7059 57.1087 34.7979 68.5844H34.7936Z" fill="#FEE0C5"/>
<g style="mix-blend-mode:multiply" opacity="0.21">
<path d="M50.647 14.2266C21.3415 51.8613 34.792 68.5844 34.792 68.5844C33.759 42.126 50.647 14.2266 50.647 14.2266Z" fill="#FEE0C5"/>
</g>
<path d="M154.777 53.7031C154.777 53.7031 149.195 67.0148 136.674 73.1867C124.152 79.3586 110.38 91.034 109.664 109.393C109.664 109.393 116.309 102.453 125.879 99.2024C142.19 93.6642 156.443 83.9506 154.777 53.7031Z" fill="#FEE0C5"/>
<g style="mix-blend-mode:multiply" opacity="0.21">
<path d="M110.031 108.379C112.397 103.782 114.84 100.28 117.314 97.5236C120.378 97.7884 126.073 97.6278 131.902 94.0904C131.902 94.0904 123.33 96.9897 118.46 96.2996C119.476 95.2623 120.5 94.3422 121.524 93.5132C124.154 93.8778 130.582 94.2033 137.184 90.1972C137.184 90.1972 127.835 93.3656 123.117 92.2935C124.589 91.2345 126.06 90.3361 127.531 89.5331C130.296 89.8847 136.546 90.08 142.961 86.1868C142.961 86.1868 134.558 89.034 129.662 88.4177C131.498 87.4975 133.325 86.6729 135.127 85.7961C138.312 85.5314 142.683 84.5331 147.01 81.5123C147.01 81.5123 142.557 83.3482 138.239 84.1946C139.901 83.2744 141.533 82.2414 143.126 80.9784C143.417 80.7484 143.694 80.5096 143.968 80.2622C146.272 79.3074 148.777 77.8577 151.16 75.6485C151.16 75.6485 148.807 77.0201 145.878 78.3135C146.693 77.3673 147.436 76.3516 148.113 75.2926C149.641 74.1945 151.229 72.6928 152.596 70.6485C152.596 70.6485 151.082 72.0938 149.133 73.5695C154.016 64.6806 154.771 53.6953 154.771 53.6953C154.771 53.6953 149.189 67.007 136.667 73.1789C124.228 79.3117 110.561 90.8743 109.68 109.025C109.793 108.813 109.905 108.604 110.023 108.37L110.031 108.379Z" fill="#FEE0C5"/>
</g>
<path d="M124.538 44.7465C124.538 44.7465 124.668 58.0929 116.296 67.9194C107.924 77.7458 100.497 92.7024 106.613 108.553C106.613 108.553 109.716 100.224 116.652 93.9611C128.475 83.284 137.025 69.8204 124.538 44.7422V44.7465Z" fill="#FEE0C5"/>
<g style="mix-blend-mode:multiply" opacity="0.21">
<path d="M106.55 107.558C106.876 102.788 107.67 98.9212 108.764 95.6747C111.463 94.7762 116.242 92.554 119.896 87.4194C119.896 87.4194 113.681 93.0227 109.293 94.2163C109.779 92.9663 110.309 91.8075 110.877 90.7311C113.247 90.08 118.824 88.001 122.965 82.185C122.965 82.185 116.185 88.2962 111.784 89.1165C112.644 87.6798 113.568 86.3778 114.523 85.1581C116.997 84.442 122.379 82.3196 126.402 76.6685C126.402 76.6685 120.309 82.159 115.929 83.4307C117.153 81.9767 118.403 80.6052 119.61 79.2033C122.214 77.81 125.565 75.3621 128.134 71.2171C128.134 71.2171 125.022 74.4072 121.667 76.7032C122.744 75.3144 123.751 73.8386 124.64 72.185C124.801 71.8855 124.953 71.5774 125.096 71.2692C126.702 69.6155 128.303 67.4671 129.519 64.7197C129.519 64.7197 128.026 66.7466 126.007 68.9168C126.355 67.8143 126.615 66.6815 126.797 65.5313C127.691 64.0383 128.494 62.1806 128.902 59.9454C128.902 59.9454 128.147 61.7292 127.027 63.691C127.922 54.3551 124.54 44.75 124.54 44.75C124.54 44.75 124.671 58.0964 116.298 67.9228C107.982 77.6842 100.604 92.5063 106.502 108.244C106.52 108.023 106.537 107.806 106.554 107.563L106.55 107.558Z" fill="#FEE0C5"/>
</g>
<path d="M148.251 144.05H201.298L218.633 133.021L234.388 141.424L218.107 87.8516L131.445 88.9627L148.251 144.05Z" fill="#8CB4EB"/>
<g style="mix-blend-mode:multiply" opacity="0.12">
<path d="M148.251 144.05H201.298L218.633 132.496L234.388 141.424L218.107 87.8516L131.445 89.5139L148.251 144.05Z" fill="#8CB4EB"/>
</g>
<path d="M201.298 144.05H114.641L131.446 89.5139L218.108 87.8516L201.298 144.05Z" fill="#8CB4EB"/>
<g style="mix-blend-mode:multiply" opacity="0.12">
<path d="M234.387 141.424L233.641 140.894L218.632 132.496L201.297 144.05L218.107 87.8516" fill="#8CB4EB"/>
</g>
<g style="mix-blend-mode:multiply" opacity="0.4">
<path d="M218.632 132.5H204.53L201.297 144.054L218.632 132.5Z" fill="#8CB4EB"/>
</g>
<path d="M218.637 132.5L233.65 140.898L205.508 141.428" fill="#8CB4EB"/>
<g style="mix-blend-mode:multiply" opacity="0.91">
<path d="M218.637 132.5L233.65 140.898L205.508 141.428" fill="#8CB4EB"/>
</g>
<path d="M147.744 110.88L132.922 111.006L134.48 105.676L149.306 105.555L147.744 110.88Z" fill="#FEFCFF"/>
<path d="M165.529 110.724L150.703 110.85L152.266 105.524L167.088 105.398L165.529 110.724Z" fill="#FEFCFF"/>
<path d="M183.314 110.583L168.492 110.709L170.05 105.379L184.872 105.258L183.314 110.583Z" fill="#FEFCFF"/>
<path d="M201.103 110.427L186.281 110.553L187.839 105.227L202.661 105.102L201.103 110.427Z" fill="#FEFCFF"/>
<path d="M145.228 119.482L130.406 119.608L131.964 114.282L146.786 114.156L145.228 119.482Z" fill="#FEFCFF"/>
<path d="M163.014 119.333L148.188 119.459L149.746 114.129L164.572 114.008L163.014 119.333Z" fill="#FEFCFF"/>
<path d="M180.799 119.185L165.977 119.311L167.535 113.985L182.357 113.859L180.799 119.185Z" fill="#FEFCFF"/>
<path d="M198.588 119.036L183.766 119.162L185.324 113.832L200.146 113.711L198.588 119.036Z" fill="#FEFCFF"/>
<path d="M142.705 128.083L127.883 128.209L129.441 122.879L144.263 122.758L142.705 128.083Z" fill="#FEFCFF"/>
<path d="M160.494 127.935L145.672 128.061L147.23 122.735L162.052 122.609L160.494 127.935Z" fill="#FEFCFF"/>
<path d="M178.279 127.786L163.453 127.912L165.016 122.582L179.838 122.461L178.279 127.786Z" fill="#FEFCFF"/>
<path d="M196.072 127.638L181.25 127.764L182.808 122.438L197.63 122.312L196.072 127.638Z" fill="#FEFCFF"/>
<path d="M140.189 136.693L125.367 136.819L126.925 131.493L141.747 131.367L140.189 136.693Z" fill="#FEFCFF"/>
<path d="M157.97 136.544L143.148 136.67L144.707 131.34L159.529 131.219L157.97 136.544Z" fill="#FEFCFF"/>
<path d="M175.76 136.392L160.938 136.514L162.496 131.188L177.322 131.062L175.76 136.392Z" fill="#FEFCFF"/>
<path d="M193.553 136.24L178.727 136.365L180.289 131.036L195.111 130.914L193.553 136.24Z" fill="#FEFCFF"/>
<path d="M207.029 92.0938L137.702 93.1441L134.703 102.641H203.353L207.029 92.0938Z" fill="#FF7A8F"/>
<path d="M187.312 124.809L189.53 129.241L202.825 112.07" stroke="#C3395B" stroke-width="0.815973" stroke-miterlimit="10"/>
<path d="M162.988 118.989C162.32 121.342 159.156 122.509 155.918 121.589C152.68 120.669 150.597 118.017 151.265 115.664C151.934 113.312 155.098 112.144 158.336 113.065C161.574 113.985 163.657 116.637 162.988 118.989Z" stroke="#C3395B" stroke-width="0.815973" stroke-miterlimit="10"/>
<path d="M156.895 136.162C156.226 138.518 153.062 139.681 149.824 138.761C146.587 137.841 144.503 135.189 145.172 132.837C145.84 130.48 149.004 129.317 152.242 130.237C155.48 131.157 157.563 133.809 156.895 136.162Z" stroke="#C3395B" stroke-width="0.815973" stroke-miterlimit="10"/>
<path d="M80.8836 61.1354C103.47 61.1354 121.843 79.5079 121.843 102.095C121.843 124.682 103.47 143.054 80.8836 143.054C58.2968 143.054 39.9245 124.682 39.9245 102.095C39.9245 79.5079 58.2968 61.1354 80.8836 61.1354ZM80.8836 55.5625C55.1848 55.5625 34.3516 76.3959 34.3516 102.095C34.3516 127.794 55.1848 148.627 80.8836 148.627C106.582 148.627 127.416 127.794 127.416 102.095C127.416 76.3959 106.582 55.5625 80.8836 55.5625Z" fill="#DE6175"/>
<path d="M84.5086 148.627C110.208 148.627 131.041 127.794 131.041 102.095C131.041 76.3957 110.208 55.5625 84.5086 55.5625C58.8097 55.5625 37.9766 76.3957 37.9766 102.095C37.9766 127.794 58.8097 148.627 84.5086 148.627Z" fill="#F5BD79"/>
<g style="mix-blend-mode:multiply">
<path d="M80.6067 57.2344C74.8341 57.2344 69.309 58.2934 64.2091 60.2162C48.6797 67.7553 37.9766 83.6754 37.9766 102.096C37.9766 127.795 58.8099 148.628 84.5086 148.628C90.2811 148.628 95.8063 147.569 100.906 145.646C116.436 138.107 127.139 122.187 127.139 103.767C127.139 78.0678 106.305 57.2344 80.6067 57.2344ZM79.2135 144.726C57.3949 144.726 39.6476 126.979 39.6476 105.16C39.6476 83.3412 57.3949 65.5938 79.2135 65.5938C101.032 65.5938 118.779 83.3412 118.779 105.16C118.779 126.979 101.032 144.726 79.2135 144.726Z" fill="#D3D3D3"/>
</g>
<path d="M84.5086 61.1354C107.095 61.1354 125.468 79.5079 125.468 102.095C125.468 124.682 107.095 143.054 84.5086 143.054C61.9218 143.054 43.5495 124.682 43.5495 102.095C43.5495 79.5079 61.9218 61.1354 84.5086 61.1354ZM84.5086 55.5625C58.8099 55.5625 37.9766 76.3959 37.9766 102.095C37.9766 127.794 58.8099 148.627 84.5086 148.627C110.207 148.627 131.041 127.794 131.041 102.095C131.041 76.3959 110.207 55.5625 84.5086 55.5625Z" fill="#FF7A8F"/>
<g opacity="0.35">
<path d="M56.6438 67.6328C48.814 74.9983 43.0501 84.7813 41.5527 95.5105C41.0666 99.0652 41.0188 102.685 41.2793 106.327C40.3852 102.785 40.0813 99.0652 40.3548 95.3803C41.2445 84.3516 47.4685 73.8004 56.6438 67.6328Z" fill="white"/>
</g>
<path d="M85.1797 69.5V78.9445" stroke="#FF7A8F" stroke-width="2.24827" stroke-miterlimit="10" stroke-linecap="round"/>
<path d="M68.7891 73.5312L73.5113 81.7084" stroke="#FF7A8F" stroke-width="2.24827" stroke-miterlimit="10" stroke-linecap="round"/>
<path d="M56.6094 85.2188L64.7864 89.941" stroke="#FF7A8F" stroke-width="2.24827" stroke-miterlimit="10" stroke-linecap="round"/>
<path d="M51.9062 101.43H61.3507" stroke="#FF7A8F" stroke-width="2.24827" stroke-miterlimit="10" stroke-linecap="round"/>
<path d="M55.9375 117.816L64.1146 113.094" stroke="#FF7A8F" stroke-width="2.24827" stroke-miterlimit="10" stroke-linecap="round"/>
<path d="M67.625 129.997L72.3472 121.82" stroke="#FF7A8F" stroke-width="2.24827" stroke-miterlimit="10" stroke-linecap="round"/>
<path d="M83.8359 134.698V125.258" stroke="#FF7A8F" stroke-width="2.24827" stroke-miterlimit="10" stroke-linecap="round"/>
<path d="M100.222 130.669L95.5 122.492" stroke="#FF7A8F" stroke-width="2.24827" stroke-miterlimit="10" stroke-linecap="round"/>
<path d="M112.404 118.988L104.227 114.266" stroke="#FF7A8F" stroke-width="2.24827" stroke-miterlimit="10" stroke-linecap="round"/>
<path d="M117.108 102.781H107.664" stroke="#FF7A8F" stroke-width="2.24827" stroke-miterlimit="10" stroke-linecap="round"/>
<path d="M113.076 86.3828L104.898 91.105" stroke="#FF7A8F" stroke-width="2.24827" stroke-miterlimit="10" stroke-linecap="round"/>
<path d="M101.394 74.2031L96.6719 82.3802" stroke="#FF7A8F" stroke-width="2.24827" stroke-miterlimit="10" stroke-linecap="round"/>
<path d="M85.0607 128.012C99.527 128.012 111.254 116.285 111.254 101.819C111.254 87.3523 99.527 75.625 85.0607 75.625C70.5944 75.625 58.8672 87.3523 58.8672 101.819C58.8672 116.285 70.5944 128.012 85.0607 128.012Z" fill="#F5BD79"/>
<path d="M84.2842 101.819C83.6244 99.2796 83.0949 96.6059 82.7217 94.0148C82.535 92.7301 81.9534 91.4323 82.2746 90.1129C82.5958 88.6502 83.1557 87.3872 84.2798 86.2109H84.7269C85.851 87.3872 86.4152 88.6502 86.7321 90.1129C87.0532 91.4323 86.4716 92.7257 86.285 94.0148C86.1374 95.1519 85.838 96.7752 85.6166 97.9167C85.3432 99.2188 85.0784 100.517 84.7269 101.819H84.2798H84.2842Z" fill="white"/>
<path d="M84.6693 101.664C88.6536 104.984 92.8767 108.756 96.6788 112.306C97.651 113.218 98.697 114.069 99.704 114.945C101.753 116.708 103.315 118.886 104.674 121.226C105.346 122.419 105.963 123.661 106.401 125.071L106.075 125.375C104.7 124.837 103.506 124.129 102.369 123.37C100.138 121.842 98.0764 120.123 96.4748 117.949C95.1293 116.048 93.0547 113.439 91.5703 111.603C89.1918 108.526 86.5877 105.128 84.3438 101.968L84.6693 101.664Z" fill="white"/>
<path opacity="0.26" d="M49.9561 94.0122C49.9561 94.0122 48.2851 112.402 59.4309 125.219C70.5767 138.036 85.0645 138.591 85.0645 138.591C85.0645 138.591 57.7599 125.219 49.9561 94.0078V94.0122Z" fill="white"/>
<path d="M51.0312 145.078C62.5243 154.097 78.3923 157.574 92.7673 157.591C97.6761 157.591 102.576 157.218 107.424 156.515L107.759 159.262C92.8497 160.721 77.3637 159.227 63.6267 152.99C59.1172 150.907 54.7335 148.407 51.0312 145.078Z" fill="#FEE0C5"/>
<path d="M127.626 160.965C127.626 160.965 135.755 159.325 138.06 155.688C138.06 155.688 133.268 153.109 127.148 153.109C121.029 153.109 118.594 155.77 118.594 155.77L121.797 158.969L127.622 160.97L127.626 160.965Z" fill="#C3395B"/>
<g style="mix-blend-mode:multiply" opacity="0.72">
<path d="M127.626 160.965C127.626 160.965 135.755 159.325 138.06 155.688C138.06 155.688 133.268 153.109 127.148 153.109C121.029 153.109 118.594 155.77 118.594 155.77L121.797 158.969L127.622 160.97L127.626 160.965Z" fill="#C3395B"/>
</g>
<path d="M138.413 163.543C138.413 163.543 130.262 162.649 122.966 163.313C115.674 163.977 108.444 162.692 106.781 157.623C106.781 157.623 111.49 152.276 119.194 153.122C126.894 153.968 137.992 162.519 138.413 163.543Z" fill="#C3395B"/>
<g style="mix-blend-mode:multiply" opacity="0.29">
<path d="M138.413 163.543C138.413 163.543 130.262 162.649 122.966 163.313C115.674 163.977 108.444 162.692 106.781 157.623C106.781 157.623 111.49 152.276 119.194 153.122C126.894 153.968 137.992 162.519 138.413 163.543Z" fill="#C3395B"/>
</g>
<path d="M136.687 148.594C136.687 148.594 128.796 150.243 121.439 150.269C114.082 150.295 107.181 152.24 106.578 157.418C106.578 157.418 112.342 162.27 119.794 160.712C127.246 159.154 136.478 149.648 136.687 148.594Z" fill="#C3395B"/>
<path d="M124.095 163.707C124.095 163.707 114.924 157.431 106.578 157.414C106.578 157.414 107.655 162.418 115.389 163.595C123.123 164.771 124.095 163.707 124.095 163.707Z" fill="#FEE0C5"/>
<path d="M122.166 149.036C122.166 149.036 114.818 156.636 106.649 157.982C106.649 157.982 106.402 152.912 113.668 150.529C120.938 148.151 122.166 149.036 122.166 149.036Z" fill="#FEE0C5"/>
<path d="M87.42 166.375C87.42 166.375 86.5606 158.606 76.0268 156.727C76.0268 156.727 75.506 163.411 87.42 166.375Z" fill="#FEE0C5"/>
<path d="M88.0668 150.644C88.0668 150.644 80.8706 147.593 74.0781 155.857C74.0781 155.857 79.651 159.581 88.0668 150.644Z" fill="#FEE0C5"/>
<path d="M106.888 148.404C106.888 148.404 96.5972 145.878 89.2969 158.412C89.2969 158.412 97.5651 162.189 106.888 148.404Z" fill="#FEE0C5"/>
<path d="M174.523 36.4349C180.76 36.4349 185.838 41.5087 185.838 47.7501C185.838 53.9914 180.765 59.0652 174.523 59.0652C168.282 59.0652 163.208 53.9914 163.208 47.7501C163.208 41.5087 168.282 36.4349 174.523 36.4349ZM174.523 32.3203C166.003 32.3203 159.094 39.2257 159.094 47.7501C159.094 56.2744 165.999 63.1798 174.523 63.1798C183.048 63.1798 189.953 56.2744 189.953 47.7501C189.953 39.2257 183.048 32.3203 174.523 32.3203Z" fill="#FF7A8F"/>
<path d="M176.583 60.0859H172.469V81.1711H176.583V60.0859Z" fill="#FF7A8F"/>
<path d="M180.179 69.3516H168.352V73.4662H180.179V69.3516Z" fill="#FF7A8F"/>
<path d="M177.094 36.4349C183.331 36.4349 188.409 41.5087 188.409 47.7501C188.409 53.9914 183.335 59.0652 177.094 59.0652C170.852 59.0652 165.779 53.9914 165.779 47.7501C165.779 41.5087 170.852 36.4349 177.094 36.4349ZM177.094 32.3203C168.574 32.3203 161.664 39.2257 161.664 47.7501C161.664 56.2744 168.569 63.1798 177.094 63.1798C185.618 63.1798 192.523 56.2744 192.523 47.7501C192.523 39.2257 185.618 32.3203 177.094 32.3203Z" fill="#BC6880"/>
<path d="M179.154 60.0859H175.039V81.1711H179.154V60.0859Z" fill="#BC6880"/>
<path d="M182.749 69.3516H170.922V73.4662H182.749V69.3516Z" fill="#BC6880"/>
<path d="M204.398 54.4688C204.398 54.4688 222.996 85.4975 204.129 85.4975C185.262 85.4975 204.398 54.4688 204.398 54.4688Z" fill="#C3395B"/>
<g style="mix-blend-mode:multiply" opacity="0.2">
<path d="M203.882 55.3438C201.864 62.5009 196.764 84.3847 210.115 83.7249C208.782 84.8361 206.859 85.5001 204.129 85.5001C187.142 85.5001 200.961 60.3524 203.882 55.3438Z" fill="#FF7A8F"/>
</g>
<path opacity="0.21" d="M208.359 65.6484C208.359 65.6484 212.313 77.224 210.334 78.8777C208.359 80.5313 208.359 65.6484 208.359 65.6484Z" fill="white"/>
<path d="M223.85 116.473C238.618 116.473 250.59 104.501 250.59 89.7327C250.59 74.9643 238.618 62.9922 223.85 62.9922C209.081 62.9922 197.109 74.9643 197.109 89.7327C197.109 104.501 209.081 116.473 223.85 116.473Z" fill="#F5BD79"/>
<path d="M223.85 116.473C238.618 116.473 250.59 104.501 250.59 89.7327C250.59 74.9643 238.618 62.9922 223.85 62.9922C209.081 62.9922 197.109 74.9643 197.109 89.7327C197.109 104.501 209.081 116.473 223.85 116.473Z" stroke="#FEFCFF" stroke-width="2.07899" stroke-miterlimit="10"/>
<path d="M218.391 80.3047V100.101" stroke="#FF7A8F" stroke-width="5.2257" stroke-miterlimit="10"/>
<path d="M230.703 80.3047V100.101" stroke="#FF7A8F" stroke-width="5.2257" stroke-miterlimit="10"/>
<path d="M204.398 54.4609C204.398 54.4609 222.996 85.4897 204.129 85.4897C185.262 85.4897 204.398 54.4609 204.398 54.4609Z" fill="#DA6280"/>
<g style="mix-blend-mode:multiply" opacity="0.2">
<path d="M203.882 55.3359C201.864 62.4931 196.764 84.3768 210.115 83.7171C208.782 84.8282 206.859 85.4923 204.129 85.4923C187.142 85.4923 200.961 60.3446 203.882 55.3359Z" fill="#FF7A8F"/>
</g>
<path opacity="0.21" d="M208.359 65.6406C208.359 65.6406 212.313 77.2162 210.334 78.8698C208.359 80.5235 208.359 65.6406 208.359 65.6406Z" fill="white"/>
<path d="M157.424 99.4905L156.981 99.4965C156.953 99.3693 156.905 99.2579 156.838 99.1622C156.773 99.0665 156.693 98.9865 156.599 98.9222C156.506 98.8567 156.404 98.8081 156.291 98.7762C156.179 98.7444 156.062 98.7293 155.94 98.7309C155.718 98.7339 155.518 98.7927 155.34 98.9072C155.162 99.0217 155.022 99.1887 154.919 99.4083C154.817 99.6279 154.768 99.8962 154.773 100.213C154.777 100.53 154.833 100.797 154.941 101.014C155.05 101.231 155.195 101.394 155.375 101.503C155.557 101.613 155.758 101.666 155.98 101.663C156.102 101.662 156.218 101.643 156.33 101.609C156.441 101.574 156.543 101.523 156.633 101.456C156.726 101.388 156.803 101.305 156.866 101.208C156.93 101.109 156.975 100.996 156.999 100.87L157.443 100.864C157.412 101.051 157.353 101.22 157.267 101.369C157.181 101.518 157.073 101.645 156.943 101.75C156.814 101.855 156.667 101.935 156.505 101.991C156.343 102.046 156.17 102.076 155.986 102.078C155.673 102.082 155.394 102.01 155.149 101.861C154.904 101.711 154.71 101.497 154.566 101.218C154.423 100.938 154.349 100.605 154.344 100.219C154.338 99.8329 154.403 99.4982 154.539 99.215C154.675 98.9318 154.863 98.7122 155.104 98.5563C155.345 98.4004 155.622 98.3203 155.934 98.3161C156.119 98.3136 156.293 98.338 156.456 98.3895C156.62 98.4409 156.768 98.5176 156.901 98.6195C157.033 98.7202 157.145 98.8439 157.235 98.9905C157.325 99.1359 157.388 99.3026 157.424 99.4905Z" fill="white"/>
<path d="M159.745 101.922C159.546 101.924 159.365 101.889 159.202 101.817C159.039 101.742 158.908 101.634 158.811 101.493C158.714 101.35 158.664 101.176 158.661 100.971C158.658 100.791 158.692 100.645 158.761 100.532C158.83 100.418 158.924 100.328 159.042 100.263C159.159 100.197 159.29 100.148 159.432 100.114C159.576 100.08 159.721 100.052 159.867 100.031C160.057 100.003 160.212 99.983 160.33 99.9691C160.45 99.9538 160.537 99.9302 160.591 99.8981C160.646 99.866 160.673 99.8111 160.672 99.7334L160.672 99.717C160.669 99.5153 160.612 99.3593 160.5 99.2491C160.39 99.1388 160.223 99.0852 160.001 99.0882C159.771 99.0913 159.591 99.1442 159.461 99.2469C159.332 99.3495 159.241 99.4584 159.19 99.5736L158.73 99.4163C158.809 99.2244 158.916 99.0744 159.051 98.9662C159.187 98.8566 159.336 98.7796 159.497 98.7352C159.66 98.6893 159.821 98.6653 159.979 98.6632C160.08 98.6618 160.196 98.6725 160.327 98.6953C160.459 98.7166 160.588 98.7633 160.711 98.8352C160.836 98.9071 160.941 99.0168 161.024 99.1642C161.108 99.3117 161.152 99.5101 161.155 99.7595L161.183 101.828L160.701 101.835L160.695 101.41L160.671 101.41C160.639 101.479 160.585 101.552 160.51 101.631C160.435 101.71 160.334 101.777 160.208 101.834C160.082 101.89 159.928 101.919 159.745 101.922ZM159.813 101.487C160.004 101.485 160.164 101.445 160.294 101.368C160.425 101.291 160.523 101.193 160.588 101.074C160.655 100.954 160.687 100.829 160.685 100.698L160.679 100.257C160.659 100.282 160.615 100.305 160.545 100.326C160.478 100.346 160.399 100.364 160.309 100.38C160.221 100.395 160.134 100.409 160.05 100.421C159.967 100.431 159.9 100.44 159.848 100.448C159.723 100.466 159.606 100.494 159.497 100.533C159.39 100.569 159.304 100.624 159.238 100.698C159.173 100.769 159.142 100.867 159.144 100.989C159.146 101.157 159.21 101.283 159.335 101.367C159.461 101.45 159.621 101.49 159.813 101.487ZM162.49 97.623L162.547 101.81L162.064 101.816L162.007 97.6296L162.49 97.623ZM164.748 101.845C164.445 101.849 164.183 101.786 163.962 101.656C163.742 101.524 163.571 101.338 163.449 101.098C163.329 100.857 163.266 100.576 163.262 100.254C163.258 99.9327 163.312 99.6484 163.426 99.4015C163.541 99.1531 163.704 98.9587 163.913 98.8182C164.124 98.6763 164.371 98.6034 164.654 98.5995C164.818 98.5973 164.98 98.6224 165.14 98.6747C165.3 98.7271 165.447 98.8137 165.579 98.9346C165.712 99.0541 165.818 99.2135 165.898 99.4128C165.979 99.6121 166.021 99.8582 166.025 100.151L166.028 100.356L163.607 100.389L163.602 99.9716L165.532 99.9453C165.529 99.7681 165.492 99.6105 165.419 99.4725C165.347 99.3344 165.246 99.226 165.116 99.1474C164.987 99.0687 164.835 99.0306 164.66 99.033C164.468 99.0356 164.303 99.0855 164.163 99.1828C164.026 99.2788 163.92 99.4029 163.847 99.5552C163.775 99.7075 163.739 99.8702 163.742 100.043L163.745 100.321C163.749 100.558 163.792 100.759 163.876 100.923C163.962 101.085 164.079 101.208 164.227 101.292C164.375 101.375 164.547 101.415 164.742 101.412C164.869 101.41 164.983 101.391 165.085 101.354C165.188 101.316 165.276 101.26 165.35 101.187C165.424 101.112 165.481 101.02 165.52 100.911L165.988 101.035C165.941 101.194 165.861 101.334 165.746 101.456C165.632 101.576 165.49 101.67 165.321 101.739C165.151 101.807 164.96 101.842 164.748 101.845ZM167.238 99.8567L167.263 101.746L166.781 101.752L166.738 98.6121L167.204 98.6057L167.211 99.0964L167.252 99.0958C167.323 98.9354 167.433 98.8057 167.582 98.7069C167.731 98.6067 167.923 98.555 168.161 98.5518C168.373 98.5489 168.56 98.59 168.72 98.6751C168.881 98.7587 169.007 98.8879 169.098 99.0625C169.189 99.2358 169.236 99.4559 169.24 99.7231L169.267 101.718L168.784 101.725L168.758 99.7624C168.754 99.5157 168.688 99.3244 168.558 99.1885C168.428 99.0512 168.251 98.9841 168.027 98.9871C167.873 98.9892 167.736 99.0245 167.616 99.0929C167.497 99.1613 167.403 99.2601 167.336 99.3891C167.268 99.5182 167.235 99.674 167.238 99.8567ZM171.335 101.756C171.074 101.759 170.842 101.696 170.639 101.567C170.437 101.436 170.278 101.25 170.162 101.009C170.045 100.767 169.985 100.479 169.98 100.146C169.976 99.8167 170.028 99.5297 170.138 99.2855C170.248 99.0414 170.403 98.8519 170.603 98.7169C170.803 98.582 171.035 98.5127 171.299 98.5091C171.504 98.5063 171.666 98.5382 171.785 98.6047C171.906 98.6699 171.998 98.7449 172.062 98.8299C172.127 98.9136 172.178 98.9824 172.214 99.0364L172.255 99.0359L172.234 97.4903L172.717 97.4838L172.774 101.671L172.307 101.677L172.301 101.195L172.244 101.195C172.209 101.253 172.16 101.326 172.095 101.414C172.031 101.501 171.939 101.579 171.818 101.649C171.698 101.717 171.537 101.753 171.335 101.756ZM171.395 101.321C171.588 101.319 171.751 101.266 171.883 101.163C172.015 101.059 172.115 100.917 172.182 100.736C172.249 100.554 172.281 100.344 172.278 100.107C172.275 99.8726 172.238 99.6679 172.167 99.4931C172.097 99.3168 171.994 99.1805 171.859 99.0842C171.724 98.9865 171.559 98.939 171.362 98.9417C171.158 98.9445 170.988 98.9993 170.853 99.1061C170.72 99.2115 170.62 99.3539 170.555 99.5334C170.49 99.7115 170.459 99.9109 170.462 100.132C170.466 100.355 170.502 100.558 170.573 100.74C170.645 100.92 170.749 101.063 170.886 101.169C171.023 101.273 171.193 101.324 171.395 101.321ZM174.649 101.719C174.45 101.721 174.269 101.686 174.106 101.614C173.943 101.54 173.812 101.432 173.715 101.29C173.618 101.147 173.568 100.973 173.565 100.768C173.562 100.588 173.596 100.442 173.665 100.329C173.735 100.215 173.828 100.125 173.946 100.06C174.063 99.9941 174.194 99.9446 174.336 99.9113C174.48 99.8767 174.625 99.8488 174.771 99.8277C174.961 99.8006 175.116 99.7801 175.234 99.7662C175.354 99.7509 175.441 99.7273 175.495 99.6952C175.55 99.6631 175.577 99.6082 175.576 99.5305L175.576 99.5141C175.573 99.3124 175.516 99.1564 175.404 99.0462C175.294 98.9359 175.127 98.8823 174.905 98.8853C174.675 98.8884 174.495 98.9413 174.365 99.044C174.236 99.1466 174.145 99.2555 174.094 99.3707L173.634 99.2134C173.713 99.0215 173.82 98.8714 173.955 98.7633C174.091 98.6537 174.24 98.5767 174.401 98.5323C174.564 98.4864 174.725 98.4624 174.883 98.4603C174.984 98.4589 175.1 98.4696 175.231 98.4924C175.364 98.5137 175.492 98.5604 175.615 98.6323C175.74 98.7042 175.845 98.8139 175.929 98.9613C176.012 99.1088 176.056 99.3072 176.059 99.5566L176.087 101.626L175.605 101.632L175.599 101.207L175.575 101.207C175.543 101.276 175.489 101.349 175.414 101.428C175.339 101.507 175.238 101.574 175.112 101.631C174.986 101.687 174.832 101.716 174.649 101.719ZM174.717 101.284C174.908 101.282 175.068 101.242 175.198 101.165C175.329 101.089 175.427 100.99 175.492 100.871C175.559 100.751 175.591 100.626 175.59 100.495L175.584 100.054C175.563 100.079 175.519 100.102 175.45 100.123C175.382 100.143 175.303 100.161 175.213 100.177C175.125 100.192 175.038 100.206 174.954 100.218C174.871 100.228 174.804 100.238 174.752 100.245C174.627 100.263 174.51 100.291 174.401 100.33C174.294 100.367 174.208 100.422 174.142 100.495C174.077 100.566 174.046 100.664 174.048 100.786C174.05 100.954 174.114 101.08 174.239 101.164C174.365 101.247 174.525 101.287 174.717 101.284ZM176.968 101.614L176.925 98.4734L177.391 98.467L177.398 98.9413L177.431 98.9409C177.486 98.7847 177.588 98.6572 177.736 98.5584C177.885 98.4596 178.053 98.4089 178.241 98.4064C178.277 98.4059 178.321 98.406 178.374 98.4066C178.427 98.4073 178.468 98.4088 178.495 98.4111L178.502 98.9018C178.485 98.8979 178.448 98.8923 178.389 98.8849C178.331 98.8761 178.271 98.8722 178.207 98.8731C178.054 98.8751 177.918 98.909 177.799 98.9747C177.681 99.039 177.589 99.1275 177.521 99.2402C177.454 99.3516 177.422 99.4781 177.424 99.6198L177.451 101.607L176.968 101.614Z" fill="white"/>
</svg>
