<svg width="24" height="26" viewBox="0 0 24 26" fill="none" xmlns="http://www.w3.org/2000/svg">
<path d="M4 11.1111H20M8.44444 7.55556V4M15.5556 7.55556V4M9.68889 21.7778H14.3111C16.3024 21.7778 17.2981 21.7778 18.0586 21.3902C18.7277 21.0494 19.2716 20.5054 19.6125 19.8364C20 19.0758 20 18.0802 20 16.0889V11.4667C20 9.47537 20 8.47972 19.6125 7.71914C19.2716 7.05012 18.7277 6.50619 18.0586 6.16531C17.2981 5.77778 16.3024 5.77778 14.3111 5.77778H9.68889C7.69759 5.77778 6.70194 5.77778 5.94137 6.16531C5.27235 6.50619 4.72842 7.05012 4.38753 7.71914C4 8.47972 4 9.47537 4 11.4667V16.0889C4 18.0802 4 19.0758 4.38753 19.8364C4.72842 20.5054 5.27235 21.0494 5.94137 21.3902C6.70194 21.7778 7.69759 21.7778 9.68889 21.7778Z" stroke="#F38294" stroke-width="1.77778" stroke-linecap="round"/>
</svg>
