<svg width="11" height="14" viewBox="0 0 11 14" fill="none" xmlns="http://www.w3.org/2000/svg">
<g opacity="0.5">
<path d="M8.89231 1.75156C8.78778 1.75156 8.70312 1.64703 8.70312 1.51823V0.584896C8.70312 0.456096 8.78778 0.351562 8.89231 0.351562C8.99683 0.351562 9.08149 0.456096 9.08149 0.584896V1.51823C9.08149 1.64703 8.99683 1.75156 8.89231 1.75156Z" fill="#FFC3CD"/>
<path d="M10.7819 3.15026H10.0251C9.9206 3.15026 9.83594 3.04573 9.83594 2.91693C9.83594 2.78813 9.9206 2.68359 10.0251 2.68359H10.7819C10.8864 2.68359 10.971 2.78813 10.971 2.91693C10.971 3.04573 10.8864 3.15026 10.7819 3.15026Z" fill="#FFC3CD"/>
<path d="M9.45869 2.448C9.41026 2.448 9.36183 2.42525 9.32494 2.37964C9.25106 2.28852 9.25106 2.14082 9.32494 2.04959L9.89249 1.34959C9.96636 1.25847 10.0861 1.25847 10.16 1.34959C10.2339 1.4407 10.2339 1.5884 10.16 1.67964L9.59244 2.37964C9.55555 2.42525 9.50712 2.448 9.45869 2.448Z" fill="#FFC3CD"/>
<path d="M10.5944 11.4335H9.83762C9.7331 11.4335 9.64844 11.3289 9.64844 11.2001C9.64844 11.0713 9.7331 10.9668 9.83762 10.9668H10.5944C10.6989 10.9668 10.7835 11.0713 10.7835 11.2001C10.7835 11.3289 10.6989 11.4335 10.5944 11.4335Z" fill="#FFC3CD"/>
<path d="M8.7009 13.7672C8.59638 13.7672 8.51172 13.6627 8.51172 13.5339V12.6005C8.51172 12.4717 8.59638 12.3672 8.7009 12.3672C8.80542 12.3672 8.89008 12.4717 8.89008 12.6005V13.5339C8.89008 13.6627 8.80542 13.7672 8.7009 13.7672Z" fill="#FFC3CD"/>
<path d="M9.83874 12.8308C9.79031 12.8308 9.74188 12.8081 9.70499 12.7625L9.13744 12.0624C9.06356 11.9713 9.06356 11.8236 9.13744 11.7324C9.21131 11.6413 9.33107 11.6413 9.40494 11.7324L9.97249 12.4324C10.0464 12.5235 10.0464 12.6712 9.97249 12.7625C9.9356 12.8081 9.88717 12.8308 9.83874 12.8308Z" fill="#FFC3CD"/>
<path d="M6.71406 10.3829C7.3932 10.3829 7.94375 9.70391 7.94375 8.86628C7.94375 8.02864 7.3932 7.34961 6.71406 7.34961C6.03493 7.34961 5.48438 8.02864 5.48438 8.86628C5.48438 9.70391 6.03493 10.3829 6.71406 10.3829Z" fill="#FFC3CD"/>
<path d="M6.71689 3.26562C5.62152 3.26562 4.73047 4.36474 4.73047 5.71563C4.73047 6.45949 5.00355 7.15518 5.46781 7.61905C5.76293 7.17023 6.2129 6.88229 6.71689 6.88229C7.22087 6.88229 7.67084 7.17023 7.96597 7.61905C8.43022 7.15518 8.70331 6.45949 8.70331 5.71563C8.70331 4.36474 7.81226 3.26562 6.71689 3.26562ZM6.71689 4.19896C6.03886 4.19896 5.4872 4.87936 5.4872 5.71563C5.4872 5.84443 5.40245 5.94896 5.29802 5.94896C5.19359 5.94896 5.10883 5.84443 5.10883 5.71563C5.10883 4.62199 5.83019 3.73229 6.71689 3.73229C6.82132 3.73229 6.90607 3.83683 6.90607 3.96563C6.90607 4.09443 6.82132 4.19896 6.71689 4.19896Z" fill="#FFC3CD"/>
<path d="M6.52681 1.86667C5.24774 1.86667 4.27856 2.28492 3.69086 2.63573C3.48579 2.75812 3.2478 2.74202 3.05436 2.59233C2.8594 2.44172 2.74315 2.18248 2.74315 1.8991V0H1.60805V2.40018C1.60805 3.27273 1.8836 4.09313 2.3838 4.71007L4.04719 6.76153C4.62316 7.47192 4.62316 8.62785 4.04719 9.33823C3.47709 10.0414 2.57194 10.0564 1.9867 9.37253C1.56426 8.87892 0.910915 8.88977 0.499348 9.39727C0.177359 9.79463 0 10.3227 0 10.8843V14H1.40667C1.18665 13.3532 0.824932 11.9526 1.4743 11.1517C2.18979 10.2691 2.91266 10.7149 3.7497 11.231C4.43549 11.654 5.21274 12.1333 6.24303 12.1333C8.88024 12.1333 9.83751 8.85418 9.83751 6.65C9.83751 4.65267 8.57802 1.86667 6.52681 1.86667ZM8.16731 8.01838C8.26672 8.27598 8.32405 8.56287 8.32405 8.86667C8.32405 9.9603 7.60269 10.85 6.71599 10.85C5.82929 10.85 5.10794 9.9603 5.10794 8.86667C5.10794 8.56287 5.16516 8.27598 5.26467 8.01838C4.69003 7.46678 4.35121 6.62142 4.35121 5.71667C4.35121 4.10842 5.41205 2.8 6.71599 2.8C8.01993 2.8 9.08078 4.10842 9.08078 5.71667C9.08078 6.62142 8.74195 7.46678 8.16731 8.01838Z" fill="#FFC3CD"/>
</g>
</svg>
