<svg width="10" height="15" viewBox="0 0 10 15" fill="none" xmlns="http://www.w3.org/2000/svg">
<g opacity="0.5">
<path d="M0.566494 9.33613C0.586305 9.55953 0.864452 9.7318 1.19643 9.7318C1.20882 9.7318 1.22129 9.73159 1.23392 9.73107C1.582 9.71751 1.84767 9.51865 1.82723 9.2869C1.79645 8.93752 1.78248 8.61918 1.78248 8.32953C1.78137 7.79269 1.83047 7.35551 1.90806 7.00097C2.01429 6.5152 2.17397 6.18504 2.33222 5.96942V13.8505C2.33222 14.2093 2.76925 14.5 3.30802 14.5C3.84695 14.5 4.28399 14.2093 4.28399 13.8505V9.10769H4.64982V13.8505C4.64982 14.2093 5.08685 14.5 5.62563 14.5C6.16456 14.5 6.60159 14.2093 6.60159 13.8505V5.46672C7.06522 5.37467 7.64306 5.2118 8.18049 4.99366C8.48918 4.86657 8.78146 4.72277 9.02361 4.54534C9.14414 4.45629 9.25306 4.35778 9.33736 4.24272C9.42118 4.12829 9.47951 3.994 9.47951 3.84862C9.48109 3.68958 9.40429 3.52466 9.27058 3.38901C9.13861 3.2534 8.96063 3.14281 8.74957 3.04619C8.74744 3.04514 8.74539 3.04398 8.74326 3.04298C8.588 2.97368 8.41246 2.9098 8.21451 2.85011C7.68379 2.69003 6.9866 2.56104 6.04569 2.44551C5.70258 2.40416 5.37392 2.55579 5.3118 2.78428C5.24953 3.01267 5.4774 3.23134 5.8205 3.27279C6.75479 3.38344 7.39206 3.51888 7.76935 3.63888C7.87724 3.67319 7.96501 3.70634 8.03084 3.73718C8.03115 3.73729 8.03139 3.73745 8.03171 3.7376C8.14371 3.78825 8.19391 3.82839 8.20946 3.84489C8.2123 3.84788 8.21419 3.85004 8.2153 3.85156C8.21222 3.8595 8.20141 3.87967 8.17141 3.90983C8.10803 3.97666 7.95349 4.07953 7.74725 4.17683C7.43863 4.32499 7.02204 4.46643 6.65842 4.56315C6.47688 4.6118 6.3075 4.6499 6.17632 4.67396C6.11088 4.68604 6.05508 4.69455 6.01601 4.69923C6.00441 4.70065 5.99494 4.70165 5.98681 4.70244H2.94211C2.93248 4.70244 2.92317 4.70312 2.91362 4.70338C2.77115 4.70454 2.53436 4.72503 2.2649 4.81545C1.84026 4.95567 1.3827 5.26219 1.06233 5.80534C0.878028 6.11542 0.728378 6.50453 0.633111 7.00108C0.56089 7.37768 0.520005 7.81607 0.519531 8.32958C0.519689 8.6372 0.534528 8.97177 0.566494 9.33613Z" fill="#FFC3CD"/>
<path d="M7.23864 3.61127C7.24504 3.66013 7.24882 3.70894 7.24867 3.75659C7.24867 3.88253 7.22783 4.00048 7.19578 4.08812C7.17976 4.13183 7.1609 4.16803 7.14243 4.19262C7.13335 4.20491 7.12427 4.21416 7.11733 4.21978C7.11038 4.22551 7.10699 4.22614 7.10715 4.22656C7.10146 4.22845 7.08741 4.23087 7.06587 4.23087C6.99357 4.23171 6.85899 4.20265 6.72623 4.17092C6.59111 4.13982 6.4589 4.10598 6.34343 4.10493C6.28589 4.10409 6.21335 4.11691 6.17531 4.16041C6.14792 4.19425 6.13868 4.22808 6.13884 4.25855C6.14113 4.33426 6.18383 4.39573 6.18123 4.43267C6.17625 4.46283 6.17965 4.47917 6.05439 4.51584C6.04113 4.51936 6.02897 4.52083 6.01555 4.52094C5.96543 4.5223 5.88358 4.49188 5.79866 4.42631C5.54016 4.23244 5.28932 3.77446 5.29248 3.49174C5.29232 3.46075 5.29532 3.43201 5.30101 3.40647C5.30535 3.38688 5.30732 3.36728 5.30732 3.34805C5.3059 3.19295 5.18585 3.04705 5.07519 2.91019C4.96232 2.77406 4.85979 2.64518 4.86216 2.54998C4.865 2.47117 4.91362 2.40539 5.12949 2.33452C5.25175 2.296 5.36778 2.27956 5.48065 2.27945C5.60646 2.27809 5.73022 2.29958 5.85067 2.33683C5.87751 2.33499 5.90458 2.33378 5.9322 2.33378C5.97925 2.33378 6.02684 2.33656 6.07357 2.34224C6.11879 2.34781 6.16299 2.35338 6.20719 2.35905C5.9899 2.25103 5.74751 2.17674 5.48065 2.17432C5.42816 2.17432 5.37488 2.17837 5.32137 2.18462C5.06777 2.09173 4.7766 2.03882 4.46664 2.03882C3.48587 2.03882 2.69073 2.56805 2.69073 3.22096C2.69073 3.87386 3.48587 4.40309 4.46664 4.40309C4.81709 4.40309 5.14354 4.33526 5.41877 4.21862C5.49659 4.32643 5.58468 4.42284 5.67979 4.49551C5.77876 4.5699 5.8865 4.62465 6.01555 4.62601C6.01595 4.62601 6.01634 4.62601 6.01682 4.62601C6.04886 4.62601 6.08122 4.62197 6.11216 4.61372C6.26765 4.57784 6.34406 4.50312 6.33908 4.43272C6.33624 4.36111 6.29449 4.30279 6.29686 4.25861C6.29702 4.24148 6.30104 4.2275 6.31233 4.21274C6.31233 4.21274 6.31264 4.21279 6.31359 4.21284C6.31698 4.21179 6.32732 4.21001 6.3435 4.21011C6.40823 4.20906 6.54099 4.23822 6.67374 4.27006C6.80919 4.30132 6.9455 4.3351 7.06594 4.33594C7.10249 4.33594 7.13951 4.33263 7.1751 4.3215C7.27542 4.2833 7.30857 4.21095 7.3493 4.11302C7.3849 4.01498 7.40653 3.89036 7.40653 3.75675C7.40637 3.72171 7.40439 3.68598 7.40132 3.65005C7.35088 3.63733 7.29705 3.62446 7.23864 3.61127Z" fill="#FFC3CD"/>
<path d="M7.83189 2.00063C7.58721 1.62655 6.68805 2.17963 6.68805 2.17963C6.68805 2.17963 7.99977 2.25713 7.83189 2.00063Z" fill="#FFC3CD"/>
<path d="M6.26675 0.503313C5.39932 0.430966 5.76436 1.56755 5.76436 1.56755C5.76436 1.56755 6.86172 0.552857 6.26675 0.503313Z" fill="#FFC3CD"/>
<path d="M8.3349 0.901415C7.71964 0.416688 6.75015 1.50798 6.75015 1.50798C6.75015 1.50798 8.75717 1.23388 8.3349 0.901415Z" fill="#FFC3CD"/>
</g>
</svg>
