<svg width="80" height="79" viewBox="0 0 80 79" fill="none" xmlns="http://www.w3.org/2000/svg">
<g clip-path="url(#clip0_5214_103732)">
<path d="M67.0684 65.9095C81.4598 51.5181 81.4598 28.185 67.0684 13.7936C52.677 -0.597773 29.3439 -0.597781 14.9525 13.7936C0.561074 28.185 0.561076 51.5181 14.9525 65.9095C29.3439 80.3009 52.677 80.3009 67.0684 65.9095Z" fill="#C9E1EA"/>
<mask id="mask0_5214_103732" style="mask-type:luminance" maskUnits="userSpaceOnUse" x="4" y="2" width="74" height="75">
<path d="M67.0684 65.9076C81.4598 51.5162 81.4598 28.1831 67.0684 13.7917C52.677 -0.599726 29.3439 -0.599734 14.9525 13.7917C0.561074 28.1831 0.561076 51.5161 14.9525 65.9076C29.3439 80.299 52.677 80.299 67.0684 65.9076Z" fill="white"/>
</mask>
<g mask="url(#mask0_5214_103732)">
<path d="M56.0587 18.1953H24.3373C23.9914 18.1953 23.7109 18.4757 23.7109 18.8216V81.1521C23.7109 81.498 23.9914 81.7784 24.3373 81.7784H56.0587C56.4046 81.7784 56.685 81.498 56.685 81.1521V18.8216C56.685 18.4757 56.4046 18.1953 56.0587 18.1953Z" fill="#939AA0"/>
<path d="M82.8305 29.1152H66.1849C65.839 29.1152 65.5586 29.3956 65.5586 29.7416V42.7695C65.5586 43.1154 65.839 43.3958 66.1849 43.3958H82.8305C83.1764 43.3958 83.4568 43.1154 83.4568 42.7695V29.7416C83.4568 29.3956 83.1764 29.1152 82.8305 29.1152Z" fill="#1E5259"/>
<path d="M81.3884 43.8698H67.625C66.2242 43.8698 65.0859 42.7315 65.0859 41.3281V31.1823C65.0859 29.7815 66.2242 28.6406 67.625 28.6406H81.3884C82.7892 28.6406 83.9301 29.7789 83.9301 31.1823V41.3281C83.9301 42.7289 82.7918 43.8698 81.3884 43.8698ZM67.625 29.5892C66.744 29.5892 66.0293 30.3065 66.0293 31.1849V41.3307C66.0293 42.2117 66.744 42.9264 67.625 42.9264H81.3884C82.2694 42.9264 82.9841 42.2091 82.9841 41.3307V31.1849C82.9841 30.3039 82.2668 29.5892 81.3884 29.5892H67.625Z" fill="#1E5259"/>
<path d="M21.3698 36.3848H4.93734C4.54263 36.3848 4.22266 36.7047 4.22266 37.0994V68.3245C4.22266 68.7192 4.54263 69.0391 4.93734 69.0391H21.3698C21.7645 69.0391 22.0845 68.7192 22.0845 68.3245V37.0994C22.0845 36.7047 21.7645 36.3848 21.3698 36.3848Z" fill="#1E5259"/>
<path d="M19.7251 69.5125H6.58273C5.02083 69.5125 3.75 68.2416 3.75 66.6797V38.7448C3.75 37.1829 5.02083 35.9121 6.58273 35.9121H19.7251C21.287 35.9121 22.5578 37.1829 22.5578 38.7448V66.6797C22.5578 68.2416 21.287 69.5125 19.7251 69.5125ZM6.58273 36.8581C5.5432 36.8581 4.69598 37.7053 4.69598 38.7448V66.6797C4.69598 67.7193 5.5432 68.5665 6.58273 68.5665H19.7251C20.7646 68.5665 21.6118 67.7193 21.6118 66.6797V38.7448C21.6118 37.7027 20.7646 36.8581 19.7251 36.8581H6.58273Z" fill="#1E5259"/>
<path d="M72.6022 71.0186C73.2078 72.6715 72.9245 74.2308 71.9603 74.7999C70.9962 75.3587 69.9202 74.9325 69.9202 74.9325C69.9202 74.9325 69.8267 76.5021 68.9275 77.2012C67.4253 78.3733 65.4398 77.3987 65.4398 77.3987C65.4398 77.3987 65.4009 77.9653 63.644 78.3447C61.0556 78.9035 59.5717 77.5313 59.5717 77.5313C59.5717 77.5313 59.0909 78.8177 57.1625 78.9009C56.9546 78.9113 56.6532 78.8359 56.2737 78.7034C55.1199 78.2875 53.2773 77.287 51.323 76.0863C51.3126 76.0863 51.3048 76.0759 51.2944 76.0681C49.6311 75.0468 47.8821 73.8747 46.4086 72.8066C44.8311 71.6527 43.5628 70.6132 43.0431 69.9713C40.8496 67.2789 37.5439 55.041 35.6052 52.676C35.4623 52.4967 35.3115 52.346 35.1712 52.203C34.311 51.361 33.3858 51.0595 32.5256 50.9946C31.9954 50.9478 31.486 50.9946 31.0234 51.0699C31.8837 47.3562 33.8302 44.3234 36.3433 42.6887C37.0709 42.2157 37.8376 41.8571 38.6484 41.631C38.6588 41.6206 38.6666 41.6206 38.6874 41.6206C39.1214 41.5634 39.7919 41.4698 40.5872 41.3555C40.5976 41.3659 40.6053 41.3555 40.6053 41.3555C43.2899 41.0046 47.5053 40.5343 50.2444 40.9397C54.0257 41.4984 58.0409 43.1045 60.4605 44.3987C62.8696 45.6852 67.3786 49.625 69.06 50.2669C70.7519 50.9088 72.9245 51.3168 72.9999 52.5149C73.0284 52.8917 72.9609 53.3569 72.7816 53.8195C72.4047 54.8486 71.4951 55.909 69.9462 56.1351C67.6982 56.4573 65.0422 55.4178 63.8312 54.9344C62.6305 54.4432 61.3363 53.4037 60.9387 53.8845C60.5332 54.3653 62.828 60.1321 64.7563 62.4476C66.5339 64.5735 71.6744 68.4769 72.5996 71.0186H72.6022Z" fill="#6A8F9B"/>
</g>
<path d="M73.6669 22.77L71.3098 25.6677C71.2318 25.7612 71.1201 25.8054 71.0005 25.7794C70.881 25.7534 70.7874 25.6677 70.751 25.5559L68.9085 19.142L65.7015 31.4579C65.6677 31.5956 65.5378 31.697 65.3922 31.697H65.3741C65.2207 31.6892 65.0908 31.5696 65.0752 31.4137L61.5668 3.11239L58.2818 22.4425L58.274 22.5023C58.274 22.5023 58.274 22.5101 58.2662 22.5205C58.2662 22.5543 58.248 22.5803 58.2324 22.6063C58.2143 22.64 58.1987 22.6738 58.1649 22.692C58.1129 22.744 58.0375 22.77 57.9596 22.77H45.901L43.5438 25.6677C43.4762 25.7612 43.3541 25.8054 43.2346 25.7794C43.115 25.7534 43.0215 25.6677 42.9851 25.5559L41.1425 19.142L37.9355 31.4579C37.9017 31.5956 37.7718 31.697 37.6263 31.697H37.6081C37.4547 31.6892 37.3248 31.5696 37.3092 31.4137L33.819 3.10459L30.5184 22.4425L30.5107 22.5023C30.5107 22.5283 30.5029 22.5439 30.4847 22.5699C30.4847 22.5881 30.4665 22.6037 30.4587 22.6218C30.4587 22.64 30.4405 22.6478 30.4249 22.6634C30.3833 22.7232 30.2975 22.7492 30.2118 22.757H30.1442L18.1454 22.7648L15.7882 25.6625C15.7103 25.756 15.5907 25.8002 15.4712 25.7742C15.3516 25.7482 15.2581 25.6625 15.2321 25.5507L13.3791 19.1368L10.1799 31.4527C10.1384 31.5904 10.0084 31.6918 9.86289 31.6918H9.8447C9.69137 31.684 9.56922 31.5644 9.54323 31.4085L8.40234 22.6868L8.93511 21.7252L9.97204 29.6829L13.0517 17.84C13.0854 17.7023 13.2154 17.6009 13.3609 17.6009C13.4883 17.6191 13.6364 17.6945 13.6702 17.8322L15.6765 24.7789L17.7426 22.2398C17.8023 22.1619 17.8959 22.1203 17.9921 22.1203L29.9207 22.1125L33.5487 0.841006C33.5747 0.687674 33.702 0.557733 33.8735 0.575924C34.0269 0.575924 34.1646 0.695471 34.1828 0.859197L37.7328 29.6673L40.8124 17.8504C40.8462 17.7126 40.9762 17.6113 41.1217 17.6113C41.2672 17.6295 41.3868 17.7049 41.431 17.8426L43.4295 24.7893L45.4955 22.2502C45.5631 22.1723 45.6489 22.1307 45.7528 22.1307H57.6815L61.2913 0.841006C61.3251 0.687674 61.4368 0.557733 61.6161 0.575924C61.7799 0.575924 61.9072 0.695471 61.9332 0.859197L65.5014 29.6673L68.581 17.8504C68.6148 17.7126 68.7447 17.6113 68.8799 17.6113C69.0514 17.6295 69.1554 17.7049 69.1969 17.8426L71.1954 24.7893L73.2615 22.2502C73.2875 22.2242 73.3135 22.1982 73.3473 22.1826L73.6643 22.7752L73.6669 22.77Z" fill="#668F9D"/>
<path d="M53.2969 14.7715H21.5755C21.2296 14.7715 20.9492 15.0519 20.9492 15.3978V77.7283C20.9492 78.0742 21.2296 78.3546 21.5755 78.3546H53.2969C53.6428 78.3546 53.9233 78.0742 53.9233 77.7283V15.3978C53.9233 15.0519 53.6428 14.7715 53.2969 14.7715Z" fill="#6A8F9B"/>
<path d="M51.4635 17.7812H23.409C23.1033 17.7812 22.8555 18.0291 22.8555 18.3348V73.4587C22.8555 73.7644 23.1033 74.0123 23.409 74.0123H51.4635C51.7692 74.0123 52.017 73.7644 52.017 73.4587V18.3348C52.017 18.0291 51.7692 17.7812 51.4635 17.7812Z" fill="#FCF9F9"/>
<path d="M39.3973 19.7457C40.4822 18.6608 40.4822 16.9017 39.3973 15.8168C38.3123 14.7319 36.5533 14.7319 35.4684 15.8168C34.3834 16.9017 34.3834 18.6608 35.4684 19.7457C36.5533 20.8306 38.3123 20.8306 39.3973 19.7457Z" fill="#6A8F9B"/>
<path d="M38.2428 17.7815C38.2428 18.2285 37.8789 18.5924 37.4319 18.5924C36.9849 18.5924 36.6211 18.2285 36.6211 17.7815C36.6211 17.3345 36.9849 16.9707 37.4319 16.9707C37.8789 16.9707 38.2428 17.3345 38.2428 17.7815Z" fill="#1E5259"/>
<path d="M52.017 26.1621H22.8555V30.0162H52.017V26.1621Z" fill="#81F2EF"/>
<path d="M48.4545 69.8418H32.6406V71.7078H48.4545V69.8418Z" fill="#939AA0"/>
<path d="M31.2656 69.5974C31.1071 69.9639 30.8446 70.2575 30.5223 70.4524L30.3924 70.5278L28.2847 71.7337L26.1745 70.5278L26.0393 70.4524C25.7197 70.2575 25.4572 69.9639 25.2961 69.5974C24.8828 68.6385 25.322 67.5288 26.2758 67.1155C26.9749 66.8141 27.7494 66.9622 28.2821 67.4378C28.8149 66.9622 29.5919 66.8141 30.2884 67.1155C31.2474 67.5288 31.684 68.6411 31.2682 69.5974H31.2656Z" fill="#DD4231"/>
<path d="M28.2778 72.0582C28.2363 72.0582 28.1947 72.0504 28.1557 72.0348C28.1375 72.027 28.1193 72.0166 28.1011 72.0062L25.8765 70.7354C25.4841 70.4937 25.1826 70.1481 24.9981 69.7296C24.5147 68.6069 25.0293 67.3049 26.1442 66.8215C26.8485 66.5175 27.6593 66.6032 28.2778 67.0295C28.899 66.6032 29.7098 66.5175 30.4089 66.8215C30.9494 67.0554 31.3679 67.4868 31.5836 68.0326C31.8019 68.581 31.7915 69.1839 31.555 69.727C31.3731 70.1455 31.0716 70.4937 30.6844 70.7276L28.4416 72.0114C28.3896 72.0426 28.3324 72.0582 28.2726 72.0582H28.2778ZM27.0226 67.2841C26.8121 67.2841 26.599 67.3257 26.3989 67.4115C25.6088 67.7545 25.245 68.6771 25.588 69.4724C25.718 69.7686 25.9311 70.0129 26.204 70.1792L28.2804 71.3643L30.3621 70.174C30.6272 70.0129 30.8403 69.766 30.9702 69.4698C31.1366 69.0851 31.1444 68.6589 30.991 68.2691C30.8377 67.8819 30.5414 67.5752 30.1594 67.4115C29.6007 67.1698 28.9483 67.2737 28.4961 67.6792C28.374 67.7883 28.1895 67.7883 28.0673 67.6792C27.7789 67.4219 27.4046 67.2841 27.0278 67.2841H27.0226Z" fill="#DD4231"/>
<path d="M47.181 22.0098H27.6923C26.5228 22.0098 25.5742 22.9583 25.5742 24.1278V32.2726C25.5742 33.442 26.5228 34.3906 27.6923 34.3906H28.4095C28.4095 34.3906 29.8987 34.4608 30.7199 35.0533C31.5334 35.6381 31.9622 36.6412 31.9622 36.6412L31.9726 34.3906H47.1835C48.353 34.3906 49.3016 33.442 49.3016 32.2726V24.1278C49.3016 22.9583 48.353 22.0098 47.1835 22.0098H47.181Z" fill="#FCF9F9"/>
<path d="M31.9602 36.9641C31.8329 36.9641 31.7159 36.8887 31.6639 36.7692C31.6587 36.7588 31.2585 35.8388 30.5308 35.3138C29.7954 34.7863 28.4076 34.7135 28.392 34.7109H27.6903C26.3441 34.7109 25.25 33.6168 25.25 32.2706V24.1259C25.25 22.7797 26.3441 21.6855 27.6903 21.6855H47.179C48.5252 21.6855 49.6193 22.7797 49.6193 24.1259V32.2706C49.6193 33.6168 48.5252 34.7109 47.179 34.7109H46.615C46.4383 34.7109 46.2928 34.568 46.2928 34.3887C46.2928 34.2093 46.4357 34.0664 46.615 34.0664H47.179C48.1691 34.0664 48.9748 33.2608 48.9748 32.2706V24.1259C48.9748 23.1357 48.1691 22.3301 47.179 22.3301H27.6903C26.7002 22.3301 25.8945 23.1357 25.8945 24.1259V32.2706C25.8945 33.2608 26.7002 34.0664 27.6903 34.0664H28.4076C28.4881 34.069 30.0163 34.1496 30.9051 34.7889C31.1987 34.9994 31.443 35.2567 31.6405 35.5088L31.6457 34.3861C31.6457 34.2093 31.7913 34.0664 31.968 34.0664H38.0025C38.1792 34.0664 38.3247 34.2093 38.3247 34.3887C38.3247 34.568 38.1818 34.7109 38.0025 34.7109H32.2902L32.2825 36.6418C32.2825 36.7952 32.1733 36.9251 32.0252 36.9563C32.0044 36.9615 31.981 36.9641 31.9602 36.9641Z" fill="#939AA0"/>
<path d="M44.4333 34.7129H42.084C41.9073 34.7129 41.7617 34.5699 41.7617 34.3906C41.7617 34.2113 41.9047 34.0684 42.084 34.0684H44.4333C44.61 34.0684 44.7556 34.2113 44.7556 34.3906C44.7556 34.5699 44.6126 34.7129 44.4333 34.7129Z" fill="#939AA0"/>
<path d="M28.7201 25.8702H28.7019L27.6338 26.4471L27.4727 25.813L28.8137 25.0957H29.5231V31.2368H28.7201V25.8702Z" fill="#1E5259"/>
<path d="M29.5272 31.4721H28.7241C28.5942 31.4721 28.4876 31.3656 28.4876 31.2356V26.2536L27.7496 26.6513C27.6872 26.685 27.6092 26.6876 27.5417 26.6591C27.4741 26.6305 27.4247 26.5707 27.4065 26.5005L27.2454 25.8664C27.2194 25.7599 27.2662 25.6507 27.3623 25.6013L28.7033 24.8841C28.7371 24.8659 28.7761 24.8555 28.8151 24.8555H29.5246C29.6545 24.8555 29.7611 24.962 29.7611 25.092V31.233C29.7611 31.363 29.6545 31.4695 29.5246 31.4695L29.5272 31.4721ZM28.9606 30.9991H29.2907V25.3311H28.8775L27.7522 25.934L27.7937 26.0951L28.5942 25.6637C28.7423 25.5857 28.9606 25.7027 28.9606 25.8716V31.0017V30.9991Z" fill="#1E5259"/>
<path d="M31.7656 31.2352V30.7259L32.4179 30.0918C33.985 28.6 34.6945 27.8048 34.7049 26.8796C34.7049 26.2559 34.4034 25.6789 33.4861 25.6789C32.9299 25.6789 32.4647 25.9622 32.1814 26.1987L31.9164 25.614C32.3426 25.2553 32.9455 24.9902 33.655 24.9902C34.9778 24.9902 35.5339 25.8972 35.5339 26.7756C35.5339 27.9087 34.7127 28.8261 33.4185 30.0736L32.9273 30.5258V30.5439H35.6873V31.2326H31.7656V31.2352Z" fill="#1E5259"/>
<path d="M35.6855 31.4713H31.7638C31.6339 31.4713 31.5273 31.3647 31.5273 31.2348V30.7254C31.5273 30.6604 31.5533 30.6006 31.6001 30.5565L32.2524 29.9223C33.8091 28.441 34.4588 27.6925 34.4666 26.8765C34.4666 26.2398 34.1366 25.9149 33.4843 25.9149C32.9671 25.9149 32.5409 26.206 32.3304 26.3801C32.2732 26.4269 32.1978 26.4425 32.1277 26.4295C32.0549 26.4139 31.9951 26.3645 31.9665 26.297L31.7015 25.7122C31.6573 25.6161 31.6833 25.5017 31.7638 25.4342C32.2836 24.995 32.9541 24.7559 33.6558 24.7559C35.1189 24.7559 35.7712 25.772 35.7712 26.7778C35.7712 28.0382 34.8642 29.0102 33.583 30.2446L33.5129 30.3096H35.6881C35.818 30.3096 35.9246 30.4161 35.9246 30.5461V31.2348C35.9246 31.3647 35.818 31.4713 35.6881 31.4713H35.6855ZM32.0003 30.9983H35.449V30.78H32.9255C32.7956 30.78 32.689 30.6734 32.689 30.5435C32.689 30.4785 32.7176 30.3953 32.7644 30.3512L33.2556 29.8964C34.6382 28.5658 35.2957 27.7575 35.2957 26.7726C35.2957 26.0579 34.8643 25.2237 33.6506 25.2237C33.123 25.2237 32.6163 25.3848 32.203 25.6836L32.2706 25.8318C32.5799 25.6265 32.9931 25.442 33.4791 25.442C34.3887 25.442 34.9344 25.9799 34.9344 26.8791C34.924 27.9134 34.1704 28.7425 32.5747 30.2628L31.9951 30.8241V30.9983H32.0003Z" fill="#1E5259"/>
<path d="M36.6797 27.4174C36.6797 27.0666 36.9162 26.8223 37.2462 26.8223C37.5763 26.8223 37.7946 27.0692 37.8024 27.4174C37.8024 27.7475 37.5841 28.0021 37.2358 28.0021C36.9058 28.0021 36.6797 27.7475 36.6797 27.4174ZM36.6797 30.7517C36.6797 30.4035 36.9162 30.1566 37.2462 30.1566C37.5763 30.1566 37.7946 30.4035 37.8024 30.7517C37.8024 31.0818 37.5841 31.3364 37.2358 31.3364C36.9058 31.3364 36.6797 31.0818 36.6797 30.7517Z" fill="#1E5259"/>
<path d="M37.238 31.5751C36.7858 31.5751 36.4453 31.2216 36.4453 30.7538C36.4453 30.286 36.7832 29.9222 37.2484 29.9222C37.7135 29.9222 38.028 30.2626 38.041 30.746C38.041 31.2294 37.7031 31.5751 37.238 31.5751ZM37.2484 30.3952C37.0482 30.3952 36.9183 30.5355 36.9183 30.7538C36.9183 30.9279 37.0171 31.1047 37.2406 31.1047C37.4848 31.1047 37.5706 30.9253 37.5706 30.7538C37.5706 30.6733 37.5394 30.3952 37.2484 30.3952ZM37.238 28.2408C36.7858 28.2408 36.4453 27.8873 36.4453 27.4195C36.4453 26.9517 36.7832 26.5879 37.2484 26.5879C37.7135 26.5879 38.028 26.9283 38.041 27.4143C38.041 27.8977 37.7031 28.2433 37.238 28.2433V28.2408ZM37.2484 27.0583C37.0482 27.0583 36.9183 27.1986 36.9183 27.4169C36.9183 27.591 37.0171 27.7678 37.2406 27.7678C37.4848 27.7678 37.5706 27.5884 37.5706 27.4169C37.5706 27.3364 37.5394 27.0583 37.2484 27.0583Z" fill="#1E5259"/>
<path d="M38.7678 30.2802C39.0043 30.4309 39.5526 30.6674 40.1295 30.6674C41.1977 30.6674 41.5277 29.9865 41.5173 29.4771C41.5069 28.6169 40.7325 28.2479 39.9294 28.2479H39.4668V27.6241H39.9294C40.535 27.6241 41.299 27.3123 41.299 26.5846C41.299 26.0934 40.9872 25.6594 40.2231 25.6594C39.7319 25.6594 39.2589 25.8777 38.9939 26.0648L38.7756 25.4593C39.0978 25.2228 39.7215 24.9863 40.3816 24.9863C41.5901 24.9863 42.1384 25.7036 42.1384 26.4521C42.1384 27.0862 41.7616 27.6241 41.0054 27.897V27.9152C41.7616 28.0659 42.3749 28.6325 42.3749 29.4927C42.3749 30.4751 41.6083 31.3353 40.1347 31.3353C39.4461 31.3353 38.8405 31.117 38.5391 30.9195L38.7652 30.2776L38.7678 30.2802Z" fill="#1E5259"/>
<path d="M40.1374 31.5752C39.3733 31.5752 38.7314 31.3309 38.4118 31.1204C38.3208 31.0606 38.2818 30.9463 38.3182 30.8449L38.5443 30.203C38.5677 30.1355 38.6223 30.0809 38.6898 30.0575C38.7574 30.0341 38.8328 30.0445 38.8926 30.0809C39.0823 30.203 39.5838 30.4317 40.127 30.4317C40.5272 30.4317 40.8313 30.3278 41.034 30.1251C41.2627 29.8912 41.2835 29.5975 41.2809 29.4831C41.2731 28.7477 40.5766 28.4878 39.9295 28.4878H39.4669C39.337 28.4878 39.2304 28.3812 39.2304 28.2513V27.6276C39.2304 27.4976 39.337 27.3911 39.4669 27.3911H39.9295C40.3843 27.3911 41.0626 27.178 41.0626 26.588C41.0626 26.1436 40.7637 25.8993 40.2206 25.8993C39.7892 25.8993 39.3629 26.0943 39.129 26.2606C39.0693 26.3022 38.9913 26.3152 38.9211 26.2944C38.851 26.271 38.7938 26.219 38.7704 26.1488L38.5521 25.5433C38.5157 25.4446 38.5521 25.3354 38.6353 25.273C38.9861 25.0157 39.6618 24.7559 40.3817 24.7559C41.7591 24.7559 42.375 25.6109 42.375 26.4555C42.375 27.0428 42.0969 27.5392 41.5953 27.8693C42.2269 28.1785 42.6115 28.7763 42.6115 29.4961C42.6115 30.4967 41.837 31.5752 40.1374 31.5752ZM38.8302 30.8163C39.1394 30.9697 39.6202 31.1048 40.1374 31.1048C41.52 31.1048 42.1411 30.2992 42.1411 29.4987C42.1411 28.6983 41.5044 28.2617 40.9612 28.1525C40.8521 28.1291 40.7715 28.033 40.7715 27.9212C40.7715 27.8225 40.8339 27.7133 40.9274 27.6795C41.559 27.4509 41.9046 27.0168 41.9046 26.4555C41.9046 25.8941 41.507 25.2263 40.3843 25.2263C39.8671 25.2263 39.3733 25.3848 39.0641 25.5589L39.1187 25.7148C39.4201 25.5563 39.8125 25.4238 40.2232 25.4238C41.1925 25.4238 41.5356 26.0501 41.5356 26.5854C41.5356 27.4223 40.7273 27.8615 39.9295 27.8615H39.7034V28.0122H39.9295C41.0262 28.0122 41.7435 28.5865 41.7539 29.4753C41.7617 29.8444 41.6213 30.2004 41.3718 30.4551C41.1691 30.6604 40.7923 30.9047 40.1296 30.9047C39.6488 30.9047 39.2018 30.7592 38.9004 30.6188L38.8302 30.8163Z" fill="#1E5259"/>
<path d="M47.5006 28.0984C47.5006 30.1879 46.7261 31.3392 45.3643 31.3392C44.1637 31.3392 43.3528 30.2139 43.332 28.1842C43.332 26.1259 44.2208 24.9902 45.4683 24.9902C46.7157 24.9902 47.5006 26.1441 47.5006 28.0984ZM44.1663 28.192C44.1663 29.7877 44.6574 30.6947 45.4137 30.6947C46.2635 30.6947 46.6715 29.7019 46.6715 28.1348C46.6715 26.5677 46.2843 25.6321 45.4241 25.6321C44.6964 25.6321 44.1663 26.5209 44.1663 28.192Z" fill="#1E5259"/>
<path d="M45.3625 31.5752C43.9826 31.5752 43.1145 30.2758 43.0938 28.1863C43.0938 26.0683 44.0033 24.7559 45.4639 24.7559C46.9244 24.7559 47.7327 26.0059 47.7327 28.1006C47.7327 30.3096 46.8673 31.5778 45.3599 31.5778L45.3625 31.5752ZM45.4665 25.2263C44.2944 25.2263 43.5667 26.3593 43.5667 28.1837C43.5849 30.0107 44.2554 31.1022 45.3625 31.1022C47.0154 31.1022 47.2623 29.2207 47.2623 28.098C47.2623 26.2736 46.6074 25.2263 45.4665 25.2263ZM45.4093 30.9333C44.4815 30.9333 43.9254 29.9094 43.9254 28.1941C43.9254 26.1306 44.6972 25.3978 45.4171 25.3978C45.9707 25.3978 46.901 25.7538 46.901 28.1369C46.901 30.5201 45.9655 30.9333 45.4093 30.9333ZM45.4197 25.8682C44.8012 25.8682 44.3984 26.7804 44.3984 28.1915C44.3984 29.6027 44.7856 30.4603 45.4093 30.4603C46.3293 30.4603 46.4307 28.8334 46.4307 28.1369C46.4307 27.2897 46.2981 25.8682 45.4197 25.8682Z" fill="#1E5259"/>
<path d="M79.0492 26.9727H62.4037C62.0578 26.9727 61.7773 27.2531 61.7773 27.599V40.6269C61.7773 40.9728 62.0578 41.2533 62.4037 41.2533H79.0492C79.3951 41.2533 79.6755 40.9728 79.6755 40.6269V27.599C79.6755 27.2531 79.3951 26.9727 79.0492 26.9727Z" fill="#FCF9F9"/>
<path d="M71.6906 37.6851C71.6906 38.1503 71.3137 38.5246 70.8511 38.5246C70.3886 38.5246 70.0117 38.1477 70.0117 37.6851C70.0117 37.2225 70.3886 36.8457 70.8511 36.8457C71.3137 36.8457 71.6906 37.2225 71.6906 37.6851Z" fill="#BCE4ED"/>
<path d="M70.8492 38.8468C70.2073 38.8468 69.6875 38.3244 69.6875 37.6851C69.6875 37.0458 70.2099 36.5234 70.8492 36.5234C71.4885 36.5234 72.0109 37.0458 72.0109 37.6851C72.0109 38.3244 71.4885 38.8468 70.8492 38.8468ZM70.8492 37.1654C70.5633 37.1654 70.3294 37.3992 70.3294 37.6851C70.3294 37.971 70.5633 38.2049 70.8492 38.2049C71.1351 38.2049 71.3689 37.971 71.3689 37.6851C71.3689 37.3992 71.1351 37.1654 70.8492 37.1654Z" fill="#6A8F9B"/>
<path d="M70.8472 31.382C71.3108 31.382 71.6867 31.0062 71.6867 30.5425C71.6867 30.0789 71.3108 29.7031 70.8472 29.7031C70.3836 29.7031 70.0078 30.0789 70.0078 30.5425C70.0078 31.0062 70.3836 31.382 70.8472 31.382Z" fill="#BCE4ED"/>
<path d="M70.8492 31.7042C70.2073 31.7042 69.6875 31.1819 69.6875 30.5425C69.6875 29.9032 70.2099 29.3809 70.8492 29.3809C71.4885 29.3809 72.0109 29.9032 72.0109 30.5425C72.0109 31.1819 71.4885 31.7042 70.8492 31.7042ZM70.8492 30.0228C70.5633 30.0228 70.3294 30.2567 70.3294 30.5425C70.3294 30.8284 70.5633 31.0623 70.8492 31.0623C71.1351 31.0623 71.3689 30.8284 71.3689 30.5425C71.3689 30.2567 71.1351 30.0228 70.8492 30.0228Z" fill="#6A8F9B"/>
<path d="M70.8487 30.2735C70.8487 30.2735 69.5077 30.2553 68.8892 31.0973C68.0576 32.233 68.6579 33.8936 68.2967 34.6213C67.9354 35.349 66.9297 35.4685 66.9297 35.4685V37.2669H70.8487V30.2735Z" fill="#BCE4ED"/>
<path d="M70.8507 37.5892H66.9316C66.7549 37.5892 66.6094 37.4462 66.6094 37.2669V35.4685C66.6094 35.3074 66.7315 35.1696 66.8926 35.1488C66.9004 35.1488 67.7321 35.0371 68.0102 34.4783C68.1193 34.26 68.1115 33.8442 68.1011 33.405C68.0855 32.6358 68.0673 31.6768 68.6313 30.9075C69.3382 29.9434 70.7961 29.9512 70.8533 29.9512L70.8455 30.5957C70.8117 30.5905 69.6578 30.5957 69.1484 31.287C68.7118 31.8821 68.73 32.6851 68.743 33.392C68.7534 33.9352 68.7638 34.403 68.5845 34.7642C68.2804 35.3801 67.6281 35.6322 67.2513 35.731V36.9446H70.8481V37.5892H70.8507Z" fill="#6A8F9B"/>
<path d="M70.8516 30.2735C70.8516 30.2735 72.1926 30.2553 72.8111 31.0973C73.6427 32.233 73.0424 33.8936 73.4036 34.6213C73.7649 35.349 74.7706 35.4685 74.7706 35.4685V37.2669H70.8516V30.2735Z" fill="#BCE4ED"/>
<path d="M74.768 37.5892H70.8489V36.9446H74.4457V35.731C74.0689 35.6322 73.4166 35.3801 73.1125 34.7642C72.9332 34.403 72.9436 33.9352 72.954 33.392C72.967 32.6852 72.9852 31.8821 72.5486 31.287C72.0418 30.5931 70.8957 30.5905 70.8515 30.5957L70.8438 29.9512C70.9113 29.9512 72.3589 29.9408 73.0658 30.9075C73.6297 31.6794 73.6115 32.6358 73.5959 33.4076C73.5881 33.8468 73.5777 34.2626 73.6869 34.4809C73.965 35.0397 74.7966 35.1514 74.8044 35.1514C74.9655 35.1722 75.0876 35.3074 75.0876 35.4711V37.2695C75.0876 37.4462 74.9447 37.5918 74.7654 37.5918L74.768 37.5892Z" fill="#6A8F9B"/>
<path d="M65.8509 33.4726H64.6035C64.4268 33.4726 64.2812 33.3297 64.2812 33.1504C64.2812 32.9711 64.4242 32.8281 64.6035 32.8281H65.8509C66.0277 32.8281 66.1732 32.9711 66.1732 33.1504C66.1732 33.3297 66.0303 33.4726 65.8509 33.4726Z" fill="#939AA0"/>
<path d="M66.0294 31.7941C65.98 31.7941 65.9332 31.7837 65.8864 31.7603L64.8729 31.2535C64.7144 31.173 64.6494 30.9806 64.73 30.8221C64.8105 30.6636 65.0028 30.5986 65.1614 30.6792L66.1749 31.1859C66.3334 31.2665 66.3984 31.4588 66.3178 31.6174C66.2607 31.7291 66.1489 31.7941 66.0294 31.7941Z" fill="#939AA0"/>
<path d="M77.097 33.4726H75.8496C75.6729 33.4726 75.5273 33.3297 75.5273 33.1504C75.5273 32.9711 75.6703 32.8281 75.8496 32.8281H77.097C77.2738 32.8281 77.4193 32.9711 77.4193 33.1504C77.4193 33.3297 77.2764 33.4726 77.097 33.4726Z" fill="#939AA0"/>
<path d="M75.6669 31.7941C75.5499 31.7941 75.4356 31.7291 75.3784 31.6174C75.2978 31.4588 75.3628 31.2639 75.5213 31.1859L76.5349 30.6792C76.696 30.5986 76.8883 30.6636 76.9663 30.8221C77.0468 30.9806 76.9819 31.1755 76.8233 31.2535L75.8098 31.7603C75.763 31.7837 75.7136 31.7941 75.6669 31.7941Z" fill="#939AA0"/>
<path d="M77.6066 41.5761H75.1377C74.961 41.5761 74.8154 41.4332 74.8154 41.2539C74.8154 41.0746 74.9584 40.9316 75.1377 40.9316H77.6066C78.5707 40.9316 79.353 40.1494 79.353 39.1852V29.0394C79.353 28.0778 78.5707 27.2929 77.6066 27.2929H73.3887C73.2119 27.2929 73.0664 27.15 73.0664 26.9707C73.0664 26.7914 73.2093 26.6484 73.3887 26.6484H77.6066C78.9242 26.6484 79.9975 27.7192 79.9975 29.0368V39.1826C79.9975 40.5002 78.9268 41.571 77.6066 41.571V41.5761Z" fill="#939AA0"/>
<path d="M70.5779 27.2949H68.2598C68.083 27.2949 67.9375 27.152 67.9375 26.9726C67.9375 26.7933 68.0804 26.6504 68.2598 26.6504H70.5779C70.7546 26.6504 70.9002 26.7933 70.9002 26.9726C70.9002 27.152 70.7572 27.2949 70.5779 27.2949Z" fill="#939AA0"/>
<path d="M23.0065 34.3047H6.57406C6.17935 34.3047 5.85938 34.6247 5.85938 35.0194V66.2444C5.85938 66.6391 6.17935 66.9591 6.57406 66.9591H23.0065C23.4012 66.9591 23.7212 66.6391 23.7212 66.2444V35.0194C23.7212 34.6247 23.4012 34.3047 23.0065 34.3047Z" fill="#FCF9F9"/>
<path d="M19.7116 40.2412V44.02H16.6866V47.071H12.9105V44.02H9.88281V40.2412H12.9105V37.2422H16.6866V40.2412H19.7116Z" fill="#81F2EF"/>
<path d="M16.6872 47.3932H12.9111C12.7344 47.3932 12.5888 47.2503 12.5888 47.071V44.3422H9.88085C9.70413 44.3422 9.55859 44.1993 9.55859 44.0199V40.2412C9.55859 40.0645 9.70153 39.919 9.88085 39.919H12.5888V37.2422C12.5888 37.0655 12.7318 36.9199 12.9111 36.9199H16.6872C16.8639 36.9199 17.0095 37.0629 17.0095 37.2422V39.919H19.7123C19.889 39.919 20.0345 40.0619 20.0345 40.2412V44.0199C20.0345 44.1967 19.8916 44.3422 19.7123 44.3422H17.0095V47.071C17.0095 47.2477 16.8665 47.3932 16.6872 47.3932ZM13.2333 46.7487H16.3649V44.0199C16.3649 43.8432 16.5079 43.6977 16.6872 43.6977H19.39V40.5609H16.6872C16.5105 40.5609 16.3649 40.418 16.3649 40.2386V37.5618H13.2333V40.2386C13.2333 40.4154 13.0904 40.5609 12.9111 40.5609H10.2031V43.6977H12.9111C13.0878 43.6977 13.2333 43.8406 13.2333 44.0199V46.7487Z" fill="#2D918A"/>
<path d="M18.6088 55.3926H10.7266V56.0371H18.6088V55.3926Z" fill="#939AA0"/>
<path d="M20.9617 60.6758H8.63281V61.3203H20.9617V60.6758Z" fill="#939AA0"/>
<path d="M20.9617 58.0352H8.63281V58.6797H20.9617V58.0352Z" fill="#939AA0"/>
<path d="M20.9617 63.3008H8.63281V63.9453H20.9617V63.3008Z" fill="#939AA0"/>
<path d="M20.9617 51.7832H8.63281V53.6492H20.9617V51.7832Z" fill="#939AA0"/>
<path d="M5.86132 61.0867C5.6846 61.0867 5.53906 60.9437 5.53906 60.7644V59.2207C5.53906 59.044 5.682 58.8984 5.86132 58.8984C6.04064 58.8984 6.18357 59.0414 6.18357 59.2207V60.7644C6.18357 60.9411 6.04064 61.0867 5.86132 61.0867Z" fill="#939AA0"/>
<path d="M21.3634 67.2797H8.22106C6.74232 67.2797 5.53906 66.0765 5.53906 64.5977V62.9371C5.53906 62.7603 5.682 62.6148 5.86132 62.6148C6.04064 62.6148 6.18357 62.7577 6.18357 62.9371V64.5977C6.18357 65.723 7.09836 66.6352 8.22106 66.6352H21.3634C22.4861 66.6352 23.4009 65.7204 23.4009 64.5977V46.541C23.4009 46.3643 23.5438 46.2188 23.7231 46.2188C23.9024 46.2188 24.0454 46.3617 24.0454 46.541V64.5977C24.0454 66.0765 22.8421 67.2797 21.3634 67.2797Z" fill="#939AA0"/>
<path d="M5.86132 54.8491C5.6846 54.8491 5.53906 54.7062 5.53906 54.5269V36.6625C5.53906 35.1837 6.74232 33.9805 8.22106 33.9805H21.3634C22.8421 33.9805 24.0454 35.1837 24.0454 36.6625V41.5379C24.0454 41.7146 23.9024 41.8601 23.7231 41.8601C23.5438 41.8601 23.4009 41.7172 23.4009 41.5379V36.6625C23.4009 35.5398 22.4861 34.625 21.3634 34.625H8.22106C7.09836 34.625 6.18357 35.5398 6.18357 36.6625V54.5269C6.18357 54.7036 6.04064 54.8491 5.86132 54.8491Z" fill="#939AA0"/>
<path d="M37.4338 66.9597C43.686 66.9597 48.7544 60.4252 48.7544 52.3646C48.7544 44.304 43.686 37.7695 37.4338 37.7695C31.1817 37.7695 26.1133 44.304 26.1133 52.3646C26.1133 60.4252 31.1817 66.9597 37.4338 66.9597Z" fill="#939AA0"/>
<path d="M49.8153 52.3105C49.8153 59.3508 46.0444 65.1722 41.13 66.126C40.6674 66.2195 40.184 66.2689 39.7032 66.2689C34.1287 66.2689 29.6016 60.0213 29.6016 52.3105C29.6016 50.8266 29.7705 49.3998 30.0746 48.0588C31.1791 43.277 34.0898 39.6204 37.7021 38.6173C37.7125 38.6069 37.7203 38.6069 37.7411 38.6069C38.3544 38.438 38.9886 38.3522 39.6409 38.3418C39.6513 38.3522 39.6591 38.3418 39.6591 38.3418H39.7058C45.2907 38.3418 49.8179 44.5894 49.8179 52.3105H49.8153Z" fill="#1E5259"/>
<path d="M71.6569 68.0069C72.2624 69.6597 71.9792 71.219 71.015 71.7882C70.0508 72.3469 68.9749 71.9207 68.9749 71.9207C68.9749 71.9207 68.8814 73.4904 67.9822 74.1895C66.48 75.3616 64.4945 74.387 64.4945 74.387C64.4945 74.387 64.4555 74.9536 62.6987 75.333C60.1103 75.8918 58.6264 74.5196 58.6264 74.5196C58.6264 74.5196 58.1456 75.806 56.2172 75.8891C56.0093 75.8995 55.7079 75.8242 55.3284 75.6916C54.1745 75.2758 52.332 74.2753 50.3776 73.0746C50.3672 73.0746 50.3594 73.0642 50.3491 73.0564C48.6858 72.0351 46.9368 70.863 45.4632 69.7949C43.8857 68.641 42.6175 67.6015 42.0977 66.9596C39.9043 64.2672 36.5986 52.0292 34.6599 49.6643C34.5169 49.485 34.3662 49.3342 34.2259 49.1913C33.3657 48.3493 32.4405 48.0478 31.5803 47.9829C31.0501 47.9361 30.5407 47.9829 30.0781 48.0582C30.9383 44.3445 32.8849 41.3116 35.3979 39.677C36.1256 39.204 36.8923 38.8453 37.7031 38.6192C37.7135 38.6089 37.7213 38.6089 37.7421 38.6089C38.1761 38.5517 38.8466 38.4581 39.6418 38.3438C39.6522 38.3542 39.66 38.3438 39.66 38.3438C42.3446 37.9929 46.56 37.5225 49.2991 37.928C53.0804 38.4867 57.0956 40.0928 59.5152 41.387C61.9243 42.6734 66.4333 46.6133 68.1147 47.2552C69.8065 47.8971 71.9792 48.3051 72.0545 49.5032C72.0831 49.88 72.0156 50.3452 71.8362 50.8078C71.4594 51.8369 70.5498 52.8973 69.0009 53.1234C66.7529 53.4456 64.0969 52.4061 62.8858 51.9227C61.6852 51.4315 60.391 50.392 59.9933 50.8728C59.5879 51.3535 61.8827 57.1204 63.811 59.4359C65.5886 61.5618 70.7291 65.4652 71.6543 68.0069H71.6569Z" fill="#FFD6C9"/>
<path d="M68.9045 71.905C68.7537 71.905 68.6186 71.7985 68.59 71.6452C68.59 71.6374 68.4263 70.8031 68.1508 69.8338C67.8 68.5967 65.9834 67.3363 64.5254 66.3228C64.0316 65.9797 63.5665 65.6574 63.1922 65.3612C61.6485 64.1423 59.7722 61.5851 59.6942 61.4785C59.5902 61.3356 59.6214 61.1329 59.7644 61.0289C59.9073 60.925 60.11 60.9536 60.214 61.0991C60.2321 61.1251 62.1163 63.6927 63.5924 64.857C63.9589 65.1455 64.4111 65.4599 64.8919 65.7952C66.5161 66.9231 68.3561 68.1991 68.7693 69.6597C69.0526 70.655 69.2137 71.4892 69.2215 71.523C69.2553 71.6971 69.141 71.8661 68.9668 71.8999C68.9461 71.9051 68.9253 71.905 68.9045 71.905Z" fill="#CC6148"/>
<path d="M64.4915 74.3124C64.3147 74.3124 64.1692 74.1669 64.1718 73.9901C64.1718 73.9746 64.1718 72.4542 63.8054 71.173C63.4935 70.0763 62.5215 69.398 60.7569 68.1662L60.128 67.7244C57.9242 66.1729 55.9387 62.7606 55.8555 62.615C55.7672 62.4617 55.8191 62.2642 55.9725 62.1758C56.1284 62.0875 56.3233 62.1395 56.4117 62.2928C56.4325 62.3266 58.4102 65.7285 60.4997 67.1968L61.126 67.636C62.9504 68.9094 64.0497 69.6787 64.4265 70.9963C64.8163 72.3659 64.8163 73.9252 64.8163 73.9901C64.8163 74.1669 64.6708 74.3098 64.4941 74.3098L64.4915 74.3124Z" fill="#CC6148"/>
<path d="M58.6495 74.5404H58.6443C58.4676 74.5378 58.3246 74.3897 58.3272 74.2129C58.3272 74.1948 58.3506 72.5003 57.6983 71.2321C57.2019 70.2679 56.0714 69.3063 55.0761 68.4565C54.5303 67.9939 54.0157 67.5547 53.6779 67.1701C52.7397 66.1124 51.4793 63.8722 51.4273 63.7786C51.3415 63.6227 51.3961 63.4278 51.5494 63.3394C51.7054 63.2536 51.9003 63.3082 51.9887 63.4616C52.0016 63.4849 53.2699 65.7329 54.1613 66.7413C54.4705 67.0921 54.9695 67.5157 55.4945 67.9627C56.5366 68.8489 57.7165 69.8547 58.2726 70.9332C59.0003 72.347 58.9743 74.1428 58.9717 74.2181C58.9691 74.3949 58.8262 74.5326 58.6495 74.5326V74.5404Z" fill="#CC6148"/>
<path d="M47.5259 48.8621C47.4219 48.8621 47.3206 48.8127 47.2582 48.7192C45.5742 46.1827 43.1364 45.3147 43.1105 45.3069C42.9441 45.2497 42.8532 45.0652 42.9129 44.8989C42.9701 44.7325 43.152 44.6416 43.321 44.6988C43.4275 44.7351 45.9848 45.6395 47.7936 48.3631C47.8923 48.5112 47.8507 48.7114 47.7026 48.8101C47.648 48.8465 47.5857 48.8647 47.5259 48.8647V48.8621Z" fill="#CC6148"/>
<path d="M35.3979 39.6738C35.3979 39.6738 32.6016 42.6703 31.9779 45.3263C31.7882 46.1475 31.6556 47.0831 31.5803 47.9823C31.0501 47.9355 30.5407 47.9823 30.0781 48.0577C30.9383 44.3439 32.8849 41.3111 35.3979 39.6764V39.6738Z" fill="#1E5259"/>
<path d="M45.1466 57.7874C44.2422 56.987 44.1591 55.6018 44.9621 54.6974C45.7652 53.793 47.1477 53.7099 48.0521 54.5129L55.7213 61.3141C56.6257 62.1145 56.7089 63.4997 55.9058 64.4041C55.1028 65.3085 53.7202 65.3916 52.8158 64.5886L47.6519 60.0094L45.1466 57.7874Z" fill="#FCF9F9"/>
<path d="M54.2653 65.4596C53.6728 65.4596 53.0776 65.2517 52.6021 64.8281L47.4382 60.249C47.3056 60.132 47.2926 59.9267 47.4122 59.7942C47.5291 59.6616 47.7344 59.6512 47.867 59.7682L53.0309 64.3473C53.4051 64.6774 53.8885 64.8411 54.3797 64.8151C54.8786 64.7839 55.3334 64.563 55.6635 64.1888C56.347 63.4195 56.2742 62.2371 55.505 61.5536L47.8358 54.7524C47.4642 54.4224 46.986 54.2586 46.487 54.2846C45.988 54.3132 45.5332 54.5367 45.2032 54.9083C44.5197 55.6776 44.5924 56.8601 45.3617 57.5436C45.4942 57.6605 45.5072 57.8658 45.3877 57.9984C45.2681 58.1309 45.0654 58.1413 44.9329 58.0244C43.8985 57.1044 43.8024 55.5165 44.7198 54.4821C45.1642 53.9806 45.7775 53.6817 46.448 53.6427C47.1211 53.5959 47.763 53.8246 48.2646 54.269L55.9338 61.0702C56.9681 61.9876 57.0643 63.5781 56.1469 64.6124C55.6505 65.1712 54.9618 65.457 54.2679 65.457L54.2653 65.4596Z" fill="#939AA0"/>
<path d="M51.8834 57.916L55.883 61.4634C56.6964 62.1859 56.7042 63.5009 55.9038 64.4053C55.1033 65.3071 53.7935 65.4604 52.9801 64.738L48.9805 61.1906L49.9992 60.0445L51.8834 57.916Z" fill="#81F2EF"/>
<path d="M54.2119 65.5126C53.6869 65.5126 53.1749 65.3359 52.7669 64.9773L48.7673 61.4299C48.7049 61.3727 48.666 61.2921 48.6608 61.209C48.6556 61.1232 48.6841 61.04 48.7413 60.9751L49.7601 59.829C49.877 59.6964 50.0823 59.686 50.2149 59.803C50.3474 59.9199 50.3604 60.1252 50.2409 60.2578L49.4352 61.1622L53.1931 64.4939C53.8714 65.0968 54.9785 64.9617 55.662 64.1898C55.9999 63.8104 56.1818 63.34 56.1766 62.8644C56.174 62.4018 55.9921 61.9886 55.6698 61.7001L51.6702 58.1527C51.5377 58.0358 51.5247 57.8305 51.6442 57.6979C51.7612 57.5654 51.9639 57.5524 52.099 57.6719L56.0986 61.2194C56.5612 61.63 56.8185 62.2121 56.8237 62.8592C56.8289 63.4933 56.5872 64.1171 56.148 64.6134C55.6256 65.2034 54.9084 65.51 54.2145 65.51L54.2119 65.5126Z" fill="#2D918A"/>
<path d="M56.7869 65.0977C55.5992 65.3212 54.4557 64.5415 54.2296 63.3539L52.3273 53.2808C52.1038 52.0931 52.8834 50.9496 54.0711 50.7235C54.6246 50.6196 55.1704 50.7339 55.6174 51.0068C56.1268 51.3187 56.5088 51.8358 56.6283 52.4699L58.5307 62.543C58.7542 63.7307 57.9745 64.8742 56.7869 65.1003V65.0977Z" fill="#FCF9F9"/>
<path d="M56.3761 65.46C55.8772 65.46 55.3886 65.3092 54.9676 65.0234C54.414 64.6465 54.0398 64.0748 53.915 63.4147L52.0127 53.3416C51.7554 51.9824 52.6546 50.6674 54.0138 50.4101C54.1905 50.3763 54.3568 50.4933 54.3906 50.6674C54.4244 50.8415 54.3075 51.0104 54.1333 51.0442C53.1224 51.2339 52.4545 52.2137 52.6468 53.2247L54.5492 63.2977C54.6401 63.7889 54.9182 64.2125 55.3314 64.4932C55.7446 64.7739 56.241 64.8778 56.7296 64.7843C57.7405 64.5946 58.4084 63.6148 58.2187 62.6039L56.6828 54.4773C56.649 54.3032 56.766 54.1342 56.9401 54.1005C57.1194 54.0693 57.2831 54.1836 57.3169 54.3577L58.8528 62.4843C59.1101 63.8435 58.2109 65.1585 56.8517 65.4158C56.6958 65.4444 56.5373 65.46 56.3813 65.46H56.3761Z" fill="#939AA0"/>
<path d="M57.5797 57.5078L58.5725 62.7601C58.7752 63.8282 57.9747 64.8755 56.7897 65.099C55.6046 65.3225 54.4741 64.6416 54.274 63.5709L53.2812 58.3187L57.5823 57.5078H57.5797Z" fill="#FF7769"/>
<path d="M56.3309 65.4635C55.8528 65.4635 55.3928 65.3387 54.9925 65.0944C54.439 64.7566 54.07 64.2394 53.9556 63.6313L52.9628 58.379C52.9291 58.2049 53.046 58.036 53.2201 58.0022L57.5186 57.1914C57.6979 57.1576 57.8617 57.2745 57.8954 57.4486L58.8882 62.7009C59.1221 63.9405 58.2073 65.1594 56.8481 65.4141C56.6766 65.4453 56.5025 65.4635 56.3335 65.4635H56.3309ZM53.6541 58.5765L54.5871 63.5143C54.6677 63.9405 54.9302 64.307 55.3252 64.5487C55.7332 64.7956 56.2322 64.8813 56.726 64.7852C57.7395 64.5954 58.423 63.7144 58.2567 62.823L57.3237 57.8853L53.6567 58.5791L53.6541 58.5765Z" fill="#DD4231"/>
<path d="M52.9368 67.4263C54.1769 67.4263 55.1822 66.421 55.1822 65.1809C55.1822 63.9408 54.1769 62.9355 52.9368 62.9355C51.6967 62.9355 50.6914 63.9408 50.6914 65.1809C50.6914 66.421 51.6967 67.4263 52.9368 67.4263Z" fill="#FCF9F9"/>
<path d="M52.9386 67.8342C51.4754 67.8342 50.2852 66.6439 50.2852 65.1808C50.2852 63.7176 51.4754 62.5273 52.9386 62.5273C54.4017 62.5273 55.592 63.7176 55.592 65.1808C55.592 66.6439 54.4017 67.8342 52.9386 67.8342ZM52.9386 63.346C51.9276 63.346 51.1038 64.1698 51.1038 65.1808C51.1038 66.1917 51.9276 67.0181 52.9386 67.0181C53.9495 67.0181 54.7759 66.1943 54.7759 65.1808C54.7759 64.1672 53.9521 63.346 52.9386 63.346Z" fill="#939AA0"/>
<path d="M56.4961 62.9261C56.4961 61.0757 57.9956 59.5762 59.846 59.5762C61.6964 59.5762 63.1959 61.0757 63.1959 62.9261C63.1959 64.7764 61.6964 66.276 59.846 66.276C57.9956 66.276 56.4961 64.7764 56.4961 62.9261Z" fill="#FCF9F9"/>
<path d="M59.8479 66.5982C57.8234 66.5982 56.1758 64.9506 56.1758 62.9261C56.1758 60.9016 57.8234 59.2539 59.8479 59.2539C61.8724 59.2539 63.5201 60.9016 63.5201 62.9261C63.5201 64.9506 61.8724 66.5982 59.8479 66.5982ZM59.8479 59.8984C58.1795 59.8984 56.8203 61.2576 56.8203 62.9261C56.8203 64.5945 58.1795 65.9537 59.8479 65.9537C61.5164 65.9537 62.8756 64.5945 62.8756 62.9261C62.8756 61.2576 61.5164 59.8984 59.8479 59.8984Z" fill="#939AA0"/>
<path d="M63.1966 63.248H60.3144C60.1377 63.248 59.9922 63.1051 59.9922 62.9258C59.9922 62.7465 60.1351 62.6035 60.3144 62.6035H63.1966C63.3733 62.6035 63.5188 62.7465 63.5188 62.9258C63.5188 63.1051 63.3759 63.248 63.1966 63.248Z" fill="#939AA0"/>
<path d="M58.388 63.248H56.8184C56.6416 63.248 56.4961 63.1051 56.4961 62.9258C56.4961 62.7465 56.639 62.6035 56.8184 62.6035H58.388C58.5648 62.6035 58.7103 62.7465 58.7103 62.9258C58.7103 63.1051 58.5674 63.248 58.388 63.248Z" fill="#939AA0"/>
<path d="M62.1406 64.8288C62.1406 63.7841 62.9878 62.9395 64.03 62.9395C65.0721 62.9395 65.9193 63.7867 65.9193 64.8288C65.9193 65.8709 65.0721 66.7182 64.03 66.7182C62.9878 66.7182 62.1406 65.8709 62.1406 64.8288Z" fill="#81F2EF"/>
<path d="M64.028 67.0404C62.8092 67.0404 61.8164 66.0477 61.8164 64.8288C61.8164 63.6099 62.8092 62.6172 64.028 62.6172C65.2469 62.6172 66.2396 63.6099 66.2396 64.8288C66.2396 66.0477 65.2469 67.0404 64.028 67.0404ZM64.028 63.2591C63.1626 63.2591 62.4609 63.9634 62.4609 64.8262C62.4609 65.689 63.1652 66.3959 64.028 66.3959C64.8908 66.3959 65.5977 65.6916 65.5977 64.8262C65.5977 63.9608 64.8934 63.2591 64.028 63.2591Z" fill="#2D918A"/>
<path d="M16.818 74.1121C16.818 74.6007 16.423 74.9957 15.9344 74.9957C15.4458 74.9957 15.0508 74.6007 15.0508 74.1121C15.0508 73.6235 15.4458 73.2285 15.9344 73.2285C16.423 73.2285 16.818 73.6235 16.818 74.1121Z" fill="#96B7BB"/>
<path d="M2.50087 49.3011C2.59183 49.7715 2.28777 50.2263 1.81738 50.3173C1.34699 50.4082 0.892192 50.1042 0.801232 49.6338C0.710273 49.1634 1.01434 48.7086 1.48473 48.6176C1.95512 48.5267 2.40991 48.8307 2.50087 49.3011Z" fill="#96B7BB"/>
<path d="M1.17533 45.3812C1.2377 45.7034 1.02979 46.0153 0.707536 46.0777C0.38528 46.14 0.0734196 45.9321 0.0110475 45.6099C-0.0513246 45.2876 0.156582 44.9758 0.478838 44.9134C0.801094 44.851 1.11295 45.0589 1.17533 45.3812Z" fill="#96B7BB"/>
<path d="M75.8388 60.9233C75.8388 61.4093 75.4464 61.8017 74.9604 61.8017C74.4745 61.8017 74.082 61.4093 74.082 60.9233C74.082 60.4373 74.4745 60.0449 74.9604 60.0449C75.4464 60.0449 75.8388 60.4373 75.8388 60.9233Z" fill="#96B7BB"/>
<path d="M77.101 55.5856C77.101 55.8403 76.8931 56.0482 76.6384 56.0482C76.3837 56.0482 76.1758 55.8403 76.1758 55.5856C76.1758 55.331 76.3837 55.123 76.6384 55.123C76.8931 55.123 77.101 55.331 77.101 55.5856Z" fill="#96B7BB"/>
<path d="M46.269 0.445047C46.269 0.691936 46.0689 0.892046 45.822 0.892046C45.5751 0.892046 45.375 0.691936 45.375 0.445047C45.375 0.198157 45.5751 -0.00195312 45.822 -0.00195312C46.0689 -0.00195312 46.269 0.198157 46.269 0.445047Z" fill="#96B7BB"/>
<path d="M9.39135 15.9535C9.39135 16.2056 9.18605 16.4109 8.93396 16.4109C8.68187 16.4109 8.47656 16.2056 8.47656 15.9535C8.47656 15.7014 8.68187 15.4961 8.93396 15.4961C9.18605 15.4961 9.39135 15.7014 9.39135 15.9535Z" fill="#96B7BB"/>
<path d="M4.15964 27.9099C4.15964 28.3309 3.81919 28.6714 3.39818 28.6714C2.97717 28.6714 2.63672 28.3309 2.63672 27.9099C2.63672 27.4889 2.97717 27.1484 3.39818 27.1484C3.81919 27.1484 4.15964 27.4889 4.15964 27.9099Z" fill="#96B7BB"/>
<path d="M52.3988 10.258C52.3988 10.7414 52.0089 11.1312 51.5256 11.1312C51.0422 11.1312 50.6523 10.7414 50.6523 10.258C50.6523 9.77459 51.0422 9.38477 51.5256 9.38477C52.0089 9.38477 52.3988 9.77459 52.3988 10.258Z" fill="#FCF9F9"/>
<path d="M1.64971 23.6159C1.64971 23.7952 1.50417 23.9407 1.32485 23.9407C1.14553 23.9407 1 23.7952 1 23.6159C1 23.4366 1.14553 23.291 1.32485 23.291C1.50417 23.291 1.64971 23.4366 1.64971 23.6159Z" fill="#96B7BB"/>
<path d="M19.3358 72.4237C19.3358 72.6239 19.1746 72.785 18.9745 72.785C18.7744 72.785 18.6133 72.6239 18.6133 72.4237C18.6133 72.2236 18.7744 72.0625 18.9745 72.0625C19.1746 72.0625 19.3358 72.2236 19.3358 72.4237Z" fill="#96B7BB"/>
<path d="M10.3769 70.5506C10.5721 70.5506 10.7303 70.3924 10.7303 70.1972C10.7303 70.002 10.5721 69.8438 10.3769 69.8438C10.1817 69.8438 10.0234 70.002 10.0234 70.1972C10.0234 70.3924 10.1817 70.5506 10.3769 70.5506Z" fill="#96B7BB"/>
<path d="M71.0097 57.3154C71.0097 57.5909 70.7862 57.8144 70.5107 57.8144C70.2352 57.8144 70.0117 57.5909 70.0117 57.3154C70.0117 57.0399 70.2352 56.8164 70.5107 56.8164C70.7862 56.8164 71.0097 57.0399 71.0097 57.3154Z" fill="#FCF9F9"/>
<path d="M28.0572 12.4582C28.4232 12.4582 28.7199 12.1615 28.7199 11.7955C28.7199 11.4295 28.4232 11.1328 28.0572 11.1328C27.6912 11.1328 27.3945 11.4295 27.3945 11.7955C27.3945 12.1615 27.6912 12.4582 28.0572 12.4582Z" fill="#FCF9F9"/>
<path d="M49.1847 12.1529C49.1847 12.3504 49.0236 12.509 48.8287 12.509C48.6338 12.509 48.4727 12.3478 48.4727 12.1529C48.4727 11.958 48.6338 11.7969 48.8287 11.7969C49.0236 11.7969 49.1847 11.958 49.1847 12.1529Z" fill="#FCF9F9"/>
</g>
<defs>
<clipPath id="clip0_5214_103732">
<rect width="80" height="78.3367" fill="white"/>
</clipPath>
</defs>
</svg>
