<svg width="10" height="14" viewBox="0 0 10 14" fill="none" xmlns="http://www.w3.org/2000/svg">
<g opacity="0.5" clip-path="url(#clip0_5214_103701)">
<path d="M9.13014 3.5274C9.74587 2.93786 9.75803 1.97001 9.1573 1.36564C8.55657 0.761273 7.57044 0.749253 6.95472 1.33879C6.33899 1.92833 6.32683 2.89619 6.92756 3.50056C7.52828 4.10492 8.51441 4.11694 9.13014 3.5274Z" fill="#FFC3CD"/>
<path d="M0 13.9303H5.21647L5.67806 11.7555C5.67806 11.7555 7.13219 11.5064 7.13219 10.4303C7.13219 10.1697 7.13219 9.88658 7.13219 9.88658H2.45818C2.45818 9.88658 2.01966 9.78464 2.01966 9.45333C2.01966 9.19752 2.01966 7.50542 2.01966 7.50542C2.01966 7.28027 1.83367 7.09766 1.60419 7.09766H0.415468C0.18613 7.09766 0 7.28034 0 7.50542V13.9303Z" fill="#FFC3CD"/>
<path d="M7.27495 7.50111C7.09644 7.22451 7.03474 6.94213 7.03377 6.65574C7.03301 6.33795 7.11846 6.02336 7.20765 5.79427C7.25196 5.67982 7.29628 5.58678 7.32806 5.52521C7.34399 5.49442 7.35673 5.47138 7.36455 5.45745C7.36864 5.45059 7.37148 5.44583 7.37286 5.44338C7.53157 5.1869 7.44883 4.8528 7.18763 4.69669C6.92637 4.54038 6.58562 4.62166 6.4265 4.87815L6.42636 4.87801C6.40496 4.92198 5.93355 5.65522 5.92579 6.65567C5.92496 6.98855 5.98423 7.35547 6.14218 7.71729H7.44301C7.37716 7.64498 7.32162 7.57261 7.27495 7.50111Z" fill="#FFC3CD"/>
<path d="M7.71407 12.9957C7.76033 13.4327 8.13619 13.7577 8.57395 13.7577C8.60387 13.7577 8.63406 13.7561 8.66446 13.7531C9.13989 13.7047 9.48542 13.2871 9.43605 12.8204L8.99087 8.61499C8.94497 8.1816 8.57395 7.85335 8.12989 7.85335H6.05144H5.89142C5.92521 7.80938 5.95907 7.76541 5.99369 7.72205C5.85631 7.38918 5.78367 7.02796 5.78457 6.6554C5.78928 6.03695 5.9689 5.39024 6.29027 4.8337L6.29975 4.81712L6.30176 4.81345L6.30543 4.80754C6.43201 4.60331 6.65332 4.48132 6.89719 4.48132C7.02384 4.48132 7.14828 4.51564 7.25713 4.58061C7.58265 4.77519 7.68651 5.19383 7.48861 5.51379L7.48155 5.52589C7.47553 5.53642 7.46362 5.55796 7.44887 5.58671C7.42048 5.64169 7.37748 5.73079 7.33434 5.84231C7.28697 5.9639 7.21586 6.17716 7.18491 6.42087C7.28607 6.31831 7.38343 6.21984 7.47428 6.12646C8.01293 5.66174 8.23832 4.84226 7.81974 4.40793C7.40109 3.97345 6.50624 3.78588 5.66623 4.43993C4.51663 5.34586 3.94156 6.04416 3.26372 7.41065C2.84562 8.4472 3.42769 8.94576 3.96662 9.27456C4.05574 9.32899 4.13759 9.3767 4.21438 9.4151C4.34996 9.50161 4.51144 9.55238 4.68524 9.55238H5.98822H7.34964L7.71407 12.9957Z" fill="#FFC3CD"/>
<path d="M3.03162 6.74198C2.74557 6.83393 2.66781 7.04644 2.67204 7.19141C2.67224 7.29539 2.70243 7.37055 2.70417 7.37531C2.7149 7.40208 2.741 7.41846 2.76863 7.41846C2.77701 7.41846 2.7856 7.41704 2.79391 7.41384C2.8295 7.40011 2.84709 7.36083 2.83324 7.32576H2.83303C2.83303 7.32563 2.82825 7.31387 2.82237 7.28941C2.81634 7.26494 2.81053 7.23007 2.81053 7.19147C2.81489 7.08192 2.84445 6.95218 3.07642 6.87049C3.11264 6.85826 3.13189 6.81966 3.11963 6.78425C3.10724 6.74864 3.06791 6.72981 3.03162 6.74198Z" fill="#FFC3CD"/>
<path d="M2.94032 6.59785C2.97695 6.58711 2.99779 6.54919 2.98678 6.51323C2.97577 6.47728 2.9372 6.4569 2.90071 6.46777C2.43719 6.59982 2.33131 6.9316 2.33609 7.14575C2.33623 7.27454 2.36718 7.36615 2.36863 7.37056C2.37826 7.39904 2.40533 7.41712 2.43442 7.41712C2.44155 7.41712 2.44889 7.41603 2.45616 7.41365C2.49231 7.4019 2.51204 7.3635 2.50006 7.32789V7.32775C2.50006 7.32775 2.49431 7.31123 2.4878 7.27848C2.48116 7.24565 2.47458 7.1991 2.47458 7.14568C2.47922 6.96477 2.53572 6.72079 2.94032 6.59785Z" fill="#FFC3CD"/>
<path d="M8.76589 7.62877C8.76915 7.66608 8.8028 7.6938 8.84095 7.69068V7.69054C8.84095 7.69054 8.84095 7.69054 8.84393 7.69054C8.86816 7.69013 8.96338 7.69516 9.04398 7.74253C9.12375 7.79119 9.19777 7.87064 9.20116 8.06175C9.20144 8.09912 9.23225 8.12923 9.27048 8.12923C9.27068 8.12923 9.27082 8.12923 9.27103 8.12923C9.30911 8.12896 9.33993 8.09831 9.33965 8.06086C9.34007 7.83109 9.23156 7.69115 9.1144 7.62557C8.998 7.5589 8.8816 7.55496 8.844 7.55469C8.83604 7.55469 8.83091 7.55496 8.82904 7.5551C8.79082 7.55822 8.76257 7.59125 8.76589 7.62877Z" fill="#FFC3CD"/>
<path d="M9.29092 7.33934C9.11484 7.24609 8.94657 7.24637 8.94048 7.24609C8.90225 7.24589 8.87109 7.27634 8.87109 7.31385C8.87096 7.35143 8.90191 7.38181 8.9402 7.38195H8.94006C8.9402 7.38195 8.97288 7.38181 9.0271 7.39167C9.19357 7.42714 9.50302 7.5231 9.50634 7.98979C9.50634 8.00053 9.506 8.01188 9.50572 8.02364C9.50475 8.06122 9.53487 8.09248 9.57316 8.09343C9.57386 8.09343 9.57462 8.09343 9.57524 8.09343C9.61256 8.09343 9.64324 8.06414 9.64421 8.02738C9.64449 8.01453 9.64476 8.00203 9.64476 7.98973C9.64705 7.63089 9.46764 7.43081 9.29092 7.33934Z" fill="#FFC3CD"/>
<path d="M8.7851 0.335968C8.61546 0.337191 8.49559 0.424385 8.48971 0.427716C8.45869 0.449735 8.45162 0.492211 8.47406 0.522657C8.49642 0.553104 8.5397 0.560036 8.57072 0.538017C8.57072 0.538017 8.57453 0.53523 8.5852 0.529046C8.61712 0.510084 8.69716 0.471483 8.78504 0.47189C8.87547 0.473521 8.97684 0.504716 9.08036 0.656337C9.09359 0.67625 9.11582 0.687055 9.13839 0.687055C9.15141 0.687055 9.1645 0.683453 9.17627 0.675978C9.20819 0.655385 9.21726 0.613182 9.19628 0.581919C9.07531 0.397881 8.91653 0.334337 8.7851 0.335968Z" fill="#FFC3CD"/>
<path d="M9.37479 0.49506C9.38697 0.49506 9.39937 0.491933 9.41059 0.485273C9.44334 0.465904 9.45393 0.424244 9.4342 0.391963C9.25174 0.0909626 9.00834 -0.00194029 8.81003 3.05809e-05C8.58298 0.000846115 8.41658 0.107477 8.41069 0.110467C8.37857 0.130652 8.36922 0.172788 8.38992 0.204322C8.41056 0.235856 8.45342 0.245031 8.48555 0.224778C8.48555 0.224778 8.4924 0.220497 8.5084 0.212137C8.55639 0.186924 8.67431 0.135749 8.80996 0.135953C8.96749 0.137924 9.14995 0.19637 9.31544 0.462167C9.32853 0.483302 9.35145 0.49506 9.37479 0.49506Z" fill="#FFC3CD"/>
</g>
<defs>
<clipPath id="clip0_5214_103701">
<rect width="9.625" height="14" fill="white"/>
</clipPath>
</defs>
</svg>
