<svg width="10" height="13" viewBox="0 0 10 13" fill="none" xmlns="http://www.w3.org/2000/svg">
<path opacity="0.5" d="M1.70946 0.923567C1.73032 0.871201 1.76131 0.823465 1.80065 0.783094C1.83999 0.742722 1.8869 0.710508 1.93871 0.688296C1.99052 0.666084 2.0462 0.654312 2.10256 0.653652C2.15893 0.652993 2.21487 0.66346 2.26718 0.684453C2.56127 0.802694 3.86603 1.35115 5.24523 2.20808C6.60518 3.05274 8.1287 4.25064 8.74844 5.69615C9.3496 7.09833 9.36283 8.38422 8.94061 9.44183C8.52053 10.4957 7.68423 11.2814 6.66725 11.7174C5.65028 12.1534 4.50462 12.2175 3.45162 11.7951C2.39447 11.3718 1.47252 10.4764 0.871019 9.07346C0.251282 7.62796 0.43401 5.69853 0.760165 4.13191C0.990148 3.03876 1.3076 1.96586 1.70946 0.923567Z" fill="#FFC3CD"/>
</svg>
