<svg width="17" height="14" viewBox="0 0 17 14" fill="none" xmlns="http://www.w3.org/2000/svg">
<g opacity="0.5">
<path d="M13.5368 4.75C13.1319 3.9125 12.6303 2 12.9325 0H3.86749C4.16966 2 3.66806 3.9125 3.26316 4.75C2.05449 7.25 1.45016 7.75 2.65883 14H8.09783V9.58C7.66876 9.105 6.35735 8.2175 5.25444 8.03C5.09127 8.0025 4.98551 7.87 5.01875 7.735C5.05199 7.6 5.21214 7.5125 5.37531 7.54C6.55074 7.7375 7.80171 8.5475 8.4 9.1C8.99829 8.5475 10.2493 7.7375 11.4247 7.54C11.5879 7.5125 11.748 7.6 11.7812 7.735C11.8145 7.87 11.7087 8.0025 11.5456 8.03C10.4426 8.2175 9.13124 9.105 8.70217 9.58V14H14.1412C15.3498 7.75 14.7455 7.25 13.5368 4.75ZM9.29139 5.08L8.68706 6.58C8.64475 6.685 8.52691 6.75 8.4 6.75C8.36978 6.75 8.33654 6.745 8.30331 6.7375C8.14618 6.695 8.05855 6.5525 8.11294 6.42L8.58432 5.25H7.79567C7.69897 5.25 7.60832 5.2125 7.55091 5.145C7.4935 5.08 7.47839 4.995 7.50861 4.92L8.11294 3.42C8.16431 3.29 8.33654 3.2175 8.49669 3.2625C8.65382 3.305 8.74145 3.4475 8.68706 3.58L8.21568 4.75H9.00433C9.10103 4.75 9.19168 4.7875 9.24909 4.855C9.3065 4.92 9.32161 5.005 9.29139 5.08Z" fill="#FFC3CD"/>
<path d="M16.5 3.37647H15.3C15.135 3.37647 15 3.26529 15 3.12941C15 2.99353 15.135 2.88235 15.3 2.88235H16.5C16.665 2.88235 16.8 2.99353 16.8 3.12941C16.8 3.26529 16.665 3.37647 16.5 3.37647Z" fill="#FFC3CD"/>
<path d="M15 2.38824C14.889 2.38824 14.784 2.33882 14.73 2.25235C14.655 2.13129 14.715 1.98306 14.865 1.92129L16.065 1.42718C16.215 1.36541 16.392 1.41482 16.467 1.53835C16.542 1.65941 16.482 1.80765 16.332 1.86941L15.132 2.36353C15.09 2.38082 15.042 2.39071 14.997 2.39071L15 2.38824Z" fill="#FFC3CD"/>
<path d="M16.263 4.86623C16.221 4.86623 16.179 4.85882 16.137 4.844L14.916 4.38447C14.766 4.32765 14.7 4.18188 14.769 4.05588C14.838 3.93235 15.015 3.878 15.168 3.93482L16.389 4.39435C16.539 4.45118 16.605 4.59694 16.536 4.72294C16.485 4.81435 16.377 4.86623 16.263 4.86623Z" fill="#FFC3CD"/>
<path d="M1.5 3.37647H0.3C0.135 3.37647 0 3.26529 0 3.12941C0 2.99353 0.135 2.88235 0.3 2.88235H1.5C1.665 2.88235 1.8 2.99353 1.8 3.12941C1.8 3.26529 1.665 3.37647 1.5 3.37647Z" fill="#FFC3CD"/>
<path d="M1.80044 2.38823C1.75544 2.38823 1.71044 2.38082 1.66544 2.36105L0.465438 1.86694C0.318438 1.80517 0.258438 1.65694 0.330438 1.53588C0.405438 1.41482 0.585438 1.36294 0.732438 1.4247L1.93244 1.91882C2.07944 1.98058 2.13944 2.12882 2.06744 2.24988C2.01344 2.33635 1.90844 2.38576 1.79744 2.38576L1.80044 2.38823Z" fill="#FFC3CD"/>
<path d="M0.537398 4.86613C0.423398 4.86613 0.315398 4.81178 0.264398 4.72284C0.195398 4.59931 0.264398 4.45107 0.411398 4.39425L1.6324 3.93472C1.7824 3.8779 1.9594 3.93472 2.0314 4.05578C2.1004 4.17931 2.0314 4.32754 1.8844 4.38437L0.663398 4.8439C0.624398 4.85872 0.579398 4.86613 0.537398 4.86613Z" fill="#FFC3CD"/>
</g>
</svg>
