<svg width="306" height="228" viewBox="0 0 306 228" fill="none" xmlns="http://www.w3.org/2000/svg">
<g clip-path="url(#clip0_2971_22116)">
<path d="M305.131 199.828H0V199.981H305.131V199.828Z" fill="#EBEBEB"/>
<path d="M274.556 209.647H254.344V209.8H274.556V209.647Z" fill="#EBEBEB"/>
<path d="M202.131 211.308H196.828V211.46H202.131V211.308Z" fill="#EBEBEB"/>
<path d="M253.734 203.984H242.023V204.137H253.734V203.984Z" fill="#EBEBEB"/>
<path d="M58.3729 205.01H32.0156V205.162H58.3729V205.01Z" fill="#EBEBEB"/>
<path d="M67.6716 205.01H63.8086V205.162H67.6716V205.01Z" fill="#EBEBEB"/>
<path d="M137.4 207.585H80.2305V207.738H137.4V207.585Z" fill="#EBEBEB"/>
<path d="M144.639 172.611H26.7971C24.8748 172.611 23.3125 171.049 23.3125 169.126V3.48265C23.3125 1.56032 24.8748 -0.00195312 26.7971 -0.00195312H144.639C146.561 -0.00195312 148.123 1.56032 148.123 3.48265V169.126C148.123 171.049 146.561 172.611 144.639 172.611ZM26.7971 0.150613C24.9602 0.150613 23.4651 1.64576 23.4651 3.48265V169.126C23.4651 170.963 24.9602 172.458 26.7971 172.458H144.639C146.476 172.458 147.971 170.963 147.971 169.126V3.48265C147.971 1.64576 146.476 0.150613 144.639 0.150613H26.7971Z" fill="#EBEBEB"/>
<path d="M276.639 172.611H158.797C156.875 172.611 155.312 171.049 155.312 169.126V3.48265C155.312 1.56032 156.875 -0.00195312 158.797 -0.00195312H276.639C278.561 -0.00195312 280.123 1.56032 280.123 3.48265V169.126C280.123 171.049 278.561 172.611 276.639 172.611ZM158.797 0.150613C156.96 0.150613 155.465 1.64576 155.465 3.48265V169.126C155.465 170.963 156.96 172.458 158.797 172.458H276.639C278.476 172.458 279.971 170.963 279.971 169.126V3.48265C279.971 1.64576 278.476 0.150613 276.639 0.150613H158.797Z" fill="#EBEBEB"/>
<path d="M46.1719 143.801H89.6226C93.8395 143.801 97.2631 147.224 97.2631 151.441V190.474C97.2631 194.691 93.8395 198.114 89.6226 198.114H46.1719V143.801Z" fill="#F0F0F0"/>
<path d="M46.5325 143.801H45.8124C41.5926 143.801 38.1719 147.222 38.1719 151.441V190.474C38.1719 194.693 41.5926 198.114 45.8124 198.114H46.5325C50.7522 198.114 54.173 194.693 54.173 190.474V151.441C54.173 147.222 50.7522 143.801 46.5325 143.801Z" fill="#F5F5F5"/>
<path d="M51.9875 198.108H108.699V163.83H51.9875L51.9875 198.108Z" fill="#F0F0F0"/>
<path d="M47.3301 199.829H149.543C150.41 199.829 151.111 199.127 151.111 198.261V198.114H89.6457L45.7617 198.261C45.7617 199.127 46.4635 199.829 47.3301 199.829Z" fill="#E0E0E0"/>
<path d="M92.0986 121.264H144.868C150.751 121.264 155.108 126.036 154.59 131.919L151.111 171.58H77.0312L80.5097 131.919C81.0285 126.036 86.2157 121.264 92.0986 121.264Z" fill="#E0E0E0"/>
<path d="M83.7657 121.264H137.56C143.163 121.264 147.306 125.804 146.812 131.406L143.291 171.58H69.2109L72.7322 131.406C73.2204 125.804 78.1635 121.264 83.7657 121.264Z" fill="#F5F5F5"/>
<path d="M56.5361 160.705H101.458C104.112 160.705 106.266 162.86 106.266 165.514V169.853C106.266 172.508 104.112 174.662 101.458 174.662H56.5361C52.6792 174.662 49.5547 171.537 49.5547 167.681C49.5547 163.824 52.6792 160.699 56.5361 160.699V160.705Z" fill="#E0E0E0"/>
<path d="M108.949 143.801H152.4C156.617 143.801 160.04 147.224 160.04 151.441V190.474C160.04 194.691 156.617 198.114 152.4 198.114H108.949V143.801Z" fill="#F0F0F0"/>
<path d="M109.31 143.801H108.59C104.37 143.801 100.949 147.222 100.949 151.441V190.474C100.949 194.693 104.37 198.114 108.59 198.114H109.31C113.53 198.114 116.95 194.693 116.95 190.474V151.441C116.95 147.222 113.53 143.801 109.31 143.801Z" fill="#F5F5F5"/>
<path d="M228.855 113.939H187.082V199.822H228.855V113.939Z" fill="#F0F0F0"/>
<path d="M193.324 193.14V120.635H192.36V193.14H193.324Z" fill="#E6E6E6"/>
<path d="M222.697 120.635H192.367V121.855H222.697V120.635Z" fill="#E6E6E6"/>
<path d="M271.593 113.939H229.82V199.822H271.593V113.939Z" fill="#F0F0F0"/>
<path d="M271.6 199.828H277.129V113.946H271.6V199.828Z" fill="#E0E0E0"/>
<path d="M236.07 193.132V120.627H235.106V193.132H236.07Z" fill="#E6E6E6"/>
<path d="M229.82 199.828V114.922H228.856V199.828H229.82Z" fill="#E6E6E6"/>
<path d="M265.436 120.635H235.105V121.855H265.436V120.635Z" fill="#E6E6E6"/>
<path d="M227.024 132.943H224.949V151.923H227.024V132.943Z" fill="#E0E0E0"/>
<path d="M233.723 132.943H231.648V151.923H233.723V132.943Z" fill="#E0E0E0"/>
<path d="M260.037 24.3906H47.043V100.362H260.037V24.3906Z" fill="#E0E0E0"/>
<path d="M258.084 24.3906H45.0898V100.362H258.084V24.3906Z" fill="#F0F0F0"/>
<path d="M251.695 93.972V30.7793L51.4803 30.7793V93.972L251.695 93.972Z" fill="#FAFAFA"/>
<path d="M83.9805 93.9659L97.2476 30.7793H126.534L113.267 93.9659H83.9805Z" fill="white"/>
<path d="M125.625 93.9659L138.892 30.7793H153.538L140.271 93.9659H125.625Z" fill="white"/>
<path d="M215.035 93.9659L228.308 30.7793H242.949L229.681 93.9659H215.035Z" fill="white"/>
<path d="M152.566 227.39C217.915 227.39 270.89 224.297 270.89 220.481C270.89 216.666 217.915 213.573 152.566 213.573C87.2176 213.573 34.2422 216.666 34.2422 220.481C34.2422 224.297 87.2176 227.39 152.566 227.39Z" fill="#F5F5F5"/>
<path d="M101.313 37.0373C102.851 33.51 89.2298 30.3061 85.1105 41.1688C81.3757 51.0185 75.1754 53.5266 78.0925 60.3433C81.2476 67.7275 99.1039 68.6123 106.854 60.4287C113.14 53.7952 106.311 51.0063 107.196 44.7633C108.075 38.5264 106.226 36.4881 101.319 37.0312L101.313 37.0373Z" fill="#4C4E51"/>
<path d="M76.4935 58.1588C75.7856 54.3141 77.2137 52.7274 79.0139 50.7197C80.6616 48.8889 82.7121 46.6065 83.835 41.7122C84.7443 37.7394 87.46 35.1397 91.4816 34.3951C95.5093 33.6506 99.7751 34.9627 100.898 36.6409C101.27 37.1901 101.289 37.776 100.959 38.2947L100.446 37.9652C100.642 37.6539 100.623 37.3366 100.391 36.9826C99.3906 35.4936 95.3263 34.3036 91.5914 34.9993C88.9246 35.4936 85.5193 37.0864 84.427 41.8525C83.2675 46.9055 81.1621 49.2489 79.4655 51.1346C77.708 53.0936 76.4325 54.5033 77.0916 58.055L76.4935 58.1649V58.1588Z" fill="#4C4E51"/>
<path d="M68.1009 55.2408L67.7226 54.0264C67.4663 53.1964 66.9903 52.4519 66.3556 51.8599L65.1534 50.7492C64.36 50.0108 63.1517 49.9498 62.2851 50.5967L60.9731 51.5731C59.9723 52.3237 59.7709 53.7456 60.5337 54.7404L61.3759 55.8388C61.3759 55.8388 63.347 59.177 66.2091 60.3426L66.8682 59.7811C66.8682 59.7811 66.8926 59.7628 66.8987 59.7506C68.1742 58.646 68.6014 56.8458 68.0948 55.2347L68.1009 55.2408Z" fill="#FFC3BD"/>
<path d="M91.8231 76.4232L91.4326 76.7223L91.1152 76.9542L90.4989 77.3813C90.09 77.6499 89.6811 77.9062 89.2661 78.1442C88.4362 78.6263 87.5818 79.0535 86.703 79.444C84.9394 80.2069 83.0537 80.8049 81.0581 81.1222C79.0686 81.464 76.951 81.4884 74.8517 81.1589C73.8021 80.988 72.7646 80.7317 71.7638 80.3594C71.5136 80.274 71.2634 80.1763 71.0193 80.0726L70.6531 79.92L70.47 79.8407L70.2686 79.7492L70.0184 79.6271C69.3777 79.2976 68.9017 78.9192 68.5538 78.5958C68.1877 78.254 67.9313 77.9489 67.6933 77.656C66.8146 76.4965 66.424 75.5506 66.0334 74.6352C65.6673 73.7259 65.3865 72.8654 65.1363 72.0171C64.6664 70.3145 64.3064 68.6729 64.0318 67.0313C63.4764 63.742 63.1591 60.5259 63.0981 57.206C63.0736 55.8452 64.1599 54.7162 65.5208 54.6918C66.601 54.6735 67.5347 55.3508 67.8886 56.3151L67.913 56.3822C68.9749 59.3054 69.994 62.2956 71.0742 65.1456C71.6234 66.5614 72.1666 67.9711 72.7768 69.2526C73.0698 69.8934 73.3749 70.5098 73.68 71.0346C73.9729 71.5533 74.3391 72.0171 74.4551 72.0904C74.4734 72.0965 74.4795 72.0904 74.4184 72.011C74.3635 71.9561 74.217 71.8096 73.9302 71.6571L73.8143 71.596C73.7838 71.5777 73.7044 71.5533 73.7471 71.5655L73.8448 71.5899L74.0401 71.6388C74.1682 71.6754 74.2964 71.712 74.4245 71.7303C74.9372 71.8524 75.462 71.8768 75.9868 71.9195C77.0365 71.9744 78.1288 71.8402 79.2517 71.5777C80.3685 71.3031 81.5219 70.9064 82.657 70.3694C83.2245 70.1131 83.786 69.8141 84.3352 69.5151C84.6098 69.3625 84.8783 69.2038 85.1346 69.0451L85.7693 68.6485L86.2453 68.3556C88.5521 66.9214 91.579 67.6354 93.0131 69.9422C94.3557 72.1026 93.7943 74.9159 91.8292 76.4354L91.8231 76.4232Z" fill="#FFC3BD"/>
<path d="M102.549 217.816C106.412 216.546 109.671 213.934 109.012 209.351C108.731 207.386 115.029 206.617 115.029 206.617C114.309 212.86 115.096 213.91 115.847 215.35C116.604 216.796 116.555 218.481 115.249 218.639C113.686 218.822 113.339 218.652 111.398 218.908C109.134 219.207 107.663 220.397 103.123 220.397C100.639 220.397 101.304 218.224 102.549 217.816Z" fill="#F38294"/>
<path d="M114.272 151.139C114.717 119.869 111.819 102.824 111.819 102.824L88.6836 103.978C88.6836 103.978 92.1072 132.587 98.1793 153.659C99.8026 164.967 103.458 184.093 105.991 196.939C109.988 196.536 113.997 195.847 117.079 194.84C117.976 183.556 118.141 167.231 114.272 151.139Z" fill="#F38294"/>
<path d="M114.773 209.68C114.773 209.68 115.676 203.773 116.286 194.839C113.65 195.846 110.22 196.535 106.797 196.938C108.115 204.743 109.055 209.705 109.055 209.705C110.202 210.266 113.119 210.462 114.773 209.68Z" fill="#FFC3BD"/>
<path d="M104.746 193.198C104.954 194.272 105.509 196.963 106.064 197.909C106.132 198.019 106.241 198.098 106.376 198.111C110.69 198.654 114.999 197.787 116.781 197.006C116.878 196.963 116.958 196.884 116.994 196.78C117.476 195.493 117.659 192.765 117.714 191.617C117.726 191.349 117.488 191.141 117.226 191.196C115.81 191.477 111.502 192.252 105.125 192.71C104.88 192.728 104.697 192.954 104.746 193.192V193.198Z" fill="#4C4E51"/>
<path d="M89.0022 67.209C85.5725 67.8437 80.3425 70.718 80.3425 70.718C80.3425 70.718 77.5902 77.3088 80.8857 82.0567C84.1323 82.8195 85.7861 82.197 85.7861 82.197L89.0022 67.209Z" fill="#4C4E51"/>
<path opacity="0.2" d="M80.8867 82.0561C84.1333 82.8189 85.7871 82.1965 85.7871 82.1965L85.6712 73.2988C83.4498 76.2708 81.6129 79.2062 80.8867 82.05V82.0561Z" fill="black"/>
<path opacity="0.2" d="M114.15 132.691C111.563 126.362 108.78 121.151 107.712 116.391C105.894 129.334 107.322 141.241 114.285 149.772C114.364 143.474 114.297 137.774 114.15 132.691Z" fill="black"/>
<path d="M149.499 182.316L140.266 188.883C132.729 179.063 121.427 164.063 118.693 157.533C111.748 140.965 97.7852 104.459 97.7852 104.459L115.91 100.248C115.91 100.248 127.346 110.867 134.724 150.936C140.919 159.694 146.118 172.607 149.499 182.316Z" fill="#F38294"/>
<path d="M148.987 213.44C151.288 208.942 151.318 203.987 148.834 200.081C147.766 198.409 153.192 195.107 153.192 195.107C155.108 201.094 156.67 201.442 158 202.363C159.373 203.315 159.465 205.293 158.342 205.97C156.993 206.782 156.475 207.313 155.285 208.863C153.893 210.675 153.112 213.208 151.117 214.776C149.841 215.777 147.968 215.405 148.981 213.44H148.987Z" fill="#F38294"/>
<path d="M154.2 197.847C154.2 197.847 152.607 192.245 149.476 183.854C147.493 185.855 144.649 187.893 141.695 189.675C146.108 196.242 149.336 200.959 149.336 200.959C151.295 200.337 153.016 199.238 154.2 197.847Z" fill="#FFC3BD"/>
<path d="M138.287 187.12C138.915 188.011 140.533 190.238 141.43 190.867C141.54 190.94 141.674 190.965 141.796 190.928C145.952 189.646 149.516 187.077 150.822 185.631C150.895 185.552 150.932 185.448 150.925 185.338C150.834 183.965 149.876 181.408 149.449 180.34C149.351 180.09 149.046 179.998 148.832 180.157C147.661 180.993 144.054 183.477 138.433 186.522C138.22 186.638 138.147 186.919 138.287 187.12Z" fill="#4C4E51"/>
<path d="M83.7639 76.3382C84.5938 81.7329 81.3717 85.9254 86.3209 88.4153C85.497 92.5162 86.7176 100.724 88.6826 103.977C91.4288 105.472 104.897 103.263 115.9 100.248C115.742 95.5492 111.873 86.3038 112.947 70.9129C113.197 67.3429 110.298 64.3465 106.722 64.4747C105.764 64.5113 104.757 64.5662 103.732 64.6577C99.7345 65.0117 96.4635 65.329 93.0155 66.1285C91.8743 66.3909 90.6965 66.7021 89.5736 67.0195C85.5276 68.1607 83.1231 72.1823 83.7639 76.3382Z" fill="#4C4E51"/>
<path d="M91.5452 72.2069C91.5452 72.2069 94.987 70.9437 96.7995 74.0438C99.802 72.3534 104.037 65.2072 103.732 64.6641C98.6974 66.0433 91.5391 72.213 91.5391 72.213L91.5452 72.2069Z" fill="white"/>
<path d="M91.5479 72.2074C91.5479 72.2074 88.9298 71.8961 88.1914 74.209C88.2158 69.6321 91.2793 66.7577 92.628 66.2207C92.1764 67.4107 91.5479 72.2074 91.5479 72.2074Z" fill="white"/>
<path d="M102.415 52.5449C102.03 56.1089 101.969 61.8514 103.739 64.6586C103.739 64.6586 97.0567 69.26 91.546 72.2076C89.819 68.2104 92.6262 66.2209 92.6262 66.2209C95.2442 65.214 95.2198 61.8697 94.8658 59.3005L102.409 52.5449H102.415Z" fill="#FFC3BD"/>
<path opacity="0.2" d="M94.8672 59.2997L99.1573 55.4551C99.316 56.0348 99.2489 56.8831 99.0231 57.6093C98.3518 59.7208 96.582 61.4173 95.0075 62.3388C95.0869 61.3258 94.9953 60.2578 94.8672 59.2997Z" fill="black"/>
<path d="M103.797 45.9113C103.217 51.7027 103.095 54.1682 100.104 57.0364C95.6007 61.351 88.7536 59.3737 87.6185 53.5213C86.5993 48.2547 87.7161 39.6683 93.3793 37.5751C98.9571 35.5124 104.376 40.1199 103.797 45.9113Z" fill="#FFC3BD"/>
<path d="M102.499 50.1525C100.412 48.2912 100.772 45.0812 102.298 43.5312C103.823 41.9872 105.971 45.1789 105.971 45.1789L102.505 50.1464L102.499 50.1525Z" fill="#4C4E51"/>
<path d="M95.4537 47.5158C95.4354 47.9857 95.1669 48.3641 94.8618 48.3518C94.5505 48.3396 94.3186 47.9491 94.337 47.4731C94.3553 47.0032 94.6238 46.6248 94.9289 46.637C95.2401 46.6492 95.472 47.0398 95.4537 47.5158Z" fill="#4C4E51"/>
<path d="M89.6295 47.3693C89.6112 47.8392 89.3427 48.2176 89.0376 48.2054C88.7263 48.1932 88.4944 47.8026 88.5127 47.3266C88.531 46.8567 88.7996 46.4783 89.1047 46.4905C89.4159 46.5027 89.6478 46.8933 89.6295 47.3693Z" fill="#4C4E51"/>
<path d="M89.2401 46.5266L88.1172 46.1543C88.1172 46.1543 88.6664 47.0636 89.2401 46.5266Z" fill="#4C4E51"/>
<path d="M91.0642 47.5586C91.0642 47.5586 90.1793 49.5603 89.2578 50.5123C89.862 51.1164 90.9299 50.8967 90.9299 50.8967L91.0581 47.5647L91.0642 47.5586Z" fill="#ED847E"/>
<path d="M93.5839 52.7467C93.3397 52.7833 93.0712 52.7955 92.7905 52.7833C92.7112 52.7833 92.6562 52.7162 92.6562 52.6368C92.6562 52.5636 92.7234 52.5026 92.8027 52.5026C94.8776 52.588 95.9028 51.1722 95.9151 51.16C95.9578 51.099 96.0493 51.0807 96.1103 51.1295C96.1714 51.1722 96.1897 51.2638 96.1408 51.3248C96.1042 51.3797 95.2743 52.5209 93.59 52.7467H93.5839Z" fill="#4C4E51"/>
<path d="M104.761 50.7687C104.212 51.8671 103.284 52.5384 102.418 52.7581C101.118 53.0816 100.514 51.6536 100.916 50.2255C101.276 48.9379 102.387 47.223 103.675 47.5404C104.944 47.8516 105.39 49.5176 104.761 50.7748V50.7687Z" fill="#FFC3BD"/>
<path d="M100.793 37.6609C96.1912 40.5596 91.2847 41.9815 87.2814 42.4942C87.2448 38.3261 95.4284 33.6454 100.793 37.6609Z" fill="#4C4E51"/>
<path d="M97.6496 38.1733C96.6975 41.8349 106.157 48.5295 104.381 55.0044C107.481 50.1711 105.247 39.3145 105.247 39.3145C105.247 39.3145 97.2285 34.2554 97.6557 38.1733H97.6496Z" fill="#4C4E51"/>
<path d="M96.6657 44.4033C96.5925 44.3911 96.5253 44.3484 96.4826 44.2874C95.7869 43.2621 94.7617 43.2682 94.7495 43.2682C94.5969 43.2682 94.4688 43.1462 94.4688 42.9936C94.4688 42.841 94.5908 42.7129 94.7434 42.7129C94.7983 42.7129 96.0798 42.7007 96.9464 43.9761C97.0319 44.1043 97.0013 44.2752 96.8732 44.3606C96.8122 44.4033 96.7389 44.4155 96.6718 44.4033H96.6657Z" fill="#4C4E51"/>
<path d="M87.0567 44.1961C86.9896 44.1961 86.9164 44.1656 86.8675 44.1168C86.7577 44.0069 86.7577 43.8299 86.8675 43.7262C87.9538 42.6399 89.211 42.8901 89.2659 42.8962C89.4184 42.9268 89.51 43.0732 89.4795 43.2258C89.449 43.3784 89.3025 43.4699 89.1499 43.4394C89.1011 43.4272 88.1247 43.2502 87.2581 44.1168C87.2032 44.1717 87.13 44.2022 87.0567 44.1961Z" fill="#4C4E51"/>
<path d="M95.0643 46.6672L93.9414 46.2949C93.9414 46.2949 94.4906 47.2042 95.0643 46.6672Z" fill="#4C4E51"/>
<path opacity="0.2" d="M112.811 73.891C112.695 77.5037 112.847 80.7503 113.134 83.643C110.064 80.4208 106.25 74.3365 106 71.2852L112.811 73.891Z" fill="black"/>
<path d="M132.734 62.4123L133.406 58.5371L139.423 60.8622C139.423 60.8622 138.031 64.4689 135.462 66.0617L134.748 65.6101C133.583 64.8716 132.844 63.6999 132.734 62.4123Z" fill="#FFC3BD"/>
<path d="M137.159 56.378L139.137 57.4521C140.04 57.9403 140.375 59.0693 139.893 59.9725L139.423 60.8574L133.406 58.5323L134.834 56.8174C135.408 56.1339 136.378 55.9448 137.165 56.3719L137.159 56.378Z" fill="#FFC3BD"/>
<path d="M111.737 66.836L112.499 67.6293L113.336 68.4776C113.903 69.0329 114.471 69.6005 115.056 70.1375C116.216 71.2299 117.418 72.2429 118.614 73.1888C119.817 74.1103 121.043 74.9403 122.215 75.5688C123.393 76.1913 124.503 76.5758 125.321 76.6795L123.679 76.9846C123.277 77.1799 123.301 77.2654 123.387 77.1982C123.478 77.1433 123.649 77.003 123.838 76.8138C124.217 76.4354 124.65 75.8984 125.059 75.3186C125.889 74.1408 126.731 72.8043 127.518 71.419C128.33 70.0399 129.111 68.6057 129.892 67.1655L132.241 62.8204L132.26 62.7838C132.907 61.5816 134.408 61.1361 135.61 61.783C136.556 62.2956 137.038 63.3453 136.873 64.3522C136.593 66.1098 136.208 67.7697 135.781 69.4601C135.348 71.1444 134.841 72.8104 134.268 74.4887C133.663 76.1547 133.029 77.839 132.144 79.5478C131.698 80.4082 131.21 81.2748 130.539 82.2085C130.203 82.6784 129.813 83.1605 129.288 83.6731C128.757 84.1735 128.098 84.7655 126.914 85.2781C126.468 85.4734 126.005 85.571 125.541 85.5771H125.272C122.569 85.6321 120.262 84.9547 118.273 84.1125C117.272 83.6853 116.326 83.2154 115.429 82.715C114.544 82.2024 113.689 81.6593 112.872 81.0978C111.236 79.9749 109.741 78.7483 108.319 77.4668C107.617 76.8199 106.922 76.1669 106.256 75.4834C105.921 75.1417 105.591 74.7938 105.268 74.4398C104.932 74.0676 104.645 73.7441 104.261 73.2926C102.503 71.2177 102.76 68.1053 104.835 66.3478C106.824 64.6634 109.765 64.8282 111.554 66.6773L111.724 66.8543L111.737 66.836Z" fill="#FFC3BD"/>
<path d="M106.998 64.4863C111.471 64.6206 115.92 69.997 115.92 69.997C115.92 69.997 114.193 77.1066 109.293 80.1701C106.54 78.022 104.197 76.301 104.197 76.301C100.297 70.5706 101.597 66.7687 106.992 64.4924L106.998 64.4863Z" fill="#4C4E51"/>
<path d="M87.793 103.55C88.1225 105.466 88.5192 106.961 88.6473 107.425C88.6717 107.523 88.7389 107.602 88.8304 107.651C89.4834 108.017 92.4615 109.457 97.9233 109.164C104.056 108.829 112.979 105.515 117.629 101.951C117.769 101.847 117.818 101.658 117.751 101.493C117.36 100.578 116.774 99.6319 116.5 99.1987C116.408 99.0522 116.231 98.9912 116.066 99.04C114.065 99.6441 101.463 103.257 88.1896 103.098C87.9516 103.098 87.7625 103.312 87.8052 103.55H87.793Z" fill="#F38294"/>
<path opacity="0.3" d="M87.793 103.55C88.1225 105.466 88.5192 106.961 88.6473 107.425C88.6717 107.523 88.7389 107.602 88.8304 107.651C89.4834 108.017 92.4615 109.457 97.9233 109.164C104.056 108.829 112.979 105.515 117.629 101.951C117.769 101.847 117.818 101.658 117.751 101.493C117.36 100.578 116.774 99.6319 116.5 99.1987C116.408 99.0522 116.231 98.9912 116.066 99.04C114.065 99.6441 101.463 103.257 88.1896 103.098C87.9516 103.098 87.7625 103.312 87.8052 103.55H87.793Z" fill="white"/>
<path d="M210.094 202.277H129.747C123.413 202.277 118.531 197.095 118.903 190.755L128.697 23.7503C129.07 17.4157 134.556 12.2285 140.891 12.2285H221.238C227.572 12.2285 232.454 17.4096 232.082 23.7503L222.287 190.755C221.915 197.089 216.429 202.277 210.094 202.277Z" fill="#F38294"/>
<path opacity="0.8" d="M210.094 202.277H129.747C123.413 202.277 118.531 197.095 118.903 190.755L128.697 23.7503C129.07 17.4157 134.556 12.2285 140.891 12.2285H221.238C227.572 12.2285 232.454 17.4096 232.082 23.7503L222.287 190.755C221.915 197.089 216.429 202.277 210.094 202.277Z" fill="white"/>
<path d="M209.619 198.931H131.511C127.056 198.931 123.627 195.288 123.889 190.833L133.641 24.5611C133.904 20.1062 137.76 16.4629 142.209 16.4629H220.317C224.772 16.4629 228.201 20.1062 227.939 24.5611L218.187 190.833C217.925 195.288 214.068 198.931 209.619 198.931Z" fill="#F38294"/>
<path d="M208.775 198.041H130.668C126.213 198.041 122.783 194.398 123.045 189.943L132.797 23.6705C133.06 19.2155 136.917 15.5723 141.365 15.5723H219.473C223.928 15.5723 227.358 19.2155 227.095 23.6705L217.343 189.943C217.081 194.398 213.224 198.041 208.775 198.041Z" fill="white"/>
<path opacity="0.1" d="M206.495 191.859H133.673C130.92 191.859 128.803 189.607 128.961 186.855L133.032 117.498C133.191 114.746 135.577 112.494 138.329 112.494H211.152C213.904 112.494 216.022 114.746 215.863 117.498L211.792 186.855C211.634 189.607 209.248 191.859 206.495 191.859Z" fill="#F38294"/>
<path opacity="0.1" d="M190.319 27.9048H169.094C168.111 27.9048 167.349 27.0992 167.41 26.1106C167.465 25.122 168.319 24.3164 169.308 24.3164H190.533C191.515 24.3164 192.278 25.122 192.217 26.1106C192.162 27.0931 191.308 27.9048 190.319 27.9048Z" fill="#F38294"/>
<path opacity="0.1" d="M198.763 94.8447C211.837 82.1489 212.729 61.8624 200.756 49.5335C188.784 37.2046 168.48 37.502 155.406 50.1978C142.333 62.8936 141.44 83.1801 153.413 95.509C165.385 107.838 185.689 107.541 198.763 94.8447Z" fill="#F38294"/>
<path d="M154.641 93.7476C149.259 88.0417 146.555 80.4561 147.025 72.3945L147.635 72.4312C147.172 80.3218 149.82 87.7426 155.087 93.3265L154.641 93.7476Z" fill="#F38294"/>
<path d="M207.137 72.6448L206.527 72.6082C206.686 69.8803 206.478 67.1829 205.898 64.5893L206.496 64.4551C207.082 67.1036 207.302 69.8559 207.137 72.6387V72.6448Z" fill="#F38294"/>
<path d="M204.146 59.2849C202.895 56.5021 201.192 53.9512 199.081 51.7116C196.158 48.6114 192.655 46.2924 188.676 44.8217L188.889 44.248C192.96 45.7493 196.536 48.1232 199.526 51.2905C201.687 53.579 203.426 56.1848 204.707 59.0347L204.152 59.2849H204.146Z" fill="#F38294"/>
<path d="M195.974 91.9715C207.367 80.9076 208.146 63.2298 197.714 52.4871C187.282 41.7443 169.589 42.0047 158.196 53.0686C146.802 64.1325 146.023 81.8103 156.456 92.553C166.888 103.296 184.581 103.035 195.974 91.9715Z" fill="#F38294"/>
<path d="M173.979 76.3059C173.979 76.3059 173.991 76.3059 173.997 76.3059C175.34 76.0129 175.968 74.8596 176.249 73.5536C176.279 73.4193 176.304 73.2851 176.328 73.1447C176.334 73.102 176.34 73.0654 176.347 73.0227C176.426 72.4734 176.462 71.9059 176.469 71.3811C173.924 71.1003 171.788 69.1231 171.672 66.1694C171.58 63.9358 172.093 61.031 173.301 58.7059C173.057 58.7364 172.77 58.8341 172.477 59.0476C172.429 59.0843 172.368 59.0965 172.313 59.0843C172.264 59.0721 172.215 59.0476 172.178 58.9988C172.111 58.9073 172.13 58.773 172.221 58.7059C172.709 58.3458 173.185 58.2665 173.539 58.2665C173.625 58.12 173.71 57.9675 173.802 57.8271C173.417 57.8332 173.039 57.8393 172.673 57.8271C173.076 55.0077 178.501 52.6399 182.199 54.8002C183.847 55.1298 186.562 57.4793 186.562 57.4793C186.562 57.4793 186.666 59.5175 186.434 61.983C186.19 64.5278 185.586 67.5303 184.121 69.1963C184.506 68.3297 184.603 67.4204 184.512 66.4867C184.121 66.8651 183.676 67.097 183.242 67.2069C183.066 67.5913 182.87 67.9453 182.644 68.2809C182.071 70.8989 181.662 74.3897 182.535 76.3913C183.322 76.4401 184.085 76.5134 184.811 76.5927C184.872 76.5988 184.927 76.611 184.988 76.6232C185.464 76.3425 185.928 76.0313 186.367 75.6834C191.853 71.4055 186.025 66.4013 187.404 61.806C188.778 57.2108 187.618 55.4654 183.865 55.3128C185.427 52.8352 175.535 48.8624 171.19 56.5761C167.254 63.5636 165.984 67.0482 167.4 72.5161C167.846 74.2493 169.078 75.6834 170.763 76.7209C171.037 76.6476 171.318 76.5866 171.605 76.55C172.38 76.4523 173.185 76.3669 173.973 76.2998L173.979 76.3059Z" fill="#4C4E51"/>
<path d="M165.441 87.0523C165.173 86.5946 164.959 86.1796 164.807 85.8379C164.392 87.0706 163.983 88.3034 163.58 89.5178C163.208 90.6162 162.841 91.7147 162.463 92.7644L161.896 94.2473L161.645 94.8332C161.56 94.9979 161.645 94.9064 161.633 94.9491C161.523 95.1139 161.145 95.4617 160.773 95.7852C160.699 95.8462 160.62 95.9072 160.547 95.9744C162.219 97.0972 164.025 98.0431 165.96 98.7633C166.003 95.9744 166.344 93.0756 166.711 92.3006C164.556 90.7749 164.886 89.1089 165.435 87.0584L165.441 87.0523Z" fill="#FFC3BD"/>
<path d="M167.577 78.8203C167.522 78.8874 167.473 78.9607 167.418 79.0339C167.467 78.9607 167.522 78.8935 167.577 78.8264V78.8203Z" fill="#4C4E51"/>
<path d="M166.167 82.9096C166.167 81.5182 166.595 80.2184 167.333 79.1504C165.783 81.3046 164.465 85.0028 164.465 85.0028C164.465 85.0028 164.575 85.3324 164.807 85.8328C164.959 86.1684 165.173 86.5895 165.441 87.0472C165.771 85.8206 166.174 84.4597 166.167 82.9035V82.9096Z" fill="#4C4E51"/>
<path d="M187.443 91.7626C186.797 90.835 186.125 89.6633 185.521 88.4245C185.338 88.5221 185.149 88.6198 184.954 88.7052C183.123 86.7707 181.561 85.2084 181.561 85.2084C179.278 80.4484 180.688 77.7327 185.015 76.6342C185.674 76.7563 186.308 77.0309 186.906 77.3971C186.351 77.0065 185.704 76.738 184.99 76.6281C184.929 76.6159 184.874 76.6037 184.813 76.5976C184.087 76.5122 183.324 76.445 182.537 76.3962C182.702 76.8417 178.79 82.4683 176.331 83.3959C175.324 80.8572 172.498 80.6864 172.498 80.6864C172.498 80.6864 169.862 80.1432 169.044 81.8032C169.581 78.3735 172.883 76.5671 173.981 76.3047C173.194 76.3718 172.388 76.4573 171.613 76.5549C171.32 76.5915 171.046 76.6525 170.771 76.7258C169.483 77.0736 168.391 77.8242 167.592 78.8251C167.537 78.8922 167.482 78.9593 167.433 79.0326C167.402 79.0692 167.372 79.1119 167.348 79.1485C166.603 80.2165 166.176 81.5163 166.182 82.9077C166.182 84.4639 165.779 85.8248 165.456 87.0514C164.906 89.1019 164.577 90.7679 166.731 92.2936C166.371 93.0686 166.023 95.9674 165.981 98.7563C168.904 99.8486 172.095 100.441 175.458 100.441C179.693 100.441 183.757 99.4947 187.456 97.8042C187.37 95.8514 187.346 93.5751 187.511 90.9876C187.492 91.2439 187.474 91.5063 187.462 91.7565L187.443 91.7626Z" fill="#4C4E51"/>
<path d="M172.496 80.6866C172.496 80.6866 175.322 80.8636 176.329 83.3962C178.782 82.4686 182.7 76.842 182.535 76.3965C182.535 76.3965 176.975 79.0999 172.496 80.6866Z" fill="white"/>
<path d="M173.99 76.2988C173.99 76.2988 173.978 76.2988 173.972 76.2988C172.88 76.5612 169.578 78.3676 169.035 81.7973C169.853 80.1374 172.489 80.6805 172.489 80.6805C171.641 77.4705 173.984 76.2988 173.984 76.2988H173.99Z" fill="white"/>
<path d="M176.328 73.1377C176.334 73.095 176.34 73.0583 176.346 73.0156C176.346 73.0583 176.334 73.095 176.328 73.1377Z" fill="#FFC3BD"/>
<path d="M182.646 68.2871C182.164 69.0011 181.548 69.6236 180.669 70.2399C180.333 70.478 179.985 70.6671 179.632 70.8319C178.844 72.1989 177.435 73.1753 176.226 73.6574C176.232 73.6208 176.238 73.5842 176.245 73.5537C175.958 74.8596 175.329 76.013 173.993 76.306C173.993 76.306 171.649 77.4838 172.498 80.6876C176.983 79.101 182.536 76.3975 182.536 76.3975C181.664 74.3958 182.066 70.9051 182.646 68.2871Z" fill="#FFC3BD"/>
<path d="M176.47 71.375C176.464 71.9059 176.427 72.4674 176.348 73.0166C176.433 72.4613 176.464 71.8998 176.47 71.375Z" fill="#4C4E51"/>
<path opacity="0.2" d="M176.47 71.375C176.464 71.9059 176.427 72.4674 176.348 73.0166C176.433 72.4613 176.464 71.8998 176.47 71.375Z" fill="black"/>
<path d="M179.63 70.832C178.58 71.3263 177.494 71.4911 176.468 71.3813C176.462 71.9061 176.426 72.4736 176.346 73.0229C176.346 73.0656 176.334 73.1022 176.328 73.1449C176.304 73.2792 176.279 73.4195 176.249 73.5538C176.243 73.5904 176.237 73.627 176.23 73.6575C177.439 73.1754 178.842 72.199 179.636 70.832H179.63Z" fill="#FFC3BD"/>
<path opacity="0.2" d="M179.63 70.832C178.58 71.3263 177.494 71.4911 176.468 71.3813C176.462 71.9061 176.426 72.4736 176.346 73.0229C176.346 73.0656 176.334 73.1022 176.328 73.1449C176.304 73.2792 176.279 73.4195 176.249 73.5538C176.243 73.5904 176.237 73.627 176.23 73.6575C177.439 73.1754 178.842 72.199 179.636 70.832H179.63Z" fill="black"/>
<path d="M179.631 70.8319C179.979 70.6672 180.326 70.478 180.668 70.24C181.541 69.6236 182.163 69.0011 182.645 68.2871C182.871 67.9515 183.066 67.5975 183.243 67.2131C183.127 67.2436 183.011 67.2741 182.902 67.2863C181.883 67.3839 181.596 66.2366 182.059 65.2053C182.2 64.8941 182.413 64.5523 182.67 64.2533C182.383 63.3684 182.493 62.4103 182.853 61.617C181.925 59.7129 180.943 57.9676 180.851 56.6738C178.367 57.4428 175.939 57.7784 173.809 57.8272C173.717 57.9676 173.632 58.1202 173.546 58.2666C173.882 58.2666 174.108 58.352 174.126 58.3582C174.236 58.4009 174.291 58.5229 174.248 58.6328C174.205 58.7426 174.083 58.7975 173.974 58.7548C173.949 58.7487 173.674 58.6572 173.296 58.706C172.082 61.0372 171.575 63.936 171.667 66.1695C171.789 69.1232 173.919 71.1004 176.463 71.3812C177.489 71.491 178.575 71.3262 179.625 70.8319H179.631ZM178.27 58.8464C178.312 58.8464 179.277 58.9928 179.783 60.0486C179.832 60.1523 179.783 60.2805 179.686 60.3293C179.637 60.3537 179.582 60.3537 179.527 60.3415C179.472 60.3232 179.429 60.2866 179.399 60.2317C178.99 59.3773 178.221 59.2674 178.215 59.2674C178.099 59.2491 178.02 59.1454 178.032 59.0294C178.05 58.9135 178.154 58.8342 178.27 58.8464ZM178.056 61.8611C178.056 61.8611 178.05 61.8611 178.044 61.8611C178.221 61.9648 178.312 62.2333 178.258 62.5385C178.19 62.8924 177.946 63.1426 177.714 63.0999C177.483 63.0572 177.348 62.7337 177.422 62.3798C177.458 62.1784 177.562 62.0136 177.678 61.916C177.415 61.8183 177.257 61.4522 177.257 61.4522L178.062 61.8611H178.056ZM173.052 61.6109C173.089 61.4095 173.192 61.2447 173.308 61.1471C173.046 61.0494 172.887 60.6833 172.887 60.6833L173.693 61.0921C173.693 61.0921 173.687 61.0921 173.681 61.0921C173.858 61.1959 173.949 61.4644 173.894 61.7695C173.827 62.1235 173.583 62.3737 173.351 62.331C173.119 62.2882 172.985 61.9648 173.058 61.6109H173.052ZM174.468 64.5706C174.468 64.5706 173.638 64.6194 173.253 64.0885C174.053 63.4783 174.95 62.0747 174.95 62.0747L174.474 64.5706H174.468ZM175.646 66.2061C175.591 66.1939 175.548 66.139 175.56 66.0841C175.572 66.0292 175.627 65.9925 175.682 65.9986C177.232 66.2977 178.166 65.3518 178.178 65.3396C178.221 65.2968 178.288 65.2968 178.331 65.3396C178.374 65.3823 178.374 65.4494 178.331 65.4921C178.294 65.5287 177.544 66.2916 176.244 66.2733C176.054 66.2733 175.853 66.2488 175.64 66.2122L175.646 66.2061Z" fill="#FFC3BD"/>
<path d="M183.7 63.4826C183.444 62.848 183.151 62.2255 182.858 61.6152C182.498 62.4086 182.388 63.3667 182.675 64.2516C182.974 63.8976 183.334 63.6108 183.706 63.4887L183.7 63.4826Z" fill="#4C4E51"/>
<path d="M177.68 61.9162C177.558 62.0139 177.46 62.1787 177.424 62.3801C177.356 62.734 177.491 63.0574 177.716 63.1002C177.948 63.1429 178.193 62.8927 178.26 62.5387C178.321 62.2336 178.223 61.9651 178.046 61.8613C177.906 61.9529 177.784 61.9529 177.674 61.9162H177.68Z" fill="#4C4E51"/>
<path d="M173.895 61.7692C173.956 61.4641 173.858 61.1955 173.681 61.0918C173.541 61.1833 173.419 61.1833 173.309 61.1467C173.187 61.2444 173.089 61.4091 173.052 61.6105C172.985 61.9645 173.12 62.2879 173.345 62.3306C173.577 62.3733 173.821 62.1231 173.889 61.7692H173.895Z" fill="#4C4E51"/>
<path d="M173.68 61.0925C173.68 61.0925 173.686 61.0925 173.692 61.0925L172.887 60.6836C172.887 60.6836 173.045 61.0497 173.308 61.1474C173.412 61.1901 173.54 61.184 173.68 61.0925Z" fill="#4C4E51"/>
<path d="M173.252 64.0881C173.637 64.6129 174.467 64.5702 174.467 64.5702L174.943 62.0742C174.943 62.0742 174.052 63.4839 173.246 64.0881H173.252Z" fill="#ED847E"/>
<path d="M178.335 65.3325C178.293 65.2898 178.226 65.2959 178.183 65.3325C178.171 65.3447 177.237 66.2906 175.687 65.9916C175.626 65.9794 175.571 66.016 175.565 66.077C175.553 66.132 175.589 66.193 175.65 66.1991C175.864 66.2418 176.065 66.2601 176.254 66.2601C177.554 66.2784 178.305 65.5156 178.342 65.479C178.384 65.4363 178.378 65.3691 178.342 65.3264L178.335 65.3325Z" fill="#4C4E51"/>
<path d="M183.701 63.4827C183.329 63.6047 182.969 63.8976 182.669 64.2455C182.413 64.5445 182.2 64.8863 182.059 65.1975C181.595 66.2288 181.882 67.3761 182.901 67.2785C183.011 67.2663 183.127 67.2358 183.243 67.2053C183.676 67.0954 184.122 66.8635 184.512 66.4852C184.415 65.4904 184.104 64.4774 183.701 63.4766V63.4827Z" fill="#FFC3BD"/>
<path d="M180.981 55.7567C181.018 54.8779 181.518 54.6643 182.202 54.8047C178.504 52.6443 173.079 55.0122 172.676 57.8316C173.042 57.8377 173.42 57.8377 173.805 57.8316C175.941 57.7828 178.37 57.4471 180.847 56.6782C180.823 56.3425 180.859 56.0313 180.975 55.7628L180.981 55.7567Z" fill="#4C4E51"/>
<path d="M180.979 55.7589C180.863 56.0274 180.827 56.3387 180.851 56.6743C180.942 57.9681 181.925 59.7073 182.853 61.6174C183.152 62.2277 183.445 62.8563 183.695 63.4848C184.098 64.4796 184.409 65.4987 184.506 66.4934C184.598 67.4271 184.506 68.3364 184.116 69.203C185.587 67.537 186.191 64.5345 186.429 61.9897C186.661 59.5303 186.557 57.4859 186.557 57.4859C186.557 57.4859 183.835 55.1364 182.194 54.8069C181.51 54.6726 181.01 54.8801 180.973 55.7589H180.979Z" fill="#4C4E51"/>
<path d="M178.216 59.2602C178.216 59.2602 178.997 59.3701 179.399 60.2244C179.424 60.2794 179.473 60.316 179.528 60.3343C179.576 60.3526 179.631 60.3465 179.686 60.3221C179.79 60.2732 179.839 60.1451 179.784 60.0413C179.277 58.9856 178.313 58.8452 178.27 58.8391C178.155 58.8269 178.051 58.9063 178.032 59.0222C178.02 59.1382 178.1 59.2419 178.216 59.2602Z" fill="#4C4E51"/>
<path d="M173.979 58.7538C174.089 58.7966 174.211 58.7416 174.254 58.6318C174.297 58.5219 174.242 58.3999 174.132 58.3572C174.114 58.3511 173.888 58.2717 173.552 58.2656C173.198 58.2656 172.722 58.345 172.234 58.705C172.143 58.7721 172.118 58.9064 172.191 58.9979C172.228 59.0407 172.271 59.0712 172.326 59.0834C172.381 59.0956 172.442 59.0834 172.49 59.0468C172.783 58.8332 173.07 58.7355 173.314 58.705C173.693 58.6562 173.967 58.7477 173.992 58.7538H173.979Z" fill="#4C4E51"/>
<path d="M177.679 61.915C177.783 61.9577 177.911 61.9516 178.051 61.8601C178.051 61.8601 178.057 61.8601 178.063 61.8601L177.258 61.4512C177.258 61.4512 177.416 61.8173 177.679 61.915Z" fill="#4C4E51"/>
<path d="M187.442 91.7627C187.454 91.5125 187.478 91.2501 187.491 90.9937C187.149 90.4506 186.795 89.9014 186.441 89.3521C186.209 89.0043 185.971 88.6564 185.739 88.3086C185.666 88.3513 185.593 88.3818 185.52 88.4245C186.124 89.6634 186.795 90.8412 187.442 91.7627Z" fill="#4C4E51"/>
<path opacity="0.2" d="M187.442 91.7627C187.454 91.5125 187.478 91.2501 187.491 90.9937C187.149 90.4506 186.795 89.9014 186.441 89.3521C186.209 89.0043 185.971 88.6564 185.739 88.3086C185.666 88.3513 185.593 88.3818 185.52 88.4245C186.124 89.6634 186.795 90.8412 187.442 91.7627Z" fill="black"/>
<path d="M189.256 96.8158L189.237 96.9134C191.672 95.5952 193.918 93.9536 195.901 92.0313C195.554 91 195.157 90.0602 194.73 89.1448C194.125 87.8327 193.46 86.6122 192.752 85.4161C192.148 84.3664 191.495 83.3656 190.83 82.377C190.208 83.6524 188.487 86.722 185.734 88.3026C185.972 88.6504 186.204 88.9983 186.436 89.3462C186.796 89.8954 187.144 90.4385 187.486 90.9878C187.785 91.4699 188.078 91.9459 188.352 92.4219C188.816 93.2457 189.262 94.0757 189.597 94.8324L189.536 95.2474C189.457 95.7539 189.359 96.2787 189.256 96.8097V96.8158Z" fill="#FFC3BD"/>
<path d="M181.561 85.209C181.561 85.209 183.123 86.7712 184.954 88.7058C185.149 88.6203 185.332 88.5227 185.521 88.425C185.594 88.3884 185.668 88.3518 185.741 88.3091C188.493 86.7285 190.214 83.6589 190.837 82.3834C191.014 82.0234 191.105 81.8037 191.105 81.8037C191.105 81.8037 189.341 78.8744 186.913 77.3976C186.314 77.0375 185.68 76.7568 185.021 76.6348C180.694 77.7332 179.284 80.4489 181.567 85.209H181.561Z" fill="#4C4E51"/>
<path d="M210.823 23.9934H219.422C219.904 23.9934 220.319 23.6028 220.344 23.1207C220.374 22.6386 220.002 22.248 219.526 22.248H210.927C210.445 22.248 210.03 22.6386 210.006 23.1207C209.975 23.6028 210.347 23.9934 210.83 23.9934H210.823Z" fill="#F38294"/>
<path d="M210.646 26.9836H219.245C219.727 26.9836 220.142 26.5931 220.166 26.111C220.197 25.6288 219.824 25.2383 219.342 25.2383H210.744C210.261 25.2383 209.846 25.6288 209.822 26.111C209.792 26.5931 210.164 26.9836 210.64 26.9836H210.646Z" fill="#F38294"/>
<path d="M141.08 26.9836H149.678C150.16 26.9836 150.575 26.5931 150.6 26.111C150.63 25.6288 150.258 25.2383 149.776 25.2383H141.177C140.695 25.2383 140.28 25.6288 140.256 26.111C140.225 26.5931 140.597 26.9836 141.08 26.9836Z" fill="#F38294"/>
<path d="M210.466 29.9797H219.065C219.547 29.9797 219.962 29.5892 219.986 29.1071C220.017 28.6249 219.645 28.2344 219.162 28.2344H210.564C210.082 28.2344 209.667 28.6249 209.642 29.1071C209.612 29.5892 209.984 29.9797 210.466 29.9797Z" fill="#F38294"/>
<path d="M199.166 139.468H147.147C143.004 139.468 139.812 136.081 140.056 131.937C140.3 127.793 143.889 124.406 148.032 124.406H200.051C204.195 124.406 207.386 127.793 207.142 131.937C206.898 136.081 203.31 139.468 199.166 139.468Z" fill="white"/>
<path d="M197.983 159.712H145.964C141.82 159.712 138.628 156.325 138.872 152.181C139.117 148.037 142.705 144.65 146.849 144.65H198.867C203.011 144.65 206.203 148.043 205.959 152.181C205.715 156.325 202.126 159.712 197.983 159.712Z" fill="white"/>
<path d="M196.791 179.946H144.772C140.629 179.946 137.437 176.559 137.681 172.415C137.925 168.272 141.514 164.885 145.657 164.885H197.676C201.82 164.885 205.011 168.272 204.767 172.415C204.523 176.559 200.935 179.946 196.791 179.946Z" fill="white"/>
<path d="M151.188 134.635C152.772 133.097 152.881 130.641 151.433 129.149C149.984 127.658 147.526 127.695 145.942 129.233C144.358 130.771 144.249 133.227 145.697 134.719C147.146 136.211 149.604 136.173 151.188 134.635Z" fill="#F38294"/>
<path d="M148.104 148.5L148.617 150.434C148.678 150.654 148.873 150.806 149.105 150.806H151.137C151.656 150.806 151.833 151.472 151.394 151.777L149.679 152.973C149.484 153.107 149.392 153.351 149.447 153.577L149.96 155.512C150.094 156.006 149.502 156.421 149.099 156.116L147.525 154.92C147.342 154.785 147.091 154.785 146.89 154.92L145.175 156.116C144.736 156.421 144.193 156.012 144.382 155.512L145.126 153.577C145.212 153.357 145.145 153.113 144.968 152.973L143.393 151.777C142.99 151.472 143.247 150.806 143.765 150.806H145.798C146.029 150.806 146.243 150.654 146.329 150.434L147.073 148.5C147.262 148.005 147.964 148.005 148.098 148.5H148.104Z" fill="#F38294"/>
<path d="M149.533 170.366L149.216 175.797C149.191 176.261 148.789 176.646 148.319 176.646H143.565C143.101 176.646 142.741 176.267 142.771 175.797L143.168 169.036C143.192 168.566 143.595 168.188 144.065 168.188H147.483L149.533 170.366Z" fill="#F38294"/>
<path d="M147.476 168.187L149.527 170.365H148.19C147.72 170.365 147.366 169.987 147.397 169.517L147.476 168.181M146.933 166.686L146.848 168.144L146.768 169.481C146.744 169.883 146.884 170.262 147.153 170.549C147.421 170.835 147.794 170.994 148.196 170.994H150.991L149.991 169.932L147.94 167.754L146.939 166.686H146.933Z" fill="white"/>
<path opacity="0.2" d="M197.418 131.137H158.496C157.818 131.137 157.3 130.588 157.342 129.91C157.379 129.233 157.965 128.684 158.642 128.684H197.565C198.242 128.684 198.761 129.233 198.718 129.91C198.682 130.588 198.096 131.137 197.418 131.137Z" fill="#F38294"/>
<path opacity="0.2" d="M190.044 135.184H158.261C157.584 135.184 157.065 134.634 157.108 133.957C157.145 133.28 157.73 132.73 158.408 132.73H190.19C190.868 132.73 191.386 133.28 191.344 133.957C191.307 134.634 190.721 135.184 190.044 135.184Z" fill="#F38294"/>
<path opacity="0.2" d="M196.14 152.973H185.399C184.722 152.973 184.142 153.522 184.099 154.199C184.063 154.877 184.582 155.426 185.253 155.426H195.993C196.671 155.426 197.251 154.877 197.293 154.199C197.33 153.522 196.811 152.973 196.14 152.973Z" fill="#F38294"/>
<path opacity="0.2" d="M179.116 152.973H157.208C156.531 152.973 155.951 153.522 155.908 154.199C155.871 154.877 156.39 155.426 157.061 155.426H178.97C179.647 155.426 180.227 154.877 180.27 154.199C180.306 153.522 179.788 152.973 179.116 152.973Z" fill="#F38294"/>
<path opacity="0.2" d="M189.237 148.922H157.454C156.777 148.922 156.197 149.471 156.154 150.148C156.118 150.826 156.636 151.375 157.308 151.375H189.09C189.767 151.375 190.347 150.826 190.39 150.148C190.427 149.471 189.908 148.922 189.237 148.922Z" fill="#F38294"/>
<path opacity="0.2" d="M194.951 173.209H156.028C155.351 173.209 154.771 173.758 154.728 174.436C154.692 175.113 155.21 175.662 155.882 175.662H194.804C195.482 175.662 196.061 175.113 196.104 174.436C196.141 173.758 195.622 173.209 194.951 173.209Z" fill="#F38294"/>
<path opacity="0.2" d="M188.045 169.164H156.263C155.585 169.164 155.005 169.713 154.963 170.391C154.926 171.068 155.445 171.617 156.116 171.617H187.899C188.576 171.617 189.156 171.068 189.199 170.391C189.235 169.713 188.716 169.164 188.045 169.164Z" fill="#F38294"/>
</g>
<defs>
<clipPath id="clip0_2971_22116">
<rect width="305.131" height="227.39" fill="white"/>
</clipPath>
</defs>
</svg>
