<svg width="16" height="18" viewBox="0 0 16 18" fill="none" xmlns="http://www.w3.org/2000/svg">
<path d="M15.6185 8.60691H12.7809V8.23033C12.7809 6.94335 11.7647 5.89636 10.5156 5.89636C9.26655 5.89636 8.25037 6.94335 8.25037 8.23033V8.60691H0.38152C0.170921 8.60691 0 8.78301 0 9C0 9.21699 0.170921 9.39309 0.38152 9.39309H8.25037V9.76967C8.25037 11.0566 9.26655 12.1036 10.5156 12.1036C11.7647 12.1036 12.7809 11.0566 12.7809 9.76967V9.39309H15.6185C15.8291 9.39309 16 9.21699 16 9C16 8.78301 15.8291 8.60691 15.6185 8.60691ZM12.0179 9.76967C12.0179 10.6231 11.3441 11.3175 10.5156 11.3175C9.68718 11.3175 9.01341 10.6231 9.01341 9.76967V8.23033C9.01341 7.37693 9.68718 6.68254 10.5156 6.68254C11.3441 6.68254 12.0179 7.37693 12.0179 8.23033V9.76967ZM0.38152 3.49674H3.21908V3.87332C3.21908 5.16029 4.23525 6.20729 5.48435 6.20729C6.73345 6.20729 7.74963 5.16029 7.74963 3.87332V3.49674H15.6185C15.8291 3.49674 16 3.32063 16 3.10364C16 2.88666 15.8291 2.71055 15.6185 2.71055H7.74963V2.33397C7.74963 1.047 6.73345 0 5.48435 0C4.23525 0 3.21908 1.047 3.21908 2.33397V2.71055H0.38152C0.170921 2.71055 0 2.88666 0 3.10364C0 3.32063 0.17073 3.49674 0.38152 3.49674ZM3.98212 2.33397C3.98212 1.48057 4.65588 0.786181 5.48435 0.786181C6.31282 0.786181 6.98659 1.48057 6.98659 2.33397V3.87332C6.98659 4.72672 6.31282 5.42111 5.48435 5.42111C4.65588 5.42111 3.98212 4.72672 3.98212 3.87332V2.33397ZM15.6185 14.5033H7.74963V14.1267C7.74963 12.8397 6.73345 11.7927 5.48435 11.7927C4.23525 11.7927 3.21908 12.8397 3.21908 14.1267V14.5033H0.38152C0.170921 14.5033 0 14.6794 0 14.8964C0 15.1133 0.170921 15.2894 0.38152 15.2894H3.21908V15.666C3.21908 16.953 4.23525 18 5.48435 18C6.73345 18 7.74963 16.953 7.74963 15.666V15.2894H15.6185C15.8291 15.2894 16 15.1133 16 14.8964C16 14.6794 15.8291 14.5033 15.6185 14.5033ZM6.98659 15.666C6.98659 16.5194 6.31282 17.2138 5.48435 17.2138C4.65588 17.2138 3.98212 16.5194 3.98212 15.666V14.1267C3.98212 13.2733 4.65588 12.5789 5.48435 12.5789C6.31282 12.5789 6.98659 13.2733 6.98659 14.1267V15.666Z" fill="#3D969B"/>
</svg>
