<svg width="16" height="16" viewBox="0 0 16 16" fill="none" xmlns="http://www.w3.org/2000/svg">
<path d="M14.7465 13.93C13.0752 15.6233 10.3572 15.6233 8.68594 13.93L0.893732 6.03539C-0.2979 4.82807 -0.297921 2.85678 0.893732 1.64946C2.08538 0.442134 4.0311 0.442134 5.22275 1.64946L13.0149 9.54412C13.7269 10.2655 13.7269 11.4543 13.015 12.1757C12.3029 12.897 11.1295 12.897 10.4175 12.1757L2.91393 4.57341C2.8557 4.51613 2.80928 4.44768 2.77739 4.37205C2.7455 4.29643 2.72876 4.21515 2.72816 4.13292C2.72756 4.05069 2.74311 3.96914 2.77389 3.89305C2.80467 3.81696 2.85008 3.74784 2.90748 3.68969C2.96487 3.63154 3.0331 3.58553 3.10821 3.55434C3.18331 3.52315 3.26379 3.5074 3.34495 3.50801C3.42612 3.50862 3.50635 3.52557 3.58099 3.55788C3.65563 3.59019 3.72319 3.63722 3.77973 3.69623L11.2833 11.2985C11.5306 11.5491 11.9018 11.5491 12.1491 11.2985C12.3965 11.0479 12.3965 10.6719 12.1491 10.4213L4.35694 2.52666C3.62996 1.79012 2.48653 1.79012 1.75952 2.52666C1.03256 3.26318 1.03256 4.42166 1.75954 5.15819L9.55173 13.0529C10.7584 14.2754 12.6741 14.2754 13.8808 13.0529C15.0874 11.8304 15.0874 9.88942 13.8807 8.66694L6.37714 1.06468C6.31906 1.00736 6.2728 0.938918 6.24103 0.863337C6.20927 0.787756 6.19264 0.706536 6.19211 0.62439C6.19158 0.542245 6.20715 0.46081 6.23794 0.384813C6.26872 0.308817 6.31409 0.23978 6.37143 0.181693C6.42876 0.123607 6.49691 0.0776269 6.57192 0.0464397C6.64693 0.0152525 6.7273 -0.000525365 6.80838 1.33436e-05C6.88946 0.000552052 6.96963 0.0174006 7.04423 0.0495819C7.11883 0.0817632 7.18638 0.128642 7.24295 0.187485L14.7465 7.78977C16.4178 9.48303 16.4178 12.2368 14.7465 13.93Z" fill="#F38294"/>
</svg>
