<svg width="30" height="30" viewBox="0 0 30 30" fill="none" xmlns="http://www.w3.org/2000/svg">
<circle cx="15" cy="15" r="15" fill="#FFE9EC"/>
<path d="M15.9053 21.5786H13.3684C12.6605 21.5786 12.4342 20.6914 12.2158 19.8344C12.0816 19.3032 11.9421 18.7529 11.7132 18.4161C11.4632 18.0464 11.1868 17.7042 10.8921 17.3427C9.95526 16.19 8.98684 14.9962 8.98684 12.9098C8.98684 9.68429 11.5079 7.05845 14.6105 7.05845H14.6632C17.7632 7.05845 20.2868 9.68155 20.2868 12.9098C20.2868 14.9962 19.3184 16.1873 18.3816 17.3427C18.0868 17.7042 17.8105 18.0464 17.5605 18.4161C17.3316 18.7529 17.1921 19.3032 17.0579 19.8344C16.8395 20.6914 16.6132 21.5813 15.9053 21.5813V21.5786ZM14.6105 7.74298C11.8737 7.74298 9.64474 10.0594 9.64474 12.9098C9.64474 14.7443 10.4947 15.793 11.3947 16.8992C11.6842 17.2579 11.9842 17.6248 12.25 18.0218C12.5447 18.4599 12.7 19.0705 12.85 19.6592C12.9763 20.152 13.1658 20.894 13.3658 20.894H15.9026C16.1053 20.894 16.2947 20.1493 16.4184 19.6592C16.5684 19.0705 16.7237 18.4599 17.0184 18.0245C17.2842 17.6302 17.5842 17.2606 17.8737 16.9019C18.7737 15.793 19.6237 14.747 19.6237 12.9125C19.6237 10.0649 17.3974 7.74571 14.6579 7.74571H14.6053L14.6105 7.74298ZM14.9579 5.84V4.34226C14.9579 4.15333 14.8105 4 14.6289 4C14.4474 4 14.3 4.15333 14.3 4.34226V5.84C14.3 6.02893 14.4474 6.18226 14.6289 6.18226C14.8105 6.18226 14.9579 6.02893 14.9579 5.84ZM10.0105 8.17286C10.1395 8.03869 10.1395 7.82238 10.0105 7.68821L8.99211 6.62857C8.86316 6.4944 8.65526 6.4944 8.52632 6.62857C8.39737 6.76274 8.39737 6.97905 8.52632 7.11321L9.54474 8.17286C9.6079 8.23857 9.69211 8.27417 9.77632 8.27417C9.86053 8.27417 9.94474 8.24131 10.0079 8.17286H10.0105ZM8.09737 12.9782C8.09737 12.7893 7.95 12.636 7.76842 12.636H6.32895C6.14737 12.636 6 12.7893 6 12.9782C6 13.1671 6.14737 13.3205 6.32895 13.3205H7.76842C7.95 13.3205 8.09737 13.1671 8.09737 12.9782ZM8.99211 19.3279L10.0105 18.2682C10.1395 18.134 10.1395 17.9177 10.0105 17.7836C9.88158 17.6494 9.67368 17.6494 9.54474 17.7836L8.52632 18.8432C8.39737 18.9774 8.39737 19.1937 8.52632 19.3279C8.58947 19.3936 8.67368 19.4292 8.7579 19.4292C8.84211 19.4292 8.92632 19.3963 8.98947 19.3279H8.99211ZM20.7316 19.3279C20.8605 19.1937 20.8605 18.9774 20.7316 18.8432L19.7132 17.7836C19.5842 17.6494 19.3763 17.6494 19.2474 17.7836C19.1184 17.9177 19.1184 18.134 19.2474 18.2682L20.2658 19.3279C20.3289 19.3936 20.4132 19.4292 20.4974 19.4292C20.5816 19.4292 20.6658 19.3963 20.7289 19.3279H20.7316ZM23.2579 12.9782C23.2579 12.7893 23.1105 12.636 22.9289 12.636H21.4895C21.3079 12.636 21.1605 12.7893 21.1605 12.9782C21.1605 13.1671 21.3079 13.3205 21.4895 13.3205H22.9289C23.1105 13.3205 23.2579 13.1671 23.2579 12.9782ZM19.7132 8.17286L20.7316 7.11321C20.8605 6.97905 20.8605 6.76274 20.7316 6.62857C20.6026 6.4944 20.3947 6.4944 20.2658 6.62857L19.2474 7.68821C19.1184 7.82238 19.1184 8.03869 19.2474 8.17286C19.3105 8.23857 19.3947 8.27417 19.4789 8.27417C19.5632 8.27417 19.6474 8.24131 19.7105 8.17286H19.7132ZM15.8184 23.9333C15.8184 23.791 15.7079 23.676 15.5711 23.676H13.65C13.5132 23.676 13.4026 23.791 13.4026 23.9333C13.4026 24.0757 13.5132 24.1907 13.65 24.1907H15.5711C15.7079 24.1907 15.8184 24.0757 15.8184 23.9333ZM16.2947 22.7861C16.2947 22.5971 16.1474 22.4438 15.9658 22.4438H13.2553C13.0737 22.4438 12.9263 22.5971 12.9263 22.7861C12.9263 22.975 13.0737 23.1283 13.2553 23.1283H15.9658C16.1474 23.1283 16.2947 22.975 16.2947 22.7861ZM15.3842 25.0806C15.3842 24.9382 15.2737 24.8232 15.1368 24.8232H14.0816C13.9447 24.8232 13.8342 24.9382 13.8342 25.0806C13.8342 25.223 13.9447 25.338 14.0816 25.338H15.1368C15.2737 25.338 15.3842 25.223 15.3842 25.0806Z" fill="#83B2FA" stroke="#E488A4" stroke-width="0.3"/>
</svg>
