<svg width="29" height="46" viewBox="0 0 29 46" fill="none" xmlns="http://www.w3.org/2000/svg">
<path d="M-15.628 26.9303C-15.7239 27.907 -15.8597 28.8813 -15.9925 29.8505C-16.3844 32.7104 -16.9042 35.8235 -16.1318 38.6806C-15.3598 41.5444 -13.8095 44.1668 -11.5693 46.174C-8.95539 48.5193 -5.48985 49.8057 -2.07981 50.3553C0.395317 50.7537 2.98276 50.5426 5.28673 49.6083C7.92729 48.537 9.63021 46.9175 10.7943 44.3184C11.6075 42.5049 12.1541 40.5626 13.1349 38.8349C14.9197 35.6874 17.9742 33.4986 20.7772 31.1966C22.4628 29.8113 24.1026 28.3138 25.3543 26.5214C25.9844 25.6208 26.4751 24.6575 26.8549 23.6236C27.1399 22.8448 27.5846 22.1955 27.8127 21.3841C28.7783 17.9318 28.7108 14.1516 27.4993 10.7228C26.9816 9.25662 26.2528 7.85854 25.3222 6.60255C21.895 1.97504 15.5545 -0.547818 10.06 1.00132C8.14892 1.53852 6.37814 2.52073 4.41996 2.87617C1.49342 3.40862 -1.52973 2.49637 -4.51255 2.56325C-8.37467 2.65187 -12.124 4.48679 -14.5051 7.45044C-16.6733 10.151 -17.9344 14.1664 -17.1751 17.6521C-16.758 19.5695 -15.6565 21.1092 -15.5234 23.1079C-15.4372 24.385 -15.5006 25.6588 -15.6265 26.9277L-15.628 26.9303Z" fill="#FFF9FA"/>
</svg>
