<svg width="21" height="21" viewBox="0 0 21 21" fill="none" xmlns="http://www.w3.org/2000/svg">
<path d="M17.3748 5.875H15.2091L14.1443 4.27813C14.0872 4.19262 14.01 4.1225 13.9194 4.07399C13.8287 4.02548 13.7275 4.00006 13.6248 4H8.62476C8.52197 4.00006 8.42078 4.02548 8.33015 4.07399C8.23953 4.1225 8.16227 4.19262 8.10522 4.27813L7.0396 5.875H4.87476C4.37747 5.875 3.90056 6.07254 3.54893 6.42417C3.1973 6.77581 2.99976 7.25272 2.99976 7.75V16.5C2.99976 16.9973 3.1973 17.4742 3.54893 17.8258C3.90056 18.1775 4.37747 18.375 4.87476 18.375H17.3748C17.872 18.375 18.349 18.1775 18.7006 17.8258C19.0522 17.4742 19.2498 16.9973 19.2498 16.5V7.75C19.2498 7.25272 19.0522 6.77581 18.7006 6.42417C18.349 6.07254 17.872 5.875 17.3748 5.875ZM17.9998 16.5C17.9998 16.6658 17.9339 16.8247 17.8167 16.9419C17.6995 17.0592 17.5405 17.125 17.3748 17.125H4.87476C4.709 17.125 4.55002 17.0592 4.43281 16.9419C4.3156 16.8247 4.24976 16.6658 4.24976 16.5V7.75C4.24976 7.58424 4.3156 7.42527 4.43281 7.30806C4.55002 7.19085 4.709 7.125 4.87476 7.125H7.37476C7.47768 7.12507 7.57903 7.09971 7.66979 7.0512C7.76056 7.00268 7.83795 6.93249 7.89507 6.84688L8.95913 5.25H13.2896L14.3544 6.84688C14.4116 6.93249 14.4889 7.00268 14.5797 7.0512C14.6705 7.09971 14.7718 7.12507 14.8748 7.125H17.3748C17.5405 7.125 17.6995 7.19085 17.8167 7.30806C17.9339 7.42527 17.9998 7.58424 17.9998 7.75V16.5ZM11.1248 8.375C10.4449 8.375 9.78028 8.57661 9.21498 8.95432C8.64969 9.33204 8.2091 9.8689 7.94892 10.497C7.68874 11.1251 7.62067 11.8163 7.75331 12.4831C7.88594 13.1499 8.21333 13.7624 8.69408 14.2432C9.17482 14.7239 9.78732 15.0513 10.4541 15.1839C11.1209 15.3166 11.8121 15.2485 12.4402 14.9883C13.0684 14.7282 13.6052 14.2876 13.9829 13.7223C14.3606 13.157 14.5623 12.4924 14.5623 11.8125C14.5612 10.9011 14.1987 10.0274 13.5543 9.38296C12.9099 8.73853 12.0361 8.37603 11.1248 8.375ZM11.1248 14C10.6921 14 10.2692 13.8717 9.90945 13.6313C9.54971 13.391 9.26934 13.0493 9.10377 12.6496C8.9382 12.2499 8.89488 11.8101 8.97929 11.3857C9.06369 10.9614 9.27203 10.5716 9.57796 10.2657C9.88389 9.95978 10.2737 9.75144 10.698 9.66703C11.1223 9.58263 11.5622 9.62595 11.9619 9.79151C12.3616 9.95708 12.7032 10.2375 12.9436 10.5972C13.184 10.9569 13.3123 11.3799 13.3123 11.8125C13.3123 12.3927 13.0818 12.9491 12.6716 13.3593C12.2613 13.7695 11.7049 14 11.1248 14Z" fill="#F66B5A"/>
</svg>
