<svg width="47" height="47" viewBox="0 0 47 47" fill="none" xmlns="http://www.w3.org/2000/svg">
<path d="M32.007 16.3763H29.0594L27.6101 14.2028C27.5324 14.0864 27.4273 13.991 27.3039 13.9249C27.1806 13.8589 27.0429 13.8243 26.9029 13.8242H20.0975C19.9576 13.8243 19.8199 13.8589 19.6965 13.9249C19.5732 13.991 19.468 14.0864 19.3904 14.2028L17.94 16.3763H14.9934C14.3166 16.3763 13.6675 16.6451 13.1889 17.1237C12.7103 17.6023 12.4414 18.2514 12.4414 18.9283V30.8378C12.4414 31.5146 12.7103 32.1638 13.1889 32.6424C13.6675 33.121 14.3166 33.3898 14.9934 33.3898H32.007C32.6839 33.3898 33.333 33.121 33.8116 32.6424C34.2902 32.1638 34.5591 31.5146 34.5591 30.8378V18.9283C34.5591 18.2514 34.2902 17.6023 33.8116 17.1237C33.333 16.6451 32.6839 16.3763 32.007 16.3763ZM27.3283 24.4577C27.3283 25.2148 27.1038 25.9549 26.6831 26.5845C26.2625 27.214 25.6646 27.7046 24.9652 27.9944C24.2657 28.2841 23.496 28.3599 22.7534 28.2122C22.0108 28.0645 21.3287 27.6999 20.7934 27.1645C20.258 26.6292 19.8934 25.9471 19.7457 25.2045C19.598 24.462 19.6738 23.6923 19.9636 22.9928C20.2533 22.2933 20.744 21.6954 21.3735 21.2748C22.003 20.8542 22.7431 20.6296 23.5002 20.6296C24.5155 20.6296 25.4892 21.033 26.2071 21.7509C26.925 22.4688 27.3283 23.4424 27.3283 24.4577Z" fill="#F38294"/>
<circle cx="23.5" cy="23.5" r="23" stroke="#FFE9EC"/>
</svg>
