<svg width="25" height="26" viewBox="0 0 25 26" fill="none" xmlns="http://www.w3.org/2000/svg">
<path d="M5.14359 0.950195H19.8559C23.5855 0.950195 25.3836 4.01465 24.9316 7.47395L23.1557 20.9987C22.7898 23.7946 20.4609 25.744 17.6666 25.744H7.33291C4.53868 25.744 2.20976 23.7946 1.84382 20.9987L0.0679716 7.47395C-0.378734 4.05719 1.38349 0.950195 5.14359 0.950195ZM4.52804 3.85112C5.30812 3.85112 5.94095 4.48362 5.94095 5.26369C5.94095 6.04376 5.30812 6.67626 4.52804 6.67626C3.74797 6.67626 3.11547 6.04376 3.11547 5.26369C3.11547 4.48362 3.74797 3.85112 4.52804 3.85112ZM20.4708 3.85112C21.2512 3.85112 21.8837 4.48362 21.8837 5.26369C21.8837 6.04376 21.2512 6.67626 20.4708 6.67626C19.6908 6.67626 19.0583 6.04376 19.0583 5.26369C19.0583 4.48362 19.6908 3.85112 20.4708 3.85112ZM18.6348 19.8345C19.4149 19.8345 20.0474 20.467 20.0474 21.247C20.0474 22.0271 19.4149 22.6596 18.6348 22.6596C17.8547 22.6596 17.2222 22.0271 17.2222 21.247C17.2222 20.467 17.8547 19.8345 18.6348 19.8345ZM6.36472 19.8345C7.14479 19.8345 7.77729 20.467 7.77729 21.247C7.77729 22.0271 7.14479 22.6596 6.36472 22.6596C5.58465 22.6596 4.95215 22.0271 4.95215 21.247C4.95215 20.467 5.58465 19.8345 6.36472 19.8345ZM12.4996 9.03742C13.6925 9.03742 14.6593 10.0043 14.6593 11.1968C14.6593 12.3897 13.6925 13.3562 12.4996 13.3562C11.3071 13.3562 10.3402 12.3897 10.3402 11.1968C10.3402 10.0043 11.3071 9.03742 12.4996 9.03742ZM12.4996 4.77046C16.0882 4.77046 18.9974 7.67969 18.9974 11.2683H15.355C15.355 9.69119 14.0767 8.4129 12.4996 8.4129C11.9888 8.4129 11.5085 8.54718 11.0937 8.78216L8.80997 7.35496L10.1993 9.57719C9.85095 10.0505 9.64455 10.6355 9.64455 11.2683H6.00211C6.00211 7.67969 8.91101 4.77046 12.4996 4.77046ZM19.8559 2.78056H5.14359C2.50192 2.78056 1.57627 4.93564 1.87706 7.2383L3.65291 20.7631C3.89953 22.6516 5.45735 23.9136 7.33291 23.9136H17.6666C19.5422 23.9136 21.1 22.6516 21.3466 20.7631L23.1225 7.2383C23.4276 4.90074 22.4697 2.78056 19.8559 2.78056Z" fill="#B3899D"/>
</svg>
