<svg width="19" height="18" viewBox="0 0 19 18" fill="none" xmlns="http://www.w3.org/2000/svg">
<path d="M13.2332 5.37C13.1939 5.3625 13.1481 5.3625 13.1088 5.37C12.2049 5.3325 11.4844 4.485 11.4844 3.435C11.4844 2.3625 12.2376 1.5 13.1743 1.5C14.1109 1.5 14.8642 2.37 14.8642 3.435C14.8576 4.485 14.1371 5.3325 13.2332 5.37Z" stroke="#F38294" stroke-width="0.72" stroke-linecap="round" stroke-linejoin="round"/>
<path d="M12.5587 10.8301C13.4561 11.0026 14.4451 10.8226 15.1394 10.2901C16.063 9.58512 16.063 8.43012 15.1394 7.72512C14.4386 7.19262 13.4364 7.01262 12.5391 7.19262" fill="#F38294"/>
<path d="M12.5587 10.8301C13.4561 11.0026 14.4451 10.8226 15.1394 10.2901C16.063 9.58512 16.063 8.43012 15.1394 7.72512C14.4386 7.19262 13.4364 7.01262 12.5391 7.19262" stroke="#F38294" stroke-width="0.72" stroke-linecap="round" stroke-linejoin="round"/>
<path d="M5.3497 5.37C5.389 5.3625 5.43485 5.3625 5.47415 5.37C6.37805 5.3325 7.09855 4.485 7.09855 3.435C7.09855 2.3625 6.3453 1.5 5.40865 1.5C4.472 1.5 3.71875 2.37 3.71875 3.435C3.7253 4.485 4.4458 5.3325 5.3497 5.37Z" stroke="#F38294" stroke-width="0.72" stroke-linecap="round" stroke-linejoin="round"/>
<path d="M6.02336 10.8301C5.12601 11.0026 4.13696 10.8226 3.44266 10.2901C2.51911 9.58512 2.51911 8.43012 3.44266 7.72512C4.14351 7.19262 5.14566 7.01262 6.04301 7.19262" fill="#F38294"/>
<path d="M6.02336 10.8301C5.12601 11.0026 4.13696 10.8226 3.44266 10.2901C2.51911 9.58512 2.51911 8.43012 3.44266 7.72512C4.14351 7.19262 5.14566 7.01262 6.04301 7.19262" stroke="#F38294" stroke-width="0.72" stroke-linecap="round" stroke-linejoin="round"/>
<path d="M9.29572 10.9716C9.25642 10.9641 9.21057 10.9641 9.17127 10.9716C8.26737 10.9341 7.54688 10.0866 7.54688 9.03656C7.54688 7.96406 8.30012 7.10156 9.23677 7.10156C10.1734 7.10156 10.9267 7.97156 10.9267 9.03656C10.9201 10.0866 10.1996 10.9416 9.29572 10.9716Z" stroke="#F38294" stroke-width="0.72" stroke-linecap="round" stroke-linejoin="round"/>
<path d="M7.39579 13.3306C6.47224 14.0356 6.47224 15.1906 7.39579 15.8956C8.44379 16.6981 10.1599 16.6981 11.2079 15.8956C12.1314 15.1906 12.1314 14.0356 11.2079 13.3306C10.1664 12.5356 8.44379 12.5356 7.39579 13.3306Z" fill="#F38294" stroke="#F38294" stroke-width="0.72" stroke-linecap="round" stroke-linejoin="round"/>
</svg>
