<svg width="14" height="15" viewBox="0 0 14 15" fill="none" xmlns="http://www.w3.org/2000/svg">
<path d="M5.20526 7.50024L6.40526 8.70019L9.10527 6.00024M10.5463 3.30028C10.6699 3.59882 10.9069 3.83607 11.2053 3.9602L12.2523 4.3922C12.4009 4.45362 12.5359 4.54383 12.6496 4.65758C12.7633 4.77134 12.8534 4.90637 12.9147 5.05505C12.9761 5.20372 13.0074 5.36309 13.007 5.52392C13.0066 5.68474 12.9744 5.84383 12.9123 5.99218L12.4793 7.03625C12.4178 7.18461 12.3861 7.34366 12.3861 7.50426C12.3861 7.66487 12.4178 7.82392 12.4793 7.97228L12.9123 9.01623C13.0364 9.31588 13.0364 9.65261 12.9123 9.95226C12.8502 10.1012 12.7602 10.237 12.6473 10.3523C12.5333 10.4665 12.3972 10.5563 12.2473 10.6162L11.2013 11.0482C10.9026 11.1722 10.6653 11.4096 10.5413 11.7082L10.1073 12.7583C9.9834 13.0572 9.74587 13.2946 9.44695 13.4183C9.14802 13.5421 8.81216 13.542 8.51326 13.4182L7.46727 12.9802C7.16783 12.8603 6.83372 12.8603 6.53427 12.9802L5.48726 13.4182C5.3394 13.4795 5.18091 13.5111 5.02086 13.5111C4.86081 13.5111 4.70233 13.4795 4.55448 13.4182C4.40662 13.3569 4.27231 13.267 4.1592 13.1538C4.04608 13.0406 3.9564 12.9062 3.89527 12.7583L3.46126 11.7082C3.33758 11.4097 3.10061 11.1723 2.80226 11.0482L1.75527 10.6162C1.60663 10.5548 1.47158 10.4647 1.35787 10.3509C1.24415 10.2372 1.15399 10.1021 1.09258 9.95348C1.03117 9.80484 0.999713 9.64556 1 9.48473C1.00029 9.3239 1.03233 9.16465 1.09427 9.01623L1.52727 7.97228C1.65117 7.67258 1.65117 7.33595 1.52727 7.03625L1.09427 5.99218C0.970156 5.69252 0.970156 5.35592 1.09427 5.05627C1.15477 4.90645 1.24491 4.77038 1.35927 4.65624C1.47325 4.54194 1.60935 4.45207 1.75926 4.3922L2.80527 3.9602C3.10381 3.83601 3.34108 3.59882 3.46527 3.30028L3.89926 2.25024C4.02509 1.95279 4.26182 1.71602 4.55927 1.5902C4.85899 1.46993 5.19355 1.46993 5.49327 1.5902L6.53926 2.02819C6.83871 2.14809 7.17282 2.14809 7.47226 2.02819L8.52027 1.59618C8.6682 1.53488 8.82675 1.50341 8.98688 1.50341C9.14701 1.50341 9.30556 1.53489 9.45349 1.59618C9.60143 1.65747 9.73584 1.74734 9.84905 1.86059C9.96225 1.97384 10.052 2.10826 10.1133 2.25622L10.5473 3.30028H10.5463Z" stroke="#00AC40" stroke-width="1.3" stroke-linecap="round" stroke-linejoin="round"/>
</svg>
