<svg width="19" height="20" viewBox="0 0 19 20" fill="none" xmlns="http://www.w3.org/2000/svg">
<path d="M5.67188 12.7988V14.4677C5.67188 14.8822 7.14201 15.4844 9.44562 15.4844C11.7492 15.4844 13.2194 14.8822 13.2194 14.4677V12.7988C12.4464 13.3024 10.9409 13.5631 9.44562 13.5631C7.95036 13.5631 6.44482 13.3024 5.67188 12.7988Z" fill="#4B82D1"/>
<path d="M13.2194 10.1562C12.4464 10.6598 10.9409 10.9205 9.44562 10.9205C7.95036 10.9205 6.44482 10.6598 5.67188 10.1562V12.014C5.67188 12.4285 7.14201 13.0307 9.44562 13.0307C11.7492 13.0307 13.2194 12.4285 13.2194 12.014V10.1562Z" fill="#4B82D1"/>
<path d="M13.2194 7.70264C12.4464 8.20619 10.9409 8.4669 9.44562 8.4669C7.95036 8.4669 6.44482 8.20619 5.67188 7.70264V9.37148C5.67188 9.786 7.14201 10.3882 9.44562 10.3882C11.7492 10.3882 13.2194 9.786 13.2194 9.37148V7.70264Z" fill="#4B82D1"/>
<path d="M5.67188 6.91763C5.67188 7.33215 7.14201 7.93438 9.44562 7.93438C11.7492 7.93438 13.2194 7.33215 13.2194 6.91763C13.2194 6.5031 11.7492 5.90088 9.44562 5.90088C7.14201 5.90088 5.67188 6.5031 5.67188 6.91763Z" fill="#4B82D1"/>
<path d="M14.2874 2.74239C14.0176 2.57756 13.7353 2.4247 13.449 2.28809L13.2197 2.76851C13.4896 2.89733 13.7555 3.04148 14.0103 3.19682L14.2874 2.74239Z" fill="#4B82D1"/>
<path d="M15.1071 3.3045L14.7831 3.72695C16.9677 5.40338 18.2207 7.94239 18.2207 10.6926C18.2207 15.5311 14.2842 19.4676 9.44591 19.4676C4.60758 19.4676 0.671094 15.5311 0.671094 10.6926C0.671094 5.94345 4.46434 2.06601 9.1797 1.92444V3.30294L12.2887 1.65147L9.1797 0V1.39202C4.17055 1.5338 0.138672 5.6498 0.138672 10.6926C0.138672 15.8247 4.31381 20 9.44591 20C14.578 20 18.7532 15.8247 18.7532 10.6926C18.7532 7.77549 17.4242 5.08257 15.1071 3.3045Z" fill="#4B82D1"/>
</svg>
