<svg width="15" height="16" viewBox="0 0 15 16" fill="none" xmlns="http://www.w3.org/2000/svg">
<path d="M7.51707 2.30044e-06C6.71727 -0.000274824 5.93826 0.254659 5.29336 0.727712C4.64846 1.20077 4.17133 1.86726 3.9314 2.63021L8.6443 7.34312C9.50168 7.07457 10.2345 6.50771 10.7098 5.74529C11.1851 4.98287 11.3715 4.07537 11.2352 3.18732C11.0988 2.29927 10.6488 1.48947 9.9667 0.904724C9.28458 0.31998 8.41552 -0.000991408 7.51707 2.30044e-06Z" fill="#DA776B"/>
<path d="M12.8849 11.5569C12.7923 10.6589 12.3932 9.8202 11.7548 9.18184C11.1165 8.54349 10.2778 8.14442 9.37976 8.05176L12.8849 11.5569Z" fill="#DA776B"/>
<path d="M0.920086 0.69253C0.870037 0.642481 0.810621 0.602781 0.74523 0.575695C0.679839 0.548609 0.609753 0.534668 0.538974 0.534668C0.468195 0.534668 0.398109 0.548609 0.332717 0.575695C0.267326 0.602781 0.20791 0.642481 0.157862 0.69253C0.0567845 0.793607 0 0.930697 0 1.07364C0 1.21659 0.0567845 1.35368 0.157862 1.45475L4.18369 5.48058C4.54096 6.17102 5.10359 6.73365 5.79402 7.09092L6.76022 8.05711H6.08388C5.04173 8.05853 4.04259 8.47278 3.30518 9.20919C2.56776 9.9456 2.15214 10.9442 2.14931 11.9863V14.4931C2.14931 14.6354 2.20586 14.772 2.30652 14.8726C2.40719 14.9733 2.54372 15.0299 2.68608 15.0299H12.3481C12.4904 15.0299 12.627 14.9733 12.7276 14.8726C12.8283 14.772 12.8849 14.6354 12.8849 14.4931V14.1764L14.1141 15.4056C14.2168 15.4935 14.3488 15.5395 14.4839 15.5343C14.619 15.529 14.7472 15.473 14.8428 15.3774C14.9384 15.2819 14.9944 15.1537 14.9996 15.0186C15.0048 14.8835 14.9589 14.7514 14.8709 14.6487L0.920086 0.69253Z" fill="#DA776B"/>
</svg>
