<svg width="15" height="12" viewBox="0 0 15 12" fill="none" xmlns="http://www.w3.org/2000/svg">
<path opacity="0.5" d="M8.8 0H5.867C3.1 0 1.718 -5.96046e-08 0.859 0.879C-5.96046e-08 1.758 0 3.172 0 6C0 8.828 -5.96046e-08 10.243 0.859 11.121C1.718 11.999 3.1 12 5.867 12H8.8C11.566 12 12.948 12 13.808 11.121C14.668 10.242 14.667 8.828 14.667 6C14.667 3.172 14.667 1.757 13.808 0.879C12.949 0.000999928 11.566 0 8.8 0Z" fill="#171819"/>
<path d="M11.8833 3.33158C11.9922 3.22138 12.0586 3.07624 12.0709 2.92181C12.0831 2.76738 12.0404 2.61358 11.9503 2.48758C11.9108 2.42843 11.8587 2.37873 11.7978 2.34199C11.7369 2.30526 11.6686 2.28241 11.5979 2.27505C11.5271 2.2677 11.4556 2.27603 11.3885 2.29946C11.3213 2.32288 11.2601 2.36082 11.2093 2.41058L9.6943 3.84858C9.2221 4.32033 8.72364 4.76504 8.2013 5.18058C7.9606 5.39383 7.65611 5.52146 7.3353 5.54358C7.01446 5.52154 6.70995 5.3939 6.4693 5.18058C5.94693 4.76506 5.44847 4.32035 4.9763 3.84858L3.4613 2.41158C3.41046 2.36182 3.34929 2.32388 3.28213 2.30046C3.21496 2.27703 3.14346 2.2687 3.07271 2.27605C3.00196 2.2834 2.9337 2.30626 2.87279 2.34299C2.81188 2.37973 2.75981 2.42943 2.7203 2.48858C2.63016 2.61458 2.58746 2.76838 2.59972 2.92281C2.61198 3.07724 2.67841 3.22238 2.7873 3.33258L4.3283 4.79758C4.82471 5.29083 5.34925 5.75494 5.8993 6.18758C6.30389 6.52468 6.80814 6.71935 7.3343 6.74158C7.86046 6.71935 8.3647 6.52468 8.7693 6.18758C9.3197 5.75499 9.84458 5.29088 10.3413 4.79758L11.8833 3.33158Z" fill="#171819"/>
</svg>
