<svg width="20" height="19" viewBox="0 0 20 19" fill="none" xmlns="http://www.w3.org/2000/svg">
<path d="M9.93323 2.68604C6.29723 2.68604 3.38123 5.63804 3.38123 9.23804C3.38123 12.838 6.29723 15.79 9.93323 15.79C13.5692 15.79 16.4852 12.874 16.4852 9.23804C16.4852 5.60204 13.5692 2.68604 9.93323 2.68604ZM10.2932 13.558C10.2932 13.774 10.1492 13.918 9.93323 13.918C9.71723 13.918 9.57323 13.774 9.57323 13.558V13.018C9.57323 12.802 9.71723 12.658 9.93323 12.658C10.1492 12.658 10.2932 12.802 10.2932 13.018V13.558ZM11.4452 9.70604C10.7252 10.174 10.2932 10.894 10.2932 11.65C10.2932 11.866 10.1492 12.01 9.93323 12.01C9.71723 12.01 9.57323 11.866 9.57323 11.65C9.57323 10.642 10.1132 9.67004 11.0492 9.09404C11.6612 8.69804 12.0212 8.05004 12.0212 7.29404C12.0212 6.17804 11.0492 5.24204 9.96923 5.24204H9.93323C9.39323 5.24204 8.85323 5.45804 8.45723 5.85404C8.06123 6.25004 7.84523 6.79004 7.84523 7.33004C7.84523 7.54604 7.70123 7.69004 7.48523 7.69004C7.26923 7.69004 7.12523 7.54604 7.12523 7.33004C7.12523 6.57404 7.41323 5.85404 7.95323 5.35004C8.49323 4.84604 9.21323 4.55804 9.96923 4.55804C11.4812 4.59404 12.7052 5.81804 12.7412 7.33004C12.7412 8.30204 12.2732 9.20204 11.4452 9.70604Z" fill="#8A54BF"/>
<path d="M9.93311 0.237793C4.96511 0.237793 0.933105 4.26979 0.933105 9.23779C0.933105 14.2058 4.96511 18.2378 9.93311 18.2378C14.9011 18.2378 18.9331 14.2058 18.9331 9.23779C18.9331 4.26979 14.9011 0.237793 9.93311 0.237793ZM9.93311 16.5098C5.90111 16.5098 2.66111 13.2698 2.66111 9.23779C2.66111 5.20579 5.90111 1.96579 9.93311 1.96579C13.9651 1.96579 17.2051 5.20579 17.2051 9.23779C17.2051 13.2698 13.9651 16.5098 9.93311 16.5098Z" fill="#8A54BF"/>
</svg>
