<svg width="47" height="47" viewBox="0 0 47 47" fill="none" xmlns="http://www.w3.org/2000/svg">
<path fill-rule="evenodd" clip-rule="evenodd" d="M23.4416 12.4414H23.5589C25.9342 12.4414 27.7952 12.4414 29.2477 12.6369C30.7332 12.8364 31.906 13.2541 32.8267 14.1738C33.7474 15.0945 34.164 16.2672 34.3636 17.7538C34.5591 19.2053 34.5591 21.0663 34.5591 23.4416V23.5321C34.5591 25.496 34.5591 27.1028 34.4521 28.4114C34.3451 29.7281 34.126 30.8258 33.6342 31.7393C33.4182 32.1415 33.1507 32.5026 32.8267 32.8267C31.906 33.7474 30.7332 34.164 29.2467 34.3636C27.7952 34.5591 25.9342 34.5591 23.5589 34.5591H23.4416C21.0663 34.5591 19.2053 34.5591 17.7527 34.3636C16.2672 34.164 15.0945 33.7464 14.1738 32.8267C13.358 32.0109 12.9362 30.9955 12.713 29.7343C12.4918 28.4968 12.4517 26.9568 12.4435 25.0454C12.4414 24.5588 12.4414 24.0444 12.4414 23.5013V23.4416C12.4414 21.0663 12.4414 19.2053 12.6369 17.7527C12.8364 16.2672 13.2541 15.0945 14.1738 14.1738C15.0945 13.2531 16.2672 12.8364 17.7538 12.6369C19.2053 12.4414 21.0663 12.4414 23.4416 12.4414ZM17.9585 14.1656C16.6438 14.3425 15.8506 14.6799 15.2653 15.2653C14.6789 15.8516 14.3425 16.6438 14.1656 17.9595C13.9866 19.2968 13.9845 21.0539 13.9845 23.5002V24.3685L15.0143 23.4673C15.4659 23.0719 16.051 22.863 16.651 22.8829C17.251 22.9027 17.8209 23.1499 18.2455 23.5743L22.6587 27.9875C23.0012 28.3299 23.4535 28.5406 23.9359 28.5823C24.4184 28.6241 24.9002 28.4944 25.2964 28.2159L25.6029 27.9999C26.1746 27.5982 26.8656 27.4024 27.563 27.4444C28.2604 27.4865 28.9229 27.7639 29.4422 28.2313L32.3535 30.8515C32.6477 30.2363 32.8215 29.4278 32.9141 28.2869C33.0149 27.0473 33.016 25.5021 33.016 23.5002C33.016 21.0539 33.0139 19.2968 32.8349 17.9595C32.658 16.6438 32.3205 15.8506 31.7352 15.2642C31.1488 14.6789 30.3567 14.3425 29.041 14.1656C27.7036 13.9866 25.9465 13.9845 23.5002 13.9845C21.0539 13.9845 19.2958 13.9866 17.9585 14.1656Z" fill="#F38294"/>
<circle cx="29.0288" cy="19.3531" r="1.38235" fill="#F38294"/>
<circle cx="23.5" cy="23.5" r="23" stroke="#FFE9EC"/>
</svg>
