<svg width="80" height="73" viewBox="0 0 80 73" fill="none" xmlns="http://www.w3.org/2000/svg">
<path d="M52.238 24.8959C53.88 18.574 50.0862 12.118 43.7642 10.4759C37.4423 8.8339 30.9863 12.6277 29.3442 18.9496C27.7022 25.2716 31.496 31.7276 37.8179 33.3696C44.1399 35.0117 50.5959 31.2179 52.238 24.8959Z" fill="#FFE9E9"/>
<path d="M13.5991 57.2857C13.5991 57.2857 -2.81559 37.6534 0.423188 35.7338C3.66197 33.8142 14.9765 56.627 14.9765 56.627C14.9765 56.627 5.53919 38.8154 8.93338 37.3108C12.3276 35.808 16.1138 56.7577 16.1138 56.7577L12.8962 58.2481C12.8962 58.2481 -0.48805 50.4849 0.894701 48.3834C2.27745 46.2819 13.5991 57.2857 13.5991 57.2857Z" fill="#E8C1C1"/>
<path d="M13.3529 58.0639C8.94685 54.0446 5.14119 51.1449 1.71875 49.1988L1.78409 49.084C5.21536 51.0354 9.02808 53.9404 13.443 57.9668L13.3529 58.0639Z" fill="#DBA9A9"/>
<path d="M14.383 57.5623C9.36063 48.8491 4.93159 41.9547 0.839844 36.4838L0.945802 36.4043C5.03931 41.8788 9.47188 48.7784 14.4978 57.497L14.383 57.5641V57.5623Z" fill="#DBA9A9"/>
<path d="M15.4286 57.0598C13.5779 49.2807 11.5912 43.1969 9.35547 38.4589L9.47555 38.4023C11.7148 43.1493 13.705 49.2418 15.5575 57.0297L15.4286 57.0598Z" fill="#DBA9A9"/>
<path d="M54.9174 34.6218C54.9174 34.6218 61.6722 18.5533 59.1786 17.9511C56.6851 17.3489 53.8896 34.4681 53.8896 34.4681C53.8896 34.4681 56.4661 20.9815 53.9549 20.6813C51.4437 20.3828 53.1761 34.7807 53.1761 34.7807L55.569 35.1074C55.569 35.1074 62.7264 27.3725 61.4055 26.2811C60.0846 25.1898 54.9174 34.6218 54.9174 34.6218Z" fill="#E8C1C1"/>
<path d="M55.2515 35.0892L55.1367 35.0221C57.2047 31.5149 59.1066 28.8588 60.9503 26.9004L61.0474 26.9905C59.2108 28.9418 57.3142 31.5908 55.2515 35.0892Z" fill="#DBA9A9"/>
<path d="M54.4805 34.9665L54.3516 34.9365C55.8774 28.2523 57.3802 22.8714 58.9501 18.4883L59.0755 18.5324C57.5091 22.912 56.0063 28.2876 54.4822 34.9665H54.4805Z" fill="#DBA9A9"/>
<path d="M53.5701 34.8507C53.2169 29.408 53.2911 25.0408 53.7979 21.5L53.9286 21.5194C53.4218 25.0514 53.3476 29.4098 53.7008 34.8419L53.5683 34.8507H53.5701Z" fill="#DBA9A9"/>
<path d="M31.5094 54.1847H31.377C31.377 54.1352 31.4476 49.3265 30.4092 43.2516C29.4521 37.6482 27.3311 29.7879 22.6602 24.1668L22.7626 24.082C27.453 29.7261 29.581 37.6111 30.5399 43.2322C31.5783 49.3194 31.5094 54.137 31.5076 54.1847H31.5094Z" fill="#DBA9A9"/>
<path d="M22.9371 24.2477C21.6285 24.2477 20.9328 23.3806 20.6484 21.9219C21.9906 22.1479 22.7976 22.8826 22.9371 24.2477Z" fill="#E8C1C1"/>
<path d="M23.7426 25.4489C22.8773 26.429 21.7647 26.3761 20.4844 25.622C21.5422 24.7673 22.6265 24.649 23.7426 25.4489Z" fill="#E8C1C1"/>
<path d="M25.3598 27.9235C24.4944 28.9037 23.3819 28.8507 22.1016 28.0966C23.1594 27.2419 24.2437 27.1236 25.3598 27.9235Z" fill="#E8C1C1"/>
<path d="M26.8129 30.8454C25.9476 31.8255 24.835 31.7726 23.5547 31.0185C24.6125 30.1638 25.6968 30.0454 26.8129 30.8454Z" fill="#E8C1C1"/>
<path d="M24.6263 26.7593C23.9022 25.6697 24.2431 24.6083 25.3027 23.5664C25.8536 24.8096 25.6894 25.8886 24.6263 26.7593Z" fill="#E8C1C1"/>
<path d="M26.2786 29.5601C25.5546 28.4705 25.8954 27.4091 26.955 26.3672C27.506 27.6104 27.3417 28.6894 26.2786 29.5601Z" fill="#E8C1C1"/>
<path d="M27.9271 33.0483C27.203 31.9587 27.5439 30.8974 28.6034 29.8555C29.1544 31.0987 28.9902 32.1777 27.9271 33.0483Z" fill="#E8C1C1"/>
<path d="M30.656 45.1279L30.527 45.0979C30.5588 44.9566 33.734 30.7918 28.7734 21.3704L28.89 21.3086C33.8735 30.7742 30.6895 44.9849 30.656 45.1279Z" fill="#DBA9A9"/>
<path d="M28.9798 21.4655C28.005 21.2607 27.6235 20.5031 27.6412 19.3711C28.6054 19.7525 29.0911 20.4254 28.9798 21.4655Z" fill="#E8C1C1"/>
<path d="M29.3922 22.4891C28.5922 23.0825 27.7728 22.8671 26.9375 22.1042C27.8611 21.6344 28.6876 21.7174 29.3922 22.4891Z" fill="#E8C1C1"/>
<path d="M30.2047 24.5868C29.4047 25.1802 28.5853 24.9647 27.75 24.2018C28.6736 23.7321 29.5001 23.8151 30.2047 24.5868Z" fill="#E8C1C1"/>
<path d="M30.8258 26.9931C30.0258 27.5864 29.2064 27.371 28.3711 26.6081C29.2947 26.1383 30.1212 26.2213 30.8258 26.9931Z" fill="#E8C1C1"/>
<path d="M29.8426 23.6068C29.4753 22.6814 29.8973 21.9432 30.8492 21.334C31.0647 22.3476 30.7697 23.1247 29.8426 23.6068Z" fill="#E8C1C1"/>
<path d="M30.6317 25.9525C30.2643 25.0271 30.6864 24.2889 31.6383 23.6797C31.8537 24.6934 31.5588 25.4704 30.6317 25.9525Z" fill="#E8C1C1"/>
<path d="M31.3114 28.8119C30.944 27.8865 31.3661 27.1483 32.318 26.5391C32.5334 27.5527 32.2385 28.3298 31.3114 28.8119Z" fill="#E8C1C1"/>
<path d="M69.494 56.5337L69.3633 56.5125C70.3187 50.8473 72.4467 42.9022 77.1653 37.2246L77.2677 37.3094C72.5685 42.964 70.4476 50.8844 69.4957 56.5337H69.494Z" fill="#DBA9A9"/>
<path d="M76.9922 37.3902C78.3008 37.3902 78.9966 36.5231 79.2809 35.0645C77.9387 35.2905 77.1317 36.0251 76.9922 37.3902Z" fill="#E8C1C1"/>
<path d="M76.1836 38.5915C77.0489 39.5716 78.1615 39.5186 79.4418 38.7646C78.384 37.9099 77.2997 37.7915 76.1836 38.5915Z" fill="#E8C1C1"/>
<path d="M74.5703 41.0661C75.4356 42.0462 76.5482 41.9933 77.8285 41.2392C76.7707 40.3845 75.6864 40.2661 74.5703 41.0661Z" fill="#E8C1C1"/>
<path d="M73.1133 43.988C73.9786 44.9681 75.0912 44.9151 76.3715 44.1611C75.3137 43.3063 74.2294 43.188 73.1133 43.988Z" fill="#E8C1C1"/>
<path d="M75.3052 39.9018C76.0293 38.8122 75.6884 37.7509 74.6289 36.709C74.0779 37.9522 74.2421 39.0312 75.3052 39.9018Z" fill="#E8C1C1"/>
<path d="M73.649 42.7026C74.373 41.613 74.0322 40.5517 72.9726 39.5098C72.4216 40.753 72.5859 41.832 73.649 42.7026Z" fill="#E8C1C1"/>
<path d="M71.9966 46.1909C72.7207 45.1013 72.3799 44.04 71.3203 42.998C70.7693 44.2413 70.9335 45.3203 71.9966 46.1909Z" fill="#E8C1C1"/>
<path d="M54.8633 54.1445C55.2765 44.5871 57.823 36.6314 62.819 30.5159L64.0339 31.466L63.4794 29.7353C65.9783 26.8762 69.0458 24.4445 72.7137 22.4648C72.6324 23.9677 72.5247 25.7054 72.3393 27.6091L70.5592 28.3738L72.2245 28.7128C71.8925 31.7008 71.3556 35.042 70.4303 38.4963L67.6312 39.577L69.9905 40.045C68.5619 44.8078 66.3544 49.7155 62.902 54.1445H54.8633Z" fill="#E8C1C1"/>
<path d="M58.7127 54.152L58.582 54.1361C60.65 37.6614 70.9332 24.7363 71.0374 24.6074L71.1398 24.6904C71.0356 24.8193 60.7754 37.7162 58.7127 54.1538V54.152Z" fill="#DBA9A9"/>
<path d="M32.4157 59.6026C31.923 48.2245 28.8926 38.7519 22.9448 31.4726L21.4985 32.6045L22.159 30.5437C19.1833 27.1407 15.5331 24.2445 11.1641 21.8887C11.2594 23.6776 11.3883 25.7455 11.6109 28.013L13.73 28.9243L11.7468 29.3287C12.1424 32.8853 12.7817 36.8641 13.8819 40.9752L17.2143 42.2608L14.4046 42.8171C16.1052 48.4876 18.733 54.3295 22.8442 59.6009H32.4139L32.4157 59.6026Z" fill="#E8C1C1"/>
<path d="M27.8499 59.6112C26.5661 49.3845 22.6121 40.3922 19.5217 34.6475C16.1716 28.4225 13.0847 24.5674 13.0547 24.5303L13.1571 24.4473C13.1871 24.4861 16.2811 28.3483 19.6364 34.5821C22.7339 40.3357 26.695 49.3474 27.9806 59.5953L27.8499 59.6112Z" fill="#DBA9A9"/>
<path d="M80.0015 58.2988H2.04297V58.4313H80.0015V58.2988Z" fill="#5E1F3C"/>
<path d="M40.792 72.5699C60.471 72.5699 76.4239 70.0691 76.4239 66.9842C76.4239 63.8993 60.471 61.3984 40.792 61.3984C21.1131 61.3984 5.16016 63.8993 5.16016 66.9842C5.16016 70.0691 21.1131 72.5699 40.792 72.5699Z" fill="#E8C1C1"/>
<path d="M58.9547 44.888C59.8307 40.5649 57.2576 34.2904 54.3014 31.7951C51.3452 29.2998 49.7788 27.7051 48.9576 22.7957C48.3572 19.1985 46.7166 15.5359 42.9215 14.4639C40.7847 13.8617 38.4625 14.2697 36.6612 15.5677C34.7169 16.9681 33.6643 19.338 33.0833 21.5984C32.5889 23.5216 32.3946 25.4994 31.4463 27.2831C30.4715 29.1161 28.9086 30.4759 27.344 31.7951C24.3877 34.2904 21.8165 40.5649 22.6906 44.888C23.5666 49.2111 21.85 49.1916 22.5176 53.1951C23.1833 57.1985 27.1144 60.07 27.1144 60.07L39.2678 60.8594L40.5057 46.8199L40.82 39.6642L41.1344 46.8199L42.3723 60.8594L54.5275 60.07C54.5275 60.07 58.4585 57.1985 59.1243 53.1951C59.79 49.1916 58.0753 49.2128 58.9512 44.888H58.9547Z" fill="#5E1F3C"/>
<path d="M43.2908 26.5293H38.3125V31.7424H43.2908V26.5293Z" fill="#F39170"/>
<path d="M55.7695 41.3574C55.5382 42.0656 50.8266 45.1454 49.4297 44.9918L51.533 41.8307L55.7695 41.3574Z" fill="#DDA8A8"/>
<path d="M49.7695 44.5218L51.0763 41.2812L54.6754 41.5762L56.0422 44.1969C54.995 45.9063 54.1456 47.8559 52.4097 49.1628C51.2953 48.2303 49.7695 44.52 49.7695 44.52V44.5218Z" fill="#F39170"/>
<path d="M43.6562 30.5059C43.6562 30.5059 47.9528 30.6436 49.9025 32.4802C52.4472 34.9402 55.7708 41.3577 55.7708 41.3577C54.0454 41.4902 49.7894 44.0296 49.431 44.9921L47.1917 42.0147L43.658 30.5059H43.6562Z" fill="white"/>
<path d="M26.2812 41.3574C26.5126 42.0656 31.2242 45.1454 32.6211 44.9918L30.5178 41.8307L26.2812 41.3574Z" fill="#DDA8A8"/>
<path d="M32.2805 44.5218L30.9737 41.2812L27.3747 41.5762L26.0078 44.1969C27.055 45.9063 27.9045 47.8559 29.6404 49.1628C30.7547 48.2303 32.2805 44.52 32.2805 44.52V44.5218Z" fill="#F39170"/>
<path d="M37.9313 30.5059C37.9313 30.5059 34.0974 30.6436 32.1496 32.4802C29.6048 34.9402 26.2812 41.3577 26.2812 41.3577C28.0066 41.4902 32.2626 44.0296 32.6211 44.9921L34.8603 42.0147L37.9313 30.5059Z" fill="white"/>
<path d="M56.7128 62.2094C57.7017 62.2818 58.8955 62.3118 59.7926 62.16C61.9877 61.6478 62.3692 63.2531 63.4129 64.6641C64.1122 65.6107 65.1417 66.2588 66.2826 66.5431C68.5165 67.1011 68.9174 67.9982 68.4159 69.1797C66.4221 69.2079 60.6173 68.9377 56.1406 67.9099C56.6881 66.1722 56.9229 64.2932 56.711 62.2112L56.7128 62.2094Z" fill="white"/>
<path d="M57.1449 68.1307L57.0195 68.0865C57.68 66.1934 57.8601 64.2367 57.5546 62.2712L57.6853 62.25C57.9943 64.2367 57.8124 66.2146 57.1449 68.1289V68.1307Z" fill="#5E1F3C"/>
<path d="M41.1265 49.5974C43.922 49.5974 46.7105 48.861 49.5219 47.3087C48.9691 45.7123 48.1656 44.7781 48.2151 43.7838C48.2292 43.2134 44.6019 42.9362 41.0187 42.9627C37.4356 42.9362 33.8083 43.2134 33.8224 43.7838C33.8737 44.7781 33.0684 45.7123 32.5156 47.3087C35.3253 48.861 38.1155 49.5992 40.911 49.5974C40.9463 49.5974 40.9817 49.5974 41.0187 49.5974C41.0541 49.5974 41.0894 49.5974 41.1265 49.5974Z" fill="#F39170"/>
<path d="M68.4435 52.2259C63.9032 50.8025 57.0831 49.8347 50.8227 49.4762C50.5349 48.565 50.0969 47.795 49.5406 47.1328C44.8467 48.7239 36.6826 48.8741 32.5167 47.1328C32.0452 47.8586 31.6673 48.6374 31.3953 49.4762C25.1332 49.8347 18.3131 50.8025 13.7745 52.2259C7.92918 53.9901 8.19584 61.2199 13.8257 62.7139C17.091 63.4238 20.6865 63.7523 24.81 63.7629C24.946 65.1757 25.2833 66.6626 25.7478 68.1955L41.1099 66.1629L56.216 68.1655C56.7846 66.984 57.0318 65.7796 57.219 64.2627C61.1925 63.7982 65.1306 63.4238 68.3958 62.7139C74.0257 61.2199 74.2924 53.9918 68.447 52.2259H68.4435Z" fill="#D85B6B"/>
<path d="M57.2138 64.194L41.1055 66.0977L41.121 66.2292L57.2293 64.3255L57.2138 64.194Z" fill="#5E1F3C"/>
<path d="M24.579 60.6403L24.5508 60.5113C27.7613 59.7873 30.6928 59.0756 33.5272 58.3887C42.6237 56.183 50.4787 54.2775 61.8197 53.3574L61.8303 53.4899C50.4999 54.4082 42.6502 56.3136 33.559 58.5176C30.7228 59.2045 27.7913 59.9162 24.579 60.642V60.6403Z" fill="#5E1F3C"/>
<path d="M39.1797 57.1545C37.2389 56.7607 35.4694 56.3704 33.7564 55.9925C29.3539 55.0212 25.5517 54.1842 21.0273 53.7692L21.0397 53.6367C25.5729 54.0535 29.3786 54.8923 33.7864 55.8636C35.4977 56.2415 37.2672 56.63 39.208 57.0238L39.1815 57.1528L39.1797 57.1545Z" fill="#5E1F3C"/>
<path d="M25.5706 67.6067L11.1727 69.1801C10.6711 67.9987 11.0738 67.1016 13.306 66.5436C14.4485 66.2592 15.4763 65.6111 16.1757 64.6646C17.2193 63.2536 17.6008 61.6483 19.7959 62.1604C21.6343 62.473 24.7212 62.0156 24.7212 62.0156C24.7353 64.0765 25.0691 65.8849 25.5706 67.6067Z" fill="#F39170"/>
<path d="M22.876 62.2094C21.887 62.2818 20.6932 62.3118 19.7961 62.16C17.601 61.6478 17.2196 63.2531 16.1759 64.6641C15.4766 65.6107 14.4488 66.2588 13.3062 66.5431C11.0723 67.1011 10.6714 67.9982 11.1729 69.1797C13.1667 69.2079 18.9714 68.9377 23.4481 67.9099C22.9007 66.1722 22.6658 64.2932 22.8777 62.2112L22.876 62.2094Z" fill="white"/>
<path d="M49.3747 34.3561C47.8754 30.4887 43.3033 30.4922 43.3033 30.4922C41.9064 31.5871 39.5947 31.5217 38.3021 30.4922C38.3021 30.4922 34.0955 30.4887 32.5962 34.3561C31.5013 36.6377 30.9857 39.5004 33.2602 41.8579L33.428 43.8976C38.2491 44.7612 43.2874 44.7612 48.5447 43.8976L48.7124 41.8579C50.987 39.5004 50.4713 36.6395 49.3764 34.3561H49.3747Z" fill="white"/>
<path d="M33.3589 43.9014L33.1929 41.8865C31.3245 39.9368 31.0967 37.3232 32.5342 34.3281L32.6543 34.3846C31.2186 37.3762 31.4375 39.875 33.3059 41.8105L33.3218 41.8282L33.4913 43.8908L33.3589 43.9014Z" fill="#5E1F3C"/>
<path d="M48.609 43.9014L48.4766 43.8908L48.6461 41.8282L48.662 41.8105C50.5304 39.875 50.7494 37.3762 49.3136 34.3846L49.4337 34.3281C50.8712 37.3232 50.6434 39.9368 48.775 41.8865L48.609 43.9014Z" fill="#5E1F3C"/>
<path d="M36.5093 54.0483C35.3526 51.3323 31.4021 49.5575 31.3633 49.5398L31.4163 49.418C31.4569 49.4356 35.455 51.2316 36.6312 53.9953L36.5093 54.0466V54.0483Z" fill="#5E1F3C"/>
<path d="M47.6904 52.5121L47.5703 52.4574C48.3385 50.7497 50.6908 49.4747 50.7897 49.4199L50.8515 49.5365C50.8268 49.5488 48.4409 50.8433 47.6904 52.5104V52.5121Z" fill="#5E1F3C"/>
<path d="M40.5994 49.5722C37.5566 49.5722 34.6534 49.0795 31.9727 48.0923L32.0186 47.9687C37.3853 49.9431 43.6492 49.9307 50.1356 47.9316L50.1745 48.0588C46.8986 49.0689 43.6775 49.574 40.5994 49.574V49.5722Z" fill="#5E1F3C"/>
<path d="M40.9271 48.9675C40.9271 49.1176 40.8053 49.2377 40.6569 49.2377C40.5086 49.2377 40.3867 49.1158 40.3867 48.9675C40.3867 48.8191 40.5086 48.6973 40.6569 48.6973C40.8053 48.6973 40.9271 48.8191 40.9271 48.9675Z" fill="#5E1F3C"/>
<path d="M41.8724 48.9675C41.8724 49.1176 41.7506 49.2377 41.6022 49.2377C41.4539 49.2377 41.332 49.1158 41.332 48.9675C41.332 48.8191 41.4539 48.6973 41.6022 48.6973C41.7506 48.6973 41.8724 48.8191 41.8724 48.9675Z" fill="#5E1F3C"/>
<path d="M41.5993 48.9023H40.6562V49.0348H41.5993V48.9023Z" fill="#5E1F3C"/>
<path d="M40.3963 53.3403C40.3363 53.3403 40.2727 53.3279 40.2074 53.3032C40.0308 53.2378 39.9054 53.1072 39.8348 52.9182C39.4374 51.8374 40.9826 49.0543 41.048 48.9359C41.0621 48.9112 41.0904 48.8971 41.1204 48.9042C41.1486 48.9112 41.1698 48.9342 41.1716 48.9642C41.184 49.1143 41.4541 52.6498 40.6612 53.2484C40.58 53.3102 40.4917 53.3403 40.3946 53.3403H40.3963ZM41.055 49.2044C40.7036 49.8719 39.6423 52.0105 39.9584 52.8741C40.0149 53.0277 40.1102 53.1284 40.2515 53.1813C40.3787 53.229 40.4864 53.2167 40.5818 53.1442C41.2069 52.671 41.101 50.0097 41.055 49.2044Z" fill="#5E1F3C"/>
<path d="M41.9533 52.4405C41.6548 52.4405 41.4093 52.3416 41.2239 52.1456C40.4487 51.3262 40.9714 49.087 40.9943 48.9916C40.9996 48.9686 41.0173 48.9492 41.042 48.9422C41.065 48.9351 41.0897 48.9422 41.1074 48.9598C41.1886 49.0446 43.0746 51.0384 42.7886 51.9743C42.7197 52.2004 42.536 52.3469 42.2411 52.4105C42.1404 52.4282 42.0451 52.437 41.9533 52.437V52.4405ZM41.0968 49.1452C40.9979 49.6274 40.6924 51.3898 41.321 52.0538C41.5294 52.2745 41.8314 52.3522 42.2146 52.2834C42.4601 52.2304 42.6067 52.1156 42.6614 51.9372C42.8928 51.1814 41.4659 49.5514 41.0968 49.1452Z" fill="#5E1F3C"/>
<path d="M41.2259 49.1122L41.0938 49.1211L41.5338 55.6775L41.666 55.6686L41.2259 49.1122Z" fill="#5E1F3C"/>
<path d="M22.4482 68.1289C21.7806 66.2146 21.5987 64.2367 21.9078 62.25L22.0385 62.2712C21.733 64.2367 21.9131 66.1934 22.5736 68.0865L22.4482 68.1307V68.1289Z" fill="#5E1F3C"/>
<path d="M37.1596 42.4981C36.8064 42.4981 36.4956 42.4593 36.2343 42.4081C35.4148 42.2456 34.9274 41.926 34.9062 41.9118L34.9787 41.8024C34.9981 41.8147 36.9336 43.0615 39.4854 41.7988L39.5437 41.9171C38.6466 42.3604 37.8272 42.4981 37.1579 42.4981H37.1596Z" fill="#5E1F3C"/>
<path d="M44.9715 42.4944C44.2845 42.4944 43.4792 42.3496 42.6016 41.9152L42.6598 41.7969C45.2117 43.0595 47.1472 41.8145 47.1666 41.8004L47.239 41.9099C47.2266 41.9187 46.3366 42.4927 44.9715 42.4927V42.4944Z" fill="#5E1F3C"/>
<path d="M26.007 44.1953L25.9575 44.2889C21.4437 45.1948 13.707 47.9109 13.707 47.9109L14.7613 52.2269C14.7613 52.2269 25.6997 50.9307 29.4718 49.2831C29.5248 49.2513 29.5813 49.2089 29.636 49.1612C27.9019 47.8544 27.0507 45.9048 26.0034 44.1953H26.007Z" fill="#F39170"/>
<path d="M16.0096 49.3277C15.6829 48.3193 15.0559 47.9608 14.3513 47.65C14.3513 47.65 14.0794 45.4531 13.652 45.1317C13.2264 44.8103 10.9306 45.0258 10.9306 45.0258C10.664 45.9229 11.6105 46.5021 12.52 46.488C12.5801 46.4403 12.5959 48.2663 12.5959 48.2663L11.3916 48.782L9.79866 47.7718C10.6216 47.0354 11.2891 46.2443 10.7505 45.3472C10.09 45.5273 9.57968 45.8858 9.01457 46.2072C9.01457 46.2072 7.79782 47.5917 7.83844 48.2822C7.87905 48.9727 9.09404 49.8804 9.09404 49.8804L5.74224 51.5475C4.80451 52.0861 4.67736 52.6494 5.01113 53.2269L5.72811 52.9549C4.90693 53.5695 4.82217 54.1805 5.29545 54.7933L8.33114 53.6966C7.81018 54.1205 7.62476 54.6609 7.87376 55.0723L12.4441 53.43C14.7716 52.6282 16.61 51.5192 16.0113 49.3277H16.0096Z" fill="#F39170"/>
<path d="M11.6019 52.304L8.30469 53.6328L8.3542 53.7557L11.6514 52.4269L11.6019 52.304Z" fill="#5E1F3C"/>
<path d="M10.6748 50.7411L5.70312 52.8945L5.75577 53.0161L10.7274 50.8626L10.6748 50.7411Z" fill="#5E1F3C"/>
<path d="M9.79761 47.7053L9.23828 47.7285L9.24378 47.8608L9.80311 47.8376L9.79761 47.7053Z" fill="#5E1F3C"/>
<path d="M12.9729 46.1255L12.4883 46.4297L12.5587 46.5419L13.0433 46.2376L12.9729 46.1255Z" fill="#5E1F3C"/>
<path d="M12.8881 50.6744C11.802 49.3676 12.5331 48.2391 12.5402 48.2285L12.6497 48.3027C12.6214 48.3451 11.968 49.3623 12.9905 50.5914L12.8881 50.6761V50.6744Z" fill="#5E1F3C"/>
<path d="M15.0035 52.2565L14.9258 52.1488C14.9258 52.1488 15.7346 51.5555 15.9306 50.8809L16.0578 50.9179C15.8494 51.6367 15.0388 52.2301 15.0035 52.2565Z" fill="#5E1F3C"/>
<path d="M26.0147 44.2608L25.8984 44.3242L26.3761 45.2002L26.4923 45.1368L26.0147 44.2608Z" fill="#5E1F3C"/>
<path d="M56.0353 44.1953L56.0848 44.2889C60.5986 45.1948 68.3353 47.9109 68.3353 47.9109L67.281 52.2269C67.281 52.2269 56.3426 50.9307 52.5705 49.2831C52.5175 49.2513 52.461 49.2089 52.4062 49.1612C54.1404 47.8544 54.9916 45.9048 56.0388 44.1953H56.0353Z" fill="#F39170"/>
<path d="M66.0339 49.3277C66.3606 48.3193 66.9876 47.9608 67.6922 47.65C67.6922 47.65 67.9641 45.4531 68.3915 45.1317C68.8171 44.8103 71.1129 45.0258 71.1129 45.0258C71.3795 45.9229 70.433 46.5021 69.5235 46.488C69.4634 46.4403 69.4475 48.2663 69.4475 48.2663L70.6519 48.782L72.2448 47.7718C71.4219 47.0354 70.7544 46.2443 71.293 45.3472C71.9534 45.5273 72.4638 45.8858 73.0289 46.2072C73.0289 46.2072 74.2457 47.5917 74.2051 48.2822C74.1644 48.9727 72.9495 49.8804 72.9495 49.8804L76.3013 51.5475C77.239 52.0861 77.3661 52.6494 77.0324 53.2269L76.3154 52.9549C77.1366 53.5695 77.2213 54.1805 76.748 54.7933L73.7124 53.6966C74.2333 54.1205 74.4187 54.6609 74.1697 55.0723L69.5994 53.43C67.2719 52.6282 65.4335 51.5192 66.0322 49.3277H66.0339Z" fill="#F39170"/>
<path d="M70.4441 52.3069L70.3945 52.4297L73.691 53.7602L73.7406 53.6374L70.4441 52.3069Z" fill="#5E1F3C"/>
<path d="M76.2876 53.0148L71.3164 50.8621L71.3694 50.7402L76.3406 52.8947L76.2876 53.0148Z" fill="#5E1F3C"/>
<path d="M72.2437 47.7036L72.2383 47.8359L72.7976 47.859L72.8031 47.7267L72.2437 47.7036Z" fill="#5E1F3C"/>
<path d="M69.0742 46.1339L69.0039 46.2461L69.4888 46.5499L69.5591 46.4377L69.0742 46.1339Z" fill="#5E1F3C"/>
<path d="M69.1532 50.6742L69.0508 50.5894C70.0715 49.3603 69.4181 48.3431 69.3898 48.3007L69.4993 48.2266C69.5064 48.2372 70.2375 49.3656 69.1514 50.6724L69.1532 50.6742Z" fill="#5E1F3C"/>
<path d="M67.0426 52.2565C67.009 52.2318 66.1967 51.6367 65.9883 50.9179L66.1154 50.8809C66.3115 51.5555 67.1114 52.1418 67.1203 52.1488L67.0426 52.2565Z" fill="#5E1F3C"/>
<path d="M56.029 44.263L55.5508 45.1387L55.667 45.2022L56.1453 44.3265L56.029 44.263Z" fill="#5E1F3C"/>
<path d="M40.7762 32.2522C40.7514 32.2522 40.7267 32.2522 40.702 32.2522C39.6618 32.2399 38.1714 31.9485 36.9688 30.6311L37.0659 30.541C38.2367 31.8231 39.6901 32.1057 40.7038 32.118C42.2349 32.141 43.8225 31.5229 44.7514 30.5534L44.8467 30.6452C43.8949 31.6394 42.3391 32.2505 40.7762 32.2505V32.2522Z" fill="#5E1F3C"/>
<path d="M46.0485 19.6068C45.8966 18.1852 45.2573 16.9031 44.0529 16.096C41.6141 14.4608 37.8685 14.8369 36.2438 17.4452C36.0372 17.7772 35.8783 18.1375 35.7759 18.5136C35.6787 18.8704 35.624 19.2377 35.6028 19.6068C35.6028 19.6068 35.3114 22.3122 35.7494 23.9917C36.0072 24.9435 36.3922 25.876 36.982 26.6759C37.3952 27.2357 37.9091 27.7232 38.5149 28.0746C38.9493 28.3271 39.4279 28.5072 39.9223 28.6026C40.212 28.6574 40.5086 28.6856 40.8053 28.6927C40.8124 28.6927 40.8195 28.6927 40.8265 28.6927C40.8336 28.6927 40.8406 28.6927 40.8477 28.6927C41.1444 28.6891 41.4411 28.6609 41.7307 28.6044C42.2269 28.509 42.7037 28.3289 43.1382 28.0763C43.7439 27.7249 44.2578 27.2375 44.671 26.6777C45.2609 25.8777 45.6458 24.9453 45.9037 23.9934C46.3416 22.3158 46.0502 19.6103 46.0502 19.6085L46.0485 19.6068Z" fill="#F39170"/>
<path d="M36.1034 21.9371C36.1034 21.9371 34.6712 21.2166 34.0548 22.1684C33.4403 23.1203 34.6199 26.3926 36.4389 24.5154C38.2578 22.6382 36.1034 21.9371 36.1034 21.9371Z" fill="#F39170"/>
<path d="M35.3053 24.3284C34.802 24.0247 34.5513 23.2936 34.6696 22.8662C34.7314 22.6472 34.8797 22.5254 35.0863 22.5254V22.6578C34.9398 22.6578 34.8409 22.7391 34.7967 22.9015C34.6925 23.2759 34.9274 23.9452 35.3742 24.2137L35.3053 24.3267V24.3284Z" fill="#5E1F3C"/>
<path d="M35.4793 23.8009C35.2285 23.5042 34.8912 23.7215 34.8771 23.7303L34.8047 23.619C34.9583 23.5184 35.3203 23.4071 35.5799 23.7144L35.4793 23.7992V23.8009Z" fill="#5E1F3C"/>
<path d="M45.5184 21.9371C45.5184 21.9371 46.9506 21.2166 47.5669 22.1684C48.1815 23.1203 47.0018 26.3926 45.1829 24.5154C43.3639 22.6382 45.5184 21.9371 45.5184 21.9371Z" fill="#F39170"/>
<path d="M46.315 24.3267L46.2461 24.2137C46.6929 23.9435 46.926 23.2742 46.8218 22.9015C46.7777 22.7391 46.6788 22.6578 46.5322 22.6578V22.5254C46.7406 22.5254 46.8889 22.6455 46.9489 22.8662C47.0673 23.2936 46.8165 24.0247 46.3132 24.3284L46.315 24.3267Z" fill="#5E1F3C"/>
<path d="M46.1436 23.7998L46.043 23.715C46.3043 23.4078 46.6646 23.5172 46.8182 23.6197L46.7458 23.7309C46.7317 23.7221 46.3926 23.5067 46.1436 23.8016V23.7998Z" fill="#5E1F3C"/>
<path d="M40.7605 28.7929C39.9747 28.7929 39.0917 28.5757 38.1875 27.9417L38.2634 27.834C40.4744 29.381 42.5512 28.3726 43.3424 27.8675L43.413 27.9788C42.9238 28.2914 41.9525 28.7929 40.7605 28.7929Z" fill="#5E1F3C"/>
<path d="M38.4348 23.8015C38.0816 23.8015 37.7425 23.6602 37.4141 23.3776L37.5006 23.277C38.1046 23.7944 38.7456 23.7926 39.4626 23.2734L39.5403 23.3812C39.1553 23.6602 38.788 23.8015 38.4366 23.8015H38.4348Z" fill="#5E1F3C"/>
<path d="M35.5072 21.3784C35.5072 21.3784 37.1107 20.2835 37.8012 18.4345C37.8012 18.4345 40.2205 22.2331 46.3749 20.9758C46.3749 20.9758 46.7387 12.1442 37.727 15.4006C34.3787 16.8805 35.5072 21.3802 35.5072 21.3802V21.3784Z" fill="#5E1F3C"/>
<path d="M37.745 18.465C37.3724 17.7321 37.1339 17.0522 37.0156 16.3882L37.1463 16.3652C37.2611 17.0169 37.496 17.6844 37.8633 18.4049L37.745 18.465Z" fill="#300E1F"/>
<path d="M46.143 21.089L46.1289 20.9566C46.1377 20.9566 47.0825 20.8489 47.6777 19.9941L47.7871 20.0701C47.1567 20.9743 46.1854 21.0837 46.143 21.0873V21.089Z" fill="#300E1F"/>
<path d="M40.8428 25.0393L40.7969 24.9157C40.9876 24.8451 41.1059 24.7568 41.1448 24.6508C41.203 24.4989 41.1042 24.3135 41.007 24.1351C40.9576 24.0433 40.9117 23.9568 40.8852 23.8738C40.7774 23.5206 40.947 23.0173 40.954 22.9961L41.0794 23.0385C41.0794 23.0385 40.917 23.5224 41.0123 23.8349C41.0335 23.9056 41.0777 23.9868 41.1236 24.0733C41.2278 24.2676 41.3479 24.4901 41.2684 24.6985C41.2136 24.8433 41.0741 24.9545 40.8428 25.0411V25.0393Z" fill="#5E1F3C"/>
<path d="M40.9216 26.0535C40.2682 26.0535 39.6465 25.9034 39.2969 25.6526L39.3746 25.5449C39.9909 25.9846 41.5361 26.0853 42.458 25.5749L42.5215 25.6915C42.0659 25.944 41.4831 26.0535 40.9233 26.0535H40.9216Z" fill="#5E1F3C"/>
<path d="M43.2668 23.8015C42.9136 23.8015 42.5746 23.6602 42.2461 23.3776L42.3326 23.277C42.9366 23.7944 43.5776 23.7926 44.2928 23.2734L44.3705 23.3812C43.9856 23.6602 43.6182 23.8015 43.2668 23.8015Z" fill="#5E1F3C"/>
<path d="M40.8633 26.5943C40.6143 26.5943 40.3759 26.5236 40.1445 26.3824L40.2134 26.2693C40.6337 26.5254 41.0805 26.5236 41.5785 26.2676L41.6385 26.3859C41.3683 26.5254 41.1105 26.596 40.8633 26.596V26.5943Z" fill="#5E1F3C"/>
<path d="M36.957 22.3643C37.1107 22.1753 37.2943 22.0182 37.5133 21.8998C37.6263 21.8451 37.7341 21.7886 37.8948 21.7833C38.0343 21.7815 38.1508 21.8098 38.2709 21.8327C38.5058 21.8875 38.7283 21.9669 38.9455 22.0552C39.1645 22.1418 39.3746 22.2407 39.583 22.3519L39.5318 22.4702L38.8749 22.2583C38.6559 22.193 38.4351 22.1276 38.2179 22.08C38.112 22.0605 37.999 22.0393 37.9054 22.0446C37.8329 22.0446 37.7217 22.087 37.6281 22.1294C37.4338 22.2195 37.2378 22.336 37.0471 22.4579L36.9588 22.3643H36.957Z" fill="#5E1F3C"/>
<path d="M44.7781 22.4614C44.5768 22.3396 44.3702 22.2212 44.1653 22.1312C44.0647 22.087 43.9517 22.0482 43.8704 22.0482C43.7715 22.0429 43.6532 22.0641 43.5402 22.0835C43.3124 22.1312 43.0828 22.1965 42.8515 22.2619L42.1627 22.4738L42.1133 22.3537C42.3323 22.2424 42.553 22.1435 42.7826 22.057C43.0104 21.9687 43.2435 21.8892 43.4872 21.8345C43.6126 21.8098 43.7327 21.7815 43.8757 21.7833C44.0382 21.785 44.1547 21.8416 44.2731 21.8963C44.5044 22.0129 44.7004 22.1718 44.8647 22.3625L44.7781 22.4579V22.4614Z" fill="#5E1F3C"/>
<path d="M37.0633 24.0901C37.0633 24.242 36.8743 24.3639 36.643 24.3639C36.4116 24.3639 36.2227 24.2402 36.2227 24.0901C36.2227 23.94 36.4116 23.8164 36.643 23.8164C36.8743 23.8164 37.0633 23.94 37.0633 24.0901Z" fill="#E57B5E"/>
<path d="M45.4187 24.0901C45.4187 24.242 45.2298 24.3639 44.9984 24.3639C44.7671 24.3639 44.5781 24.2402 44.5781 24.0901C44.5781 23.94 44.7671 23.8164 44.9984 23.8164C45.2298 23.8164 45.4187 23.94 45.4187 24.0901Z" fill="#E57B5E"/>
<path d="M37.9531 25.2796C36.6516 25.2796 35.5938 24.3702 35.5938 23.2541C35.5938 22.138 36.6516 21.2285 37.9531 21.2285C39.2546 21.2285 40.3124 22.138 40.3124 23.2541C40.3124 24.3702 39.2546 25.2796 37.9531 25.2796ZM37.9531 21.361C36.7257 21.361 35.7262 22.2104 35.7262 23.2541C35.7262 24.2978 36.7257 25.1472 37.9531 25.1472C39.1804 25.1472 40.18 24.2978 40.18 23.2541C40.18 22.2104 39.1804 21.361 37.9531 21.361Z" fill="white"/>
<path d="M43.6406 25.2796C42.3391 25.2796 41.2812 24.3702 41.2812 23.2541C41.2812 22.138 42.3391 21.2285 43.6406 21.2285C44.9421 21.2285 45.9999 22.138 45.9999 23.2541C45.9999 24.3702 44.9421 25.2796 43.6406 25.2796ZM43.6406 21.361C42.4132 21.361 41.4137 22.2104 41.4137 23.2541C41.4137 24.2978 42.4132 25.1472 43.6406 25.1472C44.8679 25.1472 45.8675 24.2978 45.8675 23.2541C45.8675 22.2104 44.8679 21.361 43.6406 21.361Z" fill="white"/>
<path d="M41.3139 23.1595C40.9395 22.9423 40.6005 22.9423 40.2773 23.1577L40.2031 23.0482C40.5669 22.8045 40.9625 22.8045 41.3793 23.0465L41.3122 23.1613L41.3139 23.1595Z" fill="white"/>
<path d="M42.6255 25.8656L42.493 25.855C42.5071 25.6749 42.4489 25.5478 42.3164 25.4665L42.3853 25.3535C42.5619 25.463 42.6431 25.6343 42.6255 25.8656Z" fill="#5E1F3C"/>
<path d="M39.2328 25.8656C39.2152 25.6343 39.2964 25.463 39.473 25.3535L39.5419 25.4665C39.4094 25.5495 39.3512 25.6767 39.3653 25.855L39.2328 25.8656Z" fill="#5E1F3C"/>
<path d="M18.868 13.1455C18.868 13.1455 18.868 13.1455 18.8698 13.1437C18.9069 11.8917 17.9021 10.8656 16.6588 10.8656C16.5988 10.8656 16.5405 10.8674 16.4822 10.8727C15.6681 10.938 14.8699 10.6996 14.25 10.1681C13.7414 9.73188 13.081 9.46875 12.3587 9.46875C11.1649 9.46875 10.1389 10.1875 9.69031 11.2153C9.51019 11.6268 9.11108 11.8811 8.66252 11.8793C8.65899 11.8793 8.65722 11.8793 8.65369 11.8793C7.86431 11.8793 7.20207 12.4179 7.00781 13.1455H18.868Z" fill="white"/>
<path d="M77.5341 6.99782C77.3187 6.10424 76.5152 5.43847 75.5545 5.43847C75.5015 5.43847 75.4485 5.44024 75.3955 5.44377C74.788 5.49145 74.2388 5.10117 74.0004 4.5396C73.4565 3.26104 72.1885 2.36393 70.7104 2.36393C70.2425 2.36393 69.7974 2.45399 69.3877 2.61646C68.6142 2.9255 67.7101 2.66238 67.2174 1.99131C66.3573 0.824005 64.9728 0.0664062 63.4117 0.0664062C61.4886 0.0664062 59.8339 1.21605 59.0974 2.8637C59.0833 2.89725 59.0692 2.9308 59.0551 2.96789C58.7796 3.70253 58.0078 4.09987 57.2538 3.88972C57.0083 3.82085 56.7505 3.78553 56.4838 3.78553C55.5443 3.78553 54.7126 4.23762 54.1916 4.93694C53.8154 5.442 53.185 5.68394 52.5775 5.51264C52.4027 5.4632 52.2172 5.43671 52.0265 5.43671C51.0658 5.43671 50.2623 6.10248 50.0469 6.99605H77.5341V6.99782Z" fill="white"/>
</svg>
