<svg width="22" height="19" viewBox="0 0 22 19" fill="none" xmlns="http://www.w3.org/2000/svg">
<path d="M6.03421 10.9614L7.47764 7.94331C7.53013 7.86457 7.60886 7.78584 7.71384 7.78584C7.81882 7.78584 7.89755 7.83833 7.95004 7.94331L9.49845 11.2238L11.2568 6.70983C11.3093 6.60485 11.388 6.52612 11.5193 6.55236C11.6242 6.55236 11.7292 6.63109 11.7555 6.73607L13.7763 12.851L14.931 11.1189C14.9835 11.0401 15.0622 11.0139 15.141 11.0139H19.7337C21.2034 9.07181 24.169 3.92794 19.3925 0.936097C15.1934 -1.68833 11.6242 2.27455 11.0731 2.9569C11.0469 3.00939 10.9681 3.00939 10.9156 2.9569C10.3645 2.24831 6.79529 -1.74081 2.59622 0.883609C-2.15399 3.87545 0.785366 8.99307 2.25504 10.9614H6.03421Z" fill="#A865C2"/>
<path d="M15.272 11.4864L13.9073 13.5597C13.8548 13.6385 13.7761 13.6647 13.6974 13.6647H13.6711C13.5662 13.6385 13.4874 13.586 13.4612 13.481L11.4929 7.5498L9.7345 11.9851C9.70826 12.0901 9.60328 12.1425 9.4983 12.1425C9.39333 12.1425 9.28835 12.0901 9.26211 11.9851L7.68745 8.65206L6.42773 11.329C6.37524 11.4077 6.29651 11.4864 6.19153 11.4864H2.6748C4.80059 13.9796 10.3119 18.2312 10.9417 18.7036C10.968 18.7298 11.0205 18.7298 11.0467 18.7036C11.6766 18.2312 17.1616 13.9796 19.3136 11.4864H15.272Z" fill="#A865C2"/>
</svg>
