<svg width="25" height="25" viewBox="0 0 25 25" fill="none" xmlns="http://www.w3.org/2000/svg">
<path d="M11.3332 10.2499C11.2479 10.1111 11.1057 10.0555 10.9634 10.1388C9.68331 10.8055 8.43164 9.8055 8.37475 9.77772C8.26096 9.69439 8.09028 9.69439 7.97649 9.8055C7.8627 9.91661 7.89115 10.0833 8.00494 10.1944C8.06183 10.2222 8.88679 10.9166 9.99623 10.9166C10.366 10.9166 10.7927 10.8333 11.191 10.6111C11.3332 10.5555 11.3901 10.3888 11.3332 10.2499Z" fill="#B3899D"/>
<path d="M13.8359 10.6117C14.2626 10.8339 14.6609 10.9173 15.0307 10.9173C16.1401 10.9173 16.9935 10.2228 17.022 10.195C17.1358 10.0839 17.1642 9.91726 17.0504 9.80615C16.9366 9.69504 16.7659 9.66726 16.6522 9.77838C16.6522 9.77838 15.372 10.8339 14.0635 10.1395C13.9213 10.0562 13.7506 10.1117 13.6937 10.2506C13.6368 10.3895 13.6937 10.5562 13.8359 10.6117Z" fill="#B3899D"/>
<path d="M24.9882 24.6389L23.765 21.25C23.1961 20.0278 22.0297 19.1389 20.6358 18.8889L15.8567 18.4167C15.8567 18.4167 15.8567 18.4167 15.8283 18.4167C15.4869 18.4167 15.2025 18.1667 15.174 17.8333L18.8152 17.6111C19.5548 17.5556 20.1522 16.9444 20.1522 16.2222V10.4444C20.2091 10.3889 20.266 10.3611 20.3229 10.3056C20.6927 9.94444 20.8919 9.47222 20.8919 8.97222C20.8919 8.38889 20.6074 7.86111 20.1522 7.5V6.19444C20.1522 2.77778 17.3075 0 13.8086 0H11.2199C7.69246 0 4.84777 2.77778 4.84777 6.19444V7.41667C4.39262 7.72222 4.10815 8.25 4.10815 8.80556V9.11111C4.10815 9.69444 4.39262 10.1944 4.84777 10.5V16.1944C4.84777 16.9444 5.44515 17.5556 6.18477 17.5833L9.82598 17.8056C9.79754 18.1389 9.51307 18.3889 9.17171 18.3889C9.17171 18.3889 9.17171 18.3889 9.14326 18.3889L4.33572 18.8611C2.97027 19.1111 1.80394 20 1.20656 21.25L0.0117831 24.6389C-0.0166638 24.7222 0.0117831 24.8056 0.0402301 24.8889C0.097124 24.9444 0.182465 25 0.267806 25H24.7322C24.8175 25 24.9029 24.9444 24.9598 24.8889C24.9882 24.8056 25.0167 24.7222 24.9882 24.6389ZM12.5 21.0833C14.1215 21.0833 15.8567 20.4167 16.0559 18.9722L16.8239 19.0556C16.1981 20.8333 14.4628 22.0556 12.5 22.0556C10.5372 22.0556 8.80189 20.8333 8.17606 19.0556L8.94413 18.9722C9.14326 20.4167 10.8785 21.0833 12.5 21.0833ZM6.81061 11.1111V6.72222C8.48898 7.36111 15.0033 9.69444 18.1894 9.27778V11.1111C18.1894 14.1667 15.6292 16.6667 12.5 16.6667C9.37083 16.6667 6.81061 14.1944 6.81061 11.1111ZM19.9247 9.91667C19.6686 10.1667 19.3273 10.3056 18.9575 10.3056H18.7583V9.16667C19.5264 8.91667 19.8678 8.47222 20.0384 8.13889C20.2376 8.36111 20.3514 8.66667 20.3514 8.97222C20.3229 9.33333 20.1807 9.66667 19.9247 9.91667ZM4.67709 8.80556C4.67709 8.13889 5.21758 7.61111 5.9003 7.61111H6.27011V10.3056H5.9003C5.21758 10.3056 4.67709 9.77778 4.67709 9.11111V8.80556ZM10.4234 17.75V16.8611C11.0777 17.0833 11.7604 17.2222 12.5 17.2222C13.2396 17.2222 13.9223 17.1111 14.5766 16.8611V17.75C14.5766 18.3056 14.9749 18.7778 15.5154 18.9167C15.3447 20.0278 13.8655 20.5556 12.5 20.5556C11.1345 20.5556 9.6553 20.0278 9.48462 18.9167C10.0251 18.7778 10.4234 18.3056 10.4234 17.75Z" fill="#B3899D"/>
<path d="M13.8942 14.4162C13.8942 13.6662 13.2684 13.0829 12.5288 13.0829C11.7607 13.0829 11.1633 13.694 11.1633 14.4162C11.1633 15.1662 11.7892 15.7496 12.5288 15.7496C13.2684 15.7773 13.8942 15.1662 13.8942 14.4162Z" fill="#B3899D"/>
<path d="M16.0565 13.4161H15.4306L16.2556 12.6106C16.3409 12.5273 16.3694 12.4161 16.3125 12.305C16.2556 12.1939 16.1703 12.1384 16.0565 12.1384H14.7763C14.6341 12.1384 14.4919 12.2495 14.4919 12.4161C14.4919 12.5828 14.6057 12.6939 14.7763 12.6939H15.3737L14.5488 13.4995C14.4634 13.5828 14.435 13.6939 14.4919 13.805C14.5488 13.9161 14.6341 13.9717 14.7479 13.9717H16.0565C16.1987 13.9717 16.3409 13.8606 16.3409 13.6939C16.3409 13.5273 16.2271 13.4161 16.0565 13.4161Z" fill="#B3899D"/>
</svg>
