<svg width="16" height="16" viewBox="0 0 16 16" fill="none" xmlns="http://www.w3.org/2000/svg">
<path d="M16 8.003C16 7.98372 15.9995 7.96461 15.9993 7.94533C15.9929 6.99903 15.8228 6.0915 15.5149 5.25019C15.5102 5.23745 15.5053 5.22489 15.5006 5.21216C15.4831 5.16485 15.4653 5.11773 15.4469 5.07097C15.424 5.01311 15.4005 4.95543 15.3765 4.89812C15.3759 4.89685 15.3754 4.89539 15.3748 4.89412C14.1693 2.0396 11.3507 0.0274735 8.06168 0.000727724C8.04221 0.00054578 8.02274 0 8.00309 0C7.98199 0 7.96106 0.00054578 7.94014 0.000727724C6.92652 0.00818744 5.95765 0.203596 5.06702 0.554748C5.06229 0.556568 5.05774 0.558569 5.05301 0.56057C4.99807 0.582404 4.94348 0.604601 4.88908 0.627526C4.85469 0.642081 4.82049 0.657365 4.78628 0.672466C4.76208 0.683201 4.73752 0.69339 4.7135 0.704306C1.95392 1.95044 0.0260183 4.71945 0.000727733 7.94096C0.000545786 7.95952 0 7.97808 0 7.99663C0 8.01719 0.000545786 8.03757 0.000727733 8.05813C0.00800559 9.07156 0.203052 10.0401 0.553845 10.9307C0.565671 10.9607 0.578226 10.9905 0.590416 11.0205C0.602242 11.0497 0.613887 11.079 0.626077 11.1079C1.83256 13.9633 4.65328 15.9749 7.94542 15.9993C7.96234 15.9995 7.97926 15.9998 7.99636 16C8.01601 16 8.03566 15.9995 8.05531 15.9993C8.93175 15.9933 9.77489 15.8468 10.5629 15.5804C10.5956 15.5693 10.6282 15.5575 10.6608 15.546C10.6884 15.5362 10.7161 15.5269 10.7436 15.5169C13.7903 14.4027 15.9742 11.4832 15.9991 8.05376C15.9995 8.03666 16 8.01992 16 8.003ZM8.22288 2.51775C9.00161 2.51156 9.66263 3.18239 9.65917 3.97512C9.65553 4.7764 9.01053 5.4274 8.22015 5.4274C7.42723 5.4274 6.7795 4.77768 6.77732 3.98003C6.77477 3.17402 7.41723 2.52411 8.22288 2.51775ZM10.1653 12.5079C9.66681 13.0609 9.05638 13.4042 8.30167 13.4557C7.88974 13.4837 7.47763 13.5106 7.07098 13.3993C6.327 13.1953 5.82938 12.5154 5.92508 11.7514C6.0197 10.9958 6.1638 10.2466 6.28989 9.49494C6.3996 8.84104 6.5175 8.18859 6.62467 7.53431C6.64195 7.42842 6.63103 7.31525 6.61684 7.20772C6.59228 7.02159 6.4802 6.90479 6.29571 6.87022C6.18854 6.8502 6.0741 6.86203 5.97002 6.83383C5.82228 6.7938 5.66254 6.75596 5.54081 6.67026C5.3414 6.5298 5.38143 6.24469 5.60668 6.14881C5.71821 6.10132 5.84867 6.08112 5.97093 6.07912C6.44127 6.0713 6.91178 6.07603 7.38229 6.07603V6.08003C7.86318 6.08003 8.34424 6.07821 8.82513 6.08076C9.13971 6.0824 9.288 6.21613 9.35423 6.52288C9.41172 6.78961 9.33658 7.03997 9.28873 7.29615C9.08749 8.3738 8.8899 9.45219 8.69322 10.5306C8.63245 10.8637 8.57768 11.1979 8.52273 11.5322C8.51345 11.5884 8.51564 11.647 8.51618 11.7043C8.52364 12.3598 8.93812 12.4488 9.41318 12.2585C9.54745 12.2046 9.66608 12.1126 9.7949 12.0434C10.0176 11.9241 10.1359 11.9206 10.2241 12.0238C10.3311 12.1488 10.3215 12.3347 10.1653 12.5079Z" fill="url(#paint0_linear_2962_12366)"/>
<defs>
<linearGradient id="paint0_linear_2962_12366" x1="1.8135e-07" y1="0.864865" x2="15.027" y2="16" gradientUnits="userSpaceOnUse">
<stop stop-color="#948AFD"/>
<stop offset="1" stop-color="#7783FF"/>
</linearGradient>
</defs>
</svg>
