<svg width="19" height="19" viewBox="0 0 19 19" fill="none" xmlns="http://www.w3.org/2000/svg">
<path d="M9.01246 5.27533C8.74038 5.27533 8.74038 5.66401 9.01246 5.66401H14.2891C14.5612 5.66401 14.5612 5.27533 14.2891 5.27533H9.01246ZM9.01246 4.05097C8.74038 4.05097 8.74038 4.43966 9.01246 4.43966H13.1514C13.4234 4.43966 13.4234 4.05097 13.1514 4.05097H9.01246ZM9.01246 2.8305C8.74038 2.8305 8.74038 3.21919 9.01246 3.21919H12.0259C12.298 3.21919 12.298 2.8305 12.0259 2.8305H9.01246ZM4.50668 6.12266H7.44595C7.55725 6.12266 7.65207 6.03715 7.65207 5.92832V3.02485C7.65207 2.9199 7.56137 2.8305 7.44595 2.8305H4.50668C4.39125 2.8305 4.30055 2.91601 4.30055 3.02485V5.92832C4.30055 6.03326 4.39125 6.12266 4.50668 6.12266ZM7.2357 5.73009H4.70867V3.2153H7.2357V5.73009ZM1.46022 15.9875C0.854227 15.9331 0.231744 15.5716 0.862471 15.249C1.01912 15.1673 1.22524 15.1129 1.46022 15.0896V15.9875ZM1.46022 13.5115C0.854227 13.4571 0.231744 13.0957 0.862471 12.773C1.01912 12.6914 1.22524 12.637 1.46022 12.6137V13.5115ZM1.46022 11.0356C0.854227 10.9812 0.231744 10.6197 0.862471 10.2971C1.01912 10.2155 1.22524 10.1611 1.46022 10.1378V11.0356ZM1.46022 8.55971C0.854227 8.50529 0.227621 8.14382 0.862471 7.82121C1.01912 7.73959 1.22524 7.68517 1.46022 7.66185V8.55971ZM1.46022 6.08379C0.854227 6.02938 0.231744 5.6679 0.862471 5.34529C1.01912 5.26755 1.22524 5.20925 1.46022 5.18593V6.08379ZM1.46022 3.60787C0.854227 3.55346 0.231744 3.19198 0.862471 2.86937C1.01912 2.78775 1.22524 2.73333 1.46022 2.71001V3.60787ZM1.87246 4.00044C2.17752 3.97712 2.45372 3.89939 2.66396 3.79055C3.2411 3.49515 3.25759 2.96654 2.94016 2.96654C2.82886 2.96654 2.73404 3.05205 2.73404 3.16088C2.73404 3.26583 2.63098 3.37077 2.47021 3.4524C2.31356 3.53014 2.10744 3.58844 1.87246 3.61176V0.684965C1.87246 0.576134 1.96728 0.486736 2.0827 0.486736H15.3239C15.4393 0.486736 15.5341 0.576134 15.5341 0.684965V17.3867C15.5341 17.4956 15.4393 17.585 15.3239 17.585H2.0827C1.96728 17.585 1.87246 17.4956 1.87246 17.3867V16.38C2.17752 16.3567 2.45372 16.279 2.66396 16.1701C3.2411 15.8747 3.25759 15.3461 2.94016 15.3461C2.82886 15.3461 2.73404 15.4316 2.73404 15.5405C2.73404 15.6454 2.63098 15.7465 2.47021 15.832C2.31356 15.9097 2.10744 15.968 1.87246 15.9914V13.9041C2.17752 13.8808 2.45372 13.8069 2.66396 13.6981C3.2411 13.4027 3.25759 12.8741 2.94016 12.8741C2.82886 12.8741 2.73404 12.9596 2.73404 13.0684C2.73404 13.1734 2.63098 13.2745 2.47021 13.36C2.31356 13.4416 2.10744 13.496 1.87246 13.5193V11.4321C2.17752 11.4088 2.45372 11.3349 2.66396 11.2261C3.2411 10.9307 3.25759 10.4021 2.94016 10.4021C2.82886 10.4021 2.73404 10.4876 2.73404 10.5964C2.73404 10.7014 2.63098 10.8024 2.47021 10.8879C2.31356 10.9696 2.10744 11.024 1.87246 11.0473V8.96006C2.17752 8.93673 2.45372 8.86288 2.66396 8.75405C3.2411 8.45865 3.25759 7.92616 2.94016 7.92616C2.82886 7.92616 2.73404 8.01167 2.73404 8.1205C2.73404 8.22544 2.63098 8.3265 2.47021 8.41201C2.31356 8.49363 2.10744 8.54805 1.87246 8.57137V6.48414C2.17752 6.46081 2.45372 6.38308 2.66396 6.27813C3.2411 5.98273 3.25759 5.45024 2.94016 5.45024C2.82886 5.45024 2.73404 5.53575 2.73404 5.64458C2.73404 5.74952 2.63098 5.85058 2.47021 5.93609C2.31356 6.01771 2.10744 6.07213 1.87246 6.09545V4.00044ZM9.01246 10.1339C8.74038 10.1339 8.74038 10.5226 9.01246 10.5226H14.2891C14.5612 10.5226 14.5612 10.1339 14.2891 10.1339H9.01246ZM9.01246 8.91341C8.74038 8.91341 8.74038 9.3021 9.01246 9.3021H13.1514C13.4234 9.3021 13.4234 8.91341 13.1514 8.91341H9.01246ZM9.01246 7.68906C8.74038 7.68906 8.74038 8.07774 9.01246 8.07774H12.0259C12.298 8.07774 12.298 7.68906 12.0259 7.68906H9.01246ZM4.50668 10.9812H7.44595C7.55725 10.9812 7.65207 10.8957 7.65207 10.7869V7.8834C7.65207 7.77457 7.56137 7.68906 7.44595 7.68906H4.50668C4.39125 7.68906 4.30055 7.77457 4.30055 7.8834V10.7869C4.30055 10.8957 4.39125 10.9812 4.50668 10.9812ZM7.2357 10.5925H4.70867V8.07774H7.2357V10.5925ZM9.01246 14.9963C8.74038 14.9963 8.74038 15.385 9.01246 15.385H14.2891C14.5612 15.385 14.5612 14.9963 14.2891 14.9963H9.01246ZM9.01246 13.772C8.74038 13.772 8.74038 14.1607 9.01246 14.1607H13.1514C13.4234 14.1607 13.4234 13.772 13.1514 13.772H9.01246ZM9.01246 12.5515C8.74038 12.5515 8.74038 12.9402 9.01246 12.9402H12.0259C12.298 12.9402 12.298 12.5515 12.0259 12.5515H9.01246ZM4.50668 15.8437H7.44595C7.55725 15.8437 7.65207 15.7581 7.65207 15.6493V12.7458C7.65207 12.6409 7.56137 12.5515 7.44595 12.5515H4.50668C4.39125 12.5515 4.30055 12.637 4.30055 12.7458V15.6493C4.30055 15.7543 4.39125 15.8437 4.50668 15.8437ZM7.2357 15.455H4.70867V12.9402H7.2357V15.455ZM16.6636 6.72512C17.282 6.95056 17.9704 6.94667 18.5847 6.71735L18.597 9.21659L18.3909 10.2505L18.4115 15.1673C17.9375 15.3889 17.3974 15.3889 16.9234 15.1751L16.8945 10.2583L16.676 9.22436L16.6636 6.72512ZM18.4816 6.33644C17.9333 6.5541 17.315 6.55799 16.7626 6.34421L17.6118 4.14814L18.4816 6.33644Z" fill="#769AFF"/>
</svg>
