<svg width="13" height="13" viewBox="0 0 13 13" fill="none" xmlns="http://www.w3.org/2000/svg">
<path opacity="0.5" d="M1.30819e-08 9.24142C1.30819e-08 7.46942 -5.96046e-08 6.58342 0.55 6.03242C1.1 5.48142 1.987 5.48242 3.759 5.48242H8.771C10.543 5.48242 11.429 5.48242 11.98 6.03342C12.531 6.58442 12.531 7.47042 12.531 9.24242C12.531 11.0144 12.531 11.9004 11.98 12.4514C11.429 13.0024 10.543 13.0024 8.771 13.0024H3.759C1.987 13.0024 1.101 13.0024 0.55 12.4514C-0.00100005 11.9004 1.30819e-08 11.0134 1.30819e-08 9.24142Z" fill="#171819"/>
<path d="M3.75981 9.86728C3.88386 9.86728 4.00513 9.83048 4.10826 9.76154C4.21139 9.6926 4.29175 9.59462 4.33918 9.47999C4.38661 9.36536 4.39897 9.23924 4.37469 9.11759C4.35042 8.99594 4.2906 8.88422 4.20281 8.79657C4.11503 8.70892 4.00321 8.64929 3.88152 8.62521C3.75983 8.60113 3.63373 8.61369 3.51918 8.6613C3.40463 8.70891 3.30677 8.78943 3.238 8.89267C3.16922 8.99591 3.13262 9.11723 3.13281 9.24128C3.13308 9.4074 3.19925 9.56662 3.31681 9.68399C3.43437 9.80136 3.5937 9.86728 3.75981 9.86728Z" fill="#171819"/>
<path d="M6.26763 9.86728C6.39168 9.86728 6.51294 9.83048 6.61607 9.76154C6.7192 9.6926 6.79957 9.59462 6.84699 9.47999C6.89442 9.36536 6.90678 9.23924 6.8825 9.11759C6.85823 8.99594 6.79842 8.88422 6.71063 8.79657C6.62284 8.70892 6.51103 8.64929 6.38933 8.62521C6.26764 8.60113 6.14154 8.61369 6.02699 8.6613C5.91244 8.70891 5.81458 8.78943 5.74581 8.89267C5.67703 8.99591 5.64043 9.11723 5.64063 9.24128C5.64063 9.32357 5.65685 9.40506 5.68837 9.48107C5.71989 9.55709 5.76609 9.62614 5.82433 9.68428C5.88257 9.74243 5.95169 9.78852 6.02776 9.81992C6.10382 9.85132 6.18533 9.86741 6.26763 9.86728Z" fill="#171819"/>
<path d="M9.39853 9.24126C9.39853 9.36531 9.36173 9.48657 9.29279 9.58971C9.22385 9.69284 9.12587 9.7732 9.01124 9.82063C8.89661 9.86805 8.77049 9.88041 8.64884 9.85614C8.52719 9.83186 8.41547 9.77205 8.32782 9.68426C8.24017 9.59647 8.18054 9.48466 8.15646 9.36297C8.13238 9.24127 8.14494 9.11517 8.19255 9.00062C8.24016 8.88607 8.32068 8.78822 8.42392 8.71944C8.52716 8.65067 8.64848 8.61406 8.77253 8.61426C8.85482 8.61426 8.93631 8.63048 9.01232 8.66201C9.08834 8.69353 9.15739 8.73973 9.21553 8.79796C9.27368 8.8562 9.31977 8.92533 9.35117 9.00139C9.38257 9.07746 9.39866 9.15897 9.39853 9.24126Z" fill="#171819"/>
<path d="M2.97516 4.229C2.97516 3.3567 3.32168 2.52013 3.93848 1.90333C4.55529 1.28652 5.39186 0.94 6.26416 0.94C7.13645 0.94 7.97302 1.28652 8.58983 1.90333C9.20664 2.52013 9.55316 3.3567 9.55316 4.229V5.484C9.90816 5.484 10.2192 5.496 10.4932 5.516V4.229C10.4932 3.1074 10.0476 2.03174 9.25451 1.23865C8.46142 0.445554 7.38576 0 6.26416 0C5.14256 0 4.06689 0.445554 3.2738 1.23865C2.48071 2.03174 2.03516 3.1074 2.03516 4.229V5.516C2.30816 5.496 2.61916 5.487 2.97516 5.484V4.229Z" fill="#171819"/>
</svg>
