<svg width="15" height="15" viewBox="0 0 15 15" fill="none" xmlns="http://www.w3.org/2000/svg">
<path fill-rule="evenodd" clip-rule="evenodd" d="M11.2361 10.9954L14.3037 8.31156C14.5462 8.09943 14.5707 7.7309 14.3586 7.48844C14.3415 7.46893 14.3232 7.45058 14.3037 7.43352L11.2173 4.73323C10.9856 4.53046 10.6361 4.54276 10.4192 4.76132L10.4162 4.76432C10.212 4.97005 10.2133 5.30235 10.419 5.50654C10.4253 5.51276 10.4317 5.51882 10.4382 5.52471L12.4052 7.28921H4.58768C4.26551 7.28921 4.00434 7.55037 4.00434 7.87254C4.00434 8.19471 4.26551 8.45587 4.58768 8.45587H12.4052L10.4646 10.1371C10.2287 10.3415 10.2031 10.6985 10.4075 10.9344C10.4103 10.9377 10.4133 10.941 10.4162 10.9442L10.4201 10.9485C10.6338 11.1839 10.9968 11.2048 11.2361 10.9954ZM9.25644 3.79167C8.93414 3.79167 8.67288 3.5304 8.67288 3.2081V2.04167H2.2534C1.93124 2.04167 1.67007 2.30283 1.67007 2.625V13.125C1.67007 13.4472 1.93124 13.7083 2.2534 13.7083H8.67288V12.5419C8.67288 12.2196 8.93414 11.9583 9.25644 11.9583C9.57873 11.9583 9.84002 12.2196 9.84002 12.5419V13.7083C9.83633 14.2917 9.25299 14.875 8.67288 14.875H1.67007C1.0865 14.875 0.50293 14.2917 0.50293 13.7083V2.04167C0.50293 1.45833 1.0865 0.875 1.67007 0.875H8.66965C9.25298 0.875 9.83632 1.47039 9.83632 2.04167L9.83878 3.2081C9.83945 3.52972 9.5793 3.79099 9.25768 3.79167H9.25644Z" fill="#45AF34"/>
</svg>
