<svg width="50" height="49" viewBox="0 0 50 49" fill="none" xmlns="http://www.w3.org/2000/svg">
<path d="M24.9812 3.46767C25.1203 3.32686 25.2855 3.21513 25.4674 3.1389C25.6494 3.06268 25.8444 3.02344 26.0413 3.02344C26.2383 3.02344 26.4333 3.06268 26.6152 3.1389C26.7972 3.21513 26.9624 3.32686 27.1015 3.46767C27.8831 4.26001 31.3182 7.85275 34.5675 12.5493C37.7719 17.1794 41.0153 23.1824 41.0153 28.7318C41.0153 34.1148 39.2873 38.3034 36.4752 41.1461C33.6751 43.9798 29.9076 45.3648 26.0413 45.3648C22.1751 45.3648 18.4076 43.9798 15.6075 41.1461C12.7954 38.3034 11.0674 34.1179 11.0674 28.7318C11.0674 23.1824 14.3107 17.1794 17.5152 12.5524C19.7588 9.32707 22.2556 6.28906 24.9812 3.46767Z" fill="#FF6A6A"/>
<g clip-path="url(#clip0_5214_115552)">
<path d="M11.9469 3.91171C12.0194 3.83824 12.1057 3.77995 12.2006 3.74018C12.2955 3.7004 12.3972 3.67993 12.5 3.67993C12.6028 3.67993 12.7045 3.7004 12.7994 3.74018C12.8943 3.77995 12.9806 3.83824 13.0531 3.91171C13.4609 4.3251 15.2531 6.19958 16.9484 8.64996C18.6203 11.0656 20.3125 14.1976 20.3125 17.093C20.3125 19.9015 19.4109 22.0868 17.9438 23.57C16.4828 25.0485 14.5172 25.7711 12.5 25.7711C10.4828 25.7711 8.51719 25.0485 7.05625 23.57C5.58906 22.0868 4.6875 19.9031 4.6875 17.093C4.6875 14.1976 6.37969 11.0656 8.05156 8.65154C9.22218 6.96878 10.5248 5.38374 11.9469 3.91171Z" fill="#FF6A6A" stroke="#FFF7F2" stroke-width="3.22581"/>
</g>
<defs>
<clipPath id="clip0_5214_115552">
<rect width="25" height="25.2454" fill="white" transform="translate(0 2.10364)"/>
</clipPath>
</defs>
</svg>
