<svg width="24" height="25" viewBox="0 0 24 25" fill="none" xmlns="http://www.w3.org/2000/svg">
<g clip-path="url(#clip0_19_55428)">
<path d="M13.6184 17.2399V18.1149C13.6184 18.8111 13.3564 19.4788 12.89 19.971C12.4237 20.4633 11.7911 20.7399 11.1316 20.7399C10.472 20.7399 9.83949 20.4633 9.37311 19.971C8.90674 19.4788 8.64474 18.8111 8.64474 18.1149V17.2399M13.6184 17.2399H8.64474M13.6184 17.2399H16.9342C17.1541 17.2399 17.3649 17.1477 17.5204 16.9836C17.6758 16.8195 17.7632 16.597 17.7632 16.3649V15.8521C17.7631 15.6201 17.6757 15.3976 17.5203 15.2335L17.0975 14.7873C17.0457 14.7328 17.0046 14.668 16.9766 14.5966C16.9486 14.5253 16.9342 14.4489 16.9342 14.3716V11.1149C16.9342 10.9609 16.9292 10.8078 16.9176 10.6564M8.64474 17.2399H5.32895C5.1091 17.2399 4.89825 17.1477 4.74279 16.9836C4.58734 16.8195 4.5 16.597 4.5 16.3649V15.8521C4.50005 15.6201 4.58741 15.3976 4.74288 15.2335L5.16564 14.7864C5.21739 14.732 5.25846 14.6674 5.28648 14.5962C5.3145 14.525 5.32894 14.4487 5.32895 14.3716V11.1149C5.32877 10.1574 5.54128 9.21311 5.94941 8.35797C6.35754 7.50282 6.94993 6.76059 7.67902 6.19086C8.40812 5.62112 9.2536 5.23976 10.1476 5.07739C11.0416 4.91502 11.9592 4.97615 12.8268 5.25589M16.9176 10.6564C17.3336 10.4058 17.6931 10.063 17.9716 9.65174C18.2501 9.24044 18.4408 8.77035 18.5308 8.2738C18.6207 7.77725 18.6076 7.26604 18.4925 6.77533C18.3774 6.28461 18.1629 5.82605 17.8638 5.43119C17.5648 5.03632 17.1882 4.71453 16.7601 4.48794C16.332 4.26136 15.8624 4.13536 15.3837 4.11862C14.9051 4.10188 14.4286 4.19479 13.9872 4.39096C13.5458 4.58713 13.1499 4.88279 12.8268 5.25589M16.9176 10.6564C16.2313 11.0699 15.4276 11.2111 14.6514 11.0545C13.8752 10.8979 13.1775 10.4538 12.684 9.80221C12.1906 9.15066 11.9338 8.3345 11.96 7.50079C11.9861 6.66708 12.2935 5.87153 12.8268 5.25589M12.8268 5.25589H12.8284" stroke="#445DA3" stroke-width="1.125" stroke-linecap="round" stroke-linejoin="round"/>
</g>
<defs>
<clipPath id="clip0_19_55428">
<rect width="17.0526" height="18" fill="white" transform="translate(3 3.3667)"/>
</clipPath>
</defs>
</svg>
