<svg width="18" height="18" viewBox="0 0 18 18" fill="none" xmlns="http://www.w3.org/2000/svg">
<path d="M10.6184 13.8732V14.7482C10.6184 15.4444 10.3564 16.1121 9.89004 16.6043C9.42367 17.0966 8.79113 17.3732 8.13158 17.3732C7.47203 17.3732 6.83949 17.0966 6.37311 16.6043C5.90674 16.1121 5.64474 15.4444 5.64474 14.7482V13.8732M10.6184 13.8732H5.64474M10.6184 13.8732H13.9342C14.1541 13.8732 14.3649 13.781 14.5204 13.6169C14.6758 13.4528 14.7632 13.2303 14.7632 12.9982V12.4854C14.7631 12.2534 14.6757 12.0309 14.5203 11.8668L14.0975 11.4206C14.0457 11.3661 14.0046 11.3013 13.9766 11.23C13.9486 11.1586 13.9342 11.0822 13.9342 11.0049V7.74819C13.9342 7.59419 13.9292 7.44107 13.9176 7.28969M5.64474 13.8732H2.32895C2.1091 13.8732 1.89825 13.781 1.74279 13.6169C1.58734 13.4528 1.5 13.2303 1.5 12.9982V12.4854C1.50005 12.2534 1.58741 12.0309 1.74288 11.8668L2.16564 11.4197C2.21739 11.3653 2.25846 11.3007 2.28648 11.2295C2.3145 11.1583 2.32894 11.082 2.32895 11.0049V7.74819C2.32877 6.79066 2.54128 5.84641 2.94941 4.99127C3.35754 4.13612 3.94993 3.39389 4.67902 2.82416C5.40812 2.25443 6.2536 1.87307 7.1476 1.71069C8.0416 1.54832 8.95921 1.60945 9.82677 1.88919M13.9176 7.28969C14.3336 7.03909 14.6931 6.69634 14.9716 6.28504C15.2501 5.87374 15.4408 5.40365 15.5308 4.9071C15.6207 4.41055 15.6076 3.89934 15.4925 3.40863C15.3774 2.91791 15.1629 2.45935 14.8638 2.06449C14.5648 1.66962 14.1882 1.34783 13.7601 1.12124C13.332 0.894658 12.8624 0.768661 12.3837 0.75192C11.9051 0.735178 11.4286 0.82809 10.9872 1.02426C10.5458 1.22044 10.1499 1.51609 9.82677 1.88919M13.9176 7.28969C13.2313 7.7032 12.4276 7.84437 11.6514 7.68776C10.8752 7.53116 10.1775 7.08706 9.68404 6.43552C9.19057 5.78397 8.93379 4.9678 8.95996 4.13409C8.98613 3.30039 9.29353 2.50483 9.82677 1.88919M9.82677 1.88919H9.82843" stroke="#488E4D" stroke-width="1.125" stroke-linecap="round" stroke-linejoin="round"/>
</svg>
