<svg width="16" height="19" viewBox="0 0 16 19" fill="none" xmlns="http://www.w3.org/2000/svg">
<g clip-path="url(#clip0_19_42007)">
<path d="M12.9919 2.70848C12.8553 2.70848 12.7446 2.57734 12.7446 2.41575V1.24487C12.7446 1.08329 12.8553 0.952148 12.9919 0.952148C13.1284 0.952148 13.2391 1.08329 13.2391 1.24487V2.41575C13.2391 2.57734 13.1284 2.70848 12.9919 2.70848Z" fill="#E8A136"/>
<path d="M15.4639 4.46484H14.475C14.3384 4.46484 14.2278 4.3337 14.2278 4.17212C14.2278 4.01053 14.3384 3.87939 14.475 3.87939H15.4639C15.6005 3.87939 15.7111 4.01053 15.7111 4.17212C15.7111 4.3337 15.6005 4.46484 15.4639 4.46484Z" fill="#E8A136"/>
<path d="M13.7335 3.58676C13.6702 3.58676 13.6069 3.55822 13.5587 3.501C13.4622 3.38669 13.4622 3.2014 13.5587 3.08694L14.3004 2.20878C14.3969 2.09447 14.5534 2.09447 14.65 2.20878C14.7465 2.32309 14.7465 2.50838 14.65 2.62283L13.9083 3.501C13.8601 3.55822 13.7968 3.58676 13.7335 3.58676Z" fill="#E8A136"/>
<path d="M15.2168 14.8564H14.2279C14.0913 14.8564 13.9807 14.7253 13.9807 14.5637C13.9807 14.4021 14.0913 14.271 14.2279 14.271H15.2168C15.3534 14.271 15.464 14.4021 15.464 14.5637C15.464 14.7253 15.3534 14.8564 15.2168 14.8564Z" fill="#E8A136"/>
<path d="M12.7445 17.7837C12.6079 17.7837 12.4973 17.6525 12.4973 17.491V16.3201C12.4973 16.1585 12.6079 16.0273 12.7445 16.0273C12.8811 16.0273 12.9918 16.1585 12.9918 16.3201V17.491C12.9918 17.6525 12.8811 17.7837 12.7445 17.7837Z" fill="#E8A136"/>
<path d="M14.2279 16.6129C14.1646 16.6129 14.1013 16.5843 14.0531 16.5271L13.3114 15.649C13.2149 15.5346 13.2149 15.3494 13.3114 15.2349C13.408 15.1206 13.5645 15.1206 13.661 15.2349L14.4027 16.1131C14.4992 16.2274 14.4992 16.4127 14.4027 16.5271C14.3545 16.5843 14.2912 16.6129 14.2279 16.6129Z" fill="#E8A136"/>
<path d="M10.1487 13.5393C11.0362 13.5393 11.7556 12.6874 11.7556 11.6366C11.7556 10.5857 11.0362 9.73389 10.1487 9.73389C9.2612 9.73389 8.54175 10.5857 8.54175 11.6366C8.54175 12.6874 9.2612 13.5393 10.1487 13.5393Z" fill="#E8A136"/>
<path d="M10.1488 4.61133C8.7174 4.61133 7.55298 5.99019 7.55298 7.6849C7.55298 8.6181 7.90984 9.49085 8.51653 10.0728C8.90219 9.50973 9.49021 9.14851 10.1488 9.14851C10.8074 9.14851 11.3954 9.50973 11.7811 10.0728C12.3878 9.49085 12.7446 8.6181 12.7446 7.6849C12.7446 5.99019 11.5802 4.61133 10.1488 4.61133ZM10.1488 5.78221C9.26277 5.78221 8.54187 6.63579 8.54187 7.6849C8.54187 7.84648 8.43111 7.97762 8.29465 7.97762C8.15818 7.97762 8.04742 7.84648 8.04742 7.6849C8.04742 6.31292 8.99008 5.19677 10.1488 5.19677C10.2853 5.19677 10.396 5.32791 10.396 5.48949C10.396 5.65107 10.2853 5.78221 10.1488 5.78221Z" fill="#E8A136"/>
<path d="M9.90149 2.85495C8.23002 2.85495 6.9635 3.37966 6.1955 3.81976C5.92751 3.97329 5.61651 3.9531 5.36372 3.76532C5.10896 3.57636 4.95704 3.25115 4.95704 2.89564V0.513184H3.47371V3.52426C3.47371 4.61889 3.83378 5.6481 4.48744 6.42205L6.66114 8.99566C7.41381 9.88685 7.41381 11.337 6.66114 12.2282C5.91614 13.1103 4.7333 13.1292 3.96852 12.2712C3.41647 11.652 2.56269 11.6656 2.02486 12.3022C1.60409 12.8007 1.37231 13.4632 1.37231 14.1677V18.0765H3.21054C2.92302 17.265 2.45033 15.508 3.29892 14.5032C4.23391 13.396 5.17855 13.9552 6.27239 14.6027C7.16857 15.1333 8.18428 15.7347 9.53065 15.7347C12.9769 15.7347 14.2279 11.6209 14.2279 8.85574C14.2279 6.35004 12.582 2.85495 9.90149 2.85495ZM12.0453 10.5724C12.1752 10.8956 12.2501 11.2555 12.2501 11.6366C12.2501 13.0086 11.3074 14.1247 10.1487 14.1247C8.98998 14.1247 8.04732 13.0086 8.04732 11.6366C8.04732 11.2555 8.1221 10.8956 8.25214 10.5724C7.50121 9.88041 7.05843 8.81988 7.05843 7.68485C7.05843 5.66727 8.44473 4.02584 10.1487 4.02584C11.8527 4.02584 13.239 5.66727 13.239 7.68485C13.239 8.81988 12.7962 9.88041 12.0453 10.5724Z" fill="#E8A136"/>
</g>
<defs>
<clipPath id="clip0_19_42007">
<rect width="15" height="18" fill="white" transform="translate(0.902832 0.366699)"/>
</clipPath>
</defs>
</svg>
