<svg width="24" height="24" viewBox="0 0 24 24" fill="none" xmlns="http://www.w3.org/2000/svg">
<path fill-rule="evenodd" clip-rule="evenodd" d="M7.07097 14.0739C5.79673 15.4023 5.66696 15.9712 5.08977 17.1537L6.66124 17.8809C6.61562 18.4344 6.57 18.9882 6.52467 19.542L7.01968 19.6634C6.9922 23.1796 6.92703 22.4889 10.5891 21.9474V23.7463L17.5581 22.556C17.5581 17.2043 17.0719 19.0068 19.5391 14.2643C22.6132 5.2367 9.11479 1.81067 6.90124 10.1811V13.3645L7.07097 14.0739ZM7.57761 7.75555L7.46568 3.6477L6.40311 4.32751L5.95569 1.23967L3.99829 2.76952L5.31248 6.02732L6.40311 5.31909L7.57761 7.75555ZM9.03177 6.45249L8.75182 4.07258L8.10889 4.44091L7.66148 1.63613L9.53501 0.55957L9.28339 3.36436L10.346 3.10943L9.03177 6.45249Z" fill="#FF8A8A"/>
</svg>
