<svg width="22" height="19" viewBox="0 0 22 19" fill="none" xmlns="http://www.w3.org/2000/svg">
<path d="M3.32675 10.9925C4.1031 7.79701 7.34852 5.5265 10.9992 5.5265C14.6487 5.5265 17.8941 7.79701 18.6716 10.9925C18.7024 11.1193 18.7907 11.2304 18.9171 11.3014C19.0435 11.3724 19.1976 11.3975 19.3455 11.3711C19.4934 11.3447 19.6231 11.269 19.7059 11.1607C19.7887 11.0523 19.818 10.9202 19.7872 10.7934C18.9027 7.15889 15.2031 4.55078 10.9992 4.55078C6.79528 4.55078 3.09567 7.15889 2.21118 10.7934C2.18038 10.9202 2.20962 11.0523 2.29245 11.1607C2.37528 11.269 2.50492 11.3447 2.65285 11.3711C2.80079 11.3975 2.9549 11.3724 3.08128 11.3014C3.20766 11.2304 3.29596 11.1193 3.32675 10.9925ZM10.9878 7.47795C12.0445 7.47795 13.0579 7.83774 13.805 8.47818C14.5522 9.11863 14.972 9.98725 14.972 10.893C14.972 11.7987 14.5522 12.6673 13.805 13.3078C13.0579 13.9482 12.0445 14.308 10.9878 14.308C9.93112 14.308 8.91772 13.9482 8.17054 13.3078C7.42336 12.6673 7.0036 11.7987 7.0036 10.893C7.0036 9.98725 7.42336 9.11863 8.17054 8.47818C8.91772 7.83774 9.93112 7.47795 10.9878 7.47795Z" fill="#F38294"/>
</svg>
