<svg width="21" height="25" viewBox="0 0 21 25" fill="none" xmlns="http://www.w3.org/2000/svg">
<path d="M20.1988 6.17992L14.7229 0.677966C14.2796 0.234681 13.706 0 13.0801 0H3.22356C2.59775 0 2.02408 0.234681 1.5808 0.677966C1.13751 1.12125 0.902832 1.69491 0.902832 2.32073V22.425C0.902832 23.7027 1.94586 24.7458 3.22356 24.7458H18.5821C19.8598 24.7458 20.9028 23.7027 20.9028 22.425V7.82268C20.9028 7.19687 20.6421 6.62321 20.1988 6.17992ZM13.8885 2.73794L18.1649 7.01434H14.3318C14.071 7.01434 13.8885 6.80574 13.8885 6.57106V2.73794ZM18.8689 22.4511C18.8689 22.6076 18.7386 22.7379 18.5821 22.7379H3.22356C3.06711 22.7379 2.93673 22.6076 2.93673 22.4511V2.32073C2.93673 2.21643 2.98888 2.1382 3.01496 2.11212C3.06711 2.05997 3.11926 2.0339 3.22356 2.0339H11.8546V6.57106C11.8546 7.95306 12.9758 9.04824 14.3318 9.04824H18.8429V22.4511H18.8689Z" fill="#608CFF"/>
<path d="M11.6719 14.6025C11.4112 14.3156 11.1244 13.9245 10.8636 13.4551C11.4373 11.4995 11.5155 10.1435 11.0461 9.46556C10.8115 9.1005 10.4203 8.91797 9.97703 8.91797C9.45552 8.91797 9.03831 9.15265 8.85578 9.62201C8.46465 10.5347 9.06439 12.2035 9.76843 13.5594C9.5859 14.1852 9.32514 14.8893 9.01224 15.6455C8.85578 16.0627 8.64718 16.4799 8.43857 16.871C6.87403 17.4708 5.15304 18.3834 4.94444 19.4786C4.86621 19.8958 4.99659 20.2869 5.36165 20.5738C5.57025 20.7563 5.80493 20.8345 6.06569 20.8345C6.16999 20.8345 6.2743 20.8084 6.3786 20.7824C7.3434 20.5477 8.36035 19.1135 9.14261 17.7055C9.5859 17.549 10.1074 17.3665 10.655 17.21C11.3069 17.0275 11.9066 16.871 12.4281 16.7667C13.3929 17.549 14.2534 17.9662 14.9836 17.9662C15.5051 17.9923 15.9744 17.7837 16.3395 17.3925C16.9131 16.8189 16.6785 16.2974 16.6002 16.1409C16.183 15.4369 14.7749 15.2804 12.715 15.6716C12.4021 15.3586 12.037 14.9936 11.6719 14.6025ZM6.14392 19.7915C6.06569 19.8176 6.03962 19.7915 5.96139 19.6611C6.01354 19.4004 6.50898 18.9049 7.57808 18.3834C7.03049 19.1657 6.50898 19.7133 6.14392 19.7915ZM9.76843 10.0392C9.7945 9.98707 9.7945 9.96099 9.95096 9.96099C10.1074 9.96099 10.1596 10.0131 10.1856 10.0653C10.3682 10.3261 10.3682 11.004 10.1596 12.0731C9.82058 11.1865 9.61198 10.3782 9.76843 10.0392ZM10.3942 16.2191C10.2117 16.2713 10.0031 16.3234 9.7945 16.4017C9.84666 16.2713 9.89881 16.1409 9.95096 16.0366C10.1335 15.5672 10.316 15.124 10.4464 14.7068C10.6028 14.9414 10.7854 15.15 10.9158 15.3065C11.1244 15.5151 11.333 15.7237 11.5155 15.9323C11.1765 16.0105 10.7854 16.1148 10.3942 16.2191ZM15.6615 16.6624C15.5311 16.8971 15.3225 16.9232 15.0357 16.9232C14.7228 16.9232 14.3056 16.7667 13.8623 16.506C15.14 16.3756 15.7919 16.4277 15.6615 16.6624Z" fill="#608CFF"/>
</svg>
