<svg width="13" height="25" viewBox="0 0 13 25" fill="none" xmlns="http://www.w3.org/2000/svg">
<path d="M7.39907 13.3248V11.3529H5.60086V13.3248H3.7118V15.2022H5.60086V17.1741H7.39907V15.2022H9.28813V13.3248H7.39907ZM8.602 14.4859H6.71294V16.4578H6.28699V14.4859H4.39793V14.0412H6.28699V12.0692H6.71294V14.0412H8.602V14.4859Z" fill="white"/>
<path d="M10.0159 4.63009V3.15014H11.2773V0H1.72301V3.15014H2.98385V4.63009C1.31051 4.83897 0 6.34327 0 8.13524V21.4676C0 23.4155 1.518 25 3.38373 25H9.61655C11.4823 25 13 23.4155 13 21.4676V8.13524C13 6.34298 11.6895 4.83897 10.0159 4.63009ZM2.40914 2.43381V0.716332H10.5911V2.43381H2.40914ZM3.33323 5.32206L3.66998 5.31547V3.14986H5.82388C5.14214 3.37421 4.64621 4.04011 4.64621 4.82522C4.64621 5.7937 5.40095 6.58166 6.3286 6.58166C7.25625 6.58166 8.011 5.7937 8.011 4.82522C8.011 4.0404 7.51506 3.3745 6.83332 3.14986H9.33002V5.31547L9.66677 5.32206C11.1266 5.35014 12.3141 6.61203 12.3141 8.13524V10.0519H10.6361C11.3258 9.83238 11.8292 9.16247 11.8292 8.37192C11.8292 7.40344 11.0744 6.61576 10.1465 6.61576C9.21886 6.61576 8.46439 7.40373 8.46439 8.37192C8.46439 9.16247 8.96747 9.83238 9.65689 10.0519H7.19176C7.88118 9.83238 8.38425 9.16247 8.38425 8.37192C8.38425 7.40344 7.62978 6.61576 6.70213 6.61576C5.89909 6.61576 5.2264 7.20688 5.06008 7.9937C5.06146 7.96533 5.06749 7.93868 5.06749 7.91003C5.06749 6.94183 4.31275 6.15387 3.3851 6.15387C2.45745 6.15387 1.70298 6.94183 1.70298 7.91003C1.70298 8.24728 1.7941 8.5682 1.96014 8.84384C1.51004 9.08166 1.17493 9.52292 1.06927 10.0521H0.686406V8.13553C0.686131 6.61232 1.87369 5.35014 3.33323 5.32206ZM6.3286 3.78539C6.87806 3.78539 7.32487 4.25186 7.32487 4.82522C7.32487 5.39857 6.87806 5.86533 6.3286 5.86533C5.77942 5.86533 5.33234 5.39885 5.33234 4.82522C5.33234 4.25158 5.77915 3.78539 6.3286 3.78539ZM0.686132 17.6705V10.7685H12.3139V17.6705H0.686132ZM11.1398 18.3868C10.988 18.759 10.6339 19.0209 10.2225 19.0209C9.81113 19.0209 9.45709 18.759 9.30532 18.3868H11.1398ZM2.38884 7.90974C2.38884 7.33639 2.83564 6.86992 3.38482 6.86992C3.93428 6.86992 4.38109 7.33639 4.38109 7.90974C4.38109 8.40287 4.05257 8.81576 3.60247 8.92034C3.34448 8.75244 3.04121 8.65387 2.71571 8.65387C2.70995 8.65387 2.70446 8.65473 2.69897 8.65473C2.50383 8.45931 2.38884 8.19656 2.38884 7.90974ZM6.21224 10.0521H4.36297C4.32181 9.84499 4.24414 9.65215 4.13957 9.47908C4.58693 9.24527 4.91325 8.81089 5.02358 8.29255C5.02248 8.3192 5.01974 8.34527 5.01974 8.37221C5.01946 9.16275 5.52254 9.83238 6.21224 10.0521ZM5.7056 8.37192C5.7056 7.79857 6.15241 7.33209 6.70186 7.33209C7.25104 7.33209 7.69785 7.79857 7.69785 8.37192C7.69785 8.94527 7.25104 9.41204 6.70186 9.41204C6.15241 9.41204 5.7056 8.94556 5.7056 8.37192ZM2.71571 9.37049C3.14413 9.37049 3.50696 9.65559 3.64748 10.0521H1.78422C1.92474 9.6553 2.28756 9.37049 2.71571 9.37049ZM10.1465 9.41204C9.59733 9.41204 9.15053 8.94556 9.15053 8.37192C9.15053 7.79828 9.59733 7.33209 10.1465 7.33209C10.696 7.33209 11.1431 7.79857 11.1431 8.37192C11.1431 8.94527 10.696 9.41204 10.1465 9.41204ZM9.61655 24.2837H3.38373C1.89647 24.2837 0.686132 23.0203 0.686132 21.4676V18.3868H8.58735C8.76355 19.1599 9.42882 19.7373 10.2225 19.7373C11.0163 19.7373 11.6815 19.1599 11.8577 18.3868H12.3139V21.4676C12.3139 23.0203 11.1038 24.2837 9.61655 24.2837Z" fill="white"/>
<path d="M9.61625 22.6959H3.38343C2.73435 22.6959 2.20603 22.1447 2.20603 21.467H1.5199C1.5199 22.5395 2.35588 23.4123 3.38343 23.4123H9.61625C10.6435 23.4123 11.4795 22.5395 11.4795 21.467H10.7934C10.7934 22.1447 10.2653 22.6959 9.61625 22.6959Z" fill="white"/>
<path d="M8.15732 22.6949C9.08497 22.6949 9.83972 21.9072 9.83972 20.9387C9.83972 19.9702 9.08497 19.1825 8.15732 19.1825C7.22967 19.1825 6.4752 19.9702 6.4752 20.9387C6.4752 21.9072 7.22967 22.6949 8.15732 22.6949ZM8.15732 19.8989C8.70677 19.8989 9.15358 20.3653 9.15358 20.9387C9.15358 21.512 8.70677 21.9785 8.15732 21.9785C7.60814 21.9785 7.16133 21.512 7.16133 20.9387C7.16133 20.3653 7.60814 19.8989 8.15732 19.8989Z" fill="white"/>
<path d="M4.44049 22.3242C5.36814 22.3242 6.12289 21.5365 6.12289 20.568C6.12289 19.5996 5.36814 18.8116 4.44049 18.8116C3.51284 18.8116 2.75837 19.5996 2.75837 20.568C2.75837 21.5365 3.51284 22.3242 4.44049 22.3242ZM4.44049 19.5279C4.98995 19.5279 5.43676 19.9944 5.43676 20.568C5.43676 21.1414 4.98995 21.6079 4.44049 21.6079C3.89131 21.6079 3.44451 21.1414 3.44451 20.568C3.44451 19.9944 3.89131 19.5279 4.44049 19.5279Z" fill="white"/>
</svg>
