<svg width="90" height="94" viewBox="0 0 90 94" fill="none" xmlns="http://www.w3.org/2000/svg">
<path d="M24.3625 24.2582C23.6317 23.6702 22.2529 24.023 21.081 25.029C20.2537 23.7225 19.0542 23.017 18.1717 23.3828C17.2893 23.7486 16.9859 25.4994 17.7581 27.1717C17.9591 27.7329 18.3015 28.2392 18.7556 28.6467C19.2096 29.0543 19.7617 29.3507 20.364 29.5104C20.9899 29.5289 21.6109 29.4001 22.1715 29.1356C22.7321 28.8711 23.2148 28.4792 23.5766 27.9949C24.8451 26.623 25.2173 24.9376 24.3625 24.2582Z" fill="#F66CC7"/>
<path d="M26.3341 13.113C25.6722 12.9563 24.9553 13.6095 24.5416 14.6155C23.5903 14.0537 22.57 13.9753 22.1563 14.4849C21.7427 14.9944 22.1563 16.1834 23.2042 16.9804C23.4897 17.319 23.8793 17.5651 24.3189 17.6847C24.7585 17.8044 25.2265 17.7915 25.6581 17.648C26.0897 17.5045 26.4635 17.2375 26.7279 16.8838C26.9923 16.5301 27.1341 16.1073 27.1338 15.6738C27.4509 14.4326 27.0924 13.2829 26.3341 13.113Z" fill="#F66CC7"/>
<path d="M59.9356 12.7473C60.5009 14.3804 63.686 23.5131 57.8951 28.0076C53.9931 31.0518 47.1956 31.1302 44.893 28.3473C42.3698 25.2639 47.3887 21.2005 46.4235 12.7473C45.7341 6.59348 41.2117 3.20955 42.7973 1.4588C43.9968 0.152263 47.3059 1.10603 48.5055 1.4588C51.2029 2.37346 53.6393 3.86916 55.6228 5.82807C57.6063 7.78698 59.0827 10.1556 59.9356 12.7473Z" fill="#3F469A"/>
<path d="M48.7946 24.1794C50.1734 28.5824 54.9716 42.9543 46.5334 53.7201C39.6394 62.487 27.2303 64.7342 25.8515 62.9573C25.4516 62.4478 25.3551 60.9191 23.9901 60.1875C23.4386 59.887 23.2732 60.0437 22.8457 59.7171C21.853 58.9593 22.4459 57.8226 21.5497 56.6468C20.9568 55.8628 20.5293 56.1372 19.771 55.3402C18.9881 54.4577 18.5801 53.3305 18.6266 52.1784C18.7094 50.0357 20.7913 49.3955 22.1977 47.4096C25.1483 43.2679 20.8189 39.5704 23.5765 35.0889C25.5344 31.8487 28.4298 32.9985 29.7397 29.8628C31.215 26.3482 28.3609 23.1734 30.5532 20.3904C31.2977 19.4759 31.7665 19.6196 32.8282 18.7703C37.2679 15.2166 34.7034 7.84771 36.482 7.15524C38.2606 6.46278 45.3752 13.7663 48.7946 24.1794Z" fill="#3F469A"/>
<path d="M26.2366 63.7152C25.6697 63.7451 25.1108 63.5779 24.6648 63.2449C24.1803 62.7673 23.8007 62.2033 23.548 61.5856C23.3988 61.1803 23.1589 60.8104 22.8448 60.5011C22.6881 60.4207 22.5214 60.3592 22.3485 60.3182C22.1004 60.2729 21.8681 60.1697 21.6728 60.0177C21.4223 59.8068 21.2198 59.5497 21.0776 59.2622C20.9354 58.9747 20.8564 58.6627 20.8455 58.3454C20.7966 57.8189 20.6119 57.312 20.3078 56.869C20.1266 56.6219 19.8724 56.431 19.5771 56.3202C19.1831 56.1461 18.8311 55.8971 18.543 55.5886C17.7008 54.6462 17.2628 53.4385 17.3158 52.2047C17.3888 51.5698 17.6022 50.9567 17.9419 50.4051C18.2816 49.8536 18.7401 49.3761 19.2875 49.0036C19.9077 48.4866 20.4629 47.9035 20.9421 47.266C22.3209 45.267 22.0175 43.3464 21.6315 41.3474C20.9599 39.2273 21.1773 36.9435 22.2381 34.9715C23.0097 33.7045 24.2167 32.7267 25.6576 32.2016C26.2775 32.0136 26.846 31.6984 27.3227 31.2783C27.7993 30.8583 28.1724 30.3438 28.4151 29.7715C28.9039 28.311 28.9564 26.7509 28.5668 25.2639C28.2772 23.5785 27.9877 21.8277 29.27 20.2338C29.4426 20.0165 29.6416 19.8191 29.8629 19.6458C30.4202 19.2041 31.0312 18.8269 31.6829 18.5222C32.1379 18.3132 33.3374 16.8629 36.2467 9.37646L36.8947 9.59857C33.8062 17.5292 32.6067 18.8227 31.9586 19.0971C31.3654 19.3891 30.8062 19.7395 30.2903 20.1423C30.1105 20.2764 29.9525 20.4349 29.8215 20.6127C28.7185 21.9845 28.9667 23.4478 29.2424 25.1463C29.6654 26.751 29.5984 28.4366 29.0494 30.0066C28.7774 30.6508 28.3619 31.2317 27.8312 31.7097C27.3006 32.1878 26.6673 32.5516 25.9747 32.7765C24.6633 33.2496 23.5632 34.1352 22.8586 35.285C21.6039 37.3494 21.9624 39.2046 22.3347 41.2167C22.7069 43.2288 23.1206 45.3976 21.5487 47.6187C21.0119 48.3116 20.3919 48.9429 19.7012 49.5001C19.2201 49.8161 18.8152 50.2252 18.5134 50.7004C18.2115 51.1756 18.0195 51.7062 17.9501 52.2569C17.9135 53.3206 18.2859 54.3606 18.998 55.1835C19.2268 55.4295 19.509 55.6256 19.8252 55.7584C20.2202 55.9189 20.5594 56.1815 20.8042 56.5162C21.182 57.0352 21.4101 57.6387 21.466 58.267C21.4667 58.5102 21.5183 58.7509 21.6177 58.9751C21.7171 59.1994 21.8624 59.4027 22.0451 59.5735C22.165 59.6658 22.3071 59.7287 22.4587 59.7564C22.6951 59.8088 22.9225 59.8923 23.1343 60.0047C23.5989 60.3608 23.9439 60.8375 24.1271 61.3765C24.3352 61.9101 24.654 62.3988 25.0647 62.8137C25.6162 63.2579 26.6503 63.2449 28.167 62.8137L28.3875 63.4278C27.6916 63.6329 26.9653 63.73 26.2366 63.7152Z" fill="#3F469A"/>
<path d="M66.1676 57.5744L72.8271 55.4186C73.4856 50.0259 73.541 44.5822 72.9926 39.1784C72.7352 36.6786 72.3813 34.3442 71.9309 32.1754C70.8417 28.2558 67.6153 26.4397 65.9056 26.9493C64.1959 27.4588 63.2858 30.1111 63.9752 33.1814L66.1676 57.5744Z" fill="#FFE1C4"/>
<path d="M66.9256 70.5215C68.7594 73.8532 64.3059 81.0783 63.0098 83.0904C59.5344 84.8062 55.6636 85.6772 51.7451 85.6251C41.4869 85.4421 34.9928 78.7135 33.8208 77.3939C34.6747 76.6011 35.3955 75.689 35.958 74.6894C37.4608 71.9195 38.4812 67.0069 38.8534 66.21L39.3911 65.1125C41.087 61.4542 40.0805 57.9265 39.3911 52.9878C39.1705 51.3285 38.9913 49.5647 38.8258 47.7617C38.4811 43.9597 38.2192 40.1185 37.709 37.0612V36.8652C37.5861 36.0694 37.4204 35.2801 37.2127 34.5004C37.1437 34.1607 37.0885 33.834 37.0472 33.5074C37.0058 33.1808 37.0472 33.22 37.0472 33.0762C36.9165 32.0269 36.9584 30.9647 37.1713 29.9275C37.292 29.6988 37.44 29.4839 37.6125 29.2873C39.2946 27.2622 42.4521 27.4581 45.0994 25.7335L45.5268 25.4461L45.6371 25.3546C47.3928 25.1852 49.1621 25.1852 50.9179 25.3546C57.0811 25.7988 57.0534 27.7064 61.3139 27.1968C63.8233 26.9094 65.2848 26.6873 66.9118 27.6019C67.4495 27.8893 69.1455 28.7647 69.9038 32.1747C69.8971 32.2093 69.8971 32.2447 69.9038 32.2793C68.1941 36.6953 66.9118 40.432 66.0156 43.2149C65.5468 44.6608 65.1332 46.0066 64.7747 47.2521C63.8095 50.427 63.1753 53.0009 62.7754 55.0913C61.6035 60.9838 62.2515 63.0351 62.9409 64.4331C63.619 65.6883 64.4572 66.8598 65.4365 67.9215C65.9933 68.7559 66.4908 69.6245 66.9256 70.5215Z" fill="#FFE1C4"/>
<path d="M45.8987 42.2489C45.8979 43.4377 45.5056 44.5965 44.7764 45.5638C44.0473 46.5311 43.0177 47.2586 41.8313 47.6449C41.201 47.8495 40.5397 47.9554 39.8734 47.9585C39.5031 47.9574 39.1336 47.9224 38.7704 47.854C37.5087 47.6321 36.3547 47.0344 35.4764 46.1478C34.5982 45.2612 34.0416 44.132 33.8877 42.9248C33.7338 41.7176 33.9908 40.4953 34.621 39.4361C35.2512 38.3769 36.2219 37.5359 37.3916 37.0359L37.5984 36.9575C38.5123 36.6093 39.5024 36.4788 40.4819 36.5773C41.4614 36.6758 42.4004 37.0004 43.2169 37.5226C44.0333 38.0448 44.7021 38.7487 45.1649 39.5727C45.6276 40.3966 45.8701 41.3155 45.8712 42.2489H45.8987Z" fill="#FFE1C4"/>
<path d="M50.793 39.9097C50.7931 40.8138 51.0767 41.6974 51.6079 42.4484C52.1392 43.1993 52.894 43.7837 53.7765 44.1272C54.659 44.4707 55.6293 44.5579 56.5642 44.3777C57.4991 44.1975 58.3564 43.758 59.0271 43.115C59.6978 42.4721 60.1517 41.6548 60.3311 40.7668C60.5105 39.8789 60.4073 38.9605 60.0347 38.1282C59.662 37.296 59.0366 36.5875 58.2381 36.0928C57.4395 35.5981 56.5038 35.3395 55.5498 35.3499C54.2821 35.3603 53.0702 35.8457 52.1788 36.7C51.2875 37.5544 50.7893 38.7083 50.793 39.9097Z" fill="#FFE1C4"/>
<path d="M69.766 32.2274C55.1371 32.75 49.4702 31.156 39.3361 33.0897C38.9362 33.1681 38.0814 33.3379 36.9646 33.5992C36.5351 32.6921 36.4475 31.6728 36.7164 30.7118C36.785 30.4694 36.887 30.2365 37.0197 30.0193C37.1401 29.7933 37.2832 29.5789 37.4472 29.3791C39.1431 27.354 42.3005 27.55 44.934 25.8254L45.3614 25.5379L45.4855 25.4465C45.872 25.128 46.1903 24.7421 46.4231 24.3098C47.1974 22.7002 47.2815 20.8684 46.6575 19.2012C46.361 18.4286 45.9221 17.712 45.3614 17.0846L48.7808 15.1248L52.4346 12.355C52.931 13.5962 53.6617 15.3469 54.6269 17.4374C56.6675 21.8535 57.7568 24.0485 59.039 25.0022C62.7342 27.746 67.1463 25.551 69.1594 28.2163C69.9138 29.4246 70.1319 30.867 69.766 32.2274Z" fill="#FFE1C4"/>
<path d="M51.3315 26.9882C51.2238 27.1925 51.0476 27.3572 50.8306 27.4565C50.6135 27.5558 50.3678 27.5841 50.132 27.5369C49.9175 27.4564 49.726 27.3293 49.5727 27.166C49.4195 27.0026 49.3087 26.8074 49.2495 26.5962L51.3315 26.9882Z" fill="#FDCFA0"/>
<path d="M48.7943 28.3338C48.6098 28.4664 48.4111 28.5803 48.2014 28.6735C47.5457 28.9562 46.8146 29.0428 46.1056 28.9217C44.7146 28.7505 43.3339 28.5107 41.9692 28.2031L45.9126 28.3991L48.7943 28.3338Z" fill="#FDCFA0"/>
<path d="M51.3315 28.3338C51.6271 28.4649 51.931 28.5783 52.2416 28.6735C53.2747 28.9588 54.3581 29.0432 55.4266 28.9217C58.1841 28.6996 60.7763 28.3338 61.6449 28.2031L55.6609 28.3991L51.3315 28.3338Z" fill="#FDCFA0"/>
<path d="M44.065 75.8787C52.5937 75.8787 59.5075 69.3272 59.5075 61.2455C59.5075 53.1638 52.5937 46.6123 44.065 46.6123C35.5364 46.6123 28.6226 53.1638 28.6226 61.2455C28.6226 69.3272 35.5364 75.8787 44.065 75.8787Z" fill="#FFE1C4"/>
<path d="M50.3258 22.6635C50.0861 23.3517 49.5687 23.9221 48.8867 24.2501C48.2048 24.5782 47.4135 24.6372 46.6858 24.4143L46.4238 24.3098C47.1982 22.7002 47.2822 20.8684 46.6582 19.2012C47.311 18.9095 48.0585 18.872 48.7402 19.0967C49.4483 19.3719 50.0127 19.9016 50.3098 20.57C50.6069 21.2384 50.6127 21.9911 50.3258 22.6635Z" fill="#FDCFA0"/>
<path d="M53.716 15.843C52.8982 18.2675 51.3734 20.4235 49.3177 22.0621C49 22.3014 48.647 22.4951 48.2698 22.6369C47.886 22.7878 47.4825 22.8888 47.0702 22.9374C45.3054 23.1595 42.6168 21.3043 42.3824 21.1475C41.1738 20.4369 40.1695 19.4539 39.4593 18.2862C38.9216 17.2671 39.0181 16.7314 38.2046 15.0721C37.7634 14.1967 37.4876 13.7656 37.1429 13.243V13.1646C37.0188 12.9555 36.881 12.7203 36.7431 12.459C36.5934 12.21 36.4599 11.9526 36.3433 11.6882C35.4522 10.126 35.1971 8.30822 35.6263 6.57963C36.1767 5.18841 37.133 3.97407 38.3838 3.07811C38.7928 2.77871 39.221 2.5038 39.6661 2.255L40.1625 1.99369C41.4496 1.3737 42.8557 1.00666 44.2963 0.914606C45.7369 0.822552 47.1823 1.00739 48.5456 1.45801C54.0607 3.77058 55.0673 11.3877 53.716 15.843Z" fill="#FFE1C4"/>
<path d="M49.0015 11.5195C48.6066 12.1538 48.0003 12.6456 47.278 12.9175C46.892 13.0612 46.0095 13.3878 45.4994 12.9175C45.3781 12.8097 45.2841 12.6773 45.2244 12.5302C45.1647 12.3832 45.1409 12.2252 45.1547 12.0682C45.1868 11.7884 45.3238 11.5288 45.5407 11.3366C45.8818 11.0075 46.3214 10.7859 46.8 10.7018C47.2785 10.6176 47.7727 10.675 48.2156 10.8662C48.5278 11.0228 48.797 11.2465 49.0015 11.5195Z" fill="#FDCFA0"/>
<path d="M46.0781 13.4132C45.8579 13.4327 45.6364 13.4327 45.4162 13.4132C45.3676 13.4112 45.3199 13.3995 45.2764 13.3788C45.2329 13.3581 45.1945 13.3288 45.1637 13.293C45.133 13.2572 45.1106 13.2156 45.0981 13.171C45.0855 13.1264 45.0831 13.0798 45.0909 13.0343C45.0988 12.9887 45.1167 12.9453 45.1436 12.9068C45.1705 12.8683 45.2056 12.8356 45.2468 12.8109C45.2879 12.7862 45.3342 12.7701 45.3824 12.7636C45.4306 12.757 45.4797 12.7603 45.5265 12.773C46.0137 12.852 46.5134 12.8252 46.9881 12.6946C47.8473 12.4561 48.5836 11.9258 49.0563 11.2052C49.0813 11.1688 49.1137 11.1376 49.1517 11.1132C49.1896 11.0889 49.2324 11.072 49.2773 11.0635C49.3222 11.055 49.3685 11.055 49.4134 11.0636C49.4583 11.0723 49.501 11.0893 49.5388 11.1137C49.5768 11.1362 49.6095 11.1658 49.635 11.2006C49.6605 11.2354 49.6783 11.2748 49.6873 11.3163C49.6964 11.3578 49.6964 11.4006 49.6875 11.4422C49.6785 11.4837 49.6608 11.5231 49.6353 11.558C49.0697 12.4137 48.191 13.0417 47.1673 13.3218C46.8111 13.4039 46.4439 13.4347 46.0781 13.4132Z" fill="#122275"/>
<path d="M38.5773 15.7387C39.2084 15.8741 39.8666 15.8425 40.48 15.6473C40.7971 15.5428 41.8588 15.2161 41.8588 14.6021C41.8514 14.4438 41.8051 14.2894 41.7238 14.1511C41.6424 14.0127 41.5281 13.8943 41.39 13.8051C41.2381 13.7036 41.0635 13.6365 40.8798 13.6091C40.0663 13.4654 38.4532 13.8181 38.2739 14.7458C38.2506 14.9221 38.2654 15.1012 38.3176 15.2719C38.3697 15.4426 38.4581 15.6015 38.5773 15.7387Z" fill="#FDCFA0"/>
<path d="M39.1157 16.2222C38.6485 16.2212 38.1839 16.1552 37.7369 16.0262C37.6492 16.0002 37.5759 15.9422 37.5332 15.8651C37.4906 15.7879 37.482 15.6978 37.5094 15.6146C37.5369 15.5315 37.598 15.462 37.6795 15.4216C37.7609 15.3812 37.856 15.3731 37.9438 15.3991C38.7981 15.6651 39.7259 15.6232 40.5497 15.2815C40.9953 15.0855 41.3941 14.8054 41.7216 14.4584C41.7526 14.4271 41.79 14.4022 41.8315 14.3852C41.873 14.3682 41.9177 14.3594 41.9629 14.3594C42.0081 14.3594 42.0529 14.3682 42.0944 14.3852C42.1359 14.4022 42.1733 14.4271 42.2042 14.4584C42.2674 14.5194 42.3028 14.6015 42.3028 14.687C42.3028 14.7725 42.2674 14.8546 42.2042 14.9156C41.8197 15.3389 41.3406 15.6757 40.8016 15.9017C40.2626 16.1277 39.6773 16.2372 39.0881 16.2222H39.1157Z" fill="#122275"/>
<path d="M49.2762 8.76185C48.2843 8.84967 47.3073 9.05149 46.3669 9.36286C45.5535 9.63917 44.7763 10.003 44.0505 10.4473C44.0011 10.303 43.9687 10.1541 43.954 10.0031C43.9374 9.66912 43.9938 9.33553 44.1194 9.02316C44.9054 8.77492 45.5672 8.592 46.0636 8.47442C46.6365 8.29362 47.2386 8.20959 47.8422 8.22617C48.3628 8.27739 48.8587 8.46264 49.2762 8.76185Z" fill="#122275"/>
<path d="M43.6785 9.14114C43.6534 9.33203 43.6534 9.52513 43.6785 9.71602C43.6583 9.99147 43.7308 10.2659 43.8857 10.4999C43.9086 10.2871 43.9086 10.0726 43.8857 9.85974C43.8515 9.6388 43.8515 9.41434 43.8857 9.1934C43.8756 9.14158 43.8756 9.08844 43.8857 9.03662L43.6785 9.14114Z" fill="#122275"/>
<path d="M40.0395 12.3028C39.1888 12.4583 38.3604 12.7083 37.5714 13.0475L37.144 13.2435V13.1651C37.0199 12.956 36.882 12.7209 36.7441 12.4596L37.213 12.1982C37.6542 11.9761 38.247 11.6626 39.0054 11.3359C39.3275 11.4653 39.6115 11.6671 39.8327 11.9239C39.9166 12.0423 39.986 12.1694 40.0395 12.3028Z" fill="#122275"/>
<path d="M39.3633 11.127C39.5329 11.2326 39.686 11.3601 39.8183 11.5058C40.0249 11.6953 40.1728 11.9348 40.2457 12.1983C40.2457 12.1983 39.8597 11.8586 39.7631 11.741C39.6195 11.5648 39.4527 11.4068 39.2668 11.2707L39.1289 11.1792L39.3633 11.127Z" fill="#122275"/>
<path d="M44.0513 15.9218C43.7602 15.9084 43.4704 15.9669 43.2103 16.0916C42.9397 16.199 42.7058 16.3754 42.5347 16.6012C42.8258 16.6073 43.1144 16.5491 43.3776 16.4312C43.6409 16.3133 43.8716 16.1389 44.0513 15.9218Z" fill="#FDCFA0"/>
<path d="M43.2656 19.2019C43.221 19.2037 43.1765 19.1969 43.1347 19.1819C43.093 19.167 43.0548 19.1441 43.0226 19.1149C42.9904 19.0856 42.9648 19.0504 42.9473 19.0115C42.9298 18.9726 42.9209 18.9307 42.9209 18.8884C42.9206 18.8026 42.9546 18.72 43.016 18.657C43.0773 18.594 43.1616 18.5553 43.2518 18.5487C44.1031 18.54 44.9399 18.3384 45.6923 17.9607C46.3526 17.6379 46.9385 17.1938 47.4158 16.6542C47.4447 16.6207 47.4804 16.593 47.5207 16.5726C47.561 16.5522 47.6051 16.5395 47.6505 16.5353C47.696 16.531 47.7418 16.5353 47.7856 16.5479C47.8293 16.5604 47.8699 16.581 47.9052 16.6085C47.9405 16.6359 47.9698 16.6697 47.9914 16.7079C48.0129 16.746 48.0263 16.7878 48.0307 16.8309C48.0352 16.874 48.0307 16.9175 48.0174 16.9589C48.0042 17.0003 47.9825 17.0388 47.9535 17.0723C47.4169 17.6868 46.7559 18.1933 46.0094 18.5617C45.1557 18.9783 44.2119 19.2019 43.2518 19.215L43.2656 19.2019Z" fill="#FDCFA0"/>
<path d="M43.6103 19.1104C43.762 19.3586 44.7685 19.1104 45.6371 18.7576C46.5058 18.4048 47.4985 17.83 47.3882 17.4511C47.3882 17.4511 47.1952 17.3465 46.878 17.2551C45.582 16.9154 45.3752 16.8631 45.1822 16.9677C45.0415 17.0638 44.8886 17.1428 44.7271 17.2028H44.5479C44.2032 17.2943 44.1618 17.2028 44.0377 17.3204C43.8806 17.5638 43.7774 17.835 43.7344 18.1174C43.694 18.2373 43.6618 18.3595 43.6379 18.4832C43.5965 18.8883 43.5689 19.032 43.6103 19.1104Z" fill="#FDCFA0"/>
<path d="M45.5135 20.1163C45.4326 20.1108 45.3563 20.0784 45.2981 20.0249C45.2398 19.9714 45.2034 19.9001 45.1951 19.8236C45.1869 19.7471 45.2074 19.6703 45.253 19.6068C45.2987 19.5432 45.3665 19.4969 45.4446 19.4761L45.9685 19.3193C46.3551 19.162 46.7062 18.9358 47.0026 18.6529C47.0671 18.5931 47.1537 18.5596 47.2439 18.5596C47.3342 18.5596 47.4208 18.5931 47.4852 18.6529C47.5186 18.6834 47.5451 18.7199 47.5632 18.7603C47.5813 18.8008 47.5907 18.8442 47.5907 18.8881C47.5907 18.932 47.5813 18.9755 47.5632 19.0159C47.5451 19.0563 47.5186 19.0928 47.4852 19.1233C47.1306 19.4727 46.7034 19.7485 46.2305 19.9333C46.0241 20.0123 45.8122 20.0778 45.5963 20.1293L45.5135 20.1163Z" fill="#FDCFA0"/>
<path d="M44.9203 39.3873C44.6721 39.3873 44.548 39.1783 44.5894 39.0084L44.9065 37.3099C44.9233 37.2252 44.9747 37.1502 45.0496 37.1012C45.1245 37.0523 45.2168 37.0334 45.3064 37.0486C45.3958 37.0645 45.475 37.1132 45.5267 37.1842C45.5783 37.2552 45.5982 37.3427 45.5821 37.4275L45.265 39.1129C45.2518 39.1902 45.2097 39.2605 45.1464 39.3108C45.0832 39.3612 45.0029 39.3883 44.9203 39.3873Z" fill="#FDCFA0"/>
<path d="M45.086 37.5839C45.0274 37.5844 44.9697 37.5702 44.9188 37.5426C44.868 37.5151 44.8257 37.4752 44.7964 37.4272L44.107 36.395C44.0797 36.359 44.0603 36.3181 44.0502 36.2748C44.04 36.2315 44.0393 36.1867 44.048 36.1432C44.0568 36.0996 44.0748 36.0582 44.101 36.0214C44.1271 35.9846 44.1609 35.9533 44.2003 35.9293C44.2397 35.9053 44.2838 35.8892 44.33 35.8819C44.3761 35.8746 44.4234 35.8763 44.4688 35.8868C44.5143 35.8974 44.557 35.9166 44.5943 35.9433C44.6317 35.9701 44.6629 36.0037 44.6861 36.0422L45.3755 37.0875C45.4219 37.1605 45.4364 37.2478 45.4158 37.3308C45.3952 37.4139 45.3411 37.4859 45.2652 37.5317C45.2128 37.5666 45.15 37.5849 45.086 37.5839Z" fill="#FDCFA0"/>
<path d="M45.2507 37.7409C45.1654 37.741 45.0826 37.7133 45.0163 37.6625C44.9522 37.5992 44.9165 37.515 44.9165 37.4273C44.9165 37.3397 44.9522 37.2554 45.0163 37.1921L46.2021 35.8856C46.233 35.8544 46.2704 35.8295 46.3119 35.8124C46.3534 35.7954 46.3981 35.7866 46.4433 35.7866C46.4885 35.7866 46.5333 35.7954 46.5748 35.8124C46.6163 35.8295 46.6537 35.8544 46.6846 35.8856C46.718 35.9161 46.7445 35.9526 46.7626 35.993C46.7808 36.0334 46.7901 36.0769 46.7901 36.1208C46.7901 36.1647 46.7808 36.2081 46.7626 36.2485C46.7445 36.289 46.718 36.3255 46.6846 36.356L45.4851 37.6625C45.4546 37.6912 45.4178 37.7132 45.3772 37.7267C45.3367 37.7403 45.2934 37.7451 45.2507 37.7409Z" fill="#FDCFA0"/>
<path d="M64.6372 47.2261C63.6721 50.401 63.0378 52.9749 62.638 55.0653C57.7768 50.9542 51.6858 48.3788 45.21 47.6965C44.1009 47.6005 42.987 47.5613 41.8733 47.5789C40.7841 47.5789 39.7638 47.6834 38.8124 47.788C37.3738 47.6851 36.0264 47.0805 35.0307 46.0911C34.035 45.1018 33.4616 43.7978 33.4214 42.4312C33.4499 41.2968 33.8444 40.1979 34.552 39.2824C35.2696 38.2832 36.2612 37.4882 37.4199 36.9829L37.6542 37.0874C39.127 37.7801 40.6825 38.3021 42.287 38.6422C43.1538 38.8247 44.0343 38.9426 44.9205 38.995C46.928 39.1146 48.9431 39.0313 50.932 38.7467C51.6895 38.7054 52.4416 38.6005 53.1795 38.4332C53.9668 38.1934 54.7107 37.8409 55.3855 37.3879L64.6372 47.2261Z" fill="#F66CC7"/>
<path d="M37.626 37.7414C37.5305 37.76 37.4319 37.76 37.3364 37.7414C37.1693 37.6674 37.0395 37.5343 36.975 37.3705C36.9105 37.2068 36.9166 37.0256 36.9917 36.866L41.8175 26.7534C41.8927 26.596 42.0307 26.4732 42.2013 26.412C42.3719 26.3508 42.5611 26.3561 42.7275 26.4268C42.8147 26.4573 42.8947 26.5039 42.9628 26.5638C43.0309 26.6238 43.0857 26.696 43.1242 26.7762C43.1626 26.8564 43.184 26.943 43.1869 27.031C43.1898 27.1191 43.1742 27.2068 43.1411 27.2891L38.3154 37.4017C38.2513 37.5186 38.1507 37.614 38.0273 37.6748C37.904 37.7356 37.7638 37.7589 37.626 37.7414Z" fill="#E6C7FF"/>
<path d="M54.6535 39.3482C54.5488 39.3679 54.4411 39.3679 54.3364 39.3482C54.1754 39.2651 54.0551 39.1257 54.001 38.9598C53.9469 38.7938 53.9634 38.6144 54.0469 38.4598L61.0649 25.7733C61.0995 25.687 61.153 25.6087 61.2219 25.5434C61.2908 25.4781 61.3735 25.4274 61.4645 25.3946C61.5556 25.3619 61.653 25.3477 61.7502 25.3532C61.8475 25.3587 61.9424 25.3836 62.0287 25.4264C62.1151 25.4691 62.1909 25.5288 62.2511 25.6013C62.3113 25.6738 62.3547 25.7577 62.3783 25.8472C62.4018 25.9368 62.4051 26.0301 62.3879 26.1209C62.3706 26.2118 62.3333 26.2981 62.2782 26.3743L55.2602 39.0477C55.1976 39.1454 55.108 39.2251 55.001 39.2781C54.8941 39.331 54.7739 39.3553 54.6535 39.3482Z" fill="#E6C7FF"/>
<path d="M42.6587 70.9531L44.0375 73.1742C51.77 71.5805 59.1177 68.6244 65.6983 64.4597C67.4363 63.3319 69.1115 62.1195 70.7171 60.8275C71.2436 60.6188 71.7188 60.3091 72.1129 59.918C72.5069 59.5268 72.8113 59.0626 73.0069 58.5546C73.2024 58.0465 73.2849 57.5056 73.2492 56.9659C73.2134 56.4262 73.0602 55.8993 72.7991 55.4184C72.4208 55.0192 71.9599 54.6978 71.4451 54.4742C70.9304 54.2506 70.3726 54.1295 69.8064 54.1185C69.2403 54.1075 68.6778 54.2067 68.1537 54.4101C67.6297 54.6135 67.1553 54.9167 66.76 55.3009C65.2332 55.9094 63.7501 56.6121 62.3203 57.4044C55.0265 61.4808 53.2478 65.7401 46.0643 69.4245C44.9611 69.9958 43.824 70.5062 42.6587 70.9531Z" fill="#FFE1C4"/>
<path d="M44.2169 70.6397C44.1423 70.6347 44.0714 70.6068 44.015 70.5603C43.9585 70.5138 43.9196 70.4511 43.904 70.3818C43.8885 70.3125 43.8971 70.2402 43.9287 70.176C43.9603 70.1117 44.013 70.0589 44.079 70.0256C44.6995 69.7512 45.3199 69.4507 45.9266 69.1371C48.9791 67.5379 51.7665 65.5217 54.1994 63.1532C56.6086 60.8413 59.3082 58.8185 62.2377 57.1301L62.4307 57.0256C62.5085 56.9923 62.5966 56.9875 62.6778 57.0121C62.7591 57.0368 62.8278 57.0891 62.8707 57.159C62.9136 57.229 62.9276 57.3115 62.91 57.3906C62.8924 57.4697 62.8445 57.5398 62.7754 57.5874L62.5824 57.6919C59.7027 59.3553 57.0494 61.3475 54.6819 63.6236C52.2276 66.0311 49.4122 68.0826 46.3265 69.712C45.706 70.0256 45.0718 70.3392 44.4375 70.6135L44.2169 70.6397Z" fill="#FDCFA0"/>
<path d="M45.6097 73.135C45.5183 73.1454 45.4263 73.1209 45.3539 73.067C45.2815 73.0131 45.2346 72.9342 45.2237 72.8476C45.2127 72.7609 45.2385 72.6737 45.2954 72.6051C45.3523 72.5365 45.4356 72.4921 45.527 72.4817C51.9019 71.0125 57.9927 68.6007 63.5754 65.335C63.6141 65.3111 63.6575 65.2949 63.7029 65.2873C63.7484 65.2796 63.795 65.2807 63.84 65.2904C63.885 65.3002 63.9275 65.3184 63.9649 65.344C64.0024 65.3696 64.034 65.4021 64.058 65.4395C64.1011 65.5133 64.1136 65.5997 64.0932 65.6818C64.0728 65.7639 64.021 65.8359 63.9476 65.8837C58.299 69.1853 52.1392 71.6277 45.6925 73.1219L45.6097 73.135Z" fill="#FDCFA0"/>
<path d="M43.858 70.561C40.8617 68.5365 37.5098 67.0324 33.9583 66.1188C33.8632 66.1585 33.7776 66.216 33.7065 66.2878C33.6355 66.3597 33.5804 66.4444 33.5447 66.5369C33.4727 66.7044 33.4727 66.892 33.5447 67.0595C33.0005 66.6548 32.534 66.1642 32.1659 65.6092C31.7247 64.9429 31.1732 64.6293 30.9388 64.7469C30.7044 64.8645 30.6906 65.4786 31.0491 66.1841C30.9578 66.2446 30.8785 66.3198 30.8147 66.4062C30.6792 66.6258 30.5987 66.872 30.5796 67.1257C30.5605 67.3794 30.6032 67.6339 30.7044 67.8695C30.6831 68.1174 30.6831 68.3664 30.7044 68.6143C30.738 69.8093 31.1835 70.9611 31.9729 71.8937L29.9598 71.0967C29.4773 71.0967 29.3118 71.0967 29.2704 71.1881C29.0774 71.6323 31.9453 73.8012 35.3371 74.2977C37.1895 74.4309 39.0524 74.2764 40.8523 73.8404C42.3451 73.5949 43.8226 73.2721 45.2782 72.8736C44.8232 72.1027 44.3406 71.3318 43.858 70.561Z" fill="#FFE1C4"/>
<path d="M36.509 74.7031C36.094 74.703 35.6795 74.6768 35.2681 74.6247C32.8752 74.3102 30.6671 73.2317 29.0084 71.5674C28.9581 71.4949 28.9258 71.4126 28.9139 71.3267C28.9019 71.2407 28.9107 71.1533 28.9395 71.0709C29.1049 70.692 29.6978 70.7443 29.9873 70.7704H30.0838L31.0628 71.1624C30.5968 70.3613 30.3458 69.4639 30.332 68.5493C30.3115 68.3058 30.3115 68.0612 30.332 67.8177C30.2185 67.5434 30.1756 67.2475 30.2068 66.9544C30.238 66.6613 30.3423 66.3795 30.5113 66.1322L30.6078 66.0146C30.332 65.3483 30.3045 64.6166 30.7457 64.3815C31.1869 64.1463 31.9728 64.682 32.4278 65.3614C32.6499 65.6836 32.9088 65.9815 33.1999 66.2498C33.3177 66.0165 33.5247 65.8343 33.779 65.7403C33.8464 65.721 33.9184 65.721 33.9858 65.7403C36.6253 66.4196 39.1605 67.421 41.5278 68.7192C42.3689 69.1765 43.2099 69.686 44.0096 70.2217C44.0474 70.2462 44.0795 70.278 44.1036 70.3149C44.1278 70.3517 44.1437 70.393 44.1501 70.436C44.1566 70.479 44.1536 70.5228 44.1413 70.5646C44.1289 70.6064 44.1076 70.6454 44.0786 70.679C44.0551 70.7154 44.0238 70.7467 43.9866 70.7708C43.9494 70.7948 43.9072 70.8111 43.8629 70.8185C43.8185 70.826 43.773 70.8243 43.7294 70.8138C43.6857 70.8032 43.645 70.784 43.6098 70.7574C42.8239 70.2347 42.0104 69.7383 41.1831 69.281C38.9111 68.0312 36.478 67.065 33.9444 66.4066C33.8813 66.4457 33.8368 66.5067 33.8204 66.5764C33.8204 66.6548 33.8204 66.7724 33.8204 66.8639C33.8544 66.9276 33.8634 67.0007 33.8457 67.0702C33.828 67.1396 33.7849 67.2008 33.7239 67.2428C33.6641 67.2907 33.5884 67.3169 33.5102 67.3169C33.4319 67.3169 33.3561 67.2907 33.2964 67.2428C32.7124 66.8166 32.209 66.2998 31.8073 65.7141C31.6338 65.4141 31.3761 65.1654 31.0628 64.9955C31.0435 65.3349 31.1196 65.6731 31.2834 65.9754C31.3208 66.044 31.3303 66.1232 31.3099 66.1979C31.2896 66.2727 31.2409 66.3377 31.1731 66.3805L31.0214 66.5242C30.9244 66.7066 30.8739 66.9079 30.8739 67.1121C30.8739 67.3163 30.9244 67.5177 31.0214 67.7001C31.0349 67.7471 31.0349 67.7967 31.0214 67.8438C31.0072 68.0744 31.0072 68.3056 31.0214 68.5363C31.0649 69.6611 31.4905 70.7425 32.2347 71.6197C32.2806 71.6782 32.3054 71.7492 32.3054 71.8222C32.3054 71.8951 32.2806 71.9661 32.2347 72.0247C32.1881 72.0835 32.1211 72.1249 32.0455 72.1416C31.9699 72.1583 31.8904 72.1493 31.8211 72.1162L29.8632 71.3453H29.7391C31.2991 72.726 33.2573 73.6357 35.3646 73.9584C37.1653 74.0952 38.9775 73.9495 40.7281 73.5272H40.8384C42.1537 73.3194 43.4563 73.0447 44.7404 72.7041C44.7848 72.6923 44.8312 72.6891 44.8769 72.6946C44.9226 72.7001 44.9667 72.7142 45.0065 72.7361C45.0464 72.7581 45.0812 72.7873 45.1089 72.8222C45.1366 72.8571 45.1566 72.8969 45.1678 72.9393C45.1802 72.9805 45.1835 73.0236 45.1775 73.0661C45.1716 73.1086 45.1565 73.1494 45.1332 73.1861C45.1099 73.2228 45.079 73.2547 45.0423 73.2796C45.0055 73.3046 44.9638 73.3221 44.9197 73.3312C43.6236 73.6709 42.2862 73.9584 40.9487 74.1805H40.8384C39.4132 74.4692 37.965 74.644 36.509 74.7031Z" fill="#FDCFA0"/>
<path d="M37.6257 69.7904H37.4878C36.8392 69.5452 36.2161 69.2434 35.6265 68.8889C34.8457 68.4403 34.1277 67.9004 33.4894 67.2819C33.4396 67.219 33.4154 67.1412 33.4213 67.0627C33.4272 66.9843 33.4627 66.9105 33.5214 66.8549C33.5801 66.7993 33.6579 66.7657 33.7407 66.7601C33.8235 66.7545 33.9056 66.7774 33.9719 66.8246C34.5547 67.3839 35.2023 67.8792 35.9022 68.301C36.461 68.6397 37.0518 68.9284 37.6671 69.1633C37.7096 69.1777 37.7485 69.2001 37.7815 69.2293C37.8144 69.2585 37.8408 69.2937 37.8588 69.3329C37.8769 69.372 37.8863 69.4143 37.8866 69.457C37.8868 69.4997 37.8778 69.5421 37.8601 69.5814C37.842 69.6317 37.8111 69.677 37.7703 69.7134C37.7294 69.7499 37.6798 69.7763 37.6257 69.7904Z" fill="#FDCFA0"/>
<path d="M33.7507 70.9136C33.6924 70.9128 33.6352 70.898 33.5846 70.8706C33.5339 70.8432 33.4915 70.804 33.4612 70.7568L30.7311 66.4844C30.7076 66.4475 30.692 66.4066 30.6851 66.364C30.6783 66.3214 30.6803 66.2779 30.6912 66.2361C30.7021 66.1942 30.7216 66.1548 30.7485 66.1201C30.7755 66.0853 30.8094 66.056 30.8483 66.0337C30.8873 66.0114 30.9305 65.9966 30.9754 65.9901C31.0204 65.9836 31.0663 65.9855 31.1105 65.9959C31.1546 66.0062 31.1962 66.0246 31.2329 66.0502C31.2695 66.0757 31.3005 66.1078 31.324 66.1447L34.0816 70.4694C34.1268 70.544 34.1392 70.6325 34.1159 70.7157C34.0927 70.7988 34.0358 70.87 33.9575 70.9136C33.8912 70.939 33.817 70.939 33.7507 70.9136Z" fill="#FDCFA0"/>
<path d="M35.2403 71.2536H35.1576L33.6823 70.9139C33.6379 70.9047 33.5958 70.8871 33.5585 70.8624C33.5212 70.8376 33.4895 70.8061 33.4651 70.7697C33.4408 70.7332 33.4242 70.6926 33.4166 70.6501C33.4089 70.6076 33.4102 70.564 33.4203 70.522C33.4299 70.4801 33.4485 70.4406 33.4748 70.4058C33.5011 70.3709 33.5347 70.3416 33.5735 70.3196C33.6122 70.2976 33.6553 70.2833 33.7001 70.2776C33.7449 70.272 33.7905 70.2751 33.834 70.2868L35.323 70.6134C35.4085 70.6378 35.4812 70.6915 35.5271 70.7639C35.573 70.8364 35.5888 70.9225 35.5713 71.0054C35.5529 71.0757 35.5105 71.1382 35.4506 71.1831C35.3907 71.228 35.3167 71.2528 35.2403 71.2536Z" fill="#FDCFA0"/>
<path d="M33.2686 71.9721C33.2103 71.9713 33.1532 71.9565 33.1025 71.9291C33.0519 71.9017 33.0094 71.8625 32.9791 71.8153L30.4421 68.0525C30.395 67.9774 30.3801 67.8881 30.4006 67.8029C30.4212 67.7177 30.4755 67.6434 30.5524 67.5952C30.6295 67.5512 30.7217 67.5375 30.8093 67.557C30.8969 67.5766 30.9729 67.6278 31.0212 67.6997L33.572 71.4625C33.6192 71.5376 33.6341 71.627 33.6135 71.7121C33.593 71.7973 33.5386 71.8717 33.4617 71.9198C33.405 71.9566 33.3373 71.9749 33.2686 71.9721Z" fill="#FDCFA0"/>
<path d="M34.8685 72.3903H34.7719L33.1725 71.9722C33.0842 71.9478 33.0092 71.8921 32.963 71.8167C32.9168 71.7413 32.903 71.652 32.9244 71.5672C32.95 71.484 33.0094 71.4139 33.0895 71.3723C33.1697 71.3306 33.264 71.3208 33.3518 71.3451L34.965 71.7632C35.0079 71.7737 35.0482 71.7924 35.0834 71.8179C35.1185 71.8435 35.1479 71.8756 35.1698 71.9121C35.1916 71.9487 35.2056 71.989 35.2106 72.0308C35.2157 72.0725 35.2119 72.1148 35.1994 72.1551C35.1806 72.2241 35.1376 72.285 35.0775 72.3278C35.0173 72.3705 34.9436 72.3926 34.8685 72.3903Z" fill="#FDCFA0"/>
<path d="M35.3515 73.5011C34.6806 73.4158 34.0231 73.2535 33.3936 73.0176C32.8285 72.8063 32.2954 72.5252 31.808 72.1815C31.7707 72.1567 31.739 72.1252 31.7146 72.0888C31.6903 72.0523 31.6738 72.0117 31.6661 71.9691C31.6584 71.9266 31.6597 71.8831 31.6698 71.841C31.68 71.799 31.6988 71.7593 31.7253 71.7242C31.7512 71.6884 31.7847 71.658 31.8236 71.6351C31.8626 71.6122 31.906 71.5972 31.9514 71.591C31.9968 71.5849 32.043 71.5878 32.0872 71.5994C32.1313 71.6111 32.1724 71.6313 32.2079 71.6588C32.6591 71.9618 33.1447 72.216 33.6556 72.4166C34.2149 72.6242 34.798 72.7689 35.3929 72.8478C35.439 72.8508 35.484 72.863 35.5249 72.8835C35.5658 72.904 35.6017 72.9324 35.6303 72.9669C35.6589 73.0014 35.6795 73.0411 35.6908 73.0836C35.7022 73.1261 35.704 73.1704 35.6962 73.2136C35.6861 73.2933 35.6453 73.3666 35.5817 73.4196C35.5181 73.4727 35.4362 73.5016 35.3515 73.5011Z" fill="#FDCFA0"/>
<path d="M33.3377 50.5846C32.9478 50.1805 32.6818 49.6831 32.5684 49.1462C32.4551 48.6093 32.4987 48.0533 32.6946 47.5382C32.8905 47.023 33.2311 46.5684 33.6798 46.2234C34.1285 45.8784 34.6681 45.6561 35.2404 45.5805L39.2113 44.5745C39.6969 44.473 40.2013 44.4842 40.6814 44.607C41.1615 44.7299 41.6031 44.9607 41.9689 45.28C42.163 45.4808 42.313 45.7162 42.4101 45.9725C43.5987 46.9833 44.6626 48.1185 45.5813 49.3564C45.7606 49.6439 45.9812 50.0097 45.8295 50.3233C45.6779 50.6368 44.9057 50.7805 44.7678 50.7805C44.8133 50.9166 44.8133 51.0626 44.7678 51.1986C44.4783 51.865 43.1271 52.1132 41.4174 51.8519L36.4537 51.3162C36.6054 51.4207 38.9356 53.1715 38.4944 54.0861C38.4388 54.1924 38.3573 54.2846 38.2566 54.3551C38.1559 54.4255 38.0388 54.4722 37.9152 54.4911C37.3913 54.4911 36.9915 53.8378 36.3848 53.0931C35.8164 52.4112 35.1585 51.8009 34.4269 51.277C34.0668 51.1268 33.7394 50.9141 33.4618 50.6499L33.3377 50.5846Z" fill="#FFE1C4"/>
<path d="M37.8603 54.7261C37.3088 54.7261 36.909 54.2296 36.4815 53.6547L36.123 53.1975C35.5778 52.5373 34.9426 51.9486 34.2341 51.4467C33.926 51.3164 33.6419 51.1399 33.393 50.9241C33.36 50.8948 33.3338 50.8593 33.3158 50.82C33.2978 50.7807 33.2886 50.7383 33.2886 50.6954C33.2886 50.6526 33.2978 50.6102 33.3158 50.5709C33.3338 50.5315 33.36 50.4961 33.393 50.4668C33.4574 50.407 33.5441 50.3734 33.6343 50.3734C33.7245 50.3734 33.8112 50.407 33.8756 50.4668C34.0936 50.6531 34.3399 50.8073 34.6064 50.9241C35.3801 51.4673 36.0754 52.1042 36.6745 52.8186C36.8124 52.9753 36.9365 53.1452 37.0468 53.2889C37.3777 53.7201 37.6948 54.1251 37.9154 54.099C37.9777 54.0883 38.0364 54.0638 38.0868 54.0275C38.1371 53.9911 38.1777 53.944 38.205 53.8899C38.4118 53.4588 37.3639 52.3221 36.2747 51.512C36.2154 51.4688 36.1726 51.4084 36.1527 51.3401C36.1328 51.2717 36.1369 51.1991 36.1644 51.1331C36.1964 51.0692 36.2473 51.0153 36.3109 50.9782C36.3745 50.9411 36.4482 50.9223 36.5229 50.9241L41.4865 51.4728C43.21 51.7211 44.2441 51.4728 44.4923 51.0155C44.5072 50.929 44.5072 50.8408 44.4923 50.7542C44.4578 50.6747 44.4578 50.5855 44.4923 50.506C44.5234 50.4718 44.5613 50.4437 44.6039 50.4235C44.6465 50.4033 44.6929 50.3914 44.7405 50.3884C45.0576 50.3884 45.4161 50.2839 45.4988 50.114C45.5815 49.9442 45.3609 49.5914 45.2782 49.4608C44.9013 48.9144 44.477 48.3987 44.0097 47.9191C43.9466 47.858 43.9112 47.7759 43.9112 47.6904C43.9112 47.6049 43.9466 47.5228 44.0097 47.4618C44.0419 47.4302 44.0804 47.405 44.1231 47.3878C44.1657 47.3707 44.2116 47.3618 44.2579 47.3618C44.3042 47.3618 44.3501 47.3707 44.3928 47.3878C44.4354 47.405 44.4739 47.4302 44.5061 47.4618C45.0099 47.9713 45.4709 48.5173 45.8849 49.0949C46.0364 49.2766 46.1393 49.4903 46.185 49.7178C46.2306 49.9453 46.2175 50.1798 46.1468 50.4015C46.0358 50.5722 45.8847 50.7163 45.7054 50.8228C45.5261 50.9293 45.3233 50.9953 45.1127 51.0155C45.0979 51.1044 45.0749 51.1918 45.0438 51.2769C44.6715 52.0869 43.2514 52.4135 41.3073 52.1261L37.4743 51.708C38.2464 52.4135 39.115 53.4196 38.7565 54.1774C38.6763 54.3346 38.5562 54.4706 38.4071 54.5731C38.2579 54.6757 38.0843 54.7417 37.9017 54.7653L37.8603 54.7261Z" fill="#FDCFA0"/>
<path d="M44.6992 51.0412L39.3082 50.3227C39.219 50.3097 39.1387 50.2642 39.0846 50.1958C39.0304 50.1274 39.0068 50.0416 39.0186 49.9568C39.0236 49.9142 39.0377 49.8731 39.0602 49.8358C39.0826 49.7986 39.1128 49.7662 39.149 49.7404C39.1852 49.7147 39.2265 49.6963 39.2705 49.6863C39.3145 49.6764 39.3601 49.675 39.4047 49.6824L44.7544 50.388C44.8458 50.388 44.9335 50.4224 44.9981 50.4836C45.0628 50.5449 45.0991 50.628 45.0991 50.7146C45.0991 50.8012 45.0628 50.8843 44.9981 50.9456C44.9335 51.0068 44.8458 51.0412 44.7544 51.0412H44.6992Z" fill="#FDCFA0"/>
<path d="M45.8018 49.996H45.6915L40.0384 48.1668C39.9952 48.1553 39.9551 48.1352 39.9206 48.1079C39.8862 48.0806 39.8584 48.0467 39.8388 48.0084C39.8193 47.9701 39.8085 47.9284 39.8072 47.8858C39.806 47.8433 39.8143 47.801 39.8316 47.7618C39.8601 47.681 39.9206 47.614 40.0005 47.575C40.0803 47.5359 40.1731 47.5279 40.259 47.5528L45.8983 49.3688C45.942 49.3819 45.9823 49.4034 46.0168 49.4319C46.0513 49.4605 46.0791 49.4956 46.0986 49.5349C46.118 49.5742 46.1286 49.6169 46.1298 49.6602C46.1309 49.7036 46.1225 49.7468 46.1051 49.7869C46.0828 49.8468 46.0419 49.8988 45.9877 49.9361C45.9335 49.9734 45.8687 49.9943 45.8018 49.996Z" fill="#FDCFA0"/>
<path d="M44.0518 47.8667C44.0067 47.8783 43.9591 47.8783 43.9139 47.8667L39.681 45.9722C39.5982 45.9328 39.5347 45.8645 39.5038 45.7817C39.473 45.6988 39.4772 45.6079 39.5156 45.528C39.5569 45.4527 39.6275 45.3956 39.7124 45.3688C39.7973 45.342 39.8899 45.3475 39.9706 45.3842L44.2035 47.2787C44.2453 47.2955 44.283 47.3203 44.3142 47.3515C44.3455 47.3828 44.3696 47.4197 44.3851 47.4602C44.4007 47.5006 44.4073 47.5437 44.4045 47.5866C44.4017 47.6296 44.3896 47.6715 44.3689 47.7099C44.3363 47.761 44.2894 47.8026 44.2335 47.8303C44.1776 47.8579 44.1147 47.8705 44.0518 47.8667Z" fill="#FDCFA0"/>
<path d="M48.2706 0.674621C50.1994 1.23976 51.8612 2.42199 52.9722 4.01935C53.055 4.1892 53.1239 4.33292 53.1791 4.47664C53.4374 5.18084 53.5951 5.91467 53.6478 6.65855C53.7444 8.35704 55.0266 9.1671 55.3713 11.1008C55.7574 13.4656 54.3234 15.7782 53.8547 15.6998C53.3859 15.6214 53.8547 14.2103 53.2756 12.3812C52.711 10.8326 51.6863 9.47154 50.325 8.46157L43.9549 5.4696C43.0449 6.6561 41.9688 7.71979 40.7561 8.63141C40.0392 9.16709 39.8737 9.19322 38.9775 9.85956C36.6198 11.5972 36.3165 12.4726 35.7925 12.342C34.8274 12.1199 34.4137 8.90579 35.3375 6.16207C35.914 4.37131 37.072 2.79852 38.6466 1.66759C42.6589 -1.16759 47.4984 0.413314 48.2706 0.674621Z" fill="#3F469A"/>
<path d="M53.5244 9.72904C53.7434 9.95 53.9041 10.2169 53.9933 10.508C54.0826 10.7991 54.0979 11.1061 54.0379 11.4039C53.9779 11.7016 53.8444 11.9817 53.6484 12.2212C53.4523 12.4607 53.1992 12.6528 52.9097 12.7818C52.6202 12.9109 52.3026 12.9731 51.9828 12.9635C51.6631 12.9539 51.3503 12.8728 51.0701 12.7266C50.7898 12.5805 50.55 12.3736 50.3703 12.1229C50.1906 11.8721 50.076 11.5846 50.036 11.2838C49.7064 10.7958 49.5897 10.2055 49.7106 9.63756C49.8315 9.06959 50.1806 8.56834 50.6841 8.23959C51.6217 7.80843 52.9039 8.47476 53.5244 9.72904Z" fill="#FFE1C4"/>
<path d="M52.242 13.2174C52.1367 13.2303 52.0301 13.2303 51.9249 13.2174C51.8357 13.2045 51.7554 13.1589 51.7013 13.0905C51.6471 13.0221 51.6235 12.9364 51.6353 12.8516C51.642 12.8085 51.6577 12.767 51.6816 12.7297C51.7054 12.6925 51.7369 12.6601 51.7742 12.6345C51.8114 12.6089 51.8537 12.5907 51.8986 12.5809C51.9434 12.571 51.9898 12.5698 52.0352 12.5772C52.2726 12.6179 52.5174 12.5906 52.7383 12.4988C52.9757 12.3644 53.1711 12.1726 53.3044 11.943C53.4376 11.7133 53.504 11.4543 53.4967 11.1923C53.4967 11.0094 53.6345 10.8395 53.8552 10.8787C53.8998 10.8787 53.944 10.8872 53.9851 10.9038C54.0262 10.9204 54.0632 10.9446 54.0942 10.9751C54.1251 11.0057 54.1492 11.0418 54.165 11.0814C54.1808 11.1209 54.188 11.1631 54.1861 11.2054C54.2062 11.5985 54.108 11.989 53.903 12.3314C53.6979 12.6737 53.3945 12.9538 53.0279 13.139C52.7745 13.2166 52.5069 13.2433 52.242 13.2174Z" fill="#FDCFA0"/>
<path d="M53.8274 11.1139C53.7423 11.1088 53.6616 11.0761 53.5989 11.0215C53.5361 10.9668 53.4951 10.8933 53.4827 10.8134C53.4645 10.5438 53.3993 10.2789 53.2896 10.0295C53.2719 9.99016 53.263 9.94782 53.2632 9.90509C53.2634 9.86235 53.2728 9.82011 53.2909 9.78096C53.309 9.7418 53.3353 9.70656 53.3683 9.6774C53.4013 9.64824 53.4402 9.62578 53.4827 9.61138C53.5669 9.58127 53.6601 9.58354 53.7426 9.61772C53.825 9.6519 53.8901 9.71527 53.9239 9.7943C54.0581 10.0982 54.1418 10.4199 54.1721 10.7481C54.1778 10.791 54.1746 10.8346 54.1624 10.8763C54.1502 10.9181 54.1294 10.9571 54.1012 10.9911C54.0729 11.0252 54.0378 11.0535 53.9979 11.0746C53.958 11.0957 53.9141 11.1091 53.8687 11.1139H53.8274Z" fill="#FDCFA0"/>
<path d="M53.3995 9.80704C53.3386 9.80992 53.278 9.79681 53.2245 9.76914C53.1709 9.74148 53.1265 9.70033 53.0961 9.65026C52.5308 8.70955 51.5243 8.21307 50.7935 8.5397C50.6373 8.60887 50.5004 8.71179 50.3937 8.8402C50.3293 8.90005 50.2426 8.93357 50.1524 8.93357C50.0622 8.93357 49.9756 8.90005 49.9111 8.8402C49.8781 8.81088 49.8519 8.77546 49.8339 8.73614C49.8159 8.69681 49.8066 8.65441 49.8066 8.61156C49.8066 8.56871 49.8159 8.52631 49.8339 8.48699C49.8519 8.44766 49.8781 8.41224 49.9111 8.38292C50.0842 8.17589 50.3062 8.0103 50.5592 7.8995C51.1749 7.70992 51.8433 7.74558 52.4327 7.99946C53.0222 8.25335 53.49 8.70707 53.7442 9.27136C53.7894 9.34597 53.8017 9.43447 53.7785 9.51765C53.7553 9.60082 53.6983 9.67195 53.6201 9.71558C53.5593 9.76838 53.4817 9.80055 53.3995 9.80704Z" fill="#FDCFA0"/>
<path d="M51.9376 12.0678C51.8484 12.0715 51.7612 12.0422 51.6944 11.9861C51.6275 11.9301 51.5862 11.8517 51.5791 11.7673L51.4412 9.31104C51.4374 9.22307 51.4697 9.13712 51.5315 9.07131C51.5932 9.0055 51.6795 8.96498 51.7722 8.95828C51.8174 8.95653 51.8626 8.96326 51.9052 8.97807C51.9477 8.99289 51.9867 9.01551 52.02 9.04463C52.0533 9.07375 52.0802 9.10881 52.0992 9.1478C52.1182 9.18679 52.1288 9.22894 52.1306 9.27185L52.2685 11.7281C52.2744 11.7708 52.2706 11.8141 52.2574 11.8552C52.2441 11.8963 52.2217 11.9342 52.1916 11.9664C52.1616 11.9986 52.1246 12.0244 52.0831 12.0418C52.0417 12.0593 51.9968 12.0682 51.9514 12.0678H51.9376Z" fill="#FDCFA0"/>
<path d="M51.7727 10.6692C51.7032 10.665 51.6363 10.6424 51.5797 10.6039L50.8351 10.1466C50.7971 10.1226 50.7644 10.0917 50.739 10.0557C50.7136 10.0197 50.6959 9.97937 50.6869 9.93691C50.678 9.89444 50.6779 9.85072 50.6868 9.80824C50.6957 9.76576 50.7133 9.72535 50.7386 9.68932C50.764 9.65329 50.7966 9.62234 50.8345 9.59825C50.8725 9.57415 50.9151 9.55738 50.9599 9.54888C51.0047 9.54039 51.0509 9.54035 51.0957 9.54875C51.1405 9.55715 51.1832 9.57384 51.2212 9.59786L51.9657 10.0682C52.0037 10.0907 52.0364 10.1203 52.0619 10.1551C52.0875 10.1899 52.1053 10.2292 52.1143 10.2708C52.1233 10.3123 52.1233 10.3551 52.1144 10.3967C52.1055 10.4382 52.0877 10.4776 52.0623 10.5124C52.0319 10.5596 51.9895 10.5988 51.9388 10.6262C51.8882 10.6536 51.8311 10.6684 51.7727 10.6692Z" fill="#FDCFA0"/>
<path d="M67.4631 56.0322H65.9878C65.8963 56.0322 65.8087 55.9978 65.744 55.9365C65.6794 55.8752 65.6431 55.7922 65.6431 55.7055C65.6431 55.6189 65.6794 55.5358 65.744 55.4746C65.8087 55.4133 65.8963 55.3789 65.9878 55.3789H67.4768C67.5683 55.3789 67.656 55.4133 67.7206 55.4746C67.7852 55.5358 67.8215 55.6189 67.8215 55.7055C67.8215 55.7922 67.7852 55.8752 67.7206 55.9365C67.656 55.9978 67.5683 56.0322 67.4768 56.0322H67.4631Z" fill="#FDCFA0"/>
<path d="M65.0916 46.0111C65.0047 46.0114 64.921 45.9806 64.8571 45.9248C64.7931 45.8691 64.7538 45.7926 64.7469 45.7106L64.2918 40.6151C64.284 40.5305 64.3114 40.4463 64.368 40.3804C64.4246 40.3146 64.5061 40.2722 64.5952 40.2623C64.6397 40.2569 64.685 40.2601 64.7282 40.2718C64.7714 40.2835 64.8117 40.3034 64.8465 40.3302C64.8813 40.3571 64.91 40.3905 64.9308 40.4282C64.9516 40.466 64.964 40.5073 64.9674 40.5498L65.4362 45.6583C65.44 45.7012 65.4348 45.7445 65.4208 45.7855C65.4069 45.8265 65.3846 45.8644 65.3551 45.8972C65.3257 45.93 65.2896 45.957 65.2491 45.9765C65.2086 45.996 65.1644 46.0078 65.1191 46.0111H65.0916Z" fill="#FDCFA0"/>
<path d="M62.4444 65.2698C58.5615 69.2782 55.4239 73.8815 53.1651 78.8839C52.7652 79.9291 52.4481 81.2226 51.4278 83.4567C50.1593 86.2135 49.2769 87.2457 49.7181 87.7814C50.1593 88.317 51.221 88.0035 55.2333 86.71C58.5562 85.6387 60.2245 85.103 61.3689 84.6326C65.827 82.7904 70.1439 80.6555 74.2882 78.2437C83.8018 72.2336 92.571 58.0838 89.3032 54.5039C86.0355 50.924 70.5655 57.0517 62.4444 65.2698Z" fill="#E3E3FD"/>
<path d="M49.6502 88.108C49.5733 88.1083 49.4985 88.0843 49.4377 88.0398C49.3768 87.9953 49.3334 87.9327 49.3144 87.8621C49.2954 87.7915 49.3018 87.717 49.3327 87.6502C49.3635 87.5835 49.4171 87.5285 49.4847 87.4939C65.1003 79.3701 78.6052 68.0459 89.0147 54.3471C89.0677 54.2761 89.1483 54.2279 89.2388 54.2132C89.3293 54.1985 89.4223 54.2185 89.4972 54.2687C89.5722 54.319 89.623 54.3954 89.6385 54.4811C89.654 54.5669 89.633 54.655 89.58 54.726C79.1131 68.5095 65.527 79.9015 49.8156 88.0688C49.7659 88.0973 49.7082 88.1109 49.6502 88.108Z" fill="#E6C7FF"/>
<path d="M34.6891 75.3037C38.5309 76.749 42.0876 78.7986 45.2093 81.3661C45.8159 81.9279 46.4502 82.6726 47.8565 83.8093C49.58 85.2073 50.5038 85.6254 50.3797 86.0957C50.2556 86.5661 49.4835 86.6967 46.464 87.0495C43.9408 87.35 42.6861 87.4937 41.8036 87.5329C38.2951 87.6854 34.7796 87.6024 31.2834 87.2847C23.1348 86.2264 12.7663 79.6676 13.7038 76.3751C14.6414 73.0826 26.6645 72.4294 34.6891 75.3037Z" fill="#E3E3FD"/>
<path d="M50.3802 86.4222C44.6247 86.144 38.912 85.33 33.3246 83.992C26.4373 82.3264 19.7922 79.8647 13.5389 76.6624C13.4995 76.6432 13.4645 76.6166 13.4361 76.5843C13.4077 76.5521 13.3864 76.5147 13.3736 76.4745C13.3607 76.4343 13.3565 76.392 13.3613 76.3502C13.366 76.3084 13.3795 76.268 13.401 76.2312C13.4201 76.1927 13.4472 76.1583 13.4807 76.1301C13.5142 76.1018 13.5534 76.0803 13.596 76.0669C13.6386 76.0534 13.6835 76.0483 13.7283 76.0519C13.773 76.0554 13.8164 76.0675 13.856 76.0875C25.1265 81.8551 37.6148 85.1629 50.4078 85.7689C50.4968 85.7756 50.5796 85.8148 50.6387 85.8781C50.6979 85.9415 50.7288 86.0241 50.7249 86.1086C50.725 86.1509 50.716 86.1928 50.6985 86.2317C50.681 86.2706 50.6554 86.3058 50.6232 86.3351C50.591 86.3644 50.5528 86.3872 50.5111 86.4022C50.4693 86.4171 50.4248 86.424 50.3802 86.4222Z" fill="#E6C7FF"/>
<path d="M56.2953 76.571C54.3087 78.4329 52.0063 79.9655 49.484 81.1047C48.9463 81.3138 48.2845 81.4836 47.1539 81.9932C45.7751 82.6334 45.2511 83.0645 44.9754 82.8685C44.6996 82.6726 44.8237 82.1761 45.4166 80.2555C45.8992 78.7007 46.1474 77.9168 46.368 77.3941C47.2122 75.2896 48.2168 73.2461 49.3737 71.2796C52.283 66.772 59.3976 62.4605 61.3003 63.8976C63.203 65.3348 60.3627 72.6384 56.2953 76.571Z" fill="#E6C7FF"/>
<path d="M44.9753 83.1953C44.9258 83.2087 44.8733 83.2087 44.8237 83.1953C44.7819 83.1785 44.7442 83.1537 44.7129 83.1225C44.6817 83.0912 44.6575 83.0542 44.642 83.0138C44.6265 82.9734 44.6199 82.9303 44.6227 82.8874C44.6255 82.8444 44.6376 82.8025 44.6583 82.7641C46.4068 79.4486 48.4991 76.3062 50.9042 73.3832C53.8553 69.7659 57.2686 66.5096 61.0659 63.6887C61.1006 63.6577 61.1417 63.6338 61.1867 63.6186C61.2316 63.6034 61.2794 63.5972 61.327 63.6004C61.3747 63.6037 61.421 63.6162 61.4632 63.6373C61.5055 63.6584 61.5426 63.6876 61.5723 63.723C61.602 63.7584 61.6236 63.7993 61.6358 63.843C61.648 63.8867 61.6504 63.9324 61.643 63.9771C61.6355 64.0218 61.6184 64.0645 61.5926 64.1026C61.5669 64.1406 61.533 64.1732 61.4933 64.1983C54.6746 69.248 49.1306 75.6754 45.2649 83.0124C45.2393 83.0653 45.1987 83.1105 45.1476 83.1428C45.0964 83.1751 45.0368 83.1933 44.9753 83.1953Z" fill="#E6C7FF"/>
<path d="M53.5923 89.009C50.9974 88.0168 48.6006 86.6117 46.5053 84.8542C45.9467 84.2691 45.3528 83.7151 44.7267 83.195C43.5685 82.2281 42.948 81.8884 43.0308 81.6271C43.1135 81.3658 43.6374 81.2221 45.6918 81C47.3877 80.8171 48.2426 80.7256 48.8493 80.6995C51.2233 80.6097 53.6011 80.6839 55.9638 80.9216C61.479 81.6794 68.4557 86.1477 67.8077 88.395C67.1596 90.6422 59.0109 91.008 53.5923 89.009Z" fill="#E6C7FF"/>
<path d="M67.8079 88.696C67.7535 88.7078 67.6969 88.7078 67.6425 88.696C60.0588 84.7469 51.6419 82.4483 43.0035 81.9673C42.9145 81.9607 42.8317 81.9215 42.7725 81.8582C42.7134 81.7948 42.6825 81.7122 42.6864 81.6276C42.6862 81.5842 42.6955 81.5412 42.7139 81.5013C42.7322 81.4614 42.7591 81.4256 42.7928 81.3961C42.8265 81.3667 42.8663 81.3441 42.9097 81.33C42.9531 81.3159 42.9991 81.3105 43.0448 81.3141C51.7807 81.7885 60.2938 84.1099 67.9596 88.1081C68.0272 88.1427 68.0808 88.1977 68.1116 88.2644C68.1425 88.3311 68.1489 88.4057 68.1299 88.4763C68.1109 88.5469 68.0675 88.6094 68.0066 88.654C67.9458 88.6985 67.871 88.7225 67.7941 88.7221L67.8079 88.696Z" fill="#E6C7FF"/>
<path d="M48.0084 75.3041C47.4575 77.4418 46.5249 79.4745 45.2508 81.3142C44.8127 81.8248 44.4031 82.3569 44.0237 82.9082C43.3343 83.9273 43.1688 84.4368 42.8793 84.4107C42.5897 84.3845 42.4656 83.9926 42.0106 82.4247C41.6384 81.1182 41.4591 80.478 41.3626 80.0076C41.0013 78.1783 40.7756 76.3272 40.687 74.4679C40.687 70.0911 43.6928 64.1202 45.692 64.3554C47.6913 64.5905 49.0701 70.8619 48.0084 75.3041Z" fill="#E6C7FF"/>
<path d="M42.5906 84.776C42.5051 84.7797 42.4214 84.7518 42.3571 84.6982C42.2928 84.6446 42.253 84.5694 42.2459 84.4886C41.9567 81.4446 41.989 78.3808 42.3425 75.3428C42.7826 71.5741 43.7087 67.8708 45.1001 64.3157C45.1164 64.2754 45.1408 64.2385 45.1722 64.2071C45.2035 64.1758 45.2411 64.1506 45.2827 64.133C45.3243 64.1154 45.3692 64.1058 45.4147 64.1046C45.4603 64.1034 45.5056 64.1108 45.5481 64.1262C45.5907 64.1417 45.6296 64.1649 45.6627 64.1946C45.6958 64.2243 45.7223 64.2599 45.7409 64.2993C45.7595 64.3387 45.7697 64.3813 45.7709 64.4244C45.7721 64.4676 45.7644 64.5105 45.7481 64.5509C43.2724 70.9099 42.3302 77.7134 42.9905 84.4625C42.9943 84.5054 42.989 84.5486 42.9751 84.5896C42.9612 84.6306 42.9389 84.6686 42.9094 84.7013C42.8799 84.7341 42.8439 84.7611 42.8034 84.7806C42.7629 84.8002 42.7187 84.8119 42.6734 84.8152L42.5906 84.776Z" fill="#E6C7FF"/>
<path d="M35.5447 84.241C37.5343 83.1159 39.7119 82.3206 41.9837 81.8892C42.4525 81.8239 43.0177 81.8108 44.0381 81.6148C45.279 81.3666 45.7891 81.1183 45.9684 81.3274C46.1476 81.5364 45.9684 81.9153 45.0721 83.3133C44.3552 84.4631 43.9967 85.051 43.6934 85.4299C42.5674 86.9575 41.3279 88.4071 39.9844 89.7676C36.7029 92.838 30.0709 94.9937 28.8576 93.439C27.6442 91.8842 31.4497 86.6319 35.5447 84.241Z" fill="#E6C7FF"/>
<path d="M29.0915 94.0001C29.0266 93.9978 28.9637 93.9782 28.91 93.9435C28.8564 93.9089 28.8141 93.8605 28.7882 93.8041C28.7504 93.7261 28.7466 93.6371 28.7776 93.5564C28.8086 93.4757 28.8718 93.4098 28.9536 93.373C35.4771 90.6074 41.2664 86.4963 45.899 81.3398C45.9289 81.3072 45.9652 81.2805 46.006 81.2612C46.0468 81.2419 46.0912 81.2304 46.1366 81.2274C46.1821 81.2243 46.2277 81.2298 46.2709 81.2435C46.3141 81.2572 46.3541 81.2788 46.3885 81.3071C46.4229 81.3354 46.4511 81.3699 46.4714 81.4085C46.4918 81.4471 46.5039 81.4892 46.5071 81.5322C46.5103 81.5753 46.5045 81.6186 46.4901 81.6595C46.4756 81.7005 46.4528 81.7383 46.423 81.7709C41.7177 86.9779 35.8495 91.1283 29.2432 93.9217C29.2013 93.9606 29.1488 93.9878 29.0915 94.0001Z" fill="#E6C7FF"/>
<path d="M46.0784 75.8006C47.9122 77.0026 47.6089 80.3866 45.4166 83.3785C43.2243 86.3705 39.9704 87.8077 38.1504 86.6057C36.3304 85.4036 36.6199 82.0067 38.8122 79.0278C41.0045 76.0489 44.2584 74.5986 46.0784 75.8006Z" fill="#F66CC7"/>
<path d="M51.042 88.0033C50.5181 90.0677 47.0573 91.0476 43.307 90.2114C39.5567 89.3752 36.9232 87.0104 37.4333 84.9853C37.9435 82.9601 41.4181 81.941 45.1684 82.7903C48.9187 83.6395 51.5522 85.939 51.042 88.0033Z" fill="#F66CC7"/>
<path d="M51.6481 87.8334C49.5662 88.5912 46.7534 86.4355 45.3608 83.0254C43.9682 79.6154 44.5473 76.2314 46.6293 75.4736C48.7113 74.7158 51.524 76.8586 52.9166 80.2686C54.3092 83.6787 53.7301 87.0626 51.6481 87.8334Z" fill="#F66CC7"/>
<path d="M47.1531 80.8567C47.1913 81.2932 47.1681 81.7325 47.0841 82.1632C47.0861 83.1898 47.4665 84.1834 48.1596 84.9723C47.3443 84.7834 46.493 84.7834 45.6777 84.9723C44.7815 85.1813 44.4506 85.5341 43.775 85.521C43.0994 85.508 42.3962 85.2728 41.5 84.1361C42.4449 83.8632 43.2717 83.3088 43.8577 82.5552C44.5748 81.5625 44.8475 80.341 44.6161 79.1582C45.6778 79.4195 46.9049 79.9552 47.1531 80.8567Z" fill="#E3E3FD"/>
<path d="M13.8833 59.8084C21.5134 59.8084 27.6988 53.9472 27.6988 46.717C27.6988 39.4867 21.5134 33.6255 13.8833 33.6255C6.25326 33.6255 0.0678711 39.4867 0.0678711 46.717C0.0678711 53.9472 6.25326 59.8084 13.8833 59.8084Z" fill="#E3E3FD"/>
<path d="M15.1243 47.475C15.1426 47.6389 15.1244 47.8047 15.0707 47.9615C15.017 48.1183 14.9291 48.2627 14.8128 48.3852C14.6964 48.5078 14.5542 48.6058 14.3952 48.6729C14.2363 48.7399 14.0643 48.7746 13.8903 48.7746C13.7163 48.7746 13.5443 48.7399 13.3854 48.6729C13.2265 48.6058 13.0842 48.5078 12.9678 48.3852C12.8514 48.2627 12.7636 48.1183 12.7099 47.9615C12.6562 47.8047 12.638 47.6389 12.6563 47.475C12.6886 47.1861 12.8325 46.9188 13.0603 46.7246C13.2882 46.5303 13.5838 46.4229 13.8903 46.4229C14.1968 46.4229 14.4924 46.5303 14.7203 46.7246C14.9481 46.9188 15.0921 47.1861 15.1243 47.475Z" fill="#3F469A"/>
<path d="M13.9659 36.4082H13.8004C13.6329 36.4082 13.4971 36.5369 13.4971 36.6956V46.5469C13.4971 46.7057 13.6329 46.8343 13.8004 46.8343H13.9659C14.1334 46.8343 14.2692 46.7057 14.2692 46.5469V36.6956C14.2692 36.5369 14.1334 36.4082 13.9659 36.4082Z" fill="#3F469A"/>
<path d="M19.9257 41.8603L19.7732 41.7093C19.6679 41.605 19.4933 41.6014 19.3833 41.7012L14.0638 46.5249C13.9538 46.6247 13.95 46.7901 14.0553 46.8944L14.2078 47.0454C14.3131 47.1497 14.4876 47.1533 14.5977 47.0535L19.9171 42.2298C20.0272 42.13 20.031 41.9646 19.9257 41.8603Z" fill="#3F469A"/>
<path d="M2.1777 46.7171H0.399051C0.33555 46.7171 0.274426 46.6942 0.228259 46.6529C0.182093 46.6115 0.154407 46.555 0.150879 46.4949C0.150879 46.4326 0.177003 46.3727 0.223547 46.3286C0.27009 46.2845 0.333229 46.2598 0.399051 46.2598H2.24663C2.2786 46.2597 2.31024 46.2659 2.33962 46.2778C2.36899 46.2898 2.39551 46.3073 2.41746 46.3294C2.43942 46.3514 2.45639 46.3775 2.46732 46.4059C2.47826 46.4344 2.48292 46.4647 2.48104 46.4949C2.48271 46.5305 2.47531 46.566 2.4595 46.5983C2.44369 46.6306 2.41993 46.6588 2.3902 46.6806C2.36046 46.7024 2.3256 46.717 2.28862 46.7234C2.25164 46.7297 2.21361 46.7276 2.1777 46.7171Z" fill="#3F469A"/>
<path d="M27.4506 46.7171H25.603C25.5722 46.7171 25.5417 46.7113 25.5133 46.7001C25.4848 46.689 25.459 46.6726 25.4372 46.652C25.4155 46.6314 25.3982 46.6069 25.3865 46.5799C25.3747 46.553 25.3686 46.5241 25.3686 46.4949C25.3667 46.4647 25.3714 46.4344 25.3823 46.4059C25.3933 46.3775 25.4102 46.3514 25.4322 46.3294C25.4541 46.3073 25.4806 46.2898 25.51 46.2778C25.5394 46.2659 25.571 46.2597 25.603 46.2598H27.4506C27.5164 46.2598 27.5795 46.2845 27.6261 46.3286C27.6726 46.3727 27.6987 46.4326 27.6987 46.4949C27.6952 46.555 27.6675 46.6115 27.6213 46.6529C27.5752 46.6942 27.5141 46.7171 27.4506 46.7171Z" fill="#3F469A"/>
<path d="M14.1862 57.5874V59.3512C14.1829 59.4091 14.1571 59.4637 14.1139 59.5047C14.0706 59.5457 14.0129 59.5701 13.9518 59.5733C13.8883 59.5734 13.8272 59.5504 13.781 59.5091C13.7348 59.4678 13.7071 59.4113 13.7036 59.3512V57.5874C13.7071 57.5273 13.7348 57.4708 13.781 57.4294C13.8272 57.3881 13.8883 57.3651 13.9518 57.3652C14.0129 57.3684 14.0706 57.3928 14.1139 57.4338C14.1571 57.4748 14.1829 57.5295 14.1862 57.5874Z" fill="#3F469A"/>
<path d="M14.1862 33.6385V35.3893C14.1863 35.4494 14.1621 35.5073 14.1185 35.5511C14.0749 35.5948 14.0152 35.6211 13.9518 35.6244C13.886 35.6244 13.8229 35.5996 13.7763 35.5555C13.7298 35.5114 13.7036 35.4516 13.7036 35.3893V33.6385C13.7036 33.5761 13.7298 33.5163 13.7763 33.4722C13.8229 33.4281 13.886 33.4033 13.9518 33.4033C14.0152 33.4067 14.0749 33.4329 14.1185 33.4767C14.1621 33.5204 14.1863 33.5783 14.1862 33.6385Z" fill="#3F469A"/>
<path d="M69.9038 22.8727C68.7641 22.8929 67.6457 22.5779 66.7026 21.971C65.7595 21.3642 65.038 20.4953 64.6374 19.484C64.2368 18.4727 64.1767 17.3685 64.4655 16.3236C64.7543 15.2786 65.3778 14.344 66.25 13.6486C67.3599 12.732 68.8085 12.2708 70.2772 12.3664C71.7459 12.4619 73.1143 13.1064 74.0816 14.1581C75.0488 15.2098 75.5355 16.5825 75.4346 17.9742C75.3338 19.3659 74.6536 20.6627 73.5438 21.5792C72.5364 22.4147 71.2426 22.8745 69.9038 22.8727ZM69.9038 13.727C68.8907 13.7183 67.9095 14.0624 67.1462 14.6938C66.3107 15.3868 65.7998 16.366 65.7261 17.4159C65.6524 18.4658 66.0219 19.5005 66.7533 20.2923C67.4846 21.0841 68.518 21.5681 69.6259 21.638C70.7339 21.7078 71.8258 21.3577 72.6614 20.6646C73.3011 20.1588 73.7646 19.4818 73.9914 18.7222C74.2182 17.9625 74.1976 17.1557 73.9324 16.4073C73.6671 15.6589 73.1696 15.0039 72.5049 14.528C71.8402 14.0521 71.0393 13.7774 70.2072 13.74L69.9038 13.727Z" fill="#F66CC7"/>
<path d="M78.5346 27.6812C78.4358 27.6804 78.3383 27.6603 78.2481 27.622C78.158 27.5838 78.0771 27.5284 78.0107 27.4591L72.4955 21.5013C72.4356 21.4375 72.3897 21.3629 72.3607 21.282C72.3316 21.2011 72.32 21.1155 72.3264 21.0303C72.3328 20.945 72.3572 20.8619 72.3981 20.7857C72.439 20.7095 72.4955 20.6419 72.5644 20.5868C72.7044 20.4746 72.8851 20.4186 73.0679 20.4308C73.2508 20.443 73.4214 20.5224 73.5433 20.6521L79.0585 26.5968C79.1184 26.6607 79.1643 26.7353 79.1933 26.8162C79.2224 26.8971 79.234 26.9826 79.2276 27.0679C79.2212 27.1531 79.1968 27.2363 79.1559 27.3124C79.115 27.3886 79.0585 27.4563 78.9896 27.5114C78.9294 27.5668 78.8581 27.6104 78.78 27.6395C78.7019 27.6687 78.6185 27.6829 78.5346 27.6812Z" fill="#F66CC7"/>
<path d="M74.4953 27.367C74.398 27.3696 74.3014 27.3509 74.2129 27.3124C74.1245 27.2739 74.0465 27.2166 73.9852 27.1449C73.9253 27.0811 73.8795 27.0065 73.8504 26.9256C73.8214 26.8447 73.8097 26.7591 73.8162 26.6739C73.8226 26.5886 73.847 26.5055 73.8878 26.4293C73.9287 26.3531 73.9853 26.2855 74.0542 26.2304L78.3284 22.7027C78.468 22.6139 78.6372 22.5765 78.8039 22.5975C78.9706 22.6186 79.1235 22.6968 79.2337 22.8172C79.3438 22.9377 79.4037 23.0922 79.4021 23.2515C79.4004 23.4109 79.3373 23.5643 79.2246 23.6826L74.9504 27.2103C74.8237 27.3129 74.662 27.3686 74.4953 27.367Z" fill="#F66CC7"/>
<path d="M82.1055 19.3712C80.8021 19.3745 79.5395 18.9402 78.5418 18.1454C77.5441 17.3506 76.8758 16.2467 76.6552 15.0294C76.4347 13.8121 76.6762 12.5601 77.337 11.4955C77.9979 10.4309 79.0352 9.62245 80.2652 9.21359C81.4951 8.80473 82.8381 8.82187 84.056 9.26196C85.2739 9.70205 86.2879 10.5366 86.9182 11.6177C87.5486 12.6988 87.7545 13.9565 87.4994 15.1677C87.2444 16.379 86.5448 17.4655 85.5249 18.2345C84.5527 18.9676 83.3479 19.3681 82.1055 19.3712ZM82.1055 10.1471C81.3168 10.1349 80.5408 10.3368 79.8692 10.7288C79.1975 11.1208 78.6581 11.6866 78.3147 12.3595C77.9712 13.0324 77.838 13.7844 77.9306 14.5267C78.0233 15.269 78.3381 15.9707 78.8378 16.5491C79.2657 17.0399 79.8132 17.4246 80.4332 17.6699C81.0532 17.9152 81.727 18.0137 82.3961 17.9568C83.0653 17.9 83.7098 17.6896 84.2739 17.3437C84.838 16.9978 85.3047 16.527 85.6336 15.9719C85.9625 15.4167 86.1438 14.794 86.1618 14.1576C86.1797 13.5212 86.0338 12.8902 85.7366 12.3192C85.4394 11.7482 84.9999 11.2544 84.4562 10.8805C83.9124 10.5066 83.2807 10.2638 82.6157 10.1732L82.1055 10.1471Z" fill="#E6C7FF"/>
<path d="M79.0999 11.1528C78.9961 11.1533 78.8937 11.1311 78.8004 11.0881C78.7072 11.045 78.6257 10.9822 78.5622 10.9045L73.4744 4.69848C73.4098 4.63775 73.3585 4.5655 73.3235 4.48589C73.2885 4.40628 73.2705 4.3209 73.2705 4.23466C73.2705 4.14842 73.2885 4.06303 73.3235 3.98343C73.3585 3.90382 73.4098 3.83157 73.4744 3.77084C73.6208 3.66645 73.8038 3.61911 73.9858 3.63855C74.1679 3.65799 74.3352 3.74272 74.4533 3.87536L79.5825 10.0814C79.6952 10.2168 79.7469 10.3889 79.7262 10.5602C79.7055 10.7315 79.6142 10.8882 79.4722 10.996C79.3671 11.0819 79.2376 11.1364 79.0999 11.1528Z" fill="#E6C7FF"/>
<path d="M73.4751 8.7625C73.3822 8.76257 73.2902 8.74484 73.2048 8.71039C73.1193 8.67594 73.042 8.62547 72.9776 8.56202C72.9132 8.49856 72.863 8.42342 72.8301 8.34113C72.7971 8.25883 72.782 8.17106 72.7857 8.0831L72.9788 3.99365C72.9804 3.89942 73.0048 3.80681 73.0502 3.72298C73.0956 3.63915 73.1608 3.56636 73.2407 3.51023C73.3184 3.45397 73.4074 3.41336 73.5022 3.39089C73.597 3.36842 73.6958 3.36457 73.7922 3.37958L78.0665 4.15043C78.2493 4.18335 78.4109 4.28375 78.5156 4.42953C78.6203 4.57532 78.6596 4.75456 78.6249 4.92782C78.5901 5.10108 78.4842 5.25416 78.3304 5.35339C78.1765 5.45263 77.9874 5.48988 77.8045 5.45697L74.3161 4.82983L74.1645 8.16149C74.1506 8.32554 74.0719 8.47857 73.9441 8.58999C73.8162 8.70142 73.6488 8.76302 73.4751 8.7625Z" fill="#E6C7FF"/>
</svg>
