<svg width="15" height="18" viewBox="0 0 15 18" fill="none" xmlns="http://www.w3.org/2000/svg">
<path d="M7.809 17.9465C15.1775 15.3769 15.0625 9.33964 14.9822 4.92969C14.9822 4.47786 14.9658 4.03705 14.9658 3.6146V3.17379C14.9658 3.1065 14.9526 3.03986 14.927 2.97769C14.9015 2.91552 14.8639 2.85903 14.8167 2.81144C14.7694 2.76386 14.7132 2.72611 14.6514 2.70036C14.5897 2.6746 14.5234 2.66135 14.4566 2.66135H14.013C11.5307 2.66135 9.72551 1.97809 8.15945 0.444436L7.85281 0.145051C7.75775 0.0520378 7.63039 0 7.4978 0C7.36521 0 7.23784 0.0520378 7.14278 0.145051L6.83797 0.444436C5.27008 1.97809 3.4649 2.66135 0.984389 2.66135H0.544504C0.409444 2.66135 0.279915 2.71534 0.184413 2.81144C0.0889113 2.90754 0.0352589 3.03789 0.0352589 3.17379V3.61644C0.0352589 4.03889 0.0352591 4.47786 0.0188318 4.93153C-0.0651297 9.33964 -0.180121 15.3788 7.18842 17.9483C7.38961 18.0178 7.60821 18.0172 7.809 17.9465ZM6.20095 11.1506C6.13098 11.1234 6.0743 11.0698 6.04295 11.0012C6.0116 10.9327 6.00804 10.8545 6.03303 10.7833L6.7102 8.86761C6.50128 8.70241 6.34873 8.47578 6.2738 8.21925C6.19887 7.96273 6.20528 7.68908 6.29214 7.4364C6.37899 7.18371 6.54197 6.96456 6.7584 6.80945C6.97482 6.65433 7.23392 6.57097 7.49962 6.57097C7.76533 6.57097 8.02442 6.65433 8.24084 6.80945C8.45727 6.96456 8.62025 7.18371 8.70711 7.4364C8.79396 7.68908 8.80037 7.96273 8.72544 8.21925C8.65051 8.47578 8.49796 8.70241 8.28904 8.86761L8.95891 10.7888C8.9839 10.86 8.98034 10.9382 8.94899 11.0068C8.91764 11.0753 8.86096 11.1289 8.79099 11.1562C7.95804 11.4822 7.0339 11.4822 6.20095 11.1562V11.1506Z" fill="#EF78C5"/>
</svg>
