<svg width="14" height="14" viewBox="0 0 14 14" fill="none" xmlns="http://www.w3.org/2000/svg">
<path d="M12.6058 2.345L10.8325 0.554167C10.4767 0.198333 10.0042 0 9.49667 0C8.98917 0 8.51667 0.198333 8.16083 0.554167L0.169167 8.61C0.0583333 8.72083 0 8.86666 0 9.01833V12.6117C0 12.9325 0.2625 13.195 0.583333 13.195H4.1475C4.305 13.195 4.45083 13.1308 4.56167 13.02L12.6058 4.91167C13.3117 4.2 13.3117 3.045 12.6058 2.33917V2.345ZM3.90833 12.0342H1.1725V9.26333L6.99417 3.395L9.6775 6.22417L3.90833 12.04V12.0342ZM11.7775 4.10083L10.4942 5.39L7.81083 2.56083L8.98917 1.37667C9.12333 1.2425 9.30417 1.16667 9.49667 1.16667C9.68917 1.16667 9.87 1.2425 10.0042 1.37667L11.7775 3.1675C12.0342 3.43 12.0342 3.83833 11.7775 4.10083Z" fill="#F38294"/>
</svg>
