<svg width="17" height="17" viewBox="0 0 17 17" fill="none" xmlns="http://www.w3.org/2000/svg">
<path d="M4.55406 1.70935C4.64336 1.60276 4.68732 1.46541 4.67649 1.32678C4.66566 1.18816 4.6009 1.0593 4.49613 0.967876C4.39136 0.876454 4.25491 0.829756 4.1161 0.837806C3.97728 0.845856 3.84715 0.908013 3.75364 1.01093L2.83848 2.05927C2.31954 2.65396 2.02619 3.41216 2.00973 4.20127L1.96935 6.12722C1.96644 6.26812 2.01962 6.4044 2.11719 6.50609C2.21476 6.60778 2.34873 6.66654 2.48962 6.66945C2.63052 6.67237 2.7668 6.61919 2.86849 6.52162C2.97018 6.42405 3.02894 6.29008 3.03185 6.14918L3.07152 4.22393C3.08288 3.68399 3.28372 3.16523 3.63889 2.75839L4.55406 1.70935Z" fill="#DB8972"/>
<path fill-rule="evenodd" clip-rule="evenodd" d="M4.41764 5.454C4.46521 4.69618 4.7998 3.98498 5.35329 3.46517C5.90678 2.94537 6.63757 2.65604 7.39689 2.65609H7.79143V2.12484C7.79143 1.93698 7.86606 1.75681 7.99889 1.62397C8.13173 1.49113 8.3119 1.4165 8.49976 1.4165C8.68762 1.4165 8.86779 1.49113 9.00063 1.62397C9.13347 1.75681 9.20809 1.93698 9.20809 2.12484V2.65609H9.60264C10.3619 2.65604 11.0927 2.94537 11.6462 3.46517C12.1997 3.98498 12.5343 4.69618 12.5819 5.454L12.7384 7.95725C12.7981 8.9117 13.1186 9.83147 13.6649 10.6163C13.7778 10.7786 13.8468 10.9673 13.8651 11.1641C13.8835 11.3609 13.8506 11.5591 13.7697 11.7394C13.6887 11.9198 13.5625 12.0761 13.4033 12.1932C13.2441 12.3103 13.0572 12.3842 12.861 12.4077L10.4477 12.6967V13.4582C10.4477 13.9748 10.2425 14.4703 9.87715 14.8356C9.51184 15.2009 9.01638 15.4061 8.49976 15.4061C7.98314 15.4061 7.48768 15.2009 7.12238 14.8356C6.75707 14.4703 6.55184 13.9748 6.55184 13.4582V12.6967L4.13855 12.407C3.94241 12.3834 3.7557 12.3095 3.59657 12.1925C3.43743 12.0754 3.31128 11.9192 3.23036 11.7389C3.14945 11.5587 3.11652 11.3606 3.13479 11.1639C3.15305 10.9672 3.22188 10.7786 3.33459 10.6163C3.88093 9.83146 4.2014 8.9117 4.26109 7.95725L4.41764 5.45471V5.454ZM7.61434 13.4582C7.61434 13.693 7.70763 13.9182 7.87368 14.0843C8.03972 14.2503 8.26493 14.3436 8.49976 14.3436C8.73459 14.3436 8.9598 14.2503 9.12584 14.0843C9.29189 13.9182 9.38518 13.693 9.38518 13.4582V12.9269H7.61434V13.4582Z" fill="#DB8972"/>
<path d="M12.4973 0.959994C12.3912 1.05263 12.3262 1.18361 12.3167 1.32414C12.3071 1.46468 12.3537 1.60326 12.4463 1.70941L13.3615 2.75774C13.7166 3.16487 13.9172 3.68389 13.9282 4.22399L13.9685 6.14854C13.97 6.2183 13.9851 6.2871 14.0132 6.351C14.0412 6.4149 14.0815 6.47266 14.1319 6.52097C14.1822 6.56928 14.2416 6.6072 14.3066 6.63257C14.3716 6.65793 14.441 6.67025 14.5108 6.66881C14.5805 6.66736 14.6493 6.6522 14.7132 6.62417C14.7771 6.59614 14.8349 6.55579 14.8832 6.50544C14.9315 6.45509 14.9694 6.39572 14.9948 6.33071C15.0202 6.26571 15.0325 6.19634 15.031 6.12658L14.9907 4.20133C14.9742 3.41222 14.6808 2.65402 14.1619 2.05933L13.2467 1.01099C13.1541 0.904877 13.0231 0.839892 12.8826 0.830328C12.7421 0.820765 12.6035 0.867405 12.4973 0.959994Z" fill="#DB8972"/>
</svg>
