<svg width="15" height="14" viewBox="0 0 15 14" fill="none" xmlns="http://www.w3.org/2000/svg">
<path d="M3.21852 3.03031L3.21835 3.03048C2.49316 3.75632 1.96462 4.65478 1.68252 5.64128C1.40042 6.62777 1.37404 7.66983 1.60584 8.66933C1.83765 9.66884 2.32003 10.5929 3.00756 11.3545C3.69509 12.1161 4.56514 12.6902 5.53579 13.0228C6.50645 13.3553 7.54577 13.4353 8.55588 13.2553C9.566 13.0753 10.5137 12.6411 11.3097 11.9937C12.1057 11.3463 12.7238 10.507 13.1059 9.55475C13.4856 8.6086 13.6197 7.5819 13.4961 6.57016C13.4964 6.55363 13.5023 6.53762 13.5128 6.52473C13.5248 6.5101 13.542 6.50063 13.5608 6.49828C13.5796 6.49592 13.5985 6.50087 13.6138 6.51208C13.6271 6.52188 13.6367 6.53582 13.6411 6.55162C13.8084 7.91636 13.517 9.2982 12.8124 10.4793C12.1046 11.6659 11.0204 12.5818 9.73216 13.0814C8.44397 13.5811 7.02573 13.6357 5.70292 13.2367C4.38011 12.8377 3.22865 12.0079 2.4316 10.8793C1.63455 9.75067 1.23766 8.388 1.30403 7.00791C1.3704 5.62782 1.89622 4.30953 2.79789 3.26261C3.69956 2.2157 4.92533 1.50025 6.28033 1.23001C7.4033 1.00605 8.5616 1.09853 9.62797 1.49021L9.51275 1.60543C8.49244 1.24437 7.39171 1.16304 6.32575 1.37309C5.14856 1.60507 4.06696 2.18193 3.21852 3.03031Z" fill="#F38294" stroke="#F38294"/>
<path d="M12.6332 0.574136C12.6333 0.460595 12.5997 0.349592 12.5366 0.255171C12.4735 0.16075 12.3839 0.0871555 12.279 0.0436989C12.1741 0.000242354 12.0587 -0.0111232 11.9473 0.0110407C11.836 0.0332045 11.7337 0.0879014 11.6534 0.168211L10.4986 1.323L9.6343 2.18734L8.40953 3.41211C8.32952 3.49242 8.27508 3.59462 8.25309 3.70583C8.2311 3.81704 8.24254 3.93227 8.28596 4.03698C8.32938 4.1417 8.40284 4.23121 8.49707 4.29422C8.5913 4.35724 8.70209 4.39093 8.81545 4.39106H12.0611C12.2126 4.3906 12.3577 4.33029 12.4649 4.22328C12.572 4.11627 12.6326 3.97123 12.6332 3.81979V0.574136Z" fill="#F38294"/>
</svg>
