<svg width="30" height="25" viewBox="0 0 30 25" fill="none" xmlns="http://www.w3.org/2000/svg">
<path d="M6.06648 23.8416C8.79822 23.8416 11.015 21.6631 11.015 18.9751C11.015 16.2936 8.79857 14.1152 6.06648 14.1152C3.34149 14.1152 1.125 16.2938 1.125 18.9751C1.125 21.6633 3.34169 23.8416 6.06648 23.8416ZM0 18.9751C0 15.681 2.72149 13.0162 6.06648 13.0162C9.42172 13.0162 12.14 15.6813 12.14 18.9751C12.14 22.2726 9.42172 24.9406 6.06648 24.9406C2.72149 24.9409 0 22.2726 0 18.9751Z" fill="#B3899D"/>
<path d="M23.933 23.8978C26.6583 23.8978 28.875 21.7228 28.875 19.0347C28.875 16.35 26.6583 14.1748 23.933 14.1748C21.2015 14.1748 18.9848 16.3498 18.9848 19.0347C18.9848 21.7229 21.2015 23.8978 23.933 23.8978ZM17.8598 19.0345C17.8598 15.737 20.5813 13.0719 23.933 13.0719C27.278 13.0719 30 15.737 30 19.0345C30 22.332 27.2785 25 23.933 25C20.5815 25.0003 17.8598 22.332 17.8598 19.0345Z" fill="#B3899D"/>
<path d="M17.8768 4.48234C19.1367 4.48234 20.1604 3.48257 20.1604 2.24457C20.1604 1.0063 19.1368 0 17.8768 0C16.6171 0 15.5932 1.0066 15.5932 2.24457C15.5932 3.48254 16.6171 4.48234 17.8768 4.48234Z" fill="#B3899D"/>
<path d="M17.9709 9.92532C17.6407 9.93184 17.2839 9.76965 17.0208 9.36252L15.5391 7.08493L12.4806 10.0608L15.3168 11.5276C16.4824 12.0772 16.3072 13.0835 16.3072 13.0835V19.3932C16.3072 20.1083 15.7209 20.6908 14.9935 20.6908C14.266 20.6908 13.6798 20.1079 13.6798 19.3932L13.6797 14.3414L8.7615 11.6567C8.17527 11.3357 7.7778 10.7197 7.7778 10.018C7.7778 9.53449 7.95963 9.09081 8.2695 8.75998L13.0932 4.00917C13.6929 3.34367 14.5281 3.44981 14.5281 3.44981C15.5388 3.44981 16.071 4.31725 16.071 4.31725L18.5772 8.1774L22.384 8.17088C23.7516 8.17088 23.7516 9.9254 22.384 9.9254L17.9709 9.92532Z" fill="#B3899D"/>
</svg>
