<svg width="19" height="19" viewBox="0 0 19 19" fill="none" xmlns="http://www.w3.org/2000/svg">
<path fill-rule="evenodd" clip-rule="evenodd" d="M1.71521 2.2543L1.69324 2.26518V9.42502C1.69324 13.4873 4.95789 17.3784 8.87014 18.3845C8.96339 18.4084 9.55145 18.5443 9.60352 18.5357C13.8437 17.844 17.501 13.7228 17.501 9.4248V2.26539C12.881 -0.0348013 6.33246 -0.0420562 1.71521 2.2543ZM13.5414 6.67054L8.55627 11.6552C8.44232 11.7692 8.25946 11.7692 8.14552 11.6552L5.65264 9.16278C5.53934 9.04947 5.53934 8.86533 5.65264 8.75181C5.76637 8.6383 5.94988 8.6383 6.06339 8.75181L8.35057 11.0386L13.1306 6.25915C13.2439 6.14585 13.4281 6.14564 13.5414 6.25915C13.6549 6.37288 13.6549 6.55703 13.5414 6.67054Z" fill="#F65E99"/>
</svg>
