<svg width="19" height="19" viewBox="0 0 19 19" fill="none" xmlns="http://www.w3.org/2000/svg">
<path d="M17.5638 13.725L18.3294 11.8614C18.534 11.3633 18.2969 10.7926 17.798 10.5875L17.3749 10.4137C16.8759 10.2085 16.514 9.69383 16.5128 9.26178C16.5112 8.83056 16.8707 8.31338 17.368 8.10588L17.7907 7.92957C18.288 7.72247 18.5235 7.15016 18.3156 6.65287L17.5395 4.79372C17.332 4.296 16.7604 4.06135 16.2632 4.26845L15.8404 4.44516C15.3427 4.65309 14.7226 4.54526 14.417 4.24006C14.111 3.93526 13.9999 3.31597 14.205 2.81745L14.3789 2.39469C14.5836 1.89576 14.3457 1.32549 13.8467 1.12043L11.9835 0.354418C11.4854 0.149324 10.9147 0.387218 10.7101 0.885775L10.5358 1.3089C10.3307 1.80783 9.81599 2.17017 9.3839 2.1714C8.95268 2.17217 8.4359 1.81311 8.228 1.31579L8.05209 0.893064C7.84456 0.395744 7.27268 0.160692 6.77499 0.368193L4.91584 1.14433C4.41812 1.35143 4.18307 1.92335 4.39097 2.42107L4.56728 2.84339C4.77521 3.34111 4.66698 3.96081 4.36178 4.26724C4.05738 4.57285 3.43809 4.68429 2.93957 4.47879L2.51644 4.30533C2.01751 4.10023 1.44767 4.33856 1.24258 4.83709L0.476538 6.70028C0.271478 7.1988 0.509773 7.76948 1.0079 7.97414L1.43186 8.14844C1.92998 8.35353 2.29232 8.86787 2.29353 9.29993C2.29476 9.73158 1.93523 10.248 1.43794 10.4558L1.01522 10.6321C0.517496 10.84 0.282846 11.4115 0.490346 11.9088L1.26649 13.7676C1.47359 14.2657 2.04547 14.5008 2.54319 14.2929L2.96551 14.1166C3.46323 13.9094 4.08293 14.0172 4.38933 14.3216C4.69493 14.6264 4.80641 15.2457 4.60091 15.7447L4.42745 16.167C4.22276 16.6659 4.46068 17.237 4.95921 17.4416L6.82237 18.2073C7.32089 18.412 7.89197 18.1745 8.09663 17.6759L8.27053 17.2531C8.47559 16.7542 8.98993 16.3919 9.42198 16.3907C9.85363 16.389 10.37 16.7485 10.5779 17.2459L10.7542 17.6686C10.9621 18.1663 11.5332 18.4014 12.0313 18.1934L13.89 17.4173C14.3877 17.2098 14.6224 16.6383 14.4149 16.141L14.2386 15.7183C14.0311 15.2205 14.1393 14.6004 14.4437 14.2949C14.7485 13.9885 15.3678 13.8774 15.8663 14.0824L16.289 14.2563C16.788 14.4614 17.3587 14.2235 17.5638 13.725ZM7.97797 12.7482C6.06291 11.9611 5.14852 9.77003 5.93522 7.85578C6.72313 5.94073 8.91339 5.02677 10.8288 5.81347C12.7431 6.60098 13.6575 8.79124 12.8704 10.7063C12.0829 12.6209 9.89262 13.5357 7.97797 12.7482Z" fill="#2ECBB5"/>
</svg>
