<svg width="17" height="15" viewBox="0 0 17 15" fill="none" xmlns="http://www.w3.org/2000/svg">
<path d="M17 9.23983C16.8547 9.56683 16.6268 9.85039 16.3387 10.0626C16.3007 10.0856 16.2682 10.1167 16.2438 10.1538C16.2193 10.1909 16.2035 10.2331 16.1975 10.2771C16.1915 10.3211 16.1954 10.3659 16.2089 10.4082C16.2225 10.4506 16.2453 10.4893 16.2758 10.5216C16.7314 11.2016 16.6957 11.4719 16.0633 12.0312C15.8576 12.2131 15.878 12.4103 15.9664 12.6245C16.1106 12.9034 16.1697 13.2185 16.1364 13.5306C16.0412 14.0797 15.5125 14.4469 14.7611 14.4673C13.6816 14.4962 12.6021 14.5064 11.5311 14.5251L6.12005 14.6254C6.07245 14.6254 6.02655 14.6254 5.97895 14.6254C5.23095 14.6254 4.95895 14.3942 4.94195 13.7176C4.91135 12.6653 4.91305 11.613 4.87055 10.5624C4.82975 9.59683 4.81445 8.63293 4.81955 7.67243C4.81897 7.32835 4.93324 6.99392 5.14425 6.72213C5.87695 5.78543 6.49745 4.77903 7.32875 3.91543C7.53857 3.67631 7.78058 3.46748 8.04785 3.29493C8.55785 2.98553 8.68195 2.52994 8.69045 2.01824C8.67805 1.67373 8.69797 1.32882 8.74995 0.988036C8.78675 0.75532 8.89398 0.53947 9.0572 0.36956C9.22042 0.199651 9.4318 0.0838432 9.66285 0.0377365C10.2323 -0.0778635 10.7168 0.0700364 11.0228 0.510336C11.73 1.47254 11.8456 2.52313 11.5209 3.62643C11.3971 4.02648 11.2337 4.41317 11.033 4.78073C10.9483 4.93396 10.8734 5.09237 10.8086 5.25503C10.7542 5.40123 10.8086 5.50493 10.999 5.52193C11.8021 5.57406 12.6075 5.5803 13.4113 5.54063C14.28 5.51683 15.1521 5.46073 16.0174 5.57123C16.5461 5.63923 16.8062 6.00643 16.9558 6.44333C17.0136 6.84283 16.9728 7.21173 16.6158 7.50073C16.4254 7.65033 16.4458 7.82373 16.6022 7.99883C16.8132 8.20887 16.9524 8.48017 17 8.77403V9.23983Z" fill="#6788DD"/>
<path d="M3.8046 10.3382C3.8046 11.4715 3.8046 12.6014 3.8046 13.728C3.8046 14.2788 3.5581 14.5287 2.9546 14.5321C2.2066 14.5321 1.4586 14.5627 0.7106 14.51C0.2635 14.4777 0 14.2346 0 13.8215C0 13.4084 0 12.9596 0 12.5278V6.91776C0 6.35846 0.2635 6.12046 0.8857 6.12046C1.5657 6.12046 2.2321 6.12896 2.9036 6.12046C3.5088 6.10856 3.8233 6.41116 3.8114 6.93136C3.7876 8.06015 3.8046 9.19915 3.8046 10.3382Z" fill="#6788DD"/>
</svg>
