<svg width="12" height="19" viewBox="0 0 12 19" fill="none" xmlns="http://www.w3.org/2000/svg">
<path d="M0.15458 11.9297C0.178799 12.2153 0.518834 12.4355 0.924676 12.4355C0.939825 12.4355 0.955071 12.4353 0.970509 12.4346C1.39604 12.4173 1.72082 12.163 1.69583 11.8668C1.6582 11.4201 1.64112 11.0131 1.64112 10.6428C1.63977 9.95651 1.69979 9.39761 1.79464 8.94436C1.92452 8.32333 2.11972 7.90124 2.31318 7.62559V17.701C2.31318 18.1597 2.84746 18.5314 3.5061 18.5314C4.16495 18.5314 4.69922 18.1597 4.69922 17.701V11.6377H5.14645V17.701C5.14645 18.1597 5.68073 18.5314 6.33937 18.5314C6.99822 18.5314 7.53249 18.1597 7.53249 17.701V6.98293C8.09928 6.86525 8.80569 6.65703 9.4627 6.37815C9.84007 6.21567 10.1974 6.03183 10.4934 5.805C10.6408 5.69115 10.7739 5.56521 10.877 5.41812C10.9794 5.27182 11.0507 5.10014 11.0507 4.91429C11.0527 4.71097 10.9588 4.50013 10.7953 4.3267C10.634 4.15334 10.4164 4.01196 10.1584 3.88843C10.1558 3.88709 10.1533 3.88561 10.1507 3.88434H10.1505C9.96069 3.79574 9.74628 3.71407 9.50428 3.63776C8.85548 3.4331 8.00317 3.26821 6.8529 3.1205C6.43345 3.06764 6.03166 3.26149 5.95573 3.5536C5.87959 3.84558 6.15816 4.12513 6.57761 4.17813C7.71978 4.31958 8.49885 4.49274 8.96007 4.64615C9.09198 4.69002 9.19928 4.7324 9.27975 4.77183C9.28014 4.77196 9.28043 4.77216 9.28081 4.77236C9.41773 4.83711 9.4791 4.88843 9.49811 4.90952C9.50158 4.91335 9.5039 4.9161 9.50525 4.91805C9.50149 4.92819 9.48827 4.95399 9.4516 4.99254C9.37412 5.07798 9.18519 5.20949 8.93306 5.33389C8.55578 5.5233 8.0465 5.70412 7.60196 5.82777C7.38003 5.88997 7.17296 5.93867 7.01259 5.96943C6.9326 5.98488 6.86438 5.99576 6.81662 6.00174C6.80244 6.00355 6.79086 6.00483 6.78092 6.00583H3.05877C3.047 6.00583 3.03561 6.00671 3.02394 6.00704C2.84977 6.00852 2.5603 6.03472 2.23088 6.15031C1.71175 6.32958 1.1524 6.72144 0.760738 7.41582C0.535431 7.81225 0.352484 8.30969 0.236019 8.9445C0.147729 9.42596 0.0977469 9.98641 0.097168 10.6429C0.097361 11.0362 0.115501 11.4639 0.15458 11.9297Z" fill="#DD625D"/>
<path d="M8.31129 4.61085C8.3191 4.67332 8.32374 4.73572 8.32354 4.79664C8.32354 4.95764 8.29807 5.10843 8.25889 5.22047C8.23931 5.27635 8.21624 5.32263 8.19367 5.35407C8.18257 5.36978 8.17147 5.38161 8.16298 5.38879C8.15449 5.39611 8.15034 5.39692 8.15053 5.39746C8.14359 5.39988 8.12641 5.40297 8.10007 5.40297C8.01168 5.40404 7.84717 5.3669 7.68487 5.32633C7.51967 5.28656 7.35805 5.24331 7.21689 5.24196C7.14654 5.24089 7.05787 5.25728 7.01136 5.31289C6.97788 5.35615 6.96659 5.39941 6.96678 5.43836C6.96958 5.53515 7.02178 5.61374 7.0186 5.66096C7.01252 5.69951 7.01667 5.7204 6.86353 5.76728C6.84732 5.77178 6.83246 5.77366 6.81606 5.7738C6.75479 5.77555 6.65473 5.73666 6.5509 5.65283C6.23489 5.40498 5.92824 4.81948 5.9321 4.45805C5.93191 4.41842 5.93558 4.38168 5.94253 4.34903L5.84719 4.33909L5.94253 4.34883C5.94783 4.32378 5.95025 4.29893 5.95025 4.27434C5.94851 4.07606 5.80175 3.88954 5.66646 3.71457C5.52848 3.54053 5.40314 3.37577 5.40603 3.25406C5.40951 3.15331 5.46895 3.06922 5.73285 2.97861C5.88232 2.92937 6.02416 2.90835 6.16214 2.90821C6.31595 2.90647 6.46724 2.93394 6.61449 2.98156C6.6473 2.97921 6.68039 2.97767 6.71417 2.97767C6.77167 2.97767 6.82986 2.98123 6.88698 2.98848C6.94227 2.9956 6.99631 3.00272 7.05034 3.00997C6.7847 2.87188 6.48838 2.7769 6.16214 2.77381C6.09797 2.77381 6.03284 2.77898 5.96742 2.78698C5.65739 2.66822 5.30144 2.60059 4.92252 2.60059C3.72352 2.60059 2.75146 3.27717 2.75146 4.11186C2.75146 4.94656 3.72352 5.62314 4.92252 5.62314C5.35094 5.62314 5.75003 5.53643 6.08649 5.38731C6.18163 5.52514 6.28931 5.6484 6.40559 5.74129C6.52659 5.8364 6.6583 5.90639 6.81606 5.90813C6.81654 5.90813 6.81703 5.90813 6.8176 5.90813C6.85678 5.90813 6.89634 5.90296 6.93417 5.89242C7.12425 5.84654 7.21766 5.75103 7.21158 5.66102C7.2081 5.56947 7.15706 5.49492 7.15996 5.43843C7.16015 5.41653 7.16507 5.39867 7.17887 5.37979C7.17887 5.37979 7.17925 5.37986 7.18041 5.37993C7.18456 5.37858 7.1972 5.3763 7.21698 5.37643C7.2961 5.37509 7.4584 5.41237 7.6207 5.45307C7.78628 5.49304 7.95292 5.53623 8.10017 5.5373C8.14484 5.5373 8.19009 5.53307 8.23361 5.51883C8.35625 5.47 8.39678 5.37751 8.44657 5.25231C8.49009 5.12697 8.51653 4.96765 8.51653 4.79684C8.51633 4.75204 8.51392 4.70637 8.51016 4.66042C8.4485 4.64417 8.38269 4.62771 8.31129 4.61085Z" fill="#DD625D"/>
<path d="M9.03654 2.55176C8.73741 2.07352 7.63818 2.7806 7.63818 2.7806C7.63818 2.7806 9.24177 2.87967 9.03654 2.55176Z" fill="#DD625D"/>
<path d="M7.12315 0.637536C6.06271 0.545046 6.50898 1.99809 6.50898 1.99809C6.50898 1.99809 7.8505 0.700875 7.12315 0.637536Z" fill="#DD625D"/>
<path d="M9.65146 1.14624C8.89931 0.526548 7.71411 1.92169 7.71411 1.92169C7.71411 1.92169 10.1677 1.57128 9.65146 1.14624Z" fill="#DD625D"/>
</svg>
