<svg width="19" height="19" viewBox="0 0 19 19" fill="none" xmlns="http://www.w3.org/2000/svg">
<path d="M13.913 7.95919C13.5334 7.19647 13.0631 5.45473 13.3464 3.6333H4.84794C5.13123 5.45473 4.66098 7.19647 4.28138 7.95919C3.14825 10.236 2.58169 10.6913 3.71482 16.3833H8.81389V12.3579C8.41163 11.9254 7.18218 11.1171 6.14821 10.9463C5.99523 10.9213 5.89609 10.8006 5.92725 10.6777C5.95841 10.5547 6.10855 10.475 6.26152 10.5001C7.36348 10.68 8.53627 11.4176 9.09717 11.9208C9.65807 11.4176 10.8309 10.68 11.9328 10.5001C12.0858 10.475 12.2359 10.5547 12.2671 10.6777C12.2982 10.8006 12.1991 10.9213 12.0461 10.9463C11.0122 11.1171 9.78271 11.9254 9.38045 12.3579V16.3833H14.4795C15.6126 10.6913 15.0461 10.236 13.913 7.95919ZM9.93285 8.25973L9.36629 9.6258C9.32663 9.72143 9.21615 9.78062 9.09717 9.78062C9.06884 9.78062 9.03768 9.77607 9.00652 9.76924C8.85921 9.73053 8.77706 9.60076 8.82805 9.48009L9.26997 8.41455H8.5306C8.43995 8.41455 8.35497 8.3804 8.30115 8.31893C8.24732 8.25973 8.23316 8.18232 8.26149 8.11402L8.82805 6.74794C8.87621 6.62955 9.03768 6.56352 9.18782 6.60451C9.33512 6.64321 9.41728 6.77299 9.36629 6.89366L8.92437 7.95919H9.66373C9.75438 7.95919 9.83937 7.99335 9.89319 8.05482C9.94701 8.11402 9.96118 8.19143 9.93285 8.25973Z" fill="#DD625D"/>
<path d="M16.6909 6.7083H15.5659C15.4112 6.7083 15.2847 6.60705 15.2847 6.4833C15.2847 6.35955 15.4112 6.2583 15.5659 6.2583H16.6909C16.8456 6.2583 16.9722 6.35955 16.9722 6.4833C16.9722 6.60705 16.8456 6.7083 16.6909 6.7083Z" fill="#DD625D"/>
<path d="M15.2846 5.8084C15.1806 5.8084 15.0821 5.7634 15.0315 5.68465C14.9612 5.5744 15.0174 5.4394 15.1581 5.38315L16.2831 4.93315C16.4237 4.8769 16.5896 4.9219 16.6599 5.0344C16.7302 5.14465 16.674 5.27965 16.5334 5.3359L15.4084 5.7859C15.369 5.80165 15.324 5.81065 15.2818 5.81065L15.2846 5.8084Z" fill="#DD625D"/>
<path d="M16.4688 8.06507C16.4294 8.06507 16.39 8.05832 16.3506 8.04482L15.206 7.62632C15.0653 7.57457 15.0035 7.44182 15.0681 7.32707C15.1328 7.21457 15.2988 7.16507 15.4422 7.21682L16.5869 7.63532C16.7275 7.68707 16.7894 7.81982 16.7247 7.93457C16.6769 8.01782 16.5756 8.06507 16.4688 8.06507Z" fill="#DD625D"/>
<path d="M2.62842 6.7083H1.50342C1.34873 6.7083 1.22217 6.60705 1.22217 6.4833C1.22217 6.35955 1.34873 6.2583 1.50342 6.2583H2.62842C2.78311 6.2583 2.90967 6.35955 2.90967 6.4833C2.90967 6.60705 2.78311 6.7083 2.62842 6.7083Z" fill="#DD625D"/>
<path d="M2.91008 5.8083C2.86789 5.8083 2.8257 5.80155 2.78352 5.78355L1.65852 5.33355C1.5207 5.2773 1.46445 5.1423 1.53195 5.03205C1.60227 4.9218 1.77102 4.87455 1.90883 4.9308L3.03383 5.3808C3.17164 5.43705 3.22789 5.57205 3.16039 5.6823C3.10977 5.76105 3.01133 5.80605 2.90727 5.80605L2.91008 5.8083Z" fill="#DD625D"/>
<path d="M1.72598 8.06496C1.6191 8.06496 1.51785 8.01546 1.47004 7.93446C1.40535 7.82196 1.47004 7.68696 1.60785 7.63521L2.75254 7.21671C2.89317 7.16496 3.0591 7.21671 3.1266 7.32696C3.19129 7.43946 3.1266 7.57446 2.98879 7.62621L1.8441 8.04471C1.80754 8.05821 1.76535 8.06496 1.72598 8.06496Z" fill="#DD625D"/>
</svg>
