<svg width="21" height="21" viewBox="0 0 21 21" fill="none" xmlns="http://www.w3.org/2000/svg">
<path d="M20.2272 2.71106C20.2024 2.62128 20.1543 2.53967 20.0877 2.47456C20.0211 2.40946 19.9385 2.36318 19.8482 2.34045L18.6965 2.04985L18.4059 0.897996C18.3832 0.80777 18.337 0.725171 18.272 0.658611C18.207 0.592051 18.1255 0.543908 18.0359 0.519084C17.9462 0.494261 17.8516 0.493643 17.7616 0.517294C17.6717 0.540946 17.5896 0.588021 17.5237 0.653726L15.2982 2.87531C15.2336 2.93967 15.1869 3.01969 15.1625 3.10754C15.1382 3.19539 15.137 3.28807 15.1593 3.37649L15.454 4.54308L9.39022 10.614C9.29139 10.7129 9.23586 10.8469 9.23586 10.9867C9.23586 11.1265 9.29139 11.2606 9.39022 11.3595C9.48906 11.4583 9.62312 11.5139 9.76289 11.5139C9.90267 11.5139 10.0367 11.4583 10.1356 11.3595L16.2036 5.28853L17.37 5.58334C17.4581 5.60608 17.5505 5.60562 17.6383 5.582C17.7261 5.55838 17.8063 5.51241 17.8711 5.44857L20.0924 3.22277C20.158 3.15696 20.2051 3.07495 20.2287 2.98508C20.2524 2.8952 20.2519 2.80066 20.2272 2.71106ZM17.3384 4.48833L16.4773 4.27776L16.2667 3.4165L17.6143 2.05406L17.7553 2.61209C17.7786 2.70407 17.8263 2.78805 17.8934 2.85515C17.9605 2.92224 18.0444 2.96995 18.1364 2.99324L18.6944 3.13432L17.3384 4.48833ZM7.41738 10.9846C7.41794 11.6066 7.66524 12.203 8.10498 12.6428C8.54473 13.0826 9.141 13.3299 9.76289 13.3305C10.3846 13.3299 10.9806 13.0825 11.4201 12.6426C11.8595 12.2028 12.1063 11.6064 12.1063 10.9846C12.1063 10.972 12.1063 10.953 12.1063 10.9341C12.1035 10.7945 12.1563 10.6595 12.253 10.5588C12.3498 10.4581 12.4825 10.3999 12.6221 10.3971C12.7617 10.3943 12.8967 10.4471 12.9974 10.5439C13.0981 10.6406 13.1563 10.7734 13.159 10.913C13.159 10.9362 13.159 10.9594 13.159 10.9846C13.159 11.8857 12.8013 12.7498 12.1645 13.3871C11.5276 14.0245 10.6638 14.3828 9.76289 14.3834C9.30965 14.3946 8.85873 14.3151 8.4367 14.1494C8.01466 13.9837 7.63003 13.7353 7.30548 13.4187C6.98092 13.102 6.723 12.7237 6.54689 12.3058C6.37079 11.888 6.28006 11.4391 6.28006 10.9857C6.28006 10.5322 6.37079 10.0834 6.54689 9.66554C6.723 9.2477 6.98092 8.86933 7.30548 8.55271C7.63003 8.23609 8.01466 7.98763 8.4367 7.82195C8.85873 7.65628 9.30965 7.57674 9.76289 7.58803H9.82395C9.89308 7.5894 9.96126 7.60437 10.0246 7.6321C10.0879 7.65983 10.1452 7.69977 10.1931 7.74963C10.241 7.7995 10.2786 7.85832 10.3038 7.92272C10.329 7.98713 10.3412 8.05586 10.3398 8.125C10.3396 8.19447 10.3254 8.26319 10.298 8.32706C10.2707 8.39093 10.2308 8.44865 10.1807 8.49679C10.1306 8.54492 10.0713 8.58249 10.0064 8.60725C9.94154 8.63201 9.87232 8.64346 9.8029 8.64091H9.74816C9.12901 8.6448 8.53652 8.89338 8.09989 9.33243C7.66327 9.77149 7.41793 10.3654 7.41738 10.9846ZM12.0495 6.09083C11.3368 5.75532 10.5589 5.58131 9.77132 5.58123C8.70292 5.57998 7.65815 5.8957 6.7692 6.48844C5.88025 7.08118 5.18707 7.92431 4.77734 8.91116C4.36762 9.89801 4.25976 10.9842 4.46743 12.0324C4.6751 13.0806 5.18896 14.0436 5.94399 14.7996C6.69902 15.5556 7.6613 16.0707 8.70908 16.2796C9.75686 16.4885 10.8431 16.3819 11.8302 15.9733C12.8174 15.5647 13.6613 14.8724 14.255 13.984C14.8487 13.0956 15.1656 12.0511 15.1656 10.9825C15.1656 10.1948 14.9916 9.41675 14.656 8.70409C14.5969 8.57759 14.5903 8.43276 14.6379 8.30145C14.6855 8.17014 14.7833 8.06312 14.9098 8.00392C15.0362 7.94472 15.181 7.93819 15.3123 7.98578C15.4436 8.03337 15.5506 8.13117 15.6098 8.25766C16.0108 9.11005 16.2186 10.0405 16.2183 10.9825C16.2183 12.259 15.8398 13.5069 15.1307 14.5683C14.4216 15.6297 13.4138 16.4569 12.2346 16.9454C11.0554 17.4339 9.75784 17.5617 8.50602 17.3127C7.2542 17.0637 6.10433 16.449 5.20182 15.5463C4.29931 14.6437 3.68469 13.4937 3.43569 12.2417C3.18669 10.9897 3.31448 9.69197 3.80292 8.51262C4.29135 7.33327 5.11849 6.32527 6.17973 5.61607C7.24097 4.90688 8.48866 4.52834 9.765 4.52834C10.7069 4.52797 11.6373 4.73578 12.4895 5.13691C12.616 5.19611 12.7138 5.30314 12.7613 5.43444C12.8089 5.56575 12.8024 5.71058 12.7432 5.83708C12.684 5.96358 12.577 6.06138 12.4457 6.10896C12.3144 6.15655 12.1696 6.15003 12.0431 6.09083H12.0495ZM13.378 3.32595C12.25 2.79204 11.0171 2.51652 9.76921 2.51944C8.09432 2.51777 6.45656 3.01301 5.06316 3.94249C3.66975 4.87197 2.58331 6.19392 1.9413 7.74109C1.29929 9.28826 1.13055 10.9911 1.45644 12.6342C1.78232 14.2773 2.58819 15.7869 3.77208 16.9718C4.95597 18.1567 6.46467 18.9638 8.10732 19.291C9.74996 19.6181 11.4527 19.4507 13.0002 18.8097C14.5476 18.1688 15.8702 17.0832 16.8006 15.6903C17.731 14.2974 18.2274 12.6598 18.2269 10.9846C18.2299 9.73652 17.9544 8.50347 17.4205 7.37535C17.3908 7.31285 17.3737 7.24511 17.3701 7.17599C17.3666 7.10688 17.3767 7.03774 17.3999 6.97253C17.423 6.90732 17.4588 6.84731 17.5052 6.79593C17.5515 6.74454 17.6076 6.7028 17.67 6.67307C17.7962 6.61303 17.9411 6.6056 18.0728 6.65239C18.138 6.67556 18.198 6.71135 18.2494 6.75772C18.3008 6.80408 18.3425 6.86011 18.3722 6.92261C18.9729 8.19154 19.283 9.57855 19.2797 10.9825C19.2796 13.0441 18.6102 15.0499 17.3722 16.6982C16.1343 18.3466 14.3947 19.5484 12.4151 20.1229C10.4354 20.6974 8.32282 20.6136 6.39493 19.884C4.46705 19.1545 2.82813 17.8186 1.72465 16.0773C0.621166 14.336 0.112789 12.2835 0.275971 10.2284C0.439153 8.17332 1.26507 6.22678 2.62952 4.68152C3.99396 3.13626 5.82316 2.07584 7.84202 1.65973C9.86087 1.24362 11.9602 1.49433 13.8244 2.37414C13.8894 2.40196 13.9482 2.4426 13.9971 2.49364C14.0461 2.54467 14.0843 2.60505 14.1094 2.67118C14.1345 2.7373 14.1461 2.80781 14.1433 2.87849C14.1406 2.94918 14.1237 3.01859 14.0935 3.08257C14.0634 3.14656 14.0206 3.20381 13.9679 3.25092C13.9151 3.29802 13.8534 3.334 13.7864 3.35672C13.7194 3.37944 13.6486 3.38842 13.578 3.38313C13.5075 3.37785 13.4388 3.3584 13.3759 3.32595H13.378Z" fill="#619EB4"/>
</svg>
