<svg width="21" height="21" viewBox="0 0 21 21" fill="none" xmlns="http://www.w3.org/2000/svg">
<g clip-path="url(#clip0_3544_42661)">
<path d="M10.2451 2.34229C10.1055 2.34229 9.97161 2.39774 9.8729 2.49644C9.7742 2.59514 9.71875 2.72901 9.71875 2.8686V10.0633C9.71859 10.2711 9.75941 10.4768 9.83889 10.6687C9.91837 10.8606 10.0349 11.035 10.1819 11.1818L14.0845 15.0818C14.1852 15.168 14.3147 15.213 14.4472 15.2079C14.5797 15.2028 14.7053 15.1479 14.799 15.0542C14.8928 14.9604 14.9477 14.8348 14.9528 14.7023C14.9579 14.5699 14.9129 14.4403 14.8266 14.3397L10.9266 10.437C10.8774 10.3881 10.8383 10.3298 10.8117 10.2657C10.785 10.2016 10.7713 10.1328 10.7714 10.0633V2.8686C10.7714 2.72901 10.7159 2.59514 10.6172 2.49644C10.5185 2.39774 10.3847 2.34229 10.2451 2.34229Z" fill="#B48C82"/>
<path d="M10.2455 0.763184C8.7534 0.763061 7.28128 1.10584 5.94275 1.76506C4.60422 2.42427 3.43509 3.38229 2.52564 4.56513C1.61619 5.74798 0.990745 7.12401 0.697594 8.58698C0.404444 10.05 0.451431 11.5607 0.834929 13.0027C0.873969 13.1331 0.962015 13.2433 1.08058 13.3101C1.19915 13.377 1.33901 13.3954 1.47081 13.3613C1.60261 13.3272 1.71608 13.2434 1.78741 13.1275C1.85874 13.0116 1.88237 12.8725 1.85335 12.7395C1.70951 12.1803 1.62136 11.6082 1.59019 11.0316H2.87703C3.01662 11.0316 3.15049 10.9762 3.2492 10.8774C3.3479 10.7787 3.40335 10.6449 3.40335 10.5053C3.40335 10.3657 3.3479 10.2318 3.2492 10.1331C3.15049 10.0344 3.01662 9.97897 2.87703 9.97897H1.57967C1.69472 8.04271 2.45859 6.20163 3.74809 4.75266L4.10598 5.10792C4.20667 5.19415 4.33618 5.2392 4.46864 5.23408C4.6011 5.22897 4.72675 5.17406 4.82049 5.08032C4.91422 4.98659 4.96913 4.86094 4.97425 4.72847C4.97937 4.59601 4.93431 4.4665 4.84809 4.36582L4.49282 4.00792C6.078 2.59936 8.12488 1.82134 10.2455 1.82134C12.366 1.82134 14.4129 2.59936 15.9981 4.00792L15.6428 4.36582C15.5877 4.413 15.543 4.47106 15.5114 4.53636C15.4798 4.60165 15.462 4.67278 15.4592 4.74526C15.4564 4.81774 15.4687 4.89002 15.4951 4.95756C15.5216 5.0251 15.5617 5.08644 15.613 5.13774C15.6643 5.18903 15.7256 5.22916 15.7932 5.25562C15.8607 5.28208 15.933 5.2943 16.0055 5.2915C16.078 5.2887 16.1491 5.27095 16.2144 5.23936C16.2797 5.20776 16.3377 5.16302 16.3849 5.10792L16.7428 4.75266C18.0312 6.20024 18.795 8.03928 18.9112 9.97371H17.6139C17.4743 9.97371 17.3404 10.0292 17.2417 10.1279C17.143 10.2266 17.0876 10.3604 17.0876 10.5C17.0876 10.6396 17.143 10.7735 17.2417 10.8722C17.3404 10.9709 17.4743 11.0263 17.6139 11.0263H18.9112C18.7962 12.9626 18.0323 14.8037 16.7428 16.2527L16.3849 15.8974C16.2842 15.8112 16.1547 15.7661 16.0223 15.7712C15.8898 15.7763 15.7642 15.8313 15.6704 15.925C15.5767 16.0187 15.5218 16.1444 15.5167 16.2768C15.5115 16.4093 15.5566 16.5388 15.6428 16.6395L15.9981 16.9974C14.5491 18.2869 12.708 19.0508 10.7718 19.1658V17.8684C10.7718 17.7289 10.7163 17.595 10.6176 17.4963C10.5189 17.3976 10.385 17.3421 10.2455 17.3421C10.1059 17.3421 9.972 17.3976 9.87329 17.4963C9.77459 17.595 9.71914 17.7289 9.71914 17.8684V19.1658C9.14242 19.1359 8.57021 19.0478 8.01124 18.9027C7.87825 18.8736 7.73918 18.8973 7.62324 18.9686C7.5073 19.0399 7.42351 19.1534 7.38945 19.2852C7.35539 19.417 7.37373 19.5569 7.4406 19.6754C7.50747 19.794 7.61768 19.882 7.74809 19.9211C9.08503 20.2701 10.4809 20.3305 11.843 20.0984C13.2052 19.8663 14.5023 19.347 15.6482 18.5749C16.7941 17.8028 17.7625 16.7957 18.4892 15.6204C19.2158 14.4452 19.684 13.1287 19.8626 11.7586C20.0412 10.3884 19.9262 8.99594 19.5251 7.67369C19.124 6.35143 18.4461 5.12968 17.5364 4.08964C16.6267 3.04959 15.5061 2.21507 14.249 1.64153C12.992 1.06799 11.6272 0.768577 10.2455 0.763184Z" fill="#B48C82"/>
<path d="M3.92887 13.3948C3.25225 13.3948 2.59082 13.5954 2.02823 13.9713C1.46564 14.3472 1.02716 14.8815 0.768226 15.5066C0.509295 16.1318 0.441547 16.8196 0.573549 17.4832C0.705551 18.1469 1.03137 18.7564 1.50982 19.2349C1.98826 19.7133 2.59783 20.0391 3.26145 20.1711C3.92507 20.3031 4.61293 20.2354 5.23805 19.9765C5.86316 19.7175 6.39746 19.2791 6.77337 18.7165C7.14928 18.1539 7.34992 17.4924 7.34992 16.8158C7.34992 15.9085 6.98949 15.0384 6.34792 14.3968C5.70634 13.7552 4.83619 13.3948 3.92887 13.3948ZM3.91045 19.1842C3.44282 19.1806 2.98673 19.0386 2.59968 18.7762C2.21262 18.5137 1.91193 18.1426 1.73549 17.7095C1.55905 17.2764 1.51477 16.8008 1.60822 16.3426C1.70168 15.8844 1.92869 15.4641 2.26064 15.1347C2.59259 14.8053 3.01463 14.5816 3.47354 14.4917C3.93246 14.4018 4.40773 14.4497 4.83943 14.6295C5.27113 14.8093 5.63994 15.1129 5.89938 15.5019C6.15882 15.891 6.29727 16.3482 6.29729 16.8158C6.2973 17.1284 6.23543 17.4379 6.11526 17.7265C5.99508 18.015 5.81898 18.2769 5.59709 18.4971C5.37521 18.7173 5.11194 18.8913 4.82246 19.0093C4.53298 19.1272 4.22302 19.1867 3.91045 19.1842Z" fill="#B48C82"/>
<path d="M4.2991 15.129C4.19841 15.0428 4.0689 14.9977 3.93644 15.0028C3.80397 15.008 3.67832 15.0629 3.58459 15.1566C3.49085 15.2503 3.43594 15.376 3.43083 15.5084C3.42571 15.6409 3.47077 15.7704 3.55699 15.8711L3.97278 16.2895H2.61225C2.47267 16.2895 2.3388 16.345 2.24009 16.4437C2.14139 16.5424 2.08594 16.6763 2.08594 16.8158C2.08594 16.9554 2.14139 17.0893 2.24009 17.188C2.3388 17.2867 2.47267 17.3422 2.61225 17.3422H3.97278L3.55699 17.7606C3.50189 17.8078 3.45715 17.8658 3.42556 17.9311C3.39396 17.9964 3.37621 18.0675 3.37341 18.14C3.37061 18.2125 3.38283 18.2848 3.40929 18.3523C3.43575 18.4199 3.47588 18.4812 3.52717 18.5325C3.57847 18.5838 3.63981 18.6239 3.70735 18.6504C3.77489 18.6768 3.84717 18.6891 3.91965 18.6863C3.99213 18.6835 4.06326 18.6657 4.12855 18.6341C4.19385 18.6025 4.25191 18.5578 4.2991 18.5027L5.43067 17.3737C5.55181 17.251 5.62944 17.0921 5.65173 16.9211C5.66591 16.8516 5.66591 16.78 5.65173 16.7106C5.62944 16.5396 5.55181 16.3806 5.43067 16.2579L4.2991 15.129Z" fill="#B48C82"/>
</g>
<defs>
<clipPath id="clip0_3544_42661">
<rect width="20" height="20" fill="white" transform="translate(0.246094 0.5)"/>
</clipPath>
</defs>
</svg>
