<svg width="17" height="17" viewBox="0 0 17 17" fill="none" xmlns="http://www.w3.org/2000/svg">
<path d="M1.67578 6.46954C1.67578 5.42186 2.5251 4.57254 3.57278 4.57254H5.46979C5.99363 4.57254 6.41829 4.9972 6.41829 5.52104V12.1606C6.41829 12.6844 5.99363 13.1091 5.46979 13.1091H3.57278C2.5251 13.1091 1.67578 12.2597 1.67578 11.2121V6.46954Z" stroke="#F38294" stroke-width="1.5176" stroke-linecap="round"/>
<path d="M13.1579 1.20272L7.46693 4.04822C6.82425 4.36956 6.41829 5.02642 6.41829 5.74495V11.8247C6.41829 12.6004 6.89055 13.298 7.61076 13.586L13.3018 15.8624C14.5478 16.3609 15.9033 15.4432 15.9033 14.1011V2.89945C15.9033 1.48925 14.4193 0.57206 13.1579 1.20272Z" stroke="#F38294" stroke-width="1.5176" stroke-linecap="round"/>
</svg>
