<svg width="18" height="21" viewBox="0 0 18 21" fill="none" xmlns="http://www.w3.org/2000/svg">
<path fill-rule="evenodd" clip-rule="evenodd" d="M1.09525 0C0.858069 0 0.632794 0.0862499 0.471276 0.24C0.310608 0.393 0.2307 0.5985 0.248552 0.807L1.94874 20.307C1.98274 20.6978 2.35083 21 2.79543 21H14.6968C15.1414 21 15.5094 20.6978 15.5434 20.307L17.2436 0.807C17.2615 0.5985 17.1816 0.393 17.0209 0.24C16.8594 0.0862499 16.6341 0 16.3969 0H1.09525ZM2.01335 1.5H15.4788L15.2298 4.35675C11.9365 3.39525 10.1904 3.97125 8.44686 4.548C6.90224 5.0595 5.35762 5.5695 2.28113 4.56L2.01335 1.5ZM11.9373 5.3595C12.7959 5.349 13.8127 5.49525 15.0954 5.90475L13.9096 19.5H3.58262L2.42224 6.189C5.6118 7.08525 7.33069 6.519 9.04533 5.952C9.91752 5.66325 10.7889 5.3745 11.9373 5.3595Z" fill="#A3AE95"/>
</svg>
