<?xml version="1.0" encoding="UTF-8"?>
<svg id="Layer_2" data-name="Layer 2" xmlns="http://www.w3.org/2000/svg" viewBox="0 0 425.59 405.17">
  <defs>
    <style>
      .cls-1, .cls-2, .cls-3, .cls-4, .cls-5, .cls-6, .cls-7, .cls-8, .cls-9, .cls-10, .cls-11, .cls-12, .cls-13, .cls-14, .cls-15, .cls-16, .cls-17, .cls-18, .cls-19, .cls-20, .cls-21, .cls-22, .cls-23 {
        stroke-width: 0px;
      }

      .cls-1, .cls-16 {
        fill: #97d3f7;
      }

      .cls-2 {
        fill: #8bcdef;
      }

      .cls-3 {
        fill: #f9739c;
      }

      .cls-4 {
        fill: #f7941e;
      }

      .cls-5 {
        fill: #0daeb2;
      }

      .cls-6 {
        fill: #fc9fc1;
      }

      .cls-7 {
        fill: #ffdce4;
      }

      .cls-24 {
        font-family: Montserrat-Regular, Montserrat;
        font-size: 14.24px;
      }

      .cls-24, .cls-9, .cls-14 {
        fill: #fff;
      }

      .cls-8 {
        fill: #f74887;
      }

      .cls-9 {
        opacity: .5;
      }

      .cls-25 {
        letter-spacing: .2em;
      }

      .cls-26 {
        letter-spacing: .19em;
      }

      .cls-10 {
        opacity: .7;
      }

      .cls-10, .cls-22 {
        fill: #3d3544;
      }

      .cls-27 {
        letter-spacing: .19em;
      }

      .cls-11 {
        fill: #77c2e0;
      }

      .cls-12 {
        fill: #ffe1ed;
      }

      .cls-13 {
        fill: #f47621;
      }

      .cls-15 {
        fill: #cfefff;
      }

      .cls-16 {
        opacity: .2;
      }

      .cls-17 {
        fill: #f4ca76;
      }

      .cls-28 {
        letter-spacing: .18em;
      }

      .cls-18 {
        fill: #ffd8a4;
      }

      .cls-19 {
        fill: #fbb040;
      }

      .cls-20 {
        fill: #edc86b;
      }

      .cls-21 {
        fill: #f78a74;
      }

      .cls-22 {
        opacity: .3;
      }

      .cls-23 {
        fill: #07939e;
      }

      .cls-29 {
        fill: none;
        stroke: #0daeb2;
        stroke-linecap: round;
        stroke-linejoin: round;
        stroke-width: 1.5px;
      }

      .cls-30 {
        letter-spacing: .2em;
      }
    </style>
  </defs>
  <g id="OBJECTS">
    <g>
      <g>
        <path class="cls-29" d="M329.65,58.61s14.32,86.94-10.74,135.37"/>
        <path class="cls-23" d="M308.72,150.75c4.72,15.76,16.53,26.13,16.53,26.13,0,0,4.15-15.16-.57-30.91-4.72-15.76-16.53-26.14-16.53-26.14,0,0-4.15,15.17.56,30.93Z"/>
        <path class="cls-5" d="M317.24,117.81c5.53,12.13,16.15,19.16,16.15,19.16,0,0,1.67-12.63-3.86-24.76-5.53-12.14-16.15-19.17-16.15-19.17,0,0-1.67,12.64,3.86,24.77Z"/>
        <path class="cls-23" d="M315.71,74.5c6.52,11.63,17.69,17.75,17.69,17.75,0,0,.61-12.73-5.91-24.36-6.52-11.63-17.69-17.76-17.69-17.76,0,0-.6,12.74,5.91,24.37Z"/>
        <path class="cls-23" d="M336.53,101.58c-4.95,12.38-2.7,24.92-2.7,24.92,0,0,10.28-7.52,15.23-19.9,4.95-12.38,2.7-24.93,2.7-24.93,0,0-10.29,7.53-15.23,19.91Z"/>
        <path class="cls-5" d="M333.02,62.96c-3.53,12.86.13,25.07.13,25.07,0,0,9.37-8.63,12.9-21.49,3.53-12.86-.12-25.07-.12-25.07,0,0-9.38,8.64-12.91,21.5Z"/>
        <path class="cls-5" d="M319.23,40.63c2.37,13.12,10.95,22.55,10.95,22.55,0,0,4.72-11.83,2.35-24.95-2.37-13.12-10.94-22.55-10.94-22.55,0,0-4.73,11.84-2.36,24.96Z"/>
        <path class="cls-5" d="M350.24,151.47c-8.74,13.94-22.87,20.8-22.87,20.8,0,0,.03-15.72,8.76-29.66,8.74-13.94,22.88-20.81,22.88-20.81,0,0-.02,15.73-8.76,29.66Z"/>
      </g>
      <g>
        <g>
          <path class="cls-1" d="M326.4,110.09c5.1-24.43,18.69-42.25,30.36-39.82,11.68,2.43,17.02,24.21,11.92,48.64-5.09,24.43-18.68,42.25-30.36,39.82-11.68-2.44-17.02-24.21-11.92-48.64Z"/>
          <path class="cls-1" d="M373.56,119.92c5.09-24.43,18.69-42.26,30.36-39.83,11.67,2.43,17.01,24.2,11.92,48.64-5.09,24.43-18.68,42.26-30.36,39.82-11.68-2.43-17.01-24.21-11.92-48.64Z"/>
        </g>
        <path class="cls-1" d="M346.77,112.93c12.01-57.62-16.3-112.26,46.71-99.12,63.01,13.13,15.23,51.91,3.22,109.53-12.01,57.62,16.3,112.27-46.71,99.13-63.01-13.13-15.23-51.91-3.22-109.54Z"/>
        <g>
          <path class="cls-1" d="M345.72,112.7c-12.01,57.62-58.75,96.63,4.26,109.77,63.01,13.14,35.41-41.35,47.42-98.97,12.01-57.62,59.08-96.55-3.93-109.69-63.01-13.14-35.75,41.28-47.76,98.89ZM363.66,21.65c4.96-4.06,14.56-4.64,28.55-1.73,13.98,2.92,22.56,7.29,25.48,12.99,4.37,8.53-2.17,23.25-9.73,40.3-6.35,14.29-13.54,30.5-17.38,48.87-3.83,18.37-3.7,36.1-3.6,51.74.13,18.65.24,34.75-7.18,40.83-4.96,4.06-14.56,4.64-28.54,1.73-13.98-2.92-22.56-7.29-25.48-12.99-4.37-8.53,2.17-23.25,9.74-40.29,6.34-14.3,13.54-30.5,17.37-48.87,3.83-18.37,3.71-36.1,3.6-51.74-.13-18.65-.24-34.75,7.17-40.82Z"/>
          <path class="cls-14" d="M354.37,114.51c-3.82,18.32-10.93,34.43-17.2,48.65-7.34,16.63-13.67,30.98-9.65,38.94,2.69,5.32,10.82,9.43,24.16,12.21,13.35,2.79,22.44,2.27,27.04-1.54,6.86-5.68,6.79-21.38,6.71-39.55-.07-15.54-.15-33.15,3.67-51.46,3.82-18.31,10.93-34.43,17.2-48.64,7.34-16.63,13.67-30.99,9.65-38.94-2.69-5.32-10.82-9.44-24.17-12.22-13.35-2.78-22.44-2.26-27.03,1.54-6.86,5.68-6.79,21.38-6.71,39.55.07,15.54.15,33.15-3.67,51.46Z"/>
        </g>
        <g>
          <path class="cls-16" d="M369.06,64.92c1.76-8.45,9.09-14.08,16.38-12.56h0c7.28,1.52,11.76,9.6,10,18.06l-21.6,103.63c-1.76,8.45-9.1,14.07-16.38,12.55h0c-7.28-1.52-11.76-9.6-10-18.05l21.6-103.63Z"/>
          <path class="cls-16" d="M370.32,82.35c1.21-5.77,5.99-9.66,10.68-8.68h0c4.7.98,7.53,6.45,6.33,12.22l-14.74,70.73c-1.2,5.77-5.98,9.65-10.68,8.67h0c-4.7-.97-7.53-6.45-6.33-12.22l14.74-70.73Z"/>
        </g>
      </g>
      <g>
        <g>
          <path class="cls-5" d="M352.77,262.24c-.32.03-.62-.19-.69-.52-.12-.58-11.41-58.89,26.72-103.34.23-.27.64-.3.92-.07.28.24.3.65.07.92-37.72,43.97-26.55,101.65-26.43,102.23.07.35-.16.7-.51.77-.03,0-.05,0-.08,0Z"/>
          <path class="cls-5" d="M350.96,235.71c-.05,0-.11,0-.17,0-.35-.06-.59-.4-.53-.76.08-.42,7.85-42.44,32.58-53.88.32-.15.71,0,.86.32.15.32,0,.71-.32.86-24.12,11.16-31.77,52.51-31.84,52.93-.05.3-.3.51-.59.53Z"/>
          <path class="cls-5" d="M351.11,245.41c-.33.03-.63-.2-.69-.53-5.72-29.91,9.08-83.01,9.24-83.54.1-.35.46-.55.8-.45.34.1.54.46.45.8-.15.53-14.87,53.34-9.21,82.95.07.35-.16.7-.52.76-.02,0-.05,0-.07.01Z"/>
        </g>
        <path class="cls-6" d="M379.55,167.97c-3.83,7.02-9.44,11.35-12.53,9.67-3.09-1.68-2.5-8.75,1.33-15.77,3.83-7.03,9.44-11.36,12.53-9.68,3.09,1.68,2.5,8.75-1.33,15.78Z"/>
        <path class="cls-3" d="M380.34,191.36c-5.5,5.81-12.03,8.56-14.59,6.14-2.56-2.42-.18-9.09,5.32-14.91,5.5-5.82,12.03-8.57,14.59-6.15,2.56,2.42.18,9.1-5.32,14.91Z"/>
        <path class="cls-3" d="M363.3,172.7c-1.97,7.76-6.34,13.34-9.75,12.47-3.41-.87-4.58-7.86-2.62-15.61,1.97-7.76,6.34-13.34,9.75-12.47,3.42.87,4.59,7.86,2.61,15.61Z"/>
      </g>
      <g>
        <g>
          <path class="cls-5" d="M355.98,274.38c-.27-.19-.63-.15-.85.1-.4.45-39.37,45.27-28.61,102.83.07.35.41.58.76.52.36-.06.58-.41.52-.76-10.64-56.95,27.91-101.29,28.3-101.73.24-.27.21-.68-.05-.92-.02-.02-.04-.03-.06-.04Z"/>
          <path class="cls-5" d="M341.13,296.44s-.1-.06-.15-.08c-.34-.12-.71.05-.83.39-.15.4-14.45,40.67,1.23,62.95.21.29.61.36.91.15.29-.2.36-.61.16-.91-15.3-21.73-1.21-61.36-1.07-61.76.1-.28,0-.59-.24-.75Z"/>
          <path class="cls-5" d="M346.12,288.12c-.27-.18-.64-.14-.86.11-19.92,23.03-33.7,76.41-33.83,76.94-.09.35.12.7.47.79.35.09.7-.12.79-.47.13-.54,13.83-53.62,33.55-76.41.24-.27.21-.69-.06-.92-.02-.02-.04-.03-.06-.05Z"/>
        </g>
        <path class="cls-6" d="M331.97,369.4c.2-8-2.48-14.56-6.01-14.65-3.52-.09-6.54,6.32-6.74,14.32-.21,8,2.48,14.56,6,14.65,3.52.09,6.55-6.32,6.75-14.32Z"/>
        <path class="cls-3" d="M344.36,349.54c-1.84-7.78-6.13-13.44-9.55-12.62-3.43.81-4.71,7.78-2.86,15.57,1.85,7.79,6.12,13.44,9.55,12.63,3.43-.81,4.71-7.79,2.86-15.57Z"/>
        <path class="cls-3" d="M320.27,357.16c2.18-7.7,1.19-14.72-2.2-15.68-3.39-.96-7.9,4.51-10.08,12.21-2.18,7.7-1.19,14.72,2.2,15.68,3.39.96,7.91-4.5,10.08-12.21Z"/>
      </g>
      <g>
        <path class="cls-29" d="M377.24,239.89s-64.44,52.56-76.96,102.48"/>
        <path class="cls-23" d="M334.49,318.14c-13.18,8.2-28.01,8.17-28.01,8.17,0,0,6.53-13.32,19.71-21.52,13.19-8.2,28.02-8.17,28.02-8.17,0,0-6.54,13.32-19.71,21.52Z"/>
        <path class="cls-5" d="M349.03,289.52c-11.49,5.13-23.4,3.47-23.4,3.47,0,0,6.71-9.98,18.2-15.11,11.49-5.13,23.4-3.47,23.4-3.47,0,0-6.72,9.98-18.21,15.11Z"/>
        <path class="cls-23" d="M377.17,259.83c-11.88,4.16-23.61,1.51-23.61,1.51,0,0,7.52-9.38,19.4-13.54,11.88-4.16,23.61-1.51,23.61-1.51,0,0-7.53,9.39-19.4,13.54Z"/>
        <path class="cls-23" d="M345.53,265.99c-4.23,11.85-13.66,19.31-13.66,19.31,0,0-2.57-11.75,1.65-23.6,4.23-11.85,13.66-19.32,13.66-19.32,0,0,2.57,11.75-1.66,23.6Z"/>
        <path class="cls-5" d="M372.13,240.86c-5.54,11.3-15.74,17.65-15.74,17.65,0,0-1.24-11.96,4.29-23.26,5.54-11.3,15.74-17.66,15.74-17.66,0,0,1.24,11.97-4.29,23.27Z"/>
        <path class="cls-5" d="M395.84,233.67c-9.87,7.8-21.83,9.11-21.83,9.11,0,0,4.05-11.32,13.92-19.12,9.88-7.8,21.83-9.12,21.83-9.12,0,0-4.06,11.33-13.93,19.13Z"/>
        <path class="cls-5" d="M304.67,292.72c-2.53,15.32,3.19,29,3.19,29,0,0,9.8-11.14,12.33-26.45,2.52-15.32-3.19-29.01-3.19-29.01,0,0-9.8,11.14-12.33,26.46Z"/>
      </g>
      <g>
        <path class="cls-29" d="M85.2,364.03s4.02-83.06-24.73-125.75"/>
        <path class="cls-23" d="M55.61,279.92c2.72-15.29,12.66-26.29,12.66-26.29,0,0,5.53,13.76,2.82,29.04-2.72,15.29-12.67,26.3-12.67,26.3,0,0-5.54-13.77-2.82-29.05Z"/>
        <path class="cls-5" d="M67.17,309.88c3.87-11.98,13.07-19.72,13.07-19.72,0,0,2.93,11.67-.94,23.64-3.87,11.98-13.07,19.72-13.07,19.72,0,0-2.93-11.67.94-23.64Z"/>
        <path class="cls-23" d="M70.42,350.65c4.85-11.61,14.67-18.56,14.67-18.56,0,0,1.95,11.87-2.91,23.48-4.85,11.61-14.67,18.57-14.67,18.57,0,0-1.95-11.87,2.91-23.48Z"/>
        <path class="cls-23" d="M87,323c-5.98-11.07-5.22-23.07-5.22-23.07,0,0,10.45,5.94,16.44,17.01,5.98,11.07,5.22,23.07,5.22,23.07,0,0-10.46-5.94-16.44-17.01Z"/>
        <path class="cls-5" d="M87.9,359.59c-4.7-11.67-2.6-23.51-2.6-23.51,0,0,9.72,7.08,14.42,18.75,4.7,11.67,2.6,23.52,2.6,23.52,0,0-9.72-7.08-14.43-18.75Z"/>
        <path class="cls-5" d="M77.38,382.02c.81-12.55,7.82-22.32,7.82-22.32,0,0,5.71,10.58,4.91,23.14-.81,12.56-7.82,22.33-7.82,22.33,0,0-5.71-10.59-4.91-23.15Z"/>
        <path class="cls-5" d="M94.45,274.75c-9.7-12.12-23.69-17.03-23.69-17.03,0,0,1.72,14.74,11.42,26.85,9.7,12.12,23.7,17.03,23.7,17.03,0,0-1.73-14.74-11.43-26.86Z"/>
      </g>
      <g>
        <g>
          <path class="cls-8" d="M60.57,39c-.89,8.17-5.89,14.33-11.18,13.75-5.28-.57-8.84-7.67-7.95-15.84.89-8.17,5.89-14.33,11.17-13.75,5.28.58,8.84,7.67,7.95,15.84Z"/>
          <path class="cls-8" d="M43.07,36.2c6.63,4.86,9.46,12.27,6.32,16.55-3.14,4.29-11.06,3.83-17.69-1.03-6.63-4.86-9.46-12.27-6.32-16.55,3.14-4.29,11.06-3.83,17.69,1.03Z"/>
          <path class="cls-8" d="M31.9,49.95c7.52-3.31,15.36-2.06,17.5,2.8,2.14,4.86-2.22,11.49-9.74,14.8-7.53,3.31-15.36,2.06-17.5-2.8-2.14-4.86,2.22-11.49,9.74-14.8Z"/>
          <path class="cls-8" d="M38.22,66.51c.89-8.17,5.89-14.33,11.18-13.75,5.28.58,8.84,7.67,7.95,15.84-.89,8.17-5.9,14.33-11.18,13.75-5.28-.58-8.84-7.67-7.95-15.84Z"/>
          <path class="cls-8" d="M55.72,69.31c-6.63-4.86-9.46-12.27-6.32-16.56,3.14-4.29,11.06-3.82,17.69,1.03,6.63,4.86,9.46,12.27,6.32,16.55-3.14,4.29-11.06,3.82-17.69-1.03Z"/>
          <path class="cls-8" d="M66.89,55.56c-7.52,3.31-15.35,2.06-17.5-2.8-2.14-4.86,2.22-11.49,9.74-14.8,7.52-3.32,15.36-2.06,17.5,2.8,2.14,4.86-2.22,11.49-9.74,14.8Z"/>
        </g>
        <g>
          <path class="cls-3" d="M52.04,35.23c3.38,7.49,2.2,15.34-2.65,17.52-4.84,2.19-11.51-2.12-14.89-9.61-3.38-7.49-2.19-15.33,2.65-17.52,4.84-2.18,11.51,2.12,14.89,9.61Z"/>
          <path class="cls-3" d="M35.54,41.7c8.18.82,14.38,5.77,13.85,11.05-.53,5.29-7.59,8.91-15.77,8.09-8.18-.82-14.38-5.77-13.85-11.05.53-5.29,7.59-8.91,15.77-8.09Z"/>
          <path class="cls-3" d="M32.89,59.22c4.8-6.67,12.19-9.57,16.5-6.47,4.31,3.1,3.92,11.03-.88,17.7-4.8,6.67-12.18,9.57-16.5,6.47-4.31-3.1-3.92-11.03.88-17.7Z"/>
          <path class="cls-3" d="M46.74,70.28c-3.38-7.49-2.19-15.34,2.65-17.52,4.84-2.18,11.51,2.12,14.89,9.61,3.38,7.49,2.19,15.34-2.65,17.52-4.84,2.18-11.51-2.12-14.89-9.61Z"/>
          <path class="cls-3" d="M63.24,63.81c-8.18-.82-14.38-5.77-13.85-11.06.53-5.29,7.59-8.91,15.77-8.09,8.18.82,14.38,5.77,13.85,11.06-.53,5.29-7.58,8.91-15.76,8.09Z"/>
          <path class="cls-3" d="M65.89,46.29c-4.8,6.67-12.19,9.57-16.5,6.47-4.31-3.1-3.92-11.02.88-17.7,4.8-6.67,12.18-9.57,16.5-6.47,4.31,3.1,3.92,11.03-.88,17.7Z"/>
        </g>
        <g>
          <path class="cls-6" d="M51.2,40.78c2.31,5.12,1.5,10.48-1.81,11.97-3.31,1.49-7.86-1.45-10.17-6.56-2.31-5.12-1.5-10.48,1.81-11.97,3.31-1.49,7.86,1.45,10.17,6.56Z"/>
          <path class="cls-6" d="M39.93,45.2c5.58.56,9.82,3.94,9.46,7.55-.36,3.61-5.18,6.09-10.77,5.53-5.59-.56-9.82-3.94-9.46-7.55.36-3.61,5.19-6.08,10.77-5.53Z"/>
          <path class="cls-6" d="M38.12,57.17c3.28-4.56,8.32-6.54,11.27-4.42,2.95,2.12,2.68,7.53-.6,12.09-3.28,4.56-8.32,6.54-11.27,4.42-2.95-2.12-2.68-7.53.6-12.09Z"/>
          <path class="cls-6" d="M47.58,64.72c-2.31-5.12-1.5-10.48,1.81-11.97,3.31-1.49,7.86,1.45,10.17,6.57,2.31,5.12,1.5,10.48-1.81,11.97-3.31,1.49-7.86-1.44-10.17-6.56Z"/>
          <path class="cls-6" d="M58.85,60.31c-5.59-.56-9.82-3.94-9.46-7.55.36-3.61,5.18-6.08,10.77-5.53,5.59.56,9.82,3.94,9.46,7.55-.36,3.61-5.18,6.09-10.77,5.53Z"/>
          <path class="cls-6" d="M60.66,48.34c-3.28,4.56-8.32,6.54-11.27,4.42-2.95-2.12-2.68-7.53.6-12.09,3.28-4.56,8.33-6.54,11.27-4.42,2.95,2.12,2.68,7.53-.6,12.09Z"/>
        </g>
        <g>
          <path class="cls-14" d="M50.37,46.27c1.25,2.77.81,5.67-.98,6.48-1.79.81-4.26-.78-5.51-3.55-1.25-2.77-.81-5.67.98-6.48,1.79-.81,4.26.78,5.51,3.55Z"/>
          <path class="cls-14" d="M44.27,48.67c3.03.3,5.32,2.13,5.12,4.09-.2,1.96-2.81,3.3-5.83,2.99-3.03-.3-5.32-2.13-5.12-4.09.2-1.96,2.81-3.29,5.83-2.99Z"/>
          <path class="cls-14" d="M43.29,55.15c1.78-2.47,4.51-3.54,6.1-2.39,1.6,1.15,1.45,4.08-.33,6.55-1.77,2.47-4.51,3.54-6.1,2.39-1.6-1.15-1.45-4.08.32-6.55Z"/>
          <path class="cls-14" d="M48.41,59.24c-1.25-2.77-.81-5.67.98-6.48,1.79-.81,4.26.78,5.51,3.55,1.25,2.77.81,5.67-.98,6.48-1.79.81-4.26-.78-5.51-3.55Z"/>
          <path class="cls-14" d="M54.52,56.84c-3.03-.3-5.32-2.13-5.12-4.09.19-1.96,2.81-3.3,5.83-2.99,3.03.3,5.32,2.13,5.12,4.09s-2.81,3.29-5.83,2.99Z"/>
          <path class="cls-14" d="M55.5,50.36c-1.78,2.47-4.51,3.54-6.1,2.39-1.6-1.15-1.45-4.08.32-6.55,1.78-2.47,4.51-3.54,6.1-2.39,1.6,1.15,1.45,4.08-.32,6.55Z"/>
        </g>
        <path class="cls-12" d="M56.9,42.94c5.42,4.14,6.46,11.9,2.31,17.32-4.14,5.42-11.9,6.46-17.32,2.32-5.42-4.15-6.46-11.9-2.31-17.32,4.14-5.42,11.9-6.46,17.32-2.31Z"/>
      </g>
      <g>
        <path class="cls-1" d="M294.41,362.69c1.58,9.53-4.86,18.55-14.4,20.12l-104.62,17.37c-9.53,1.58-18.54-4.86-20.13-14.4l-4.88-29.42c-1.58-9.54,4.86-18.54,14.4-20.13l104.62-17.37c9.53-1.58,18.54,4.86,20.13,14.39l4.88,29.43Z"/>
        <g>
          <path class="cls-2" d="M179.25,359.81c-2.46,5.52-8.94,8.01-14.46,5.54-5.52-2.46-8.01-8.93-5.54-14.46,2.46-5.52,8.93-8.01,14.46-5.54,5.52,2.46,8,8.94,5.54,14.46Z"/>
          <path class="cls-14" d="M176.91,358.77c-1.89,4.23-6.84,6.13-11.08,4.24-4.23-1.88-6.13-6.84-4.25-11.08,1.89-4.23,6.85-6.13,11.08-4.25,4.23,1.89,6.13,6.84,4.25,11.08Z"/>
          <rect class="cls-1" x="163.42" y="354.56" width="11.66" height="1.59" transform="translate(-224.22 365.56) rotate(-66.02)"/>
        </g>
        <g>
          <path class="cls-2" d="M190.76,361.21c-5.59-2.3-8.27-8.7-5.97-14.29,2.3-5.59,8.69-8.26,14.29-5.96,5.59,2.3,8.26,8.7,5.96,14.29-2.3,5.59-8.69,8.26-14.29,5.96Z"/>
          <path class="cls-14" d="M191.74,358.85c-4.28-1.76-6.33-6.66-4.57-10.95,1.76-4.28,6.66-6.33,10.95-4.57,4.29,1.76,6.33,6.66,4.57,10.95-1.76,4.28-6.66,6.33-10.95,4.57Z"/>
          <rect class="cls-1" x="194.13" y="345.26" width="1.59" height="11.66" transform="translate(-203.88 398.16) rotate(-67.69)"/>
        </g>
        <g>
          <path class="cls-2" d="M228.98,339.77c3.9,4.62,3.31,11.53-1.32,15.43-4.63,3.9-11.53,3.3-15.43-1.32-3.9-4.62-3.31-11.53,1.32-15.43,4.62-3.89,11.53-3.3,15.43,1.32Z"/>
          <path class="cls-6" d="M227.02,341.42c2.99,3.54,2.53,8.83-1.01,11.82-3.54,2.98-8.83,2.53-11.82-1.01-2.98-3.54-2.53-8.83,1.01-11.82,3.54-2.98,8.84-2.53,11.82,1.01Z"/>
          <rect class="cls-14" x="219.81" y="341" width="1.59" height="11.65" transform="translate(-171.5 223.51) rotate(-40.08)"/>
        </g>
        <g>
          <path class="cls-2" d="M247.75,353.41c-5.99.81-11.51-3.39-12.32-9.38-.81-5.99,3.39-11.51,9.38-12.32,5.99-.81,11.51,3.39,12.32,9.38.81,5.99-3.39,11.51-9.38,12.32Z"/>
          <path class="cls-6" d="M247.41,350.87c-4.59.62-8.82-2.6-9.44-7.19-.62-4.59,2.6-8.82,7.19-9.44,4.59-.62,8.82,2.6,9.44,7.19.62,4.59-2.6,8.82-7.19,9.44Z"/>
          <rect class="cls-14" x="240.46" y="341.77" width="11.66" height="1.59" transform="translate(-43.64 36.05) rotate(-7.69)"/>
        </g>
        <g>
          <path class="cls-2" d="M281.97,342.75c-2.46,5.52-8.93,8.01-14.46,5.54-5.52-2.46-8-8.93-5.54-14.46,2.46-5.52,8.93-8.01,14.46-5.54,5.52,2.46,8,8.93,5.54,14.46Z"/>
          <path class="cls-14" d="M279.63,341.71c-1.89,4.23-6.84,6.13-11.08,4.24-4.23-1.88-6.13-6.84-4.25-11.07,1.88-4.23,6.84-6.13,11.08-4.25,4.23,1.89,6.13,6.84,4.25,11.08Z"/>
          <rect class="cls-1" x="266.14" y="337.5" width="11.65" height="1.59" transform="translate(-147.73 449.06) rotate(-65.99)"/>
        </g>
        <g>
          <path class="cls-2" d="M183.62,386.19c-2.46,5.52-8.93,8-14.46,5.54-5.52-2.46-8.01-8.94-5.54-14.46,2.46-5.52,8.94-8,14.46-5.54,5.52,2.46,8,8.93,5.54,14.46Z"/>
          <path class="cls-14" d="M181.29,385.15c-1.89,4.23-6.84,6.13-11.08,4.25-4.23-1.89-6.13-6.84-4.25-11.08,1.89-4.23,6.84-6.13,11.08-4.25,4.23,1.89,6.13,6.84,4.25,11.08Z"/>
          <rect class="cls-1" x="167.8" y="380.94" width="11.66" height="1.59" transform="translate(-245.73 384.52) rotate(-65.92)"/>
        </g>
        <g>
          <path class="cls-2" d="M205.63,386.41c-4.93,3.5-11.77,2.33-15.26-2.61-3.49-4.94-2.33-11.77,2.61-15.26,4.93-3.49,11.77-2.33,15.26,2.61,3.49,4.94,2.33,11.77-2.61,15.26Z"/>
          <path class="cls-14" d="M204.15,384.32c-3.78,2.68-9.02,1.78-11.69-2-2.68-3.78-1.78-9.02,2-11.69,3.78-2.68,9.02-1.78,11.69,2,2.68,3.78,1.78,9.01-2,11.69Z"/>
          <rect class="cls-1" x="193.48" y="376.67" width="11.66" height="1.59" transform="translate(-181.41 184.43) rotate(-35.28)"/>
        </g>
        <g>
          <path class="cls-2" d="M234.99,377.66c-2.46,5.52-8.93,8.01-14.46,5.54-5.52-2.46-8.01-8.93-5.54-14.46,2.46-5.52,8.93-8,14.46-5.54,5.52,2.46,8.01,8.93,5.54,14.46Z"/>
          <path class="cls-6" d="M232.65,376.62c-1.88,4.23-6.84,6.13-11.08,4.24-4.23-1.88-6.13-6.84-4.25-11.07,1.89-4.23,6.85-6.13,11.08-4.25,4.23,1.89,6.13,6.85,4.25,11.08Z"/>
          <rect class="cls-14" x="219.16" y="372.41" width="11.65" height="1.59" transform="translate(-207.46 426.96) rotate(-66)"/>
        </g>
        <g>
          <path class="cls-2" d="M252.08,379.8c-6,.78-11.49-3.45-12.27-9.44-.78-6,3.45-11.49,9.44-12.27,6-.78,11.49,3.44,12.27,9.44.78,6-3.45,11.49-9.44,12.27Z"/>
          <path class="cls-14" d="M251.75,377.26c-4.59.6-8.8-2.64-9.4-7.24-.6-4.6,2.64-8.8,7.24-9.4,4.59-.6,8.8,2.64,9.4,7.24.6,4.59-2.64,8.8-7.24,9.4Z"/>
          <rect class="cls-1" x="244.84" y="368.15" width="11.66" height="1.59" transform="translate(-45.33 35.27) rotate(-7.38)"/>
        </g>
        <g>
          <path class="cls-2" d="M286.35,369.14c-2.46,5.52-8.94,8-14.46,5.54-5.52-2.46-8-8.93-5.54-14.46,2.46-5.52,8.93-8,14.46-5.54,5.52,2.46,8,8.93,5.54,14.46Z"/>
          <path class="cls-6" d="M284.01,368.09c-1.89,4.23-6.84,6.13-11.08,4.25-4.23-1.89-6.13-6.84-4.25-11.08,1.89-4.23,6.84-6.13,11.08-4.25,4.23,1.89,6.13,6.85,4.25,11.08Z"/>
          <rect class="cls-14" x="270.52" y="363.89" width="11.65" height="1.59" transform="translate(-169.26 468.57) rotate(-65.97)"/>
        </g>
      </g>
      <g>
        <path class="cls-29" d="M288.06,359.53s44.81-70.05,41.11-121.38"/>
        <path class="cls-23" d="M304.23,271.84c9.96-11.91,24.06-16.51,24.06-16.51,0,0-2.05,14.7-12,26.6-9.96,11.9-24.07,16.51-24.07,16.51,0,0,2.05-14.7,12.01-26.6Z"/>
        <path class="cls-5" d="M299.35,303.58c9.31-8.46,21.14-10.6,21.14-10.6,0,0-3.26,11.58-12.57,20.04-9.31,8.46-21.15,10.61-21.15,10.61,0,0,3.27-11.58,12.58-20.04Z"/>
        <path class="cls-23" d="M281.89,340.57c9.99-7.66,21.95-8.8,21.95-8.8,0,0-4.21,11.26-14.2,18.92-9.99,7.66-21.96,8.81-21.96,8.81,0,0,4.22-11.27,14.21-18.92Z"/>
        <path class="cls-23" d="M310.03,324.83c.32-12.58,6.95-22.61,6.95-22.61,0,0,6.11,10.36,5.8,22.93-.32,12.58-6.95,22.62-6.95,22.62,0,0-6.12-10.36-5.8-22.94Z"/>
        <path class="cls-5" d="M292.61,357.02c1.73-12.46,9.45-21.69,9.45-21.69,0,0,4.91,10.97,3.18,23.44-1.73,12.47-9.44,21.7-9.44,21.7,0,0-4.91-10.98-3.18-23.45Z"/>
        <path class="cls-5" d="M272.32,371.24c6.95-10.49,17.89-15.47,17.89-15.47,0,0-.31,12.02-7.26,22.51-6.95,10.5-17.89,15.49-17.89,15.49,0,0,.32-12.03,7.26-22.52Z"/>
        <path class="cls-5" d="M340.5,286.68c-2.38-15.34-12.09-26.56-12.09-26.56,0,0-5.84,13.64-3.45,28.98,2.39,15.34,12.09,26.57,12.09,26.57,0,0,5.84-13.65,3.45-28.99Z"/>
      </g>
      <g>
        <path class="cls-1" d="M225.09,18.75L99.02,0l-8.91,17.57,40.73,78.46s4.24,4.74,17.33,6.69c13.09,1.94,18.53-1.35,18.53-1.35l61.8-63.22-3.41-19.4Z"/>
        <path class="cls-14" d="M180.85,35.65c-.28,1.92-2.59,3.38-6.72,5.05-3.48-2.8-5.25-4.87-4.97-6.78.29-1.92,2.07-3.24,3.98-2.96.92.13,1.71.62,2.24,1.3.71-.49,1.6-.74,2.52-.59,1.92.28,3.24,2.06,2.95,3.98ZM188.28,55.85c-.53-.68-1.32-1.16-2.24-1.3-1.91-.28-3.69,1.04-3.98,2.95-.28,1.91,1.5,3.99,4.97,6.78,4.14-1.66,6.44-3.13,6.73-5.04.28-1.91-1.04-3.7-2.95-3.99-.92-.14-1.81.1-2.53.59ZM169.53,71.58c-.53-.68-1.32-1.17-2.24-1.3-1.91-.29-3.7,1.03-3.98,2.95-.28,1.92,1.5,3.98,4.97,6.78,4.13-1.67,6.44-3.13,6.73-5.04.28-1.92-1.03-3.7-2.95-3.98-.93-.14-1.82.09-2.53.59ZM207.49,37.04c-.54-.68-1.32-1.17-2.24-1.3-1.91-.28-3.7,1.04-3.98,2.95-.28,1.91,1.5,3.99,4.97,6.79,4.14-1.67,6.44-3.13,6.73-5.05.29-1.91-1.04-3.7-2.95-3.98-.92-.14-1.81.1-2.52.6ZM224.99,29.74c.68-.27,1.31-.54,1.89-.81l-1.47-8.37c-.41-.28-.88-.48-1.4-.56-1.91-.28-3.7,1.04-3.98,2.95-.29,1.91,1.49,3.99,4.97,6.78ZM164.53,11.17c-.92-.14-1.81.1-2.52.59-.53-.68-1.32-1.16-2.24-1.3-1.91-.29-3.7,1.04-3.98,2.95-.29,1.91,1.49,3.99,4.97,6.78,4.13-1.66,6.44-3.13,6.73-5.04.28-1.92-1.04-3.7-2.95-3.98ZM196.65,15.94c-.92-.13-1.82.1-2.52.59-.53-.68-1.32-1.17-2.24-1.3-1.91-.28-3.7,1.04-3.98,2.95-.29,1.91,1.49,3.98,4.97,6.78,4.13-1.67,6.44-3.13,6.72-5.05.29-1.91-1.03-3.69-2.95-3.98ZM124.05,46.3c-.54-.68-1.32-1.17-2.24-1.3-1.91-.28-3.69,1.04-3.98,2.95-.28,1.91,1.5,3.99,4.97,6.78,4.14-1.66,6.44-3.13,6.73-5.04.28-1.92-1.04-3.7-2.95-3.99-.92-.14-1.82.1-2.52.6ZM94.5,8.91c.59.54,1.26,1.11,2.02,1.73,4.14-1.66,6.44-3.13,6.73-5.04.29-1.92-1.03-3.7-2.95-3.99-.85-.13-1.67.08-2.35.5l-3.45,6.8ZM155.79,93.78c.29-1.91-1.04-3.69-2.95-3.98-.92-.14-1.81.1-2.52.6-.53-.69-1.32-1.17-2.24-1.31-1.91-.28-3.7,1.04-3.98,2.96-.28,1.91,1.5,3.98,4.97,6.78,4.14-1.66,6.44-3.13,6.73-5.04ZM111.14,22.71c-.54-.68-1.32-1.17-2.24-1.3-1.91-.29-3.7,1.03-3.98,2.95-.28,1.91,1.5,3.99,4.97,6.78,4.14-1.66,6.44-3.13,6.72-5.04.29-1.91-1.03-3.69-2.95-3.98-.92-.13-1.81.1-2.52.6ZM132.42,6.39c-.92-.14-1.81.1-2.52.6-.53-.69-1.32-1.17-2.24-1.31-1.91-.28-3.69,1.03-3.98,2.95-.29,1.91,1.49,3.99,4.97,6.78,4.13-1.66,6.44-3.13,6.72-5.04.29-1.91-1.03-3.69-2.95-3.98ZM145.78,26.89c-.92-.14-1.82.1-2.52.6-.54-.68-1.32-1.16-2.24-1.3-1.91-.28-3.7,1.03-3.98,2.95-.29,1.92,1.49,3.99,4.97,6.79,4.13-1.66,6.44-3.13,6.72-5.04.29-1.91-1.04-3.7-2.95-3.98ZM137.41,66.81c-.53-.68-1.32-1.17-2.24-1.31-1.91-.28-3.69,1.04-3.98,2.95-.28,1.91,1.5,3.99,4.97,6.78,4.14-1.67,6.44-3.13,6.73-5.05.28-1.91-1.04-3.71-2.95-3.98-.92-.14-1.82.1-2.53.6ZM156.16,51.08c-.54-.69-1.32-1.17-2.24-1.31-1.91-.28-3.7,1.04-3.98,2.96-.28,1.92,1.5,3.99,4.97,6.78,4.14-1.66,6.44-3.13,6.73-5.04.29-1.92-1.04-3.7-2.95-3.98-.93-.14-1.82.1-2.52.6Z"/>
        <g>
          <path class="cls-11" d="M165.56,89.91c-.61,4.11-.79,8.19-.58,12.18,1.18-.39,1.74-.73,1.74-.73l61.8-63.22h0c-30.81-1.48-58.32,20.62-62.95,51.77Z"/>
          <path class="cls-11" d="M90.13,17.53l-.02.04,40.73,78.46s.53.59,1.78,1.44c1.4-3.82,2.43-7.83,3.05-12.01,4.65-31.28-14.01-60.5-45.54-67.93Z"/>
        </g>
      </g>
      <g>
        <g>
          <path class="cls-5" d="M71.83,194.05c.29,0,.53-.22.57-.52.06-.53,5.31-53.12-32.11-89.4-.23-.22-.6-.21-.82.01-.22.23-.22.6.01.82,37.02,35.88,31.82,87.92,31.76,88.44-.04.32.19.6.51.64.02,0,.05,0,.07,0Z"/>
          <path class="cls-5" d="M71.27,170.39s.1,0,.15-.02c.31-.09.49-.4.4-.71-.1-.37-10.42-36.97-33.26-45.09-.3-.11-.63.05-.74.35-.11.3.05.63.35.74,22.29,7.92,32.44,43.94,32.54,44.31.07.26.31.43.56.42Z"/>
          <path class="cls-5" d="M71.93,179c.29,0,.54-.23.57-.52,2.63-26.97-14.82-72.82-15-73.28-.11-.3-.45-.45-.75-.33-.3.12-.45.45-.33.75.17.46,17.53,46.06,14.93,72.76-.03.32.2.6.52.63.02,0,.04,0,.06,0Z"/>
        </g>
        <path class="cls-6" d="M40.4,112.69c3.96,5.91,9.29,9.3,11.9,7.55,2.6-1.74,1.5-7.96-2.47-13.87-3.96-5.92-9.29-9.3-11.89-7.55-2.61,1.75-1.5,7.96,2.46,13.88Z"/>
        <path class="cls-3" d="M41.62,133.49c5.34,4.7,11.36,6.61,13.43,4.25,2.07-2.35-.58-8.08-5.93-12.78-5.35-4.71-11.36-6.61-13.43-4.26-2.07,2.35.58,8.08,5.93,12.78Z"/>
        <path class="cls-3" d="M55.19,115.56c2.38,6.71,6.71,11.3,9.66,10.26,2.95-1.05,3.42-7.34,1.04-14.05-2.38-6.71-6.71-11.31-9.66-10.26-2.96,1.05-3.42,7.34-1.04,14.05Z"/>
      </g>
      <g>
        <g>
          <g>
            <path class="cls-13" d="M281.49,54.37c-6.47,2.22-12.88.64-14.31-3.54-1.44-4.18,2.64-9.37,9.11-11.6,6.47-2.22,12.88-.64,14.31,3.54,1.44,4.18-2.64,9.37-9.11,11.6Z"/>
            <path class="cls-13" d="M277.4,40.21c-1.31,6.71-5.89,11.47-10.22,10.62-4.34-.85-6.8-6.97-5.49-13.69,1.31-6.71,5.89-11.47,10.22-10.62,4.34.85,6.8,6.97,5.49,13.69Z"/>
            <path class="cls-13" d="M263.08,36.66c5.16,4.49,6.99,10.83,4.09,14.17-2.9,3.34-9.44,2.4-14.6-2.09-5.16-4.49-6.99-10.83-4.09-14.17,2.9-3.34,9.44-2.4,14.6,2.09Z"/>
            <path class="cls-13" d="M252.86,47.29c6.47-2.22,12.88-.64,14.32,3.54,1.44,4.18-2.64,9.37-9.11,11.6-6.47,2.22-12.88.64-14.32-3.54-1.44-4.18,2.64-9.37,9.11-11.6Z"/>
            <path class="cls-13" d="M256.95,61.46c1.31-6.71,5.88-11.47,10.22-10.63,4.34.85,6.8,6.97,5.49,13.69-1.31,6.71-5.88,11.47-10.23,10.62-4.34-.84-6.8-6.97-5.49-13.68Z"/>
            <path class="cls-13" d="M271.26,65c-5.16-4.49-6.99-10.83-4.09-14.17,2.9-3.33,9.44-2.4,14.6,2.09,5.16,4.49,6.99,10.83,4.09,14.17-2.9,3.34-9.44,2.4-14.6-2.09Z"/>
          </g>
          <g>
            <path class="cls-4" d="M281.3,46.62c-4.44,5.2-10.77,7.09-14.13,4.21-3.36-2.87-2.48-9.42,1.96-14.62,4.44-5.2,10.77-7.09,14.13-4.21,3.36,2.87,2.48,9.42-1.96,14.62Z"/>
            <path class="cls-4" d="M270.59,36.49c2.28,6.45.75,12.87-3.42,14.34-4.17,1.47-9.4-2.56-11.68-9-2.28-6.45-.75-12.87,3.42-14.35,4.17-1.47,9.4,2.56,11.68,9Z"/>
            <path class="cls-4" d="M256.46,40.7c6.72,1.25,11.52,5.79,10.71,10.13-.81,4.35-6.91,6.86-13.64,5.61-6.73-1.25-11.52-5.79-10.72-10.13.81-4.35,6.91-6.86,13.64-5.61Z"/>
            <path class="cls-4" d="M253.04,55.04c4.44-5.2,10.77-7.09,14.13-4.21,3.36,2.87,2.48,9.42-1.96,14.62-4.44,5.2-10.77,7.09-14.13,4.21-3.36-2.87-2.48-9.41,1.96-14.61Z"/>
            <path class="cls-4" d="M263.75,65.17c-2.28-6.45-.75-12.87,3.42-14.34,4.17-1.47,9.4,2.56,11.68,9,2.28,6.45.75,12.87-3.42,14.35-4.17,1.47-9.4-2.56-11.68-9.01Z"/>
            <path class="cls-4" d="M277.89,60.96c-6.72-1.25-11.52-5.78-10.71-10.13.81-4.35,6.91-6.86,13.64-5.61,6.72,1.25,11.52,5.79,10.71,10.14-.81,4.34-6.91,6.86-13.64,5.61Z"/>
          </g>
          <g>
            <path class="cls-19" d="M276.83,47.95c-3.04,3.55-7.36,4.84-9.65,2.88-2.3-1.96-1.7-6.43,1.34-9.98,3.04-3.55,7.36-4.84,9.65-2.88,2.3,1.96,1.7,6.43-1.34,9.98Z"/>
            <path class="cls-19" d="M269.51,41.03c1.56,4.41.51,8.79-2.33,9.8-2.85,1.01-6.42-1.75-7.98-6.15s-.51-8.79,2.33-9.8c2.85-1.01,6.42,1.75,7.98,6.15Z"/>
            <path class="cls-19" d="M259.85,43.91c4.59.85,7.87,3.95,7.32,6.92-.55,2.97-4.72,4.68-9.32,3.83-4.6-.85-7.87-3.95-7.32-6.92.55-2.97,4.72-4.68,9.32-3.83Z"/>
            <path class="cls-19" d="M257.52,53.71c3.03-3.55,7.36-4.84,9.65-2.88,2.3,1.96,1.69,6.43-1.34,9.99-3.04,3.55-7.36,4.84-9.65,2.88-2.3-1.96-1.7-6.43,1.34-9.98Z"/>
            <path class="cls-19" d="M264.84,60.63c-1.56-4.4-.51-8.79,2.33-9.8,2.85-1.01,6.42,1.75,7.98,6.15,1.56,4.41.51,8.79-2.33,9.8-2.85,1.01-6.42-1.75-7.98-6.15Z"/>
            <path class="cls-19" d="M274.49,57.75c-4.59-.85-7.87-3.95-7.32-6.92.55-2.97,4.72-4.68,9.32-3.83,4.59.85,7.87,3.95,7.32,6.92-.55,2.97-4.72,4.68-9.32,3.83Z"/>
          </g>
          <g>
            <path class="cls-18" d="M272.4,49.27c-1.64,1.92-3.98,2.62-5.23,1.56-1.24-1.06-.92-3.48.72-5.41,1.64-1.92,3.98-2.62,5.23-1.56,1.24,1.06.92,3.48-.72,5.41Z"/>
            <path class="cls-18" d="M268.44,45.52c.84,2.39.28,4.76-1.26,5.31-1.54.55-3.48-.95-4.32-3.33-.84-2.39-.28-4.76,1.26-5.31,1.54-.55,3.48.95,4.32,3.33Z"/>
            <path class="cls-18" d="M263.21,47.08c2.49.46,4.26,2.14,3.96,3.75-.3,1.61-2.56,2.54-5.04,2.08-2.49-.46-4.26-2.14-3.96-3.75.3-1.61,2.56-2.54,5.05-2.08Z"/>
            <path class="cls-18" d="M261.94,52.39c1.64-1.92,3.99-2.62,5.23-1.56,1.24,1.06.92,3.48-.73,5.41-1.64,1.92-3.98,2.62-5.23,1.56-1.24-1.06-.92-3.48.72-5.41Z"/>
            <path class="cls-18" d="M265.91,56.14c-.84-2.39-.28-4.76,1.26-5.31,1.54-.54,3.48.95,4.32,3.33.84,2.39.28,4.76-1.27,5.31-1.54.54-3.47-.95-4.32-3.33Z"/>
            <path class="cls-18" d="M271.13,54.58c-2.49-.46-4.26-2.14-3.96-3.75.3-1.61,2.56-2.54,5.04-2.08,2.49.46,4.26,2.14,3.96,3.75s-2.56,2.54-5.05,2.08Z"/>
          </g>
        </g>
        <path class="cls-18" d="M274.29,57.35c-3.48,4.07-9.6,4.55-13.67,1.07-4.07-3.48-4.55-9.6-1.07-13.67,3.48-4.07,9.6-4.55,13.67-1.07,4.07,3.48,4.55,9.6,1.07,13.67Z"/>
      </g>
      <g>
        <g>
          <g>
            <path class="cls-13" d="M123.86,359.31c-3.98,6.75-10.74,10.14-15.11,7.57-4.37-2.57-4.68-10.13-.7-16.88,3.98-6.75,10.74-10.14,15.11-7.57,4.37,2.57,4.68,10.13.7,16.88Z"/>
            <path class="cls-13" d="M109.75,350.02c3.86,6.82,3.41,14.38-1,16.87-4.41,2.5-11.11-1.01-14.97-7.84-3.86-6.82-3.41-14.37,1-16.87,4.41-2.49,11.11,1.01,14.97,7.84Z"/>
            <path class="cls-13" d="M94.64,357.59c7.84.07,14.15,4.23,14.11,9.3-.04,5.07-6.43,9.12-14.27,9.05-7.84-.07-14.16-4.23-14.11-9.3.04-5.06,6.43-9.12,14.27-9.05Z"/>
            <path class="cls-13" d="M93.64,374.46c3.98-6.75,10.74-10.14,15.11-7.57,4.37,2.57,4.68,10.13.7,16.88-3.98,6.75-10.74,10.14-15.11,7.57-4.37-2.57-4.68-10.13-.7-16.88Z"/>
            <path class="cls-13" d="M107.75,383.75c-3.86-6.82-3.41-14.37,1-16.87,4.41-2.49,11.11,1.01,14.97,7.84,3.86,6.82,3.41,14.38-1,16.87-4.41,2.5-11.11-1.01-14.97-7.84Z"/>
            <path class="cls-13" d="M122.86,376.18c-7.84-.07-14.15-4.23-14.11-9.3.04-5.07,6.43-9.12,14.27-9.05,7.84.07,14.16,4.23,14.11,9.3-.04,5.06-6.43,9.12-14.27,9.05Z"/>
          </g>
          <g>
            <path class="cls-4" d="M117.93,352.69c0,7.84-4.11,14.19-9.17,14.19s-9.17-6.35-9.17-14.19,4.11-14.19,9.17-14.19,9.17,6.35,9.17,14.19Z"/>
            <path class="cls-4" d="M101.05,351.84c6.79,3.92,10.24,10.65,7.7,15.04-2.53,4.39-10.09,4.77-16.88.85-6.79-3.92-10.24-10.65-7.7-15.04s10.09-4.77,16.88-.85Z"/>
            <path class="cls-4" d="M91.88,366.04c6.79-3.92,14.34-3.54,16.88.85,2.53,4.39-.92,11.12-7.7,15.04-6.79,3.92-14.34,3.54-16.88-.85-2.53-4.39.92-11.12,7.7-15.04Z"/>
            <path class="cls-4" d="M99.58,381.08c0-7.84,4.11-14.19,9.17-14.19s9.17,6.35,9.17,14.19c0,7.84-4.11,14.19-9.17,14.19s-9.17-6.35-9.17-14.19Z"/>
            <path class="cls-4" d="M116.46,381.93c-6.79-3.92-10.24-10.65-7.7-15.04,2.53-4.39,10.09-4.77,16.88-.85,6.79,3.92,10.24,10.65,7.7,15.04-2.53,4.39-10.09,4.77-16.88.85Z"/>
            <path class="cls-4" d="M125.63,367.73c-6.79,3.92-14.34,3.54-16.88-.85-2.53-4.39.92-11.12,7.7-15.04,6.79-3.92,14.34-3.54,16.88.85,2.53,4.39-.92,11.12-7.7,15.04Z"/>
          </g>
          <g>
            <path class="cls-19" d="M115.02,357.19c0,5.36-2.81,9.7-6.27,9.7s-6.27-4.34-6.27-9.7,2.81-9.7,6.27-9.7,6.27,4.34,6.27,9.7Z"/>
            <path class="cls-19" d="M103.49,356.61c4.64,2.68,6.99,7.28,5.26,10.27-1.73,3-6.89,3.26-11.53.58-4.64-2.68-6.99-7.28-5.26-10.28,1.73-3,6.89-3.26,11.53-.58Z"/>
            <path class="cls-19" d="M97.22,366.3c4.64-2.68,9.8-2.42,11.53.58,1.73,3-.62,7.6-5.26,10.28-4.64,2.68-9.8,2.42-11.53-.58-1.73-3,.63-7.6,5.26-10.28Z"/>
            <path class="cls-19" d="M102.49,376.58c0-5.35,2.81-9.7,6.27-9.7s6.27,4.34,6.27,9.7-2.81,9.7-6.27,9.7-6.27-4.34-6.27-9.7Z"/>
            <path class="cls-19" d="M114.01,377.16c-4.64-2.68-6.99-7.28-5.26-10.28,1.73-3,6.89-3.26,11.53-.58,4.64,2.68,6.99,7.28,5.26,10.28-1.73,3-6.89,3.26-11.53.58Z"/>
            <path class="cls-19" d="M120.28,367.46c-4.64,2.68-9.8,2.42-11.53-.58-1.73-3,.63-7.6,5.26-10.27,4.64-2.68,9.8-2.42,11.53.58,1.73,3-.63,7.6-5.26,10.28Z"/>
          </g>
          <g>
            <path class="cls-18" d="M112.15,361.64c0,2.9-1.52,5.25-3.39,5.25s-3.39-2.35-3.39-5.25,1.52-5.25,3.39-5.25,3.39,2.35,3.39,5.25Z"/>
            <path class="cls-18" d="M105.9,361.32c2.51,1.45,3.79,3.94,2.85,5.56-.94,1.62-3.73,1.76-6.24.31-2.51-1.45-3.79-3.94-2.85-5.56.94-1.62,3.73-1.77,6.24-.32Z"/>
            <path class="cls-18" d="M102.51,366.57c2.51-1.45,5.31-1.31,6.24.31.94,1.62-.34,4.12-2.85,5.56-2.51,1.45-5.31,1.31-6.24-.31-.94-1.62.34-4.12,2.85-5.57Z"/>
            <path class="cls-18" d="M105.36,372.13c0-2.9,1.52-5.25,3.39-5.25s3.39,2.35,3.39,5.25-1.52,5.25-3.39,5.25-3.39-2.35-3.39-5.25Z"/>
            <path class="cls-18" d="M111.6,372.45c-2.51-1.45-3.79-3.94-2.85-5.56.94-1.62,3.73-1.76,6.24-.31,2.51,1.45,3.79,3.94,2.85,5.57-.94,1.62-3.73,1.76-6.24.31Z"/>
            <path class="cls-18" d="M115,367.2c-2.51,1.45-5.3,1.31-6.24-.31-.94-1.62.34-4.11,2.85-5.56,2.51-1.45,5.31-1.31,6.24.32.94,1.62-.34,4.11-2.85,5.56Z"/>
          </g>
        </g>
        <path class="cls-18" d="M119.81,367.26c0,6.14-4.97,11.11-11.11,11.11s-11.11-4.97-11.11-11.11,4.97-11.11,11.11-11.11,11.11,4.97,11.11,11.11Z"/>
      </g>
      <g>
        <path class="cls-29" d="M106.99,71.44s-35.99,61.75-30.99,105.7"/>
        <path class="cls-23" d="M96.22,147.32c-8.13,10.58-20.08,15.03-20.08,15.03,0,0,1.23-12.69,9.36-23.27,8.13-10.58,20.08-15.03,20.08-15.03,0,0-1.24,12.69-9.37,23.27Z"/>
        <path class="cls-5" d="M99.28,119.89c-7.7,7.6-17.78,9.86-17.78,9.86,0,0,2.39-10.05,10.08-17.65,7.7-7.6,17.79-9.86,17.79-9.86,0,0-2.39,10.06-10.09,17.66Z"/>
        <path class="cls-23" d="M112.95,87.5c-8.3,6.93-18.54,8.34-18.54,8.34,0,0,3.22-9.82,11.52-16.75,8.31-6.93,18.54-8.34,18.54-8.34,0,0-3.22,9.82-11.53,16.76Z"/>
        <path class="cls-23" d="M89.35,102.02c.17,10.82-5.16,19.66-5.16,19.66,0,0-5.62-8.67-5.79-19.48-.17-10.82,5.16-19.67,5.16-19.67,0,0,5.62,8.68,5.79,19.49Z"/>
        <path class="cls-5" d="M103.17,73.76c-1.04,10.77-7.34,18.96-7.34,18.96,0,0-4.61-9.25-3.57-20.02,1.04-10.76,7.34-18.96,7.34-18.96,0,0,4.61,9.26,3.57,20.02Z"/>
        <path class="cls-5" d="M120.08,60.82c-5.59,9.26-14.81,13.92-14.81,13.92,0,0-.16-10.33,5.43-19.59,5.59-9.26,14.81-13.93,14.81-13.93,0,0,.15,10.34-5.43,19.6Z"/>
        <path class="cls-5" d="M64.54,135.87c2.59,13.09,11.32,22.38,11.32,22.38,0,0,4.53-11.93,1.93-25.01-2.59-13.09-11.32-22.38-11.32-22.38,0,0-4.53,11.93-1.93,25.01Z"/>
      </g>
      <g>
        <path class="cls-29" d="M35.12,154.16s69.65,53.21,84.51,105.39"/>
        <path class="cls-23" d="M82.78,235.17c14.16,8.2,29.79,7.66,29.79,7.66,0,0-7.33-13.81-21.48-22.01-14.17-8.2-29.8-7.67-29.8-7.67,0,0,7.33,13.82,21.49,22.02Z"/>
        <path class="cls-5" d="M66.5,205.5c12.27,5.02,24.76,2.87,24.76,2.87,0,0-7.41-10.29-19.68-15.3-12.28-5.02-24.77-2.87-24.77-2.87,0,0,7.41,10.29,19.69,15.31Z"/>
        <path class="cls-23" d="M35.86,175.16c12.65,3.98,24.92.8,24.92.8,0,0-8.24-9.63-20.89-13.61-12.66-3.98-24.93-.8-24.93-.8,0,0,8.25,9.64,20.9,13.62Z"/>
        <path class="cls-23" d="M69.4,180.59c4.85,12.35,15.04,19.89,15.04,19.89,0,0,2.32-12.46-2.53-24.8-4.86-12.35-15.04-19.89-15.04-19.89,0,0-2.32,12.46,2.54,24.81Z"/>
        <path class="cls-5" d="M40.54,155.01c6.21,11.72,17.18,18.07,17.18,18.07,0,0,.9-12.64-5.31-24.36-6.21-11.72-17.18-18.08-17.18-18.08,0,0-.9,12.65,5.31,24.37Z"/>
        <path class="cls-5" d="M15.31,148.24c10.67,7.88,23.3,8.87,23.3,8.87,0,0-4.64-11.79-15.31-19.68-10.67-7.89-23.31-8.88-23.31-8.88,0,0,4.65,11.8,15.31,19.69Z"/>
        <path class="cls-5" d="M113.34,207.39c3.17,16.05-2.39,30.66-2.39,30.66,0,0-10.7-11.41-13.87-27.45-3.17-16.06,2.38-30.67,2.38-30.67,0,0,10.71,11.41,13.87,27.46Z"/>
      </g>
      <g>
        <path class="cls-14" d="M96.61,282.43c5.98,18.89-4.48,39.06-23.37,45.04-18.89,5.98-39.06-4.48-45.04-23.37-5.98-18.89,4.48-39.06,23.37-45.04,18.89-5.98,39.06,4.48,45.04,23.37Z"/>
        <path class="cls-3" d="M61.18,244.92l-5.01-23.21,19.36-4.32-4.47-20.03-19.36,4.32-4.32-19.35-20.03,4.47,4.31,19.35-19.36,4.32,4.47,20.03,19.36-4.32,5.01,23.21c-19.79,9.22-31.24,31.24-26.29,53.43,5.72,25.63,31.13,41.77,56.76,36.06,25.63-5.72,41.77-31.13,36.06-56.76-4.95-22.19-24.67-37.26-46.5-37.2ZM66.37,315.36c-12.64,2.82-25.17-5.14-27.99-17.78-2.82-12.64,5.14-25.17,17.78-27.99,12.64-2.82,25.17,5.14,27.99,17.78,2.82,12.64-5.14,25.17-17.78,27.99Z"/>
      </g>
    </g>
    <g>
      <g>
        <path class="cls-22" d="M359.37,290.63c-.24,21.71-18,39.12-39.67,38.87l-211.65-2.38c-21.66-.24-39.03-18.04-38.78-39.75l1.7-151.12c.24-21.71,18-39.12,39.67-38.88l211.65,2.38c21.66.24,39.03,18.04,38.78,39.75l-1.7,151.12Z"/>
        <path class="cls-14" d="M356.71,277.7c.85,21.89-16.2,40.32-38.09,41.17l-213.83,8.31c-21.89.85-40.32-16.2-41.17-38.09l-5.92-152.33c-.85-21.89,16.2-40.32,38.09-41.17l213.83-8.31c21.89-.85,40.32,16.2,41.17,38.09l5.92,152.33Z"/>
        <g>
          <g>
            <path class="cls-3" d="M128.83,226.85c-.15-3.97,2.94-7.31,6.9-7.46,1.91-.07,3.68.61,5.01,1.78,1.24-1.27,2.95-2.09,4.86-2.16,3.96-.15,7.3,2.94,7.46,6.9.15,3.96-3.94,7.79-11.64,12.72-8.06-4.32-12.44-7.82-12.59-11.78Z"/>
            <path class="cls-3" d="M93.06,228.24c-.15-3.97,2.94-7.31,6.9-7.46,1.91-.07,3.68.61,5.01,1.78,1.24-1.27,2.95-2.08,4.86-2.16,3.96-.15,7.3,2.94,7.46,6.9.15,3.96-3.94,7.79-11.64,12.72-8.06-4.32-12.44-7.82-12.59-11.78Z"/>
            <path class="cls-3" d="M163.14,225.52c-.15-3.97,2.94-7.31,6.9-7.46,1.91-.07,3.68.61,5.01,1.78,1.24-1.27,2.95-2.09,4.86-2.16,3.96-.15,7.3,2.94,7.46,6.9.15,3.96-3.94,7.79-11.64,12.72-8.06-4.32-12.43-7.82-12.59-11.78Z"/>
            <path class="cls-3" d="M196.23,224.23c-.15-3.97,2.94-7.31,6.9-7.46,1.91-.07,3.68.61,5.01,1.78,1.24-1.27,2.95-2.08,4.86-2.16,3.96-.15,7.3,2.94,7.46,6.9.15,3.96-3.94,7.79-11.64,12.72-8.06-4.32-12.44-7.82-12.59-11.78Z"/>
            <path class="cls-3" d="M230.79,222.89c-.15-3.97,2.94-7.31,6.9-7.46,1.91-.07,3.68.61,5.01,1.78,1.24-1.27,2.95-2.08,4.86-2.16,3.96-.15,7.3,2.94,7.46,6.9.15,3.96-3.94,7.79-11.64,12.72-8.06-4.32-12.43-7.82-12.59-11.78Z"/>
            <path class="cls-21" d="M129.74,250.33c-.15-3.97,2.94-7.31,6.9-7.46,1.91-.07,3.68.61,5.01,1.78,1.24-1.27,2.95-2.09,4.86-2.16,3.96-.15,7.3,2.94,7.46,6.9.15,3.96-3.94,7.79-11.64,12.72-8.06-4.32-12.44-7.82-12.59-11.78Z"/>
            <path class="cls-21" d="M93.97,251.72c-.15-3.97,2.94-7.31,6.9-7.46,1.91-.07,3.68.61,5.01,1.78,1.24-1.27,2.95-2.08,4.86-2.16,3.96-.15,7.3,2.93,7.46,6.9.15,3.96-3.94,7.79-11.64,12.72-8.06-4.32-12.44-7.82-12.59-11.78Z"/>
            <path class="cls-17" d="M164.06,249c-.15-3.97,2.94-7.31,6.9-7.46,1.91-.07,3.68.61,5.01,1.78,1.24-1.27,2.95-2.08,4.86-2.16,3.96-.15,7.3,2.94,7.46,6.9.15,3.96-3.94,7.79-11.64,12.72-8.06-4.32-12.43-7.82-12.59-11.78Z"/>
            <path class="cls-20" d="M197.14,247.71c-.15-3.97,2.94-7.31,6.9-7.46,1.91-.07,3.68.61,5.01,1.78,1.24-1.27,2.95-2.08,4.86-2.16,3.96-.15,7.3,2.93,7.46,6.9.15,3.96-3.94,7.79-11.64,12.72-8.06-4.32-12.44-7.82-12.59-11.78Z"/>
            <path class="cls-20" d="M231.7,246.37c-.15-3.97,2.94-7.31,6.9-7.46,1.91-.07,3.68.61,5.01,1.78,1.24-1.27,2.95-2.08,4.86-2.16,3.96-.15,7.3,2.93,7.46,6.9.15,3.96-3.94,7.79-11.64,12.72-8.06-4.32-12.43-7.82-12.59-11.78Z"/>
            <path class="cls-21" d="M263.42,221.62c-.15-3.97,2.94-7.31,6.9-7.46,1.91-.07,3.68.61,5.01,1.78,1.24-1.27,2.95-2.08,4.86-2.16,3.96-.15,7.3,2.94,7.46,6.9.15,3.96-3.94,7.79-11.64,12.72-8.06-4.32-12.44-7.82-12.59-11.78Z"/>
            <path class="cls-21" d="M298.63,220.25c-.15-3.97,2.94-7.31,6.9-7.46,1.91-.07,3.68.61,5.01,1.78,1.24-1.27,2.95-2.08,4.86-2.16,3.96-.15,7.3,2.94,7.46,6.9.15,3.96-3.94,7.79-11.64,12.72-8.06-4.32-12.44-7.82-12.59-11.78Z"/>
          </g>
          <g>
            <g>
              <path class="cls-10" d="M103.15,172.08c-.83.03-1.36.37-1.34.93.07,1.84,4.59.68,4.69,3.71.06,1.51-1.23,2.48-3.08,2.56-1.33.05-2.6-.44-3.5-1.2l.57-1.25c.9.76,2,1.15,2.9,1.12.99-.04,1.56-.43,1.54-1.08-.07-1.88-4.58-.65-4.7-3.65-.06-1.45,1.15-2.4,2.98-2.47,1.1-.04,2.18.26,2.98.75l-.54,1.27c-.94-.52-1.86-.71-2.5-.69Z"/>
              <path class="cls-10" d="M135.34,169.55l3,5.49,2.55-5.71,1.68-.07.33,8.43-1.31.05-.26-6.3-2.45,5.52-.93.04-2.87-5.32.25,6.3-1.33.05-.33-8.43,1.69-.07Z"/>
              <path class="cls-10" d="M175.31,168l.05,1.27-2.67.1.28,7.16-1.42.05-.28-7.16-2.66.1-.05-1.27,6.76-.26Z"/>
              <path class="cls-10" d="M202.62,166.94l2.31,6.77,1.77-6.93,1.4-.05,2.31,6.77,1.77-6.93,1.47-.06-2.49,8.54-1.46.06-2.25-6.5-1.77,6.66-1.47.06-3.12-8.32,1.53-.06Z"/>
              <path class="cls-10" d="M277.13,164.04l.04,1.28-4.23.16.09,2.43,3.83-.15.05,1.27-3.83.15.13,3.46-1.42.05-.33-8.43,5.66-.22Z"/>
              <path class="cls-3" d="M309.31,164.07c-.83.03-1.36.37-1.34.93.07,1.84,4.59.68,4.69,3.71.06,1.51-1.23,2.48-3.08,2.56-1.32.05-2.6-.44-3.49-1.2l.56-1.25c.9.76,2,1.15,2.9,1.12.99-.04,1.56-.43,1.54-1.08-.07-1.88-4.58-.65-4.7-3.65-.06-1.45,1.15-2.4,2.98-2.47,1.1-.04,2.18.26,2.98.75l-.54,1.27c-.94-.52-1.86-.71-2.5-.69Z"/>
              <path class="cls-10" d="M237.46,165.58l.05,1.27-2.67.1.28,7.16-1.42.06-.28-7.16-2.66.1-.05-1.27,6.76-.26ZM240.02,165.46l.14,3.68,4.49-.17-.14-3.68,1.43-.05.33,8.46-1.43.05-.14-3.51-4.49.17.14,3.51-1.42.06-.33-8.46,1.42-.06Z"/>
            </g>
            <path class="cls-10" d="M242.78,198.14l.34,8.69-1.46.06-.29-7.38-1.87.07-.05-1.31,3.33-.13Z"/>
            <path class="cls-10" d="M276.75,199.17c-.03-.71-.61-1.1-1.57-1.06-.78.03-1.68.47-2.4,1.17l-.64-1.11c.94-.8,2.05-1.32,3.19-1.37,1.7-.07,2.89.75,2.94,2.08.03.87-.61,1.88-1.53,2.91l-2.29,2.5,4.44-.17.05,1.31-6.36.25-.04-1.08,3.18-3.55c.63-.68,1.05-1.39,1.03-1.89Z"/>
            <path class="cls-3" d="M313.03,201.43c.06,1.63-1.21,2.8-3.31,2.89-1.15.04-2.37-.28-3.19-.82l.56-1.21c.7.56,1.6.85,2.48.81,1.31-.05,2.06-.68,2.03-1.58-.04-.94-.83-1.4-2.17-1.35l-1.26.05-.03-.84,2.45-2.54-3.87.15-.06-1.3,5.71-.22.04.92-2.69,2.8.51.02c1.63.07,2.75.86,2.81,2.24Z"/>
            <path class="cls-14" d="M105.78,225.93l-2.67,5.36,2.67-.1-.09-2.05,1.36-.05.09,2.05,1.28-.05.05,1.32-1.29.05.08,2.13-1.36.05-.08-2.13-4.23.16-.04-1.09,2.82-5.59,1.41-.05Z"/>
            <path class="cls-14" d="M141.04,227.75c1.97-.08,3.28.99,3.34,2.5.07,1.77-1.2,2.98-3.23,3.06-1.07.04-2.34-.31-3.25-.87l.55-1.21c.75.55,1.67.85,2.49.82,1.22-.05,1.92-.67,1.88-1.64-.03-.89-.79-1.41-1.98-1.37-.56.02-1.77.12-2.39.22l-.18-4.61,5.51-.21.05,1.32-4.16.16.07,1.88c.39-.03.95-.05,1.29-.06Z"/>
            <path class="cls-14" d="M175.3,224.38c-1.68.07-2.43,1.36-2.3,3.24.43-.83,1.23-1.29,2.32-1.33,1.74-.07,2.84.97,2.91,2.67.07,1.8-1.1,2.96-2.95,3.03-2.2.09-3.6-1.42-3.7-4.09-.11-2.78,1.27-4.65,3.57-4.73.85-.03,1.89.19,2.62.56l-.53,1.12c-.55-.33-1.29-.5-1.94-.47ZM173.3,229.2c.02.76.61,1.6,1.86,1.55,1.05-.04,1.75-.69,1.71-1.74-.04-.99-.72-1.59-1.77-1.55-1.18.05-1.84.84-1.8,1.74Z"/>
            <path class="cls-14" d="M212.03,221.8l.04,1.12-3.36,7.72-1.55.06,3.3-7.52-3.67.14.04,1.21-1.3.05-.1-2.53,6.61-.26Z"/>
            <path class="cls-14" d="M245.8,222.69c.03.83-.43,1.52-1.19,1.9,1.05.32,1.74,1.1,1.78,2.14.06,1.55-1.18,2.55-3.21,2.63-2.04.08-3.35-.81-3.41-2.35-.04-1.06.61-1.9,1.68-2.3-.84-.34-1.38-1.02-1.42-1.86-.05-1.35,1.03-2.24,2.79-2.31,1.79-.07,2.92.74,2.98,2.15ZM241.14,226.8c.04.96.76,1.46,1.99,1.42,1.21-.05,1.92-.61,1.88-1.55-.04-.9-.78-1.41-2-1.36-1.22.05-1.9.59-1.87,1.5ZM241.27,222.94c.03.81.66,1.25,1.7,1.21,1.04-.04,1.62-.53,1.59-1.34-.03-.8-.65-1.26-1.69-1.22-1.04.04-1.63.54-1.6,1.34Z"/>
            <path class="cls-14" d="M276,226.87c1.67-.07,2.41-1.36,2.28-3.24-.43.83-1.22,1.29-2.31,1.33-1.72.07-2.82-.98-2.89-2.67-.07-1.8,1.09-2.96,2.93-3.03,2.18-.08,3.58,1.43,3.69,4.09.11,2.78-1.27,4.64-3.56,4.73-.85.03-1.88-.19-2.6-.56l.53-1.13c.54.33,1.27.5,1.93.47ZM274.45,222.25c.04.99.71,1.58,1.75,1.54,1.17-.05,1.83-.84,1.78-1.73-.02-.76-.6-1.61-1.85-1.56-1.04.04-1.72.69-1.68,1.74Z"/>
            <path class="cls-14" d="M307.68,218.09l.34,8.7-1.47.06-.29-7.38-1.87.07-.05-1.32,3.34-.13Z"/>
            <path class="cls-14" d="M317.94,222.04c.11,2.83-1,4.44-3.09,4.52-2.11.08-3.33-1.44-3.44-4.26-.11-2.82.99-4.42,3.1-4.5,2.1-.08,3.33,1.44,3.43,4.25ZM312.85,222.24c.09,2.21.74,3.23,1.95,3.18,1.2-.05,1.77-1.11,1.69-3.32-.09-2.21-.73-3.22-1.94-3.17-1.21.05-1.78,1.1-1.7,3.31Z"/>
            <path class="cls-14" d="M102.6,248.52l.34,8.69-1.46.06-.29-7.38-1.87.07-.05-1.31,3.33-.13Z"/>
            <path class="cls-14" d="M110.25,248.22l.34,8.69-1.46.06-.29-7.38-1.87.07-.05-1.31,3.34-.13Z"/>
            <path class="cls-14" d="M138.85,247.11l.34,8.69-1.46.06-.29-7.38-1.87.07-.05-1.31,3.34-.13Z"/>
            <path class="cls-14" d="M147.01,249.15c-.03-.71-.62-1.09-1.57-1.06-.78.03-1.69.47-2.4,1.17l-.64-1.11c.94-.81,2.05-1.32,3.19-1.37,1.7-.07,2.89.74,2.94,2.08.03.87-.61,1.88-1.53,2.9l-2.29,2.5,4.44-.17.05,1.31-6.36.25-.04-1.08,3.18-3.55c.63-.68,1.05-1.4,1.03-1.89Z"/>
            <path class="cls-14" d="M172.5,245.81l.34,8.69-1.46.06-.29-7.38-1.88.07-.05-1.31,3.34-.13Z"/>
            <path class="cls-14" d="M182.56,251.43c.06,1.63-1.21,2.81-3.3,2.89-1.16.04-2.37-.28-3.19-.82l.56-1.21c.71.55,1.6.84,2.48.81,1.31-.05,2.06-.68,2.02-1.58-.04-.94-.83-1.4-2.16-1.35l-1.26.05-.03-.84,2.45-2.54-3.87.15-.06-1.3,5.71-.22.04.92-2.69,2.8.51.02c1.63.07,2.75.86,2.81,2.24Z"/>
            <path class="cls-14" d="M206.52,244.48l.34,8.69-1.46.06-.29-7.38-1.87.07-.05-1.31,3.34-.13Z"/>
            <path class="cls-14" d="M214.4,244.18l-2.67,5.36,2.67-.1-.09-2.05,1.36-.05.09,2.05,1.28-.05.05,1.31-1.29.05.08,2.13-1.36.05-.08-2.13-4.23.16-.04-1.09,2.82-5.59,1.41-.05Z"/>
            <path class="cls-14" d="M240.7,243.16l.34,8.69-1.46.06-.29-7.38-1.87.07-.05-1.31,3.34-.13Z"/>
            <path class="cls-14" d="M247.58,246.08c1.97-.08,3.28.99,3.34,2.5.07,1.77-1.2,2.98-3.23,3.06-1.07.04-2.34-.3-3.25-.87l.55-1.21c.75.55,1.67.85,2.49.82,1.22-.05,1.93-.67,1.89-1.64-.04-.9-.79-1.41-1.98-1.36-.56.02-1.77.12-2.39.22l-.18-4.6,5.51-.21.05,1.31-4.15.16.07,1.88c.38-.03.96-.05,1.29-.06Z"/>
            <path class="cls-10" d="M274.16,241.86l.34,8.69-1.46.06-.29-7.38-1.87.07-.05-1.31,3.34-.13Z"/>
            <path class="cls-10" d="M281.67,242.72c-1.69.07-2.43,1.36-2.3,3.25.42-.84,1.23-1.29,2.32-1.34,1.74-.07,2.85.97,2.91,2.67.07,1.8-1.1,2.96-2.95,3.03-2.2.08-3.6-1.43-3.7-4.09-.11-2.78,1.27-4.64,3.57-4.73.86-.03,1.9.19,2.62.56l-.53,1.13c-.55-.33-1.28-.5-1.94-.47ZM279.66,247.53c.01.76.61,1.61,1.86,1.56,1.05-.04,1.75-.69,1.71-1.75-.04-.99-.72-1.59-1.77-1.54-1.18.05-1.84.84-1.8,1.73Z"/>
            <path class="cls-3" d="M308.55,240.52l.34,8.69-1.46.06-.29-7.38-1.87.07-.05-1.31,3.34-.13Z"/>
            <path class="cls-3" d="M318.75,240.12l.04,1.12-3.36,7.72-1.55.06,3.3-7.52-3.67.14.03,1.22-1.3.05-.1-2.53,6.61-.26Z"/>
            <path class="cls-10" d="M103.51,271.9l.34,8.69-1.46.06-.29-7.38-1.87.07-.05-1.31,3.33-.13Z"/>
            <path class="cls-10" d="M113.3,273.71c.03.83-.43,1.52-1.19,1.9,1.06.32,1.74,1.1,1.78,2.14.06,1.55-1.18,2.56-3.21,2.64-2.04.08-3.35-.82-3.41-2.35-.04-1.05.61-1.9,1.67-2.3-.85-.34-1.38-1.02-1.42-1.86-.05-1.35,1.03-2.24,2.79-2.31,1.79-.07,2.92.74,2.98,2.15ZM108.64,277.82c.04.96.77,1.46,1.99,1.42,1.22-.05,1.91-.61,1.87-1.55-.04-.9-.77-1.41-2-1.36-1.22.05-1.9.59-1.87,1.5ZM108.78,273.96c.03.8.66,1.26,1.7,1.21,1.04-.04,1.62-.54,1.59-1.34-.03-.81-.65-1.26-1.69-1.22-1.04.04-1.63.54-1.6,1.34Z"/>
            <path class="cls-10" d="M139.76,270.49l.34,8.69-1.46.06-.29-7.38-1.87.07-.05-1.31,3.34-.13Z"/>
            <path class="cls-10" d="M146.29,277.78c1.68-.06,2.41-1.36,2.29-3.25-.43.84-1.21,1.29-2.31,1.33-1.72.07-2.82-.98-2.88-2.67-.07-1.8,1.09-2.96,2.92-3.03,2.18-.08,3.59,1.42,3.69,4.09.11,2.78-1.28,4.65-3.56,4.73-.85.03-1.88-.19-2.6-.56l.53-1.13c.55.33,1.28.5,1.93.48ZM144.74,273.16c.04.99.71,1.59,1.75,1.55,1.18-.05,1.83-.84,1.79-1.73-.02-.76-.6-1.61-1.85-1.56-1.04.04-1.73.69-1.68,1.74Z"/>
            <path class="cls-10" d="M173.91,271.5c-.03-.71-.62-1.09-1.57-1.05-.78.03-1.68.47-2.4,1.17l-.64-1.11c.94-.81,2.05-1.32,3.19-1.37,1.7-.07,2.88.75,2.94,2.08.03.87-.61,1.88-1.52,2.91l-2.29,2.5,4.44-.17.05,1.32-6.37.25-.04-1.08,3.18-3.55c.63-.68,1.05-1.39,1.03-1.89Z"/>
            <path class="cls-10" d="M183.67,273.13c.11,2.83-1,4.43-3.09,4.52-2.11.08-3.34-1.44-3.45-4.26-.11-2.82,1-4.42,3.11-4.51,2.1-.08,3.32,1.44,3.43,4.25ZM178.59,273.32c.09,2.21.73,3.23,1.95,3.18,1.2-.05,1.77-1.11,1.69-3.32-.08-2.21-.74-3.21-1.94-3.17-1.22.05-1.78,1.1-1.7,3.31Z"/>
            <path class="cls-10" d="M207.93,270.18c-.03-.71-.62-1.09-1.57-1.05-.78.03-1.69.47-2.4,1.17l-.64-1.11c.94-.81,2.05-1.32,3.19-1.37,1.7-.07,2.89.75,2.94,2.08.03.87-.61,1.88-1.53,2.91l-2.29,2.5,4.44-.17.05,1.32-6.37.25-.04-1.08,3.18-3.55c.63-.68,1.05-1.39,1.03-1.89Z"/>
            <path class="cls-10" d="M215.08,267.56l.34,8.69-1.46.06-.29-7.38-1.88.07-.05-1.31,3.34-.13Z"/>
            <path class="cls-10" d="M242.11,268.86c-.03-.71-.62-1.09-1.57-1.05-.78.03-1.68.47-2.4,1.17l-.64-1.1c.94-.81,2.05-1.32,3.19-1.37,1.7-.07,2.88.75,2.94,2.08.03.87-.61,1.88-1.52,2.91l-2.29,2.5,4.44-.17.05,1.32-6.36.25-.04-1.08,3.18-3.55c.63-.68,1.05-1.39,1.03-1.89Z"/>
            <path class="cls-10" d="M249.76,268.56c-.03-.71-.61-1.09-1.57-1.05-.78.03-1.69.47-2.4,1.17l-.64-1.1c.94-.81,2.05-1.32,3.19-1.37,1.7-.07,2.89.75,2.94,2.08.03.87-.61,1.88-1.53,2.91l-2.29,2.5,4.44-.17.05,1.32-6.37.25-.04-1.08,3.18-3.55c.63-.68,1.05-1.39,1.03-1.89Z"/>
            <path class="cls-10" d="M275.58,267.56c-.03-.71-.62-1.09-1.57-1.05-.78.03-1.69.47-2.4,1.17l-.64-1.1c.94-.81,2.05-1.32,3.19-1.37,1.7-.07,2.89.75,2.94,2.08.03.87-.61,1.88-1.53,2.91l-2.29,2.5,4.44-.17.05,1.32-6.36.25-.04-1.08,3.18-3.55c.63-.68,1.05-1.39,1.03-1.89Z"/>
            <path class="cls-10" d="M285.13,270.85c.06,1.63-1.21,2.81-3.31,2.89-1.15.05-2.37-.28-3.19-.82l.56-1.21c.71.56,1.6.84,2.48.81,1.31-.05,2.06-.68,2.02-1.58-.04-.94-.83-1.4-2.16-1.34l-1.27.05-.03-.84,2.45-2.54-3.87.15-.06-1.3,5.71-.22.04.92-2.69,2.8.51.02c1.63.07,2.76.86,2.81,2.24Z"/>
            <path class="cls-3" d="M309.96,266.22c-.03-.71-.62-1.09-1.57-1.05-.78.03-1.69.47-2.4,1.17l-.64-1.1c.94-.81,2.05-1.32,3.19-1.37,1.7-.07,2.89.75,2.94,2.08.03.87-.61,1.88-1.53,2.91l-2.29,2.5,4.44-.17.05,1.32-6.37.25-.04-1.08,3.18-3.55c.63-.68,1.05-1.39,1.03-1.89Z"/>
            <path class="cls-3" d="M317.33,263.59l-2.67,5.36,2.67-.1-.09-2.05,1.37-.05.09,2.05,1.28-.05.05,1.32-1.29.05.08,2.13-1.37.05-.08-2.13-4.23.16-.04-1.09,2.83-5.59,1.41-.05Z"/>
            <path class="cls-10" d="M104.88,296.65c-.03-.71-.62-1.09-1.57-1.06-.78.03-1.68.48-2.4,1.17l-.64-1.1c.94-.81,2.05-1.32,3.19-1.37,1.7-.07,2.89.74,2.94,2.08.03.87-.61,1.88-1.53,2.91l-2.29,2.5,4.44-.17.05,1.32-6.36.25-.04-1.08,3.18-3.55c.63-.68,1.05-1.39,1.03-1.89Z"/>
            <path class="cls-10" d="M111.26,297.25c1.97-.08,3.28.99,3.34,2.51.07,1.77-1.2,2.98-3.23,3.06-1.07.04-2.33-.31-3.25-.87l.55-1.21c.76.55,1.67.86,2.49.82,1.22-.05,1.93-.67,1.89-1.64-.03-.89-.79-1.41-1.98-1.36-.56.02-1.77.12-2.39.22l-.18-4.6,5.51-.21.05,1.31-4.15.16.07,1.89c.38-.03.95-.05,1.29-.06Z"/>
            <path class="cls-10" d="M141.13,295.24c-.03-.71-.61-1.09-1.57-1.06-.78.03-1.68.48-2.4,1.17l-.64-1.1c.94-.81,2.05-1.32,3.19-1.37,1.7-.07,2.89.74,2.94,2.08.03.87-.61,1.88-1.53,2.91l-2.29,2.5,4.44-.17.05,1.32-6.37.25-.04-1.08,3.18-3.55c.63-.68,1.05-1.39,1.03-1.89Z"/>
            <path class="cls-10" d="M148.13,293.78c-1.69.07-2.43,1.36-2.3,3.24.43-.84,1.23-1.29,2.32-1.33,1.74-.07,2.85.97,2.91,2.67.07,1.8-1.1,2.96-2.95,3.04-2.19.09-3.6-1.43-3.7-4.09-.11-2.78,1.27-4.65,3.57-4.73.86-.03,1.9.19,2.62.55l-.53,1.13c-.54-.33-1.29-.5-1.94-.47ZM146.13,298.59c.02.75.61,1.6,1.86,1.56,1.05-.04,1.75-.69,1.71-1.74-.04-.99-.72-1.59-1.78-1.55-1.18.05-1.84.84-1.8,1.74Z"/>
            <path class="cls-10" d="M174.78,293.94c-.03-.71-.62-1.09-1.57-1.06-.78.03-1.68.48-2.4,1.17l-.64-1.1c.94-.81,2.05-1.32,3.19-1.37,1.7-.07,2.88.74,2.94,2.08.03.87-.61,1.88-1.52,2.91l-2.29,2.5,4.44-.17.05,1.32-6.37.25-.04-1.08,3.18-3.55c.63-.68,1.05-1.39,1.03-1.89Z"/>
            <path class="cls-10" d="M184.49,291.21l.04,1.11-3.36,7.72-1.55.06,3.3-7.52-3.67.14.04,1.22-1.3.05-.1-2.53,6.61-.26Z"/>
            <path class="cls-10" d="M208.81,292.62c-.03-.71-.62-1.09-1.57-1.06-.78.03-1.68.48-2.4,1.17l-.64-1.1c.94-.81,2.05-1.32,3.19-1.37,1.7-.07,2.89.74,2.94,2.08.03.87-.61,1.88-1.53,2.91l-2.29,2.5,4.44-.17.05,1.32-6.37.25-.04-1.08,3.18-3.55c.63-.68,1.05-1.39,1.03-1.89Z"/>
            <path class="cls-10" d="M218.1,292.11c.03.83-.43,1.52-1.19,1.9,1.06.32,1.74,1.1,1.78,2.14.06,1.55-1.18,2.55-3.21,2.63-2.04.08-3.35-.82-3.41-2.35-.04-1.06.61-1.9,1.67-2.3-.85-.34-1.38-1.01-1.42-1.86-.05-1.35,1.03-2.24,2.79-2.3,1.79-.07,2.92.74,2.98,2.14ZM213.44,296.21c.04.96.77,1.46,1.99,1.41,1.22-.05,1.91-.61,1.88-1.55-.04-.91-.77-1.41-2-1.36-1.21.05-1.9.59-1.87,1.5ZM213.57,292.36c.03.8.66,1.25,1.7,1.21,1.04-.04,1.62-.53,1.59-1.34-.03-.81-.65-1.25-1.69-1.21-1.04.04-1.63.54-1.6,1.34Z"/>
            <path class="cls-10" d="M242.98,291.29c-.03-.71-.62-1.09-1.57-1.06-.78.03-1.68.48-2.4,1.17l-.64-1.1c.94-.81,2.05-1.32,3.19-1.37,1.7-.07,2.88.75,2.94,2.08.03.87-.61,1.88-1.52,2.91l-2.29,2.5,4.44-.17.05,1.32-6.36.25-.04-1.08,3.18-3.55c.63-.68,1.05-1.39,1.03-1.89Z"/>
            <path class="cls-10" d="M249.01,296.26c1.68-.07,2.41-1.36,2.29-3.25-.43.84-1.22,1.29-2.31,1.33-1.72.07-2.82-.98-2.89-2.67-.07-1.8,1.09-2.96,2.93-3.03,2.18-.09,3.58,1.43,3.69,4.09.11,2.78-1.27,4.65-3.56,4.74-.86.03-1.88-.19-2.6-.56l.53-1.13c.55.33,1.27.5,1.93.47ZM247.46,291.64c.04.99.71,1.59,1.75,1.55,1.18-.05,1.83-.84,1.78-1.74-.02-.76-.6-1.61-1.85-1.56-1.05.04-1.73.69-1.69,1.75Z"/>
            <path class="cls-10" d="M278.35,293.58c.06,1.63-1.21,2.81-3.3,2.89-1.15.04-2.37-.28-3.19-.82l.56-1.21c.71.56,1.6.85,2.48.81,1.31-.05,2.06-.68,2.03-1.58-.04-.95-.84-1.4-2.16-1.34l-1.27.05-.03-.84,2.45-2.54-3.87.15-.06-1.3,5.71-.22.04.92-2.69,2.8h.51c1.63.09,2.75.88,2.81,2.25Z"/>
            <path class="cls-10" d="M286.21,291.61c.11,2.83-1,4.43-3.09,4.52-2.11.08-3.34-1.43-3.45-4.26-.11-2.81,1-4.42,3.11-4.5,2.1-.08,3.32,1.44,3.43,4.25ZM281.12,291.81c.09,2.21.73,3.22,1.95,3.18,1.2-.05,1.77-1.11,1.69-3.32-.09-2.21-.74-3.21-1.94-3.17-1.22.05-1.78,1.1-1.7,3.31Z"/>
            <path class="cls-3" d="M312.73,292.24c.06,1.63-1.21,2.81-3.3,2.89-1.15.04-2.37-.28-3.19-.82l.56-1.21c.71.56,1.6.85,2.48.81,1.31-.05,2.06-.68,2.02-1.58-.04-.95-.84-1.4-2.16-1.34l-1.27.05-.03-.84,2.45-2.54-3.87.15-.06-1.3,5.71-.22.04.92-2.69,2.8.51.02c1.63.07,2.75.86,2.81,2.24Z"/>
            <path class="cls-3" d="M317.98,286.03l.34,8.7-1.46.06-.29-7.38-1.88.07-.05-1.31,3.33-.13Z"/>
          </g>
        </g>
        <path class="cls-3" d="M309.62,87.28l-213.83,8.31c-21.89.85-38.94,19.28-38.09,41.17l.7,18.01,293.09-11.38-.7-18.01c-.85-21.89-19.28-38.94-41.17-38.09Z"/>
        <text class="cls-24" transform="translate(91.16 141.04) rotate(-2.22)"><tspan class="cls-30" x="0" y="0">MEN</tspan><tspan class="cls-27" x="43.25" y="0">S</tspan><tspan class="cls-25" x="54.71" y="0">TR</tspan><tspan class="cls-26" x="78.88" y="0">U</tspan><tspan class="cls-30" x="92.8" y="0">AL </tspan><tspan class="cls-28" x="123.67" y="0">C</tspan><tspan class="cls-30" x="136.5" y="0">ALEN</tspan><tspan class="cls-27" x="187.6" y="0">D</tspan><tspan class="cls-30" x="202.07" y="0">AR</tspan></text>
      </g>
      <g>
        <g>
          <path class="cls-8" d="M102.8,109.65c.21,5.27-3.9,9.71-9.18,9.92-5.27.21-9.71-3.9-9.92-9.18-.21-5.27,3.9-9.71,9.18-9.92,5.27-.21,9.71,3.9,9.92,9.18Z"/>
          <path class="cls-14" d="M99.09,108.39c.13,3.37-2.49,6.21-5.86,6.34h0c-3.37.13-6.21-2.49-6.34-5.86l-.58-15.04c-.13-3.37,2.49-6.21,5.86-6.34h0c3.37-.13,6.21,2.49,6.34,5.86l.58,15.03Z"/>
        </g>
        <g>
          <path class="cls-8" d="M146.78,107.95c.21,5.27-3.9,9.71-9.18,9.92-5.27.2-9.71-3.9-9.92-9.17-.21-5.27,3.9-9.71,9.18-9.92,5.27-.2,9.71,3.9,9.92,9.18Z"/>
          <path class="cls-14" d="M143.08,106.68c.13,3.37-2.49,6.21-5.86,6.34h0c-3.37.13-6.21-2.49-6.34-5.86l-.58-15.03c-.13-3.37,2.49-6.21,5.86-6.34h0c3.37-.13,6.21,2.5,6.34,5.87l.58,15.03Z"/>
        </g>
        <g>
          <path class="cls-8" d="M190.77,106.24c.21,5.27-3.9,9.71-9.17,9.92-5.27.21-9.71-3.9-9.92-9.17-.21-5.27,3.9-9.71,9.18-9.92,5.27-.21,9.71,3.9,9.92,9.18Z"/>
          <path class="cls-14" d="M187.07,104.97c.13,3.37-2.49,6.21-5.86,6.34h0c-3.37.13-6.21-2.49-6.34-5.86l-.58-15.03c-.13-3.37,2.5-6.21,5.86-6.34h0c3.37-.13,6.21,2.5,6.34,5.87l.58,15.03Z"/>
        </g>
        <g>
          <path class="cls-8" d="M234.75,104.53c.21,5.27-3.9,9.71-9.17,9.92-5.27.2-9.71-3.9-9.92-9.18-.2-5.27,3.9-9.71,9.18-9.92,5.27-.21,9.71,3.9,9.92,9.18Z"/>
          <path class="cls-14" d="M231.05,103.26c.13,3.37-2.49,6.21-5.86,6.34h0c-3.37.13-6.21-2.49-6.34-5.86l-.58-15.03c-.13-3.37,2.49-6.21,5.86-6.34h0c3.37-.13,6.21,2.49,6.34,5.86l.58,15.03Z"/>
        </g>
        <g>
          <path class="cls-8" d="M278.53,102.63c.21,5.27-3.9,9.71-9.17,9.92-5.27.21-9.71-3.9-9.92-9.18-.21-5.27,3.9-9.71,9.18-9.92,5.27-.2,9.71,3.9,9.92,9.18Z"/>
          <path class="cls-14" d="M275.04,101.55c.13,3.37-2.49,6.21-5.86,6.34h0c-3.37.13-6.21-2.49-6.34-5.86l-.58-15.03c-.13-3.37,2.49-6.21,5.86-6.34h0c3.37-.13,6.21,2.5,6.34,5.87l.58,15.03Z"/>
        </g>
        <g>
          <path class="cls-8" d="M322.51,100.92c.21,5.27-3.9,9.71-9.18,9.92-5.27.21-9.71-3.9-9.92-9.18-.2-5.27,3.9-9.71,9.18-9.92,5.27-.21,9.71,3.9,9.92,9.18Z"/>
          <path class="cls-14" d="M319.02,99.84c.13,3.37-2.49,6.21-5.86,6.34h0c-3.37.13-6.21-2.49-6.34-5.86l-.58-15.03c-.13-3.37,2.49-6.21,5.86-6.34h0c3.37-.13,6.21,2.49,6.34,5.86l.58,15.03Z"/>
        </g>
      </g>
    </g>
    <g>
      <g>
        <rect class="cls-3" x="349.09" y="272.95" width="39.69" height="9.66" transform="translate(60.77 621.75) rotate(-85.12)"/>
        <path class="cls-15" d="M414.65,343.97c-2.4,28.15-27.16,49.03-55.31,46.63-28.15-2.4-49.03-27.17-46.63-55.31,2.4-28.15,27.16-49.03,55.31-46.63,28.15,2.4,49.03,27.16,46.63,55.31Z"/>
        <path class="cls-3" d="M380.37,270.73l-21.51-1.83c-3.84-.33-7.22,2.52-7.55,6.37l-.87,10.27,35.42,3.02.87-10.27c.33-3.84-2.52-7.22-6.36-7.55Z"/>
        <path class="cls-7" d="M384,277.15l-29.8-2.54c-5.32-.45-10,3.49-10.46,8.82l-.8,9.41,49.08,4.18.8-9.41c.45-5.32-3.49-10-8.82-10.46Z"/>
        <rect class="cls-3" x="374.12" y="242.68" width="7.15" height="34.81" transform="translate(86.52 614.36) rotate(-85.13)"/>
        <g>
          <path class="cls-6" d="M392.08,336.08c-.3-4.69-6.02-8.2-13.1-8.26,2.68-6.55,1.66-13.19-2.56-15.28-4.21-2.09-10.12,1.11-13.71,7.21-4.33-5.6-10.59-8.03-14.51-5.42-3.91,2.61-4.09,9.32-.61,15.48-7.01.95-12.25,5.16-11.95,9.85.3,4.69,6.02,8.2,13.1,8.27-2.68,6.55-1.65,13.19,2.56,15.28,4.21,2.09,10.12-1.11,13.71-7.21,4.33,5.59,10.6,8.03,14.51,5.42,3.91-2.6,4.09-9.32.61-15.48,7.01-.95,12.25-5.16,11.95-9.85Z"/>
          <path class="cls-12" d="M372.95,337.7c0,5.02-4.07,9.08-9.08,9.08s-9.08-4.07-9.08-9.08,4.07-9.08,9.08-9.08,9.08,4.07,9.08,9.08Z"/>
        </g>
      </g>
      <path class="cls-9" d="M350.86,327.8c-8.07,10.06-19.79,14.07-26.17,8.95-6.38-5.12-5.01-17.43,3.07-27.49,8.07-10.06,19.79-14.07,26.17-8.95,6.38,5.12,5,17.43-3.07,27.49Z"/>
    </g>
  </g>
</svg>