<svg width="20" height="20" viewBox="0 0 20 20" fill="none" xmlns="http://www.w3.org/2000/svg">
<path d="M7.78964 14.168H6.32307C6.11444 14.168 5.94531 14.337 5.94531 14.5456V15.1231C5.94531 15.3317 6.11444 15.5008 6.32307 15.5008H7.78964C7.99826 15.5008 8.16739 15.3317 8.16739 15.1231V14.5456C8.16739 14.337 7.99826 14.168 7.78964 14.168Z" fill="#A865C2"/>
<path d="M7.78964 11.6465H6.32307C6.11444 11.6465 5.94531 11.8156 5.94531 12.0241V12.6016C5.94531 12.8102 6.11444 12.9793 6.32307 12.9793H7.78964C7.99826 12.9793 8.16739 12.8102 8.16739 12.6016V12.0241C8.16739 11.8156 7.99826 11.6465 7.78964 11.6465Z" fill="#A865C2"/>
<path d="M4.2037 14.168H2.73713C2.5285 14.168 2.35938 14.337 2.35938 14.5456V15.1231C2.35938 15.3317 2.5285 15.5008 2.73713 15.5008H4.2037C4.41233 15.5008 4.58145 15.3317 4.58145 15.1231V14.5456C4.58145 14.337 4.41233 14.168 4.2037 14.168Z" fill="#A865C2"/>
<path d="M4.2037 11.6465H2.73713C2.5285 11.6465 2.35938 11.8156 2.35938 12.0241V12.6016C2.35938 12.8102 2.5285 12.9793 2.73713 12.9793H4.2037C4.41233 12.9793 4.58145 12.8102 4.58145 12.6016V12.0241C4.58145 11.8156 4.41233 11.6465 4.2037 11.6465Z" fill="#A865C2"/>
<path d="M7.78964 9.125H6.32307C6.11444 9.125 5.94531 9.29407 5.94531 9.50262V10.0802C5.94531 10.2887 6.11444 10.4578 6.32307 10.4578H7.78964C7.99826 10.4578 8.16739 10.2887 8.16739 10.0802V9.50262C8.16739 9.29407 7.99826 9.125 7.78964 9.125Z" fill="#A865C2"/>
<path d="M19.972 14.4695C19.8925 13.7231 19.6464 13.0041 19.2518 12.3655C18.8572 11.7269 18.3243 11.1851 17.6922 10.7799V3.42295C17.6916 2.99601 17.5217 2.58673 17.2197 2.28484C16.9177 1.98295 16.5083 1.81309 16.0812 1.8125H15.0568V3.554C15.0568 4.11368 14.8344 4.65042 14.4385 5.04617C14.0426 5.44192 13.5057 5.66425 12.9458 5.66425C12.386 5.66425 11.849 5.44192 11.4531 5.04617C11.0573 4.65042 10.8349 4.11368 10.8349 3.554V1.8125H6.85733V3.554C6.85733 3.83113 6.80273 4.10553 6.69664 4.36156C6.59056 4.61759 6.43506 4.85022 6.23904 5.04617C6.04302 5.24212 5.81031 5.39756 5.55419 5.50361C5.29808 5.60966 5.02358 5.66425 4.74636 5.66425C4.46914 5.66425 4.19464 5.60966 3.93852 5.50361C3.68241 5.39756 3.4497 5.24212 3.25367 5.04617C3.05765 4.85022 2.90216 4.61759 2.79607 4.36156C2.68999 4.10553 2.63538 3.83113 2.63538 3.554V1.8125H1.61101C1.18392 1.81309 0.774497 1.98295 0.472502 2.28484C0.170507 2.58673 0.000587867 2.99601 0 3.42295V16.0844C0.000587867 16.5113 0.170507 16.9206 0.472502 17.2225C0.774497 17.5244 1.18392 17.6943 1.61101 17.6948H10.7815C11.3893 18.6438 12.2999 19.3599 13.3656 19.727C14.4313 20.0941 15.5899 20.0908 16.6535 19.7175C17.7171 19.3443 18.6234 18.623 19.2258 17.6705C19.8281 16.7179 20.091 15.5901 19.972 14.4695ZM14.9946 18.9921C14.1059 18.9946 13.2417 18.7012 12.5383 18.1582C11.835 17.6152 11.3326 16.8535 11.1104 15.9933C11.0795 15.8733 11.0063 15.7685 10.9042 15.6983C10.8021 15.6281 10.678 15.5972 10.5549 15.6113C10.4851 15.6207 10.4181 15.6447 10.3583 15.6819C10.2985 15.719 10.2472 15.7683 10.2077 15.8266C10.1683 15.8849 10.1416 15.9508 10.1295 16.0201C10.1173 16.0894 10.1199 16.1605 10.1371 16.2288C10.1793 16.3865 10.2282 16.5398 10.2816 16.6908H1.61545C1.53464 16.6914 1.45452 16.676 1.37972 16.6454C1.30493 16.6148 1.23694 16.5697 1.17969 16.5127C1.12245 16.4557 1.07708 16.3879 1.04623 16.3132C1.01537 16.2386 0.999639 16.1585 0.999935 16.0777V7.93886H16.6923V10.2868C16.3517 10.1624 15.9985 10.076 15.639 10.0291C14.8836 9.93054 14.1156 10.006 13.3939 10.2497C12.6721 10.4934 12.0157 10.8989 11.4748 11.4352V10.1624C11.4748 10.0298 11.4221 9.90271 11.3284 9.80898C11.2346 9.71525 11.1074 9.6626 10.9748 9.6626C10.8422 9.6626 10.7151 9.71525 10.6213 9.80898C10.5276 9.90271 10.4749 10.0298 10.4749 10.1624V13.461H13.7769C13.9095 13.461 14.0367 13.4084 14.1304 13.3146C14.2242 13.2209 14.2769 13.0938 14.2769 12.9612C14.2769 12.8287 14.2242 12.7016 14.1304 12.6078C14.0367 12.5141 13.9095 12.4614 13.7769 12.4614H11.8903C12.3172 11.9401 12.8689 11.535 13.4942 11.2838C14.1196 11.0326 14.7983 10.9434 15.4673 11.0245C16.1364 11.1056 16.774 11.3545 17.3212 11.7479C17.8683 12.1413 18.3071 12.6665 18.5968 13.2747C18.8866 13.883 19.0179 14.5546 18.9785 15.2272C18.9392 15.8997 18.7305 16.5515 18.3718 17.1218C18.0131 17.6922 17.5161 18.1627 16.9268 18.4897C16.3375 18.8166 15.6752 18.9895 15.0012 18.9921H14.9946Z" fill="#A865C2"/>
<path d="M15.6199 14.9901L16.731 13.8795C16.7756 13.8391 16.8117 13.7902 16.8368 13.7355C16.862 13.6808 16.8758 13.6216 16.8774 13.5614C16.879 13.5013 16.8683 13.4414 16.8461 13.3855C16.8238 13.3296 16.7904 13.2788 16.7479 13.2361C16.7054 13.1935 16.6547 13.16 16.5989 13.1375C16.543 13.1151 16.4832 13.1042 16.423 13.1056C16.3628 13.107 16.3035 13.1205 16.2487 13.1455C16.194 13.1705 16.1448 13.2063 16.1043 13.2508L14.6733 14.6814C14.632 14.7226 14.5992 14.7716 14.5768 14.8255C14.5545 14.8795 14.543 14.9373 14.543 14.9957C14.543 15.0541 14.5545 15.1119 14.5768 15.1658C14.5992 15.2197 14.632 15.2687 14.6733 15.31L16.8843 17.5024C16.9258 17.5436 16.9751 17.5762 17.0292 17.5983C17.0833 17.6204 17.1413 17.6316 17.1998 17.6313C17.3172 17.6313 17.4298 17.585 17.5131 17.5024C17.5544 17.4612 17.5872 17.4122 17.6096 17.3582C17.632 17.3043 17.6435 17.2465 17.6435 17.1881C17.6435 17.1297 17.632 17.0719 17.6096 17.018C17.5872 16.964 17.5544 16.915 17.5131 16.8738L15.6199 14.9901Z" fill="#A865C2"/>
<path d="M12.947 4.66474C13.2416 4.66474 13.5242 4.54773 13.7326 4.33944C13.941 4.13115 14.058 3.84865 14.058 3.55409V1.11065C14.058 0.81609 13.941 0.533591 13.7326 0.325303C13.5242 0.117015 13.2416 0 12.947 0C12.6523 0 12.3697 0.117015 12.1614 0.325303C11.953 0.533591 11.8359 0.81609 11.8359 1.11065V3.55409C11.8359 3.84865 11.953 4.13115 12.1614 4.33944C12.3697 4.54773 12.6523 4.66474 12.947 4.66474Z" fill="#A865C2"/>
<path d="M4.74776 4.66474C5.04242 4.66474 5.32502 4.54773 5.53338 4.33944C5.74174 4.13115 5.8588 3.84865 5.8588 3.55409V1.11065C5.8588 0.81609 5.74174 0.533591 5.53338 0.325303C5.32502 0.117015 5.04242 0 4.74776 0C4.45309 0 4.17049 0.117015 3.96213 0.325303C3.75377 0.533591 3.63672 0.81609 3.63672 1.11065V3.55409C3.63672 3.84865 3.75377 4.13115 3.96213 4.33944C4.17049 4.54773 4.45309 4.66474 4.74776 4.66474Z" fill="#A865C2"/>
</svg>
