<svg width="16" height="18" viewBox="0 0 16 18" fill="none" xmlns="http://www.w3.org/2000/svg">
<path d="M15.2008 3.6V17.1C15.2008 17.3387 15.106 17.5676 14.9372 17.7364C14.7684 17.9052 14.5395 18 14.3008 18H1.70078C1.46209 18 1.23317 17.9052 1.06439 17.7364C0.895603 17.5676 0.800781 17.3387 0.800781 17.1V3.6C0.800781 3.3613 0.895603 3.13239 1.06439 2.9636C1.23317 2.79482 1.46209 2.7 1.70078 2.7H3.50078V3.6H1.70078V17.1H14.3008V3.6H12.5008V2.7H14.3008C14.5395 2.7 14.7684 2.79482 14.9372 2.9636C15.106 3.13239 15.2008 3.3613 15.2008 3.6ZM9.80078 1.8C9.80078 1.32261 9.61114 0.864773 9.27357 0.527208C8.93601 0.189642 8.47817 0 8.00078 0C7.52339 0 7.06555 0.189642 6.72799 0.527208C6.39042 0.864773 6.20078 1.32261 6.20078 1.8H4.40078V4.5H11.6008V1.8H9.80078ZM13.4008 6.3H2.60078V7.2H13.4008V6.3ZM13.4008 9H2.60078V9.9H13.4008V9ZM13.4008 11.7H2.60078V12.6H13.4008V11.7ZM13.4008 14.4H2.60078V15.3H13.4008V14.4Z" fill="#488E4D"/>
</svg>
