<svg width="24" height="24" viewBox="0 0 24 24" fill="none" xmlns="http://www.w3.org/2000/svg">
<path d="M11.25 9H12.75V8.25C12.75 8.05109 12.829 7.86032 12.9697 7.71967C13.1103 7.57902 13.3011 7.5 13.5 7.5H15.75C15.9489 7.5 16.1397 7.57902 16.2803 7.71967C16.421 7.86032 16.5 8.05109 16.5 8.25V9H19.5V6C19.5 5.20435 19.1839 4.44129 18.6213 3.87868C18.0587 3.31607 17.2956 3 16.5 3H7.5C6.70435 3 5.94129 3.31607 5.37868 3.87868C4.81607 4.44129 4.5 5.20435 4.5 6V9H7.5V8.25C7.5 8.05109 7.57902 7.86032 7.71967 7.71967C7.86032 7.57902 8.05109 7.5 8.25 7.5H10.5C10.6989 7.5 10.8897 7.57902 11.0303 7.71967C11.171 7.86032 11.25 8.05109 11.25 8.25V9ZM5.25 10.5C4.25544 10.5 3.30161 10.8951 2.59835 11.5983C1.89509 12.3016 1.5 13.2554 1.5 14.25V20.25C1.5 20.4489 1.57902 20.6397 1.71967 20.7803C1.86032 20.921 2.05109 21 2.25 21C2.44891 21 2.63968 20.921 2.78033 20.7803C2.92098 20.6397 3 20.4489 3 20.25V16.5H21V20.25C21 20.4489 21.079 20.6397 21.2197 20.7803C21.3603 20.921 21.5511 21 21.75 21C21.9489 21 22.1397 20.921 22.2803 20.7803C22.421 20.6397 22.5 20.4489 22.5 20.25V14.25C22.5 13.2554 22.1049 12.3016 21.4016 11.5983C20.6984 10.8951 19.7446 10.5 18.75 10.5H5.25Z" fill="#E488A4"/>
</svg>
