<svg width="20" height="19" viewBox="0 0 20 19" fill="none" xmlns="http://www.w3.org/2000/svg">
<path d="M14.0707 1.22018C13.8479 1.45067 12.0194 3.4653 11.6575 4.8464C11.3433 6.02143 12.0488 7.25969 13.0599 7.76823C14.8087 8.71115 17.0613 7.34295 17.0241 5.34545C17.0241 3.93352 14.7878 1.49183 14.5319 1.22019C14.4119 1.09067 14.1908 1.09066 14.0707 1.22018ZM16.3071 4.89379C16.8219 6.5685 14.8283 8.03287 13.3442 7.20282C13.1038 6.432 14.0862 6.04523 14.6867 5.88248C15.2968 5.69547 15.9488 5.46565 16.3071 4.89379ZM15.5174 4.83377C15.4543 4.88114 15.3879 4.92537 15.3184 4.96011C14.7569 4.10833 13.723 3.66327 12.7535 3.95247C13.2147 3.2007 13.8623 2.40155 14.3013 1.90562C14.753 2.41734 15.4227 3.24492 15.8838 4.01565C15.9755 4.31573 15.7606 4.65056 15.5174 4.83377Z" fill="#DB8972"/>
<path d="M11.2626 9.64844H8.73562C7.8648 9.64844 7.15625 10.357 7.15625 11.2278V16.9135C7.15625 17.7843 7.8648 18.4929 8.73562 18.4929H11.2626C12.1334 18.4929 12.842 17.7843 12.842 16.9135V11.2278C12.842 10.357 12.1334 9.64844 11.2626 9.64844ZM12.2102 16.9135C12.2102 17.4361 11.7852 17.8611 11.2626 17.8611H8.73562C8.21307 17.8611 7.788 17.4361 7.788 16.9135V11.2278C7.788 10.7053 8.21307 10.2802 8.73562 10.2802H11.2626C11.7852 10.2802 12.2102 10.7053 12.2102 11.2278V16.9135Z" fill="#DB8972"/>
<path d="M16.924 12.222C17.0378 12.3551 17.2375 12.3699 17.3695 12.2568L18.5591 11.2398C18.6957 11.1279 18.7064 10.9059 18.5817 10.7811C18.5817 10.7811 17.4367 9.58715 17.4367 9.58715C17.1497 9.29031 16.696 9.72474 16.9808 10.0244C16.9808 10.0244 17.5192 10.5858 17.5192 10.5858C12.2943 10.3866 8.1044 6.07609 8.1044 0.803312C8.09882 0.390453 7.47935 0.386505 7.47266 0.803328C7.47266 6.45504 11.9947 11.0673 17.6102 11.2199L16.9589 11.7768C16.8262 11.89 16.8107 12.0896 16.924 12.222Z" fill="#DB8972"/>
<path d="M4.62979 2.38281H2.1028C1.23199 2.38281 0.523438 3.09137 0.523438 3.96218V16.913C0.523438 17.7838 1.23199 18.4924 2.1028 18.4924H4.62979C5.5006 18.4924 6.20916 17.7838 6.20916 16.913V3.96218C6.20916 3.09137 5.5006 2.38281 4.62979 2.38281ZM3.68217 16.2812C3.65063 17.5277 1.82006 17.5332 1.78693 16.2812V5.85742C1.81847 4.61099 3.64905 4.60544 3.68217 5.85745V16.2812Z" fill="#DB8972"/>
<path d="M9.3695 11.543C8.84695 11.543 8.42188 11.968 8.42188 12.4906V16.2811C8.4542 17.5295 10.2843 17.5313 10.3171 16.281V12.4906C10.3171 11.968 9.89204 11.543 9.3695 11.543Z" fill="#DB8972"/>
<path d="M17.8954 12.8066H15.3684C14.4976 12.8066 13.7891 13.5152 13.7891 14.386V16.913C13.7891 17.7838 14.4976 18.4924 15.3684 18.4924H17.8954C18.7662 18.4924 19.4748 17.7838 19.4748 16.913V14.386C19.4748 13.5152 18.7662 12.8066 17.8954 12.8066ZM16.9478 16.2812C16.9151 17.5305 15.0852 17.5308 15.0526 16.2812V15.3336C15.0526 14.8111 15.4776 14.386 16.0002 14.386C16.5227 14.386 16.9478 14.8111 16.9478 15.3336V16.2812Z" fill="#DB8972"/>
</svg>
