<svg width="16" height="19" viewBox="0 0 16 19" fill="none" xmlns="http://www.w3.org/2000/svg">
<path d="M15.2327 2.80113C15.2474 2.45107 15.1657 2.1037 14.9967 1.79682L15.001 1.78302C14.8028 1.38784 14.4983 1.05571 14.1219 0.823909C13.7454 0.592106 13.3118 0.469798 12.8696 0.470708C11.533 0.483786 10.196 0.459449 8.85969 0.48197C8.44708 0.476521 8.03422 0.473252 7.62112 0.472164C7.20813 0.473615 6.79527 0.476883 6.38254 0.48197C5.04625 0.459449 3.70924 0.483777 2.37259 0.470708C1.93047 0.469798 1.49685 0.592106 1.12037 0.823909C0.743891 1.05571 0.439454 1.38784 0.241217 1.78302L0.245575 1.79682C0.076515 2.1037 -0.00514412 2.45107 0.00948293 2.80113C0.011664 7.31704 0.011906 11.8329 0.0102092 16.3489C0.0497664 16.9211 0.303874 17.4574 0.721724 17.8504C1.13957 18.2434 1.69037 18.4642 2.26398 18.4686C4.04957 18.4708 5.83527 18.4713 7.62111 18.4701C9.40706 18.4704 11.1928 18.4699 12.9782 18.4686C13.5518 18.4642 14.1026 18.2434 14.5205 17.8504C14.9383 17.4574 15.1924 16.9211 15.232 16.3489C15.2346 11.8329 15.2348 7.31703 15.2327 2.80113ZM6.54707 1.02427C6.90484 1.02499 7.26286 1.02522 7.62112 1.02498C7.97925 1.02498 8.33727 1.02474 8.69516 1.02426C8.7592 1.02818 8.82161 1.04603 8.87804 1.07656C8.93447 1.1071 8.98356 1.14958 9.02188 1.20104C9.0602 1.2525 9.08683 1.3117 9.09991 1.37452C9.11299 1.43733 9.1122 1.50225 9.0976 1.56473C9.07993 1.66703 9.02593 1.75951 8.94552 1.82517C8.86511 1.89084 8.76369 1.92527 8.65993 1.92214C8.31378 1.92177 7.96763 1.92032 7.62112 1.91995C7.2746 1.92031 6.92845 1.92176 6.58231 1.92212C6.47854 1.92526 6.37713 1.89083 6.29672 1.82517C6.21631 1.75951 6.1623 1.66703 6.14462 1.56473C6.13003 1.50225 6.12925 1.43734 6.14232 1.37452C6.1554 1.31171 6.18203 1.25251 6.22035 1.20105C6.25867 1.14959 6.30776 1.10711 6.36419 1.07658C6.42062 1.04604 6.48303 1.02819 6.54707 1.02427ZM8.35046 16.4059C8.24912 16.5323 8.07369 16.5069 7.93058 16.5094C7.82743 16.5065 7.72427 16.5061 7.62112 16.5061C7.51796 16.5061 7.4148 16.5065 7.31165 16.5094C7.16854 16.5069 6.99311 16.5323 6.89177 16.4059C6.84807 16.3587 6.8179 16.3005 6.80444 16.2376C6.79098 16.1747 6.79472 16.1093 6.81528 16.0484C6.83584 15.9874 6.87245 15.9331 6.92125 15.8912C6.97006 15.8493 7.02926 15.8213 7.09263 15.8102C7.26879 15.8037 7.44495 15.8066 7.62111 15.808C7.79727 15.8066 7.97343 15.8037 8.14959 15.8102C8.21296 15.8213 8.27217 15.8493 8.32097 15.8912C8.36978 15.9331 8.40639 15.9874 8.42695 16.0484C8.4475 16.1093 8.45125 16.1747 8.43779 16.2376C8.42433 16.3005 8.39416 16.3587 8.35046 16.4059ZM12.9677 10.4178C12.5011 11.4355 11.7574 12.3012 10.8218 12.9161C9.98586 13.4579 9.02576 13.778 8.03192 13.8463C7.89535 13.8535 7.75841 13.8563 7.62112 13.8546C7.48382 13.8564 7.34688 13.8536 7.21031 13.8463C6.21647 13.778 5.25637 13.4579 4.42042 12.9161C3.48482 12.3012 2.74117 11.4355 2.27452 10.4178C1.96676 9.72285 1.80077 8.97345 1.78627 8.21352C1.77177 7.45358 1.90905 6.69839 2.19008 5.99218C2.4711 5.28597 2.89022 4.64293 3.42288 4.10073C3.95554 3.55852 4.59104 3.12806 5.29215 2.83454C6.02918 2.52339 6.82109 2.36308 7.62112 2.36308C8.42114 2.36308 9.21305 2.52339 9.95008 2.83454C10.6512 3.12806 11.2867 3.55852 11.8194 4.10073C12.352 4.64293 12.7711 5.28597 13.0522 5.99218C13.3332 6.6984 13.4705 7.45359 13.456 8.21352C13.4415 8.97346 13.2755 9.72287 12.9677 10.4178Z" fill="#3D959B"/>
<path d="M10.5359 3.68451C9.51235 3.04044 8.30391 2.7544 7.10021 2.87127C6.25522 2.94418 5.4401 3.21899 4.72345 3.67258C4.00679 4.12616 3.40957 4.74524 2.98203 5.47773C2.51015 6.28723 2.26413 7.20851 2.26962 8.14549C2.27512 9.08246 2.53193 10.0008 3.01327 10.8047C3.60496 11.7673 4.4833 12.5204 5.52493 12.9582C6.57728 13.3837 7.73385 13.4803 8.84222 13.2354C9.63734 13.0544 10.3805 12.694 11.0149 12.1816C11.6492 11.6692 12.1579 11.0184 12.502 10.2791C12.8034 9.62701 12.9659 8.91932 12.9791 8.20104C12.9923 7.48275 12.8559 6.76958 12.5787 6.10683C12.1572 5.11211 11.4452 4.26783 10.5359 3.68451ZM12.1493 10.0706C11.8353 10.7529 11.3707 11.3551 10.7903 11.8318C10.2099 12.3085 9.52892 12.6473 8.79864 12.8227C7.81592 13.0546 6.78653 12.9899 5.84058 12.6368C5.02512 12.3183 4.30379 11.7982 3.74408 11.1251C3.26776 10.533 2.93879 9.83637 2.78422 9.09239C2.62964 8.34842 2.65387 7.57839 2.85492 6.84561C3.0826 6.02831 3.5189 5.28427 4.12099 4.68652C4.72307 4.08877 5.47024 3.65785 6.28916 3.43607C6.64254 3.33869 7.00686 3.28658 7.37337 3.28098C7.36429 4.63433 7.37155 5.98842 7.36283 7.34177C7.194 7.40727 7.05208 7.52761 6.95987 7.68346C6.86765 7.83931 6.83048 8.02164 6.85433 8.20115C6.8802 8.35427 6.95038 8.49646 7.05618 8.61013C7.16198 8.72381 7.29877 8.804 7.44965 8.84078C7.55904 8.86606 7.67258 8.86751 7.78258 8.84502C7.89258 8.82253 7.99645 8.77663 8.08714 8.71044C8.17783 8.64425 8.25321 8.55932 8.30816 8.46141C8.36312 8.36351 8.39636 8.25492 8.40564 8.14303C8.41535 7.96739 8.36776 7.79333 8.27002 7.64706C8.17229 7.50079 8.02971 7.39022 7.86371 7.33197C7.88151 5.98079 7.86335 4.62961 7.86626 3.27843C8.75621 3.31182 9.62056 3.58529 10.3678 4.06989C11.3296 4.69501 12.0373 5.64241 12.3638 6.74213C12.6903 7.84184 12.6143 9.0219 12.1493 10.0706Z" fill="#3D959B"/>
<path d="M8.33316 10C7.81703 10.012 7.2998 9.99564 6.78439 10.0116C6.64179 10.0312 6.51165 10.1034 6.41942 10.2139C6.32718 10.3244 6.2795 10.4653 6.28569 10.6091C6.28868 10.7637 6.35233 10.9109 6.46289 11.0189C6.57345 11.127 6.72206 11.1872 6.87665 11.1866C7.37462 11.1877 7.87332 11.1903 8.3713 11.1826C8.51514 11.1801 8.65269 11.1232 8.75631 11.0234C8.85994 10.9237 8.92197 10.7883 8.92993 10.6447C8.9363 10.5625 8.9256 10.4798 8.89849 10.4019C8.87139 10.324 8.82847 10.2525 8.77243 10.1919C8.71639 10.1314 8.64845 10.0831 8.57285 10.0501C8.49726 10.017 8.41566 9.99999 8.33316 10Z" fill="#3D959B"/>
</svg>
